<?xml version="1.0" encoding="UTF-8" standalone="no"?><!DOCTYPE svg PUBLIC "-//W3C//DTD SVG 1.1//EN" "http://www.w3.org/Graphics/SVG/1.1/DTD/svg11.dtd"><svg width="100%" height="100%" viewBox="0 0 100 100" version="1.1" xmlns="http://www.w3.org/2000/svg" xmlns:xlink="http://www.w3.org/1999/xlink" xml:space="preserve" xmlns:serif="http://www.serif.com/" style="fill-rule:evenodd;clip-rule:evenodd;stroke-linejoin:round;stroke-miterlimit:2;"><g id="SVGRepo_iconCarrier"><path d="M55.905,62.809l-11.811,-0l-4.746,-47.861l21.304,0l-4.747,47.861Z" style="fill-rule:nonzero;"/><ellipse cx="50.004" cy="76.985" rx="9.069" ry="9.097"/><path d="M10.785,57.919c-0.515,-2.56 -0.785,-5.208 -0.785,-7.919c0,-2.711 0.27,-5.359 0.785,-7.919l-9.676,-2.593c-0.726,3.387 -1.109,6.905 -1.109,10.512c0,3.607 0.383,7.125 1.109,10.512l9.676,-2.593Zm9.224,-34.375l-7.081,-7.081c-4.701,5.193 -8.327,11.375 -10.526,18.195l9.676,2.593c1.718,-5.106 4.44,-9.754 7.931,-13.707Zm-0,52.912c-3.491,-3.953 -6.212,-8.6 -7.931,-13.707l-9.676,2.593c2.2,6.821 5.826,13.002 10.526,18.195l7.081,-7.081Zm17.242,-64.378l-2.593,-9.676c-6.821,2.2 -13.002,5.826 -18.195,10.526l7.081,7.081c3.953,-3.491 8.6,-6.212 13.707,-7.931Zm-0,75.844c-5.106,-1.718 -9.754,-4.44 -13.707,-7.931l-7.081,7.081c5.193,4.701 11.375,8.327 18.195,10.526l2.593,-9.676Zm23.261,-86.813c-3.387,-0.726 -6.905,-1.109 -10.512,-1.109c-3.607,-0 -7.125,0.383 -10.512,1.109l2.593,9.676c2.56,-0.515 5.208,-0.785 7.919,-0.785c2.711,-0 5.359,0.27 7.919,0.785l2.593,-9.676Zm0,97.782l-2.593,-9.676c-2.56,0.515 -5.208,0.785 -7.919,0.785c-2.711,-0 -5.359,-0.27 -7.919,-0.785l-2.593,9.676c3.387,0.726 6.905,1.109 10.512,1.109c3.607,-0 7.125,-0.383 10.512,-1.109Zm23.025,-85.963c-5.193,-4.701 -11.375,-8.327 -18.195,-10.526l-2.593,9.676c5.106,1.718 9.754,4.44 13.707,7.931l5.544,-2.009l1.537,-5.072Zm-0,74.144l-7.081,-7.081c-3.953,3.491 -8.6,6.212 -13.707,7.931l2.593,9.676c6.821,-2.2 13.002,-5.826 18.195,-10.526Zm-9.037,-63.528l10,-3.535l3.422,-10.509l5.578,20.5l-19,-6.456Zm23.098,41.798l-9.676,-2.593c-1.718,5.106 -4.44,9.754 -7.931,13.707l7.081,7.081c4.701,-5.193 8.327,-11.375 10.526,-18.195Zm1.293,-25.854l-4.391,2.593l-5.285,-0c0.515,2.56 0.785,5.208 0.785,7.919c-0,2.711 -0.27,5.359 -0.785,7.919l9.676,2.593c0.726,-3.387 1.109,-6.905 1.109,-10.512c0,-3.607 -0.383,-7.125 -1.109,-10.512Z"/></g></svg>