<?xml version="1.0" encoding="UTF-8" standalone="no"?><!DOCTYPE svg PUBLIC "-//W3C//DTD SVG 1.1//EN" "http://www.w3.org/Graphics/SVG/1.1/DTD/svg11.dtd"><svg width="100%" height="100%" viewBox="0 0 100 100" version="1.1" xmlns="http://www.w3.org/2000/svg" xmlns:xlink="http://www.w3.org/1999/xlink" xml:space="preserve" xmlns:serif="http://www.serif.com/" style="fill-rule:evenodd;clip-rule:evenodd;stroke-linecap:round;stroke-linejoin:round;stroke-miterlimit:1.5;"><path d="M50,5.001l-4.856,13.27c-2.328,0.356 -4.61,0.967 -6.804,1.823l-10.84,-9.064l2.43,13.92c-1.838,1.472 -3.509,3.143 -4.981,4.981l-13.92,-2.43l9.065,10.839c-0.857,2.195 -1.468,4.477 -1.824,6.805l-13.27,4.855l13.27,4.856c0.356,2.328 0.967,4.61 1.824,6.804l-9.065,10.84l13.92,-2.43c1.472,1.838 3.143,3.509 4.981,4.981l-2.43,13.92l10.84,-9.065c2.194,0.857 4.476,1.468 6.804,1.824l4.856,13.27l4.855,-13.27c2.328,-0.356 4.61,-0.967 6.805,-1.824l10.839,9.065l-2.43,-13.92c1.838,-1.472 3.509,-3.143 4.981,-4.981l13.92,2.43l-9.064,-10.84c0.856,-2.194 1.467,-4.476 1.823,-6.804l13.271,-4.856l-13.271,-4.855c-0.356,-2.328 -0.967,-4.61 -1.823,-6.805l9.064,-10.839l-13.92,2.43c-1.472,-1.838 -3.143,-3.509 -4.981,-4.981l2.43,-13.92l-10.839,9.064c-2.195,-0.856 -4.477,-1.467 -6.805,-1.823l-4.855,-13.271l-0,0.001Z" style="fill:#ffd700;"/><path d="M50.662,6.812l0.186,0.508c-0.462,0.385 -0.823,0.662 -0.847,0.68l0.873,-0.61l3.981,10.881c2.328,0.356 4.61,0.967 6.805,1.823l10.839,-9.064l-2.43,13.92c1.838,1.472 3.509,3.143 4.981,4.981l13.92,-2.43l-9.064,10.839c0.856,2.195 1.467,4.477 1.823,6.805l13.271,4.855l-13.271,4.856c-0.356,2.328 -0.967,4.61 -1.823,6.804l9.064,10.84l-13.92,-2.43c-1.472,1.838 -3.143,3.509 -4.981,4.981l2.43,13.92l-10.839,-9.065c-2.195,0.857 -4.477,1.468 -6.805,1.824l-4.855,13.27l-4.856,-13.27c-2.328,-0.356 -4.61,-0.967 -6.804,-1.824l-10.84,9.065l2.43,-13.92c-1.838,-1.472 -3.509,-3.143 -4.981,-4.981l-13.92,2.43l9.065,-10.84c-0.857,-2.194 -1.468,-4.476 -1.824,-6.804l-13.27,-4.856l13.27,-4.855c0.356,-2.328 0.967,-4.61 1.824,-6.805l-9.065,-10.839l13.92,2.43c1.472,-1.838 3.143,-3.509 4.981,-4.981l-2.43,-13.92l10.84,9.064c2.194,-0.856 4.476,-1.467 6.804,-1.823l3.982,-10.882l0.872,0.61c-0.027,-0.033 -0.343,-0.423 -0.761,-0.914l0.042,-0.115l0.719,1.029l0.002,0.001c-0,0 0.277,-0.529 0.662,-1.188Zm-0.662,6.919l2.038,5.571c0.376,1.028 1.282,1.77 2.364,1.935c2.11,0.322 4.178,0.876 6.167,1.652c1.02,0.398 2.175,0.209 3.015,-0.493l4.55,-3.805c-0,0 -1.021,5.843 -1.021,5.843c-0.188,1.078 0.226,2.173 1.08,2.858c1.667,1.334 3.181,2.848 4.515,4.515c0.685,0.854 1.78,1.268 2.858,1.08l5.843,-1.021c-0,0 -3.805,4.55 -3.805,4.55c-0.702,0.84 -0.891,1.995 -0.493,3.015c0.776,1.989 1.33,4.057 1.652,6.167c0.165,1.082 0.907,1.988 1.935,2.364l5.571,2.038c-0,0 -5.571,2.039 -5.571,2.039c-1.028,0.376 -1.77,1.282 -1.935,2.364c-0.322,2.11 -0.876,4.178 -1.652,6.167c-0.398,1.02 -0.209,2.175 0.493,3.015l3.805,4.55c-0,-0 -5.843,-1.021 -5.843,-1.021c-1.078,-0.188 -2.173,0.226 -2.858,1.08c-1.334,1.667 -2.848,3.181 -4.515,4.515c-0.854,0.685 -1.268,1.78 -1.08,2.858l1.021,5.843c-0,-0 -4.55,-3.805 -4.55,-3.805c-0.84,-0.702 -1.995,-0.891 -3.015,-0.493c-1.989,0.776 -4.057,1.33 -6.167,1.652c-1.082,0.165 -1.988,0.907 -2.364,1.935l-2.038,5.57c-0,0 -2.039,-5.57 -2.039,-5.57c-0.376,-1.028 -1.282,-1.77 -2.364,-1.935c-2.11,-0.322 -4.178,-0.876 -6.167,-1.652c-1.02,-0.398 -2.175,-0.209 -3.015,0.493l-4.55,3.805c0,-0 1.021,-5.843 1.021,-5.843c0.188,-1.078 -0.226,-2.173 -1.08,-2.858c-1.667,-1.334 -3.181,-2.848 -4.515,-4.515c-0.685,-0.854 -1.78,-1.268 -2.858,-1.08l-5.843,1.021c0,-0 3.805,-4.55 3.805,-4.55c0.702,-0.84 0.891,-1.995 0.493,-3.015c-0.776,-1.989 -1.33,-4.057 -1.652,-6.167c-0.165,-1.082 -0.907,-1.988 -1.935,-2.364l-5.57,-2.039c-0,0 5.57,-2.038 5.57,-2.038c1.028,-0.376 1.77,-1.282 1.935,-2.364c0.322,-2.11 0.876,-4.178 1.652,-6.167c0.398,-1.02 0.209,-2.175 -0.493,-3.015l-3.805,-4.55c0,0 5.843,1.021 5.843,1.021c1.078,0.188 2.173,-0.226 2.858,-1.08c1.334,-1.667 2.848,-3.181 4.515,-4.515c0.854,-0.685 1.268,-1.78 1.08,-2.858l-1.021,-5.843c0,0 4.55,3.805 4.55,3.805c0.84,0.702 1.995,0.891 3.015,0.493c1.989,-0.776 4.057,-1.33 6.167,-1.652c1.082,-0.165 1.988,-0.907 2.364,-1.935l2.039,-5.571Z" style="fill:#fff;"/><g><path d="M42.067,87.373c-7.956,3.958 -16.234,3.818 -20.567,-1.003c-0.815,-0.906 -1.448,-1.932 -1.904,-3.047c-1.003,0.208 -2.044,0.312 -3.111,0.312c-8.548,-0 -15.485,-6.841 -15.485,-15.272c-0,-8.431 6.937,-15.272 15.485,-15.272l0.211,0c1.463,-7.396 10.226,-13.091 20.808,-13.091c9.848,0 18.118,4.932 20.4,11.574c7.096,-7.121 16.344,-3.83 20.685,1.042c0.811,0.907 1.437,1.937 1.881,3.051c1.008,-0.2 2.052,-0.299 3.115,-0.295c8.552,0.044 15.452,6.921 15.415,15.347c-0.041,8.431 -7.015,15.24 -15.563,15.196l-0.211,0c-1.496,7.388 -10.289,13.044 -20.874,12.992c-9.771,-0.048 -17.974,-4.949 -20.285,-11.534Z" style="fill:#fff;"/><path d="M82.257,88.754c-2.893,5.95 -10.725,10.198 -19.905,10.153c-9.771,-0.048 -17.974,-4.949 -20.285,-11.534c-7.956,3.958 -16.234,3.818 -20.567,-1.003c-0.815,-0.906 -1.448,-1.932 -1.904,-3.047c-1.003,0.208 -2.044,0.312 -3.111,0.312c-8.548,-0 -15.485,-6.841 -15.485,-15.272c-0,-8.431 6.937,-15.272 15.485,-15.272l0.211,0c1.463,-7.396 10.226,-13.091 20.808,-13.091c9.848,0 18.118,4.932 20.4,11.574c7.096,-7.121 16.344,-3.83 20.685,1.042c0.811,0.907 1.437,1.937 1.881,3.051c1.008,-0.2 2.052,-0.299 3.115,-0.295c8.552,0.044 15.452,6.921 15.415,15.347c-0.041,8.431 -7.015,15.24 -15.563,15.196l-0.211,0c-0.06,0.296 -0.132,0.588 -0.216,0.879c-0.133,-1.727 -0.178,-3.879 0.421,-3.879c0.027,0 0.054,0.001 0.08,0c6.854,0.004 12.456,-5.443 12.489,-12.21c0.029,-6.782 -5.545,-12.297 -12.428,-12.333c-0.86,-0.003 -1.704,0.076 -2.518,0.238c-1.418,0.281 -2.835,-0.489 -3.37,-1.831c-0.315,-0.79 -0.756,-1.521 -1.331,-2.163c-0.001,-0.001 -0.003,-0.003 -0.004,-0.004c-3.426,-3.846 -10.72,-6.54 -16.321,-0.921c-0.731,0.734 -1.789,1.039 -2.798,0.806c-1.009,-0.232 -1.827,-0.969 -2.164,-1.949c-1.944,-5.66 -9.169,-9.548 -17.562,-9.548c-8.958,0 -16.626,4.412 -17.865,10.673c-0.278,1.406 -1.51,2.418 -2.943,2.418l-0.211,0c-6.881,0 -12.485,5.486 -12.485,12.272c-0,6.786 5.604,12.272 12.485,12.272c0.858,-0 1.696,-0.082 2.503,-0.249c1.416,-0.293 2.838,0.464 3.385,1.802c0.325,0.796 0.776,1.53 1.358,2.177c3.578,3.98 10.43,3.59 16.999,0.322c0.771,-0.383 1.668,-0.417 2.466,-0.094c0.797,0.324 1.416,0.975 1.701,1.786c1.971,5.616 9.138,9.487 17.469,9.528c8.961,0.044 16.653,-4.333 17.919,-10.587c-0.178,0.882 0.049,1.798 0.618,2.494c0.359,0.439 0.83,0.761 1.354,0.94Z" style="fill:#d3d3d3;"/><path d="M54.999,66.41c5.351,-12.493 27.714,-4.924 21.658,10.05" style="fill:#fff;stroke:#d3d3d3;stroke-width:3px;"/><path d="M17.031,66.453c-4.441,-7.137 4.14,-15.335 10.969,-12.24" style="fill:#fff;stroke:#d3d3d3;stroke-width:3px;"/><path d="M43.29,72.453c1.984,-8.168 13.846,-7.784 16.42,-0.743" style="fill:#fff;stroke:#d3d3d3;stroke-width:3px;"/><path d="M24.917,87.263c-7.662,-5.099 -3.391,-16.407 4.615,-16.151" style="fill:#fff;stroke:#d3d3d3;stroke-width:3px;"/></g></svg>