<?xml version="1.0" encoding="UTF-8" standalone="no"?><!DOCTYPE svg PUBLIC "-//W3C//DTD SVG 1.1//EN" "http://www.w3.org/Graphics/SVG/1.1/DTD/svg11.dtd"><svg width="100%" height="100%" viewBox="0 0 100 100" version="1.1" xmlns="http://www.w3.org/2000/svg" xmlns:xlink="http://www.w3.org/1999/xlink" xml:space="preserve" xmlns:serif="http://www.serif.com/" style="fill-rule:evenodd;clip-rule:evenodd;stroke-linecap:round;stroke-linejoin:round;stroke-miterlimit:1.5;"><g><path d="M42.067,57.373c-7.956,3.958 -16.234,3.818 -20.567,-1.003c-0.815,-0.906 -1.448,-1.932 -1.904,-3.047c-1.003,0.208 -2.044,0.312 -3.111,0.312c-8.548,-0 -15.485,-6.841 -15.485,-15.272c-0,-8.431 6.937,-15.272 15.485,-15.272l0.211,0c1.463,-7.396 10.226,-13.091 20.808,-13.091c9.848,-0 18.118,4.932 20.4,11.574c7.096,-7.121 16.344,-3.83 20.685,1.042c0.811,0.907 1.437,1.937 1.881,3.051c1.008,-0.2 2.052,-0.299 3.115,-0.295c8.552,0.044 15.452,6.921 15.415,15.347c-0.041,8.431 -7.015,15.24 -15.563,15.196l-0.211,0c-1.496,7.388 -10.289,13.044 -20.874,12.992c-9.771,-0.048 -17.974,-4.949 -20.285,-11.534Z" style="fill:#d3d3d3;"/><path d="M82.126,59.015c-2.991,5.812 -10.728,9.936 -19.774,9.892c-9.771,-0.048 -17.974,-4.949 -20.285,-11.534c-7.956,3.958 -16.234,3.818 -20.567,-1.003c-0.815,-0.906 -1.448,-1.932 -1.904,-3.047c-1.003,0.208 -2.044,0.312 -3.111,0.312c-8.548,-0 -15.485,-6.841 -15.485,-15.272c-0,-8.431 6.937,-15.272 15.485,-15.272l0.211,0c1.463,-7.396 10.226,-13.091 20.808,-13.091c9.848,0 18.118,4.932 20.4,11.574c7.096,-7.121 16.344,-3.83 20.685,1.042c0.811,0.907 1.437,1.937 1.881,3.051c1.008,-0.2 2.052,-0.299 3.115,-0.295c8.552,0.044 15.452,6.921 15.415,15.347c-0.041,8.431 -7.015,15.24 -15.563,15.196l-0.211,0c-0.134,0.66 -0.326,1.306 -0.573,1.935c-0.735,-1.926 -1.651,-5.225 0.678,-5.225l0.123,0.004l-0,-0.004c6.719,0.035 12.224,-5.294 12.256,-11.921c0.029,-6.624 -5.417,-12.007 -12.14,-12.043c-0.839,-0.003 -1.664,0.075 -2.46,0.233c-1.555,0.308 -3.108,-0.536 -3.695,-2.008c-0.303,-0.758 -0.726,-1.46 -1.278,-2.076c-0.002,-0.002 -0.003,-0.004 -0.005,-0.006c-3.337,-3.746 -10.442,-6.383 -15.898,-0.908c-0.802,0.805 -1.962,1.139 -3.069,0.884c-1.107,-0.255 -2.004,-1.063 -2.373,-2.138c-1.912,-5.565 -9.035,-9.352 -17.288,-9.352c-8.801,-0 -16.364,4.288 -17.58,10.44c-0.305,1.541 -1.657,2.651 -3.228,2.651l-0.211,0c-6.719,0 -12.195,5.355 -12.195,11.982c-0,6.627 5.476,11.982 12.195,11.982c0.838,-0 1.656,-0.08 2.445,-0.243c1.552,-0.321 3.112,0.509 3.711,1.976c0.313,0.765 0.746,1.471 1.306,2.093c3.505,3.899 10.219,3.458 16.654,0.256c0.845,-0.42 1.83,-0.457 2.704,-0.102c0.874,0.355 1.553,1.068 1.866,1.959c1.938,5.522 9.004,9.293 17.197,9.333c8.804,0.043 16.389,-4.21 17.633,-10.355c-0.196,0.968 0.053,1.972 0.678,2.736c0.385,0.47 0.887,0.819 1.447,1.017Z" style="fill:#808080;"/><path d="M54.999,36.41c5.351,-12.493 27.714,-4.924 21.658,10.05" style="fill:#d3d3d3;stroke:#808080;stroke-width:3px;"/><path d="M17.031,36.453c-4.441,-7.137 4.14,-15.335 10.969,-12.24" style="fill:#d3d3d3;stroke:#808080;stroke-width:3px;"/><path d="M43.29,42.453c1.984,-8.168 13.846,-7.784 16.42,-0.743" style="fill:#d3d3d3;stroke:#808080;stroke-width:3px;"/><path d="M25.105,56.998c-7.659,-5.102 -3.527,-16.215 4.427,-15.886" style="fill:#d3d3d3;stroke:#808080;stroke-width:3px;"/></g><path d="M59.737,84.681l-0.825,-0.401l0.644,-1.16l-0.404,-0.553l0.716,-0.008l0.632,-1.14l0.84,0.408l-0.378,-2.52l1.847,1.777l0.155,-0.846l1.35,0.203l0.454,-0.563l0.226,0.665l1.31,0.196l-0.161,0.873l2.43,-1.164l-1.255,2.261l0.894,-0.134l0.189,1.256l0.714,0.231l-0.615,0.43l0.188,1.255l-0.895,0.134l1.864,1.794l-2.664,-0.399l0.41,0.786l-1.194,0.572l-0.022,0.704l-0.6,-0.407l-1.23,0.59l-0.397,-0.762l-1.244,2.241l-0.378,-2.522l-0.683,0.637l-0.938,-0.903l-0.687,0.202l0.223,-0.648l-0.956,-0.92l0.669,-0.624l-2.623,-0.394l2.394,-1.147Zm6.578,-0.681l1.495,0.224l-1.364,0.654l-0.028,-0.191l0.332,-0.226l-0.384,-0.118l-0.051,-0.343Zm0.172,1.835l-0.453,-0.422l0.482,-0.073l-0.057,-0.377l0.403,0.196l-0.375,0.676Zm-0.343,-2.693l0.486,0.467l-0.328,0.306l-0.034,-0.226l-0.481,0.072l0.357,-0.619Zm-3.602,-0.987l0.287,0.194l0.743,-0.356l0.24,0.46l0.751,-1.354l0.229,1.524l0.413,-0.385l0.567,0.546l0.415,-0.122l-0.021,0.059l-1.007,0.472l0.088,-0.456l-0.703,-0.099l-0.12,-0.346l-0.245,0.295l-0.725,-0.102l-0.086,0.441l-0.826,-0.771Zm2.727,2.759l0.267,0.125l-0.211,0.366l0.13,0.174l-0.232,0.003l-0.207,0.36l-0.272,-0.127l0.119,0.793l-0.597,-0.557l-0.052,0.267l-0.438,-0.062l-0.148,0.178l-0.072,-0.209l-0.425,-0.06l0.053,-0.275l-0.79,0.37l0.411,-0.714l-0.291,0.044l-0.059,-0.395l-0.232,-0.072l0.201,-0.136l-0.06,-0.395l0.291,-0.044l-0.602,-0.562l0.864,0.122l-0.132,-0.247l0.389,-0.182l0.008,-0.221l0.194,0.127l0.4,-0.188l0.128,0.24l0.407,-0.708l0.119,0.793l0.223,-0.201l0.303,0.283l0.224,-0.065l-0.074,0.205l0.309,0.288l-0.218,0.197l0.851,0.12l-0.779,0.365Zm0.633,1.974l-0.395,-0.192l0.312,-0.146l-0.218,-0.409l0.664,0.094l-0.363,0.653Zm-0.279,1.276l-1.064,-1.024l0.283,-0.132l0.321,0.21l0.013,-0.367l0.234,-0.109l0.213,1.422Zm-1.209,-0.562l-0.771,-0.116l0.325,-0.564l0.211,0.396l0.314,-0.147l-0.079,0.431Zm-1.94,-0.726l0.254,0.237l0.369,-0.333l0.1,0.667l-0.01,-0.029l-0.791,-0.119l0.078,-0.423Zm-0.02,-4.379l0.123,0.819l-0.45,-0.21l-0.343,0.595l-0.384,0.007l0.215,0.287l-0.349,0.606l0.443,0.207l-0.968,0.452l0.328,-0.229l-0.114,-0.758l0.541,-0.081l-1.126,-1.084l1.609,0.242l-0.247,-0.475l0.721,-0.346l0.001,-0.032Zm-0.048,4.316l-1.381,0.662l0.713,-1.285l0.24,0.224l-0.121,0.338l0.369,-0.107l0.18,0.168Zm-1.163,-0.624l-0.102,-0.676l0.687,0.097l-0.361,0.327l0.202,0.189l-0.426,0.063Z" style="fill:#fff;stroke:#bbc7e2;stroke-width:0.5px;"/><path d="M16.688,85.033l-0.635,-0.862l1.296,-0.844l-0.117,-0.789l0.745,0.38l1.274,-0.83l0.648,0.878l0.978,-2.802l0.945,2.835l0.621,-0.786l1.287,0.944l0.775,-0.334l-0.127,0.809l1.249,0.915l-0.641,0.812l3.147,0.124l-2.527,1.646l0.998,0.348l-0.488,1.396l0.615,0.627l-0.871,0.108l-0.487,1.395l-0.999,-0.349l0.954,2.863l-2.54,-1.862l-0.003,1.033l-1.547,-0.061l-0.405,0.713l-0.4,-0.744l-1.593,-0.063l0.003,-1l-2.505,1.631l0.979,-2.803l-1.053,0.284l-0.48,-1.441l-0.821,-0.166l0.583,-0.546l-0.489,-1.469l1.032,-0.278l-2.502,-1.834l3.101,0.122Zm7.178,2.878l1.426,1.046l-1.767,-0.07l0.074,-0.211l0.466,-0.052l-0.332,-0.331l0.133,-0.382Zm-0.819,1.985l-0.239,-0.682l0.537,0.188l0.147,-0.419l0.31,0.421l-0.755,0.492Zm1.109,-2.961l0.248,0.746l-0.505,0.136l0.087,-0.251l-0.536,-0.187l0.706,-0.444Zm-3.192,-2.978l0.192,0.357l0.962,0.038l-0.002,0.604l1.514,-0.986l-0.592,1.694l0.637,-0.171l0.29,0.87l0.496,0.101l-0.053,0.05l-1.3,-0.063l0.34,-0.421l-0.674,-0.485l0.063,-0.422l-0.413,0.17l-0.695,-0.499l-0.329,0.407l-0.436,-1.244Zm1.323,4.327l0.209,0.274l-0.418,0.263l0.041,0.249l-0.243,-0.122l-0.409,0.258l-0.213,-0.28l-0.308,0.882l-0.315,-0.898l-0.198,0.246l-0.42,-0.302l-0.25,0.103l0.039,-0.255l-0.408,-0.293l0.205,-0.254l-1.019,-0.05l0.813,-0.511l-0.324,-0.113l0.153,-0.44l-0.201,-0.199l0.282,-0.032l0.153,-0.438l0.325,0.113l-0.318,-0.907l0.828,0.596l-0.002,-0.326l0.501,0.024l0.128,-0.224l0.132,0.236l0.516,0.025l0.002,0.316l0.806,-0.507l-0.308,0.882l0.34,-0.086l0.161,0.456l0.266,0.055l-0.187,0.171l0.163,0.465l-0.333,0.085l0.815,0.586l-1.004,-0.048Zm-0.417,2.379l-0.305,-0.414l0.403,0.02l-0.004,-0.54l0.636,0.458l-0.73,0.476Zm-0.983,1.162l-0.544,-1.635l0.364,0.018l0.218,0.391l0.214,-0.37l0.301,0.014l-0.553,1.582Zm-0.946,-1.238l-0.734,-0.538l0.642,-0.405l0.004,0.523l0.405,0.019l-0.317,0.401Zm-1.613,-1.804l0.135,0.384l0.562,-0.143l-0.259,0.742l0.006,-0.036l-0.755,-0.553l0.311,-0.394Zm2.36,-4.521l-0.318,0.911l-0.352,-0.462l-0.678,0.427l-0.401,-0.202l0.066,0.412l-0.69,0.435l0.345,0.454l-1.247,-0.06l0.464,-0.058l0.294,-0.843l0.604,0.211l-0.577,-1.73l1.535,1.125l0.002,-0.624l0.934,0.037l0.019,-0.033Zm-2.395,4.42l-1.79,-0.07l1.437,-0.936l0.127,0.362l-0.31,0.282l0.441,0.091l0.095,0.271Zm-0.866,-1.275l0.263,-0.753l0.658,0.474l-0.551,0.14l0.107,0.305l-0.477,-0.166Z" style="fill:#fff;stroke:#bbc7e2;stroke-width:0.5px;"/><path d="M20.445,61.316l1.285,-0.779l1.025,1.918l1.12,-0.064l-0.624,0.993l1.006,1.885l-1.309,0.793l3.806,1.721l-4.088,0.962l1.025,0.966l-1.479,1.679l0.372,1.124l-1.118,-0.279l-1.435,1.629l-1.059,-0.999l-0.559,4.381l-1.996,-3.739l-0.61,1.35l-1.897,-0.857l-0.953,0.779l-0.045,-1.231l-1.894,-0.856l0.611,-1.352l-4.129,0.972l2.919,-3.313l-1.446,-0.135l0.275,-2.153l-0.95,-0.656l1.093,-0.464l0.282,-2.218l1.402,0.131l-1.979,-3.705l3.808,1.722l-0.27,-1.507l2.078,-0.489l0.333,-1.126l0.693,0.885l2.118,-0.499l0.264,1.477l2.875,-3.262l-0.55,4.316Zm-4.912,9.662l-1.639,1.86l0.313,-2.459l0.288,0.13l0.016,0.657l0.504,-0.422l0.518,0.234Zm-2.68,-1.394l0.984,-0.248l-0.328,0.727l0.569,0.257l-0.628,0.381l-0.597,-1.117Zm4.013,1.922l-1.075,0.253l-0.13,-0.723l0.341,0.154l0.328,-0.726l0.536,1.042Zm4.563,-4.081l-0.523,0.222l-0.171,1.34l-0.847,-0.079l1.196,2.239l-2.301,-1.041l0.163,0.911l-1.256,0.295l-0.201,0.68l-0.064,-0.081l0.247,-1.806l0.548,0.527l0.762,-0.881l0.583,0.143l-0.187,-0.599l0.785,-0.908l-0.531,-0.51l1.797,-0.452Zm-6.225,1.3l-0.409,0.257l-0.317,-0.616l-0.354,0.025l0.201,-0.323l-0.311,-0.605l0.417,-0.262l-1.198,-0.541l1.297,-0.326l-0.32,-0.309l0.474,-0.548l-0.113,-0.362l0.352,0.086l0.461,-0.532l0.331,0.319l0.194,-1.418l0.617,1.2l0.198,-0.438l0.597,0.27l0.304,-0.256l0.01,0.398l0.596,0.269l-0.199,0.439l1.31,-0.33l-0.936,1.082l0.457,0.038l-0.096,0.697l0.298,0.208l-0.347,0.154l-0.098,0.718l-0.443,-0.037l0.612,1.19l-1.198,-0.542l0.079,0.486l-0.659,0.166l-0.11,0.365l-0.216,-0.283l-0.671,0.169l-0.078,-0.476l-0.922,1.065l0.19,-1.397Zm-3.281,-0.883l0.616,-0.374l-0.076,0.56l0.756,0.064l-0.719,0.83l-0.577,-1.08Zm-1.509,-1.519l2.357,-0.555l-0.069,0.507l-0.575,0.256l0.493,0.344l-0.057,0.419l-2.149,-0.971Zm1.851,-1.165l0.844,-0.958l0.488,0.949l-0.733,-0.062l-0.077,0.563l-0.522,-0.492Zm2.725,-2.026l-0.554,0.14l0.131,0.804l-1.008,-0.456l0.05,0.013l0.867,-0.984l0.514,0.483Zm6.045,3.868l-1.238,-0.559l0.691,-0.433l-0.515,-1.001l0.333,-0.535l-0.587,0.041l-0.524,-1.019l-0.678,0.424l0.237,-1.734l0.024,0.655l1.144,0.518l-0.369,0.816l2.495,-0.587l-1.764,2.002l0.874,0.082l-0.166,1.3l0.043,0.03Zm-5.899,-3.905l0.318,-2.49l1.135,2.125l-0.523,0.131l-0.357,-0.468l-0.182,0.604l-0.391,0.098Zm1.893,-1.047l1.022,0.462l-0.744,0.86l-0.129,-0.788l-0.44,0.11l0.291,-0.644Z" style="fill:#fff;stroke:#bbc7e2;stroke-width:0.5px;"/><path d="M41.5,60.135c0,-0 9.125,13.024 9.125,18.605c-0,5.036 -4.089,9.125 -9.125,9.125c-5.036,0 -9.125,-4.089 -9.125,-9.125c0,-5.581 9.125,-18.605 9.125,-18.605Z" style="fill:#ebeded;"/><path d="M41.5,60.135c0,-0 9.125,13.024 9.125,18.605c0,5.036 -4.089,9.125 -9.125,9.125c-5.036,0 -9.125,-4.089 -9.125,-9.125c0,-5.581 9.125,-18.605 9.125,-18.605Zm-0,3.595c1.509,2.326 3.749,5.966 5.342,9.376c1.003,2.148 1.783,4.173 1.783,5.634c0,3.933 -3.193,7.125 -7.125,7.125c-3.932,0 -7.125,-3.192 -7.125,-7.125c0,-1.461 0.78,-3.486 1.783,-5.634c1.593,-3.41 3.833,-7.05 5.342,-9.376Z" style="fill:#5c70d0;"/><path d="M79.943,65.073c-0,0 6.557,9.359 6.557,13.37c0,3.619 -2.938,6.557 -6.557,6.557c-3.619,-0 -6.557,-2.938 -6.557,-6.557c-0,-4.011 6.557,-13.37 6.557,-13.37Z" style="fill:#ebeded;"/><path d="M79.943,65.073c-0,0 6.557,9.359 6.557,13.37c0,3.619 -2.938,6.557 -6.557,6.557c-3.619,-0 -6.557,-2.938 -6.557,-6.557c-0,-4.011 6.557,-13.37 6.557,-13.37Zm-0,3.626c1.033,1.63 2.352,3.843 3.329,5.934c0.679,1.454 1.228,2.82 1.228,3.81c0,2.515 -2.042,4.557 -4.557,4.557c-2.515,-0 -4.557,-2.042 -4.557,-4.557c-0,-0.99 0.549,-2.356 1.228,-3.81c0.977,-2.091 2.295,-4.303 3.329,-5.934Z" style="fill:#5c70d0;"/></svg>