<?xml version="1.0" encoding="UTF-8" standalone="no"?><!DOCTYPE svg PUBLIC "-//W3C//DTD SVG 1.1//EN" "http://www.w3.org/Graphics/SVG/1.1/DTD/svg11.dtd"><svg width="100%" height="100%" viewBox="0 0 64 64" version="1.1" xmlns="http://www.w3.org/2000/svg" xmlns:xlink="http://www.w3.org/1999/xlink" xml:space="preserve" xmlns:serif="http://www.serif.com/" style="fill-rule:evenodd;clip-rule:evenodd;stroke-linejoin:round;stroke-miterlimit:2;"><circle cx="32" cy="32" r="32" style="fill:#1b3545;"/><path d="M39.568,5.029c0.5,0.04 0.873,0.477 0.834,0.976c-0.039,0.499 -0.476,0.872 -0.976,0.833c-0.499,-0.039 -0.872,-0.476 -0.833,-0.975c0.039,-0.499 0.476,-0.873 0.975,-0.834Z" style="fill:#decc7c;"/><path d="M34.486,10.877c0.297,0.024 0.519,0.283 0.495,0.58c-0.023,0.297 -0.283,0.519 -0.58,0.496c-0.296,-0.023 -0.518,-0.283 -0.495,-0.58c0.023,-0.297 0.283,-0.519 0.58,-0.496Z" style="fill:#deb87c;"/><path d="M31.286,18.742c0.297,0.023 0.519,0.283 0.496,0.58c-0.023,0.297 -0.283,0.519 -0.58,0.496c-0.297,-0.024 -0.519,-0.284 -0.496,-0.58c0.024,-0.297 0.284,-0.519 0.58,-0.496Z" style="fill:#e6dcce;"/><path d="M33.026,24.781c0.297,0.023 0.519,0.283 0.495,0.58c-0.023,0.297 -0.283,0.519 -0.58,0.496c-0.296,-0.024 -0.518,-0.284 -0.495,-0.58c0.023,-0.297 0.283,-0.519 0.58,-0.496Z" style="fill:#dfc8b8;"/><path d="M38.259,33.308c0.405,0.031 0.708,0.386 0.676,0.791c-0.032,0.404 -0.386,0.707 -0.791,0.675c-0.405,-0.031 -0.707,-0.386 -0.676,-0.791c0.032,-0.404 0.386,-0.707 0.791,-0.675Z" style="fill:#deb87c;"/><path d="M26.04,27.365c0.227,0.018 0.396,0.217 0.378,0.444c-0.017,0.226 -0.216,0.396 -0.443,0.378c-0.226,-0.017 -0.396,-0.216 -0.378,-0.443c0.017,-0.227 0.216,-0.396 0.443,-0.379Z" style="fill:#baa583;"/><path d="M17.205,23.604c0.114,0.009 0.199,0.108 0.19,0.222c-0.009,0.113 -0.108,0.198 -0.222,0.189c-0.113,-0.009 -0.198,-0.108 -0.189,-0.222c0.009,-0.113 0.108,-0.198 0.221,-0.189Z" style="fill:#deb87c;"/><path d="M17.205,23.604c0.114,0.009 0.199,0.108 0.19,0.222c-0.009,0.113 -0.108,0.198 -0.222,0.189c-0.113,-0.009 -0.198,-0.108 -0.189,-0.222c0.009,-0.113 0.108,-0.198 0.221,-0.189Z" style="fill:#e4971d;"/><path d="M16.222,18.001c0.114,0.009 0.198,0.108 0.19,0.221c-0.009,0.114 -0.109,0.198 -0.222,0.19c-0.113,-0.009 -0.198,-0.109 -0.189,-0.222c0.009,-0.113 0.108,-0.198 0.221,-0.189Z" style="fill:#7cc3de;"/><path d="M10.722,21.295c0.114,0.008 0.198,0.108 0.19,0.221c-0.009,0.114 -0.109,0.198 -0.222,0.189c-0.113,-0.008 -0.198,-0.108 -0.189,-0.221c0.009,-0.114 0.108,-0.198 0.221,-0.189Z" style="fill:#deb87c;"/><path d="M44.376,27.323c-0.064,0.093 -0.193,0.117 -0.287,0.053c-0.093,-0.064 -0.117,-0.193 -0.053,-0.287c0.065,-0.093 0.193,-0.117 0.287,-0.053c0.093,0.065 0.117,0.193 0.053,0.287Z" style="fill:#7cc0de;"/><path d="M11.17,31.911c-0.064,0.093 -0.193,0.117 -0.287,0.053c-0.093,-0.065 -0.117,-0.193 -0.053,-0.287c0.064,-0.093 0.193,-0.117 0.287,-0.053c0.093,0.064 0.117,0.193 0.053,0.287Z" style="fill:#f3f1ef;"/><path d="M20.464,10.117c-0.065,0.093 -0.193,0.117 -0.287,0.053c-0.093,-0.064 -0.117,-0.193 -0.053,-0.287c0.064,-0.093 0.193,-0.117 0.287,-0.053c0.093,0.064 0.117,0.193 0.053,0.287Z" style="fill:#deb87c;"/><path d="M2.876,28.617c-0.064,0.093 -0.193,0.117 -0.287,0.053c-0.093,-0.064 -0.117,-0.193 -0.053,-0.287c0.065,-0.093 0.193,-0.117 0.287,-0.053c0.093,0.064 0.117,0.193 0.053,0.287Z" style="fill:#deb87c;"/><path d="M58.876,40.411c-0.064,0.093 -0.193,0.117 -0.287,0.053c-0.093,-0.065 -0.117,-0.193 -0.053,-0.287c0.065,-0.093 0.193,-0.117 0.287,-0.053c0.093,0.064 0.117,0.193 0.053,0.287Z" style="fill:#deb87c;"/><path d="M21.67,34.911c-0.064,0.093 -0.193,0.117 -0.287,0.053c-0.093,-0.065 -0.117,-0.193 -0.053,-0.287c0.064,-0.093 0.193,-0.117 0.287,-0.053c0.093,0.064 0.117,0.193 0.053,0.287Z" style="fill:#7ccade;"/><path d="M24.67,15.617c-0.064,0.093 -0.193,0.117 -0.287,0.053c-0.093,-0.064 -0.117,-0.193 -0.053,-0.287c0.064,-0.093 0.193,-0.117 0.287,-0.053c0.093,0.064 0.117,0.193 0.053,0.287Z" style="fill:#c7beb0;"/><path d="M22.705,34.604c0.114,0.009 0.199,0.108 0.19,0.222c-0.009,0.113 -0.108,0.198 -0.222,0.189c-0.113,-0.009 -0.198,-0.108 -0.189,-0.222c0.009,-0.113 0.108,-0.198 0.221,-0.189Z" style="fill:#deb87c;"/><path d="M22.705,34.604c0.114,0.009 0.199,0.108 0.19,0.222c-0.009,0.113 -0.108,0.198 -0.222,0.189c-0.113,-0.009 -0.198,-0.108 -0.189,-0.222c0.009,-0.113 0.108,-0.198 0.221,-0.189Z" style="fill:#deb87c;"/><path d="M21.722,29.001c0.114,0.009 0.198,0.108 0.19,0.221c-0.009,0.114 -0.109,0.198 -0.222,0.19c-0.113,-0.009 -0.198,-0.109 -0.189,-0.222c0.009,-0.113 0.108,-0.198 0.221,-0.189Z" style="fill:#deb87c;"/><path d="M16.222,32.295c0.114,0.008 0.198,0.108 0.19,0.221c-0.009,0.114 -0.109,0.198 -0.222,0.189c-0.113,-0.008 -0.198,-0.108 -0.189,-0.221c0.009,-0.114 0.108,-0.198 0.221,-0.189Z" style="fill:#deb87c;"/><path d="M16.67,42.911c-0.064,0.093 -0.193,0.117 -0.287,0.053c-0.093,-0.065 -0.117,-0.193 -0.053,-0.287c0.064,-0.093 0.193,-0.117 0.287,-0.053c0.093,0.064 0.117,0.193 0.053,0.287Z" style="fill:#a37836;"/><path d="M25.964,21.117c-0.065,0.093 -0.193,0.117 -0.287,0.053c-0.093,-0.064 -0.117,-0.193 -0.053,-0.287c0.064,-0.093 0.193,-0.117 0.287,-0.053c0.093,0.064 0.117,0.193 0.053,0.287Z" style="fill:#deb87c;"/><path d="M8.376,39.617c-0.064,0.093 -0.193,0.117 -0.287,0.053c-0.093,-0.064 -0.117,-0.193 -0.053,-0.287c0.065,-0.093 0.193,-0.117 0.287,-0.053c0.093,0.064 0.117,0.193 0.053,0.287Z" style="fill:#c8c4bd;"/><path d="M54.62,25.365c0.227,0.018 0.397,0.217 0.379,0.444c-0.018,0.226 -0.217,0.396 -0.443,0.378c-0.227,-0.017 -0.397,-0.216 -0.379,-0.443c0.018,-0.227 0.216,-0.396 0.443,-0.379Z" style="fill:#baa583;"/><path d="M45.786,21.604c0.113,0.009 0.198,0.108 0.189,0.222c-0.009,0.113 -0.108,0.198 -0.222,0.189c-0.113,-0.009 -0.198,-0.108 -0.189,-0.222c0.009,-0.113 0.108,-0.198 0.222,-0.189Z" style="fill:#deb87c;"/><path d="M45.786,21.604c0.113,0.009 0.198,0.108 0.189,0.222c-0.009,0.113 -0.108,0.198 -0.222,0.189c-0.113,-0.009 -0.198,-0.108 -0.189,-0.222c0.009,-0.113 0.108,-0.198 0.222,-0.189Z" style="fill:#e4971d;"/><path d="M44.802,16.001c0.114,0.009 0.199,0.108 0.19,0.221c-0.009,0.114 -0.108,0.198 -0.222,0.19c-0.113,-0.009 -0.198,-0.109 -0.189,-0.222c0.009,-0.113 0.108,-0.198 0.221,-0.189Z" style="fill:#7cc3de;"/><path d="M39.302,19.295c0.114,0.008 0.199,0.108 0.19,0.221c-0.009,0.114 -0.108,0.198 -0.222,0.189c-0.113,-0.008 -0.198,-0.108 -0.189,-0.221c0.009,-0.114 0.108,-0.198 0.221,-0.189Z" style="fill:#deb87c;"/><path d="M39.75,29.911c-0.064,0.093 -0.193,0.117 -0.286,0.053c-0.094,-0.065 -0.118,-0.193 -0.054,-0.287c0.065,-0.093 0.193,-0.117 0.287,-0.053c0.094,0.064 0.118,0.193 0.053,0.287Z" style="fill:#f3f1ef;"/><path d="M49.044,8.117c-0.064,0.093 -0.193,0.117 -0.286,0.053c-0.094,-0.064 -0.118,-0.193 -0.054,-0.287c0.065,-0.093 0.193,-0.117 0.287,-0.053c0.094,0.064 0.117,0.193 0.053,0.287Z" style="fill:#deb87c;"/><path d="M31.456,26.617c-0.064,0.093 -0.193,0.117 -0.286,0.053c-0.094,-0.064 -0.118,-0.193 -0.054,-0.287c0.065,-0.093 0.193,-0.117 0.287,-0.053c0.094,0.064 0.118,0.193 0.053,0.287Z" style="fill:#deb87c;"/><path d="M50.25,32.911c-0.064,0.093 -0.193,0.117 -0.286,0.053c-0.094,-0.065 -0.118,-0.193 -0.054,-0.287c0.065,-0.093 0.193,-0.117 0.287,-0.053c0.094,0.064 0.118,0.193 0.053,0.287Z" style="fill:#7ccade;"/><path d="M53.25,13.617c-0.064,0.093 -0.193,0.117 -0.286,0.053c-0.094,-0.064 -0.118,-0.193 -0.054,-0.287c0.065,-0.093 0.193,-0.117 0.287,-0.053c0.094,0.064 0.118,0.193 0.053,0.287Z" style="fill:#c7beb0;"/><path d="M51.286,32.604c0.113,0.009 0.198,0.108 0.189,0.222c-0.009,0.113 -0.108,0.198 -0.222,0.189c-0.113,-0.009 -0.198,-0.108 -0.189,-0.222c0.009,-0.113 0.108,-0.198 0.222,-0.189Z" style="fill:#deb87c;"/><path d="M51.286,32.604c0.113,0.009 0.198,0.108 0.189,0.222c-0.009,0.113 -0.108,0.198 -0.222,0.189c-0.113,-0.009 -0.198,-0.108 -0.189,-0.222c0.009,-0.113 0.108,-0.198 0.222,-0.189Z" style="fill:#deb87c;"/><path d="M50.302,27.001c0.114,0.009 0.199,0.108 0.19,0.221c-0.009,0.114 -0.108,0.198 -0.222,0.19c-0.113,-0.009 -0.198,-0.109 -0.189,-0.222c0.009,-0.113 0.108,-0.198 0.221,-0.189Z" style="fill:#deb87c;"/><path d="M44.802,30.295c0.114,0.008 0.199,0.108 0.19,0.221c-0.009,0.114 -0.108,0.198 -0.222,0.189c-0.113,-0.008 -0.198,-0.108 -0.189,-0.221c0.009,-0.114 0.108,-0.198 0.221,-0.189Z" style="fill:#deb87c;"/><path d="M45.25,40.911c-0.064,0.093 -0.193,0.117 -0.286,0.053c-0.094,-0.065 -0.118,-0.193 -0.054,-0.287c0.065,-0.093 0.193,-0.117 0.287,-0.053c0.094,0.064 0.118,0.193 0.053,0.287Z" style="fill:#a37836;"/><path d="M54.544,19.117c-0.064,0.093 -0.193,0.117 -0.286,0.053c-0.094,-0.064 -0.118,-0.193 -0.054,-0.287c0.065,-0.093 0.193,-0.117 0.287,-0.053c0.094,0.064 0.117,0.193 0.053,0.287Z" style="fill:#deb87c;"/><path d="M36.956,37.617c-0.064,0.093 -0.193,0.117 -0.286,0.053c-0.094,-0.064 -0.118,-0.193 -0.054,-0.287c0.065,-0.093 0.193,-0.117 0.287,-0.053c0.094,0.064 0.118,0.193 0.053,0.287Z" style="fill:#c8c4bd;"/><path d="M27.17,45.911c-0.064,0.093 -0.193,0.117 -0.287,0.053c-0.093,-0.065 -0.117,-0.193 -0.053,-0.287c0.064,-0.093 0.193,-0.117 0.287,-0.053c0.093,0.064 0.117,0.193 0.053,0.287Z" style="fill:#f5efe6;"/><path d="M30.17,26.617c-0.064,0.093 -0.193,0.117 -0.287,0.053c-0.093,-0.064 -0.117,-0.193 -0.053,-0.287c0.064,-0.093 0.193,-0.117 0.287,-0.053c0.093,0.064 0.117,0.193 0.053,0.287Z" style="fill:#deb87c;"/><path d="M41.395,43.799c0.026,0.111 -0.043,0.222 -0.153,0.248c-0.111,0.026 -0.222,-0.043 -0.248,-0.153c-0.026,-0.111 0.043,-0.222 0.153,-0.248c0.111,-0.026 0.222,0.043 0.248,0.153Z" style="fill:#deb87c;"/><path d="M41.395,43.799c0.026,0.111 -0.043,0.222 -0.153,0.248c-0.111,0.026 -0.222,-0.043 -0.248,-0.153c-0.026,-0.111 0.043,-0.222 0.153,-0.248c0.111,-0.026 0.222,0.043 0.248,0.153Z" style="fill:#deb87c;"/><path d="M46.434,41.159c0.026,0.11 -0.043,0.221 -0.154,0.247c-0.11,0.026 -0.221,-0.042 -0.247,-0.153c-0.026,-0.111 0.042,-0.222 0.153,-0.248c0.111,-0.026 0.222,0.043 0.248,0.154Z" style="fill:#deb87c;"/><path d="M41.623,36.921c0.026,0.111 -0.042,0.222 -0.153,0.248c-0.111,0.026 -0.222,-0.043 -0.248,-0.154c-0.026,-0.11 0.043,-0.221 0.154,-0.247c0.11,-0.027 0.221,0.042 0.247,0.153Z" style="fill:#deb87c;"/><path d="M31.646,40.576c-0.109,-0.033 -0.17,-0.148 -0.138,-0.257c0.033,-0.108 0.148,-0.17 0.257,-0.137c0.109,0.032 0.171,0.147 0.138,0.256c-0.033,0.109 -0.148,0.171 -0.257,0.138Z" style="fill:#deb87c;"/><path d="M55.234,42.802c-0.108,-0.033 -0.17,-0.148 -0.137,-0.257c0.032,-0.109 0.147,-0.171 0.256,-0.138c0.109,0.033 0.171,0.148 0.138,0.257c-0.033,0.109 -0.148,0.17 -0.257,0.138Z" style="fill:#deb87c;"/><path d="M32.262,31.673c-0.109,-0.032 -0.171,-0.147 -0.138,-0.256c0.033,-0.109 0.148,-0.171 0.257,-0.138c0.108,0.032 0.17,0.148 0.137,0.256c-0.032,0.109 -0.147,0.171 -0.256,0.138Z" style="fill:#de897c;"/><path d="M31.982,51.491c-0.109,-0.033 -0.171,-0.148 -0.138,-0.257c0.033,-0.108 0.148,-0.17 0.257,-0.137c0.109,0.032 0.17,0.147 0.138,0.256c-0.033,0.109 -0.148,0.171 -0.257,0.138Z" style="fill:#deb87c;"/><path d="M51.274,48.481c-0.109,-0.033 -0.171,-0.148 -0.138,-0.257c0.033,-0.109 0.148,-0.17 0.257,-0.138c0.109,0.033 0.171,0.148 0.138,0.257c-0.033,0.109 -0.148,0.171 -0.257,0.138Z" style="fill:#dfd8cc;"/><path d="M43.17,17.911c-0.064,0.093 -0.193,0.117 -0.287,0.053c-0.093,-0.065 -0.117,-0.193 -0.053,-0.287c0.064,-0.093 0.193,-0.117 0.287,-0.053c0.093,0.064 0.117,0.193 0.053,0.287Z" style="fill:#deb87c;"/><path d="M53.964,29.323c-0.065,0.093 -0.193,0.117 -0.287,0.053c-0.093,-0.064 -0.117,-0.193 -0.053,-0.287c0.064,-0.093 0.193,-0.117 0.287,-0.053c0.093,0.065 0.117,0.193 0.053,0.287Z" style="fill:#d7592a;"/><path d="M50.852,16.638c-0.065,0.094 -0.193,0.118 -0.287,0.053c-0.094,-0.064 -0.118,-0.192 -0.053,-0.286c0.064,-0.094 0.193,-0.118 0.286,-0.054c0.094,0.065 0.118,0.193 0.054,0.287Z" style="fill:#7cc5de;"/><path d="M30.971,5.964c-0.094,-0.065 -0.117,-0.193 -0.053,-0.287c0.064,-0.093 0.193,-0.117 0.286,-0.053c0.094,0.064 0.118,0.193 0.054,0.287c-0.065,0.093 -0.193,0.117 -0.287,0.053Z" style="fill:#7cc0de;"/><path d="M17.883,20.464c-0.093,-0.065 -0.117,-0.193 -0.053,-0.287c0.064,-0.093 0.193,-0.117 0.287,-0.053c0.093,0.064 0.117,0.193 0.053,0.287c-0.064,0.093 -0.193,0.117 -0.287,0.053Z" style="fill:#deb87c;"/><path d="M32.928,16.208c-0.017,0.227 -0.216,0.396 -0.443,0.379c-0.227,-0.018 -0.396,-0.217 -0.378,-0.444c0.017,-0.226 0.216,-0.396 0.443,-0.378c0.227,0.017 0.396,0.216 0.378,0.443Z" style="fill:#baa583;"/><path d="M36.69,7.374c-0.009,0.113 -0.108,0.198 -0.222,0.189c-0.113,-0.009 -0.198,-0.108 -0.189,-0.222c0.009,-0.113 0.108,-0.198 0.222,-0.189c0.113,0.009 0.198,0.108 0.189,0.222Z" style="fill:#deb87c;"/><path d="M36.69,7.374c-0.009,0.113 -0.108,0.198 -0.222,0.189c-0.113,-0.009 -0.198,-0.108 -0.189,-0.222c0.009,-0.113 0.108,-0.198 0.222,-0.189c0.113,0.009 0.198,0.108 0.189,0.222Z" style="fill:#e4971d;"/><path d="M42.293,6.39c-0.009,0.114 -0.108,0.199 -0.221,0.19c-0.114,-0.009 -0.199,-0.109 -0.19,-0.222c0.009,-0.113 0.109,-0.198 0.222,-0.189c0.113,0.009 0.198,0.108 0.189,0.221Z" style="fill:#7cc3de;"/><path d="M50.177,10.632c-0.093,-0.064 -0.117,-0.193 -0.053,-0.287c0.064,-0.093 0.193,-0.117 0.287,-0.053c0.093,0.064 0.117,0.193 0.053,0.287c-0.065,0.093 -0.193,0.117 -0.287,0.053Z" style="fill:#deb87c;"/><path d="M25.383,11.838c-0.093,-0.064 -0.117,-0.193 -0.053,-0.287c0.064,-0.093 0.193,-0.117 0.287,-0.053c0.093,0.065 0.117,0.193 0.053,0.287c-0.064,0.093 -0.193,0.117 -0.287,0.053Z" style="fill:#7ccade;"/><path d="M44.677,14.838c-0.093,-0.064 -0.117,-0.193 -0.053,-0.287c0.064,-0.093 0.193,-0.117 0.287,-0.053c0.093,0.065 0.117,0.193 0.053,0.287c-0.065,0.093 -0.193,0.117 -0.287,0.053Z" style="fill:#c7beb0;"/><path d="M25.69,12.874c-0.009,0.113 -0.108,0.198 -0.222,0.189c-0.113,-0.009 -0.198,-0.108 -0.189,-0.222c0.009,-0.113 0.108,-0.198 0.222,-0.189c0.113,0.009 0.198,0.108 0.189,0.222Z" style="fill:#deb87c;"/><path d="M25.69,12.874c-0.009,0.113 -0.108,0.198 -0.222,0.189c-0.113,-0.009 -0.198,-0.108 -0.189,-0.222c0.009,-0.113 0.108,-0.198 0.222,-0.189c0.113,0.009 0.198,0.108 0.189,0.222Z" style="fill:#deb87c;"/><path d="M31.293,11.89c-0.009,0.114 -0.108,0.199 -0.221,0.19c-0.114,-0.009 -0.199,-0.109 -0.19,-0.222c0.009,-0.113 0.109,-0.198 0.222,-0.189c0.113,0.009 0.198,0.108 0.189,0.221Z" style="fill:#deb87c;"/><path d="M27.999,6.39c-0.009,0.114 -0.108,0.199 -0.221,0.19c-0.114,-0.009 -0.198,-0.109 -0.19,-0.222c0.009,-0.113 0.109,-0.198 0.222,-0.189c0.113,0.009 0.198,0.108 0.189,0.221Z" style="fill:#deb87c;"/><path d="M17.383,6.838c-0.093,-0.064 -0.117,-0.193 -0.053,-0.287c0.064,-0.093 0.193,-0.117 0.287,-0.053c0.093,0.065 0.117,0.193 0.053,0.287c-0.064,0.093 -0.193,0.117 -0.287,0.053Z" style="fill:#a37836;"/><path d="M39.177,16.132c-0.093,-0.064 -0.117,-0.193 -0.053,-0.287c0.064,-0.093 0.193,-0.117 0.287,-0.053c0.093,0.064 0.117,0.193 0.053,0.287c-0.065,0.093 -0.193,0.117 -0.287,0.053Z" style="fill:#deb87c;"/><path d="M17.135,8.022c-0.11,0.026 -0.222,-0.043 -0.248,-0.154c-0.026,-0.111 0.043,-0.222 0.154,-0.248c0.111,-0.026 0.222,0.043 0.248,0.154c0.026,0.111 -0.043,0.222 -0.154,0.248Z" style="fill:#deb87c;"/><path d="M15.492,16.822c0.033,-0.109 0.148,-0.17 0.257,-0.138c0.109,0.033 0.171,0.148 0.138,0.257c-0.033,0.109 -0.148,0.171 -0.257,0.138c-0.109,-0.033 -0.17,-0.148 -0.138,-0.257Z" style="fill:#deb87c;"/><path d="M9.813,12.862c0.033,-0.109 0.148,-0.171 0.257,-0.138c0.108,0.033 0.17,0.148 0.137,0.257c-0.032,0.109 -0.147,0.171 -0.256,0.138c-0.109,-0.033 -0.171,-0.148 -0.138,-0.257Z" style="fill:#dfd8cc;"/><path d="M31.642,46.001c0.009,-0.114 0.108,-0.199 0.222,-0.19c0.113,0.009 0.198,0.108 0.189,0.222c-0.009,0.113 -0.108,0.198 -0.222,0.189c-0.113,-0.009 -0.198,-0.108 -0.189,-0.221Z" style="fill:#deb87c;"/><path d="M31.642,46.001c0.009,-0.114 0.108,-0.199 0.222,-0.19c0.113,0.009 0.198,0.108 0.189,0.222c-0.009,0.113 -0.108,0.198 -0.222,0.189c-0.113,-0.009 -0.198,-0.108 -0.189,-0.221Z" style="fill:#e4971d;"/><path d="M26.039,46.984c0.009,-0.114 0.108,-0.198 0.221,-0.189c0.114,0.008 0.198,0.108 0.19,0.221c-0.009,0.113 -0.109,0.198 -0.222,0.189c-0.113,-0.008 -0.198,-0.108 -0.189,-0.221Z" style="fill:#7cc3de;"/><path d="M29.333,52.484c0.008,-0.114 0.108,-0.198 0.221,-0.189c0.114,0.008 0.198,0.108 0.189,0.221c-0.008,0.113 -0.108,0.198 -0.221,0.189c-0.114,-0.008 -0.198,-0.108 -0.189,-0.221Z" style="fill:#deb87c;"/><path d="M39.949,52.036c0.093,0.065 0.117,0.193 0.053,0.287c-0.065,0.093 -0.193,0.117 -0.287,0.053c-0.093,-0.064 -0.117,-0.193 -0.053,-0.287c0.064,-0.093 0.193,-0.117 0.287,-0.053Z" style="fill:#f3f1ef;"/><path d="M36.655,60.33c0.093,0.064 0.117,0.193 0.053,0.287c-0.064,0.093 -0.193,0.117 -0.287,0.053c-0.093,-0.064 -0.117,-0.193 -0.053,-0.287c0.064,-0.093 0.193,-0.117 0.287,-0.053Z" style="fill:#deb87c;"/><path d="M40.333,46.984c0.008,-0.114 0.108,-0.198 0.221,-0.189c0.114,0.008 0.198,0.108 0.189,0.221c-0.008,0.113 -0.108,0.198 -0.221,0.189c-0.114,-0.008 -0.198,-0.108 -0.189,-0.221Z" style="fill:#deb87c;"/><path d="M50.949,46.536c0.093,0.065 0.117,0.193 0.053,0.287c-0.065,0.093 -0.193,0.117 -0.287,0.053c-0.093,-0.064 -0.117,-0.193 -0.053,-0.287c0.064,-0.093 0.193,-0.117 0.287,-0.053Z" style="fill:#a37836;"/><path d="M47.655,54.83c0.093,0.064 0.117,0.193 0.053,0.287c-0.064,0.093 -0.193,0.117 -0.287,0.053c-0.093,-0.064 -0.117,-0.193 -0.053,-0.287c0.064,-0.093 0.193,-0.117 0.287,-0.053Z" style="fill:#c8c4bd;"/><path d="M28.502,45.323c-0.065,0.093 -0.193,0.117 -0.287,0.053c-0.093,-0.064 -0.117,-0.193 -0.053,-0.287c0.064,-0.093 0.193,-0.117 0.287,-0.053c0.093,0.065 0.117,0.193 0.053,0.287Z" style="fill:#deb87c;"/><path d="M14.876,45.823c-0.064,0.093 -0.193,0.117 -0.287,0.053c-0.093,-0.064 -0.117,-0.193 -0.053,-0.287c0.065,-0.093 0.193,-0.117 0.287,-0.053c0.093,0.065 0.117,0.193 0.053,0.287Z" style="fill:#a37836;"/><path d="M16.06,46.071c0.026,0.111 -0.043,0.222 -0.154,0.248c-0.111,0.026 -0.222,-0.043 -0.248,-0.154c-0.026,-0.111 0.043,-0.222 0.154,-0.248c0.111,-0.026 0.222,0.043 0.248,0.154Z" style="fill:#deb87c;"/><path d="M24.86,47.714c-0.109,-0.033 -0.17,-0.148 -0.138,-0.257c0.033,-0.109 0.148,-0.171 0.257,-0.138c0.109,0.033 0.171,0.148 0.138,0.257c-0.033,0.109 -0.148,0.171 -0.257,0.138Z" style="fill:#deb87c;"/><path d="M20.9,53.393c-0.109,-0.032 -0.171,-0.148 -0.138,-0.256c0.033,-0.109 0.148,-0.171 0.257,-0.138c0.109,0.032 0.171,0.147 0.138,0.256c-0.033,0.109 -0.148,0.171 -0.257,0.138Z" style="fill:#dfd8cc;"/><path d="M39.858,33.705c-0.009,0.114 -0.108,0.199 -0.222,0.19c-0.113,-0.009 -0.198,-0.108 -0.189,-0.222c0.009,-0.113 0.108,-0.198 0.222,-0.189c0.113,0.009 0.198,0.108 0.189,0.221Z" style="fill:#deb87c;"/><path d="M39.858,33.705c-0.009,0.114 -0.108,0.199 -0.222,0.19c-0.113,-0.009 -0.198,-0.108 -0.189,-0.222c0.009,-0.113 0.108,-0.198 0.222,-0.189c0.113,0.009 0.198,0.108 0.189,0.221Z" style="fill:#e4971d;"/><path d="M45.461,32.722c-0.009,0.114 -0.108,0.198 -0.221,0.19c-0.114,-0.009 -0.198,-0.109 -0.19,-0.222c0.009,-0.113 0.109,-0.198 0.222,-0.189c0.113,0.009 0.198,0.108 0.189,0.221Z" style="fill:#7cc3de;"/><path d="M42.167,27.222c-0.008,0.114 -0.108,0.198 -0.221,0.19c-0.114,-0.009 -0.198,-0.109 -0.189,-0.222c0.008,-0.113 0.108,-0.198 0.221,-0.189c0.114,0.009 0.198,0.108 0.189,0.221Z" style="fill:#deb87c;"/><path d="M31.551,27.67c-0.093,-0.064 -0.117,-0.193 -0.053,-0.287c0.065,-0.093 0.193,-0.117 0.287,-0.053c0.093,0.064 0.117,0.193 0.053,0.287c-0.064,0.093 -0.193,0.117 -0.287,0.053Z" style="fill:#f3f1ef;"/><path d="M53.345,36.964c-0.093,-0.065 -0.117,-0.193 -0.053,-0.287c0.064,-0.093 0.193,-0.117 0.287,-0.053c0.093,0.064 0.117,0.193 0.053,0.287c-0.064,0.093 -0.193,0.117 -0.287,0.053Z" style="fill:#deb87c;"/><path d="M34.845,19.376c-0.093,-0.064 -0.117,-0.193 -0.053,-0.287c0.064,-0.093 0.193,-0.117 0.287,-0.053c0.093,0.065 0.117,0.193 0.053,0.287c-0.064,0.093 -0.193,0.117 -0.287,0.053Z" style="fill:#deb87c;"/><path d="M28.551,38.17c-0.093,-0.064 -0.117,-0.193 -0.053,-0.287c0.065,-0.093 0.193,-0.117 0.287,-0.053c0.093,0.064 0.117,0.193 0.053,0.287c-0.064,0.093 -0.193,0.117 -0.287,0.053Z" style="fill:#7ccade;"/><path d="M47.845,41.17c-0.093,-0.064 -0.117,-0.193 -0.053,-0.287c0.064,-0.093 0.193,-0.117 0.287,-0.053c0.093,0.064 0.117,0.193 0.053,0.287c-0.064,0.093 -0.193,0.117 -0.287,0.053Z" style="fill:#c7beb0;"/><path d="M28.858,39.205c-0.009,0.114 -0.108,0.199 -0.222,0.19c-0.113,-0.009 -0.198,-0.108 -0.189,-0.222c0.009,-0.113 0.108,-0.198 0.222,-0.189c0.113,0.009 0.198,0.108 0.189,0.221Z" style="fill:#deb87c;"/><path d="M28.858,39.205c-0.009,0.114 -0.108,0.199 -0.222,0.19c-0.113,-0.009 -0.198,-0.108 -0.189,-0.222c0.009,-0.113 0.108,-0.198 0.222,-0.189c0.113,0.009 0.198,0.108 0.189,0.221Z" style="fill:#deb87c;"/><path d="M34.461,38.222c-0.009,0.114 -0.108,0.198 -0.221,0.19c-0.114,-0.009 -0.198,-0.109 -0.19,-0.222c0.009,-0.113 0.109,-0.198 0.222,-0.189c0.113,0.009 0.198,0.108 0.189,0.221Z" style="fill:#deb87c;"/><path d="M31.167,32.722c-0.008,0.114 -0.108,0.198 -0.221,0.19c-0.114,-0.009 -0.198,-0.109 -0.189,-0.222c0.008,-0.113 0.108,-0.198 0.221,-0.189c0.114,0.009 0.198,0.108 0.189,0.221Z" style="fill:#deb87c;"/><path d="M20.551,33.17c-0.093,-0.064 -0.117,-0.193 -0.053,-0.287c0.065,-0.093 0.193,-0.117 0.287,-0.053c0.093,0.064 0.117,0.193 0.053,0.287c-0.064,0.093 -0.193,0.117 -0.287,0.053Z" style="fill:#a37836;"/><path d="M23.845,24.876c-0.093,-0.064 -0.117,-0.193 -0.053,-0.287c0.064,-0.093 0.193,-0.117 0.287,-0.053c0.093,0.065 0.117,0.193 0.053,0.287c-0.064,0.093 -0.193,0.117 -0.287,0.053Z" style="fill:#c8c4bd;"/><path d="M42.998,34.383c0.065,-0.093 0.193,-0.117 0.287,-0.053c0.093,0.064 0.117,0.193 0.053,0.287c-0.064,0.093 -0.193,0.117 -0.287,0.053c-0.093,-0.064 -0.117,-0.193 -0.053,-0.287Z" style="fill:#deb87c;"/><path d="M56.624,33.883c0.064,-0.093 0.193,-0.117 0.287,-0.053c0.093,0.064 0.117,0.193 0.053,0.287c-0.065,0.093 -0.193,0.117 -0.287,0.053c-0.093,-0.064 -0.117,-0.193 -0.053,-0.287Z" style="fill:#a37836;"/><path d="M55.44,33.635c-0.026,-0.11 0.043,-0.222 0.154,-0.248c0.111,-0.026 0.222,0.043 0.248,0.154c0.026,0.111 -0.043,0.222 -0.154,0.248c-0.111,0.026 -0.222,-0.043 -0.248,-0.154Z" style="fill:#deb87c;"/><path d="M46.64,31.992c0.109,0.033 0.17,0.148 0.138,0.257c-0.033,0.109 -0.148,0.171 -0.257,0.138c-0.109,-0.033 -0.171,-0.148 -0.138,-0.257c0.033,-0.109 0.148,-0.17 0.257,-0.138Z" style="fill:#deb87c;"/><path d="M50.6,26.313c0.109,0.033 0.171,0.148 0.138,0.257c-0.033,0.108 -0.148,0.17 -0.257,0.137c-0.109,-0.032 -0.171,-0.147 -0.138,-0.256c0.033,-0.109 0.148,-0.171 0.257,-0.138Z" style="fill:#dfd8cc;"/><path d="M33.811,23.172c-0.114,-0.009 -0.198,-0.109 -0.19,-0.222c0.009,-0.113 0.109,-0.198 0.222,-0.189c0.113,0.008 0.198,0.108 0.189,0.221c-0.008,0.113 -0.108,0.198 -0.221,0.19Z" style="fill:#7cc0de;"/><path d="M39.468,21.533c0.049,0.103 0.006,0.226 -0.097,0.275c-0.103,0.049 -0.226,0.005 -0.275,-0.098c-0.049,-0.102 -0.005,-0.225 0.098,-0.274c0.102,-0.049 0.225,-0.006 0.274,0.097Z" style="fill:#deb87c;"/><path d="M39.468,21.533c0.049,0.103 0.006,0.226 -0.097,0.275c-0.103,0.049 -0.226,0.005 -0.275,-0.098c-0.049,-0.102 -0.005,-0.225 0.098,-0.274c0.102,-0.049 0.225,-0.006 0.274,0.097Z" style="fill:#e4971d;"/><path d="M43.829,17.88c0.049,0.102 0.006,0.226 -0.097,0.275c-0.103,0.049 -0.226,0.005 -0.275,-0.098c-0.049,-0.102 -0.005,-0.225 0.098,-0.274c0.102,-0.049 0.225,-0.006 0.274,0.097Z" style="fill:#7cc3de;"/><path d="M52.778,17.611c-0.114,-0.009 -0.198,-0.108 -0.19,-0.221c0.009,-0.114 0.109,-0.199 0.222,-0.19c0.113,0.009 0.198,0.108 0.189,0.222c-0.008,0.113 -0.108,0.198 -0.221,0.189Z" style="fill:#deb87c;"/><path d="M31.909,31.053c-0.114,-0.009 -0.199,-0.109 -0.19,-0.222c0.009,-0.113 0.108,-0.198 0.222,-0.189c0.113,0.008 0.198,0.108 0.189,0.221c-0.009,0.114 -0.108,0.198 -0.221,0.19Z" style="fill:#7ccade;"/><path d="M32.692,31.796c0.049,0.103 0.005,0.226 -0.097,0.275c-0.103,0.049 -0.226,0.005 -0.275,-0.097c-0.049,-0.103 -0.005,-0.226 0.097,-0.275c0.103,-0.049 0.226,-0.006 0.275,0.097Z" style="fill:#deb87c;"/><path d="M32.692,31.796c0.049,0.103 0.005,0.226 -0.097,0.275c-0.103,0.049 -0.226,0.005 -0.275,-0.097c-0.049,-0.103 -0.005,-0.226 0.097,-0.275c0.103,-0.049 0.226,-0.006 0.275,0.097Z" style="fill:#deb87c;"/><path d="M37.053,28.143c0.049,0.103 0.005,0.226 -0.097,0.275c-0.103,0.049 -0.226,0.005 -0.275,-0.098c-0.049,-0.102 -0.005,-0.225 0.097,-0.274c0.103,-0.049 0.226,-0.006 0.275,0.097Z" style="fill:#deb87c;"/><path d="M31.45,25.027c0.049,0.102 0.006,0.226 -0.097,0.275c-0.102,0.049 -0.226,0.005 -0.275,-0.098c-0.049,-0.102 -0.005,-0.226 0.098,-0.274c0.102,-0.049 0.225,-0.006 0.274,0.097Z" style="fill:#deb87c;"/><path d="M22.481,30.722c-0.114,-0.008 -0.199,-0.108 -0.19,-0.221c0.009,-0.113 0.108,-0.198 0.222,-0.189c0.113,0.008 0.198,0.108 0.189,0.221c-0.009,0.113 -0.108,0.198 -0.221,0.189Z" style="fill:#a37836;"/><path d="M22.857,31.872c-0.082,0.078 -0.213,0.073 -0.291,-0.009c-0.078,-0.083 -0.074,-0.214 0.009,-0.292c0.083,-0.078 0.214,-0.074 0.292,0.009c0.077,0.083 0.073,0.214 -0.01,0.292Z" style="fill:#deb87c;"/><path d="M18.936,39.725c-0.026,-0.111 0.043,-0.222 0.154,-0.248c0.11,-0.026 0.221,0.043 0.247,0.153c0.027,0.111 -0.042,0.222 -0.153,0.248c-0.111,0.026 -0.222,-0.043 -0.248,-0.153Z" style="fill:#dfd8cc;"/><path d="M41.359,17.421c-0.113,-0.009 -0.198,-0.108 -0.189,-0.222c0.008,-0.113 0.108,-0.198 0.221,-0.189c0.113,0.009 0.198,0.108 0.19,0.221c-0.009,0.114 -0.109,0.199 -0.222,0.19Z" style="fill:#deb87c;"/><path d="M46.302,23.437c-0.113,-0.009 -0.198,-0.108 -0.19,-0.221c0.009,-0.114 0.109,-0.199 0.222,-0.19c0.113,0.009 0.198,0.108 0.189,0.222c-0.008,0.113 -0.108,0.198 -0.221,0.189Z" style="fill:#7cc5de;"/><path d="M51.166,19.85c0.009,-0.113 0.108,-0.198 0.222,-0.189c0.113,0.009 0.198,0.108 0.189,0.221c-0.009,0.114 -0.108,0.199 -0.221,0.19c-0.114,-0.009 -0.199,-0.108 -0.19,-0.222Z" style="fill:#deb87c;"/><path d="M44.774,17.19c0.008,-0.113 0.108,-0.198 0.221,-0.189c0.113,0.008 0.198,0.108 0.19,0.221c-0.009,0.114 -0.109,0.198 -0.222,0.19c-0.113,-0.009 -0.198,-0.109 -0.189,-0.222Z" style="fill:#c7beb0;"/><path d="M20.458,38.47c-0.009,0.114 -0.108,0.199 -0.222,0.19c-0.113,-0.009 -0.198,-0.108 -0.189,-0.222c0.009,-0.113 0.108,-0.198 0.221,-0.189c0.114,0.009 0.199,0.108 0.19,0.221Z" style="fill:#a37836;"/><path d="M11.628,39.765c-0.009,0.113 -0.108,0.198 -0.221,0.189c-0.114,-0.009 -0.199,-0.108 -0.19,-0.222c0.009,-0.113 0.108,-0.198 0.222,-0.189c0.113,0.009 0.198,0.108 0.189,0.222Z" style="fill:#c8c4bd;"/><path d="M29.677,26.811c-0.102,0.049 -0.225,0.006 -0.274,-0.097c-0.049,-0.103 -0.006,-0.226 0.097,-0.275c0.103,-0.049 0.226,-0.005 0.275,0.097c0.049,0.103 0.005,0.226 -0.098,0.275Z" style="fill:#7cc3de;"/><path d="M23.553,33.1c0.009,-0.114 0.109,-0.199 0.222,-0.19c0.113,0.009 0.198,0.108 0.189,0.222c-0.008,0.113 -0.108,0.198 -0.221,0.189c-0.113,-0.009 -0.198,-0.108 -0.19,-0.221Z" style="fill:#c7beb0;"/><path d="M27.007,25.509c0.114,0.008 0.199,0.108 0.19,0.221c-0.009,0.113 -0.108,0.198 -0.222,0.19c-0.113,-0.009 -0.198,-0.109 -0.189,-0.222c0.009,-0.113 0.108,-0.198 0.221,-0.189Z" style="fill:#deb87c;"/><path d="M30.899,27.467c0.026,0.11 -0.043,0.222 -0.154,0.248c-0.11,0.026 -0.221,-0.043 -0.248,-0.154c-0.026,-0.111 0.043,-0.222 0.154,-0.248c0.111,-0.026 0.222,0.043 0.248,0.154Z" style="fill:#deb87c;"/><path d="M37.797,28.057c0.027,0.11 -0.042,0.221 -0.153,0.247c-0.111,0.027 -0.222,-0.042 -0.248,-0.153c-0.026,-0.111 0.043,-0.222 0.154,-0.248c0.11,-0.026 0.221,0.043 0.247,0.154Z" style="fill:#dfd8cc;"/><path d="M17.639,31.376c-0.094,-0.064 -0.117,-0.193 -0.053,-0.287c0.064,-0.093 0.193,-0.117 0.287,-0.053c0.093,0.065 0.117,0.193 0.053,0.287c-0.065,0.093 -0.193,0.117 -0.287,0.053Z" style="fill:#a37836;"/><path d="M17.391,32.56c-0.111,0.026 -0.222,-0.043 -0.248,-0.154c-0.026,-0.111 0.043,-0.222 0.154,-0.248c0.111,-0.026 0.222,0.043 0.248,0.154c0.026,0.111 -0.043,0.222 -0.154,0.248Z" style="fill:#deb87c;"/><path d="M10.069,37.4c0.032,-0.109 0.148,-0.171 0.256,-0.138c0.109,0.033 0.171,0.148 0.138,0.257c-0.032,0.109 -0.147,0.171 -0.256,0.138c-0.109,-0.033 -0.171,-0.148 -0.138,-0.257Z" style="fill:#dfd8cc;"/><path d="M40.383,4.758c-0.093,-0.065 -0.117,-0.193 -0.053,-0.287c0.064,-0.094 0.193,-0.117 0.287,-0.053c0.093,0.064 0.117,0.193 0.053,0.286c-0.064,0.094 -0.193,0.118 -0.287,0.054Z" style="fill:#deb87c;"/><path d="M28.971,15.552c-0.094,-0.065 -0.117,-0.193 -0.053,-0.287c0.064,-0.094 0.193,-0.118 0.286,-0.053c0.094,0.064 0.118,0.193 0.054,0.286c-0.065,0.094 -0.193,0.118 -0.287,0.054Z" style="fill:#d7592a;"/><path d="M41.656,12.439c-0.094,-0.064 -0.118,-0.192 -0.053,-0.286c0.064,-0.094 0.192,-0.118 0.286,-0.053c0.094,0.064 0.118,0.192 0.053,0.286c-0.064,0.094 -0.192,0.118 -0.286,0.053Z" style="fill:#7cc5de;"/><path d="M31.257,37.923c0.296,0.023 0.519,0.283 0.495,0.58c-0.023,0.297 -0.283,0.519 -0.58,0.495c-0.297,-0.023 -0.519,-0.283 -0.495,-0.58c0.023,-0.296 0.283,-0.519 0.58,-0.495Z" style="fill:#deb87c;"/></svg>