<?xml version="1.0" encoding="UTF-8" standalone="no"?><!DOCTYPE svg PUBLIC "-//W3C//DTD SVG 1.1//EN" "http://www.w3.org/Graphics/SVG/1.1/DTD/svg11.dtd"><svg width="100%" height="100%" viewBox="0 0 100 100" version="1.1" xmlns="http://www.w3.org/2000/svg" xmlns:xlink="http://www.w3.org/1999/xlink" xml:space="preserve" xmlns:serif="http://www.serif.com/" style="fill-rule:evenodd;clip-rule:evenodd;stroke-linejoin:round;stroke-miterlimit:2;"><g><g><g><path d="M67.471,91.076c0.088,-0.208 0.209,-0.4 0.365,-0.556c0.487,-0.487 1.268,-0.644 1.895,-0.382c0.208,0.086 0.399,0.209 0.572,0.382c0.157,0.156 0.279,0.347 0.366,0.556c0.087,0.209 0.138,0.435 0.138,0.66c0,0.243 -0.052,0.469 -0.138,0.677c-0.087,0.209 -0.209,0.401 -0.366,0.557c-0.173,0.173 -0.364,0.295 -0.572,0.382c-0.209,0.086 -0.435,0.139 -0.661,0.139c-0.226,-0 -0.452,-0.053 -0.66,-0.139c-0.209,-0.087 -0.4,-0.209 -0.574,-0.382c-0.156,-0.156 -0.277,-0.348 -0.365,-0.557c-0.104,-0.208 -0.139,-0.434 -0.139,-0.677c0,-0.225 0.035,-0.451 0.139,-0.66Z" style="fill:#e8f0e9;fill-rule:nonzero;stroke:#161716;stroke-width:1px;"/></g></g><g><g><path d="M63.597,74.914c0.409,-0.409 1.052,-0.54 1.592,-0.321c0.175,0.073 0.336,0.176 0.481,0.321c0.264,0.262 0.424,0.643 0.424,1.023c0,0.203 -0.029,0.393 -0.116,0.569c-0.074,0.175 -0.176,0.336 -0.307,0.467c-0.278,0.277 -0.643,0.424 -1.037,0.424c-0.395,-0 -0.759,-0.147 -1.037,-0.424c-0.131,-0.131 -0.233,-0.292 -0.306,-0.467c-0.088,-0.176 -0.117,-0.366 -0.117,-0.569c-0.001,-0.38 0.161,-0.761 0.423,-1.023Z" style="fill:#e8f0e9;fill-rule:nonzero;stroke:#161716;stroke-width:1px;"/></g></g><g><g><path d="M89.338,66.98c0.697,-0.696 1.79,-0.92 2.71,-0.546c0.298,0.124 0.572,0.299 0.82,0.546c0.448,0.447 0.721,1.095 0.721,1.741c-0,0.347 -0.05,0.67 -0.198,0.969c-0.125,0.298 -0.299,0.572 -0.523,0.796c-0.472,0.471 -1.094,0.721 -1.765,0.721c-0.672,-0 -1.293,-0.25 -1.765,-0.721c-0.223,-0.224 -0.397,-0.498 -0.522,-0.796c-0.149,-0.299 -0.199,-0.622 -0.199,-0.969c-0,-0.646 0.274,-1.294 0.721,-1.741Z" style="fill:#e8f0e9;fill-rule:nonzero;stroke:#161716;stroke-width:1px;"/></g></g><g><g><path d="M47.957,36.011c0.059,-0.14 0.14,-0.269 0.245,-0.374c0.445,-0.444 1.216,-0.444 1.66,0c0.211,0.211 0.339,0.515 0.339,0.819c0,0.315 -0.128,0.608 -0.339,0.83c-0.222,0.222 -0.526,0.339 -0.83,0.339c-0.304,-0 -0.608,-0.117 -0.83,-0.339c-0.105,-0.106 -0.186,-0.234 -0.245,-0.375c-0.07,-0.152 -0.094,-0.303 -0.094,-0.455c0,-0.153 0.023,-0.304 0.094,-0.445Z" style="fill:#e8f0e9;fill-rule:nonzero;stroke:#161716;stroke-width:1px;"/></g></g><g><g><path d="M81.182,45.915c0.059,-0.14 0.14,-0.269 0.245,-0.374c0.445,-0.444 1.216,-0.444 1.66,0c0.211,0.211 0.339,0.515 0.339,0.819c0,0.316 -0.128,0.608 -0.339,0.83c-0.222,0.222 -0.526,0.339 -0.83,0.339c-0.304,-0 -0.608,-0.117 -0.83,-0.339c-0.105,-0.106 -0.186,-0.234 -0.245,-0.375c-0.07,-0.151 -0.094,-0.303 -0.094,-0.455c0,-0.153 0.024,-0.304 0.094,-0.445Z" style="fill:#e8f0e9;fill-rule:nonzero;stroke:#161716;stroke-width:1px;"/></g></g><g><g><path d="M38.384,21.818c0.031,-0.212 0.091,-0.393 0.18,-0.574c0.061,-0.179 0.152,-0.36 0.272,-0.511c0.119,-0.181 0.24,-0.331 0.36,-0.452c0.152,-0.149 0.302,-0.27 0.452,-0.391c0.181,-0.091 0.361,-0.212 0.542,-0.272c0.181,-0.089 0.362,-0.119 0.543,-0.179c0.993,-0.181 2.017,0.121 2.738,0.842c0.543,0.543 0.874,1.325 0.874,2.108c-0,0.421 -0.09,0.783 -0.24,1.173c-0.151,0.362 -0.362,0.693 -0.633,0.965c-0.3,0.271 -0.632,0.512 -0.993,0.662c-0.361,0.151 -0.753,0.211 -1.145,0.211c-0.181,0 -0.391,0 -0.601,-0.06c-0.181,-0.031 -0.362,-0.091 -0.543,-0.152c-0.181,-0.089 -0.361,-0.181 -0.542,-0.27c-0.15,-0.121 -0.3,-0.241 -0.452,-0.391c-0.541,-0.572 -0.873,-1.325 -0.873,-2.138c0,-0.181 0.031,-0.392 0.061,-0.571Z" style="fill:#e8f0e9;fill-rule:nonzero;stroke:#161716;stroke-width:1px;"/></g></g><g><g><path d="M27.933,15.177c0.012,-0.081 0.035,-0.149 0.069,-0.218c0.023,-0.068 0.057,-0.136 0.103,-0.193c0.034,-0.069 0.09,-0.126 0.136,-0.171c0.114,-0.115 0.24,-0.194 0.377,-0.252c0.274,-0.113 0.593,-0.113 0.867,0c0.148,0.058 0.262,0.137 0.376,0.252c0.046,0.045 0.091,0.102 0.137,0.171c0.046,0.057 0.08,0.126 0.103,0.193c0.034,0.069 0.057,0.137 0.068,0.218c0.012,0.068 0.023,0.148 0.023,0.216c-0,0.08 -0.011,0.149 -0.023,0.228c-0.011,0.069 -0.034,0.148 -0.068,0.217c-0.023,0.068 -0.057,0.126 -0.103,0.194c-0.046,0.057 -0.091,0.114 -0.137,0.171c-0.114,0.103 -0.228,0.194 -0.376,0.251c-0.137,0.057 -0.285,0.08 -0.434,0.08c-0.148,0 -0.296,-0.023 -0.433,-0.08c-0.137,-0.057 -0.263,-0.148 -0.377,-0.251c-0.205,-0.216 -0.331,-0.502 -0.331,-0.81c0,-0.068 0.012,-0.148 0.023,-0.216Z" style="fill:#e8f0e9;fill-rule:nonzero;stroke:#161716;stroke-width:1px;"/></g></g><g><g><path d="M53.11,8.678c0.113,-0.269 0.27,-0.517 0.472,-0.72c0.518,-0.539 1.305,-0.764 2.047,-0.629c0.135,0.045 0.27,0.067 0.406,0.134c0.134,0.045 0.269,0.135 0.404,0.203c0.113,0.09 0.225,0.18 0.337,0.292c0.203,0.203 0.36,0.451 0.473,0.72c0.112,0.27 0.179,0.562 0.179,0.855c0,0.314 -0.067,0.584 -0.179,0.876c-0.113,0.271 -0.27,0.518 -0.473,0.721c-0.112,0.112 -0.224,0.202 -0.337,0.292c-0.135,0.067 -0.27,0.135 -0.404,0.202c-0.135,0.045 -0.27,0.09 -0.406,0.113c-0.157,0.045 -0.315,0.045 -0.45,0.045c-0.584,0 -1.169,-0.225 -1.596,-0.652c-0.202,-0.203 -0.359,-0.45 -0.473,-0.72c-0.111,-0.293 -0.18,-0.563 -0.18,-0.877c0,-0.293 0.068,-0.585 0.18,-0.855Z" style="fill:#e8f0e9;fill-rule:nonzero;stroke:#161716;stroke-width:1px;"/></g></g><g><g><path d="M24.775,30.022c0.018,-0.122 0.053,-0.226 0.104,-0.331c0.035,-0.103 0.088,-0.208 0.157,-0.295c0.069,-0.104 0.138,-0.191 0.208,-0.261c0.174,-0.173 0.365,-0.295 0.574,-0.382c0.313,-0.139 0.66,-0.173 1.008,-0.104c0.104,0.035 0.208,0.052 0.313,0.104c0.103,0.035 0.208,0.104 0.312,0.157c0.087,0.069 0.174,0.139 0.26,0.225c0.314,0.314 0.504,0.765 0.504,1.217c0,0.243 -0.051,0.452 -0.138,0.677c-0.087,0.209 -0.209,0.4 -0.366,0.557c-0.086,0.086 -0.173,0.156 -0.26,0.208c-0.104,0.069 -0.209,0.122 -0.312,0.174c-0.104,0.035 -0.209,0.069 -0.313,0.087c-0.122,0.035 -0.244,0.035 -0.348,0.035c-0.452,0 -0.904,-0.174 -1.234,-0.504c-0.312,-0.33 -0.504,-0.782 -0.504,-1.234c0,-0.104 0.018,-0.226 0.035,-0.33Z" style="fill:#e8f0e9;fill-rule:nonzero;stroke:#161716;stroke-width:1px;"/></g></g><g><g><path d="M9.419,46.116c0.018,-0.122 0.053,-0.226 0.104,-0.331c0.035,-0.103 0.088,-0.208 0.157,-0.295c0.069,-0.104 0.139,-0.191 0.208,-0.26c0.174,-0.174 0.365,-0.296 0.574,-0.383c0.313,-0.138 0.66,-0.173 1.008,-0.103c0.104,0.034 0.208,0.051 0.313,0.103c0.103,0.035 0.208,0.104 0.312,0.157c0.088,0.069 0.174,0.139 0.261,0.226c0.313,0.313 0.504,0.764 0.504,1.216c-0,0.243 -0.052,0.452 -0.139,0.677c-0.087,0.209 -0.208,0.4 -0.365,0.557c-0.087,0.086 -0.174,0.156 -0.261,0.208c-0.104,0.07 -0.209,0.122 -0.312,0.174c-0.104,0.035 -0.209,0.07 -0.313,0.087c-0.121,0.035 -0.244,0.035 -0.348,0.035c-0.452,0 -0.904,-0.174 -1.234,-0.504c-0.312,-0.33 -0.504,-0.782 -0.504,-1.233c0.001,-0.105 0.018,-0.227 0.035,-0.331Z" style="fill:#e8f0e9;fill-rule:nonzero;stroke:#161716;stroke-width:1px;"/></g></g><g><g><path d="M65.316,16.812c1.249,-2.528 3.55,-4.136 6.84,-4.781c10.982,-2.151 14.461,-6.971 14.487,-7.008c0.355,-0.528 1.001,-0.778 1.622,-0.624c0.617,0.154 1.072,0.679 1.137,1.312c0.187,1.816 1.6,17.831 -6.343,21.104l-14.258,5.874c-0.01,0.005 -0.02,0.006 -0.031,0.01c-0.083,0.032 -0.168,0.06 -0.256,0.077c-0.072,0.014 -0.146,0.021 -0.22,0.024c-0.019,0.001 -0.039,0.001 -0.058,0.002c-0.061,0 -0.123,-0.003 -0.185,-0.01c-0.012,-0.002 -0.025,-0.002 -0.037,-0.004c-0.064,-0.009 -0.129,-0.021 -0.193,-0.039c-0.006,-0.001 -0.011,-0.005 -0.016,-0.006c-0.088,-0.026 -0.174,-0.059 -0.256,-0.099c-0.024,-0.013 -0.046,-0.028 -0.07,-0.042c-0.055,-0.032 -0.11,-0.065 -0.161,-0.104c-0.028,-0.021 -0.054,-0.044 -0.081,-0.067c-0.043,-0.037 -0.083,-0.076 -0.122,-0.118c-0.024,-0.026 -0.048,-0.053 -0.07,-0.081c-0.034,-0.043 -0.066,-0.089 -0.096,-0.136c-0.019,-0.032 -0.039,-0.062 -0.057,-0.095c-0.007,-0.013 -0.016,-0.025 -0.023,-0.038c-0.184,-0.374 -4.49,-9.207 -1.553,-15.151Zm2.859,10.11c4.446,-10.062 12.432,-10.425 12.812,-10.436c0.834,-0.023 1.53,0.634 1.554,1.469c0.023,0.834 -0.63,1.527 -1.469,1.554c-0.069,0.001 -6.656,0.301 -10.335,9.112l11.169,-4.602c4.009,-1.652 4.758,-9.504 4.667,-14.756c-2.408,1.881 -6.721,4.342 -13.835,5.736c-2.347,0.46 -3.887,1.49 -4.709,3.148c-1.269,2.564 -0.654,6.116 0.146,8.775Z" style="fill:#e8f0e9;fill-rule:nonzero;stroke:#161716;stroke-width:1px;"/></g></g><g><g><path d="M73.204,84.589c0.932,1.998 2.702,3.296 5.262,3.859c8.546,1.876 11.179,5.706 11.199,5.736c0.269,0.418 0.769,0.625 1.257,0.516c0.485,-0.11 0.85,-0.512 0.912,-1.005c0.179,-1.416 1.568,-13.91 -4.583,-16.61l-11.04,-4.845c-0.008,-0.003 -0.016,-0.004 -0.024,-0.008c-0.064,-0.026 -0.13,-0.05 -0.199,-0.065c-0.056,-0.012 -0.114,-0.019 -0.172,-0.023c-0.015,-0.001 -0.03,-0.001 -0.045,-0.002c-0.048,-0.001 -0.096,0 -0.145,0.005c-0.009,0.001 -0.019,0 -0.029,0.002c-0.05,0.006 -0.101,0.014 -0.151,0.027c-0.005,0.001 -0.009,0.004 -0.013,0.005c-0.07,0.018 -0.137,0.042 -0.201,0.073c-0.02,0.009 -0.037,0.021 -0.056,0.031c-0.044,0.024 -0.087,0.049 -0.128,0.078c-0.023,0.016 -0.043,0.034 -0.065,0.051c-0.033,0.029 -0.066,0.058 -0.097,0.09c-0.019,0.02 -0.038,0.041 -0.056,0.063c-0.028,0.033 -0.053,0.068 -0.077,0.104c-0.016,0.024 -0.032,0.048 -0.047,0.073c-0.005,0.01 -0.013,0.019 -0.018,0.03c-0.151,0.288 -3.673,7.116 -1.484,11.815Zm2.415,-7.852c3.296,7.944 9.532,8.37 9.829,8.385c0.651,0.034 1.207,-0.468 1.24,-1.12c0.033,-0.651 -0.464,-1.205 -1.12,-1.241c-0.054,-0.002 -5.197,-0.353 -7.916,-7.306l8.648,3.795c3.104,1.363 3.55,7.514 3.386,11.618c-1.849,-1.513 -5.176,-3.514 -10.713,-4.73c-1.826,-0.401 -3.011,-1.233 -3.624,-2.545c-0.947,-2.026 -0.403,-4.791 0.27,-6.856Z" style="fill:#e8f0e9;fill-rule:nonzero;stroke:#161716;stroke-width:1px;"/></g></g><g><g><path d="M7.833,34.514c5.812,-3.695 16.002,-1.683 30.285,5.983c13.519,7.256 18.43,5.755 20.153,4.211c2.896,-2.592 1.743,-9.143 1.053,-11.449c-0.285,-0.957 0.226,-1.998 1.144,-2.324c0.917,-0.33 1.896,0.182 2.183,1.139c0.131,0.433 3.134,10.652 -2.152,15.393c-4.319,3.873 -12.177,2.667 -24.029,-3.697c-17.157,-9.209 -24.18,-7.817 -26.836,-6.166c-2.567,1.595 -2.723,4.333 -2.728,4.431c-0.027,1.013 -0.83,1.831 -1.792,1.828c-0.13,-0.001 -0.257,-0.017 -0.379,-0.046c-0.775,-0.185 -1.337,-0.919 -1.314,-1.793c0.006,-0.196 0.178,-4.82 4.412,-7.51Z" style="fill:#e8f0e9;fill-rule:nonzero;stroke:#161716;stroke-width:1px;"/></g></g><g><g><path d="M12.038,73.2c0.744,-0.521 18.426,-12.649 36.527,-3.606c12.263,6.133 12.607,13.309 12.187,16.111c-0.732,4.862 -5.129,8.779 -10.941,9.748c-0.774,0.129 -1.5,0.193 -2.175,0.193c-2.251,-0 -3.95,-0.714 -5.067,-2.138c-2.84,-3.616 -0.168,-10.148 0.147,-10.879c0.377,-0.881 1.395,-1.292 2.278,-0.913c0.882,0.377 1.292,1.397 0.916,2.279c-0.733,1.724 -1.846,5.793 -0.607,7.37c0.758,0.96 2.558,0.889 3.936,0.66c4.324,-0.721 7.569,-3.469 8.075,-6.837c0.652,-4.334 -3.103,-8.885 -10.303,-12.485c-16.217,-8.109 -32.816,3.23 -32.981,3.347c-0.79,0.548 -1.872,0.354 -2.419,-0.431c-0.549,-0.786 -0.358,-1.869 0.427,-2.419Z" style="fill:#e8f0e9;fill-rule:nonzero;stroke:#161716;stroke-width:1px;"/></g></g><g><g><path d="M2.576,56.466c1.234,-0.507 30.593,-12.291 60.482,1.772c9.75,4.592 19.13,4.249 25.731,-0.93c4.528,-3.552 6.96,-8.955 6.053,-13.441c-0.674,-3.337 -3.066,-5.657 -6.916,-6.707c-4.814,-1.314 -8.384,-0.958 -10.615,1.054c-4.24,3.822 -2.866,12.537 -2.852,12.625c0.154,0.947 -0.485,1.84 -1.432,1.998c-0.948,0.157 -1.84,-0.482 -1.997,-1.429c-0.072,-0.433 -1.703,-10.664 3.944,-15.766c3.168,-2.864 7.832,-3.479 13.866,-1.835c5.128,1.399 8.47,4.727 9.409,9.371c1.161,5.744 -1.778,12.521 -7.315,16.864c-4.151,3.256 -9.186,4.894 -14.673,4.894c-4.658,-0 -9.641,-1.18 -14.683,-3.552c-28.468,-13.397 -57.392,-1.821 -57.679,-1.704c-0.891,0.365 -1.903,-0.059 -2.268,-0.947c-0.364,-0.887 0.058,-1.902 0.945,-2.267Z" style="fill:#e8f0e9;fill-rule:nonzero;stroke:#161716;stroke-width:1px;"/></g></g></g></svg>