<?xml version="1.0" encoding="UTF-8" standalone="no"?><!DOCTYPE svg PUBLIC "-//W3C//DTD SVG 1.1//EN" "http://www.w3.org/Graphics/SVG/1.1/DTD/svg11.dtd"><svg width="100%" height="100%" viewBox="0 0 100 100" version="1.1" xmlns="http://www.w3.org/2000/svg" xmlns:xlink="http://www.w3.org/1999/xlink" xml:space="preserve" xmlns:serif="http://www.serif.com/" style="fill-rule:evenodd;clip-rule:evenodd;stroke-linejoin:round;stroke-miterlimit:2;"><path d="M50,5.001l-4.856,13.27c-2.328,0.356 -4.61,0.967 -6.804,1.823l-10.84,-9.064l2.43,13.92c-1.838,1.472 -3.509,3.143 -4.981,4.981l-13.92,-2.43l9.065,10.839c-0.857,2.195 -1.468,4.477 -1.824,6.805l-13.27,4.855l13.27,4.856c0.356,2.328 0.967,4.61 1.824,6.804l-9.065,10.84l13.92,-2.43c1.472,1.838 3.143,3.509 4.981,4.981l-2.43,13.92l10.84,-9.065c2.194,0.857 4.476,1.468 6.804,1.824l4.856,13.27l4.855,-13.27c2.328,-0.356 4.61,-0.967 6.805,-1.824l10.839,9.065l-2.43,-13.92c1.838,-1.472 3.509,-3.143 4.981,-4.981l13.92,2.43l-9.064,-10.84c0.856,-2.194 1.467,-4.476 1.823,-6.804l13.271,-4.856l-13.271,-4.855c-0.356,-2.328 -0.967,-4.61 -1.823,-6.805l9.064,-10.839l-13.92,2.43c-1.472,-1.838 -3.143,-3.509 -4.981,-4.981l2.43,-13.92l-10.839,9.064c-2.195,-0.856 -4.477,-1.467 -6.805,-1.823l-4.855,-13.271l-0,0.001Z" style="fill:#ffd700;"/><path d="M50.662,6.812l0.186,0.508c-0.462,0.385 -0.823,0.662 -0.847,0.68l0.873,-0.61l3.981,10.881c2.328,0.356 4.61,0.967 6.805,1.823l10.839,-9.064l-2.43,13.92c1.838,1.472 3.509,3.143 4.981,4.981l13.92,-2.43l-9.064,10.839c0.856,2.195 1.467,4.477 1.823,6.805l13.271,4.855l-13.271,4.856c-0.356,2.328 -0.967,4.61 -1.823,6.804l9.064,10.84l-13.92,-2.43c-1.472,1.838 -3.143,3.509 -4.981,4.981l2.43,13.92l-10.839,-9.065c-2.195,0.857 -4.477,1.468 -6.805,1.824l-4.855,13.27l-4.856,-13.27c-2.328,-0.356 -4.61,-0.967 -6.804,-1.824l-10.84,9.065l2.43,-13.92c-1.838,-1.472 -3.509,-3.143 -4.981,-4.981l-13.92,2.43l9.065,-10.84c-0.857,-2.194 -1.468,-4.476 -1.824,-6.804l-13.27,-4.856l13.27,-4.855c0.356,-2.328 0.967,-4.61 1.824,-6.805l-9.065,-10.839l13.92,2.43c1.472,-1.838 3.143,-3.509 4.981,-4.981l-2.43,-13.92l10.84,9.064c2.194,-0.856 4.476,-1.467 6.804,-1.823l3.982,-10.882l0.872,0.61c-0.027,-0.033 -0.343,-0.423 -0.761,-0.914l0.042,-0.115l0.719,1.029l0.002,0.001c-0,0 0.277,-0.529 0.662,-1.188Zm-0.662,6.919l2.038,5.571c0.376,1.028 1.282,1.77 2.364,1.935c2.11,0.322 4.178,0.876 6.167,1.652c1.02,0.398 2.175,0.209 3.015,-0.493l4.55,-3.805c-0,0 -1.021,5.843 -1.021,5.843c-0.188,1.078 0.226,2.173 1.08,2.858c1.667,1.334 3.181,2.848 4.515,4.515c0.685,0.854 1.78,1.268 2.858,1.08l5.843,-1.021c-0,0 -3.805,4.55 -3.805,4.55c-0.702,0.84 -0.891,1.995 -0.493,3.015c0.776,1.989 1.33,4.057 1.652,6.167c0.165,1.082 0.907,1.988 1.935,2.364l5.571,2.038c-0,0 -5.571,2.039 -5.571,2.039c-1.028,0.376 -1.77,1.282 -1.935,2.364c-0.322,2.11 -0.876,4.178 -1.652,6.167c-0.398,1.02 -0.209,2.175 0.493,3.015l3.805,4.55c-0,-0 -5.843,-1.021 -5.843,-1.021c-1.078,-0.188 -2.173,0.226 -2.858,1.08c-1.334,1.667 -2.848,3.181 -4.515,4.515c-0.854,0.685 -1.268,1.78 -1.08,2.858l1.021,5.843c-0,-0 -4.55,-3.805 -4.55,-3.805c-0.84,-0.702 -1.995,-0.891 -3.015,-0.493c-1.989,0.776 -4.057,1.33 -6.167,1.652c-1.082,0.165 -1.988,0.907 -2.364,1.935l-2.038,5.57c-0,0 -2.039,-5.57 -2.039,-5.57c-0.376,-1.028 -1.282,-1.77 -2.364,-1.935c-2.11,-0.322 -4.178,-0.876 -6.167,-1.652c-1.02,-0.398 -2.175,-0.209 -3.015,0.493l-4.55,3.805c0,-0 1.021,-5.843 1.021,-5.843c0.188,-1.078 -0.226,-2.173 -1.08,-2.858c-1.667,-1.334 -3.181,-2.848 -4.515,-4.515c-0.685,-0.854 -1.78,-1.268 -2.858,-1.08l-5.843,1.021c0,-0 3.805,-4.55 3.805,-4.55c0.702,-0.84 0.891,-1.995 0.493,-3.015c-0.776,-1.989 -1.33,-4.057 -1.652,-6.167c-0.165,-1.082 -0.907,-1.988 -1.935,-2.364l-5.57,-2.039c-0,0 5.57,-2.038 5.57,-2.038c1.028,-0.376 1.77,-1.282 1.935,-2.364c0.322,-2.11 0.876,-4.178 1.652,-6.167c0.398,-1.02 0.209,-2.175 -0.493,-3.015l-3.805,-4.55c0,0 5.843,1.021 5.843,1.021c1.078,0.188 2.173,-0.226 2.858,-1.08c1.334,-1.667 2.848,-3.181 4.515,-4.515c0.854,-0.685 1.268,-1.78 1.08,-2.858l-1.021,-5.843c0,0 4.55,3.805 4.55,3.805c0.84,0.702 1.995,0.891 3.015,0.493c1.989,-0.776 4.057,-1.33 6.167,-1.652c1.082,-0.165 1.988,-0.907 2.364,-1.935l2.039,-5.571Z" style="fill:#fff;"/></svg>