<?xml version="1.0" encoding="UTF-8" standalone="no"?><!DOCTYPE svg PUBLIC "-//W3C//DTD SVG 1.1//EN" "http://www.w3.org/Graphics/SVG/1.1/DTD/svg11.dtd"><svg width="100%" height="100%" viewBox="0 0 100 100" version="1.1" xmlns="http://www.w3.org/2000/svg" xmlns:xlink="http://www.w3.org/1999/xlink" xml:space="preserve" xmlns:serif="http://www.serif.com/" style="fill-rule:evenodd;clip-rule:evenodd;stroke-linecap:round;stroke-linejoin:round;stroke-miterlimit:1.5;"><path d="M50,5.001l-4.856,13.27c-2.328,0.356 -4.61,0.967 -6.804,1.823l-10.84,-9.064l2.43,13.92c-1.838,1.472 -3.509,3.143 -4.981,4.981l-13.92,-2.43l9.065,10.839c-0.857,2.195 -1.468,4.477 -1.824,6.805l-13.27,4.855l13.27,4.856c0.356,2.328 0.967,4.61 1.824,6.804l-9.065,10.84l13.92,-2.43c1.472,1.838 3.143,3.509 4.981,4.981l-2.43,13.92l10.84,-9.065c2.194,0.857 4.476,1.468 6.804,1.824l4.856,13.27l4.855,-13.27c2.328,-0.356 4.61,-0.967 6.805,-1.824l10.839,9.065l-2.43,-13.92c1.838,-1.472 3.509,-3.143 4.981,-4.981l13.92,2.43l-9.064,-10.84c0.856,-2.194 1.467,-4.476 1.823,-6.804l13.271,-4.856l-13.271,-4.855c-0.356,-2.328 -0.967,-4.61 -1.823,-6.805l9.064,-10.839l-13.92,2.43c-1.472,-1.838 -3.143,-3.509 -4.981,-4.981l2.43,-13.92l-10.839,9.064c-2.195,-0.856 -4.477,-1.467 -6.805,-1.823l-4.855,-13.271l-0,0.001Z" style="fill:#ffd700;"/><path d="M50.441,6.208l0.124,0.339c-0.306,0.254 -0.545,0.438 -0.564,0.453l0.582,-0.407l4.272,11.678c2.328,0.356 4.61,0.967 6.805,1.823l10.839,-9.064l-2.43,13.92c1.838,1.472 3.509,3.143 4.981,4.981l13.92,-2.43l-9.064,10.839c0.856,2.195 1.467,4.477 1.823,6.805l13.271,4.855l-13.271,4.856c-0.356,2.328 -0.967,4.61 -1.823,6.804l9.064,10.84l-13.92,-2.43c-1.472,1.838 -3.143,3.509 -4.981,4.981l2.43,13.92l-10.839,-9.065c-2.195,0.857 -4.477,1.468 -6.805,1.824l-4.855,13.27l-4.856,-13.27c-2.328,-0.356 -4.61,-0.967 -6.804,-1.824l-10.84,9.065l2.43,-13.92c-1.838,-1.472 -3.509,-3.143 -4.981,-4.981l-13.92,2.43l9.065,-10.84c-0.857,-2.194 -1.468,-4.476 -1.824,-6.804l-13.27,-4.856l13.27,-4.855c0.356,-2.328 0.967,-4.61 1.824,-6.805l-9.065,-10.839l13.92,2.43c1.472,-1.838 3.143,-3.509 4.981,-4.981l-2.43,-13.92l10.84,9.064c2.194,-0.856 4.476,-1.467 6.804,-1.823l4.273,-11.678l0.581,0.406c-0.022,-0.027 -0.231,-0.284 -0.507,-0.608l0.028,-0.077l0.479,0.685l0.002,0.001c-0,0 0.184,-0.353 0.441,-0.792Zm-0.441,4.613l2.977,8.137c0.251,0.686 0.855,1.18 1.576,1.29c2.183,0.334 4.322,0.907 6.379,1.71c0.68,0.265 1.451,0.139 2.011,-0.329l6.646,-5.558c-0,-0 -1.49,8.535 -1.49,8.535c-0.126,0.719 0.15,1.449 0.72,1.905c1.723,1.38 3.29,2.947 4.67,4.67c0.456,0.57 1.186,0.846 1.905,0.72l8.535,-1.49c0,0 -5.558,6.646 -5.558,6.646c-0.468,0.56 -0.594,1.331 -0.329,2.011c0.803,2.057 1.376,4.196 1.71,6.379c0.11,0.721 0.604,1.325 1.29,1.576l8.137,2.977c0,0 -8.137,2.978 -8.137,2.978c-0.686,0.25 -1.18,0.855 -1.29,1.576c-0.334,2.183 -0.907,4.322 -1.71,6.379c-0.265,0.68 -0.139,1.451 0.329,2.011l5.558,6.646c0,-0 -8.535,-1.491 -8.535,-1.491c-0.719,-0.125 -1.449,0.151 -1.905,0.72c-1.38,1.724 -2.947,3.291 -4.67,4.671c-0.57,0.456 -0.846,1.186 -0.72,1.905l1.49,8.535c-0,0 -6.646,-5.558 -6.646,-5.558c-0.56,-0.468 -1.331,-0.594 -2.011,-0.329c-2.057,0.803 -4.196,1.376 -6.379,1.71c-0.721,0.11 -1.325,0.604 -1.576,1.289l-2.977,8.138c-0,-0 -2.978,-8.138 -2.978,-8.138c-0.25,-0.685 -0.855,-1.179 -1.576,-1.289c-2.183,-0.334 -4.322,-0.907 -6.379,-1.71c-0.68,-0.265 -1.451,-0.139 -2.011,0.329l-6.646,5.558c0,0 1.491,-8.535 1.491,-8.535c0.125,-0.719 -0.151,-1.449 -0.72,-1.905c-1.724,-1.38 -3.291,-2.947 -4.671,-4.671c-0.456,-0.569 -1.186,-0.845 -1.905,-0.72l-8.535,1.491c-0,-0 5.558,-6.646 5.558,-6.646c0.468,-0.56 0.594,-1.331 0.329,-2.011c-0.803,-2.057 -1.376,-4.196 -1.71,-6.379c-0.11,-0.721 -0.604,-1.326 -1.289,-1.576l-8.138,-2.978c0,0 8.138,-2.977 8.138,-2.977c0.685,-0.251 1.179,-0.855 1.289,-1.576c0.334,-2.183 0.907,-4.322 1.71,-6.379c0.265,-0.68 0.139,-1.451 -0.329,-2.011l-5.558,-6.646c-0,0 8.535,1.49 8.535,1.49c0.719,0.126 1.449,-0.15 1.905,-0.72c1.38,-1.723 2.947,-3.29 4.671,-4.67c0.569,-0.456 0.845,-1.186 0.72,-1.905l-1.491,-8.535c0,-0 6.646,5.558 6.646,5.558c0.56,0.468 1.331,0.594 2.011,0.329c2.057,-0.803 4.196,-1.376 6.379,-1.71c0.721,-0.11 1.326,-0.604 1.576,-1.289l2.978,-8.138Z" style="fill:#fff;"/><g><path d="M42.067,87.373c-7.956,3.958 -16.234,3.818 -20.567,-1.003c-0.815,-0.906 -1.448,-1.932 -1.904,-3.047c-1.003,0.208 -2.044,0.312 -3.111,0.312c-8.548,-0 -15.485,-6.841 -15.485,-15.272c-0,-8.431 6.937,-15.272 15.485,-15.272l0.211,0c1.463,-7.396 10.226,-13.091 20.808,-13.091c9.848,0 18.118,4.932 20.4,11.574c7.096,-7.121 16.344,-3.83 20.685,1.042c0.811,0.907 1.437,1.937 1.881,3.051c1.008,-0.2 2.052,-0.299 3.115,-0.295c8.552,0.044 15.452,6.921 15.415,15.347c-0.041,8.431 -7.015,15.24 -15.563,15.196l-0.211,0c-1.496,7.388 -10.289,13.044 -20.874,12.992c-9.771,-0.048 -17.974,-4.949 -20.285,-11.534Z" style="fill:#fff;"/><path d="M82.126,89.015c-2.991,5.812 -10.728,9.936 -19.774,9.892c-9.771,-0.048 -17.974,-4.949 -20.285,-11.534c-7.956,3.958 -16.234,3.818 -20.567,-1.003c-0.815,-0.906 -1.448,-1.932 -1.904,-3.047c-1.003,0.208 -2.044,0.312 -3.111,0.312c-8.548,-0 -15.485,-6.841 -15.485,-15.272c-0,-8.431 6.937,-15.272 15.485,-15.272l0.211,0c1.463,-7.396 10.226,-13.091 20.808,-13.091c9.848,0 18.118,4.932 20.4,11.574c7.096,-7.121 16.344,-3.83 20.685,1.042c0.811,0.907 1.437,1.937 1.881,3.051c1.008,-0.2 2.052,-0.299 3.115,-0.295c8.552,0.044 15.452,6.921 15.415,15.347c-0.041,8.431 -7.015,15.24 -15.563,15.196l-0.211,0c-0.134,0.66 -0.326,1.306 -0.573,1.935c-0.735,-1.926 -1.651,-5.225 0.678,-5.225l0.123,0.004l-0,-0.004c6.719,0.035 12.224,-5.294 12.256,-11.921c0.029,-6.624 -5.417,-12.007 -12.14,-12.043c-0.839,-0.003 -1.664,0.075 -2.46,0.233c-1.555,0.308 -3.108,-0.536 -3.695,-2.008c-0.303,-0.758 -0.726,-1.46 -1.278,-2.076c-0.002,-0.002 -0.003,-0.004 -0.005,-0.006c-3.337,-3.746 -10.442,-6.383 -15.898,-0.908c-0.802,0.805 -1.962,1.139 -3.069,0.884c-1.107,-0.255 -2.004,-1.063 -2.373,-2.138c-1.912,-5.565 -9.035,-9.352 -17.288,-9.352c-8.801,-0 -16.364,4.288 -17.58,10.44c-0.305,1.541 -1.657,2.651 -3.228,2.651l-0.211,0c-6.719,0 -12.195,5.355 -12.195,11.982c-0,6.627 5.476,11.982 12.195,11.982c0.838,-0 1.656,-0.08 2.445,-0.243c1.552,-0.321 3.112,0.509 3.711,1.976c0.313,0.765 0.746,1.471 1.306,2.093c3.505,3.899 10.219,3.458 16.654,0.256c0.845,-0.42 1.83,-0.457 2.704,-0.102c0.874,0.355 1.553,1.068 1.866,1.959c1.938,5.522 9.004,9.293 17.197,9.333c8.804,0.043 16.389,-4.21 17.633,-10.355c-0.196,0.968 0.053,1.972 0.678,2.736c0.385,0.47 0.887,0.819 1.447,1.017Z" style="fill:#d3d3d3;"/><path d="M54.999,66.41c5.351,-12.493 27.714,-4.924 21.658,10.05" style="fill:#fff;stroke:#d3d3d3;stroke-width:3px;"/><path d="M17.031,66.453c-4.441,-7.137 4.14,-15.335 10.969,-12.24" style="fill:#fff;stroke:#d3d3d3;stroke-width:3px;"/><path d="M43.29,72.453c1.984,-8.168 13.846,-7.784 16.42,-0.743" style="fill:#fff;stroke:#d3d3d3;stroke-width:3px;"/><path d="M25.044,87.083c-7.659,-5.101 -3.483,-16.277 4.488,-15.971" style="fill:#fff;stroke:#d3d3d3;stroke-width:3px;"/></g></svg>