<?xml version="1.0" encoding="UTF-8" standalone="no"?><!DOCTYPE svg PUBLIC "-//W3C//DTD SVG 1.1//EN" "http://www.w3.org/Graphics/SVG/1.1/DTD/svg11.dtd"><svg width="100%" height="100%" viewBox="0 0 100 100" version="1.1" xmlns="http://www.w3.org/2000/svg" xmlns:xlink="http://www.w3.org/1999/xlink" xml:space="preserve" xmlns:serif="http://www.serif.com/" style="fill-rule:evenodd;clip-rule:evenodd;stroke-linecap:round;stroke-linejoin:round;stroke-miterlimit:1.5;"><path d="M49,71c-8.264,5.098 -47,1.628 -47,1.628c6.695,-15.338 40.946,-15.055 47,-1.628Z" style="fill:#d3d3d3;"/><path d="M1.566,90.671c26.575,16.594 86.434,-2.961 86.434,-2.961c-17.254,-36.03 -60.02,-18.429 -86.434,2.961Z" style="fill:#d3d3d3;"/><path d="M44.147,79.745c9.369,27.746 53.853,9.42 53.853,9.42c-0.36,-25.254 -35.032,-31.225 -53.853,-9.42Z" style="fill:#d3d3d3;"/><path d="M35.904,85.492c13.01,3.382 32.422,-1.03 32.422,-1.03c-7.772,-8.517 -18.479,-5.089 -32.422,1.03Z" style="fill:#fff;"/><path d="M54.754,75.868c-19.167,-5.301 -53.754,0.953 -53.754,0.953c11.521,12.667 36.359,6.552 53.754,-0.953Z" style="fill:#fff;"/><path d="M97.858,90.849c-9.795,-7.742 -29.261,-3.735 -29.261,-3.735c4.815,15.425 18.978,10.704 29.261,3.735Z" style="fill:#fff;"/><path d="M34.885,14.457c19.071,-12.359 61.615,-4.82 61.615,-4.82c-12.567,23.718 -42.935,16.076 -61.615,4.82Z" style="fill:#d3d3d3;"/><path d="M1.5,15.884c16.79,9.838 54.5,0.102 54.5,0.102c-10.95,-20.539 -37.885,-11.549 -54.5,-0.102Z" style="fill:#d3d3d3;"/><path d="M41.133,61.652c23.118,20.877 57.734,-2.324 57.734,-2.324c-18.531,-10.775 -42.043,5.807 -57.734,2.324Z" style="fill:#fff;"/><path d="M98.25,19.586c-6.595,-4.505 -21.25,-2.586 -21.25,-2.586c4.371,8.278 14.828,6.138 21.25,2.586Z" style="fill:#fff;"/><path d="M70.545,80.413c8.886,6.199 29.455,3.13 29.455,3.13c-5.522,-11.578 -20.253,-8.3 -29.455,-3.13Z" style="fill:#fff;"/><path d="M2,61.974c16.147,11.045 39.757,5.764 39.757,5.764c-9.98,-21.542 -22.95,-16.343 -39.757,-5.764Z" style="fill:#fff;"/><g><path d="M42.067,56.966c-7.956,3.958 -16.234,3.818 -20.567,-1.002c-0.815,-0.907 -1.448,-1.933 -1.904,-3.048c-1.003,0.208 -2.044,0.312 -3.111,0.312c-8.548,-0 -15.485,-6.841 -15.485,-15.272c0,-8.431 6.937,-15.272 15.485,-15.272l0.211,0c1.463,-7.396 10.226,-13.091 20.808,-13.091c9.848,0 18.118,4.932 20.4,11.574c7.096,-7.12 16.344,-3.83 20.685,1.042c0.811,0.907 1.437,1.937 1.881,3.051c1.008,-0.199 2.052,-0.299 3.115,-0.295c8.552,0.044 15.452,6.921 15.415,15.347c-0.041,8.431 -7.015,15.24 -15.563,15.196l-0.211,0c-1.496,7.389 -10.289,13.044 -20.874,12.992c-9.771,-0.048 -17.974,-4.949 -20.285,-11.534Z" style="fill:#d3d3d3;"/><path d="M82.126,58.608c-2.991,5.812 -10.728,9.936 -19.774,9.892c-9.771,-0.048 -17.974,-4.949 -20.285,-11.534c-7.956,3.958 -16.234,3.818 -20.567,-1.002c-0.815,-0.907 -1.448,-1.933 -1.904,-3.048c-1.003,0.208 -2.044,0.312 -3.111,0.312c-8.548,-0 -15.485,-6.841 -15.485,-15.272c-0,-8.431 6.937,-15.272 15.485,-15.272l0.211,0c1.463,-7.396 10.226,-13.091 20.808,-13.091c9.848,0 18.118,4.932 20.4,11.574c7.096,-7.12 16.344,-3.83 20.685,1.042c0.811,0.907 1.437,1.937 1.881,3.051c1.008,-0.199 2.052,-0.299 3.115,-0.295c8.552,0.044 15.452,6.921 15.415,15.347c-0.041,8.431 -7.015,15.24 -15.563,15.196l-0.211,0c-0.116,0.574 -0.276,1.136 -0.478,1.688c-0.51,-1.948 -1.032,-4.978 0.643,-4.978l0.063,0.002l-0,-0.002c6.719,0.035 12.224,-5.294 12.256,-11.921c0.029,-6.624 -5.417,-12.007 -12.14,-12.043c-0.839,-0.003 -1.664,0.076 -2.46,0.233c-1.555,0.308 -3.108,-0.536 -3.695,-2.008c-0.303,-0.758 -0.726,-1.46 -1.278,-2.076c-0.002,-0.002 -0.003,-0.004 -0.005,-0.006c-3.337,-3.746 -10.442,-6.382 -15.898,-0.908c-0.802,0.805 -1.962,1.139 -3.069,0.884c-1.107,-0.255 -2.004,-1.063 -2.373,-2.137c-1.912,-5.566 -9.035,-9.353 -17.288,-9.353c-8.801,-0 -16.364,4.288 -17.58,10.44c-0.305,1.541 -1.657,2.651 -3.228,2.651l-0.211,0c-6.719,0 -12.195,5.355 -12.195,11.982c-0,6.627 5.476,11.982 12.195,11.982c0.838,0 1.656,-0.08 2.445,-0.243c1.552,-0.321 3.112,0.51 3.711,1.976c0.313,0.765 0.746,1.471 1.306,2.093c3.505,3.899 10.219,3.458 16.654,0.256c0.845,-0.42 1.83,-0.457 2.704,-0.102c0.874,0.355 1.553,1.068 1.866,1.959c1.938,5.522 9.004,9.293 17.197,9.333c8.804,0.043 16.389,-4.21 17.633,-10.355c-0.196,0.968 0.053,1.972 0.678,2.736c0.385,0.47 0.887,0.819 1.447,1.017Z" style="fill:#808080;"/><path d="M54.999,36.003c5.351,-12.493 27.714,-4.924 21.658,10.05" style="fill:#d3d3d3;stroke:#808080;stroke-width:3px;"/><path d="M17.031,36.047c-4.441,-7.138 4.14,-15.335 10.969,-12.241" style="fill:#d3d3d3;stroke:#808080;stroke-width:3px;"/><path d="M43.29,42.047c1.984,-8.169 13.846,-7.785 16.42,-0.744" style="fill:#d3d3d3;stroke:#808080;stroke-width:3px;"/><path d="M25.077,56.63c-7.659,-5.101 -3.507,-16.243 4.455,-15.925" style="fill:#d3d3d3;stroke:#808080;stroke-width:3px;"/></g></svg>