<?xml version="1.0" encoding="UTF-8" standalone="no"?><!DOCTYPE svg PUBLIC "-//W3C//DTD SVG 1.1//EN" "http://www.w3.org/Graphics/SVG/1.1/DTD/svg11.dtd"><svg width="100%" height="100%" viewBox="0 0 100 100" version="1.1" xmlns="http://www.w3.org/2000/svg" xmlns:xlink="http://www.w3.org/1999/xlink" xml:space="preserve" xmlns:serif="http://www.serif.com/" style="fill-rule:evenodd;clip-rule:evenodd;stroke-linejoin:round;stroke-miterlimit:2;"><path d="M8.29,35.536l17.46,-0c-2.179,3.461 -4.098,7.456 -4.85,11.69l-12.61,-11.69Zm83.42,-0l-12.61,11.624c-0.794,-4.232 -1.669,-8.192 -3.88,-11.624l16.49,-0Zm-59.196,-26.446l12.636,12.884c-3.991,0.842 -9.373,2.499 -12.61,4.843l-0.026,-17.727Zm34.714,-0.193l0.232,17.92c-3.264,-2.311 -8.617,-4.046 -12.61,-4.843l12.378,-13.077Zm6.472,41.103c-1.39,-14.464 -11.09,-22.879 -23.7,-22.851c-12.61,0.027 -22.795,8.491 -23.514,22.851l-24.986,-0c0,-26.768 21.732,-48.5 48.5,-48.5c26.768,-0 48.5,21.732 48.5,48.5l-24.8,-0Z" style="fill:#161716;"/><path d="M40,95l10,3.5l10,-3.5l-0,-20l20,0l-30,-30l-30,30l20,0l-0,20Z" style="fill:#161716;"/><path d="M50,0c27.596,0 50,22.404 50,50c0,27.596 -22.404,50 -50,50c-27.596,0 -50,-22.404 -50,-50c-0,-27.596 22.404,-50 50,-50Zm-0,4c25.388,-0 46,20.612 46,46c-0,25.388 -20.612,46 -46,46c-25.388,0 -46,-20.612 -46,-46c-0,-25.388 20.612,-46 46,-46Z" style="fill:#161716;"/></svg>