<?xml version="1.0" encoding="UTF-8" standalone="no"?><!DOCTYPE svg PUBLIC "-//W3C//DTD SVG 1.1//EN" "http://www.w3.org/Graphics/SVG/1.1/DTD/svg11.dtd"><svg width="100%" height="100%" viewBox="0 0 100 100" version="1.1" xmlns="http://www.w3.org/2000/svg" xmlns:xlink="http://www.w3.org/1999/xlink" xml:space="preserve" xmlns:serif="http://www.serif.com/" style="fill-rule:evenodd;clip-rule:evenodd;stroke-linejoin:round;stroke-miterlimit:2;"><path d="M100,50c0,-27.596 -22.404,-50 -50,-50c-27.596,0 -50,22.404 -50,50c0,27.596 22.404,50 50,50c27.596,0 50,-22.404 50,-50Zm-50,-47.43l-5.132,14.007c-2.461,0.376 -4.873,1.021 -7.192,1.925l-11.457,-9.568l2.569,14.693c-1.943,1.554 -3.709,3.317 -5.265,5.258l-14.713,-2.566l9.581,11.442c-0.905,2.315 -1.551,4.724 -1.927,7.182l-14.026,5.125l14.026,5.125c0.376,2.458 1.022,4.866 1.927,7.182l-9.581,11.442l14.713,-2.566c1.556,1.94 3.322,3.704 5.265,5.258l-2.569,14.693l11.457,-9.568c2.319,0.904 4.731,1.549 7.192,1.924l5.132,14.007l5.132,-14.007c2.461,-0.375 4.873,-1.02 7.192,-1.924l11.457,9.568l-2.569,-14.693c1.943,-1.554 3.709,-3.318 5.265,-5.258l14.713,2.566l-9.581,-11.442c0.905,-2.316 1.551,-4.724 1.927,-7.182l14.027,-5.125l-14.027,-5.125c-0.376,-2.458 -1.022,-4.867 -1.927,-7.182l9.581,-11.442l-14.713,2.566c-1.556,-1.941 -3.322,-3.704 -5.265,-5.258l2.569,-14.693l-11.457,9.568c-2.319,-0.904 -4.731,-1.549 -7.192,-1.925l-5.132,-14.008l-0,0.001Z" style="fill:#161716;"/><text x="24.995px" y="62.885px" style="font-family:'Arial-BoldMT', 'Arial', sans-serif;font-weight:700;font-size:36px;fill:#161716;">UV</text></svg>