<?xml version="1.0" encoding="UTF-8" standalone="no"?><!DOCTYPE svg PUBLIC "-//W3C//DTD SVG 1.1//EN" "http://www.w3.org/Graphics/SVG/1.1/DTD/svg11.dtd"><svg width="100%" height="100%" viewBox="0 0 100 100" version="1.1" xmlns="http://www.w3.org/2000/svg" xmlns:xlink="http://www.w3.org/1999/xlink" xml:space="preserve" xmlns:serif="http://www.serif.com/" style="fill-rule:evenodd;clip-rule:evenodd;stroke-linejoin:round;stroke-miterlimit:2;"><path d="M100,50c0,27.596 -22.404,50 -50,50c-27.596,0 -50,-22.404 -50,-50c0,-27.596 22.404,-50 50,-50c27.596,-0 50,22.404 50,50Z" style="fill:#e0e0d5;"/><path d="M100,50c0,27.596 -22.404,50 -50,50c-27.596,0 -50,-22.404 -50,-50c0,-27.596 22.404,-50 50,-50c27.596,-0 50,22.404 50,50Zm-3,-0c0,25.94 -21.06,47 -47,47c-25.94,0 -47,-21.06 -47,-47c0,-25.94 21.06,-47 47,-47c25.94,-0 47,21.06 47,47Z" style="fill:#122f41;"/><g id="SVGRepo_iconCarrier"><g><g><g><path d="M62.856,80.227c0.065,-0.154 0.154,-0.295 0.269,-0.41c0.358,-0.358 0.933,-0.473 1.394,-0.281c0.153,0.064 0.294,0.154 0.422,0.281c0.115,0.115 0.204,0.256 0.269,0.41c0.063,0.153 0.101,0.319 0.101,0.485c0,0.179 -0.038,0.345 -0.101,0.499c-0.065,0.153 -0.154,0.294 -0.269,0.409c-0.128,0.128 -0.269,0.217 -0.422,0.281c-0.153,0.064 -0.32,0.103 -0.486,0.103c-0.166,-0 -0.332,-0.039 -0.486,-0.103c-0.154,-0.063 -0.294,-0.153 -0.422,-0.281c-0.115,-0.115 -0.204,-0.256 -0.269,-0.409c-0.076,-0.154 -0.102,-0.32 -0.102,-0.499c0,-0.166 0.026,-0.332 0.102,-0.485Z" style="fill:#122f41;fill-rule:nonzero;"/></g></g><g><g><path d="M60.006,68.334c0.301,-0.302 0.774,-0.398 1.171,-0.237c0.129,0.054 0.247,0.129 0.354,0.237c0.194,0.193 0.312,0.473 0.312,0.752c0,0.15 -0.021,0.29 -0.085,0.419c-0.054,0.129 -0.129,0.247 -0.226,0.344c-0.205,0.203 -0.473,0.311 -0.763,0.311c-0.291,0 -0.559,-0.108 -0.763,-0.311c-0.097,-0.097 -0.172,-0.215 -0.226,-0.344c-0.064,-0.129 -0.086,-0.269 -0.086,-0.419c-0,-0.279 0.119,-0.559 0.312,-0.752Z" style="fill:#122f41;fill-rule:nonzero;"/></g></g><g><g><path d="M78.947,62.495c0.513,-0.512 1.318,-0.677 1.995,-0.402c0.219,0.092 0.421,0.22 0.603,0.402c0.33,0.329 0.531,0.806 0.531,1.281c-0,0.256 -0.037,0.493 -0.146,0.713c-0.092,0.22 -0.22,0.421 -0.385,0.586c-0.347,0.346 -0.805,0.53 -1.299,0.53c-0.494,0 -0.951,-0.184 -1.298,-0.53c-0.165,-0.165 -0.292,-0.366 -0.384,-0.586c-0.11,-0.22 -0.147,-0.457 -0.147,-0.713c-0,-0.475 0.202,-0.952 0.53,-1.281Z" style="fill:#122f41;fill-rule:nonzero;"/></g></g><g><g><path d="M48.496,39.706c0.044,-0.103 0.104,-0.198 0.181,-0.275c0.327,-0.327 0.895,-0.327 1.222,-0c0.154,0.155 0.249,0.378 0.249,0.602c0,0.233 -0.095,0.448 -0.249,0.611c-0.164,0.163 -0.387,0.249 -0.611,0.249c-0.224,0 -0.448,-0.086 -0.611,-0.249c-0.077,-0.078 -0.137,-0.172 -0.181,-0.276c-0.051,-0.111 -0.068,-0.223 -0.068,-0.335c-0.001,-0.112 0.017,-0.224 0.068,-0.327Z" style="fill:#122f41;fill-rule:nonzero;"/></g></g><g><g><path d="M72.946,46.994c0.043,-0.103 0.103,-0.198 0.18,-0.275c0.328,-0.327 0.895,-0.327 1.222,0c0.155,0.155 0.249,0.378 0.249,0.602c0,0.233 -0.094,0.448 -0.249,0.611c-0.163,0.164 -0.387,0.25 -0.611,0.25c-0.223,-0 -0.447,-0.086 -0.611,-0.25c-0.077,-0.078 -0.137,-0.172 -0.18,-0.276c-0.052,-0.111 -0.069,-0.223 -0.069,-0.335c-0,-0.112 0.017,-0.224 0.069,-0.327Z" style="fill:#122f41;fill-rule:nonzero;"/></g></g><g><g><path d="M41.452,29.262c0.023,-0.156 0.067,-0.289 0.133,-0.422c0.044,-0.132 0.111,-0.266 0.2,-0.377c0.087,-0.133 0.176,-0.243 0.265,-0.332c0.111,-0.11 0.222,-0.199 0.332,-0.288c0.133,-0.067 0.266,-0.156 0.399,-0.2c0.133,-0.066 0.267,-0.087 0.4,-0.132c0.731,-0.133 1.484,0.089 2.015,0.62c0.399,0.399 0.642,0.975 0.642,1.551c0,0.31 -0.065,0.576 -0.176,0.863c-0.111,0.267 -0.266,0.51 -0.466,0.71c-0.221,0.199 -0.465,0.377 -0.73,0.487c-0.266,0.112 -0.554,0.156 -0.843,0.156c-0.133,-0 -0.288,-0 -0.442,-0.045c-0.134,-0.022 -0.267,-0.067 -0.4,-0.111c-0.133,-0.066 -0.266,-0.133 -0.399,-0.199c-0.11,-0.089 -0.221,-0.177 -0.332,-0.288c-0.398,-0.421 -0.643,-0.975 -0.643,-1.573c0.001,-0.133 0.023,-0.289 0.045,-0.42Z" style="fill:#122f41;fill-rule:nonzero;"/></g></g><g><g><path d="M33.762,24.375c0.008,-0.059 0.025,-0.11 0.05,-0.16c0.017,-0.05 0.042,-0.101 0.076,-0.143c0.025,-0.05 0.067,-0.092 0.1,-0.126c0.084,-0.084 0.177,-0.142 0.277,-0.185c0.202,-0.083 0.437,-0.083 0.639,0c0.109,0.043 0.193,0.101 0.276,0.185c0.034,0.034 0.068,0.076 0.101,0.126c0.034,0.042 0.059,0.093 0.076,0.143c0.025,0.05 0.042,0.101 0.05,0.16c0.009,0.05 0.017,0.109 0.017,0.159c-0,0.059 -0.008,0.109 -0.017,0.168c-0.008,0.05 -0.025,0.109 -0.05,0.159c-0.017,0.05 -0.042,0.093 -0.076,0.143c-0.034,0.042 -0.067,0.084 -0.101,0.126c-0.083,0.075 -0.167,0.143 -0.276,0.185c-0.101,0.042 -0.21,0.059 -0.32,0.059c-0.109,-0 -0.218,-0.017 -0.319,-0.059c-0.1,-0.042 -0.193,-0.11 -0.277,-0.185c-0.15,-0.159 -0.243,-0.369 -0.243,-0.596c-0,-0.05 0.009,-0.109 0.017,-0.159Z" style="fill:#122f41;fill-rule:nonzero;"/></g></g><g><g><path d="M52.289,19.592c0.083,-0.198 0.199,-0.38 0.347,-0.529c0.381,-0.397 0.96,-0.563 1.506,-0.463c0.1,0.033 0.199,0.049 0.299,0.099c0.098,0.033 0.198,0.099 0.297,0.149c0.083,0.066 0.166,0.132 0.248,0.215c0.15,0.149 0.265,0.331 0.348,0.529c0.083,0.199 0.132,0.414 0.132,0.63c0,0.231 -0.049,0.43 -0.132,0.644c-0.083,0.199 -0.198,0.381 -0.348,0.531c-0.082,0.082 -0.165,0.148 -0.248,0.215c-0.099,0.049 -0.199,0.099 -0.297,0.148c-0.1,0.033 -0.199,0.066 -0.299,0.083c-0.115,0.034 -0.231,0.034 -0.331,0.034c-0.43,-0 -0.86,-0.166 -1.175,-0.48c-0.148,-0.15 -0.264,-0.332 -0.347,-0.53c-0.082,-0.215 -0.133,-0.414 -0.133,-0.645c0,-0.216 0.05,-0.431 0.133,-0.63Z" style="fill:#122f41;fill-rule:nonzero;"/></g></g><g><g><path d="M31.438,35.299c0.013,-0.09 0.038,-0.167 0.076,-0.244c0.026,-0.076 0.065,-0.153 0.116,-0.217c0.05,-0.077 0.102,-0.14 0.153,-0.192c0.128,-0.128 0.268,-0.217 0.422,-0.281c0.23,-0.102 0.486,-0.128 0.742,-0.076c0.076,0.025 0.153,0.038 0.23,0.076c0.076,0.025 0.153,0.077 0.23,0.115c0.064,0.052 0.128,0.103 0.191,0.166c0.231,0.231 0.371,0.563 0.371,0.896c0,0.178 -0.038,0.332 -0.101,0.498c-0.065,0.154 -0.154,0.294 -0.27,0.41c-0.063,0.063 -0.127,0.115 -0.191,0.153c-0.077,0.051 -0.154,0.09 -0.23,0.128c-0.077,0.025 -0.153,0.051 -0.23,0.064c-0.09,0.026 -0.18,0.026 -0.256,0.026c-0.333,-0 -0.665,-0.128 -0.908,-0.371c-0.23,-0.243 -0.371,-0.576 -0.371,-0.908c0,-0.077 0.013,-0.167 0.026,-0.243Z" style="fill:#122f41;fill-rule:nonzero;"/></g></g><g><g><path d="M20.138,47.142c0.013,-0.09 0.038,-0.167 0.077,-0.243c0.025,-0.077 0.064,-0.153 0.115,-0.218c0.05,-0.076 0.102,-0.14 0.153,-0.191c0.128,-0.128 0.268,-0.218 0.422,-0.282c0.231,-0.102 0.486,-0.127 0.742,-0.076c0.077,0.026 0.153,0.038 0.23,0.076c0.076,0.026 0.153,0.077 0.23,0.115c0.064,0.052 0.128,0.103 0.192,0.167c0.23,0.23 0.371,0.562 0.371,0.895c-0,0.179 -0.038,0.332 -0.102,0.498c-0.065,0.154 -0.154,0.294 -0.269,0.41c-0.064,0.063 -0.128,0.115 -0.192,0.153c-0.077,0.051 -0.154,0.09 -0.23,0.128c-0.076,0.025 -0.153,0.051 -0.23,0.064c-0.089,0.026 -0.179,0.026 -0.256,0.026c-0.332,-0 -0.665,-0.128 -0.908,-0.371c-0.23,-0.243 -0.371,-0.576 -0.371,-0.908c0,-0.077 0.013,-0.167 0.026,-0.243Z" style="fill:#122f41;fill-rule:nonzero;"/></g></g><g><g><path d="M61.27,25.578c0.92,-1.86 2.613,-3.044 5.034,-3.518c8.081,-1.583 10.641,-5.13 10.661,-5.157c0.261,-0.389 0.736,-0.573 1.193,-0.459c0.454,0.113 0.789,0.499 0.837,0.965c0.138,1.336 1.177,13.122 -4.668,15.53l-10.492,4.323c-0.008,0.003 -0.015,0.004 -0.022,0.006c-0.062,0.024 -0.124,0.045 -0.189,0.057c-0.053,0.011 -0.107,0.016 -0.162,0.018c-0.014,0.001 -0.028,0.001 -0.043,0.001c-0.045,0.001 -0.09,-0.002 -0.136,-0.007c-0.009,-0.001 -0.018,-0.001 -0.027,-0.003c-0.047,-0.006 -0.095,-0.015 -0.142,-0.029c-0.004,-0.001 -0.008,-0.003 -0.012,-0.004c-0.065,-0.019 -0.128,-0.043 -0.188,-0.073c-0.018,-0.009 -0.034,-0.021 -0.051,-0.031c-0.041,-0.023 -0.082,-0.048 -0.119,-0.076c-0.021,-0.016 -0.04,-0.033 -0.06,-0.049c-0.031,-0.028 -0.061,-0.056 -0.09,-0.087c-0.017,-0.02 -0.035,-0.039 -0.051,-0.06c-0.025,-0.032 -0.048,-0.065 -0.07,-0.1c-0.015,-0.023 -0.03,-0.046 -0.042,-0.07c-0.006,-0.01 -0.013,-0.018 -0.017,-0.028c-0.136,-0.275 -3.304,-6.775 -1.144,-11.149Zm2.105,7.439c3.271,-7.404 9.148,-7.671 9.427,-7.679c0.614,-0.017 1.126,0.467 1.144,1.081c0.017,0.613 -0.463,1.124 -1.081,1.144c-0.051,0.001 -4.898,0.221 -7.605,6.705l8.219,-3.386c2.95,-1.216 3.501,-6.995 3.434,-10.859c-1.772,1.384 -4.946,3.195 -10.181,4.221c-1.727,0.338 -2.86,1.096 -3.465,2.317c-0.934,1.886 -0.481,4.5 0.108,6.456Z" style="fill:#122f41;fill-rule:nonzero;"/></g></g><g><g><path d="M67.075,75.453c0.686,1.47 1.988,2.426 3.872,2.839c6.289,1.381 8.227,4.199 8.242,4.221c0.197,0.308 0.565,0.461 0.924,0.38c0.357,-0.08 0.626,-0.376 0.672,-0.739c0.131,-1.042 1.153,-10.236 -3.373,-12.223l-8.124,-3.565c-0.006,-0.003 -0.012,-0.004 -0.018,-0.006c-0.047,-0.02 -0.096,-0.037 -0.146,-0.048c-0.042,-0.009 -0.084,-0.014 -0.127,-0.017c-0.011,-0 -0.022,-0.001 -0.033,-0.001c-0.035,-0.001 -0.071,-0 -0.107,0.003c-0.007,0.001 -0.014,0.001 -0.021,0.002c-0.037,0.004 -0.074,0.01 -0.111,0.02c-0.004,0.001 -0.006,0.002 -0.01,0.003c-0.051,0.014 -0.1,0.031 -0.148,0.054c-0.014,0.007 -0.027,0.015 -0.041,0.023c-0.032,0.017 -0.064,0.036 -0.094,0.057c-0.017,0.012 -0.032,0.025 -0.047,0.038c-0.025,0.021 -0.049,0.042 -0.072,0.066c-0.014,0.015 -0.028,0.03 -0.041,0.046c-0.021,0.024 -0.039,0.05 -0.057,0.077c-0.012,0.018 -0.024,0.035 -0.034,0.054c-0.004,0.007 -0.01,0.014 -0.014,0.022c-0.111,0.212 -2.703,5.236 -1.092,8.694Zm1.777,-5.778c2.426,5.846 7.015,6.159 7.233,6.17c0.479,0.025 0.888,-0.344 0.913,-0.824c0.024,-0.479 -0.342,-0.887 -0.825,-0.913c-0.039,-0.002 -3.824,-0.26 -5.825,-5.376l6.364,2.792c2.284,1.003 2.613,5.53 2.492,8.549c-1.361,-1.113 -3.809,-2.585 -7.883,-3.48c-1.344,-0.295 -2.217,-0.908 -2.668,-1.873c-0.696,-1.491 -0.296,-3.526 0.199,-5.045Z" style="fill:#122f41;fill-rule:nonzero;"/></g></g><g><g><path d="M18.971,38.604c4.277,-2.719 11.775,-1.238 22.285,4.403c9.949,5.339 13.562,4.235 14.83,3.099c2.132,-1.908 1.283,-6.728 0.776,-8.425c-0.21,-0.705 0.165,-1.471 0.841,-1.711c0.675,-0.242 1.395,0.135 1.607,0.839c0.096,0.318 2.306,7.838 -1.584,11.327c-3.178,2.85 -8.961,1.963 -17.682,-2.72c-12.626,-6.777 -17.794,-5.753 -19.748,-4.538c-1.889,1.174 -2.004,3.189 -2.008,3.261c-0.019,0.745 -0.61,1.347 -1.319,1.345c-0.095,-0.001 -0.188,-0.013 -0.278,-0.034c-0.57,-0.136 -0.984,-0.676 -0.967,-1.319c0.004,-0.145 0.131,-3.547 3.247,-5.527Z" style="fill:#122f41;fill-rule:nonzero;"/></g></g><g><g><path d="M22.065,67.072c0.547,-0.383 13.559,-9.308 26.879,-2.653c9.024,4.513 9.277,9.794 8.968,11.855c-0.539,3.578 -3.774,6.46 -8.051,7.173c-0.57,0.095 -1.104,0.142 -1.601,0.142c-1.656,0 -2.907,-0.525 -3.728,-1.573c-2.09,-2.661 -0.124,-7.467 0.108,-8.005c0.277,-0.649 1.027,-0.951 1.677,-0.672c0.648,0.277 0.95,1.028 0.673,1.677c-0.539,1.269 -1.358,4.263 -0.446,5.423c0.558,0.707 1.882,0.654 2.896,0.486c3.182,-0.531 5.57,-2.553 5.942,-5.031c0.48,-3.19 -2.283,-6.539 -7.582,-9.187c-11.933,-5.968 -24.147,2.376 -24.269,2.462c-0.581,0.403 -1.378,0.261 -1.78,-0.317c-0.404,-0.578 -0.264,-1.375 0.314,-1.78Z" style="fill:#122f41;fill-rule:nonzero;"/></g></g><g><g><path d="M15.102,54.758c0.908,-0.373 22.513,-9.044 44.507,1.304c7.174,3.379 14.077,3.127 18.934,-0.684c3.332,-2.614 5.123,-6.59 4.455,-9.891c-0.496,-2.456 -2.256,-4.163 -5.09,-4.935c-3.542,-0.967 -6.169,-0.705 -7.811,0.775c-3.12,2.812 -2.109,9.226 -2.098,9.291c0.113,0.696 -0.357,1.353 -1.054,1.469c-0.698,0.116 -1.354,-0.354 -1.469,-1.051c-0.054,-0.318 -1.254,-7.847 2.902,-11.602c2.331,-2.107 5.763,-2.56 10.204,-1.35c3.773,1.03 6.232,3.478 6.923,6.896c0.854,4.227 -1.309,9.214 -5.383,12.409c-3.055,2.397 -6.76,3.602 -10.797,3.602c-3.428,-0 -7.095,-0.868 -10.805,-2.614c-20.949,-9.859 -42.233,-1.34 -42.445,-1.254c-0.655,0.269 -1.399,-0.043 -1.669,-0.696c-0.267,-0.653 0.043,-1.4 0.696,-1.669Z" style="fill:#122f41;fill-rule:nonzero;"/></g></g></g></g></svg>