<?xml version="1.0" encoding="UTF-8" standalone="no"?><!DOCTYPE svg PUBLIC "-//W3C//DTD SVG 1.1//EN" "http://www.w3.org/Graphics/SVG/1.1/DTD/svg11.dtd"><svg width="100%" height="100%" viewBox="0 0 64 64" version="1.1" xmlns="http://www.w3.org/2000/svg" xmlns:xlink="http://www.w3.org/1999/xlink" xml:space="preserve" xmlns:serif="http://www.serif.com/" style="fill-rule:evenodd;clip-rule:evenodd;stroke-linejoin:round;stroke-miterlimit:2;"><circle cx="32" cy="32" r="32" style="fill:#97c3e4;"/><path d="M28.504,9.873c2.243,-0.836 4.576,-0.806 5.799,0.212c0.229,0.191 0.408,0.408 0.536,0.643c0.283,-0.043 0.576,-0.065 0.877,-0.065c2.411,0 4.367,1.445 4.367,3.225c0,1.781 -1.956,3.226 -4.367,3.226l-0.059,0c-0.412,1.562 -2.883,2.764 -5.867,2.764c-2.776,0 -5.109,-1.041 -5.751,-2.444c-2.26,0.842 -4.611,0.809 -5.834,-0.22c-0.228,-0.192 -0.405,-0.409 -0.531,-0.645c-0.285,0.042 -0.578,0.063 -0.879,0.062c-2.41,-0.008 -4.357,-1.461 -4.345,-3.241c0.011,-1.78 1.977,-3.218 4.388,-3.209l0.059,0c0.423,-1.56 2.902,-2.754 5.886,-2.743c2.756,0.01 5.068,1.045 5.721,2.435Z" style="fill:#cacacf;stroke:#6a737d;stroke-width:0.9px;"/><path d="M36.36,31.207c-0.003,0.027 -0.008,0.055 -0.013,0.083c-0.294,1.562 -2.285,2.657 -4.445,2.444c-0.017,-0.002 -0.035,-0.004 -0.054,-0.005c-0.626,1.333 -3.039,2.171 -5.712,1.907c-2.468,-0.244 -4.376,-1.348 -4.739,-2.625c-2.144,0.543 -4.23,0.318 -5.164,-0.68c-0.176,-0.187 -0.301,-0.392 -0.379,-0.61c-0.26,0.014 -0.527,0.009 -0.797,-0.017c-2.16,-0.205 -3.683,-1.64 -3.399,-3.203c0.007,-0.041 0.015,-0.083 0.026,-0.124c-0.091,-0.029 -0.178,-0.061 -0.261,-0.094c-0.148,0.066 -0.316,0.115 -0.502,0.137c-0.811,0.098 -1.653,-0.31 -1.881,-0.912c-0.105,-0.281 -0.059,-0.555 0.103,-0.777c-2.101,-0.66 -3.328,-2.487 -2.757,-4.192c0.595,-1.782 2.927,-2.76 5.205,-2.183c0.525,0.133 1.001,0.336 1.416,0.593c2.016,-0.658 4.772,-0.707 7.599,0.009c0.914,0.231 1.772,0.527 2.559,0.871c0.329,-0.1 0.682,-0.185 1.054,-0.251c1.552,-0.273 3.111,-0.162 4.291,0.235c0.219,-0.117 0.475,-0.205 0.763,-0.256c1.249,-0.221 2.629,0.349 3.078,1.27c0.361,0.739 0.015,1.481 -0.78,1.86c0.696,0.195 1.34,0.435 1.914,0.714c0.422,-0.159 0.897,-0.261 1.414,-0.292c2.243,-0.134 4.412,1.121 4.841,2.802c0.43,1.682 -1.044,3.157 -3.286,3.291c-0.032,0.002 -0.062,0.004 -0.094,0.005Z" style="fill:#a5abaf;stroke:#6a737d;stroke-width:0.9px;"/><path d="M58.821,23.227c0.02,0.03 0.038,0.06 0.057,0.091c1.029,1.728 0.079,3.787 -2.124,4.595c-0.019,0.007 -0.037,0.013 -0.054,0.02c0.526,1.654 -1.036,3.651 -3.761,4.65c-2.519,0.925 -5.23,0.704 -6.637,-0.421c-1.555,1.57 -3.698,2.332 -5.409,1.758c-0.32,-0.107 -0.61,-0.256 -0.863,-0.441c-0.233,0.139 -0.488,0.259 -0.762,0.361c-2.197,0.816 -4.824,0.08 -5.864,-1.644c-0.027,-0.047 -0.053,-0.093 -0.078,-0.14c-0.11,0.013 -0.218,0.022 -0.325,0.028c-0.081,0.138 -0.199,0.267 -0.356,0.378c-0.676,0.485 -1.808,0.468 -2.524,-0.036c-0.333,-0.237 -0.519,-0.537 -0.554,-0.839c-2.52,0.325 -5.196,-0.952 -6.087,-2.957c-0.93,-2.096 0.439,-4.197 3.056,-4.692c0.602,-0.113 1.219,-0.131 1.823,-0.067c1.34,-1.626 3.88,-2.984 7.129,-3.598c1.051,-0.197 2.103,-0.304 3.128,-0.326c0.225,-0.26 0.485,-0.512 0.778,-0.756c1.226,-1.014 2.78,-1.641 4.219,-1.798c0.106,-0.221 0.273,-0.433 0.5,-0.621c0.987,-0.818 2.757,-0.893 3.948,-0.169c0.956,0.58 1.251,1.501 0.822,2.263c0.816,-0.132 1.621,-0.193 2.391,-0.182c0.263,-0.361 0.624,-0.691 1.081,-0.968c1.99,-1.2 5.073,-0.952 6.881,0.554c1.808,1.508 1.659,3.707 -0.331,4.908c-0.028,0.016 -0.056,0.033 -0.084,0.049Z" style="fill:#a5abaf;stroke:#6a737d;stroke-width:0.9px;"/><path d="M31.342,10.331c0.645,-1.556 2.049,-2.967 4.072,-3.876c4.14,-1.859 9.316,-0.922 11.553,2.092c0.316,0.425 0.556,0.869 0.724,1.323c3.919,1.212 6.691,3.344 7.242,5.83c0.373,0.161 0.727,0.368 1.055,0.62c1.821,1.398 2.419,3.862 1.791,6.357c0.437,0.141 0.819,0.391 1.105,0.748c0.952,1.192 0.478,3.138 -1.058,4.343c-1.305,1.024 -2.962,1.185 -4.014,0.477c-0.64,0.432 -1.314,0.77 -1.998,1.009c-0.092,0.092 -0.186,0.182 -0.284,0.27c-2.629,2.383 -6.508,2.76 -8.789,0.898c-0.027,0.008 -0.056,0.014 -0.083,0.022c-1.489,0.361 -2.969,0.098 -3.962,-0.594c-1.912,1.55 -5.174,2.571 -8.875,2.571c-3.337,0 -6.319,-0.831 -8.273,-2.131c-0.545,0.168 -1.137,0.261 -1.757,0.261c-1.84,0 -3.445,-0.817 -4.273,-2.023c-2.465,0.31 -5.058,0.21 -7.288,-0.378c-4.876,-1.284 -6.198,-4.41 -2.95,-6.975c0.155,-0.124 0.318,-0.242 0.487,-0.358c-0.426,-0.076 -0.817,-0.25 -1.137,-0.524c-1.083,-0.934 -0.921,-2.683 0.361,-3.906c1.089,-1.04 2.642,-1.366 3.749,-0.866c2.159,-1.775 5.029,-2.329 7.234,-1.175c0.387,0.203 0.736,0.449 1.042,0.73c0.437,-0.073 0.884,-0.138 1.341,-0.194c0.258,-1.569 1.969,-3.08 4.345,-3.657c0.755,-0.183 1.503,-0.254 2.208,-0.227c0.321,-0.342 0.744,-0.598 1.244,-0.72c1.123,-0.272 2.292,0.219 2.93,1.139c0.68,-0.401 1.437,-0.765 2.258,-1.086Z" style="fill:#dfe2e4;stroke:#6a737d;stroke-width:0.9px;"/><path d="M19.687,20.521c0.586,-1.804 4.111,-3.192 8.366,-3.192c4.665,0 8.45,1.668 8.45,3.724c0,0.269 -0.065,0.532 -0.189,0.786c1.238,1.615 -0.17,4.075 -3.559,5.871c-3.866,2.049 -8.858,2.465 -11.138,0.927c-0.328,-0.221 -0.581,-0.472 -0.765,-0.743c-0.404,0.05 -0.822,0.075 -1.251,0.075c-3.438,0 -6.227,-1.668 -6.227,-3.724c0,-2.056 2.789,-3.724 6.227,-3.724l0.086,0Z" style="fill:#efeff0;stroke:#6a737d;stroke-width:0.9px;"/><path d="M29.25,26.283c-2.38,0.986 -4.857,0.952 -6.154,-0.25c-0.244,-0.226 -0.433,-0.482 -0.57,-0.759c-0.3,0.051 -0.612,0.077 -0.93,0.077c-2.559,0 -4.635,-1.705 -4.635,-3.807c0,-2.101 2.076,-3.807 4.635,-3.807l0.063,0c0.437,-1.844 3.06,-3.263 6.226,-3.263c2.946,0 5.422,1.229 6.104,2.884c2.398,-0.992 4.893,-0.953 6.19,0.261c0.243,0.226 0.43,0.483 0.564,0.761c0.302,-0.05 0.613,-0.075 0.932,-0.075c2.558,0.012 4.624,1.726 4.612,3.827c-0.012,2.101 -2.098,3.799 -4.657,3.788l-0.063,0c-0.447,1.841 -3.078,3.251 -6.246,3.238c-2.925,-0.012 -5.378,-1.234 -6.071,-2.875Z" style="fill:#fafafa;stroke:#6a737d;stroke-width:0.9px;"/><path d="M41.366,26.802c-2.106,0.808 -4.297,0.78 -5.444,-0.205c-0.215,-0.185 -0.383,-0.395 -0.504,-0.622c-0.265,0.042 -0.541,0.063 -0.823,0.063c-2.262,0 -4.098,-1.397 -4.098,-3.119c0,-1.722 1.836,-3.12 4.098,-3.12l0.056,0c0.387,-1.511 2.706,-2.674 5.507,-2.674c2.607,0 4.795,1.008 5.399,2.364c2.121,-0.814 4.326,-0.782 5.475,0.213c0.215,0.185 0.38,0.396 0.498,0.623c0.267,-0.04 0.543,-0.061 0.824,-0.06c2.264,0.009 4.09,1.414 4.08,3.135c-0.01,1.722 -1.856,3.113 -4.119,3.104l-0.056,0c-0.396,1.509 -2.723,2.665 -5.524,2.654c-2.586,-0.01 -4.758,-1.011 -5.369,-2.356Z" style="fill:#bdbdc1;stroke:#6a737d;stroke-width:0.9px;"/><g><path d="M15.884,36.511l0.31,0.026l-0.071,0.549l0.246,0.158l-0.281,0.114l-0.059,0.459l-0.377,-0.031l0.529,0.917l-0.94,-0.393l0.058,0.294l-0.493,0.112l-0.098,0.322l-0.212,-0.251l-0.49,0.111l-0.058,-0.296l-0.714,0.771l0.137,-1.067l-0.329,0.19l-0.227,-0.393l-0.304,0.018l0.168,-0.255l-0.271,-0.469l0.271,-0.156l-0.891,-0.372l1.059,-0.241l-0.306,-0.267l0.353,-0.381l-0.079,-0.22l0.234,0.053l0.394,-0.425l0.273,0.24l0.126,-0.977l0.485,0.841l0.162,-0.342l0.519,0.217l0.192,-0.149l0.01,0.234l0.47,0.196l-0.178,0.376l1.055,-0.239l-0.673,0.726Zm-2.307,-0.131l0.193,0.334l-0.156,-0.013l-0.025,0.191l-0.117,0.048l0.103,0.065l-0.03,0.229l0.129,0.01l-0.28,0.302l0.439,-0.1l-0.074,0.157l0.195,0.082l0.004,0.097l0.08,-0.062l0.216,0.09l0.067,-0.142l0.157,0.273l-0.028,0.09l-0.091,-0.108l-0.259,0.059l-0.035,-0.176l-0.366,0.396l0.066,-0.516l-0.157,0.091l-0.128,-0.222l-0.15,0.008l0.083,-0.125l-0.128,-0.222l0.157,-0.091l-0.481,-0.2l0.526,-0.12l-0.134,-0.118l0.18,-0.194l-0.048,-0.134l0.092,0.021Zm0.451,0.76l-0.076,-0.006l0.014,-0.11l-0.049,-0.031l0.056,-0.023l0.013,-0.108l0.078,0.007l-0.107,-0.186l0.198,0.083l-0.014,-0.071l0.111,-0.025l0.018,-0.058l0.038,0.045l0.107,-0.024l0.015,0.073l0.152,-0.165l-0.027,0.215l0.065,-0.038l0.053,0.093l0.063,-0.004l-0.035,0.052l0.053,0.092l-0.065,0.038l0.2,0.083l-0.219,0.05l0.056,0.049l-0.075,0.081l0.02,0.055l-0.059,-0.013l-0.077,0.083l-0.054,-0.047l-0.028,0.213l-0.107,-0.186l-0.033,0.071l-0.101,-0.042l-0.047,0.036l-0.002,-0.057l-0.103,-0.043l0.033,-0.069l-0.215,0.049l0.15,-0.162Zm0.676,-1.008l-0.225,0.243l-0.025,-0.123l-0.203,0.046l-0.088,-0.104l-0.041,0.134l-0.205,0.046l0.024,0.123l-0.297,-0.124l0.169,-0.182l0.13,0.114l0.066,-0.512l0.257,0.446l0.08,-0.17l0.242,0.101l0.114,-0.088l0.002,0.05Zm0.024,1.537l0.032,0.163l-0.22,0.05l0.035,-0.271l0.114,0.1l0.039,-0.042Zm0.224,-0.242l0.25,0.433l-0.47,-0.196l0.12,-0.13l0.097,0.022l-0.033,-0.091l0.036,-0.038Zm0.343,-0.313l0.003,0.002l-0.132,0.054l-0.034,0.26l-0.17,-0.014l0.101,-0.11l-0.127,-0.11l0.359,-0.082Zm-0.543,-0.875l0.202,0.084l-0.069,0.148l-0.03,-0.052l-0.137,0.079l0.034,-0.259Zm0.302,0.524l0.162,0.014l-0.031,0.239l-0.179,-0.075l0.113,-0.065l-0.065,-0.113Zm0.34,-0.392l-0.349,0.378l-0.039,-0.068l0.07,-0.106l-0.127,0.008l-0.056,-0.098l0.501,-0.114Z" style="fill:#e7ebee;stroke:#56dfdd;stroke-width:0.11px;stroke-linecap:round;stroke-miterlimit:1.5;"/><path d="M26.324,44.94l0.178,0.019l-0.034,0.323l0.144,0.096l-0.161,0.064l-0.028,0.271l-0.217,-0.023l0.316,0.547l-0.546,-0.243l0.037,0.174l-0.283,0.06l-0.053,0.188l-0.125,-0.15l-0.28,0.059l-0.037,-0.175l-0.402,0.446l0.066,-0.628l-0.187,0.108l-0.135,-0.235l-0.175,0.007l0.093,-0.148l-0.162,-0.28l0.155,-0.089l-0.518,-0.23l0.606,-0.129l-0.179,-0.161l0.199,-0.221l-0.048,-0.131l0.135,0.035l0.221,-0.246l0.161,0.144l0.06,-0.574l0.29,0.502l0.089,-0.2l0.301,0.135l0.109,-0.086l0.009,0.138l0.273,0.121l-0.098,0.22l0.604,-0.128l-0.378,0.42Zm-1.33,-0.105l0.115,0.199l-0.09,-0.009l-0.012,0.112l-0.066,0.026l0.059,0.04l-0.014,0.135l0.074,0.007l-0.157,0.175l0.251,-0.053l-0.04,0.091l0.113,0.051l0.004,0.057l0.045,-0.036l0.125,0.056l0.037,-0.083l0.094,0.163l-0.015,0.053l-0.054,-0.065l-0.148,0.032l-0.022,-0.104l-0.207,0.229l0.032,-0.304l-0.089,0.052l-0.076,-0.133l-0.087,0.004l0.046,-0.074l-0.076,-0.132l0.089,-0.052l-0.279,-0.124l0.301,-0.064l-0.078,-0.071l0.101,-0.113l-0.029,-0.079l0.053,0.014Zm0.269,0.453l-0.044,-0.004l0.007,-0.065l-0.029,-0.019l0.032,-0.012l0.007,-0.064l0.044,0.005l-0.063,-0.111l0.114,0.051l-0.008,-0.042l0.063,-0.013l0.01,-0.034l0.022,0.027l0.062,-0.013l0.009,0.043l0.086,-0.095l-0.014,0.126l0.037,-0.021l0.032,0.055l0.036,-0.001l-0.019,0.03l0.032,0.055l-0.037,0.021l0.116,0.052l-0.126,0.027l0.033,0.029l-0.042,0.047l0.012,0.033l-0.034,-0.009l-0.043,0.049l-0.032,-0.029l-0.013,0.125l-0.064,-0.11l-0.019,0.041l-0.058,-0.026l-0.027,0.021l-0.002,-0.034l-0.059,-0.027l0.018,-0.04l-0.124,0.026l0.085,-0.094Zm0.377,-0.586l-0.127,0.141l-0.016,-0.073l-0.116,0.025l-0.052,-0.063l-0.022,0.078l-0.118,0.025l0.016,0.073l-0.173,-0.077l0.095,-0.105l0.077,0.069l0.031,-0.301l0.154,0.266l0.044,-0.099l0.14,0.062l0.065,-0.05l0.002,0.029Zm0.032,0.907l0.021,0.097l-0.126,0.026l0.017,-0.159l0.066,0.06l0.022,-0.024Zm0.126,-0.14l0.15,0.259l-0.273,-0.122l0.067,-0.075l0.056,0.014l-0.02,-0.054l0.02,-0.022Zm0.194,-0.18l0.002,0.001l-0.076,0.03l-0.016,0.153l-0.098,-0.01l0.057,-0.064l-0.075,-0.067l0.206,-0.043Zm-0.324,-0.523l0.118,0.052l-0.038,0.086l-0.018,-0.031l-0.078,0.045l0.016,-0.152Zm0.181,0.313l0.093,0.01l-0.014,0.141l-0.105,-0.047l0.064,-0.037l-0.038,-0.067Zm0.191,-0.227l-0.196,0.218l-0.024,-0.04l0.039,-0.062l-0.073,0.003l-0.033,-0.058l0.287,-0.061Z" style="fill:#e7ebee;stroke:#56dfdd;stroke-width:0.11px;stroke-linecap:round;stroke-miterlimit:1.5;"/><path d="M31.943,38.697l0.178,0.018l-0.034,0.324l0.144,0.096l-0.16,0.064l-0.029,0.27l-0.217,-0.023l0.316,0.547l-0.546,-0.243l0.037,0.174l-0.282,0.06l-0.053,0.188l-0.125,-0.15l-0.281,0.06l-0.037,-0.176l-0.401,0.446l0.066,-0.628l-0.187,0.108l-0.136,-0.234l-0.175,0.006l0.093,-0.147l-0.161,-0.281l0.154,-0.089l-0.517,-0.23l0.606,-0.129l-0.179,-0.161l0.198,-0.22l-0.048,-0.131l0.135,0.034l0.222,-0.246l0.16,0.145l0.061,-0.575l0.289,0.502l0.089,-0.199l0.301,0.134l0.109,-0.086l0.009,0.138l0.273,0.122l-0.098,0.22l0.604,-0.129l-0.378,0.421Zm-1.33,-0.106l0.116,0.199l-0.091,-0.009l-0.011,0.112l-0.067,0.027l0.06,0.04l-0.014,0.134l0.074,0.008l-0.158,0.174l0.252,-0.053l-0.041,0.092l0.113,0.05l0.004,0.057l0.045,-0.035l0.125,0.056l0.037,-0.083l0.094,0.163l-0.015,0.053l-0.054,-0.065l-0.148,0.031l-0.022,-0.104l-0.206,0.229l0.032,-0.303l-0.09,0.051l-0.076,-0.133l-0.087,0.004l0.047,-0.073l-0.077,-0.133l0.089,-0.051l-0.279,-0.125l0.302,-0.064l-0.079,-0.071l0.101,-0.112l-0.029,-0.08l0.053,0.014Zm0.269,0.454l-0.044,-0.005l0.007,-0.065l-0.028,-0.018l0.031,-0.013l0.007,-0.064l0.045,0.005l-0.064,-0.11l0.115,0.051l-0.009,-0.042l0.063,-0.014l0.01,-0.034l0.022,0.027l0.062,-0.013l0.009,0.044l0.086,-0.096l-0.013,0.127l0.037,-0.022l0.031,0.055l0.036,-0.001l-0.019,0.03l0.032,0.055l-0.037,0.022l0.116,0.051l-0.125,0.027l0.032,0.03l-0.042,0.046l0.012,0.033l-0.034,-0.008l-0.043,0.048l-0.032,-0.029l-0.013,0.125l-0.064,-0.11l-0.018,0.041l-0.059,-0.026l-0.026,0.021l-0.002,-0.034l-0.06,-0.026l0.018,-0.041l-0.123,0.027l0.084,-0.094Zm0.377,-0.586l-0.127,0.14l-0.015,-0.073l-0.117,0.025l-0.052,-0.063l-0.022,0.079l-0.117,0.025l0.015,0.072l-0.172,-0.077l0.094,-0.105l0.077,0.069l0.032,-0.301l0.153,0.266l0.044,-0.099l0.141,0.063l0.064,-0.051l0.002,0.03Zm0.033,0.906l0.02,0.097l-0.126,0.027l0.017,-0.159l0.067,0.06l0.022,-0.025Zm0.126,-0.14l0.149,0.259l-0.273,-0.121l0.068,-0.076l0.056,0.015l-0.02,-0.055l0.02,-0.022Zm0.193,-0.18l0.002,0.001l-0.076,0.03l-0.016,0.153l-0.098,-0.01l0.057,-0.063l-0.074,-0.067l0.205,-0.044Zm-0.323,-0.523l0.117,0.052l-0.038,0.086l-0.018,-0.03l-0.077,0.045l0.016,-0.153Zm0.18,0.313l0.094,0.01l-0.015,0.141l-0.104,-0.047l0.064,-0.037l-0.039,-0.067Zm0.191,-0.227l-0.196,0.218l-0.023,-0.04l0.038,-0.061l-0.072,0.002l-0.034,-0.058l0.287,-0.061Z" style="fill:#e7ebee;stroke:#56dfdd;stroke-width:0.11px;stroke-linecap:round;stroke-miterlimit:1.5;"/><path d="M12.237,33.424l-0.174,0.047l-0.086,-0.313l-0.169,-0.037l0.126,-0.118l-0.072,-0.262l0.21,-0.058l-0.494,-0.394l0.597,0.027l-0.098,-0.149l0.241,-0.159l-0.02,-0.194l0.172,0.094l0.239,-0.158l0.099,0.15l0.211,-0.562l0.168,0.608l0.134,-0.169l0.212,0.169l0.161,-0.07l-0.033,0.172l0.253,0.201l-0.111,0.14l0.565,0.025l-0.517,0.342l0.226,0.084l-0.104,0.278l0.092,0.104l-0.138,0.018l-0.116,0.309l-0.202,-0.075l0.153,0.556l-0.453,-0.361l-0.01,0.218l-0.329,-0.015l-0.07,0.12l-0.059,-0.125l-0.298,-0.014l0.01,-0.24l-0.515,0.34l0.199,-0.529Zm1.276,-0.388l-0.18,-0.144l0.087,-0.024l-0.03,-0.109l0.052,-0.049l-0.07,-0.015l-0.036,-0.13l-0.072,0.02l0.083,-0.22l-0.214,0.141l0.004,-0.1l-0.124,-0.005l-0.025,-0.052l-0.029,0.049l-0.136,-0.006l-0.005,0.091l-0.147,-0.118l-0.005,-0.054l0.074,0.04l0.126,-0.083l0.059,0.089l0.108,-0.289l0.082,0.294l0.064,-0.08l0.12,0.095l0.079,-0.035l-0.017,0.085l0.12,0.096l-0.064,0.08l0.305,0.014l-0.257,0.17l0.099,0.037l-0.053,0.142l0.056,0.063l-0.054,0.007Zm-0.416,-0.324l0.042,-0.012l0.018,0.063l0.033,0.007l-0.025,0.023l0.017,0.062l-0.043,0.012l0.1,0.079l-0.126,-0.005l0.023,0.036l-0.054,0.035l0.004,0.035l-0.031,-0.017l-0.053,0.035l-0.024,-0.037l-0.045,0.12l-0.034,-0.122l-0.026,0.033l-0.05,-0.039l-0.033,0.014l0.007,-0.035l-0.05,-0.04l0.027,-0.033l-0.127,-0.006l0.107,-0.071l-0.042,-0.015l0.023,-0.059l-0.024,-0.026l0.035,-0.005l0.023,-0.061l0.04,0.015l-0.034,-0.121l0.1,0.08l0.002,-0.045l0.064,0.003l0.017,-0.03l0.015,0.031l0.065,0.003l-0.002,0.044l0.105,-0.069l-0.044,0.118Zm-0.137,0.683l0.067,-0.177l0.041,0.062l0.099,-0.065l0.071,0.039l-0.008,-0.081l0.101,-0.066l-0.041,-0.062l0.188,0.008l-0.049,0.133l-0.097,-0.036l0.081,0.292l-0.24,-0.192l-0.005,0.108l-0.154,-0.007l-0.041,0.071l-0.013,-0.027Zm-0.362,-0.832l-0.054,-0.082l0.107,-0.071l0.043,0.154l-0.084,-0.032l-0.012,0.031Zm-0.066,0.177l-0.234,-0.187l0.299,0.014l-0.035,0.094l-0.058,0.007l0.039,0.044l-0.011,0.028Zm-0.114,0.238l-0.002,0l0.059,-0.056l-0.041,-0.148l0.095,-0.027l-0.03,0.08l0.094,0.035l-0.175,0.116Zm0.492,0.369l-0.128,-0.006l0.004,-0.094l0.027,0.022l0.056,-0.07l0.041,0.148Zm-0.282,-0.226l-0.091,0.025l-0.038,-0.136l0.114,0.005l-0.046,0.058l0.061,0.048Zm-0.095,0.281l0.103,-0.275l0.036,0.029l-0.013,0.072l0.066,-0.029l0.053,0.041l-0.245,0.162Z" style="fill:#e7ebee;stroke:#56dfdd;stroke-width:0.11px;stroke-linecap:round;stroke-miterlimit:1.5;"/><path d="M45.524,42.354l0.065,0.167l-0.303,0.119l-0.019,0.172l-0.13,-0.114l-0.253,0.099l-0.08,-0.203l-0.34,0.532l-0.036,-0.596l-0.137,0.113l-0.183,-0.223l-0.192,0.039l0.076,-0.18l-0.182,-0.222l0.139,-0.114l-0.581,-0.151l0.588,-0.23l-0.182,-0.116l0.146,-0.229l-0.086,-0.152l0.174,0.015l0.174,-0.272l0.15,0.096l-0.033,-0.566l0.393,0.479l0.061,-0.233l0.287,0.075l0.094,-0.103l0.032,0.136l0.32,0.083l-0.054,0.209l0.537,-0.21l-0.312,0.488l0.218,-0.013l0.019,0.329l0.126,0.057l-0.118,0.072l0.017,0.298l-0.24,0.014l0.392,0.478l-0.547,-0.143Zm-0.518,-1.229l-0.124,0.194l-0.033,-0.084l-0.105,0.041l-0.054,-0.047l-0.008,0.071l-0.126,0.049l0.027,0.07l-0.227,-0.06l0.162,0.199l-0.099,0.006l0.007,0.124l-0.049,0.029l0.052,0.024l0.008,0.137l0.091,-0.005l-0.102,0.158l-0.054,0.011l0.033,-0.078l-0.096,-0.117l0.082,-0.067l-0.298,-0.078l0.284,-0.112l-0.087,-0.055l0.083,-0.129l-0.043,-0.075l0.086,0.007l0.083,-0.129l0.087,0.056l-0.018,-0.305l0.195,0.238l0.027,-0.102l0.147,0.038l0.057,-0.063l0.012,0.054Zm-0.279,0.447l-0.016,-0.041l0.06,-0.024l0.004,-0.033l0.026,0.022l0.059,-0.024l0.017,0.042l0.068,-0.107l0.008,0.125l0.033,-0.027l0.041,0.05l0.035,-0.007l-0.014,0.033l0.04,0.048l-0.034,0.029l0.124,0.032l-0.119,0.046l0.037,0.023l-0.035,0.054l0.018,0.031l-0.036,-0.003l-0.034,0.053l-0.036,-0.023l0.007,0.127l-0.081,-0.099l-0.011,0.043l-0.061,-0.016l-0.024,0.026l-0.008,-0.034l-0.063,-0.017l0.011,-0.041l-0.117,0.046l0.069,-0.108l-0.045,0.003l-0.004,-0.064l-0.031,-0.014l0.029,-0.017l-0.003,-0.066l0.044,-0.002l-0.08,-0.098l0.122,0.032Zm0.694,0.065l-0.184,-0.048l0.058,-0.047l-0.075,-0.092l0.031,-0.075l-0.079,0.017l-0.077,-0.093l-0.057,0.047l-0.011,-0.189l0.137,0.036l-0.026,0.1l0.282,-0.111l-0.166,0.259l0.108,-0.006l0.009,0.153l0.075,0.034l-0.025,0.015Zm-0.79,0.446l-0.077,0.063l-0.082,-0.1l0.149,-0.058l-0.022,0.087l0.032,0.008Zm0.182,0.048l-0.161,0.252l-0.018,-0.299l0.098,0.026l0.013,0.056l0.039,-0.043l0.029,0.008Zm0.249,0.089l0,0.002l-0.062,-0.053l-0.143,0.056l-0.036,-0.092l0.082,0.021l0.026,-0.097l0.133,0.163Zm0.316,-0.528l0.007,0.129l-0.094,0.005l0.019,-0.03l-0.075,-0.048l0.143,-0.056Zm-0.196,0.304l0.035,0.088l-0.132,0.052l-0.007,-0.114l0.062,0.04l0.042,-0.066Zm0.29,0.066l-0.284,-0.074l0.025,-0.04l0.072,0.007l-0.036,-0.064l0.037,-0.056l0.186,0.227Z" style="fill:#e7ebee;stroke:#56dfdd;stroke-width:0.11px;stroke-linecap:round;stroke-miterlimit:1.5;"/><path d="M28.107,51.453l-0.168,0.437l-0.643,-0.247l-0.269,0.236l-0.042,-0.356l-0.632,-0.242l0.17,-0.445l-1.304,0.349l0.837,-1.034l-0.452,-0.023l0.036,-0.686l-0.32,-0.19l0.338,-0.156l0.035,-0.666l0.467,0.025l-0.738,-1.137l1.253,0.481l-0.117,-0.437l0.65,-0.174l0.084,-0.371l0.258,0.279l0.65,-0.174l0.117,0.438l0.845,-1.045l-0.07,1.354l0.391,-0.254l0.363,0.559l0.371,-0.035l-0.182,0.325l0.374,0.576l-0.38,0.247l1.243,0.476l-1.305,0.35l0.37,0.3l-0.426,0.526l0.142,0.329l-0.352,-0.07l-0.434,0.536l-0.363,-0.294l-0.069,1.333l-0.728,-1.12Zm-0.701,-3.236l0.039,-0.76l0.415,0.638l-0.099,0.027l-0.135,-0.151l-0.043,0.198l-0.177,0.048Zm0.955,-0.203l-0.198,0.252l-0.063,-0.235l-0.196,0.052l0.082,-0.213l0.375,0.144Zm-1.397,0.343l0.22,-0.272l0.178,0.144l-0.117,0.031l0.063,0.235l-0.344,-0.138Zm-0.331,1.859l0.087,-0.156l-0.226,-0.348l0.23,-0.148l-0.751,-0.289l0.788,-0.211l-0.223,-0.181l0.257,-0.318l-0.086,-0.199l0.032,0.007l0.301,0.472l-0.244,-0.015l-0.015,0.357l-0.176,0.082l0.168,0.103l-0.016,0.368l0.236,0.015l-0.362,0.461Zm1.308,-1.536l0.051,-0.141l0.204,0.081l0.084,-0.076l0.014,0.116l0.2,0.08l-0.053,0.144l0.411,-0.11l-0.262,0.333l0.143,0.009l-0.009,0.222l0.101,0.063l-0.106,0.049l-0.01,0.216l-0.147,-0.009l0.236,0.37l-0.397,-0.159l0.038,0.142l-0.204,0.055l-0.026,0.12l-0.082,-0.091l-0.204,0.054l-0.038,-0.142l-0.264,0.337l0.019,-0.439l-0.123,0.081l-0.116,-0.182l-0.117,0.01l0.057,-0.104l-0.119,-0.188l0.119,-0.079l-0.393,-0.158l0.41,-0.11l-0.117,-0.098l0.132,-0.169l-0.045,-0.108l0.111,0.024l0.135,-0.172l0.116,0.096l0.018,-0.432l0.233,0.365Zm1.004,-0.442l-0.08,0.209l-0.094,-0.146l-0.203,0.135l0.015,-0.337l0.362,0.139Zm0.685,0.057l-0.483,0.597l-0.084,-0.133l0.094,-0.174l-0.194,0.017l-0.069,-0.109l0.736,-0.198Zm-0.233,0.64l-0.02,0.391l-0.313,-0.126l0.197,-0.13l-0.094,-0.148l0.23,0.013Zm-0.28,1.013l0.112,-0.142l-0.195,-0.163l0.346,-0.092l-0.015,0.007l-0.021,0.402l-0.227,-0.012Zm-2.3,0.29l0.425,-0.114l-0.088,0.238l0.331,0.133l0.024,0.191l0.139,-0.126l0.337,0.135l0.085,-0.233l0.289,0.453l-0.138,-0.149l-0.392,0.105l-0.071,-0.264l-0.511,0.631l0.043,-0.818l-0.237,0.154l-0.219,-0.338l-0.017,0.002Zm2.271,-0.252l0.42,0.646l-0.713,-0.273l0.105,-0.134l0.184,0.039l-0.075,-0.178l0.079,-0.1Zm-0.267,0.62l-0.35,0.093l0.015,-0.348l0.19,0.159l0.089,-0.113l0.056,0.209Z" style="fill:#e7ebee;stroke:#56dfdd;stroke-width:0.11px;stroke-linecap:round;stroke-miterlimit:1.5;"/><path d="M31.238,51.77l-0.557,-0.271l0.435,-0.783l-0.272,-0.374l0.483,-0.006l0.427,-0.77l0.567,0.276l-0.255,-1.702l1.247,1.2l0.105,-0.571l0.912,0.137l0.306,-0.38l0.153,0.449l0.885,0.133l-0.109,0.589l1.641,-0.786l-0.847,1.527l0.603,-0.09l0.127,0.848l0.483,0.155l-0.416,0.291l0.127,0.847l-0.604,0.091l1.259,1.212l-1.799,-0.27l0.277,0.531l-0.807,0.386l-0.014,0.475l-0.406,-0.274l-0.83,0.398l-0.268,-0.514l-0.84,1.513l-0.256,-1.703l-0.461,0.43l-0.634,-0.609l-0.464,0.136l0.151,-0.438l-0.646,-0.621l0.453,-0.422l-1.772,-0.266l1.616,-0.774Zm4.443,-0.46l1.01,0.151l-0.921,0.441l-0.02,-0.128l0.224,-0.153l-0.259,-0.08l-0.034,-0.231Zm0.116,1.239l-0.305,-0.285l0.324,-0.049l-0.038,-0.255l0.273,0.133l-0.254,0.456Zm-0.232,-1.819l0.328,0.316l-0.221,0.206l-0.023,-0.152l-0.324,0.049l0.24,-0.419Zm-2.432,-0.667l0.194,0.132l0.502,-0.241l0.162,0.311l0.507,-0.914l0.154,1.029l0.279,-0.26l0.383,0.368l0.28,-0.082l-0.013,0.04l-0.681,0.318l0.06,-0.307l-0.475,-0.067l-0.081,-0.234l-0.166,0.199l-0.489,-0.069l-0.058,0.298l-0.558,-0.521Zm1.842,1.864l0.18,0.084l-0.142,0.248l0.088,0.117l-0.157,0.002l-0.14,0.243l-0.184,-0.086l0.08,0.536l-0.403,-0.376l-0.035,0.18l-0.295,-0.042l-0.1,0.12l-0.049,-0.141l-0.287,-0.04l0.036,-0.186l-0.534,0.25l0.277,-0.482l-0.196,0.029l-0.04,-0.266l-0.156,-0.049l0.135,-0.092l-0.04,-0.266l0.196,-0.03l-0.407,-0.379l0.584,0.082l-0.089,-0.167l0.263,-0.123l0.005,-0.149l0.131,0.085l0.27,-0.126l0.087,0.161l0.275,-0.477l0.08,0.535l0.15,-0.136l0.205,0.191l0.151,-0.043l-0.05,0.138l0.209,0.194l-0.147,0.134l0.575,0.081l-0.526,0.246Zm0.427,1.333l-0.267,-0.13l0.211,-0.098l-0.147,-0.276l0.448,0.063l-0.245,0.441Zm-0.188,0.862l-0.719,-0.692l0.191,-0.089l0.217,0.142l0.009,-0.248l0.158,-0.074l0.144,0.961Zm-0.817,-0.38l-0.52,-0.078l0.219,-0.381l0.143,0.267l0.212,-0.099l-0.054,0.291Zm-1.31,-0.49l0.172,0.16l0.249,-0.225l0.067,0.451l-0.006,-0.02l-0.535,-0.08l0.053,-0.286Zm-0.013,-2.957l0.083,0.553l-0.304,-0.142l-0.232,0.402l-0.259,0.004l0.145,0.194l-0.236,0.409l0.299,0.14l-0.653,0.306l0.221,-0.155l-0.077,-0.512l0.366,-0.054l-0.761,-0.733l1.087,0.163l-0.167,-0.32l0.487,-0.234l0.001,-0.021Zm-0.033,2.914l-0.933,0.447l0.482,-0.868l0.162,0.152l-0.082,0.228l0.25,-0.072l0.121,0.113Zm-0.785,-0.421l-0.069,-0.457l0.464,0.066l-0.244,0.221l0.137,0.127l-0.288,0.043Z" style="fill:#e7ebee;stroke:#56dfdd;stroke-width:0.11px;stroke-linecap:round;stroke-miterlimit:1.5;"/><path d="M41.522,40.287l0.414,0.046l-0.074,0.754l0.335,0.226l-0.371,0.147l-0.062,0.629l-0.503,-0.056l0.74,1.281l-1.268,-0.575l0.089,0.407l-0.653,0.135l-0.12,0.439l-0.292,-0.353l-0.649,0.135l-0.089,-0.41l-0.922,1.034l0.143,-1.463l-0.432,0.249l-0.317,-0.55l-0.405,0.013l0.214,-0.344l-0.379,-0.655l0.356,-0.206l-1.202,-0.545l1.402,-0.292l-0.416,-0.378l0.456,-0.512l-0.114,-0.306l0.314,0.083l0.509,-0.571l0.373,0.34l0.132,-1.339l0.678,1.175l0.203,-0.464l0.7,0.318l0.25,-0.198l0.022,0.322l0.635,0.287l-0.224,0.512l1.398,-0.29l-0.871,0.975Zm-3.08,-0.268l0.27,0.468l-0.209,-0.024l-0.026,0.262l-0.154,0.061l0.139,0.094l-0.03,0.313l0.172,0.019l-0.362,0.406l0.581,-0.121l-0.093,0.213l0.263,0.119l0.01,0.134l0.104,-0.082l0.291,0.132l0.084,-0.193l0.22,0.381l-0.034,0.124l-0.126,-0.152l-0.343,0.071l-0.053,-0.243l-0.474,0.531l0.069,-0.708l-0.205,0.119l-0.179,-0.311l-0.201,0.007l0.106,-0.17l-0.179,-0.31l0.206,-0.119l-0.648,-0.294l0.697,-0.145l-0.184,-0.167l0.233,-0.261l-0.069,-0.186l0.124,0.032Zm0.629,1.063l-0.102,-0.011l0.015,-0.151l-0.065,-0.044l0.072,-0.029l0.015,-0.148l0.104,0.011l-0.15,-0.259l0.267,0.121l-0.021,-0.097l0.147,-0.031l0.021,-0.079l0.053,0.064l0.142,-0.03l0.022,0.101l0.197,-0.221l-0.029,0.294l0.086,-0.049l0.074,0.129l0.083,-0.003l-0.044,0.071l0.075,0.129l-0.086,0.049l0.27,0.122l-0.29,0.061l0.076,0.069l-0.097,0.109l0.029,0.077l-0.079,-0.021l-0.1,0.112l-0.074,-0.067l-0.028,0.291l-0.15,-0.259l-0.042,0.096l-0.135,-0.061l-0.062,0.048l-0.005,-0.079l-0.139,-0.063l0.041,-0.093l-0.285,0.059l0.194,-0.218Zm0.864,-1.361l-0.291,0.326l-0.037,-0.171l-0.27,0.056l-0.121,-0.146l-0.05,0.182l-0.271,0.056l0.036,0.169l-0.4,-0.181l0.218,-0.244l0.178,0.162l0.069,-0.702l0.359,0.623l0.101,-0.23l0.326,0.148l0.148,-0.117l0.005,0.069Zm0.089,2.115l0.049,0.226l-0.291,0.061l0.036,-0.371l0.156,0.141l0.05,-0.057Zm0.29,-0.325l0.35,0.607l-0.634,-0.288l0.155,-0.174l0.13,0.034l-0.047,-0.127l0.046,-0.052Zm0.446,-0.417l0.004,0.003l-0.175,0.069l-0.035,0.357l-0.228,-0.026l0.132,-0.147l-0.173,-0.157l0.475,-0.099Zm-0.757,-1.225l0.273,0.124l-0.088,0.2l-0.041,-0.072l-0.179,0.104l0.035,-0.356Zm0.422,0.734l0.217,0.024l-0.032,0.328l-0.242,-0.11l0.148,-0.085l-0.091,-0.157Zm0.439,-0.527l-0.451,0.506l-0.055,-0.095l0.089,-0.143l-0.168,0.006l-0.079,-0.136l0.664,-0.138Z" style="fill:#e7ebee;stroke:#56dfdd;stroke-width:0.11px;stroke-linecap:round;stroke-miterlimit:1.5;"/><path d="M21.707,49.939l-0.137,0.351l-0.52,-0.197l-0.219,0.191l-0.033,-0.286l-0.512,-0.194l0.139,-0.358l-1.057,0.283l0.68,-0.832l-0.366,-0.018l0.03,-0.552l-0.258,-0.152l0.274,-0.125l0.029,-0.535l0.378,0.019l-0.596,-0.913l1.015,0.385l-0.094,-0.351l0.526,-0.142l0.069,-0.298l0.209,0.224l0.526,-0.141l0.094,0.352l0.686,-0.841l-0.059,1.088l0.317,-0.205l0.293,0.448l0.301,-0.028l-0.149,0.262l0.302,0.461l-0.308,0.199l1.006,0.381l-1.058,0.284l0.299,0.24l-0.345,0.423l0.114,0.265l-0.285,-0.056l-0.352,0.431l-0.293,-0.235l-0.059,1.071l-0.587,-0.899Zm-0.563,-2.599l0.034,-0.611l0.335,0.512l-0.08,0.022l-0.11,-0.121l-0.035,0.16l-0.144,0.038Zm0.774,-0.165l-0.161,0.203l-0.05,-0.189l-0.158,0.043l0.066,-0.172l0.303,0.115Zm-1.132,0.278l0.179,-0.219l0.144,0.116l-0.095,0.025l0.051,0.189l-0.279,-0.111Zm-0.271,1.495l0.071,-0.125l-0.182,-0.28l0.186,-0.12l-0.608,-0.23l0.639,-0.171l-0.181,-0.145l0.209,-0.256l-0.069,-0.16l0.026,0.005l0.243,0.379l-0.198,-0.011l-0.013,0.286l-0.142,0.067l0.135,0.082l-0.013,0.296l0.191,0.011l-0.294,0.372Zm1.062,-1.237l0.042,-0.113l0.164,0.065l0.069,-0.061l0.011,0.092l0.162,0.065l-0.043,0.115l0.332,-0.089l-0.212,0.268l0.116,0.007l-0.008,0.179l0.082,0.05l-0.086,0.04l-0.008,0.173l-0.12,-0.007l0.191,0.297l-0.321,-0.127l0.03,0.114l-0.165,0.045l-0.021,0.096l-0.067,-0.073l-0.165,0.044l-0.031,-0.114l-0.214,0.271l0.016,-0.353l-0.1,0.066l-0.093,-0.146l-0.095,0.008l0.046,-0.084l-0.096,-0.151l0.097,-0.063l-0.318,-0.126l0.332,-0.09l-0.095,-0.078l0.108,-0.137l-0.037,-0.086l0.09,0.019l0.11,-0.139l0.093,0.077l0.016,-0.347l0.188,0.293Zm0.814,-0.357l-0.066,0.169l-0.075,-0.118l-0.165,0.109l0.013,-0.271l0.293,0.111Zm0.555,0.045l-0.392,0.48l-0.068,-0.106l0.076,-0.14l-0.157,0.014l-0.056,-0.088l0.597,-0.16Zm-0.19,0.514l-0.017,0.315l-0.254,-0.101l0.16,-0.105l-0.076,-0.118l0.187,0.009Zm-0.229,0.815l0.091,-0.114l-0.157,-0.131l0.28,-0.075l-0.013,0.006l-0.017,0.323l-0.184,-0.009Zm-1.863,0.237l0.344,-0.092l-0.071,0.191l0.268,0.106l0.018,0.154l0.114,-0.101l0.272,0.108l0.07,-0.188l0.232,0.363l-0.111,-0.119l-0.317,0.085l-0.057,-0.212l-0.415,0.508l0.036,-0.657l-0.192,0.123l-0.177,-0.27l-0.014,0.001Zm1.839,-0.207l0.339,0.519l-0.576,-0.218l0.085,-0.108l0.149,0.031l-0.061,-0.143l0.064,-0.081Zm-0.217,0.499l-0.284,0.076l0.013,-0.28l0.154,0.127l0.072,-0.091l0.045,0.168Z" style="fill:#e7ebee;stroke:#56dfdd;stroke-width:0.11px;stroke-linecap:round;stroke-miterlimit:1.5;"/><path d="M44.875,37.706l-0.113,0.457l-0.559,-0.307l-0.212,0.236l-0.059,-0.384l-0.549,-0.301l0.115,-0.466l-1.078,0.289l0.639,-1.052l-0.384,-0.055l-0.014,-0.733l-0.282,-0.224l0.274,-0.145l-0.014,-0.71l0.396,0.057l-0.698,-1.266l1.09,0.597l-0.127,-0.476l0.537,-0.144l0.047,-0.392l0.236,0.316l0.537,-0.143l0.128,0.476l0.645,-1.063l0.029,1.445l0.314,-0.247l0.343,0.623l0.311,-0.013l-0.133,0.336l0.354,0.641l-0.305,0.239l1.081,0.593l-1.079,0.289l0.332,0.345l-0.325,0.535l0.141,0.363l-0.302,-0.099l-0.331,0.546l-0.325,-0.339l0.028,1.424l-0.688,-1.248Zm-0.804,-3.512l-0.016,-0.811l0.392,0.711l-0.081,0.022l-0.125,-0.171l-0.023,0.21l-0.147,0.039Zm0.794,-0.155l-0.151,0.258l-0.069,-0.256l-0.161,0.043l0.055,-0.223l0.326,0.178Zm-1.158,0.276l0.169,-0.277l0.159,0.166l-0.097,0.026l0.069,0.256l-0.3,-0.171Zm-0.157,1.97l0.063,-0.161l-0.213,-0.388l0.184,-0.144l-0.653,-0.358l0.652,-0.175l-0.201,-0.208l0.197,-0.323l-0.086,-0.219l0.028,0.009l0.284,0.525l-0.207,-0.032l0.011,0.381l-0.143,0.077l0.148,0.121l0.011,0.393l0.2,0.031l-0.275,0.471Zm1.003,-1.56l0.035,-0.148l0.177,0.101l0.066,-0.076l0.02,0.125l0.174,0.099l-0.035,0.151l0.339,-0.091l-0.199,0.339l0.121,0.019l0.007,0.238l0.089,0.073l-0.086,0.046l0.006,0.231l-0.125,-0.02l0.223,0.412l-0.345,-0.196l0.042,0.155l-0.17,0.045l-0.013,0.127l-0.075,-0.103l-0.169,0.045l-0.042,-0.155l-0.201,0.343l-0.012,-0.468l-0.099,0.079l-0.11,-0.203l-0.098,0.003l0.041,-0.108l-0.113,-0.209l0.096,-0.077l-0.342,-0.195l0.339,-0.09l-0.106,-0.113l0.101,-0.173l-0.045,-0.118l0.095,0.033l0.103,-0.176l0.104,0.11l-0.013,-0.461l0.22,0.406Zm0.819,-0.407l-0.054,0.219l-0.088,-0.163l-0.163,0.131l-0.01,-0.36l0.315,0.173Zm0.583,0.106l-0.369,0.607l-0.08,-0.147l0.068,-0.18l-0.162,0.005l-0.066,-0.122l0.609,-0.163Zm-0.155,0.669l0.008,0.418l-0.273,-0.155l0.158,-0.127l-0.088,-0.164l0.195,0.028Zm-0.17,1.068l0.085,-0.145l-0.175,-0.187l0.285,-0.077l-0.012,0.007l0.009,0.429l-0.192,-0.027Zm-1.923,0.159l0.351,-0.094l-0.058,0.249l0.288,0.164l0.032,0.206l0.11,-0.125l0.293,0.167l0.057,-0.245l0.273,0.504l-0.126,-0.168l-0.324,0.087l-0.077,-0.288l-0.391,0.642l-0.017,-0.873l-0.19,0.149l-0.207,-0.376l-0.014,0.001Zm1.9,-0.121l0.397,0.72l-0.619,-0.34l0.08,-0.137l0.158,0.054l-0.076,-0.195l0.06,-0.102Zm-0.184,0.646l-0.29,0.078l-0.01,-0.373l0.171,0.184l0.068,-0.116l0.061,0.227Z" style="fill:#e7ebee;stroke:#56dfdd;stroke-width:0.11px;stroke-linecap:round;stroke-miterlimit:1.5;"/><path d="M8.272,50.272l-0.331,0.107l-0.177,-0.487l-0.267,-0.045l0.181,-0.191l-0.173,-0.479l0.337,-0.11l-0.842,-0.59l1.001,0l-0.209,-0.273l0.407,-0.3l-0.049,-0.274l0.255,0.123l0.396,-0.292l0.216,0.282l0.283,-0.96l0.344,0.95l0.191,-0.272l0.42,0.294l0.252,-0.125l-0.031,0.28l0.419,0.294l-0.191,0.272l1.011,0l-0.805,0.593l0.337,0.107l-0.138,0.471l0.202,0.199l-0.275,0.047l-0.143,0.485l-0.327,-0.104l0.341,0.942l-0.842,-0.591l0.012,0.355l-0.509,0l-0.118,0.236l-0.133,-0.236l-0.519,0l-0.012,-0.347l-0.793,0.584l0.279,-0.945Zm1.495,-1.921l0.452,-0.333l-0.159,0.539l-0.064,-0.045l0.019,-0.149l-0.134,0.068l-0.114,-0.08Zm0.586,0.457l-0.241,0.004l0.103,-0.147l-0.126,-0.088l0.162,-0.053l0.102,0.284Zm-0.884,-0.647l0.264,0l0.005,0.17l-0.075,-0.053l-0.103,0.147l-0.091,-0.264Zm-1.22,0.679l0.131,-0.022l0.087,-0.293l0.197,0.062l-0.206,-0.568l0.509,0.356l-0.007,-0.214l0.307,0l0.071,-0.143l0.013,0.022l-0.121,0.395l-0.111,-0.148l-0.211,0.158l-0.133,-0.063l0.024,0.145l-0.218,0.163l0.109,0.144l-0.441,0.006Zm1.518,0.037l0.106,-0.036l0.054,0.155l0.085,0.014l-0.059,0.062l0.053,0.153l-0.108,0.037l0.265,0.186l-0.318,0.005l0.065,0.086l-0.131,0.099l0.014,0.087l-0.08,-0.038l-0.128,0.096l-0.067,-0.089l-0.095,0.309l-0.104,-0.303l-0.062,0.088l-0.132,-0.092l-0.081,0.041l0.011,-0.09l-0.132,-0.093l0.062,-0.088l-0.321,0.005l0.259,-0.195l-0.107,-0.033l0.046,-0.152l-0.063,-0.063l0.087,-0.016l0.048,-0.157l0.104,0.032l-0.104,-0.301l0.265,0.186l-0.002,-0.114l0.162,-0.003l0.038,-0.076l0.041,0.075l0.165,-0.002l0.002,0.111l0.255,-0.191l-0.093,0.305Zm0.747,0.373l-0.159,0.052l0.038,-0.122l-0.177,-0.055l0.198,-0.149l0.1,0.274Zm0.305,0.423l-0.577,0l0.034,-0.11l0.145,-0.028l-0.105,-0.103l0.028,-0.092l0.475,0.333Zm-0.478,0.165l-0.233,0.172l-0.083,-0.241l0.171,0.053l0.038,-0.123l0.107,0.139Zm-0.715,0.313l0.136,-0.002l-0.004,-0.189l0.223,0.156l-0.011,-0.005l-0.239,0.176l-0.105,-0.136Zm-1.299,-1.194l0.274,0.192l-0.178,0.061l0.087,0.254l-0.097,0.103l0.14,0.021l0.09,0.258l0.175,-0.06l-0.116,0.379l0.017,-0.149l-0.253,-0.177l0.115,-0.165l-0.611,0l0.487,-0.358l-0.204,-0.065l0.084,-0.285l-0.01,-0.009Zm1.263,1.194l-0.161,0.546l-0.195,-0.54l0.128,-0.002l0.068,0.125l0.064,-0.127l0.096,-0.002Zm-0.484,0.136l-0.226,-0.158l0.206,-0.155l0.003,0.185l0.108,-0.002l-0.091,0.13Z" style="fill:#e7ebee;stroke:#56dfdd;stroke-width:0.11px;stroke-linecap:round;stroke-miterlimit:1.5;"/><path d="M8.033,43.798l-0.288,0.195l-0.305,-0.419l-0.269,0.031l0.121,-0.234l-0.299,-0.412l0.294,-0.199l-0.973,-0.334l0.962,-0.278l-0.277,-0.203l0.308,-0.402l-0.123,-0.249l0.279,0.047l0.3,-0.39l0.285,0.21l0.006,-1l0.594,0.817l0.108,-0.314l0.485,0.166l0.208,-0.19l0.047,0.278l0.484,0.166l-0.108,0.315l0.972,-0.281l-0.61,0.793l0.355,0.01l-0.003,0.491l0.249,0.135l-0.251,0.121l-0.003,0.506l-0.343,-0.009l0.589,0.81l-0.973,-0.334l0.109,0.337l-0.488,0.141l-0.048,0.26l-0.194,-0.19l-0.498,0.144l-0.108,-0.331l-0.6,0.781l0.006,-0.985Zm0.904,-2.26l0.342,-0.445l-0.003,0.561l-0.073,-0.025l-0.024,-0.148l-0.109,0.103l-0.133,-0.046Zm0.691,0.277l-0.231,0.07l0.058,-0.169l-0.146,-0.05l0.141,-0.096l0.178,0.245Zm-1.029,-0.377l0.253,-0.073l0.052,0.162l-0.087,-0.03l-0.058,0.169l-0.16,-0.228Zm-0.985,0.991l0.12,-0.058l0.002,-0.306l0.208,0.006l-0.356,-0.49l0.588,0.202l-0.066,-0.204l0.295,-0.085l0.029,-0.157l0.017,0.018l-0.006,0.412l-0.148,-0.111l-0.159,0.21l-0.145,-0.023l0.063,0.133l-0.164,0.217l0.144,0.107l-0.422,0.129Zm1.469,-0.386l0.092,-0.064l0.095,0.135l0.085,-0.011l-0.039,0.076l0.093,0.133l-0.093,0.065l0.306,0.105l-0.305,0.093l0.087,0.065l-0.099,0.131l0.039,0.08l-0.088,-0.014l-0.096,0.127l-0.09,-0.067l-0.005,0.324l-0.185,-0.263l-0.035,0.102l-0.152,-0.052l-0.067,0.062l-0.014,-0.09l-0.152,-0.052l0.035,-0.102l-0.307,0.094l0.195,-0.259l-0.112,-0.002l0.002,-0.159l-0.078,-0.043l0.079,-0.04l0.003,-0.164l0.108,0.002l-0.183,-0.26l0.306,0.105l-0.033,-0.109l0.154,-0.047l0.016,-0.084l0.061,0.06l0.158,-0.048l0.032,0.107l0.192,-0.255l-0.005,0.319Zm0.821,0.152l-0.138,0.094l0.002,-0.128l-0.185,-0.003l0.15,-0.199l0.171,0.236Zm0.411,0.322l-0.555,0.16l0.002,-0.116l0.132,-0.066l-0.13,-0.071l0.001,-0.095l0.55,0.188Zm-0.414,0.291l-0.176,0.229l-0.147,-0.207l0.18,0.003l0.002,-0.129l0.141,0.104Zm-0.6,0.498l0.13,-0.039l-0.056,-0.18l0.258,0.088l-0.013,-0.002l-0.181,0.235l-0.138,-0.102Zm-1.579,-0.787l0.316,0.109l-0.154,0.108l0.154,0.219l-0.065,0.126l0.141,-0.018l0.157,0.223l0.152,-0.106l-0.006,0.396l-0.025,-0.148l-0.293,-0.1l0.066,-0.19l-0.587,0.169l0.368,-0.479l-0.214,-0.006l0.001,-0.296l-0.011,-0.007Zm1.544,0.798l-0.003,0.568l-0.338,-0.464l0.123,-0.037l0.1,0.1l0.027,-0.139l0.091,-0.028Zm-0.427,0.265l-0.261,-0.09l0.155,-0.205l0.054,0.176l0.103,-0.031l-0.051,0.15Z" style="fill:#e7ebee;stroke:#56dfdd;stroke-width:0.11px;stroke-linecap:round;stroke-miterlimit:1.5;"/><path d="M14.644,49.177l-0.433,0.304l-0.446,-0.637l-0.402,0.052l0.185,-0.36l-0.439,-0.626l0.441,-0.309l-1.443,-0.495l1.437,-0.441l-0.409,-0.308l0.466,-0.62l-0.18,-0.379l0.415,0.067l0.452,-0.602l0.422,0.318l0.026,-1.532l0.871,1.242l0.165,-0.484l0.719,0.247l0.313,-0.295l0.065,0.425l0.719,0.246l-0.167,0.484l1.451,-0.445l-0.92,1.224l0.527,0.008l-0.012,0.753l0.369,0.202l-0.376,0.189l-0.012,0.775l-0.511,-0.008l0.863,1.23l-1.443,-0.495l0.158,0.515l-0.73,0.224l-0.075,0.398l-0.286,-0.288l-0.744,0.229l-0.155,-0.504l-0.906,1.205l0.025,-1.509Zm1.383,-3.474l0.517,-0.687l-0.014,0.859l-0.109,-0.037l-0.032,-0.227l-0.165,0.159l-0.197,-0.067Zm1.023,0.412l-0.345,0.111l0.09,-0.26l-0.216,-0.074l0.211,-0.148l0.26,0.371Zm-1.525,-0.56l0.378,-0.116l0.076,0.247l-0.13,-0.044l-0.089,0.26l-0.235,-0.347Zm-1.482,1.534l0.18,-0.091l0.008,-0.468l0.308,0.005l-0.521,-0.744l0.872,0.3l-0.096,-0.311l0.441,-0.136l0.046,-0.24l0.026,0.026l-0.016,0.632l-0.219,-0.168l-0.24,0.325l-0.216,-0.034l0.092,0.202l-0.247,0.335l0.212,0.163l-0.63,0.204Zm2.194,-0.615l0.137,-0.1l0.139,0.205l0.127,-0.018l-0.06,0.117l0.137,0.201l-0.14,0.102l0.454,0.156l-0.455,0.147l0.128,0.098l-0.149,0.203l0.055,0.122l-0.13,-0.021l-0.145,0.197l-0.132,-0.102l-0.013,0.496l-0.271,-0.399l-0.054,0.157l-0.226,-0.078l-0.1,0.097l-0.019,-0.137l-0.226,-0.078l0.054,-0.157l-0.459,0.149l0.294,-0.4l-0.166,-0.001l0.006,-0.243l-0.116,-0.065l0.119,-0.062l0.007,-0.251l0.161,0.001l-0.269,-0.396l0.454,0.156l-0.048,-0.166l0.231,-0.075l0.025,-0.129l0.089,0.092l0.236,-0.076l0.047,0.163l0.29,-0.394l-0.012,0.489Zm1.219,0.219l-0.207,0.146l0.005,-0.196l-0.276,-0.002l0.226,-0.307l0.252,0.359Zm0.606,0.486l-0.829,0.254l0.005,-0.177l0.197,-0.104l-0.192,-0.106l0.004,-0.147l0.815,0.28Zm-0.621,0.452l-0.266,0.354l-0.215,-0.315l0.267,0.001l0.005,-0.197l0.209,0.157Zm-0.902,0.773l0.194,-0.063l-0.08,-0.274l0.383,0.131l-0.019,-0.003l-0.273,0.363l-0.205,-0.154Zm-2.337,-1.179l0.469,0.161l-0.232,0.168l0.227,0.333l-0.099,0.194l0.21,-0.029l0.23,0.339l0.228,-0.165l-0.016,0.606l-0.035,-0.226l-0.434,-0.149l0.101,-0.292l-0.877,0.269l0.556,-0.74l-0.319,-0.005l0.008,-0.454l-0.017,-0.01Zm2.286,1.196l-0.015,0.87l-0.495,-0.705l0.184,-0.059l0.147,0.152l0.042,-0.214l0.137,-0.044Zm-0.641,0.413l-0.387,-0.133l0.234,-0.318l0.078,0.27l0.154,-0.05l-0.079,0.231Z" style="fill:#e7ebee;stroke:#56dfdd;stroke-width:0.11px;stroke-linecap:round;stroke-miterlimit:1.5;"/><path d="M19.634,40.331l0.119,0.327l-0.481,0.193l-0.036,0.269l-0.197,-0.176l-0.473,0.19l-0.121,-0.334l-0.562,0.862l-0.033,-1.001l-0.266,0.219l-0.314,-0.398l-0.271,0.059l0.113,-0.259l-0.304,-0.386l0.274,-0.226l-0.968,-0.25l0.937,-0.376l-0.278,-0.182l0.28,-0.429l-0.134,-0.248l0.281,0.022l0.28,-0.429l0.278,0.182l-0.034,-1.01l0.62,0.785l0.096,-0.342l0.476,0.123l0.191,-0.208l0.056,0.273l0.49,0.126l-0.093,0.331l0.93,-0.373l-0.562,0.862l0.354,-0.024l0.017,0.509l0.24,0.109l-0.232,0.142l0.018,0.518l-0.347,0.024l0.61,0.772l-0.954,-0.246Zm-1.969,-1.43l-0.348,-0.441l0.543,0.141l-0.042,0.065l-0.15,-0.014l0.073,0.132l-0.076,0.117Zm0.437,-0.602l0.011,0.241l-0.149,-0.097l-0.085,0.129l-0.057,-0.16l0.28,-0.113Zm-0.617,0.906l-0.009,-0.264l0.17,-0.011l-0.05,0.077l0.149,0.098l-0.26,0.1Zm0.72,1.197l-0.027,-0.131l-0.296,-0.077l0.056,-0.199l-0.562,0.225l0.34,-0.521l-0.214,0.015l-0.01,-0.308l-0.145,-0.066l0.021,-0.013l0.398,0.107l-0.144,0.117l0.165,0.205l-0.058,0.135l0.144,-0.028l0.17,0.211l0.14,-0.113l0.022,0.441Zm-0.015,-1.519l-0.039,-0.105l0.153,-0.059l0.011,-0.085l0.064,0.057l0.151,-0.058l0.041,0.106l0.176,-0.271l0.016,0.318l0.084,-0.068l0.103,0.128l0.087,-0.018l-0.035,0.082l0.1,0.124l-0.087,0.071l0.313,0.084l-0.3,0.115l0.09,0.059l-0.088,0.135l0.044,0.079l-0.09,-0.008l-0.088,0.135l-0.091,-0.059l0.016,0.321l-0.203,-0.252l-0.03,0.108l-0.153,-0.042l-0.061,0.066l-0.019,-0.087l-0.158,-0.043l0.028,-0.104l-0.297,0.114l0.176,-0.272l-0.113,0.006l-0.008,-0.161l-0.078,-0.036l0.074,-0.044l-0.008,-0.165l0.111,-0.006l-0.2,-0.248l0.308,0.083Zm0.349,-0.759l0.056,0.157l-0.123,-0.033l-0.048,0.178l-0.156,-0.193l0.271,-0.109Zm0.412,-0.319l0.019,0.577l-0.111,-0.03l-0.032,-0.144l-0.101,0.108l-0.092,-0.025l0.317,-0.486Zm0.181,0.472l0.179,0.227l-0.237,0.091l0.047,-0.173l-0.124,-0.033l0.135,-0.112Zm0.336,0.704l-0.006,-0.135l-0.189,0.009l0.149,-0.228l-0.005,0.012l0.184,0.233l-0.133,0.109Zm-1.149,1.338l0.182,-0.28l0.067,0.176l0.251,-0.096l0.106,0.094l0.017,-0.141l0.255,-0.098l-0.066,-0.173l0.382,0.103l-0.149,-0.012l-0.169,0.259l-0.168,-0.109l0.02,0.61l-0.374,-0.474l-0.058,0.206l-0.288,-0.074l-0.008,0.009Zm1.151,-1.302l0.55,0.143l-0.533,0.213l-0.006,-0.128l0.122,-0.072l-0.128,-0.06l-0.005,-0.096Zm0.152,0.48l-0.151,0.231l-0.161,-0.201l0.184,-0.009l-0.005,-0.108l0.133,0.087Z" style="fill:#e7ebee;stroke:#56dfdd;stroke-width:0.11px;stroke-linecap:round;stroke-miterlimit:1.5;"/><path d="M55.243,46.909l0.349,-0.282l0.393,0.484l0.442,-0.088l-0.178,0.414l0.449,0.554l-0.299,0.242l1.287,0.345l-1.38,0.53l0.466,0.302l-0.349,0.538l0.173,0.308l-0.352,-0.032l-0.429,0.659l-0.377,-0.245l0.068,1.297l-0.873,-1.079l-0.144,0.536l-0.716,-0.191l-0.2,0.216l-0.065,-0.287l-0.715,-0.192l0.143,-0.537l-1.296,0.498l0.707,-1.089l-0.449,0.024l-0.041,-0.785l-0.321,-0.149l0.304,-0.181l-0.034,-0.639l0.555,-0.029l-0.93,-1.149l1.287,0.345l-0.138,-0.359l0.666,-0.256l0.053,-0.447l0.339,0.297l0.582,-0.223l0.161,0.42l0.786,-1.211l0.076,1.441Zm-1.043,3.186l-0.464,0.714l-0.044,-0.85l0.158,0.042l0.047,0.209l0.145,-0.158l0.158,0.043Zm-1.216,-0.221l0.566,-0.217l-0.066,0.246l0.196,0.052l-0.198,0.161l-0.235,-0.29l-0.265,0.052l0.002,-0.004Zm1.871,0.501l-0.001,0.005l-0.202,-0.178l-0.349,0.134l-0.091,-0.238l0.196,0.053l0.066,-0.247l0.381,0.471Zm-0.877,-0.974l-0.123,0.1l-0.148,-0.182l-0.119,0.024l0.048,-0.112l-0.145,-0.179l0.126,-0.102l-0.444,-0.119l0.423,-0.162l-0.13,-0.084l0.128,-0.196l-0.062,-0.111l0.126,0.012l0.123,-0.19l0.134,0.087l-0.024,-0.461l0.287,0.355l0.04,-0.149l0.221,0.06l0.088,-0.095l0.028,0.126l0.221,0.059l-0.04,0.149l0.427,-0.164l-0.251,0.387l0.158,-0.009l0.012,0.227l0.115,0.053l-0.108,0.064l0.012,0.234l-0.154,0.008l0.285,0.351l-0.444,-0.119l0.058,0.152l-0.215,0.082l-0.014,0.121l-0.092,-0.08l-0.219,0.084l-0.056,-0.148l-0.248,0.381l-0.024,-0.454Zm-1.158,-0.102l0.17,-0.138l0.007,0.14l0.262,-0.013l-0.199,0.307l-0.24,-0.296Zm2.387,0.457l0.078,0.203l-0.356,0.137l-0.019,-0.366l0.221,0.143l0.076,-0.117Zm-2.979,-0.809l0.736,-0.282l0.003,0.067l-0.18,0.107l0.19,0.088l0.012,0.224l-0.761,-0.204Zm3.249,0.392l0.496,0.612l-0.76,-0.204l0.122,-0.188l0.208,0.019l-0.102,-0.183l0.036,-0.056Zm-2.591,-1.396l0.315,0.39l-0.254,0.013l0.011,0.222l-0.182,-0.119l0.208,-0.321l-0.103,-0.185l0.005,-0Zm3.02,0.809l0.004,0.002l-0.182,0.109l0.02,0.383l-0.217,0.011l0.121,-0.186l-0.214,-0.139l0.468,-0.18Zm-2.751,-0.887l0.193,-0.297l0.133,0.086l-0.113,0.043l0.097,0.25l-0.31,-0.082Zm2.38,0.339l0.158,-0.008l0.018,0.354l-0.308,-0.083l0.208,-0.169l-0.076,-0.094Zm-1.966,-0.584l-0.036,-0.682l0.43,0.531l-0.064,0.024l-0.152,-0.133l-0.023,0.201l-0.155,0.059Zm1.641,0.183l0.637,-0.245l-0.371,0.573l-0.105,-0.129l0.08,-0.186l-0.198,0.04l-0.043,-0.053Zm-0.42,-0.367l0.368,0.099l-0.041,0.152l-0.108,-0.133l-0.205,0.166l-0.014,-0.284Zm-0.648,-0.173l0.368,0.098l-0.154,0.239l-0.094,-0.246l-0.161,0.062l0.041,-0.153Z" style="fill:#e7ebee;stroke:#56dfdd;stroke-width:0.11px;stroke-linecap:round;stroke-miterlimit:1.5;"/><path d="M42.365,55.696l-0.007,-0.501l0.686,0.02l0.225,-0.439l0.236,0.452l0.785,0.022l0.005,0.428l1.174,-0.839l-0.481,1.553l0.578,-0.175l0.227,0.685l0.384,0.078l-0.267,0.275l0.278,0.841l-0.468,0.142l1.166,0.883l-1.526,-0.043l0.365,0.511l-0.652,0.467l0.05,0.326l-0.292,-0.153l-0.652,0.467l-0.366,-0.511l-0.452,1.458l-0.46,-1.389l-0.285,0.397l-0.706,-0.535l-0.347,0.165l0.051,-0.389l-0.576,-0.436l0.353,-0.491l-1.626,-0.046l1.174,-0.839l-0.404,-0.144l0.233,-0.75l-0.351,-0.37l0.487,-0.071l0.203,-0.655l0.472,0.169l-0.511,-1.545l1.297,0.982Zm2.043,3.196l0.301,0.911l-0.765,-0.579l0.144,-0.104l0.213,0.112l-0.037,-0.237l0.144,-0.103Zm-1.018,0.869l0.197,-0.637l0.168,0.235l0.178,-0.128l0.004,0.284l-0.41,-0.011l-0.135,0.262l-0.002,-0.005Zm1.705,-1.22l0.004,0.004l-0.292,0.042l-0.121,0.392l-0.267,-0.095l0.178,-0.128l-0.167,-0.234l0.665,0.019Zm-1.438,0.035l0.003,0.177l-0.258,-0.007l-0.061,0.118l-0.064,-0.122l-0.253,-0.007l-0.002,-0.181l-0.405,0.29l0.147,-0.476l-0.16,0.049l-0.083,-0.25l-0.137,-0.028l0.096,-0.098l-0.081,-0.243l0.166,-0.05l-0.414,-0.314l0.502,0.015l-0.101,-0.142l0.201,-0.144l-0.022,-0.144l0.128,0.068l0.202,-0.144l0.101,0.142l0.149,-0.481l0.163,0.494l0.101,-0.141l0.203,0.155l0.125,-0.059l-0.019,0.139l0.21,0.159l-0.097,0.136l0.497,0.014l-0.405,0.29l0.171,0.06l-0.075,0.242l0.095,0.1l-0.132,0.019l-0.076,0.247l-0.167,-0.06l0.16,0.486l-0.408,-0.309Zm-0.876,0.906l-0.003,-0.243l0.126,0.096l0.166,-0.233l0.13,0.392l-0.419,-0.012Zm2.019,-1.689l0.228,0.082l-0.124,0.4l-0.329,-0.249l0.274,-0.083l-0.049,-0.15Zm-2.725,1.936l0.256,-0.828l0.06,0.046l-0.03,0.23l0.206,-0.098l0.202,0.153l-0.694,0.497Zm2.549,-2.467l0.865,0.024l-0.693,0.496l-0.08,-0.24l0.159,-0.163l-0.228,-0.046l-0.023,-0.071Zm-2.969,1.181l0.551,0.016l-0.162,0.225l0.2,0.151l-0.227,0.069l-0.136,-0.411l-0.23,-0.046l0.004,-0.004Zm2.753,-1.97l0.005,-0.002l-0.03,0.233l0.344,0.261l-0.138,0.192l-0.078,-0.238l-0.266,0.081l0.163,-0.527Zm-2.638,1.685l-0.125,-0.379l0.165,-0.05l-0.04,0.127l0.282,0.1l-0.282,0.202Zm1.912,-1.769l0.101,-0.14l0.318,0.241l-0.282,0.202l-0.004,-0.299l-0.133,-0.004Zm-1.842,1.241l-0.613,-0.465l0.751,0.021l-0.023,0.072l-0.218,0.032l0.157,0.166l-0.054,0.174Zm1.275,-1.257l0.222,-0.717l0.242,0.73l-0.183,-0.005l-0.106,-0.202l-0.1,0.196l-0.075,-0.002Zm-0.603,0.09l0.336,-0.24l0.104,0.145l-0.189,-0.005l0.004,0.293l-0.255,-0.193Zm-0.59,0.422l0.335,-0.24l0.101,0.304l-0.276,-0.099l-0.056,0.181l-0.104,-0.146Z" style="fill:#e7ebee;stroke:#56dfdd;stroke-width:0.11px;stroke-linecap:round;stroke-miterlimit:1.5;"/><path d="M20.278,55.874l0.35,-0.283l0.392,0.485l0.442,-0.089l-0.178,0.415l0.449,0.554l-0.299,0.242l1.287,0.345l-1.38,0.529l0.466,0.303l-0.349,0.537l0.174,0.309l-0.353,-0.033l-0.428,0.66l-0.377,-0.245l0.068,1.296l-0.874,-1.078l-0.144,0.536l-0.716,-0.192l-0.199,0.216l-0.065,-0.287l-0.716,-0.192l0.144,-0.536l-1.296,0.497l0.707,-1.088l-0.449,0.023l-0.042,-0.785l-0.321,-0.148l0.304,-0.181l-0.033,-0.64l0.554,-0.029l-0.93,-1.148l1.287,0.344l-0.137,-0.358l0.666,-0.256l0.052,-0.448l0.339,0.298l0.582,-0.224l0.161,0.42l0.787,-1.211l0.075,1.442Zm-1.043,3.185l-0.464,0.715l-0.044,-0.851l0.158,0.042l0.047,0.209l0.145,-0.157l0.158,0.042Zm-1.216,-0.221l0.566,-0.217l-0.066,0.246l0.196,0.053l-0.198,0.16l-0.235,-0.29l-0.264,0.053l0.001,-0.005Zm1.871,0.502l0,0.004l-0.203,-0.177l-0.348,0.133l-0.092,-0.237l0.196,0.052l0.066,-0.246l0.381,0.471Zm-0.876,-0.975l-0.124,0.1l-0.147,-0.182l-0.12,0.024l0.048,-0.112l-0.145,-0.179l0.126,-0.102l-0.444,-0.119l0.423,-0.162l-0.129,-0.084l0.127,-0.196l-0.062,-0.11l0.126,0.012l0.124,-0.19l0.133,0.086l-0.024,-0.46l0.287,0.355l0.04,-0.149l0.221,0.059l0.088,-0.095l0.029,0.126l0.22,0.06l-0.039,0.148l0.426,-0.163l-0.251,0.386l0.159,-0.008l0.012,0.226l0.115,0.053l-0.109,0.065l0.012,0.233l-0.154,0.008l0.285,0.352l-0.444,-0.119l0.058,0.151l-0.214,0.083l-0.015,0.121l-0.091,-0.08l-0.219,0.084l-0.057,-0.149l-0.248,0.381l-0.023,-0.454Zm-1.159,-0.102l0.17,-0.137l0.007,0.14l0.263,-0.014l-0.2,0.307l-0.24,-0.296Zm2.387,0.457l0.078,0.204l-0.356,0.136l-0.019,-0.366l0.221,0.144l0.076,-0.118Zm-2.978,-0.808l0.735,-0.282l0.003,0.067l-0.18,0.107l0.191,0.087l0.011,0.225l-0.76,-0.204Zm3.249,0.392l0.495,0.611l-0.76,-0.203l0.122,-0.189l0.209,0.019l-0.103,-0.182l0.037,-0.056Zm-2.592,-1.396l0.315,0.389l-0.254,0.014l0.012,0.222l-0.183,-0.119l0.209,-0.322l-0.104,-0.185l0.005,0.001Zm3.02,0.809l0.004,0.002l-0.182,0.108l0.02,0.383l-0.217,0.012l0.121,-0.187l-0.214,-0.138l0.468,-0.18Zm-2.75,-0.888l0.192,-0.297l0.133,0.086l-0.112,0.044l0.096,0.25l-0.309,-0.083Zm2.379,0.34l0.158,-0.009l0.019,0.354l-0.309,-0.083l0.208,-0.168l-0.076,-0.094Zm-1.966,-0.584l-0.035,-0.682l0.429,0.53l-0.063,0.025l-0.152,-0.134l-0.024,0.201l-0.155,0.06Zm1.641,0.182l0.638,-0.244l-0.372,0.572l-0.104,-0.129l0.079,-0.185l-0.198,0.039l-0.043,-0.053Zm-0.42,-0.366l0.368,0.098l-0.041,0.153l-0.108,-0.133l-0.204,0.166l-0.015,-0.284Zm-0.648,-0.174l0.369,0.099l-0.155,0.238l-0.094,-0.245l-0.16,0.061l0.04,-0.153Z" style="fill:#e7ebee;stroke:#56dfdd;stroke-width:0.11px;stroke-linecap:round;stroke-miterlimit:1.5;"/><path d="M30.497,41.07l-0.13,0.014l0.03,0.295l-0.104,0.084l0.118,0.062l0.025,0.246l0.158,-0.016l-0.222,0.491l0.395,-0.21l-0.024,0.158l0.207,0.06l0.042,0.172l0.089,-0.134l0.206,0.06l0.024,-0.16l0.3,0.414l-0.057,-0.572l0.138,0.102l0.095,-0.212l0.128,0.01l-0.07,-0.136l0.114,-0.252l-0.114,-0.084l0.374,-0.2l-0.445,-0.129l0.129,-0.143l-0.149,-0.205l0.033,-0.118l-0.098,0.029l-0.165,-0.229l-0.116,0.129l-0.052,-0.524l-0.205,0.451l-0.067,-0.183l-0.219,0.116l-0.08,-0.08l-0.005,0.125l-0.197,0.106l0.074,0.202l-0.443,-0.129l0.283,0.39Zm0.97,-0.07l-0.081,0.179l0.066,-0.007l0.01,0.103l0.049,0.025l-0.043,0.035l0.012,0.123l-0.054,0.006l0.118,0.162l-0.184,-0.054l0.031,0.084l-0.082,0.044l-0.002,0.052l-0.034,-0.033l-0.091,0.048l-0.028,-0.076l-0.066,0.146l0.012,0.049l0.038,-0.058l0.109,0.032l0.015,-0.095l0.154,0.213l-0.028,-0.277l0.066,0.048l0.054,-0.119l0.063,0.005l-0.035,-0.068l0.054,-0.119l-0.066,-0.048l0.202,-0.108l-0.221,-0.064l0.056,-0.063l-0.075,-0.105l0.02,-0.072l-0.039,0.012Zm-0.189,0.408l0.032,-0.004l-0.006,-0.059l0.02,-0.016l-0.023,-0.012l-0.006,-0.058l-0.033,0.003l0.045,-0.099l-0.083,0.044l0.006,-0.038l-0.047,-0.014l-0.007,-0.031l-0.016,0.025l-0.045,-0.013l-0.007,0.039l-0.064,-0.089l0.012,0.116l-0.027,-0.021l-0.023,0.05l-0.026,-0.002l0.014,0.028l-0.022,0.049l0.027,0.021l-0.084,0.044l0.092,0.027l-0.023,0.026l0.031,0.044l-0.008,0.03l0.025,-0.008l0.032,0.045l0.023,-0.025l0.012,0.114l0.045,-0.1l0.014,0.038l0.042,-0.022l0.02,0.019l0.001,-0.03l0.043,-0.023l-0.014,-0.038l0.091,0.027l-0.063,-0.087Zm-0.285,-0.541l0.095,0.13l0.01,-0.066l0.086,0.025l0.037,-0.056l0.017,0.072l0.086,0.025l-0.01,0.065l0.125,-0.066l-0.071,-0.098l-0.055,0.061l-0.028,-0.274l-0.108,0.239l-0.034,-0.091l-0.101,0.054l-0.048,-0.047l-0.001,0.027Zm-0.01,0.824l-0.013,0.088l0.092,0.027l-0.015,-0.145l-0.047,0.053l-0.017,-0.023Zm-0.094,-0.13l-0.105,0.233l0.197,-0.105l-0.05,-0.07l-0.041,0.012l0.014,-0.049l-0.015,-0.021Zm-0.145,-0.167l-0.001,0.001l0.056,0.029l0.014,0.139l0.072,-0.007l-0.043,-0.059l0.053,-0.059l-0.151,-0.044Zm0.229,-0.47l-0.085,0.045l0.029,0.079l0.013,-0.027l0.057,0.042l-0.014,-0.139Zm-0.127,0.282l-0.068,0.007l0.013,0.128l0.075,-0.04l-0.047,-0.035l0.027,-0.06Zm-0.143,-0.211l0.147,0.203l0.016,-0.037l-0.029,-0.056l0.053,0.004l0.024,-0.053l-0.211,-0.061Z" style="fill:#e7ebee;stroke:#56dfdd;stroke-width:0.11px;stroke-linecap:round;stroke-miterlimit:1.5;"/><path d="M38.146,35.802l-0.13,0.014l0.03,0.295l-0.104,0.084l0.118,0.062l0.025,0.246l0.159,-0.016l-0.223,0.491l0.395,-0.21l-0.024,0.158l0.207,0.06l0.042,0.172l0.089,-0.134l0.206,0.06l0.024,-0.16l0.301,0.414l-0.058,-0.572l0.138,0.102l0.096,-0.212l0.128,0.01l-0.071,-0.136l0.114,-0.252l-0.114,-0.084l0.374,-0.2l-0.445,-0.129l0.129,-0.143l-0.149,-0.205l0.034,-0.118l-0.099,0.029l-0.165,-0.229l-0.115,0.129l-0.053,-0.524l-0.204,0.451l-0.068,-0.183l-0.218,0.116l-0.081,-0.08l-0.005,0.125l-0.197,0.106l0.075,0.202l-0.444,-0.129l0.283,0.39Zm0.97,-0.07l-0.081,0.179l0.066,-0.007l0.01,0.103l0.049,0.025l-0.043,0.035l0.013,0.123l-0.055,0.006l0.118,0.162l-0.184,-0.054l0.031,0.084l-0.082,0.044l-0.002,0.052l-0.034,-0.033l-0.09,0.048l-0.029,-0.076l-0.066,0.146l0.012,0.049l0.038,-0.058l0.109,0.032l0.015,-0.095l0.154,0.213l-0.028,-0.277l0.066,0.048l0.054,-0.119l0.063,0.005l-0.035,-0.068l0.054,-0.119l-0.066,-0.048l0.202,-0.108l-0.221,-0.064l0.057,-0.063l-0.076,-0.105l0.02,-0.072l-0.039,0.012Zm-0.189,0.408l0.032,-0.004l-0.006,-0.059l0.02,-0.016l-0.023,-0.012l-0.006,-0.058l-0.033,0.003l0.045,-0.099l-0.083,0.044l0.006,-0.038l-0.047,-0.014l-0.007,-0.031l-0.016,0.025l-0.045,-0.014l-0.006,0.04l-0.064,-0.089l0.011,0.115l-0.027,-0.02l-0.023,0.05l-0.026,-0.002l0.015,0.028l-0.023,0.049l0.028,0.021l-0.084,0.044l0.092,0.027l-0.024,0.026l0.032,0.044l-0.009,0.03l0.025,-0.008l0.032,0.045l0.023,-0.025l0.012,0.114l0.045,-0.1l0.014,0.038l0.042,-0.022l0.02,0.019l0.001,-0.031l0.043,-0.022l-0.014,-0.038l0.091,0.027l-0.063,-0.087Zm-0.285,-0.541l0.095,0.13l0.01,-0.066l0.086,0.025l0.037,-0.056l0.017,0.072l0.086,0.025l-0.01,0.065l0.125,-0.066l-0.071,-0.098l-0.055,0.061l-0.027,-0.274l-0.109,0.239l-0.033,-0.091l-0.102,0.054l-0.048,-0.047l-0.001,0.027Zm-0.01,0.824l-0.013,0.088l0.092,0.027l-0.014,-0.145l-0.048,0.053l-0.017,-0.023Zm-0.094,-0.13l-0.105,0.233l0.198,-0.105l-0.051,-0.07l-0.041,0.012l0.014,-0.049l-0.015,-0.021Zm-0.144,-0.167l-0.002,0.001l0.056,0.029l0.014,0.139l0.072,-0.007l-0.043,-0.059l0.054,-0.06l-0.151,-0.043Zm0.228,-0.47l-0.085,0.045l0.029,0.079l0.013,-0.027l0.057,0.042l-0.014,-0.139Zm-0.127,0.282l-0.068,0.007l0.013,0.128l0.075,-0.04l-0.047,-0.035l0.027,-0.06Zm-0.143,-0.211l0.147,0.203l0.016,-0.037l-0.029,-0.056l0.053,0.004l0.024,-0.053l-0.211,-0.061Z" style="fill:#e7ebee;stroke:#56dfdd;stroke-width:0.11px;stroke-linecap:round;stroke-miterlimit:1.5;"/><path d="M38.972,32.072l-0.162,0.018l0.03,0.324l-0.13,0.096l0.146,0.064l0.025,0.27l0.198,-0.023l-0.287,0.547l0.495,-0.243l-0.033,0.174l0.256,0.06l0.048,0.188l0.114,-0.15l0.255,0.06l0.034,-0.176l0.364,0.446l-0.06,-0.628l0.17,0.108l0.123,-0.234l0.159,0.006l-0.085,-0.147l0.147,-0.281l-0.14,-0.089l0.47,-0.23l-0.551,-0.129l0.163,-0.161l-0.18,-0.22l0.043,-0.131l-0.122,0.034l-0.201,-0.246l-0.146,0.145l-0.055,-0.575l-0.263,0.502l-0.081,-0.199l-0.273,0.134l-0.099,-0.086l-0.008,0.138l-0.248,0.122l0.089,0.22l-0.549,-0.129l0.344,0.421Zm1.207,-0.106l-0.105,0.199l0.082,-0.009l0.011,0.112l0.061,0.027l-0.055,0.04l0.013,0.134l-0.067,0.008l0.143,0.174l-0.228,-0.053l0.037,0.092l-0.103,0.05l-0.004,0.057l-0.041,-0.035l-0.114,0.056l-0.033,-0.083l-0.085,0.163l0.013,0.053l0.049,-0.065l0.135,0.031l0.02,-0.104l0.187,0.229l-0.029,-0.303l0.081,0.051l0.07,-0.133l0.078,0.004l-0.042,-0.073l0.07,-0.133l-0.081,-0.051l0.253,-0.125l-0.274,-0.064l0.072,-0.071l-0.092,-0.112l0.027,-0.08l-0.049,0.014Zm-0.244,0.454l0.04,-0.005l-0.006,-0.065l0.025,-0.018l-0.028,-0.013l-0.006,-0.064l-0.041,0.005l0.058,-0.11l-0.104,0.051l0.008,-0.042l-0.058,-0.014l-0.008,-0.034l-0.021,0.027l-0.056,-0.013l-0.008,0.044l-0.078,-0.096l0.012,0.127l-0.034,-0.022l-0.029,0.055l-0.032,-0.001l0.017,0.03l-0.029,0.055l0.034,0.022l-0.105,0.051l0.114,0.027l-0.03,0.03l0.038,0.046l-0.011,0.033l0.031,-0.008l0.039,0.048l0.029,-0.029l0.012,0.125l0.058,-0.11l0.017,0.041l0.053,-0.026l0.024,0.021l0.002,-0.034l0.054,-0.026l-0.016,-0.041l0.112,0.027l-0.077,-0.094Zm-0.342,-0.586l0.115,0.14l0.014,-0.073l0.106,0.025l0.047,-0.063l0.02,0.079l0.107,0.025l-0.014,0.072l0.156,-0.077l-0.086,-0.105l-0.069,0.069l-0.029,-0.301l-0.139,0.266l-0.041,-0.099l-0.127,0.063l-0.058,-0.051l-0.002,0.03Zm-0.03,0.906l-0.018,0.097l0.114,0.027l-0.015,-0.159l-0.061,0.06l-0.02,-0.025Zm-0.114,-0.14l-0.136,0.259l0.248,-0.121l-0.061,-0.076l-0.051,0.015l0.018,-0.055l-0.018,-0.022Zm-0.176,-0.18l-0.002,0.001l0.069,0.03l0.015,0.153l0.089,-0.01l-0.052,-0.063l0.067,-0.067l-0.186,-0.044Zm0.294,-0.523l-0.107,0.052l0.035,0.086l0.016,-0.03l0.07,0.045l-0.014,-0.153Zm-0.164,0.313l-0.085,0.01l0.013,0.141l0.095,-0.047l-0.058,-0.037l0.035,-0.067Zm-0.174,-0.227l0.179,0.218l0.021,-0.04l-0.035,-0.061l0.066,0.002l0.03,-0.058l-0.261,-0.061Z" style="fill:#e7ebee;stroke:#56dfdd;stroke-width:0.11px;stroke-linecap:round;stroke-miterlimit:1.5;"/><path d="M26.731,35.683l-0.162,0.019l0.031,0.323l-0.131,0.096l0.146,0.064l0.026,0.27l0.197,-0.023l-0.287,0.547l0.496,-0.243l-0.034,0.174l0.257,0.06l0.048,0.189l0.113,-0.151l0.255,0.06l0.034,-0.176l0.365,0.446l-0.06,-0.627l0.17,0.108l0.123,-0.235l0.159,0.007l-0.085,-0.148l0.147,-0.28l-0.141,-0.089l0.47,-0.231l-0.55,-0.129l0.162,-0.161l-0.18,-0.22l0.044,-0.131l-0.123,0.034l-0.201,-0.246l-0.146,0.145l-0.054,-0.575l-0.264,0.502l-0.08,-0.199l-0.274,0.134l-0.099,-0.086l-0.008,0.138l-0.248,0.122l0.089,0.22l-0.549,-0.129l0.344,0.421Zm1.208,-0.106l-0.105,0.2l0.082,-0.01l0.011,0.112l0.06,0.027l-0.054,0.04l0.013,0.134l-0.068,0.008l0.143,0.175l-0.228,-0.054l0.037,0.092l-0.103,0.05l-0.003,0.058l-0.041,-0.036l-0.114,0.056l-0.034,-0.083l-0.085,0.163l0.014,0.053l0.049,-0.065l0.134,0.031l0.02,-0.104l0.188,0.229l-0.029,-0.303l0.081,0.051l0.069,-0.132l0.079,0.003l-0.042,-0.073l0.069,-0.133l-0.081,-0.051l0.254,-0.124l-0.274,-0.064l0.072,-0.072l-0.092,-0.112l0.026,-0.08l-0.048,0.014Zm-0.244,0.454l0.04,-0.005l-0.007,-0.064l0.026,-0.019l-0.029,-0.013l-0.006,-0.063l-0.04,0.004l0.058,-0.11l-0.105,0.051l0.008,-0.042l-0.057,-0.014l-0.009,-0.033l-0.02,0.027l-0.056,-0.013l-0.009,0.043l-0.078,-0.095l0.012,0.126l-0.033,-0.022l-0.029,0.055l-0.033,-0.001l0.018,0.03l-0.029,0.056l0.034,0.021l-0.106,0.052l0.114,0.026l-0.03,0.03l0.038,0.047l-0.011,0.033l0.031,-0.009l0.04,0.048l0.029,-0.029l0.012,0.126l0.058,-0.111l0.016,0.041l0.053,-0.026l0.024,0.021l0.002,-0.034l0.055,-0.026l-0.017,-0.041l0.112,0.027l-0.076,-0.094Zm-0.343,-0.586l0.115,0.14l0.014,-0.073l0.106,0.025l0.048,-0.062l0.02,0.078l0.106,0.025l-0.014,0.072l0.157,-0.077l-0.086,-0.105l-0.07,0.069l-0.028,-0.301l-0.14,0.266l-0.04,-0.099l-0.128,0.063l-0.058,-0.051l-0.002,0.03Zm-0.029,0.906l-0.019,0.097l0.114,0.027l-0.015,-0.159l-0.06,0.06l-0.02,-0.025Zm-0.115,-0.14l-0.136,0.259l0.249,-0.121l-0.062,-0.075l-0.051,0.014l0.018,-0.055l-0.018,-0.022Zm-0.176,-0.18l-0.001,0.001l0.068,0.031l0.015,0.153l0.089,-0.011l-0.052,-0.063l0.068,-0.067l-0.187,-0.044Zm0.294,-0.523l-0.107,0.052l0.035,0.087l0.016,-0.031l0.071,0.045l-0.015,-0.153Zm-0.164,0.313l-0.085,0.01l0.014,0.141l0.094,-0.046l-0.058,-0.037l0.035,-0.068Zm-0.173,-0.227l0.178,0.218l0.021,-0.04l-0.035,-0.061l0.066,0.003l0.031,-0.059l-0.261,-0.061Z" style="fill:#e7ebee;stroke:#56dfdd;stroke-width:0.11px;stroke-linecap:round;stroke-miterlimit:1.5;"/><path d="M41.327,49.566l0.153,0.436l0.584,-0.246l0.244,0.236l0.038,-0.356l0.574,-0.243l-0.155,-0.444l1.185,0.349l-0.76,-1.034l0.41,-0.024l-0.032,-0.686l0.29,-0.19l-0.307,-0.155l-0.031,-0.666l-0.425,0.025l0.671,-1.137l-1.139,0.481l0.107,-0.437l-0.591,-0.174l-0.076,-0.372l-0.234,0.28l-0.59,-0.174l-0.106,0.437l-0.768,-1.044l0.064,1.354l-0.356,-0.254l-0.329,0.558l-0.337,-0.034l0.165,0.325l-0.339,0.576l0.344,0.246l-1.128,0.477l1.185,0.35l-0.336,0.3l0.387,0.525l-0.129,0.33l0.32,-0.07l0.393,0.536l0.33,-0.294l0.064,1.333l0.66,-1.12Zm0.637,-3.236l-0.036,-0.76l-0.376,0.638l0.089,0.026l0.123,-0.151l0.039,0.199l0.161,0.048Zm-0.867,-0.204l0.18,0.253l0.057,-0.235l0.177,0.052l-0.074,-0.213l-0.34,0.143Zm1.269,0.344l-0.201,-0.272l-0.161,0.144l0.106,0.031l-0.057,0.235l0.313,-0.138Zm0.3,1.859l-0.079,-0.156l0.205,-0.348l-0.208,-0.149l0.681,-0.288l-0.716,-0.211l0.203,-0.181l-0.233,-0.318l0.078,-0.199l-0.03,0.006l-0.272,0.473l0.221,-0.016l0.014,0.357l0.159,0.082l-0.152,0.104l0.015,0.368l-0.215,0.014l0.329,0.462Zm-1.188,-1.536l-0.047,-0.142l-0.184,0.082l-0.077,-0.076l-0.013,0.116l-0.181,0.08l0.048,0.144l-0.373,-0.11l0.237,0.333l-0.129,0.009l0.008,0.222l-0.092,0.062l0.097,0.05l0.008,0.216l0.134,-0.009l-0.214,0.37l0.36,-0.159l-0.035,0.142l0.186,0.055l0.023,0.12l0.075,-0.092l0.185,0.055l0.035,-0.142l0.24,0.336l-0.018,-0.438l0.112,0.081l0.105,-0.182l0.106,0.01l-0.051,-0.105l0.108,-0.187l-0.108,-0.079l0.357,-0.158l-0.373,-0.11l0.107,-0.098l-0.121,-0.169l0.042,-0.108l-0.101,0.024l-0.123,-0.173l-0.105,0.097l-0.017,-0.432l-0.211,0.365Zm-0.912,-0.442l0.073,0.209l0.085,-0.146l0.184,0.134l-0.013,-0.336l-0.329,0.139Zm-0.622,0.057l0.438,0.596l0.077,-0.132l-0.085,-0.174l0.176,0.017l0.063,-0.109l-0.669,-0.198Zm0.211,0.639l0.019,0.392l0.285,-0.126l-0.179,-0.131l0.085,-0.147l-0.21,0.012Zm0.255,1.014l-0.102,-0.142l0.177,-0.163l-0.314,-0.092l0.014,0.007l0.019,0.402l0.206,-0.012Zm2.088,0.289l-0.385,-0.113l0.079,0.238l-0.3,0.132l-0.021,0.192l-0.127,-0.126l-0.306,0.135l-0.078,-0.234l-0.261,0.454l0.124,-0.149l0.357,0.105l0.064,-0.264l0.464,0.631l-0.039,-0.818l0.215,0.153l0.199,-0.337l0.015,0.001Zm-2.061,-0.251l-0.382,0.646l0.647,-0.273l-0.095,-0.135l-0.167,0.039l0.068,-0.177l-0.071,-0.1Zm0.242,0.619l0.318,0.094l-0.014,-0.348l-0.173,0.159l-0.08,-0.113l-0.051,0.208Z" style="fill:#e7ebee;stroke:#56dfdd;stroke-width:0.11px;stroke-linecap:round;stroke-miterlimit:1.5;"/><path d="M30.032,58.181l0.505,-0.271l-0.394,-0.783l0.247,-0.373l-0.439,-0.006l-0.388,-0.77l-0.515,0.276l0.232,-1.702l-1.132,1.2l-0.096,-0.571l-0.828,0.136l-0.278,-0.38l-0.139,0.449l-0.803,0.133l0.098,0.59l-1.49,-0.786l0.77,1.527l-0.548,-0.091l-0.116,0.848l-0.438,0.156l0.377,0.29l-0.115,0.848l0.549,0.09l-1.144,1.212l1.634,-0.27l-0.251,0.531l0.732,0.386l0.014,0.476l0.367,-0.275l0.755,0.398l0.243,-0.514l0.763,1.513l0.232,-1.702l0.419,0.43l0.576,-0.61l0.421,0.136l-0.137,-0.437l0.586,-0.622l-0.41,-0.422l1.609,-0.265l-1.468,-0.775Zm-4.035,-0.46l-0.917,0.151l0.837,0.442l0.017,-0.129l-0.203,-0.152l0.235,-0.08l0.031,-0.232Zm-0.106,1.239l0.278,-0.285l-0.295,-0.049l0.035,-0.254l-0.247,0.132l0.229,0.456Zm0.211,-1.819l-0.298,0.316l0.201,0.207l0.021,-0.153l0.295,0.049l-0.219,-0.419Zm2.209,-0.666l-0.176,0.131l-0.456,-0.24l-0.147,0.31l-0.461,-0.914l-0.14,1.029l-0.253,-0.26l-0.348,0.369l-0.254,-0.083l0.012,0.04l0.618,0.319l-0.054,-0.308l0.431,-0.067l0.074,-0.233l0.15,0.199l0.445,-0.069l0.052,0.297l0.507,-0.52Zm-1.672,1.863l-0.164,0.085l0.129,0.247l-0.08,0.117l0.143,0.003l0.127,0.243l0.167,-0.086l-0.073,0.535l0.366,-0.376l0.031,0.18l0.269,-0.041l0.091,0.12l0.044,-0.141l0.261,-0.041l-0.033,-0.186l0.485,0.25l-0.252,-0.482l0.178,0.03l0.037,-0.267l0.142,-0.048l-0.123,-0.093l0.036,-0.266l-0.178,-0.03l0.369,-0.379l-0.53,0.082l0.081,-0.167l-0.238,-0.122l-0.005,-0.15l-0.119,0.086l-0.246,-0.127l-0.078,0.162l-0.25,-0.478l-0.073,0.536l-0.137,-0.136l-0.185,0.191l-0.138,-0.044l0.046,0.138l-0.19,0.195l0.134,0.133l-0.522,0.081l0.478,0.246Zm-0.389,1.334l0.243,-0.13l-0.192,-0.099l0.134,-0.276l-0.407,0.063l0.222,0.442Zm0.171,0.861l0.653,-0.691l-0.173,-0.09l-0.197,0.142l-0.009,-0.248l-0.143,-0.073l-0.131,0.96Zm0.742,-0.38l0.473,-0.078l-0.199,-0.381l-0.13,0.268l-0.192,-0.1l0.048,0.291Zm1.19,-0.49l-0.156,0.161l-0.226,-0.226l-0.062,0.451l0.007,-0.02l0.485,-0.08l-0.048,-0.286Zm0.012,-2.957l-0.076,0.553l0.277,-0.142l0.21,0.402l0.236,0.005l-0.133,0.194l0.214,0.409l-0.271,0.139l0.593,0.306l-0.201,-0.154l0.07,-0.512l-0.331,-0.055l0.69,-0.732l-0.987,0.163l0.152,-0.321l-0.443,-0.233l0,-0.022Zm0.029,2.915l0.848,0.447l-0.438,-0.868l-0.147,0.151l0.074,0.229l-0.226,-0.073l-0.111,0.114Zm0.714,-0.421l0.062,-0.457l-0.421,0.065l0.222,0.221l-0.125,0.127l0.262,0.044Z" style="fill:#e7ebee;stroke:#56dfdd;stroke-width:0.11px;stroke-linecap:round;stroke-miterlimit:1.5;"/><path d="M31.014,37.325l-0.224,0.031l0.04,0.505l-0.181,0.151l0.201,0.099l0.033,0.422l0.272,-0.038l-0.4,0.858l0.686,-0.385l-0.048,0.272l0.353,0.091l0.065,0.294l0.158,-0.236l0.351,0.09l0.048,-0.275l0.499,0.693l-0.078,-0.98l0.234,0.167l0.172,-0.369l0.219,0.009l-0.116,-0.23l0.205,-0.44l-0.193,-0.137l0.65,-0.366l-0.758,-0.195l0.225,-0.254l-0.247,-0.342l0.062,-0.205l-0.17,0.055l-0.275,-0.382l-0.202,0.227l-0.071,-0.897l-0.367,0.787l-0.11,-0.311l-0.378,0.213l-0.135,-0.132l-0.013,0.215l-0.343,0.193l0.121,0.343l-0.756,-0.195l0.471,0.654Zm1.666,-0.179l-0.146,0.313l0.113,-0.016l0.014,0.175l0.083,0.041l-0.075,0.063l0.017,0.21l-0.093,0.013l0.195,0.272l-0.314,-0.081l0.05,0.142l-0.142,0.08l-0.005,0.09l-0.057,-0.055l-0.157,0.088l-0.045,-0.129l-0.12,0.256l0.019,0.083l0.068,-0.103l0.185,0.048l0.029,-0.163l0.257,0.356l-0.038,-0.474l0.111,0.079l0.097,-0.208l0.108,0.005l-0.057,-0.114l0.097,-0.208l-0.111,-0.079l0.35,-0.198l-0.377,-0.097l0.1,-0.112l-0.126,-0.175l0.037,-0.124l-0.067,0.022Zm-0.34,0.712l0.055,-0.008l-0.008,-0.101l0.035,-0.03l-0.039,-0.019l-0.008,-0.099l-0.056,0.007l0.081,-0.173l-0.145,0.081l0.012,-0.065l-0.079,-0.021l-0.012,-0.053l-0.028,0.043l-0.078,-0.02l-0.011,0.068l-0.107,-0.148l0.016,0.197l-0.047,-0.033l-0.04,0.086l-0.045,-0.002l0.024,0.048l-0.04,0.086l0.046,0.033l-0.146,0.082l0.157,0.04l-0.041,0.047l0.052,0.073l-0.016,0.051l0.043,-0.013l0.054,0.074l0.04,-0.045l0.016,0.196l0.081,-0.174l0.022,0.064l0.074,-0.041l0.033,0.033l0.003,-0.053l0.075,-0.042l-0.023,-0.063l0.155,0.04l-0.105,-0.146Zm-0.467,-0.913l0.157,0.219l0.02,-0.114l0.146,0.037l0.065,-0.098l0.027,0.122l0.147,0.038l-0.02,0.113l0.217,-0.122l-0.118,-0.163l-0.096,0.108l-0.037,-0.47l-0.195,0.418l-0.054,-0.155l-0.177,0.1l-0.08,-0.079l-0.002,0.046Zm-0.049,1.418l-0.026,0.151l0.157,0.041l-0.019,-0.249l-0.084,0.095l-0.028,-0.038Zm-0.157,-0.218l-0.189,0.407l0.343,-0.193l-0.084,-0.117l-0.07,0.023l0.025,-0.085l-0.025,-0.035Zm-0.241,-0.279l-0.002,0.002l0.095,0.046l0.018,0.239l0.124,-0.017l-0.071,-0.099l0.093,-0.105l-0.257,-0.066Zm0.41,-0.821l-0.148,0.083l0.047,0.134l0.023,-0.048l0.097,0.069l-0.019,-0.238Zm-0.228,0.491l-0.118,0.017l0.017,0.22l0.131,-0.074l-0.08,-0.057l0.05,-0.106Zm-0.238,-0.353l0.244,0.339l0.03,-0.063l-0.049,-0.096l0.091,0.004l0.043,-0.091l-0.359,-0.093Z" style="fill:#e7ebee;stroke:#56dfdd;stroke-width:0.11px;stroke-linecap:round;stroke-miterlimit:1.5;"/><path d="M27.868,41.811l0.251,0.077l0.017,-0.441l0.174,-0.055l-0.165,-0.159l0.017,-0.434l-0.255,-0.079l0.452,-0.568l-0.688,0.054l0.086,-0.253l-0.344,-0.244l-0.024,-0.246l-0.149,0.123l-0.334,-0.237l-0.089,0.261l-0.399,-0.835l-0.034,0.86l-0.189,-0.231l-0.225,0.284l-0.2,-0.098l0.081,0.247l-0.225,0.283l0.189,0.231l-0.694,0.055l0.679,0.481l-0.209,0.114l0.196,0.41l-0.096,0.187l0.198,0.026l0.202,0.423l0.203,-0.11l-0.034,0.853l0.453,-0.569l0.067,0.315l0.35,-0.028l0.131,0.203l0.041,-0.216l0.356,-0.028l-0.066,-0.309l0.669,0.475l-0.393,-0.822Zm-1.436,-1.621l-0.381,-0.271l0.223,0.469l0.035,-0.043l-0.045,-0.132l0.106,0.054l0.062,-0.077Zm-0.305,0.436l0.166,-0.01l-0.102,-0.124l0.068,-0.085l-0.122,-0.038l-0.01,0.257Zm0.469,-0.621l-0.181,0.014l0.032,0.151l0.041,-0.051l0.102,0.125l0.006,-0.239Zm0.983,0.536l-0.095,-0.013l-0.122,-0.255l-0.123,0.066l0.021,-0.515l-0.274,0.344l-0.04,-0.19l-0.212,0.016l-0.079,-0.122l-0.004,0.019l0.167,0.344l0.045,-0.138l0.179,0.129l0.078,-0.063l0.015,0.13l0.183,0.133l-0.043,0.133l0.304,-0.018Zm-1.035,0.115l-0.08,-0.027l-0.004,0.141l-0.056,0.016l0.054,0.052l-0.004,0.139l0.082,0.027l-0.142,0.179l0.22,-0.013l-0.027,0.08l0.111,0.08l0.009,0.079l0.047,-0.038l0.108,0.078l0.027,-0.083l0.131,0.269l0.008,-0.275l0.061,0.075l0.071,-0.089l0.064,0.033l-0.027,-0.08l0.071,-0.089l-0.061,-0.075l0.221,-0.013l-0.219,-0.158l0.067,-0.035l-0.065,-0.132l0.03,-0.06l-0.063,-0.009l-0.067,-0.137l-0.064,0.034l0.007,-0.272l-0.142,0.179l-0.023,-0.101l-0.112,0.006l-0.042,-0.066l-0.013,0.069l-0.114,0.007l0.023,0.099l-0.216,-0.156l0.129,0.266Zm-0.433,0.371l0.12,0.037l-0.052,-0.106l0.11,-0.058l-0.168,-0.122l-0.01,0.249Zm-0.119,0.391l0.396,-0.031l-0.047,-0.096l-0.105,-0.016l0.05,-0.098l-0.039,-0.08l-0.255,0.321Zm0.363,0.12l0.197,0.14l0.005,-0.217l-0.106,0.055l-0.052,-0.106l-0.044,0.128Zm0.558,0.239l-0.094,0.005l-0.038,-0.167l-0.12,0.151l0.007,-0.006l0.202,0.143l0.043,-0.126Zm0.637,-1.128l-0.147,0.185l0.135,0.044l-0.006,0.229l0.089,0.087l-0.092,0.026l-0.006,0.234l-0.133,-0.044l0.16,0.33l-0.043,-0.132l0.136,-0.171l-0.114,-0.139l0.419,-0.033l-0.41,-0.291l0.126,-0.069l-0.118,-0.248l0.004,-0.008Zm-0.612,1.126l0.226,0.475l0.02,-0.489l-0.089,0.005l-0.02,0.114l-0.071,-0.108l-0.066,0.003Zm0.361,0.095l0.122,-0.153l-0.175,-0.126l0.037,0.164l-0.074,0.005l0.09,0.11Z" style="fill:#e7ebee;stroke:#56dfdd;stroke-width:0.11px;stroke-linecap:round;stroke-miterlimit:1.5;"/><path d="M46.247,42.479l0.061,0.306l0.302,-0.206l0.115,0.158l0.032,-0.257l0.297,-0.202l-0.062,-0.312l0.583,0.194l-0.346,-0.705l0.208,-0.037l0.008,-0.491l0.152,-0.15l-0.148,-0.097l0.007,-0.476l-0.214,0.038l0.377,-0.849l-0.589,0.401l0.069,-0.319l-0.291,-0.097l-0.025,-0.262l-0.128,0.212l-0.29,-0.097l-0.069,0.319l-0.349,-0.712l-0.016,0.968l-0.17,-0.165l-0.185,0.417l-0.168,-0.008l0.071,0.225l-0.191,0.43l0.165,0.16l-0.585,0.397l0.584,0.193l-0.18,0.232l0.176,0.358l-0.076,0.243l0.163,-0.066l0.179,0.366l0.176,-0.227l-0.015,0.954l0.372,-0.836Zm0.435,-2.353l0.008,-0.544l-0.212,0.476l0.045,0.015l0.067,-0.115l0.012,0.141l0.08,0.027Zm-0.429,-0.104l0.081,0.172l0.037,-0.171l0.088,0.029l-0.03,-0.15l-0.176,0.12Zm0.626,0.185l-0.091,-0.186l-0.087,0.111l0.053,0.018l-0.038,0.171l0.163,-0.114Zm0.085,1.319l-0.035,-0.108l0.116,-0.259l-0.1,-0.097l0.353,-0.24l-0.352,-0.117l0.108,-0.14l-0.106,-0.216l0.046,-0.147l-0.015,0.006l-0.153,0.352l0.111,-0.021l-0.005,0.255l0.077,0.051l-0.08,0.082l-0.006,0.263l-0.108,0.021l0.149,0.315Zm-0.543,-1.045l-0.019,-0.099l-0.095,0.068l-0.036,-0.051l-0.011,0.084l-0.094,0.066l0.019,0.101l-0.183,-0.061l0.107,0.227l-0.065,0.013l-0.004,0.159l-0.048,0.049l0.046,0.031l-0.003,0.155l0.068,-0.013l-0.121,0.276l0.186,-0.132l-0.022,0.104l0.092,0.03l0.007,0.085l0.041,-0.069l0.091,0.03l0.022,-0.103l0.109,0.23l0.007,-0.314l0.053,0.053l0.06,-0.136l0.053,0.002l-0.023,-0.073l0.062,-0.14l-0.052,-0.051l0.185,-0.131l-0.184,-0.06l0.058,-0.076l-0.055,-0.116l0.024,-0.079l-0.051,0.022l-0.056,-0.118l-0.056,0.074l0.007,-0.309l-0.119,0.272Zm-0.443,-0.273l0.029,0.147l0.048,-0.109l0.088,0.088l0.005,-0.242l-0.17,0.116Zm-0.315,0.072l0.199,0.406l0.044,-0.099l-0.037,-0.12l0.088,0.003l0.035,-0.081l-0.329,-0.109Zm0.084,0.448l-0.005,0.28l0.148,-0.104l-0.086,-0.085l0.048,-0.11l-0.105,0.019Zm0.092,0.715l-0.046,-0.097l0.094,-0.125l-0.154,-0.051l0.007,0.004l-0.005,0.288l0.104,-0.019Zm1.04,0.107l-0.19,-0.063l0.031,0.167l-0.155,0.11l-0.018,0.138l-0.059,-0.084l-0.159,0.112l-0.03,-0.164l-0.148,0.338l0.068,-0.113l0.175,0.058l0.042,-0.193l0.211,0.431l0.009,-0.585l0.103,0.099l0.112,-0.251l0.008,0Zm-1.028,-0.081l-0.215,0.482l0.335,-0.227l-0.043,-0.092l-0.085,0.036l0.04,-0.131l-0.032,-0.068Zm0.1,0.433l0.156,0.052l0.006,-0.25l-0.093,0.123l-0.036,-0.077l-0.033,0.152Z" style="fill:#e7ebee;stroke:#56dfdd;stroke-width:0.11px;stroke-linecap:round;stroke-miterlimit:1.5;"/><path d="M23.707,37.597l0.301,0.108l0.16,-0.488l0.243,-0.045l-0.165,-0.191l0.158,-0.478l-0.307,-0.11l0.765,-0.59l-0.909,-0.001l0.19,-0.272l-0.37,-0.301l0.045,-0.273l-0.232,0.122l-0.359,-0.291l-0.197,0.281l-0.256,-0.959l-0.313,0.95l-0.174,-0.273l-0.381,0.294l-0.229,-0.125l0.029,0.28l-0.381,0.294l0.174,0.273l-0.918,-0.001l0.731,0.593l-0.307,0.108l0.126,0.471l-0.184,0.198l0.25,0.047l0.13,0.486l0.297,-0.104l-0.31,0.941l0.765,-0.59l-0.011,0.354l0.462,0l0.107,0.237l0.121,-0.237l0.471,0l0.011,-0.347l0.72,0.584l-0.253,-0.945Zm-1.357,-1.921l-0.411,-0.332l0.144,0.538l0.058,-0.045l-0.017,-0.149l0.121,0.069l0.105,-0.081Zm-0.533,0.457l0.219,0.004l-0.093,-0.147l0.114,-0.088l-0.147,-0.052l-0.093,0.283Zm0.803,-0.646l-0.239,0l-0.006,0.17l0.069,-0.053l0.093,0.146l0.083,-0.263Zm1.108,0.679l-0.119,-0.023l-0.079,-0.293l-0.179,0.063l0.187,-0.569l-0.462,0.357l0.006,-0.214l-0.279,0l-0.064,-0.143l-0.012,0.021l0.11,0.395l0.101,-0.148l0.192,0.158l0.121,-0.063l-0.022,0.146l0.197,0.163l-0.098,0.143l0.4,0.007Zm-1.379,0.036l-0.096,-0.036l-0.049,0.156l-0.077,0.013l0.054,0.062l-0.049,0.154l0.098,0.036l-0.24,0.186l0.289,0.005l-0.059,0.087l0.119,0.098l-0.013,0.088l0.073,-0.038l0.115,0.095l0.062,-0.089l0.085,0.31l0.096,-0.304l0.056,0.089l0.12,-0.093l0.073,0.042l-0.01,-0.091l0.12,-0.092l-0.057,-0.089l0.292,0.005l-0.235,-0.194l0.097,-0.033l-0.042,-0.152l0.058,-0.063l-0.08,-0.016l-0.043,-0.157l-0.094,0.032l0.094,-0.301l-0.241,0.185l0.002,-0.114l-0.147,-0.002l-0.035,-0.077l-0.037,0.076l-0.15,-0.003l-0.002,0.112l-0.231,-0.192l0.084,0.305Zm-0.678,0.374l0.144,0.051l-0.034,-0.122l0.161,-0.054l-0.181,-0.15l-0.09,0.275Zm-0.277,0.423l0.524,0l-0.03,-0.111l-0.132,-0.027l0.095,-0.104l-0.025,-0.092l-0.432,0.334Zm0.434,0.165l0.212,0.171l0.075,-0.24l-0.156,0.053l-0.034,-0.123l-0.097,0.139Zm0.649,0.312l-0.123,-0.002l0.003,-0.188l-0.202,0.156l0.01,-0.005l0.217,0.176l0.095,-0.137Zm1.18,-1.193l-0.249,0.192l0.162,0.061l-0.079,0.253l0.088,0.103l-0.128,0.022l-0.08,0.258l-0.16,-0.06l0.105,0.379l-0.015,-0.149l0.23,-0.178l-0.105,-0.165l0.555,0.001l-0.442,-0.359l0.186,-0.064l-0.077,-0.285l0.009,-0.009Zm-1.147,1.194l0.146,0.545l0.178,-0.54l-0.117,-0.002l-0.062,0.125l-0.058,-0.127l-0.087,-0.001Zm0.44,0.136l0.205,-0.159l-0.187,-0.154l-0.003,0.185l-0.098,-0.002l0.083,0.13Z" style="fill:#e7ebee;stroke:#56dfdd;stroke-width:0.11px;stroke-linecap:round;stroke-miterlimit:1.5;"/><path d="M33.798,44.982l0.122,0.104l0.128,-0.225l0.113,0.017l-0.051,-0.126l0.126,-0.221l-0.124,-0.107l0.409,-0.179l-0.404,-0.149l0.116,-0.109l-0.129,-0.216l0.051,-0.134l-0.117,0.026l-0.126,-0.21l-0.12,0.113l-0.003,-0.536l-0.249,0.438l-0.046,-0.169l-0.204,0.09l-0.087,-0.103l-0.02,0.15l-0.203,0.089l0.045,0.169l-0.408,-0.151l0.256,0.426l-0.149,0.005l0.001,0.264l-0.105,0.072l0.106,0.065l0.001,0.272l0.144,-0.005l-0.247,0.435l0.409,-0.18l-0.046,0.181l0.205,0.076l0.02,0.139l0.082,-0.102l0.209,0.078l0.045,-0.178l0.253,0.419l-0.003,-0.528Zm-0.38,-1.213l-0.144,-0.239l0.002,0.301l0.031,-0.014l0.009,-0.079l0.046,0.055l0.056,-0.024Zm-0.29,0.148l0.097,0.038l-0.024,-0.091l0.061,-0.027l-0.059,-0.051l-0.075,0.131Zm0.432,-0.202l-0.106,-0.039l-0.022,0.087l0.037,-0.016l0.024,0.09l0.067,-0.122Zm0.415,0.532l-0.051,-0.031l-0.001,-0.164l-0.087,0.002l0.15,-0.262l-0.248,0.108l0.028,-0.109l-0.124,-0.046l-0.012,-0.084l-0.007,0.009l0.002,0.222l0.063,-0.06l0.066,0.113l0.061,-0.013l-0.026,0.071l0.069,0.117l-0.061,0.058l0.178,0.069Zm-0.618,-0.207l-0.039,-0.035l-0.04,0.073l-0.036,-0.006l0.017,0.041l-0.039,0.071l0.039,0.035l-0.129,0.056l0.128,0.05l-0.036,0.035l0.041,0.07l-0.016,0.044l0.037,-0.008l0.041,0.068l0.037,-0.036l0.002,0.174l0.078,-0.141l0.015,0.055l0.064,-0.028l0.028,0.033l0.006,-0.048l0.064,-0.028l-0.015,-0.055l0.129,0.05l-0.082,-0.139l0.047,-0.001l-0.001,-0.085l0.033,-0.023l-0.033,-0.021l-0.001,-0.088l-0.046,0.001l0.077,-0.14l-0.128,0.056l0.014,-0.058l-0.065,-0.026l-0.007,-0.045l-0.026,0.033l-0.066,-0.026l-0.014,0.057l-0.08,-0.136l0.002,0.171Zm-0.346,0.081l0.059,0.051l-0.001,-0.069l0.078,-0.002l-0.063,-0.106l-0.073,0.126Zm-0.172,0.173l0.233,0.086l-0.001,-0.062l-0.055,-0.036l0.054,-0.038l0,-0.051l-0.231,0.101Zm0.174,0.156l0.074,0.123l0.062,-0.111l-0.076,0.002l-0.001,-0.07l-0.059,0.056Zm0.252,0.268l-0.054,-0.021l0.023,-0.097l-0.108,0.047l0.005,-0.001l0.076,0.127l0.058,-0.055Zm0.664,-0.423l-0.133,0.059l0.065,0.058l-0.065,0.117l0.027,0.068l-0.059,-0.01l-0.066,0.12l-0.064,-0.057l0.003,0.213l0.011,-0.08l0.123,-0.054l-0.028,-0.102l0.247,0.091l-0.155,-0.257l0.09,-0.003l-0.001,-0.159l0.005,-0.004Zm-0.649,0.428l0.001,0.306l0.142,-0.25l-0.051,-0.02l-0.043,0.054l-0.011,-0.075l-0.038,-0.015Zm0.18,0.143l0.109,-0.048l-0.065,-0.111l-0.023,0.095l-0.043,-0.017l0.022,0.081Z" style="fill:#e7ebee;stroke:#56dfdd;stroke-width:0.11px;stroke-linecap:round;stroke-miterlimit:1.5;"/><path d="M16.671,53.965l0.393,0.303l0.406,-0.637l0.365,0.052l-0.169,-0.36l0.399,-0.626l-0.4,-0.309l1.31,-0.495l-1.304,-0.441l0.371,-0.308l-0.423,-0.62l0.163,-0.379l-0.377,0.067l-0.41,-0.602l-0.384,0.318l-0.023,-1.532l-0.791,1.242l-0.15,-0.484l-0.653,0.247l-0.284,-0.295l-0.06,0.425l-0.652,0.246l0.151,0.484l-1.317,-0.445l0.835,1.224l-0.479,0.008l0.012,0.753l-0.336,0.202l0.341,0.189l0.012,0.775l0.464,-0.008l-0.784,1.23l1.311,-0.495l-0.144,0.515l0.663,0.224l0.069,0.398l0.259,-0.287l0.676,0.228l0.14,-0.504l0.823,1.205l-0.023,-1.508Zm-1.256,-3.475l-0.469,-0.687l0.013,0.859l0.099,-0.037l0.029,-0.227l0.15,0.159l0.178,-0.067Zm-0.929,0.412l0.313,0.111l-0.081,-0.26l0.196,-0.074l-0.192,-0.148l-0.236,0.371Zm1.385,-0.56l-0.343,-0.116l-0.069,0.247l0.118,-0.044l0.081,0.26l0.213,-0.347Zm1.346,1.534l-0.163,-0.091l-0.007,-0.468l-0.281,0.005l0.474,-0.744l-0.792,0.3l0.087,-0.311l-0.401,-0.136l-0.041,-0.24l-0.024,0.026l0.015,0.632l0.199,-0.168l0.218,0.325l0.196,-0.034l-0.084,0.202l0.225,0.335l-0.193,0.163l0.572,0.204Zm-1.992,-0.615l-0.125,-0.1l-0.126,0.205l-0.115,-0.018l0.054,0.117l-0.124,0.202l0.127,0.101l-0.412,0.156l0.413,0.147l-0.116,0.098l0.135,0.203l-0.05,0.122l0.118,-0.02l0.132,0.196l0.12,-0.102l0.011,0.496l0.246,-0.399l0.049,0.157l0.206,-0.078l0.09,0.097l0.018,-0.137l0.205,-0.078l-0.049,-0.157l0.417,0.149l-0.267,-0.399l0.151,-0.002l-0.006,-0.243l0.106,-0.065l-0.109,-0.062l-0.006,-0.251l-0.146,0.001l0.244,-0.396l-0.412,0.156l0.043,-0.166l-0.21,-0.075l-0.022,-0.129l-0.081,0.092l-0.214,-0.076l-0.043,0.163l-0.263,-0.394l0.011,0.489Zm-1.107,0.219l0.188,0.146l-0.005,-0.196l0.25,-0.002l-0.205,-0.307l-0.228,0.359Zm-0.55,0.486l0.752,0.254l-0.004,-0.177l-0.179,-0.104l0.174,-0.106l-0.004,-0.146l-0.739,0.279Zm0.564,0.452l0.241,0.354l0.195,-0.315l-0.243,0.001l-0.004,-0.196l-0.189,0.156Zm0.818,0.773l-0.176,-0.062l0.072,-0.275l-0.347,0.131l0.017,-0.003l0.248,0.363l0.186,-0.154Zm2.123,-1.179l-0.426,0.161l0.21,0.168l-0.205,0.334l0.089,0.193l-0.19,-0.029l-0.209,0.339l-0.207,-0.165l0.014,0.606l0.032,-0.226l0.394,-0.149l-0.091,-0.292l0.796,0.269l-0.505,-0.739l0.289,-0.006l-0.007,-0.454l0.016,-0.01Zm-2.076,1.196l0.013,0.871l0.449,-0.706l-0.166,-0.059l-0.134,0.152l-0.038,-0.214l-0.124,-0.044Zm0.582,0.413l0.352,-0.133l-0.213,-0.317l-0.071,0.269l-0.14,-0.05l0.072,0.231Z" style="fill:#e7ebee;stroke:#56dfdd;stroke-width:0.11px;stroke-linecap:round;stroke-miterlimit:1.5;"/><path d="M49.733,37.471l-0.328,0.106l0.101,0.466l-0.198,0.185l0.247,0.041l0.1,0.459l0.334,-0.108l-0.395,0.92l0.826,-0.565l-0.034,0.323l0.489,-0.004l0.098,0.234l0.149,-0.236l0.474,-0.003l0.036,-0.335l0.72,0.563l-0.198,-0.909l0.296,0.097l0.197,-0.458l0.272,-0.049l-0.168,-0.193l0.197,-0.457l-0.296,-0.098l0.834,-0.57l-0.965,0.008l0.224,-0.272l-0.354,-0.276l0.066,-0.264l-0.25,0.12l-0.365,-0.285l-0.217,0.263l-0.197,-0.902l-0.395,0.921l-0.17,-0.274l-0.42,0.287l-0.217,-0.112l0.009,0.254l-0.428,0.292l0.167,0.268l-0.951,0.008l0.71,0.555Zm2.209,0.602l0.542,-0.004l-0.405,-0.316l-0.029,0.069l0.091,0.102l-0.145,0.024l-0.054,0.125Zm0.252,-0.675l-0.201,0.134l0.159,0.052l-0.059,0.138l0.16,-0.052l-0.059,-0.272Zm-0.401,0.986l0.217,-0.148l-0.082,-0.132l-0.035,0.083l-0.159,-0.053l0.059,0.25Zm-1.353,0.177l0.12,-0.057l0.221,0.172l0.131,-0.159l0.118,0.545l0.239,-0.556l0.103,0.165l0.254,-0.173l0.131,0.067l-0.001,-0.023l-0.3,-0.229l-0.017,0.174l-0.254,-0l-0.078,0.123l-0.054,-0.123l-0.262,-0l0.017,-0.169l-0.368,0.243Zm1.235,-0.884l0.106,-0.032l-0.035,-0.148l0.063,-0.058l-0.08,-0.014l-0.034,-0.145l-0.107,0.033l0.124,-0.289l-0.265,0.176l0.01,-0.102l-0.159,-0l-0.032,-0.075l-0.047,0.074l-0.154,-0l-0.01,0.106l-0.236,-0.18l0.068,0.288l-0.096,-0.032l-0.062,0.144l-0.088,0.015l0.055,0.061l-0.062,0.144l0.097,0.032l-0.268,0.177l0.312,0.001l-0.071,0.085l0.115,0.088l-0.02,0.083l0.08,-0.037l0.12,0.091l0.069,-0.082l0.067,0.285l0.124,-0.289l0.056,0.087l0.135,-0.09l0.071,0.036l-0.004,-0.08l0.137,-0.091l-0.055,-0.085l0.308,-0l-0.232,-0.177Zm0.427,-0.703l-0.158,0.051l0.093,0.071l-0.118,0.141l0.24,-0l-0.057,-0.263Zm0.037,-0.49l-0.477,0.325l0.084,0.065l0.134,-0.062l-0.034,0.138l0.07,0.053l0.223,-0.519Zm-0.479,0.146l-0.279,0.002l0.054,0.227l0.114,-0.136l0.094,0.071l0.017,-0.164Zm-0.748,0.167l0.113,-0.075l0.093,0.144l0.104,-0.243l-0.006,0.01l-0.287,0.002l-0.017,0.162Zm-0.466,1.632l0.128,-0.299l-0.178,0.055l-0.056,-0.24l-0.133,-0.023l0.105,-0.096l-0.057,-0.244l0.175,-0.054l-0.288,-0.22l0.089,0.103l-0.119,0.276l0.179,0.059l-0.504,0.345l0.583,-0.005l-0.135,0.164l0.214,0.167l-0.003,0.012Zm0.436,-1.612l-0.41,-0.32l0.113,0.517l0.107,-0.071l-0.007,-0.132l0.117,0.059l0.08,-0.053Zm-0.469,0.171l-0.106,0.247l0.248,-0l-0.091,-0.141l0.09,-0.059l-0.141,-0.047Z" style="fill:#e7ebee;stroke:#56dfdd;stroke-width:0.11px;stroke-linecap:round;stroke-miterlimit:1.5;"/><path d="M23.593,41.762l-0.189,-0.189l-0.213,0.324l-0.239,-0.059l0.097,0.278l-0.243,0.371l0.161,0.162l-0.696,0.232l0.746,0.354l-0.252,0.203l0.189,0.36l-0.093,0.207l0.19,-0.022l0.232,0.442l0.204,-0.164l-0.037,0.869l0.473,-0.723l0.077,0.359l0.388,-0.128l0.108,0.145l0.035,-0.193l0.387,-0.128l-0.078,-0.36l0.701,0.334l-0.382,-0.73l0.243,0.016l0.022,-0.526l0.174,-0.099l-0.165,-0.122l0.018,-0.428l-0.3,-0.02l0.503,-0.77l-0.696,0.232l0.075,-0.241l-0.36,-0.171l-0.029,-0.3l-0.183,0.199l-0.315,-0.15l-0.087,0.282l-0.426,-0.812l-0.04,0.966Zm0.564,2.135l0.251,0.479l0.024,-0.57l-0.086,0.028l-0.025,0.14l-0.079,-0.106l-0.085,0.029Zm0.657,-0.148l-0.306,-0.146l0.036,0.165l-0.106,0.035l0.107,0.108l0.127,-0.195l0.143,0.036l-0.001,-0.003Zm-1.012,0.336l0.001,0.003l0.109,-0.119l0.189,0.089l0.049,-0.159l-0.106,0.035l-0.036,-0.165l-0.206,0.316Zm0.475,-0.653l0.066,0.067l0.08,-0.122l0.065,0.016l-0.026,-0.075l0.078,-0.12l-0.068,-0.068l0.24,-0.08l-0.228,-0.109l0.069,-0.056l-0.068,-0.131l0.033,-0.074l-0.068,0.008l-0.067,-0.128l-0.072,0.058l0.013,-0.308l-0.155,0.237l-0.022,-0.099l-0.12,0.04l-0.047,-0.064l-0.016,0.084l-0.119,0.04l0.022,0.1l-0.231,-0.11l0.136,0.259l-0.086,-0.005l-0.007,0.151l-0.062,0.036l0.059,0.043l-0.007,0.156l0.084,0.006l-0.154,0.235l0.24,-0.079l-0.032,0.101l0.116,0.055l0.008,0.082l0.05,-0.054l0.118,0.056l0.031,-0.099l0.134,0.255l0.013,-0.304Zm0.626,-0.069l-0.092,-0.092l-0.004,0.094l-0.142,-0.009l0.108,0.206l0.13,-0.199Zm-1.291,0.307l-0.042,0.136l0.192,0.091l0.011,-0.245l-0.12,0.096l-0.041,-0.078Zm1.611,-0.542l-0.398,-0.189l-0.001,0.045l0.097,0.071l-0.103,0.059l-0.006,0.151l0.411,-0.137Zm-1.757,0.262l-0.268,0.41l0.411,-0.136l-0.066,-0.127l-0.113,0.013l0.055,-0.122l-0.019,-0.038Zm1.402,-0.935l-0.171,0.261l0.137,0.009l-0.006,0.149l0.099,-0.08l-0.113,-0.215l0.056,-0.124l-0.002,-0Zm-1.634,0.542l-0.002,0.002l0.098,0.072l-0.011,0.257l0.118,0.007l-0.066,-0.124l0.116,-0.093l-0.253,-0.121Zm1.488,-0.595l-0.105,-0.199l-0.071,0.058l0.06,0.029l-0.052,0.168l0.168,-0.056Zm-1.287,0.228l-0.086,-0.006l-0.01,0.237l0.167,-0.055l-0.113,-0.113l0.042,-0.063Zm1.063,-0.391l0.019,-0.457l-0.232,0.355l0.034,0.017l0.082,-0.09l0.013,0.135l0.084,0.04Zm-0.888,0.122l-0.344,-0.164l0.201,0.384l0.056,-0.087l-0.043,-0.124l0.107,0.027l0.023,-0.036Zm0.228,-0.246l-0.199,0.066l0.022,0.103l0.058,-0.089l0.111,0.111l0.008,-0.191Zm0.35,-0.116l-0.199,0.066l0.083,0.16l0.051,-0.165l0.087,0.042l-0.022,-0.103Z" style="fill:#e7ebee;stroke:#56dfdd;stroke-width:0.11px;stroke-linecap:round;stroke-miterlimit:1.5;"/><path d="M30.558,47.65l0.004,-0.336l-0.371,0.013l-0.122,-0.293l-0.128,0.302l-0.424,0.015l-0.003,0.287l-0.635,-0.562l0.26,1.04l-0.312,-0.117l-0.123,0.459l-0.208,0.052l0.145,0.185l-0.151,0.563l0.254,0.095l-0.631,0.592l0.825,-0.029l-0.197,0.343l0.353,0.313l-0.028,0.218l0.158,-0.103l0.353,0.313l0.198,-0.342l0.244,0.977l0.249,-0.931l0.154,0.267l0.382,-0.359l0.188,0.11l-0.028,-0.26l0.312,-0.292l-0.191,-0.329l0.879,-0.031l-0.635,-0.563l0.219,-0.096l-0.126,-0.502l0.19,-0.248l-0.264,-0.048l-0.109,-0.439l-0.256,0.113l0.277,-1.035l-0.702,0.658Zm-1.105,2.141l-0.163,0.611l0.414,-0.388l-0.078,-0.069l-0.115,0.074l0.02,-0.159l-0.078,-0.069Zm0.551,0.583l-0.107,-0.427l-0.091,0.157l-0.096,-0.085l-0.002,0.19l0.222,-0.008l0.073,0.176l0.001,-0.003Zm-0.923,-0.818l-0.002,0.003l0.158,0.028l0.066,0.263l0.144,-0.064l-0.096,-0.085l0.09,-0.158l-0.36,0.013Zm0.778,0.024l-0.001,0.119l0.139,-0.005l0.033,0.079l0.035,-0.082l0.137,-0.005l0.001,-0.121l0.219,0.194l-0.08,-0.318l0.087,0.032l0.045,-0.167l0.074,-0.019l-0.052,-0.066l0.044,-0.162l-0.09,-0.034l0.224,-0.21l-0.272,0.009l0.055,-0.095l-0.109,-0.096l0.012,-0.096l-0.069,0.045l-0.109,-0.097l-0.055,0.095l-0.08,-0.321l-0.089,0.33l-0.054,-0.094l-0.11,0.104l-0.068,-0.04l0.01,0.093l-0.113,0.107l0.053,0.091l-0.27,0.009l0.219,0.194l-0.092,0.041l0.041,0.162l-0.052,0.067l0.072,0.013l0.041,0.165l0.09,-0.04l-0.087,0.326l0.221,-0.207Zm0.474,0.607l0.002,-0.163l-0.068,0.064l-0.09,-0.155l-0.071,0.262l0.227,-0.008Zm-1.092,-1.132l-0.123,0.055l0.067,0.268l0.178,-0.167l-0.149,-0.055l0.027,-0.101Zm1.474,1.297l-0.139,-0.554l-0.032,0.03l0.016,0.155l-0.111,-0.066l-0.109,0.103l0.375,0.332Zm-1.379,-1.653l-0.468,0.016l0.375,0.333l0.043,-0.161l-0.085,-0.109l0.123,-0.031l0.012,-0.048Zm1.606,0.792l-0.298,0.01l0.088,0.151l-0.108,0.101l0.122,0.046l0.074,-0.275l0.124,-0.031l-0.002,-0.002Zm-1.489,-1.32l-0.003,-0.002l0.017,0.156l-0.187,0.175l0.075,0.129l0.043,-0.159l0.143,0.054l-0.088,-0.353Zm1.427,1.128l0.068,-0.253l-0.089,-0.034l0.021,0.085l-0.153,0.067l0.153,0.135Zm-1.034,-1.185l-0.055,-0.093l-0.172,0.161l0.153,0.135l0.002,-0.2l0.072,-0.003Zm0.996,0.832l0.332,-0.312l-0.406,0.015l0.012,0.048l0.118,0.021l-0.085,0.111l0.029,0.117Zm-0.689,-0.843l-0.121,-0.48l-0.13,0.489l0.098,-0.003l0.058,-0.136l0.054,0.132l0.041,-0.002Zm0.326,0.061l-0.182,-0.161l-0.056,0.097l0.102,-0.003l-0.002,0.196l0.138,-0.129Zm0.319,0.283l-0.182,-0.161l-0.054,0.203l0.149,-0.066l0.031,0.121l0.056,-0.097Z" style="fill:#e7ebee;stroke:#56dfdd;stroke-width:0.11px;stroke-linecap:round;stroke-miterlimit:1.5;"/><path d="M35.493,47.133l-0.317,-0.283l-0.356,0.484l-0.402,-0.088l0.162,0.414l-0.408,0.555l0.271,0.242l-1.169,0.344l1.254,0.53l-0.424,0.303l0.317,0.537l-0.157,0.309l0.32,-0.033l0.389,0.66l0.343,-0.245l-0.062,1.296l0.793,-1.079l0.131,0.537l0.65,-0.192l0.181,0.216l0.059,-0.287l0.65,-0.192l-0.13,-0.536l1.177,0.497l-0.642,-1.088l0.408,0.023l0.037,-0.785l0.292,-0.148l-0.276,-0.181l0.03,-0.64l-0.504,-0.029l0.845,-1.149l-1.169,0.345l0.125,-0.358l-0.605,-0.256l-0.048,-0.448l-0.307,0.298l-0.529,-0.224l-0.146,0.42l-0.714,-1.211l-0.069,1.442Zm0.947,3.185l0.422,0.715l0.04,-0.851l-0.143,0.042l-0.043,0.209l-0.132,-0.157l-0.144,0.042Zm1.104,-0.221l-0.513,-0.217l0.06,0.246l-0.178,0.053l0.18,0.16l0.213,-0.29l0.24,0.053l-0.002,-0.005Zm-1.699,0.501l0.001,0.005l0.184,-0.178l0.316,0.134l0.083,-0.238l-0.178,0.053l-0.06,-0.246l-0.346,0.47Zm0.797,-0.974l0.112,0.1l0.134,-0.182l0.108,0.024l-0.043,-0.112l0.131,-0.179l-0.114,-0.102l0.403,-0.119l-0.384,-0.162l0.117,-0.084l-0.115,-0.196l0.056,-0.11l-0.114,0.011l-0.112,-0.19l-0.122,0.087l0.022,-0.461l-0.261,0.355l-0.036,-0.148l-0.201,0.059l-0.08,-0.095l-0.025,0.126l-0.201,0.059l0.036,0.149l-0.387,-0.164l0.228,0.387l-0.144,-0.008l-0.011,0.226l-0.105,0.053l0.099,0.065l-0.011,0.233l0.14,0.008l-0.259,0.352l0.403,-0.119l-0.052,0.151l0.195,0.083l0.013,0.121l0.083,-0.081l0.199,0.084l0.051,-0.148l0.225,0.381l0.022,-0.454Zm1.051,-0.102l-0.153,-0.137l-0.007,0.14l-0.239,-0.014l0.182,0.307l0.217,-0.296Zm-2.167,0.457l-0.071,0.203l0.323,0.137l0.018,-0.366l-0.201,0.144l-0.069,-0.118Zm2.705,-0.808l-0.668,-0.282l-0.003,0.066l0.164,0.107l-0.173,0.088l-0.011,0.225l0.691,-0.204Zm-2.951,0.391l-0.45,0.612l0.691,-0.204l-0.111,-0.188l-0.19,0.019l0.093,-0.182l-0.033,-0.057Zm2.354,-1.395l-0.287,0.389l0.231,0.013l-0.01,0.222l0.166,-0.118l-0.19,-0.322l0.094,-0.185l-0.004,0.001Zm-2.743,0.809l-0.004,0.002l0.166,0.108l-0.018,0.383l0.197,0.011l-0.11,-0.186l0.194,-0.139l-0.425,-0.179Zm2.498,-0.888l-0.175,-0.297l-0.121,0.086l0.103,0.043l-0.088,0.251l0.281,-0.083Zm-2.161,0.339l-0.144,-0.008l-0.016,0.354l0.28,-0.083l-0.189,-0.169l0.069,-0.094Zm1.785,-0.584l0.033,-0.681l-0.39,0.53l0.057,0.025l0.138,-0.134l0.022,0.201l0.14,0.059Zm-1.49,0.183l-0.579,-0.244l0.338,0.572l0.095,-0.129l-0.073,-0.185l0.18,0.039l0.039,-0.053Zm0.382,-0.366l-0.334,0.098l0.037,0.153l0.098,-0.133l0.185,0.166l0.014,-0.284Zm0.588,-0.174l-0.335,0.099l0.141,0.238l0.085,-0.245l0.146,0.061l-0.037,-0.153Z" style="fill:#e7ebee;stroke:#56dfdd;stroke-width:0.11px;stroke-linecap:round;stroke-miterlimit:1.5;"/></g></svg>