<?xml version="1.0" encoding="UTF-8" standalone="no"?><!DOCTYPE svg PUBLIC "-//W3C//DTD SVG 1.1//EN" "http://www.w3.org/Graphics/SVG/1.1/DTD/svg11.dtd"><svg width="100%" height="100%" viewBox="0 0 100 80" version="1.1" xmlns="http://www.w3.org/2000/svg" xmlns:xlink="http://www.w3.org/1999/xlink" xml:space="preserve" xmlns:serif="http://www.serif.com/" style="fill-rule:evenodd;clip-rule:evenodd;stroke-linejoin:round;stroke-miterlimit:2;"><path d="M100,11.739c-0,-6.479 -5.26,-11.739 -11.739,-11.739l-76.522,0c-6.479,0 -11.739,5.26 -11.739,11.739l0,56.522c0,6.479 5.26,11.739 11.739,11.739l76.522,0c6.479,0 11.739,-5.26 11.739,-11.739l-0,-56.522Z" style="fill:#6a6c82;"/><path d="M70.087,38.788c-0.004,0.038 -0.01,0.077 -0.016,0.116c-0.343,2.19 -2.666,3.725 -5.185,3.426c-0.021,-0.002 -0.041,-0.004 -0.063,-0.007c-0.731,1.869 -3.545,3.044 -6.664,2.674c-2.88,-0.342 -5.105,-1.89 -5.53,-3.68c-2.501,0.762 -4.934,0.446 -6.024,-0.953c-0.205,-0.263 -0.351,-0.55 -0.442,-0.855c-0.304,0.019 -0.615,0.013 -0.929,-0.024c-2.521,-0.287 -4.298,-2.299 -3.967,-4.49c0.008,-0.058 0.019,-0.117 0.031,-0.174c-0.106,-0.041 -0.208,-0.086 -0.305,-0.132c-0.172,0.093 -0.368,0.161 -0.586,0.193c-0.945,0.137 -1.928,-0.436 -2.193,-1.28c-0.124,-0.393 -0.07,-0.778 0.12,-1.089c-2.452,-0.925 -3.883,-3.485 -3.217,-5.876c0.694,-2.499 3.415,-3.87 6.073,-3.061c0.611,0.186 1.167,0.472 1.651,0.831c2.353,-0.922 5.567,-0.99 8.866,0.013c1.067,0.325 2.067,0.739 2.986,1.221c0.384,-0.14 0.796,-0.258 1.229,-0.351c1.81,-0.383 3.63,-0.227 5.007,0.329c0.255,-0.164 0.553,-0.288 0.89,-0.359c1.457,-0.31 3.067,0.489 3.591,1.78c0.421,1.036 0.017,2.077 -0.911,2.609c0.812,0.273 1.564,0.609 2.234,1c0.492,-0.223 1.046,-0.366 1.649,-0.409c2.617,-0.189 5.148,1.571 5.648,3.928c0.501,2.357 -1.218,4.425 -3.834,4.614c-0.037,0.002 -0.072,0.004 -0.109,0.006Z" style="fill:#a5abaf;stroke:#4c545d;stroke-width:2px;"/><path d="M96.291,27.601c0.023,0.043 0.045,0.085 0.067,0.128c1.201,2.423 0.091,5.309 -2.478,6.441c-0.022,0.011 -0.044,0.019 -0.063,0.029c0.614,2.318 -1.209,5.118 -4.389,6.519c-2.938,1.296 -6.101,0.987 -7.742,-0.591c-1.815,2.201 -4.315,3.269 -6.311,2.465c-0.374,-0.151 -0.711,-0.359 -1.007,-0.618c-0.271,0.194 -0.569,0.362 -0.889,0.505c-2.563,1.145 -5.628,0.112 -6.841,-2.304c-0.032,-0.066 -0.062,-0.131 -0.092,-0.197c-0.128,0.019 -0.253,0.031 -0.378,0.04c-0.095,0.193 -0.232,0.374 -0.415,0.529c-0.789,0.681 -2.11,0.657 -2.945,-0.05c-0.389,-0.332 -0.606,-0.752 -0.646,-1.177c-2.941,0.457 -6.063,-1.333 -7.102,-4.144c-1.086,-2.938 0.512,-5.884 3.566,-6.577c0.702,-0.159 1.421,-0.184 2.126,-0.095c1.563,-2.28 4.527,-4.183 8.317,-5.044c1.226,-0.276 2.453,-0.426 3.65,-0.457c0.263,-0.364 0.566,-0.717 0.908,-1.059c1.429,-1.423 3.243,-2.301 4.922,-2.521c0.124,-0.311 0.318,-0.607 0.583,-0.871c1.152,-1.147 3.216,-1.253 4.606,-0.237c1.115,0.813 1.459,2.104 0.959,3.172c0.952,-0.185 1.891,-0.269 2.79,-0.255c0.306,-0.506 0.727,-0.968 1.261,-1.356c2.322,-1.683 5.918,-1.336 8.027,0.777c2.109,2.113 1.935,5.196 -0.386,6.88c-0.032,0.023 -0.066,0.046 -0.098,0.068Z" style="fill:#a5abaf;stroke:#4c545d;stroke-width:2px;"/><path d="M64.233,9.523c0.751,-2.182 2.39,-4.16 4.751,-5.434c4.829,-2.606 10.868,-1.292 13.477,2.933c0.369,0.595 0.649,1.218 0.846,1.855c4.572,1.699 7.805,4.687 8.448,8.172c0.435,0.226 0.848,0.516 1.231,0.869c2.124,1.96 2.822,5.414 2.09,8.913c0.51,0.197 0.955,0.547 1.289,1.048c1.11,1.671 0.558,4.399 -1.234,6.088c-1.524,1.436 -3.456,1.662 -4.684,0.669c-0.746,0.606 -1.533,1.08 -2.33,1.415c-0.108,0.128 -0.218,0.255 -0.332,0.378c-3.067,3.341 -7.593,3.869 -10.254,1.259c-0.032,0.011 -0.065,0.02 -0.097,0.03c-1.737,0.507 -3.463,0.138 -4.622,-0.833c-2.231,2.173 -6.037,3.605 -10.354,3.605c-3.893,0 -7.372,-1.165 -9.652,-2.987c-0.636,0.236 -1.327,0.366 -2.05,0.366c-2.146,0 -4.019,-1.146 -4.985,-2.836c-2.876,0.434 -5.901,0.294 -8.503,-0.531c-5.688,-1.8 -7.231,-6.181 -3.441,-9.778c0.181,-0.173 0.37,-0.339 0.568,-0.501c-0.497,-0.107 -0.954,-0.351 -1.326,-0.735c-1.264,-1.309 -1.075,-3.762 0.421,-5.476c1.27,-1.458 3.082,-1.914 4.373,-1.213c2.519,-2.489 5.868,-3.266 8.44,-1.648c0.452,0.284 0.859,0.63 1.216,1.023c0.51,-0.102 1.031,-0.193 1.564,-0.272c0.301,-2.199 2.298,-4.317 5.07,-5.126c0.88,-0.257 1.753,-0.357 2.575,-0.318c0.374,-0.48 0.868,-0.839 1.452,-1.01c1.31,-0.382 2.673,0.307 3.418,1.597c0.794,-0.563 1.677,-1.073 2.635,-1.522Z" style="fill:#c3c8cb;stroke:#4c545d;stroke-width:2px;"/><path d="M50.635,23.808c0.684,-2.529 4.796,-4.475 9.76,-4.475c5.442,-0 9.858,2.339 9.858,5.221c0,0.377 -0.075,0.745 -0.22,1.101c1.445,2.264 -0.199,5.712 -4.152,8.231c-4.511,2.873 -10.334,3.456 -12.994,1.299c-0.383,-0.31 -0.678,-0.661 -0.893,-1.041c-0.472,0.07 -0.959,0.105 -1.46,0.105c-4.01,0 -7.264,-2.338 -7.264,-5.22c-0,-2.882 3.254,-5.221 7.264,-5.221l0.101,-0Z" style="fill:#efeff0;stroke:#4c545d;stroke-width:2px;"/><path d="M67.53,8.009c3.463,-1.551 7.065,-1.497 8.951,0.391c0.355,0.356 0.63,0.759 0.828,1.194c0.437,-0.08 0.89,-0.121 1.354,-0.121c3.721,0 6.741,2.68 6.741,5.982c0,3.303 -3.02,5.982 -6.741,5.982l-0.092,0c-0.635,2.898 -4.45,5.128 -9.056,5.128c-4.285,0 -7.886,-1.931 -8.877,-4.533c-3.488,1.561 -7.116,1.499 -9.005,-0.409c-0.352,-0.355 -0.624,-0.758 -0.82,-1.195c-0.438,0.077 -0.891,0.117 -1.355,0.115c-3.721,-0.017 -6.726,-2.71 -6.708,-6.011c0.017,-3.302 3.052,-5.97 6.773,-5.953l0.092,0c0.652,-2.893 4.479,-5.108 9.085,-5.089c4.254,0.02 7.822,1.939 8.83,4.519Z" style="fill:#aeaeb7;stroke:#4c545d;stroke-width:2px;"/><path d="M71.587,31.885c-2.777,1.383 -5.666,1.335 -7.18,-0.351c-0.284,-0.316 -0.504,-0.674 -0.665,-1.063c-0.35,0.071 -0.713,0.107 -1.085,0.107c-2.985,0 -5.407,-2.39 -5.407,-5.336c-0,-2.946 2.422,-5.337 5.407,-5.337l0.074,-0c0.509,-2.585 3.57,-4.575 7.264,-4.575c3.436,0 6.325,1.724 7.121,4.044c2.798,-1.392 5.708,-1.337 7.221,0.365c0.284,0.317 0.502,0.677 0.659,1.067c0.352,-0.07 0.715,-0.105 1.087,-0.104c2.984,0.016 5.395,2.419 5.38,5.363c-0.014,2.947 -2.447,5.326 -5.432,5.312l-0.074,-0c-0.522,2.581 -3.591,4.557 -7.287,4.539c-3.412,-0.017 -6.275,-1.73 -7.083,-4.031Z" style="fill:#b0b3b6;stroke:#4c545d;stroke-width:2px;"/><path d="M24.264,8.405c2.618,-1.172 5.34,-1.131 6.766,0.297c0.267,0.268 0.475,0.573 0.625,0.902c0.331,-0.061 0.673,-0.092 1.024,-0.092c2.812,0 5.095,2.026 5.095,4.521c-0,2.497 -2.283,4.522 -5.095,4.522l-0.07,0c-0.48,2.19 -3.363,3.876 -6.845,3.876c-3.238,-0 -5.96,-1.459 -6.709,-3.426c-2.637,1.18 -5.379,1.133 -6.806,-0.309c-0.267,-0.269 -0.473,-0.573 -0.62,-0.904c-0.332,0.059 -0.674,0.088 -1.025,0.087c-2.812,-0.012 -5.083,-2.048 -5.07,-4.543c0.013,-2.496 2.307,-4.512 5.119,-4.499l0.07,-0c0.493,-2.187 3.385,-3.861 6.867,-3.847c3.215,0.015 5.912,1.465 6.674,3.415Z" style="fill:#aeaeb7;stroke:#4c545d;stroke-width:2px;"/><path d="M36.883,39.288c-0.004,0.038 -0.01,0.077 -0.016,0.116c-0.343,2.19 -2.665,3.725 -5.185,3.426c-0.021,-0.002 -0.041,-0.004 -0.063,-0.007c-0.731,1.869 -3.545,3.044 -6.664,2.674c-2.88,-0.342 -5.105,-1.89 -5.529,-3.68c-2.501,0.762 -4.935,0.446 -6.025,-0.953c-0.205,-0.263 -0.351,-0.55 -0.441,-0.855c-0.305,0.019 -0.616,0.013 -0.93,-0.024c-2.521,-0.287 -4.298,-2.299 -3.966,-4.49c0.008,-0.058 0.018,-0.117 0.03,-0.174c-0.106,-0.041 -0.208,-0.086 -0.305,-0.132c-0.171,0.093 -0.368,0.161 -0.585,0.193c-0.946,0.137 -1.929,-0.436 -2.194,-1.28c-0.123,-0.393 -0.07,-0.778 0.12,-1.089c-2.452,-0.925 -3.883,-3.485 -3.217,-5.876c0.694,-2.499 3.415,-3.87 6.073,-3.061c0.612,0.186 1.167,0.472 1.651,0.831c2.353,-0.922 5.567,-0.99 8.866,0.013c1.067,0.325 2.067,0.739 2.986,1.221c0.384,-0.14 0.796,-0.258 1.229,-0.351c1.811,-0.383 3.63,-0.227 5.007,0.329c0.255,-0.164 0.554,-0.288 0.89,-0.359c1.457,-0.31 3.067,0.489 3.591,1.78c0.421,1.036 0.017,2.077 -0.91,2.609c0.812,0.273 1.563,0.609 2.233,1c0.492,-0.223 1.046,-0.366 1.649,-0.409c2.617,-0.189 5.148,1.571 5.649,3.928c0.501,2.357 -1.218,4.425 -3.835,4.614c-0.037,0.002 -0.072,0.004 -0.109,0.006Z" style="fill:#a5abaf;stroke:#4c545d;stroke-width:2px;"/><path d="M63.088,28.101c0.022,0.043 0.044,0.085 0.066,0.128c1.201,2.423 0.091,5.309 -2.478,6.441c-0.022,0.011 -0.044,0.019 -0.063,0.029c0.614,2.318 -1.209,5.118 -4.388,6.519c-2.938,1.296 -6.102,0.987 -7.743,-0.591c-1.815,2.201 -4.315,3.269 -6.31,2.465c-0.374,-0.151 -0.712,-0.359 -1.008,-0.618c-0.271,0.194 -0.568,0.362 -0.889,0.505c-2.562,1.145 -5.627,0.112 -6.841,-2.304c-0.032,-0.066 -0.062,-0.131 -0.091,-0.197c-0.128,0.019 -0.254,0.031 -0.379,0.04c-0.095,0.193 -0.232,0.374 -0.415,0.529c-0.789,0.681 -2.11,0.657 -2.945,-0.05c-0.389,-0.332 -0.606,-0.752 -0.646,-1.177c-2.94,0.457 -6.063,-1.333 -7.102,-4.144c-1.085,-2.938 0.512,-5.884 3.566,-6.577c0.702,-0.159 1.421,-0.184 2.126,-0.095c1.563,-2.28 4.527,-4.183 8.318,-5.044c1.226,-0.276 2.453,-0.426 3.649,-0.457c0.263,-0.364 0.566,-0.717 0.908,-1.059c1.429,-1.423 3.243,-2.301 4.922,-2.521c0.124,-0.311 0.318,-0.607 0.583,-0.871c1.152,-1.147 3.216,-1.253 4.606,-0.237c1.115,0.813 1.459,2.104 0.959,3.172c0.952,-0.185 1.891,-0.269 2.79,-0.255c0.306,-0.506 0.727,-0.968 1.261,-1.356c2.322,-1.683 5.919,-1.336 8.027,0.777c2.109,2.113 1.935,5.196 -0.386,6.88c-0.032,0.023 -0.065,0.046 -0.097,0.068Z" style="fill:#a5abaf;stroke:#4c545d;stroke-width:2px;"/><path d="M37.983,9.523c0.751,-2.182 2.39,-4.16 4.751,-5.434c4.829,-2.606 10.868,-1.292 13.477,2.933c0.369,0.595 0.649,1.218 0.846,1.855c4.572,1.699 7.805,4.687 8.448,8.172c0.435,0.226 0.848,0.516 1.231,0.869c2.124,1.96 2.822,5.414 2.09,8.913c0.51,0.197 0.955,0.547 1.289,1.048c1.11,1.671 0.558,4.399 -1.234,6.088c-1.524,1.436 -3.456,1.662 -4.684,0.669c-0.746,0.606 -1.533,1.08 -2.33,1.415c-0.108,0.128 -0.218,0.255 -0.332,0.378c-3.067,3.341 -7.593,3.869 -10.254,1.259c-0.032,0.011 -0.065,0.02 -0.097,0.03c-1.737,0.507 -3.463,0.138 -4.622,-0.833c-2.231,2.173 -5.995,-5.82 -10.312,-5.82c-3.893,0 -7.414,8.26 -9.694,6.438c-0.636,0.236 -1.327,0.366 -2.05,0.366c-2.146,0 -4.019,-1.146 -4.985,-2.836c-2.876,0.434 -5.901,0.294 -8.503,-0.531c-5.688,-1.8 -7.231,-6.181 -3.441,-9.778c0.181,-0.173 0.37,-0.339 0.568,-0.501c-0.497,-0.107 -0.954,-0.351 -1.326,-0.735c-1.264,-1.309 -1.075,-3.762 0.421,-5.476c1.27,-1.458 3.082,-1.914 4.373,-1.213c2.519,-2.489 5.868,-3.266 8.44,-1.648c0.452,0.284 0.859,0.63 1.216,1.023c0.51,-0.102 1.031,-0.193 1.564,-0.272c0.301,-2.199 2.298,-4.317 5.07,-5.126c0.88,-0.257 1.753,-0.357 2.575,-0.318c0.374,-0.48 0.868,-0.839 1.452,-1.01c1.31,-0.382 2.673,0.307 3.418,1.597c0.794,-0.563 1.677,-1.073 2.635,-1.522Z" style="fill:#c3c8cb;stroke:#4c545d;stroke-width:2px;"/><path d="M39.757,18.83c2.266,-2.119 5.048,-2.899 6.981,-1.716c0.362,0.222 0.676,0.502 0.941,0.829c0.315,-0.168 0.653,-0.307 1.009,-0.413c2.86,-0.853 5.865,0.745 6.707,3.568c0.842,2.823 -0.795,5.807 -3.656,6.66l-0.071,0.021c0.251,2.623 -2.113,5.404 -5.652,6.46c-3.294,0.983 -6.555,0.157 -7.981,-1.839c-2.282,2.133 -5.087,2.913 -7.024,1.715c-0.362,-0.223 -0.674,-0.506 -0.936,-0.835c-0.317,0.168 -0.655,0.306 -1.012,0.411c-2.864,0.838 -5.861,-0.776 -6.689,-3.602c-0.829,-2.827 0.823,-5.803 3.688,-6.642l0.071,-0.022c-0.238,-2.622 2.138,-5.393 5.684,-6.432c3.275,-0.959 6.508,-0.137 7.94,1.837Z" style="fill:#959da7;stroke:#4c545d;stroke-width:2px;"/><path d="M30.593,41.204c-3.165,1.576 -6.458,1.521 -8.184,-0.4c-0.324,-0.362 -0.575,-0.77 -0.758,-1.213c-0.399,0.081 -0.813,0.123 -1.237,0.123c-3.402,-0 -6.163,-2.725 -6.163,-6.083c-0,-3.358 2.761,-6.084 6.163,-6.084l0.085,-0c0.58,-2.946 4.069,-5.215 8.279,-5.215c3.918,0 7.211,1.965 8.118,4.61c3.189,-1.586 6.506,-1.524 8.231,0.416c0.323,0.361 0.572,0.772 0.751,1.216c0.401,-0.079 0.815,-0.12 1.24,-0.118c3.401,0.018 6.149,2.757 6.132,6.114c-0.016,3.358 -2.79,6.071 -6.192,6.054l-0.085,-0c-0.594,2.942 -4.093,5.195 -8.305,5.174c-3.89,-0.02 -7.153,-1.971 -8.075,-4.594Z" style="fill:#babdbf;stroke:#4c545d;stroke-width:2px;"/><path d="M57.682,37.731c-3.224,1.487 -6.578,1.435 -8.334,-0.377c-0.33,-0.34 -0.586,-0.726 -0.771,-1.145c-0.407,0.078 -0.828,0.117 -1.261,0.117c-3.463,0 -6.274,-2.57 -6.274,-5.738c0,-3.168 2.811,-5.739 6.274,-5.739l0.086,0c0.593,-2.779 4.143,-4.919 8.431,-4.919c3.99,0 7.341,1.853 8.265,4.349c3.246,-1.498 6.623,-1.439 8.382,0.392c0.328,0.34 0.582,0.728 0.762,1.146c0.408,-0.075 0.831,-0.112 1.262,-0.111c3.465,0.017 6.261,2.601 6.246,5.767c-0.017,3.168 -2.842,5.727 -6.306,5.71l-0.085,0c-0.607,2.777 -4.169,4.902 -8.458,4.882c-3.959,-0.018 -7.283,-1.859 -8.219,-4.334Z" style="fill:#bdbdc1;stroke:#4c545d;stroke-width:2px;"/><path d="M76.696,61.182l0.506,0.041l-0.115,0.898l0.402,0.258l-0.46,0.187l-0.096,0.75l-0.616,-0.05l0.865,1.498l-1.536,-0.641l0.095,0.48l-0.806,0.184l-0.162,0.525l-0.346,-0.41l-0.801,0.182l-0.095,-0.484l-1.168,1.26l0.225,-1.744l-0.538,0.31l-0.371,-0.643l-0.497,0.03l0.274,-0.416l-0.443,-0.767l0.444,-0.256l-1.457,-0.608l1.73,-0.393l-0.499,-0.437l0.578,-0.623l-0.13,-0.36l0.382,0.088l0.644,-0.695l0.447,0.391l0.206,-1.597l0.793,1.375l0.265,-0.558l0.848,0.354l0.313,-0.244l0.018,0.382l0.768,0.321l-0.291,0.616l1.725,-0.393l-1.101,1.189Zm-3.771,-0.215l0.316,0.546l-0.256,-0.02l-0.04,0.311l-0.192,0.078l0.168,0.107l-0.048,0.374l0.21,0.017l-0.457,0.493l0.716,-0.162l-0.121,0.255l0.32,0.134l0.007,0.159l0.13,-0.102l0.353,0.147l0.11,-0.232l0.257,0.447l-0.045,0.148l-0.15,-0.177l-0.423,0.096l-0.057,-0.287l-0.6,0.647l0.109,-0.844l-0.256,0.148l-0.21,-0.363l-0.246,0.015l0.136,-0.206l-0.21,-0.362l0.257,-0.149l-0.786,-0.328l0.861,-0.195l-0.22,-0.193l0.295,-0.318l-0.079,-0.219l0.151,0.035Zm0.736,1.243l-0.124,-0.011l0.023,-0.18l-0.079,-0.05l0.09,-0.037l0.023,-0.177l0.127,0.011l-0.175,-0.303l0.324,0.135l-0.023,-0.116l0.181,-0.041l0.029,-0.094l0.062,0.074l0.176,-0.04l0.024,0.119l0.249,-0.269l-0.045,0.351l0.106,-0.062l0.087,0.151l0.103,-0.006l-0.057,0.085l0.087,0.151l-0.106,0.062l0.326,0.136l-0.357,0.081l0.091,0.08l-0.123,0.132l0.033,0.091l-0.096,-0.022l-0.126,0.136l-0.089,-0.077l-0.045,0.348l-0.175,-0.303l-0.054,0.115l-0.165,-0.069l-0.077,0.06l-0.004,-0.094l-0.167,-0.069l0.053,-0.113l-0.352,0.08l0.245,-0.265Zm1.106,-1.648l-0.368,0.397l-0.04,-0.201l-0.333,0.075l-0.144,-0.17l-0.067,0.218l-0.335,0.077l0.04,0.199l-0.486,-0.202l0.276,-0.297l0.213,0.186l0.108,-0.837l0.42,0.729l0.132,-0.277l0.395,0.165l0.185,-0.144l0.004,0.082Zm0.039,2.512l0.053,0.267l-0.36,0.081l0.057,-0.442l0.186,0.163l0.064,-0.069Zm0.366,-0.396l0.41,0.709l-0.769,-0.321l0.196,-0.212l0.159,0.036l-0.054,-0.149l0.058,-0.063Zm0.562,-0.511l0.005,0.003l-0.217,0.088l-0.055,0.426l-0.279,-0.023l0.166,-0.179l-0.207,-0.182l0.587,-0.133Zm-0.889,-1.431l0.331,0.138l-0.114,0.241l-0.048,-0.084l-0.224,0.129l0.055,-0.424Zm0.494,0.858l0.266,0.022l-0.051,0.391l-0.293,-0.123l0.184,-0.106l-0.106,-0.184Zm0.557,-0.641l-0.571,0.616l-0.064,-0.11l0.114,-0.173l-0.207,0.013l-0.092,-0.16l0.82,-0.186Z" style="fill:#e7ebee;stroke:#1fa6a4;stroke-width:0.3px;stroke-linecap:round;stroke-miterlimit:1.5;"/><path d="M40.715,50.875l0.292,0.03l-0.056,0.529l0.235,0.157l-0.262,0.104l-0.047,0.442l-0.355,-0.037l0.517,0.894l-0.893,-0.397l0.061,0.285l-0.462,0.098l-0.087,0.307l-0.204,-0.245l-0.459,0.097l-0.061,-0.287l-0.656,0.729l0.108,-1.026l-0.306,0.177l-0.222,-0.384l-0.285,0.011l0.152,-0.242l-0.264,-0.458l0.252,-0.146l-0.846,-0.376l0.991,-0.211l-0.292,-0.263l0.324,-0.361l-0.079,-0.214l0.221,0.056l0.362,-0.402l0.263,0.237l0.098,-0.939l0.474,0.82l0.145,-0.326l0.493,0.219l0.177,-0.14l0.015,0.226l0.447,0.199l-0.16,0.359l0.988,-0.21l-0.619,0.688Zm-2.174,-0.173l0.188,0.326l-0.147,-0.016l-0.019,0.184l-0.109,0.043l0.097,0.066l-0.023,0.219l0.121,0.013l-0.257,0.286l0.411,-0.088l-0.067,0.15l0.186,0.082l0.006,0.094l0.074,-0.058l0.204,0.091l0.061,-0.135l0.154,0.266l-0.025,0.087l-0.088,-0.106l-0.243,0.051l-0.036,-0.17l-0.337,0.375l0.052,-0.497l-0.146,0.084l-0.125,-0.217l-0.141,0.006l0.075,-0.12l-0.125,-0.216l0.146,-0.084l-0.456,-0.204l0.493,-0.104l-0.129,-0.117l0.166,-0.184l-0.048,-0.13l0.087,0.023Zm0.439,0.742l-0.072,-0.008l0.012,-0.106l-0.047,-0.031l0.052,-0.02l0.011,-0.104l0.073,0.008l-0.104,-0.181l0.188,0.084l-0.015,-0.069l0.104,-0.022l0.015,-0.055l0.037,0.044l0.101,-0.022l0.015,0.071l0.14,-0.156l-0.022,0.207l0.061,-0.035l0.052,0.09l0.059,-0.002l-0.032,0.049l0.052,0.09l-0.06,0.035l0.189,0.085l-0.205,0.043l0.054,0.049l-0.069,0.076l0.02,0.054l-0.056,-0.014l-0.071,0.079l-0.052,-0.047l-0.021,0.205l-0.105,-0.181l-0.029,0.067l-0.096,-0.043l-0.043,0.035l-0.004,-0.056l-0.097,-0.043l0.029,-0.066l-0.202,0.043l0.138,-0.153Zm0.616,-0.959l-0.207,0.23l-0.025,-0.119l-0.191,0.04l-0.085,-0.102l-0.036,0.128l-0.191,0.041l0.025,0.118l-0.282,-0.125l0.155,-0.172l0.125,0.112l0.051,-0.492l0.252,0.435l0.072,-0.161l0.229,0.102l0.105,-0.083l0.003,0.048Zm0.054,1.482l0.033,0.159l-0.206,0.043l0.028,-0.26l0.109,0.099l0.036,-0.041Zm0.206,-0.228l0.244,0.423l-0.446,-0.199l0.11,-0.123l0.092,0.024l-0.033,-0.089l0.033,-0.036Zm0.317,-0.295l0.003,0.002l-0.124,0.049l-0.026,0.251l-0.161,-0.017l0.093,-0.104l-0.121,-0.109l0.336,-0.072Zm-0.529,-0.855l0.192,0.086l-0.063,0.14l-0.029,-0.05l-0.127,0.074l0.027,-0.25Zm0.294,0.512l0.154,0.016l-0.025,0.23l-0.17,-0.076l0.105,-0.06l-0.064,-0.11Zm0.313,-0.371l-0.321,0.357l-0.038,-0.066l0.063,-0.101l-0.119,0.005l-0.054,-0.095l0.469,-0.1Z" style="fill:#e7ebee;stroke:#1fa6a4;stroke-width:0.3px;stroke-linecap:round;stroke-miterlimit:1.5;"/><path d="M36.381,63.835l0.292,0.031l-0.056,0.528l0.236,0.157l-0.263,0.105l-0.046,0.442l-0.355,-0.038l0.516,0.895l-0.892,-0.398l0.06,0.285l-0.462,0.098l-0.086,0.308l-0.205,-0.246l-0.458,0.098l-0.061,-0.288l-0.656,0.729l0.107,-1.026l-0.305,0.177l-0.222,-0.384l-0.286,0.011l0.153,-0.242l-0.265,-0.457l0.252,-0.146l-0.846,-0.377l0.992,-0.21l-0.293,-0.264l0.325,-0.36l-0.079,-0.214l0.221,0.056l0.362,-0.402l0.262,0.236l0.099,-0.939l0.474,0.821l0.145,-0.326l0.492,0.219l0.178,-0.14l0.015,0.225l0.446,0.199l-0.16,0.36l0.988,-0.21l-0.619,0.687Zm-2.174,-0.173l0.189,0.326l-0.148,-0.015l-0.019,0.183l-0.109,0.044l0.098,0.065l-0.023,0.22l0.121,0.012l-0.257,0.286l0.41,-0.087l-0.066,0.149l0.185,0.083l0.006,0.094l0.074,-0.059l0.205,0.092l0.06,-0.136l0.154,0.266l-0.024,0.087l-0.089,-0.106l-0.242,0.052l-0.036,-0.171l-0.338,0.375l0.052,-0.497l-0.145,0.085l-0.125,-0.217l-0.142,0.005l0.076,-0.119l-0.125,-0.217l0.146,-0.084l-0.457,-0.203l0.493,-0.105l-0.129,-0.116l0.166,-0.184l-0.048,-0.13l0.087,0.022Zm0.44,0.742l-0.072,-0.007l0.011,-0.106l-0.046,-0.031l0.051,-0.021l0.011,-0.104l0.073,0.008l-0.104,-0.181l0.188,0.084l-0.015,-0.068l0.104,-0.023l0.016,-0.055l0.037,0.044l0.1,-0.021l0.015,0.071l0.141,-0.156l-0.022,0.206l0.06,-0.035l0.052,0.09l0.059,-0.002l-0.031,0.05l0.052,0.09l-0.061,0.035l0.19,0.084l-0.205,0.044l0.053,0.048l-0.068,0.077l0.02,0.054l-0.056,-0.015l-0.071,0.079l-0.052,-0.047l-0.022,0.205l-0.104,-0.181l-0.03,0.067l-0.095,-0.042l-0.044,0.034l-0.004,-0.055l-0.097,-0.043l0.029,-0.066l-0.201,0.043l0.138,-0.154Zm0.616,-0.958l-0.207,0.23l-0.026,-0.12l-0.19,0.041l-0.085,-0.102l-0.036,0.128l-0.192,0.04l0.025,0.119l-0.282,-0.126l0.155,-0.172l0.125,0.113l0.052,-0.492l0.251,0.435l0.072,-0.162l0.23,0.102l0.105,-0.082l0.003,0.048Zm0.053,1.482l0.034,0.158l-0.206,0.044l0.027,-0.26l0.109,0.098l0.036,-0.04Zm0.206,-0.229l0.245,0.424l-0.447,-0.199l0.111,-0.123l0.092,0.023l-0.033,-0.089l0.032,-0.036Zm0.317,-0.294l0.003,0.002l-0.124,0.049l-0.026,0.25l-0.161,-0.017l0.094,-0.103l-0.122,-0.11l0.336,-0.071Zm-0.529,-0.856l0.192,0.086l-0.062,0.141l-0.029,-0.05l-0.127,0.073l0.026,-0.25Zm0.295,0.513l0.153,0.016l-0.024,0.23l-0.171,-0.076l0.105,-0.061l-0.063,-0.109Zm0.312,-0.372l-0.321,0.357l-0.038,-0.066l0.064,-0.1l-0.119,0.004l-0.055,-0.095l0.469,-0.1Z" style="fill:#e7ebee;stroke:#1fa6a4;stroke-width:0.3px;stroke-linecap:round;stroke-miterlimit:1.5;"/><path d="M16.076,74.008l-0.283,0.078l-0.141,-0.512l-0.276,-0.06l0.206,-0.193l-0.118,-0.428l0.344,-0.096l-0.808,-0.643l0.976,0.043l-0.161,-0.243l0.394,-0.26l-0.032,-0.318l0.281,0.154l0.391,-0.258l0.162,0.245l0.344,-0.919l0.275,0.995l0.22,-0.276l0.346,0.276l0.262,-0.115l-0.053,0.281l0.413,0.33l-0.181,0.227l0.925,0.042l-0.846,0.558l0.369,0.138l-0.17,0.454l0.151,0.171l-0.226,0.028l-0.19,0.507l-0.331,-0.124l0.252,0.91l-0.741,-0.591l-0.016,0.357l-0.539,-0.024l-0.114,0.195l-0.096,-0.204l-0.488,-0.022l0.017,-0.394l-0.843,0.557l0.325,-0.866Zm2.087,-0.633l-0.295,-0.235l0.143,-0.04l-0.049,-0.178l0.086,-0.08l-0.115,-0.025l-0.059,-0.213l-0.118,0.033l0.135,-0.36l-0.35,0.231l0.007,-0.163l-0.202,-0.009l-0.04,-0.085l-0.048,0.081l-0.224,-0.01l-0.006,0.148l-0.241,-0.192l-0.009,-0.09l0.121,0.067l0.207,-0.137l0.096,0.146l0.177,-0.472l0.133,0.481l0.105,-0.132l0.196,0.156l0.129,-0.057l-0.027,0.139l0.196,0.156l-0.105,0.132l0.499,0.022l-0.42,0.278l0.162,0.061l-0.087,0.232l0.092,0.103l-0.089,0.012Zm-0.68,-0.531l0.069,-0.019l0.029,0.103l0.054,0.012l-0.041,0.038l0.028,0.1l-0.071,0.02l0.163,0.13l-0.205,-0.009l0.039,0.058l-0.089,0.059l0.006,0.057l-0.051,-0.028l-0.086,0.057l-0.039,-0.06l-0.074,0.196l-0.055,-0.2l-0.044,0.055l-0.081,-0.065l-0.054,0.023l0.011,-0.057l-0.081,-0.065l0.043,-0.055l-0.207,-0.009l0.175,-0.116l-0.068,-0.025l0.036,-0.096l-0.038,-0.043l0.057,-0.008l0.038,-0.099l0.065,0.025l-0.055,-0.199l0.164,0.131l0.003,-0.074l0.104,0.005l0.028,-0.048l0.024,0.05l0.106,0.005l-0.003,0.072l0.172,-0.114l-0.072,0.193Zm-0.223,1.118l0.108,-0.29l0.067,0.102l0.163,-0.108l0.116,0.064l-0.013,-0.132l0.164,-0.108l-0.067,-0.101l0.308,0.014l-0.081,0.217l-0.157,-0.059l0.131,0.477l-0.392,-0.314l-0.008,0.177l-0.252,-0.011l-0.067,0.115l-0.02,-0.043Zm-0.592,-1.36l-0.089,-0.135l0.176,-0.116l0.069,0.252l-0.137,-0.052l-0.019,0.051Zm-0.108,0.288l-0.383,-0.305l0.489,0.022l-0.058,0.155l-0.094,0.012l0.063,0.07l-0.017,0.046Zm-0.187,0.39l-0.004,-0.001l0.097,-0.091l-0.067,-0.243l0.156,-0.043l-0.049,0.131l0.153,0.058l-0.286,0.189Zm0.805,0.603l-0.211,-0.01l0.007,-0.154l0.045,0.036l0.092,-0.115l0.067,0.243Zm-0.462,-0.37l-0.148,0.041l-0.062,-0.223l0.186,0.009l-0.075,0.094l0.099,0.079Zm-0.155,0.46l0.168,-0.449l0.06,0.047l-0.023,0.117l0.109,-0.048l0.086,0.069l-0.4,0.264Z" style="fill:#e7ebee;stroke:#1fa6a4;stroke-width:0.3px;stroke-linecap:round;stroke-miterlimit:1.5;"/><path d="M72.105,46.646l0.107,0.274l-0.494,0.193l-0.032,0.281l-0.213,-0.185l-0.414,0.162l-0.13,-0.332l-0.557,0.87l-0.057,-0.976l-0.225,0.185l-0.3,-0.365l-0.313,0.065l0.125,-0.295l-0.298,-0.362l0.227,-0.186l-0.949,-0.248l0.961,-0.376l-0.298,-0.19l0.239,-0.374l-0.141,-0.248l0.285,0.024l0.285,-0.445l0.245,0.157l-0.055,-0.925l0.643,0.784l0.1,-0.381l0.469,0.122l0.154,-0.169l0.052,0.223l0.523,0.136l-0.089,0.342l0.879,-0.344l-0.511,0.798l0.357,-0.021l0.031,0.538l0.206,0.093l-0.193,0.117l0.029,0.488l-0.393,0.023l0.64,0.781l-0.895,-0.234Zm-0.845,-2.009l-0.203,0.317l-0.054,-0.138l-0.172,0.067l-0.089,-0.077l-0.013,0.117l-0.206,0.08l0.045,0.114l-0.372,-0.097l0.266,0.324l-0.163,0.01l0.012,0.203l-0.081,0.048l0.086,0.039l0.013,0.224l0.148,-0.009l-0.166,0.259l-0.088,0.018l0.054,-0.127l-0.157,-0.192l0.134,-0.11l-0.488,-0.127l0.465,-0.182l-0.142,-0.091l0.135,-0.211l-0.07,-0.123l0.141,0.012l0.135,-0.21l0.142,0.091l-0.029,-0.499l0.319,0.39l0.044,-0.168l0.24,0.062l0.093,-0.102l0.021,0.088Zm-0.457,0.731l-0.027,-0.067l0.099,-0.039l0.007,-0.055l0.041,0.036l0.098,-0.038l0.027,0.068l0.112,-0.175l0.012,0.205l0.054,-0.044l0.068,0.082l0.056,-0.012l-0.022,0.053l0.065,0.08l-0.056,0.045l0.203,0.053l-0.193,0.076l0.059,0.038l-0.056,0.087l0.029,0.051l-0.059,-0.005l-0.056,0.088l-0.059,-0.038l0.012,0.207l-0.133,-0.162l-0.018,0.07l-0.099,-0.026l-0.039,0.043l-0.013,-0.056l-0.103,-0.027l0.018,-0.068l-0.192,0.075l0.113,-0.176l-0.074,0.005l-0.006,-0.105l-0.05,-0.022l0.047,-0.029l-0.006,-0.106l0.072,-0.005l-0.131,-0.159l0.2,0.052Zm1.134,0.106l-0.299,-0.078l0.094,-0.077l-0.124,-0.151l0.052,-0.122l-0.13,0.027l-0.125,-0.152l-0.093,0.077l-0.018,-0.308l0.224,0.058l-0.043,0.163l0.461,-0.18l-0.271,0.423l0.177,-0.011l0.015,0.251l0.121,0.055l-0.041,0.025Zm-1.292,0.729l-0.125,0.103l-0.133,-0.163l0.243,-0.095l-0.037,0.142l0.052,0.013Zm0.298,0.078l-0.263,0.412l-0.029,-0.488l0.16,0.041l0.021,0.093l0.064,-0.07l0.047,0.012Zm0.408,0.146l-0.001,0.003l-0.101,-0.087l-0.234,0.092l-0.059,-0.151l0.135,0.036l0.042,-0.159l0.218,0.266Zm0.516,-0.863l0.012,0.21l-0.154,0.009l0.031,-0.049l-0.123,-0.079l0.234,-0.091Zm-0.32,0.497l0.057,0.144l-0.216,0.084l-0.011,-0.186l0.102,0.065l0.068,-0.107Zm0.474,0.107l-0.465,-0.121l0.041,-0.064l0.119,0.01l-0.059,-0.103l0.059,-0.093l0.305,0.371Z" style="fill:#e7ebee;stroke:#1fa6a4;stroke-width:0.3px;stroke-linecap:round;stroke-miterlimit:1.5;"/><path d="M43.63,61.522l-0.274,0.714l-1.051,-0.403l-0.441,0.386l-0.068,-0.582l-1.034,-0.396l0.28,-0.728l-2.133,0.572l1.369,-1.691l-0.74,-0.039l0.059,-1.121l-0.523,-0.311l0.552,-0.254l0.057,-1.088l0.764,0.04l-1.207,-1.859l2.05,0.786l-0.192,-0.714l1.063,-0.285l0.137,-0.607l0.422,0.457l1.062,-0.284l0.192,0.715l1.382,-1.707l-0.116,2.213l0.64,-0.416l0.594,0.914l0.606,-0.056l-0.297,0.531l0.611,0.941l-0.621,0.403l2.032,0.78l-2.134,0.572l0.605,0.49l-0.696,0.859l0.232,0.539l-0.575,-0.114l-0.709,0.876l-0.594,-0.481l-0.114,2.18l-1.19,-1.832Zm-1.146,-5.29l0.065,-1.243l0.678,1.044l-0.162,0.043l-0.222,-0.247l-0.069,0.325l-0.29,0.078Zm1.562,-0.333l-0.325,0.413l-0.103,-0.384l-0.319,0.085l0.134,-0.349l0.613,0.235Zm-2.285,0.561l0.36,-0.444l0.291,0.235l-0.191,0.051l0.103,0.384l-0.563,-0.226Zm-0.541,3.04l0.143,-0.255l-0.369,-0.568l0.375,-0.244l-1.228,-0.471l1.29,-0.345l-0.366,-0.297l0.42,-0.519l-0.14,-0.326l0.053,0.011l0.491,0.772l-0.399,-0.025l-0.025,0.584l-0.287,0.134l0.274,0.169l-0.026,0.602l0.386,0.024l-0.592,0.754Zm2.138,-2.512l0.085,-0.23l0.332,0.133l0.138,-0.124l0.024,0.189l0.326,0.131l-0.086,0.235l0.671,-0.18l-0.427,0.545l0.233,0.014l-0.015,0.364l0.165,0.102l-0.173,0.081l-0.016,0.353l-0.24,-0.015l0.385,0.605l-0.648,-0.26l0.062,0.232l-0.334,0.09l-0.042,0.196l-0.134,-0.149l-0.334,0.09l-0.063,-0.233l-0.431,0.55l0.031,-0.717l-0.201,0.133l-0.19,-0.298l-0.191,0.017l0.093,-0.172l-0.195,-0.306l0.194,-0.129l-0.642,-0.258l0.671,-0.18l-0.192,-0.161l0.217,-0.277l-0.074,-0.175l0.182,0.039l0.221,-0.282l0.188,0.157l0.031,-0.707l0.379,0.597Zm1.643,-0.722l-0.132,0.342l-0.152,-0.239l-0.333,0.22l0.024,-0.551l0.593,0.228Zm1.12,0.094l-0.79,0.975l-0.138,-0.217l0.154,-0.284l-0.317,0.028l-0.114,-0.179l1.205,-0.323Zm-0.381,1.045l-0.033,0.64l-0.513,-0.206l0.322,-0.213l-0.153,-0.241l0.377,0.02Zm-0.458,1.657l0.183,-0.232l-0.318,-0.266l0.564,-0.151l-0.024,0.011l-0.035,0.657l-0.37,-0.019Zm-3.76,0.473l0.694,-0.186l-0.143,0.389l0.541,0.218l0.038,0.312l0.228,-0.205l0.551,0.221l0.14,-0.382l0.471,0.741l-0.224,-0.244l-0.642,0.172l-0.116,-0.432l-0.835,1.032l0.07,-1.338l-0.387,0.252l-0.358,-0.552l-0.028,0.002Zm3.712,-0.412l0.686,1.057l-1.165,-0.447l0.173,-0.219l0.3,0.064l-0.123,-0.29l0.129,-0.165Zm-0.436,1.014l-0.573,0.153l0.025,-0.57l0.311,0.261l0.145,-0.185l0.092,0.341Z" style="fill:#e7ebee;stroke:#1fa6a4;stroke-width:0.3px;stroke-linecap:round;stroke-miterlimit:1.5;"/><path d="M48.75,62.04l-0.911,-0.442l0.711,-1.281l-0.445,-0.611l0.79,-0.01l0.698,-1.258l0.928,0.451l-0.418,-2.783l2.039,1.962l0.172,-0.933l1.491,0.223l0.5,-0.622l0.25,0.735l1.447,0.217l-0.178,0.964l2.683,-1.285l-1.386,2.496l0.987,-0.148l0.208,1.387l0.789,0.254l-0.679,0.475l0.207,1.386l-0.988,0.148l2.059,1.981l-2.941,-0.441l0.452,0.868l-1.319,0.631l-0.024,0.778l-0.662,-0.449l-1.358,0.651l-0.438,-0.841l-1.374,2.474l-0.417,-2.784l-0.755,0.703l-1.036,-0.997l-0.759,0.223l0.247,-0.715l-1.056,-1.017l0.74,-0.689l-2.897,-0.434l2.643,-1.267Zm7.263,-0.752l1.652,0.248l-1.507,0.721l-0.031,-0.21l0.366,-0.249l-0.423,-0.131l-0.057,-0.379Zm0.191,2.026l-0.5,-0.466l0.531,-0.08l-0.062,-0.416l0.445,0.216l-0.414,0.746Zm-0.379,-2.973l0.536,0.516l-0.362,0.337l-0.038,-0.249l-0.53,0.08l0.394,-0.684Zm-3.978,-1.09l0.317,0.214l0.821,-0.393l0.265,0.508l0.829,-1.495l0.253,1.682l0.456,-0.424l0.626,0.602l0.458,-0.135l-0.023,0.066l-1.112,0.521l0.098,-0.503l-0.777,-0.11l-0.133,-0.382l-0.27,0.326l-0.8,-0.113l-0.095,0.487l-0.913,-0.851Zm3.012,3.046l0.294,0.138l-0.232,0.405l0.143,0.191l-0.256,0.004l-0.229,0.398l-0.3,-0.141l0.131,0.875l-0.659,-0.614l-0.057,0.294l-0.484,-0.068l-0.163,0.196l-0.08,-0.23l-0.469,-0.067l0.059,-0.303l-0.873,0.408l0.453,-0.788l-0.32,0.048l-0.066,-0.436l-0.256,-0.079l0.222,-0.15l-0.065,-0.436l0.321,-0.048l-0.666,-0.621l0.955,0.135l-0.146,-0.273l0.429,-0.201l0.009,-0.245l0.214,0.141l0.442,-0.207l0.141,0.264l0.45,-0.781l0.131,0.876l0.246,-0.223l0.335,0.312l0.247,-0.071l-0.082,0.226l0.342,0.318l-0.241,0.218l0.94,0.133l-0.86,0.402Zm0.699,2.18l-0.437,-0.212l0.345,-0.161l-0.241,-0.452l0.733,0.104l-0.4,0.721Zm-0.308,1.409l-1.176,-1.131l0.313,-0.146l0.354,0.232l0.015,-0.405l0.258,-0.121l0.236,1.571Zm-1.336,-0.621l-0.851,-0.128l0.359,-0.623l0.233,0.437l0.347,-0.162l-0.088,0.476Zm-2.142,-0.802l0.281,0.263l0.407,-0.369l0.111,0.737l-0.011,-0.032l-0.874,-0.132l0.086,-0.467Zm-0.021,-4.835l0.136,0.905l-0.498,-0.232l-0.378,0.657l-0.424,0.007l0.237,0.317l-0.385,0.669l0.488,0.229l-1.067,0.5l0.361,-0.253l-0.125,-0.837l0.597,-0.09l-1.244,-1.197l1.777,0.267l-0.273,-0.525l0.797,-0.381l0.001,-0.036Zm-0.053,4.766l-1.526,0.731l0.788,-1.419l0.265,0.247l-0.134,0.374l0.408,-0.118l0.199,0.185Zm-1.285,-0.688l-0.112,-0.747l0.758,0.106l-0.399,0.361l0.224,0.209l-0.471,0.071Z" style="fill:#e7ebee;stroke:#1fa6a4;stroke-width:0.3px;stroke-linecap:round;stroke-miterlimit:1.5;"/><path d="M33.166,59.047l-0.223,0.575l-0.851,-0.323l-0.357,0.312l-0.055,-0.468l-0.836,-0.317l0.228,-0.585l-1.729,0.463l1.112,-1.361l-0.599,-0.03l0.05,-0.901l-0.423,-0.249l0.448,-0.205l0.048,-0.875l0.618,0.031l-0.974,-1.491l1.658,0.628l-0.153,-0.574l0.861,-0.231l0.112,-0.487l0.341,0.366l0.86,-0.23l0.154,0.574l1.123,-1.374l-0.098,1.778l0.519,-0.335l0.479,0.733l0.491,-0.046l-0.242,0.428l0.493,0.755l-0.503,0.325l1.644,0.623l-1.73,0.463l0.49,0.393l-0.565,0.692l0.187,0.432l-0.466,-0.091l-0.576,0.705l-0.48,-0.385l-0.096,1.752l-0.96,-1.47Zm-0.919,-4.249l0.055,-0.999l0.547,0.838l-0.131,0.035l-0.179,-0.198l-0.056,0.261l-0.236,0.063Zm1.265,-0.27l-0.263,0.333l-0.083,-0.309l-0.258,0.069l0.109,-0.281l0.495,0.188Zm-1.85,0.455l0.292,-0.358l0.235,0.189l-0.155,0.041l0.083,0.309l-0.455,-0.181Zm-0.444,2.443l0.116,-0.204l-0.298,-0.457l0.304,-0.196l-0.993,-0.376l1.045,-0.28l-0.296,-0.238l0.341,-0.417l-0.112,-0.262l0.042,0.008l0.397,0.62l-0.323,-0.019l-0.022,0.469l-0.232,0.108l0.221,0.135l-0.022,0.484l0.313,0.018l-0.481,0.607Zm1.736,-2.021l0.069,-0.186l0.269,0.107l0.112,-0.1l0.018,0.151l0.265,0.105l-0.071,0.189l0.544,-0.145l-0.347,0.438l0.189,0.011l-0.013,0.292l0.134,0.082l-0.141,0.065l-0.013,0.284l-0.195,-0.012l0.311,0.486l-0.524,-0.208l0.05,0.187l-0.271,0.072l-0.035,0.158l-0.108,-0.119l-0.271,0.072l-0.05,-0.187l-0.35,0.443l0.026,-0.576l-0.163,0.107l-0.152,-0.239l-0.155,0.014l0.075,-0.138l-0.157,-0.246l0.157,-0.104l-0.519,-0.206l0.544,-0.146l-0.156,-0.129l0.177,-0.223l-0.06,-0.14l0.147,0.03l0.179,-0.227l0.153,0.126l0.026,-0.567l0.306,0.479Zm1.331,-0.584l-0.107,0.275l-0.123,-0.192l-0.269,0.178l0.02,-0.443l0.479,0.182Zm0.907,0.074l-0.641,0.784l-0.111,-0.174l0.124,-0.228l-0.256,0.023l-0.092,-0.144l0.976,-0.261Zm-0.31,0.84l-0.028,0.514l-0.415,-0.164l0.261,-0.172l-0.123,-0.193l0.305,0.015Zm-0.374,1.332l0.148,-0.187l-0.257,-0.213l0.458,-0.122l-0.02,0.009l-0.029,0.528l-0.3,-0.015Zm-3.046,0.387l0.562,-0.15l-0.116,0.313l0.438,0.173l0.03,0.251l0.185,-0.165l0.446,0.176l0.114,-0.307l0.38,0.595l-0.181,-0.195l-0.52,0.139l-0.093,-0.347l-0.678,0.83l0.059,-1.074l-0.314,0.202l-0.289,-0.443l-0.023,0.002Zm3.007,-0.337l0.554,0.848l-0.943,-0.357l0.14,-0.177l0.244,0.051l-0.1,-0.233l0.105,-0.132Zm-0.355,0.815l-0.464,0.124l0.021,-0.458l0.252,0.209l0.117,-0.149l0.074,0.274Z" style="fill:#e7ebee;stroke:#1fa6a4;stroke-width:0.3px;stroke-linecap:round;stroke-miterlimit:1.5;"/><path d="M77.834,55.883l-0.185,0.747l-0.914,-0.501l-0.347,0.385l-0.096,-0.628l-0.898,-0.492l0.188,-0.761l-1.763,0.472l1.045,-1.721l-0.627,-0.09l-0.024,-1.197l-0.461,-0.367l0.449,-0.236l-0.023,-1.162l0.648,0.093l-1.141,-2.07l1.781,0.977l-0.208,-0.778l0.879,-0.236l0.076,-0.641l0.386,0.517l0.878,-0.235l0.208,0.779l1.056,-1.738l0.047,2.363l0.513,-0.404l0.561,1.018l0.508,-0.02l-0.216,0.549l0.577,1.048l-0.497,0.391l1.766,0.968l-1.764,0.473l0.543,0.565l-0.531,0.874l0.231,0.593l-0.494,-0.161l-0.541,0.892l-0.532,-0.554l0.046,2.328l-1.124,-2.04Zm-1.315,-5.741l-0.026,-1.327l0.641,1.162l-0.134,0.036l-0.204,-0.279l-0.036,0.343l-0.241,0.065Zm1.297,-0.254l-0.247,0.421l-0.112,-0.419l-0.263,0.071l0.09,-0.365l0.532,0.292Zm-1.892,0.451l0.275,-0.452l0.261,0.271l-0.158,0.042l0.112,0.418l-0.49,-0.279Zm-0.257,3.22l0.103,-0.263l-0.349,-0.633l0.301,-0.236l-1.067,-0.585l1.066,-0.286l-0.328,-0.341l0.321,-0.529l-0.14,-0.358l0.045,0.015l0.465,0.859l-0.338,-0.053l0.017,0.624l-0.234,0.125l0.243,0.199l0.017,0.642l0.328,0.051l-0.45,0.769Zm1.64,-2.55l0.057,-0.241l0.289,0.165l0.108,-0.124l0.032,0.203l0.285,0.162l-0.058,0.246l0.555,-0.148l-0.325,0.555l0.198,0.031l0.011,0.388l0.146,0.12l-0.141,0.076l0.01,0.376l-0.204,-0.031l0.365,0.674l-0.565,-0.322l0.068,0.253l-0.276,0.074l-0.023,0.208l-0.123,-0.169l-0.276,0.074l-0.068,-0.253l-0.328,0.561l-0.021,-0.766l-0.161,0.129l-0.179,-0.331l-0.16,0.005l0.067,-0.177l-0.185,-0.342l0.156,-0.125l-0.56,-0.319l0.555,-0.148l-0.172,-0.185l0.165,-0.282l-0.075,-0.193l0.156,0.054l0.169,-0.288l0.169,0.181l-0.02,-0.755l0.359,0.664Zm1.339,-0.666l-0.088,0.358l-0.144,-0.266l-0.267,0.214l-0.016,-0.588l0.515,0.282Zm0.952,0.174l-0.602,0.992l-0.131,-0.241l0.111,-0.294l-0.265,0.009l-0.108,-0.199l0.995,-0.267Zm-0.253,1.094l0.014,0.684l-0.446,-0.254l0.258,-0.208l-0.145,-0.268l0.319,0.046Zm-0.278,1.745l0.139,-0.237l-0.286,-0.305l0.467,-0.125l-0.02,0.01l0.014,0.702l-0.314,-0.045Zm-3.144,0.261l0.574,-0.154l-0.095,0.407l0.471,0.268l0.053,0.338l0.179,-0.205l0.479,0.272l0.093,-0.4l0.447,0.825l-0.206,-0.275l-0.53,0.142l-0.126,-0.471l-0.638,1.05l-0.028,-1.427l-0.311,0.244l-0.338,-0.615l-0.024,0.001Zm3.107,-0.198l0.649,1.177l-1.013,-0.555l0.131,-0.224l0.259,0.088l-0.123,-0.319l0.097,-0.167Zm-0.302,1.057l-0.473,0.126l-0.016,-0.608l0.28,0.299l0.11,-0.189l0.099,0.372Z" style="fill:#e7ebee;stroke:#1fa6a4;stroke-width:0.3px;stroke-linecap:round;stroke-miterlimit:1.5;"/><path d="M11.201,59.591l-0.541,0.176l-0.289,-0.797l-0.437,-0.073l0.297,-0.313l-0.284,-0.783l0.552,-0.179l-1.377,-0.965l1.637,-0l-0.343,-0.446l0.667,-0.491l-0.081,-0.447l0.417,0.2l0.647,-0.477l0.354,0.46l0.462,-1.568l0.563,1.553l0.312,-0.446l0.686,0.481l0.413,-0.205l-0.052,0.458l0.686,0.481l-0.313,0.445l1.653,-0l-1.316,0.969l0.552,0.176l-0.227,0.77l0.331,0.325l-0.449,0.076l-0.234,0.794l-0.535,-0.17l0.558,1.539l-1.378,-0.965l0.02,0.579l-0.832,0.001l-0.192,0.386l-0.219,-0.386l-0.848,0l-0.019,-0.568l-1.296,0.955l0.455,-1.545Zm2.444,-3.14l0.739,-0.544l-0.259,0.88l-0.104,-0.073l0.031,-0.244l-0.219,0.112l-0.188,-0.131Zm0.96,0.747l-0.395,0.006l0.168,-0.24l-0.206,-0.144l0.264,-0.086l0.169,0.464Zm-1.446,-1.058l0.43,0l0.01,0.278l-0.123,-0.086l-0.168,0.239l-0.149,-0.431Zm-1.996,1.111l0.215,-0.037l0.142,-0.479l0.323,0.102l-0.337,-0.93l0.832,0.584l-0.012,-0.35l0.503,-0.001l0.116,-0.233l0.02,0.035l-0.197,0.646l-0.182,-0.242l-0.345,0.258l-0.218,-0.103l0.039,0.238l-0.355,0.266l0.177,0.235l-0.721,0.011Zm2.483,0.06l0.173,-0.06l0.088,0.255l0.139,0.022l-0.096,0.101l0.086,0.251l-0.176,0.06l0.433,0.304l-0.52,0.008l0.107,0.141l-0.215,0.161l0.024,0.144l-0.132,-0.062l-0.208,0.156l-0.11,-0.146l-0.155,0.506l-0.171,-0.496l-0.102,0.144l-0.216,-0.151l-0.132,0.068l0.019,-0.148l-0.216,-0.151l0.102,-0.145l-0.526,0.009l0.423,-0.318l-0.175,-0.054l0.076,-0.249l-0.103,-0.103l0.143,-0.026l0.078,-0.257l0.17,0.052l-0.17,-0.492l0.433,0.304l-0.004,-0.186l0.265,-0.004l0.063,-0.126l0.068,0.124l0.269,-0.005l0.004,0.183l0.416,-0.313l-0.152,0.499Zm1.221,0.61l-0.26,0.085l0.061,-0.201l-0.289,-0.088l0.325,-0.245l0.163,0.449Zm0.499,0.692l-0.944,-0l0.055,-0.181l0.237,-0.045l-0.171,-0.17l0.045,-0.149l0.778,0.545Zm-0.782,0.269l-0.381,0.28l-0.135,-0.392l0.28,0.086l0.061,-0.201l0.175,0.227Zm-1.169,0.511l0.222,-0.003l-0.005,-0.308l0.364,0.255l-0.018,-0.009l-0.391,0.288l-0.172,-0.223Zm-2.123,-1.951l0.448,0.314l-0.292,0.099l0.143,0.415l-0.159,0.168l0.23,0.036l0.145,0.421l0.287,-0.098l-0.189,0.62l0.027,-0.244l-0.414,-0.29l0.189,-0.269l-0.999,-0l0.795,-0.586l-0.333,-0.106l0.137,-0.465l-0.015,-0.015Zm2.064,1.952l-0.262,0.892l-0.32,-0.883l0.209,-0.003l0.112,0.204l0.105,-0.207l0.156,-0.003Zm-0.791,0.223l-0.37,-0.259l0.337,-0.253l0.005,0.302l0.177,-0.003l-0.149,0.213Z" style="fill:#e7ebee;stroke:#1fa6a4;stroke-width:0.3px;stroke-linecap:round;stroke-miterlimit:1.5;"/><path d="M10.811,49.006l-0.472,0.32l-0.498,-0.686l-0.44,0.051l0.199,-0.383l-0.49,-0.673l0.48,-0.325l-1.59,-0.546l1.573,-0.454l-0.453,-0.333l0.505,-0.657l-0.202,-0.407l0.456,0.076l0.49,-0.637l0.467,0.344l0.01,-1.635l0.971,1.336l0.176,-0.514l0.793,0.272l0.34,-0.311l0.077,0.454l0.791,0.272l-0.176,0.514l1.588,-0.458l-0.996,1.296l0.579,0.015l-0.005,0.804l0.408,0.22l-0.41,0.198l-0.005,0.828l-0.561,-0.015l0.962,1.324l-1.591,-0.546l0.18,0.551l-0.799,0.231l-0.078,0.425l-0.317,-0.311l-0.815,0.235l-0.176,-0.54l-0.981,1.276l0.01,-1.611Zm1.478,-3.694l0.559,-0.728l-0.005,0.918l-0.12,-0.041l-0.038,-0.243l-0.179,0.169l-0.217,-0.075Zm1.129,0.452l-0.378,0.115l0.095,-0.276l-0.238,-0.082l0.231,-0.156l0.29,0.399Zm-1.682,-0.615l0.413,-0.12l0.087,0.265l-0.143,-0.049l-0.095,0.277l-0.262,-0.373Zm-1.61,1.62l0.197,-0.095l0.002,-0.5l0.34,0.009l-0.582,-0.8l0.961,0.33l-0.108,-0.333l0.483,-0.14l0.047,-0.256l0.029,0.028l-0.011,0.675l-0.242,-0.182l-0.259,0.344l-0.238,-0.039l0.103,0.218l-0.267,0.354l0.235,0.176l-0.69,0.211Zm2.402,-0.631l0.15,-0.105l0.155,0.221l0.139,-0.018l-0.064,0.124l0.153,0.217l-0.153,0.107l0.5,0.171l-0.497,0.152l0.141,0.107l-0.161,0.214l0.062,0.131l-0.143,-0.023l-0.157,0.208l-0.146,-0.11l-0.009,0.529l-0.302,-0.429l-0.057,0.167l-0.25,-0.086l-0.108,0.102l-0.023,-0.147l-0.249,-0.085l0.057,-0.167l-0.502,0.153l0.318,-0.423l-0.183,-0.003l0.004,-0.26l-0.128,-0.07l0.131,-0.066l0.004,-0.268l0.177,0.004l-0.3,-0.426l0.501,0.172l-0.055,-0.178l0.253,-0.078l0.026,-0.137l0.099,0.099l0.258,-0.078l0.053,0.174l0.314,-0.416l-0.008,0.521Zm1.342,0.249l-0.226,0.153l0.004,-0.21l-0.303,-0.005l0.245,-0.325l0.28,0.387Zm0.671,0.526l-0.907,0.261l0.003,-0.189l0.216,-0.108l-0.212,-0.116l0.002,-0.156l0.898,0.308Zm-0.677,0.475l-0.288,0.375l-0.239,-0.339l0.294,0.005l0.003,-0.211l0.23,0.17Zm-0.981,0.815l0.213,-0.065l-0.091,-0.294l0.421,0.144l-0.02,-0.003l-0.296,0.385l-0.227,-0.167Zm-2.581,-1.286l0.518,0.177l-0.253,0.177l0.252,0.358l-0.106,0.206l0.231,-0.029l0.257,0.364l0.248,-0.173l-0.01,0.647l-0.042,-0.241l-0.478,-0.164l0.107,-0.312l-0.96,0.277l0.602,-0.783l-0.35,-0.009l0.003,-0.485l-0.019,-0.01Zm2.525,1.303l-0.005,0.93l-0.552,-0.759l0.2,-0.062l0.164,0.165l0.043,-0.228l0.15,-0.046Zm-0.699,0.433l-0.427,-0.146l0.253,-0.336l0.089,0.289l0.169,-0.052l-0.084,0.245Z" style="fill:#e7ebee;stroke:#1fa6a4;stroke-width:0.3px;stroke-linecap:round;stroke-miterlimit:1.5;"/><path d="M21.619,57.802l-0.707,0.496l-0.73,-1.041l-0.657,0.085l0.303,-0.589l-0.718,-1.023l0.72,-0.506l-2.358,-0.809l2.348,-0.721l-0.668,-0.503l0.762,-1.014l-0.294,-0.62l0.678,0.109l0.74,-0.983l0.69,0.519l0.041,-2.504l1.424,2.03l0.271,-0.79l1.175,0.403l0.511,-0.482l0.108,0.694l1.174,0.403l-0.272,0.791l2.372,-0.728l-1.504,2.001l0.862,0.014l-0.021,1.23l0.604,0.33l-0.614,0.311l-0.021,1.267l-0.835,-0.014l1.411,2.012l-2.36,-0.81l0.258,0.841l-1.193,0.367l-0.123,0.651l-0.467,-0.47l-1.216,0.373l-0.253,-0.824l-1.481,1.97l0.04,-2.466Zm2.262,-5.681l0.844,-1.123l-0.023,1.405l-0.178,-0.061l-0.052,-0.372l-0.27,0.262l-0.321,-0.111Zm1.673,0.673l-0.565,0.183l0.146,-0.425l-0.352,-0.121l0.345,-0.243l0.426,0.606Zm-2.494,-0.914l0.617,-0.19l0.124,0.404l-0.211,-0.072l-0.146,0.425l-0.384,-0.567Zm-2.423,2.507l0.294,-0.148l0.012,-0.766l0.505,0.008l-0.853,-1.215l1.426,0.489l-0.156,-0.508l0.721,-0.222l0.074,-0.393l0.043,0.043l-0.027,1.033l-0.358,-0.274l-0.391,0.531l-0.354,-0.056l0.151,0.331l-0.404,0.548l0.347,0.266l-1.03,0.333Zm3.586,-1.005l0.225,-0.163l0.227,0.335l0.208,-0.03l-0.098,0.192l0.224,0.329l-0.229,0.166l0.742,0.255l-0.744,0.24l0.209,0.161l-0.244,0.331l0.091,0.2l-0.213,-0.034l-0.237,0.321l-0.216,-0.166l-0.021,0.811l-0.443,-0.653l-0.088,0.257l-0.37,-0.127l-0.163,0.158l-0.032,-0.224l-0.369,-0.127l0.088,-0.257l-0.751,0.243l0.481,-0.653l-0.272,-0.001l0.011,-0.399l-0.19,-0.105l0.195,-0.102l0.011,-0.411l0.263,0.002l-0.439,-0.647l0.742,0.255l-0.078,-0.272l0.378,-0.122l0.04,-0.211l0.146,0.151l0.385,-0.125l0.078,0.266l0.474,-0.643l-0.021,0.799Zm1.994,0.358l-0.339,0.238l0.008,-0.32l-0.45,-0.003l0.369,-0.501l0.412,0.586Zm0.99,0.795l-1.354,0.415l0.007,-0.29l0.323,-0.169l-0.314,-0.174l0.006,-0.239l1.332,0.457Zm-1.015,0.739l-0.435,0.579l-0.351,-0.516l0.437,0.003l0.008,-0.322l0.341,0.256Zm-1.474,1.264l0.317,-0.103l-0.13,-0.449l0.624,0.214l-0.03,-0.005l-0.447,0.595l-0.334,-0.252Zm-3.821,-1.928l0.767,0.264l-0.379,0.274l0.37,0.545l-0.162,0.317l0.344,-0.049l0.376,0.554l0.372,-0.269l-0.026,0.991l-0.057,-0.369l-0.709,-0.244l0.164,-0.478l-1.433,0.44l0.909,-1.209l-0.521,-0.008l0.012,-0.743l-0.027,-0.016Zm3.737,1.955l-0.024,1.423l-0.809,-1.153l0.3,-0.097l0.241,0.25l0.068,-0.35l0.224,-0.073Zm-1.048,0.675l-0.633,-0.218l0.382,-0.518l0.128,0.44l0.252,-0.081l-0.129,0.377Z" style="fill:#e7ebee;stroke:#1fa6a4;stroke-width:0.3px;stroke-linecap:round;stroke-miterlimit:1.5;"/><path d="M57.756,75.824l0.194,0.535l-0.787,0.315l-0.059,0.44l-0.322,-0.287l-0.772,0.31l-0.198,-0.545l-0.918,1.408l-0.056,-1.636l-0.434,0.358l-0.513,-0.651l-0.444,0.096l0.186,-0.423l-0.498,-0.631l0.448,-0.369l-1.583,-0.409l1.533,-0.615l-0.455,-0.297l0.457,-0.702l-0.218,-0.406l0.459,0.037l0.457,-0.701l0.456,0.297l-0.056,-1.652l1.013,1.283l0.157,-0.558l0.778,0.202l0.313,-0.342l0.092,0.446l0.801,0.208l-0.152,0.54l1.52,-0.609l-0.919,1.409l0.578,-0.039l0.028,0.831l0.393,0.179l-0.379,0.232l0.029,0.847l-0.567,0.038l0.997,1.264l-1.559,-0.403Zm-3.22,-2.338l-0.569,-0.72l0.889,0.229l-0.07,0.107l-0.245,-0.023l0.12,0.215l-0.125,0.192Zm0.714,-0.984l0.02,0.395l-0.246,-0.16l-0.137,0.211l-0.095,-0.262l0.458,-0.184Zm-1.008,1.48l-0.015,-0.43l0.278,-0.019l-0.082,0.127l0.245,0.159l-0.426,0.163Zm1.177,1.958l-0.044,-0.214l-0.484,-0.125l0.091,-0.327l-0.918,0.368l0.556,-0.851l-0.35,0.024l-0.017,-0.503l-0.237,-0.108l0.034,-0.021l0.652,0.175l-0.236,0.191l0.27,0.335l-0.095,0.221l0.236,-0.047l0.278,0.346l0.228,-0.184l0.036,0.72Zm-0.024,-2.484l-0.065,-0.171l0.252,-0.096l0.017,-0.139l0.105,0.092l0.247,-0.095l0.066,0.175l0.289,-0.443l0.026,0.519l0.137,-0.111l0.169,0.209l0.142,-0.028l-0.058,0.133l0.164,0.203l-0.143,0.115l0.512,0.138l-0.491,0.188l0.148,0.096l-0.144,0.221l0.072,0.13l-0.148,-0.014l-0.144,0.221l-0.148,-0.097l0.026,0.525l-0.332,-0.412l-0.048,0.176l-0.251,-0.067l-0.099,0.107l-0.032,-0.143l-0.259,-0.069l0.047,-0.171l-0.486,0.186l0.289,-0.443l-0.186,0.01l-0.013,-0.265l-0.128,-0.058l0.121,-0.072l-0.013,-0.269l0.182,-0.01l-0.327,-0.406l0.504,0.135Zm0.57,-1.24l0.093,0.257l-0.202,-0.055l-0.08,0.292l-0.255,-0.316l0.444,-0.178Zm0.674,-0.522l0.032,0.943l-0.183,-0.049l-0.052,-0.235l-0.165,0.177l-0.151,-0.041l0.519,-0.795Zm0.295,0.773l0.293,0.371l-0.387,0.148l0.076,-0.283l-0.203,-0.054l0.221,-0.182Zm0.55,1.15l-0.01,-0.221l-0.308,0.016l0.243,-0.373l-0.008,0.018l0.301,0.382l-0.218,0.178Zm-1.879,2.188l0.299,-0.458l0.109,0.288l0.409,-0.157l0.174,0.153l0.028,-0.23l0.417,-0.16l-0.108,-0.283l0.626,0.168l-0.245,-0.019l-0.276,0.424l-0.276,-0.18l0.034,0.998l-0.612,-0.775l-0.095,0.337l-0.47,-0.122l-0.014,0.016Zm1.882,-2.129l0.9,0.233l-0.871,0.349l-0.01,-0.209l0.2,-0.119l-0.211,-0.097l-0.008,-0.157Zm0.249,0.784l-0.246,0.378l-0.264,-0.328l0.301,-0.015l-0.008,-0.177l0.217,0.142Z" style="fill:#e7ebee;stroke:#1fa6a4;stroke-width:0.3px;stroke-linecap:round;stroke-miterlimit:1.5;"/><path d="M87.996,54.094l0.571,-0.463l0.642,0.792l0.723,-0.144l-0.292,0.677l0.734,0.907l-0.488,0.395l2.105,0.564l-2.257,0.866l0.762,0.495l-0.57,0.878l0.283,0.505l-0.577,-0.053l-0.7,1.078l-0.616,-0.4l0.111,2.119l-1.429,-1.764l-0.235,0.877l-1.17,-0.313l-0.327,0.353l-0.106,-0.469l-1.17,-0.314l0.235,-0.877l-2.119,0.813l1.156,-1.78l-0.734,0.039l-0.067,-1.284l-0.526,-0.242l0.497,-0.296l-0.054,-1.046l0.906,-0.047l-1.52,-1.878l2.104,0.564l-0.225,-0.587l1.089,-0.418l0.086,-0.732l0.554,0.486l0.951,-0.365l0.264,0.686l1.286,-1.979l0.123,2.357Zm-1.705,5.208l-0.758,1.168l-0.073,-1.391l0.258,0.069l0.077,0.342l0.238,-0.257l0.258,0.069Zm-1.988,-0.362l0.925,-0.355l-0.108,0.403l0.32,0.086l-0.323,0.262l-0.384,-0.474l-0.433,0.086l0.003,-0.008Zm3.059,0.82l-0.001,0.008l-0.332,-0.291l-0.569,0.219l-0.149,-0.389l0.32,0.086l0.108,-0.402l0.623,0.769Zm-1.433,-1.593l-0.203,0.164l-0.241,-0.298l-0.195,0.039l0.079,-0.183l-0.237,-0.293l0.206,-0.166l-0.726,-0.195l0.691,-0.265l-0.211,-0.137l0.208,-0.32l-0.101,-0.181l0.205,0.019l0.202,-0.311l0.219,0.142l-0.04,-0.753l0.47,0.58l0.065,-0.243l0.362,0.097l0.143,-0.155l0.047,0.206l0.361,0.097l-0.065,0.243l0.697,-0.268l-0.41,0.633l0.259,-0.014l0.019,0.37l0.189,0.087l-0.178,0.106l0.02,0.381l-0.252,0.013l0.466,0.575l-0.726,-0.194l0.095,0.247l-0.351,0.135l-0.023,0.198l-0.15,-0.132l-0.358,0.138l-0.093,-0.243l-0.405,0.623l-0.038,-0.742Zm-1.894,-0.167l0.277,-0.224l0.012,0.229l0.429,-0.023l-0.326,0.502l-0.392,-0.484Zm3.902,0.748l0.127,0.332l-0.581,0.223l-0.032,-0.598l0.361,0.234l0.125,-0.191Zm-4.869,-1.322l1.201,-0.462l0.006,0.11l-0.295,0.175l0.312,0.143l0.019,0.367l-1.243,-0.333Zm5.311,0.64l0.81,1l-1.243,-0.333l0.2,-0.308l0.341,0.031l-0.167,-0.298l0.059,-0.092Zm-4.237,-2.282l0.516,0.637l-0.416,0.022l0.019,0.362l-0.299,-0.194l0.342,-0.525l-0.17,-0.303l0.008,0.001Zm4.937,1.323l0.008,0.003l-0.298,0.177l0.033,0.626l-0.355,0.019l0.197,-0.304l-0.349,-0.227l0.764,-0.294Zm-4.496,-1.451l0.315,-0.486l0.217,0.141l-0.184,0.071l0.157,0.409l-0.505,-0.135Zm3.891,0.555l0.258,-0.014l0.03,0.578l-0.505,-0.135l0.341,-0.276l-0.124,-0.153Zm-3.215,-0.955l-0.058,-1.115l0.702,0.867l-0.104,0.04l-0.248,-0.218l-0.039,0.329l-0.253,0.097Zm2.683,0.299l1.042,-0.4l-0.608,0.935l-0.17,-0.21l0.13,-0.303l-0.323,0.064l-0.071,-0.086Zm-0.687,-0.6l0.602,0.161l-0.067,0.25l-0.176,-0.217l-0.335,0.271l-0.024,-0.465Zm-1.059,-0.283l0.602,0.161l-0.253,0.389l-0.154,-0.401l-0.262,0.101l0.067,-0.25Z" style="fill:#e7ebee;stroke:#1fa6a4;stroke-width:0.3px;stroke-linecap:round;stroke-miterlimit:1.5;"/><path d="M66.942,68.46l-0.011,-0.82l1.12,0.032l0.368,-0.716l0.387,0.738l1.282,0.036l0.009,0.701l1.919,-1.373l-0.786,2.539l0.945,-0.286l0.371,1.121l0.629,0.127l-0.438,0.449l0.455,1.376l-0.766,0.231l1.907,1.445l-2.496,-0.071l0.598,0.836l-1.067,0.763l0.083,0.533l-0.477,-0.251l-1.068,0.764l-0.598,-0.836l-0.738,2.385l-0.752,-2.271l-0.466,0.649l-1.155,-0.875l-0.567,0.27l0.083,-0.636l-0.941,-0.713l0.576,-0.803l-2.657,-0.075l1.919,-1.373l-0.66,-0.235l0.38,-1.225l-0.574,-0.605l0.797,-0.116l0.332,-1.071l0.772,0.275l-0.836,-2.526l2.121,1.607Zm3.339,5.224l0.493,1.491l-1.251,-0.948l0.236,-0.169l0.347,0.183l-0.06,-0.388l0.235,-0.169Zm-1.664,1.421l0.322,-1.041l0.275,0.384l0.291,-0.209l0.006,0.465l-0.67,-0.019l-0.22,0.428l-0.004,-0.008Zm2.788,-1.995l0.007,0.007l-0.477,0.069l-0.199,0.641l-0.437,-0.155l0.292,-0.209l-0.274,-0.384l1.088,0.031Zm-2.351,0.058l0.004,0.29l-0.421,-0.012l-0.099,0.194l-0.105,-0.2l-0.414,-0.012l-0.004,-0.295l-0.661,0.473l0.24,-0.777l-0.262,0.079l-0.135,-0.409l-0.225,-0.045l0.157,-0.161l-0.131,-0.396l0.27,-0.082l-0.677,-0.513l0.821,0.023l-0.166,-0.232l0.33,-0.236l-0.037,-0.234l0.21,0.11l0.33,-0.235l0.166,0.232l0.243,-0.785l0.267,0.806l0.164,-0.229l0.333,0.252l0.203,-0.096l-0.029,0.227l0.342,0.26l-0.159,0.222l0.814,0.023l-0.662,0.474l0.278,0.099l-0.122,0.395l0.155,0.164l-0.216,0.031l-0.125,0.403l-0.272,-0.097l0.263,0.794l-0.668,-0.505Zm-1.432,1.482l-0.006,-0.397l0.206,0.156l0.273,-0.38l0.212,0.64l-0.685,-0.019Zm3.3,-2.762l0.374,0.133l-0.203,0.655l-0.538,-0.407l0.448,-0.136l-0.081,-0.245Zm-4.455,3.164l0.419,-1.352l0.099,0.074l-0.05,0.377l0.336,-0.16l0.33,0.25l-1.134,0.811Zm4.167,-4.033l1.415,0.04l-1.133,0.811l-0.13,-0.393l0.259,-0.266l-0.372,-0.075l-0.039,-0.117Zm-4.854,1.931l0.901,0.026l-0.264,0.368l0.326,0.247l-0.371,0.112l-0.222,-0.67l-0.376,-0.076l0.006,-0.007Zm4.502,-3.22l0.008,-0.004l-0.05,0.381l0.563,0.427l-0.225,0.314l-0.129,-0.389l-0.434,0.132l0.267,-0.861Zm-4.313,2.754l-0.205,-0.62l0.269,-0.081l-0.064,0.207l0.461,0.164l-0.461,0.33Zm3.126,-2.892l0.164,-0.228l0.52,0.394l-0.46,0.329l-0.006,-0.489l-0.218,-0.006Zm-3.012,2.029l-1.002,-0.76l1.227,0.035l-0.036,0.117l-0.357,0.052l0.257,0.271l-0.089,0.285Zm2.084,-2.055l0.363,-1.173l0.395,1.194l-0.298,-0.008l-0.173,-0.331l-0.164,0.321l-0.123,-0.003Zm-0.986,0.147l0.549,-0.393l0.17,0.238l-0.307,-0.009l0.006,0.48l-0.418,-0.316Zm-0.965,0.69l0.549,-0.392l0.165,0.497l-0.452,-0.161l-0.091,0.295l-0.171,-0.239Z" style="fill:#e7ebee;stroke:#1fa6a4;stroke-width:0.3px;stroke-linecap:round;stroke-miterlimit:1.5;"/><path d="M30.831,68.75l0.571,-0.462l0.642,0.792l0.722,-0.144l-0.291,0.677l0.734,0.906l-0.488,0.396l2.104,0.564l-2.256,0.866l0.762,0.494l-0.571,0.879l0.283,0.505l-0.576,-0.054l-0.7,1.078l-0.617,-0.4l0.111,2.12l-1.428,-1.764l-0.235,0.877l-1.17,-0.314l-0.327,0.354l-0.106,-0.47l-1.17,-0.313l0.235,-0.877l-2.119,0.813l1.156,-1.78l-0.734,0.038l-0.068,-1.283l-0.525,-0.242l0.497,-0.296l-0.055,-1.046l0.907,-0.048l-1.521,-1.878l2.105,0.564l-0.225,-0.586l1.088,-0.418l0.087,-0.732l0.554,0.486l0.951,-0.365l0.264,0.686l1.285,-1.98l0.124,2.357Zm-1.705,5.208l-0.759,1.168l-0.073,-1.39l0.259,0.069l0.077,0.341l0.238,-0.257l0.258,0.069Zm-1.988,-0.361l0.925,-0.355l-0.108,0.403l0.32,0.085l-0.324,0.262l-0.383,-0.474l-0.433,0.086l0.003,-0.007Zm3.059,0.819l-0.001,0.008l-0.332,-0.29l-0.569,0.218l-0.15,-0.388l0.321,0.085l0.108,-0.402l0.623,0.769Zm-1.434,-1.592l-0.202,0.163l-0.241,-0.297l-0.195,0.039l0.078,-0.184l-0.237,-0.292l0.206,-0.167l-0.725,-0.194l0.691,-0.265l-0.212,-0.138l0.209,-0.32l-0.102,-0.18l0.206,0.019l0.202,-0.311l0.218,0.142l-0.039,-0.753l0.47,0.58l0.065,-0.243l0.361,0.097l0.144,-0.156l0.047,0.207l0.361,0.096l-0.065,0.244l0.697,-0.268l-0.41,0.632l0.259,-0.013l0.019,0.37l0.188,0.086l-0.178,0.106l0.02,0.381l-0.251,0.014l0.466,0.575l-0.726,-0.195l0.095,0.248l-0.351,0.134l-0.023,0.199l-0.15,-0.132l-0.358,0.137l-0.093,-0.242l-0.405,0.622l-0.039,-0.741Zm-1.893,-0.168l0.277,-0.224l0.012,0.229l0.429,-0.022l-0.326,0.502l-0.392,-0.485Zm3.902,0.748l0.127,0.332l-0.582,0.223l-0.031,-0.598l0.361,0.235l0.125,-0.192Zm-4.87,-1.322l1.202,-0.461l0.006,0.109l-0.295,0.175l0.312,0.144l0.019,0.367l-1.244,-0.334Zm5.312,0.641l0.81,1l-1.243,-0.333l0.2,-0.309l0.341,0.032l-0.167,-0.299l0.059,-0.091Zm-4.237,-2.282l0.516,0.636l-0.416,0.022l0.019,0.363l-0.299,-0.194l0.341,-0.526l-0.169,-0.302l0.008,0.001Zm4.937,1.323l0.008,0.003l-0.298,0.177l0.033,0.626l-0.356,0.019l0.198,-0.305l-0.35,-0.227l0.765,-0.293Zm-4.496,-1.452l0.315,-0.486l0.217,0.141l-0.184,0.071l0.157,0.409l-0.505,-0.135Zm3.891,0.555l0.258,-0.013l0.03,0.578l-0.505,-0.135l0.341,-0.276l-0.124,-0.154Zm-3.215,-0.955l-0.058,-1.115l0.702,0.868l-0.104,0.04l-0.248,-0.218l-0.039,0.328l-0.253,0.097Zm2.683,0.299l1.042,-0.4l-0.608,0.936l-0.17,-0.211l0.13,-0.303l-0.323,0.065l-0.071,-0.087Zm-0.687,-0.599l0.601,0.161l-0.066,0.249l-0.176,-0.217l-0.335,0.271l-0.024,-0.464Zm-1.059,-0.284l0.602,0.161l-0.253,0.39l-0.154,-0.401l-0.262,0.1l0.067,-0.25Z" style="fill:#e7ebee;stroke:#1fa6a4;stroke-width:0.3px;stroke-linecap:round;stroke-miterlimit:1.5;"/><path d="M47.538,44.547l-0.213,0.022l0.049,0.483l-0.17,0.138l0.194,0.1l0.04,0.403l0.259,-0.027l-0.363,0.804l0.646,-0.344l-0.04,0.258l0.339,0.098l0.068,0.282l0.145,-0.22l0.337,0.098l0.04,-0.26l0.491,0.676l-0.095,-0.936l0.227,0.167l0.156,-0.345l0.209,0.016l-0.115,-0.224l0.186,-0.411l-0.187,-0.138l0.613,-0.326l-0.728,-0.211l0.21,-0.234l-0.243,-0.335l0.055,-0.193l-0.161,0.047l-0.271,-0.373l-0.188,0.209l-0.086,-0.856l-0.334,0.737l-0.111,-0.299l-0.357,0.19l-0.132,-0.131l-0.007,0.205l-0.323,0.172l0.122,0.331l-0.725,-0.211l0.463,0.638Zm1.586,-0.115l-0.133,0.293l0.108,-0.011l0.017,0.168l0.08,0.041l-0.07,0.058l0.02,0.2l-0.089,0.009l0.193,0.265l-0.302,-0.087l0.051,0.137l-0.134,0.072l-0.003,0.085l-0.055,-0.054l-0.148,0.079l-0.046,-0.125l-0.109,0.24l0.019,0.079l0.063,-0.095l0.178,0.052l0.024,-0.154l0.252,0.347l-0.045,-0.453l0.107,0.08l0.089,-0.195l0.103,0.008l-0.057,-0.111l0.088,-0.194l-0.108,-0.08l0.331,-0.176l-0.362,-0.105l0.092,-0.103l-0.124,-0.171l0.033,-0.118l-0.063,0.019Zm-0.31,0.667l0.052,-0.006l-0.009,-0.096l0.033,-0.027l-0.038,-0.02l-0.01,-0.095l-0.053,0.006l0.074,-0.163l-0.136,0.073l0.009,-0.062l-0.076,-0.022l-0.012,-0.051l-0.026,0.039l-0.074,-0.021l-0.01,0.064l-0.105,-0.144l0.019,0.188l-0.045,-0.033l-0.037,0.081l-0.043,-0.003l0.024,0.045l-0.036,0.081l0.044,0.033l-0.137,0.074l0.15,0.043l-0.038,0.043l0.052,0.071l-0.014,0.049l0.04,-0.012l0.053,0.073l0.038,-0.041l0.019,0.186l0.073,-0.162l0.023,0.061l0.069,-0.036l0.032,0.032l0.002,-0.051l0.071,-0.037l-0.023,-0.061l0.148,0.043l-0.103,-0.142Zm-0.465,-0.885l0.155,0.214l0.017,-0.108l0.14,0.04l0.06,-0.091l0.028,0.117l0.141,0.041l-0.016,0.107l0.204,-0.109l-0.116,-0.159l-0.09,0.1l-0.045,-0.449l-0.177,0.391l-0.055,-0.149l-0.166,0.089l-0.078,-0.077l-0.002,0.043Zm-0.016,1.349l-0.022,0.143l0.151,0.044l-0.024,-0.237l-0.078,0.087l-0.027,-0.037Zm-0.154,-0.213l-0.173,0.381l0.324,-0.172l-0.083,-0.114l-0.067,0.019l0.023,-0.08l-0.024,-0.034Zm-0.236,-0.274l-0.002,0.002l0.091,0.047l0.023,0.229l0.117,-0.013l-0.07,-0.096l0.087,-0.097l-0.246,-0.072Zm0.373,-0.768l-0.139,0.074l0.048,0.13l0.02,-0.046l0.094,0.07l-0.023,-0.228Zm-0.207,0.46l-0.112,0.012l0.021,0.21l0.124,-0.066l-0.078,-0.057l0.045,-0.099Zm-0.234,-0.344l0.24,0.331l0.026,-0.059l-0.047,-0.093l0.086,0.007l0.039,-0.086l-0.344,-0.1Z" style="fill:#e7ebee;stroke:#1fa6a4;stroke-width:0.3px;stroke-linecap:round;stroke-miterlimit:1.5;"/><path d="M63.823,64.489l-0.212,0.022l0.048,0.482l-0.169,0.139l0.193,0.1l0.041,0.403l0.259,-0.027l-0.364,0.804l0.646,-0.344l-0.04,0.258l0.339,0.098l0.068,0.282l0.146,-0.22l0.337,0.098l0.04,-0.26l0.49,0.676l-0.094,-0.936l0.226,0.167l0.156,-0.346l0.209,0.016l-0.115,-0.223l0.186,-0.412l-0.186,-0.137l0.612,-0.326l-0.727,-0.212l0.21,-0.234l-0.243,-0.334l0.054,-0.194l-0.16,0.047l-0.271,-0.373l-0.188,0.21l-0.087,-0.857l-0.333,0.738l-0.111,-0.299l-0.357,0.19l-0.132,-0.131l-0.007,0.205l-0.324,0.172l0.123,0.331l-0.725,-0.211l0.462,0.638Zm1.586,-0.115l-0.132,0.293l0.107,-0.011l0.017,0.167l0.08,0.042l-0.07,0.057l0.02,0.201l-0.088,0.009l0.192,0.265l-0.301,-0.087l0.051,0.137l-0.135,0.072l-0.003,0.085l-0.054,-0.055l-0.149,0.079l-0.046,-0.124l-0.108,0.239l0.019,0.08l0.063,-0.095l0.178,0.051l0.024,-0.154l0.252,0.348l-0.046,-0.453l0.108,0.079l0.088,-0.195l0.104,0.008l-0.057,-0.11l0.088,-0.195l-0.108,-0.079l0.33,-0.176l-0.362,-0.105l0.093,-0.104l-0.124,-0.17l0.033,-0.118l-0.064,0.019Zm-0.309,0.667l0.052,-0.006l-0.01,-0.096l0.034,-0.027l-0.038,-0.02l-0.01,-0.095l-0.053,0.005l0.073,-0.162l-0.136,0.072l0.01,-0.062l-0.077,-0.022l-0.012,-0.05l-0.026,0.039l-0.074,-0.021l-0.01,0.064l-0.105,-0.145l0.019,0.189l-0.044,-0.033l-0.037,0.081l-0.043,-0.004l0.024,0.046l-0.037,0.081l0.045,0.033l-0.137,0.073l0.15,0.044l-0.038,0.043l0.051,0.071l-0.014,0.049l0.041,-0.012l0.053,0.073l0.037,-0.042l0.019,0.187l0.074,-0.163l0.023,0.062l0.069,-0.037l0.032,0.033l0.002,-0.051l0.07,-0.037l-0.022,-0.061l0.148,0.043l-0.103,-0.142Zm-0.465,-0.885l0.155,0.214l0.016,-0.109l0.14,0.041l0.061,-0.091l0.028,0.117l0.141,0.041l-0.017,0.107l0.204,-0.109l-0.115,-0.159l-0.09,0.1l-0.045,-0.449l-0.177,0.391l-0.055,-0.149l-0.167,0.089l-0.078,-0.078l-0.001,0.044Zm-0.017,1.348l-0.022,0.144l0.151,0.044l-0.023,-0.238l-0.079,0.088l-0.027,-0.038Zm-0.154,-0.212l-0.172,0.381l0.323,-0.172l-0.082,-0.114l-0.067,0.019l0.023,-0.08l-0.025,-0.034Zm-0.236,-0.274l-0.002,0.002l0.091,0.047l0.023,0.228l0.118,-0.012l-0.07,-0.096l0.087,-0.098l-0.247,-0.071Zm0.374,-0.768l-0.139,0.074l0.048,0.129l0.02,-0.045l0.094,0.069l-0.023,-0.227Zm-0.208,0.46l-0.111,0.012l0.021,0.21l0.123,-0.066l-0.077,-0.057l0.044,-0.099Zm-0.234,-0.344l0.24,0.331l0.027,-0.059l-0.048,-0.093l0.087,0.007l0.039,-0.086l-0.345,-0.1Z" style="fill:#e7ebee;stroke:#1fa6a4;stroke-width:0.3px;stroke-linecap:round;stroke-miterlimit:1.5;"/><path d="M81.506,46.835l-0.265,0.031l0.05,0.528l-0.213,0.157l0.238,0.105l0.042,0.442l0.323,-0.038l-0.469,0.895l0.81,-0.398l-0.055,0.285l0.419,0.098l0.079,0.308l0.186,-0.246l0.416,0.098l0.056,-0.288l0.596,0.729l-0.098,-1.026l0.277,0.177l0.202,-0.384l0.259,0.011l-0.138,-0.242l0.24,-0.457l-0.229,-0.146l0.768,-0.377l-0.9,-0.21l0.266,-0.264l-0.295,-0.36l0.072,-0.214l-0.201,0.056l-0.329,-0.402l-0.238,0.236l-0.09,-0.939l-0.43,0.821l-0.132,-0.326l-0.448,0.219l-0.161,-0.14l-0.013,0.225l-0.405,0.199l0.145,0.36l-0.897,-0.21l0.562,0.687Zm1.974,-0.173l-0.171,0.326l0.134,-0.015l0.017,0.183l0.099,0.044l-0.089,0.065l0.021,0.22l-0.11,0.012l0.234,0.286l-0.373,-0.087l0.06,0.149l-0.168,0.083l-0.006,0.094l-0.067,-0.059l-0.186,0.092l-0.054,-0.136l-0.14,0.266l0.022,0.087l0.08,-0.106l0.221,0.052l0.032,-0.171l0.307,0.375l-0.048,-0.497l0.133,0.085l0.113,-0.217l0.129,0.005l-0.069,-0.119l0.114,-0.217l-0.133,-0.084l0.415,-0.203l-0.448,-0.105l0.117,-0.116l-0.15,-0.184l0.043,-0.13l-0.079,0.022Zm-0.399,0.742l0.065,-0.007l-0.01,-0.106l0.042,-0.031l-0.047,-0.021l-0.01,-0.104l-0.066,0.008l0.094,-0.181l-0.17,0.084l0.013,-0.068l-0.094,-0.023l-0.014,-0.055l-0.034,0.044l-0.091,-0.021l-0.014,0.071l-0.127,-0.156l0.02,0.206l-0.055,-0.035l-0.048,0.09l-0.053,-0.002l0.028,0.05l-0.047,0.09l0.055,0.035l-0.172,0.084l0.186,0.044l-0.049,0.048l0.063,0.077l-0.018,0.054l0.051,-0.015l0.064,0.079l0.047,-0.047l0.02,0.205l0.095,-0.181l0.027,0.067l0.086,-0.042l0.04,0.034l0.003,-0.055l0.089,-0.043l-0.027,-0.066l0.183,0.043l-0.125,-0.154Zm-0.56,-0.958l0.188,0.23l0.023,-0.12l0.173,0.041l0.078,-0.102l0.032,0.128l0.175,0.04l-0.023,0.119l0.256,-0.126l-0.141,-0.172l-0.113,0.113l-0.047,-0.492l-0.229,0.435l-0.065,-0.162l-0.209,0.102l-0.095,-0.082l-0.003,0.048Zm-0.048,1.482l-0.031,0.158l0.187,0.044l-0.024,-0.26l-0.099,0.098l-0.033,-0.04Zm-0.187,-0.229l-0.222,0.424l0.405,-0.199l-0.1,-0.123l-0.084,0.023l0.03,-0.089l-0.029,-0.036Zm-0.288,-0.294l-0.003,0.002l0.113,0.049l0.024,0.25l0.146,-0.017l-0.085,-0.103l0.11,-0.11l-0.305,-0.071Zm0.481,-0.856l-0.175,0.086l0.057,0.141l0.026,-0.05l0.115,0.073l-0.023,-0.25Zm-0.268,0.513l-0.139,0.016l0.022,0.23l0.154,-0.076l-0.095,-0.061l0.058,-0.109Zm-0.284,-0.372l0.291,0.357l0.035,-0.066l-0.058,-0.1l0.108,0.004l0.05,-0.095l-0.426,-0.1Z" style="fill:#e7ebee;stroke:#1fa6a4;stroke-width:0.3px;stroke-linecap:round;stroke-miterlimit:1.5;"/><path d="M13.506,64.835l-0.265,0.031l0.05,0.528l-0.213,0.157l0.238,0.105l0.042,0.442l0.323,-0.038l-0.469,0.895l0.81,-0.398l-0.055,0.285l0.419,0.098l0.079,0.308l0.186,-0.246l0.416,0.098l0.056,-0.288l0.596,0.729l-0.098,-1.026l0.277,0.177l0.202,-0.384l0.259,0.011l-0.138,-0.242l0.24,-0.457l-0.229,-0.146l0.768,-0.377l-0.9,-0.21l0.266,-0.264l-0.295,-0.36l0.072,-0.214l-0.201,0.056l-0.329,-0.402l-0.238,0.236l-0.09,-0.939l-0.43,0.821l-0.132,-0.326l-0.448,0.219l-0.161,-0.14l-0.013,0.225l-0.405,0.199l0.145,0.36l-0.897,-0.21l0.562,0.687Zm1.974,-0.173l-0.171,0.326l0.134,-0.015l0.017,0.183l0.099,0.044l-0.089,0.065l0.021,0.22l-0.11,0.012l0.234,0.286l-0.373,-0.087l0.06,0.149l-0.168,0.083l-0.006,0.094l-0.067,-0.059l-0.186,0.092l-0.054,-0.136l-0.14,0.266l0.022,0.087l0.08,-0.106l0.221,0.052l0.032,-0.171l0.307,0.375l-0.048,-0.497l0.133,0.085l0.113,-0.217l0.129,0.005l-0.069,-0.119l0.114,-0.217l-0.133,-0.084l0.415,-0.203l-0.448,-0.105l0.117,-0.116l-0.15,-0.184l0.043,-0.13l-0.079,0.022Zm-0.399,0.742l0.065,-0.007l-0.01,-0.106l0.042,-0.031l-0.047,-0.021l-0.01,-0.104l-0.066,0.008l0.094,-0.181l-0.17,0.084l0.013,-0.068l-0.094,-0.023l-0.014,-0.055l-0.034,0.044l-0.091,-0.021l-0.014,0.071l-0.127,-0.156l0.02,0.206l-0.055,-0.035l-0.048,0.09l-0.053,-0.002l0.028,0.05l-0.047,0.09l0.055,0.035l-0.172,0.084l0.186,0.044l-0.049,0.048l0.063,0.077l-0.018,0.054l0.051,-0.015l0.064,0.079l0.047,-0.047l0.02,0.205l0.095,-0.181l0.027,0.067l0.086,-0.042l0.04,0.034l0.003,-0.055l0.089,-0.043l-0.027,-0.066l0.183,0.043l-0.125,-0.154Zm-0.56,-0.958l0.188,0.23l0.023,-0.12l0.173,0.041l0.078,-0.102l0.032,0.128l0.175,0.04l-0.023,0.119l0.256,-0.126l-0.141,-0.172l-0.113,0.113l-0.047,-0.492l-0.229,0.435l-0.065,-0.162l-0.209,0.102l-0.095,-0.082l-0.003,0.048Zm-0.048,1.482l-0.031,0.158l0.187,0.044l-0.024,-0.26l-0.099,0.098l-0.033,-0.04Zm-0.187,-0.229l-0.222,0.424l0.405,-0.199l-0.1,-0.123l-0.084,0.023l0.03,-0.089l-0.029,-0.036Zm-0.288,-0.294l-0.003,0.002l0.113,0.049l0.024,0.25l0.146,-0.017l-0.085,-0.103l0.11,-0.11l-0.305,-0.071Zm0.481,-0.856l-0.175,0.086l0.057,0.141l0.026,-0.05l0.115,0.073l-0.023,-0.25Zm-0.268,0.513l-0.139,0.016l0.022,0.23l0.154,-0.076l-0.095,-0.061l0.058,-0.109Zm-0.284,-0.372l0.291,0.357l0.035,-0.066l-0.058,-0.1l0.108,0.004l0.05,-0.095l-0.426,-0.1Z" style="fill:#e7ebee;stroke:#1fa6a4;stroke-width:0.3px;stroke-linecap:round;stroke-miterlimit:1.5;"/><path d="M65.245,58.437l0.249,0.714l0.955,-0.404l0.4,0.387l0.062,-0.582l0.938,-0.397l-0.253,-0.727l1.937,0.571l-1.243,-1.69l0.671,-0.039l-0.053,-1.122l0.474,-0.31l-0.501,-0.255l-0.052,-1.088l-0.694,0.04l1.097,-1.859l-1.861,0.787l0.173,-0.715l-0.965,-0.285l-0.124,-0.606l-0.384,0.457l-0.964,-0.285l-0.174,0.716l-1.255,-1.708l0.105,2.214l-0.582,-0.416l-0.539,0.913l-0.55,-0.056l0.27,0.532l-0.555,0.941l0.563,0.403l-1.844,0.78l1.938,0.571l-0.55,0.491l0.632,0.859l-0.211,0.539l0.523,-0.115l0.644,0.876l0.539,-0.48l0.103,2.179l1.081,-1.831Zm1.041,-5.291l-0.059,-1.243l-0.616,1.044l0.147,0.043l0.202,-0.247l0.062,0.325l0.264,0.078Zm-1.418,-0.332l0.294,0.413l0.094,-0.385l0.289,0.086l-0.121,-0.349l-0.556,0.235Zm2.074,0.561l-0.327,-0.445l-0.264,0.235l0.174,0.052l-0.094,0.384l0.511,-0.226Zm0.491,3.039l-0.129,-0.254l0.335,-0.569l-0.34,-0.243l1.114,-0.471l-1.171,-0.346l0.333,-0.296l-0.382,-0.519l0.127,-0.326l-0.048,0.01l-0.446,0.773l0.362,-0.025l0.023,0.584l0.261,0.134l-0.249,0.169l0.024,0.601l-0.351,0.024l0.537,0.754Zm-1.941,-2.511l-0.077,-0.231l-0.302,0.134l-0.125,-0.125l-0.021,0.189l-0.297,0.132l0.078,0.235l-0.609,-0.18l0.388,0.544l-0.212,0.015l0.014,0.363l-0.15,0.102l0.157,0.081l0.014,0.353l0.219,-0.015l-0.35,0.606l0.589,-0.26l-0.057,0.232l0.304,0.089l0.038,0.197l0.122,-0.149l0.303,0.089l0.056,-0.232l0.392,0.55l-0.028,-0.718l0.183,0.133l0.172,-0.297l0.173,0.016l-0.084,-0.171l0.177,-0.307l-0.176,-0.129l0.583,-0.258l-0.61,-0.18l0.175,-0.16l-0.197,-0.277l0.067,-0.175l-0.165,0.038l-0.201,-0.282l-0.171,0.157l-0.027,-0.706l-0.345,0.597Zm-1.492,-0.723l0.12,0.343l0.138,-0.24l0.302,0.221l-0.022,-0.551l-0.538,0.227Zm-1.017,0.094l0.717,0.975l0.125,-0.216l-0.139,-0.284l0.287,0.027l0.104,-0.179l-1.094,-0.323Zm0.346,1.045l0.03,0.64l0.465,-0.205l-0.292,-0.214l0.139,-0.24l-0.342,0.019Zm0.416,1.657l-0.166,-0.232l0.289,-0.266l-0.513,-0.151l0.022,0.011l0.031,0.658l0.337,-0.02Zm3.415,0.474l-0.63,-0.186l0.129,0.389l-0.491,0.217l-0.035,0.313l-0.207,-0.206l-0.5,0.221l-0.127,-0.382l-0.428,0.741l0.204,-0.243l0.582,0.172l0.106,-0.432l0.758,1.031l-0.064,-1.337l0.352,0.251l0.325,-0.552l0.026,0.003Zm-3.371,-0.412l-0.624,1.057l1.058,-0.447l-0.156,-0.22l-0.274,0.064l0.112,-0.29l-0.116,-0.164Zm0.396,1.013l0.52,0.154l-0.023,-0.57l-0.283,0.26l-0.131,-0.185l-0.083,0.341Z" style="fill:#e7ebee;stroke:#1fa6a4;stroke-width:0.3px;stroke-linecap:round;stroke-miterlimit:1.5;"/><path d="M46.777,72.522l0.827,-0.442l-0.645,-1.281l0.404,-0.61l-0.717,-0.01l-0.635,-1.259l-0.842,0.451l0.379,-2.783l-1.851,1.962l-0.156,-0.933l-1.354,0.223l-0.455,-0.621l-0.227,0.734l-1.313,0.217l0.161,0.964l-2.437,-1.285l1.259,2.496l-0.896,-0.148l-0.189,1.387l-0.717,0.254l0.617,0.476l-0.188,1.385l0.897,0.148l-1.87,1.981l2.672,-0.441l-0.411,0.868l1.198,0.632l0.021,0.777l0.602,-0.449l1.233,0.651l0.398,-0.841l1.247,2.474l0.38,-2.784l0.685,0.703l0.94,-0.997l0.69,0.223l-0.225,-0.715l0.959,-1.017l-0.671,-0.689l2.631,-0.434l-2.401,-1.267Zm-6.596,-0.752l-1.5,0.248l1.368,0.721l0.029,-0.21l-0.333,-0.249l0.385,-0.131l0.051,-0.379Zm-0.173,2.026l0.454,-0.466l-0.482,-0.08l0.056,-0.416l-0.404,0.216l0.376,0.746Zm0.344,-2.973l-0.487,0.516l0.329,0.337l0.034,-0.249l0.482,0.08l-0.358,-0.684Zm3.612,-1.09l-0.288,0.214l-0.745,-0.393l-0.24,0.508l-0.754,-1.495l-0.229,1.683l-0.414,-0.425l-0.568,0.602l-0.417,-0.134l0.021,0.065l1.01,0.521l-0.089,-0.503l0.706,-0.109l0.12,-0.382l0.246,0.325l0.727,-0.113l0.086,0.487l0.828,-0.851Zm-2.734,3.046l-0.268,0.138l0.211,0.405l-0.13,0.191l0.233,0.005l0.207,0.397l0.273,-0.141l-0.119,0.876l0.598,-0.615l0.052,0.294l0.439,-0.068l0.149,0.197l0.073,-0.231l0.426,-0.066l-0.054,-0.304l0.793,0.408l-0.412,-0.788l0.291,0.049l0.06,-0.437l0.232,-0.079l-0.201,-0.15l0.059,-0.436l-0.291,-0.048l0.604,-0.621l-0.867,0.135l0.132,-0.273l-0.389,-0.201l-0.008,-0.244l-0.195,0.14l-0.401,-0.207l-0.128,0.264l-0.409,-0.781l-0.119,0.876l-0.223,-0.223l-0.304,0.313l-0.225,-0.072l0.074,0.226l-0.31,0.318l0.219,0.218l-0.853,0.133l0.781,0.402Zm-0.635,2.18l0.396,-0.212l-0.313,-0.161l0.218,-0.451l-0.665,0.103l0.364,0.721Zm0.279,1.409l1.068,-1.131l-0.284,-0.146l-0.322,0.232l-0.013,-0.405l-0.235,-0.121l-0.214,1.571Zm1.213,-0.621l0.773,-0.128l-0.326,-0.623l-0.211,0.437l-0.315,-0.162l0.079,0.476Zm1.946,-0.802l-0.256,0.263l-0.369,-0.369l-0.101,0.737l0.01,-0.032l0.794,-0.131l-0.078,-0.468Zm0.019,-4.834l-0.123,0.905l0.451,-0.233l0.344,0.657l0.385,0.008l-0.216,0.316l0.35,0.67l-0.443,0.228l0.97,0.5l-0.329,-0.253l0.114,-0.837l-0.542,-0.089l1.129,-1.198l-1.614,0.267l0.249,-0.524l-0.724,-0.382l-0.001,-0.035Zm0.048,4.765l1.386,0.731l-0.716,-1.419l-0.241,0.247l0.122,0.374l-0.37,-0.118l-0.181,0.185Zm1.167,-0.688l0.102,-0.747l-0.689,0.107l0.362,0.361l-0.203,0.208l0.428,0.071Z" style="fill:#e7ebee;stroke:#1fa6a4;stroke-width:0.3px;stroke-linecap:round;stroke-miterlimit:1.5;"/><path d="M80.183,70.794l-0.366,0.051l0.066,0.826l-0.296,0.247l0.328,0.161l0.054,0.69l0.445,-0.062l-0.654,1.404l1.121,-0.63l-0.078,0.445l0.577,0.149l0.106,0.48l0.258,-0.386l0.574,0.148l0.079,-0.45l0.816,1.133l-0.127,-1.603l0.382,0.273l0.28,-0.602l0.358,0.015l-0.189,-0.377l0.335,-0.719l-0.315,-0.225l1.063,-0.597l-1.24,-0.319l0.369,-0.415l-0.404,-0.56l0.101,-0.336l-0.277,0.09l-0.45,-0.624l-0.331,0.372l-0.116,-1.467l-0.6,1.287l-0.179,-0.508l-0.619,0.348l-0.221,-0.217l-0.02,0.353l-0.561,0.315l0.197,0.56l-1.235,-0.318l0.769,1.068Zm2.724,-0.292l-0.239,0.512l0.185,-0.026l0.023,0.287l0.136,0.066l-0.123,0.103l0.027,0.343l-0.152,0.022l0.32,0.444l-0.513,-0.133l0.082,0.233l-0.233,0.131l-0.009,0.147l-0.092,-0.09l-0.257,0.144l-0.074,-0.211l-0.195,0.418l0.03,0.136l0.111,-0.168l0.304,0.079l0.046,-0.267l0.42,0.582l-0.062,-0.775l0.182,0.13l0.159,-0.34l0.177,0.007l-0.094,-0.186l0.158,-0.34l-0.182,-0.13l0.574,-0.322l-0.617,-0.159l0.163,-0.183l-0.207,-0.286l0.062,-0.204l-0.11,0.036Zm-0.556,1.164l0.09,-0.012l-0.013,-0.166l0.058,-0.048l-0.065,-0.032l-0.012,-0.162l-0.092,0.012l0.132,-0.283l-0.236,0.132l0.019,-0.107l-0.13,-0.033l-0.019,-0.086l-0.046,0.069l-0.126,-0.032l-0.02,0.11l-0.174,-0.242l0.025,0.323l-0.075,-0.054l-0.066,0.141l-0.074,-0.003l0.039,0.077l-0.066,0.141l0.076,0.055l-0.238,0.133l0.256,0.066l-0.067,0.077l0.085,0.118l-0.025,0.085l0.07,-0.023l0.088,0.123l0.065,-0.074l0.026,0.32l0.132,-0.284l0.037,0.105l0.12,-0.068l0.054,0.054l0.005,-0.087l0.122,-0.069l-0.036,-0.102l0.252,0.065l-0.171,-0.239Zm-0.764,-1.492l0.257,0.358l0.033,-0.187l0.239,0.061l0.107,-0.16l0.044,0.199l0.24,0.062l-0.033,0.185l0.354,-0.199l-0.192,-0.267l-0.158,0.177l-0.06,-0.769l-0.319,0.683l-0.089,-0.252l-0.288,0.162l-0.131,-0.128l-0.004,0.075Zm-0.079,2.318l-0.043,0.247l0.257,0.067l-0.032,-0.407l-0.137,0.155l-0.045,-0.062Zm-0.256,-0.356l-0.31,0.665l0.561,-0.316l-0.137,-0.191l-0.116,0.038l0.042,-0.14l-0.04,-0.056Zm-0.395,-0.457l-0.003,0.003l0.154,0.076l0.031,0.391l0.202,-0.028l-0.116,-0.161l0.153,-0.173l-0.421,-0.108Zm0.67,-1.342l-0.242,0.136l0.078,0.219l0.036,-0.079l0.159,0.114l-0.031,-0.39Zm-0.373,0.803l-0.192,0.027l0.028,0.36l0.214,-0.121l-0.131,-0.093l0.081,-0.173Zm-0.389,-0.577l0.399,0.555l0.049,-0.104l-0.079,-0.156l0.149,0.006l0.069,-0.149l-0.587,-0.152Z" style="fill:#e7ebee;stroke:#1fa6a4;stroke-width:0.3px;stroke-linecap:round;stroke-miterlimit:1.5;"/><path d="M73.288,46.85l0.1,0.5l0.494,-0.335l0.188,0.258l0.052,-0.421l0.486,-0.33l-0.102,-0.51l0.954,0.317l-0.566,-1.153l0.339,-0.061l0.013,-0.802l0.25,-0.246l-0.243,-0.158l0.012,-0.778l-0.35,0.062l0.617,-1.387l-0.964,0.654l0.113,-0.521l-0.475,-0.158l-0.041,-0.429l-0.209,0.346l-0.475,-0.157l-0.113,0.521l-0.571,-1.164l-0.025,1.583l-0.278,-0.27l-0.303,0.681l-0.275,-0.013l0.117,0.368l-0.312,0.702l0.269,0.262l-0.956,0.649l0.955,0.317l-0.294,0.378l0.287,0.586l-0.125,0.397l0.267,-0.107l0.293,0.597l0.288,-0.371l-0.025,1.56l0.608,-1.367Zm0.711,-3.847l0.014,-0.889l-0.346,0.779l0.072,0.024l0.11,-0.187l0.02,0.23l0.13,0.043Zm-0.702,-0.17l0.134,0.282l0.06,-0.281l0.143,0.048l-0.049,-0.245l-0.288,0.196Zm1.024,0.302l-0.149,-0.303l-0.141,0.182l0.085,0.028l-0.06,0.28l0.265,-0.187Zm0.139,2.158l-0.056,-0.177l0.189,-0.424l-0.163,-0.158l0.577,-0.392l-0.576,-0.191l0.177,-0.229l-0.173,-0.354l0.075,-0.24l-0.024,0.01l-0.252,0.575l0.183,-0.035l-0.009,0.418l0.126,0.084l-0.131,0.133l-0.009,0.43l-0.177,0.035l0.243,0.515Zm-0.887,-1.709l-0.031,-0.162l-0.156,0.111l-0.059,-0.083l-0.017,0.136l-0.154,0.109l0.031,0.165l-0.3,-0.1l0.176,0.372l-0.107,0.021l-0.006,0.26l-0.079,0.08l0.076,0.051l-0.006,0.252l0.111,-0.021l-0.197,0.452l0.305,-0.215l-0.037,0.169l0.15,0.05l0.012,0.139l0.066,-0.113l0.15,0.049l0.036,-0.169l0.178,0.375l0.011,-0.513l0.087,0.087l0.097,-0.222l0.087,0.003l-0.036,-0.119l0.1,-0.228l-0.084,-0.084l0.302,-0.214l-0.3,-0.099l0.093,-0.124l-0.089,-0.189l0.04,-0.129l-0.084,0.036l-0.091,-0.193l-0.092,0.121l0.011,-0.506l-0.194,0.445Zm-0.725,-0.446l0.048,0.24l0.078,-0.179l0.144,0.144l0.009,-0.394l-0.279,0.189Zm-0.514,0.116l0.325,0.665l0.071,-0.161l-0.06,-0.197l0.144,0.006l0.058,-0.134l-0.538,-0.179Zm0.136,0.734l-0.007,0.458l0.241,-0.171l-0.139,-0.139l0.078,-0.179l-0.173,0.031Zm0.151,1.169l-0.075,-0.159l0.154,-0.205l-0.252,-0.083l0.011,0.007l-0.008,0.47l0.17,-0.03Zm1.7,0.174l-0.31,-0.103l0.051,0.273l-0.254,0.18l-0.029,0.226l-0.097,-0.137l-0.259,0.182l-0.05,-0.268l-0.242,0.553l0.111,-0.185l0.287,0.096l0.068,-0.316l0.345,0.704l0.016,-0.957l0.167,0.164l0.184,-0.412l0.012,0Zm-1.68,-0.132l-0.351,0.788l0.547,-0.372l-0.07,-0.149l-0.14,0.059l0.067,-0.214l-0.053,-0.112Zm0.163,0.708l0.256,0.085l0.009,-0.408l-0.152,0.201l-0.059,-0.127l-0.054,0.249Z" style="fill:#e7ebee;stroke:#1fa6a4;stroke-width:0.3px;stroke-linecap:round;stroke-miterlimit:1.5;"/><path d="M8.612,71.703l0.491,0.176l0.263,-0.797l0.397,-0.073l-0.27,-0.313l0.258,-0.782l-0.501,-0.18l1.25,-0.965l-1.486,-0l0.311,-0.446l-0.606,-0.491l0.074,-0.447l-0.379,0.2l-0.588,-0.477l-0.321,0.46l-0.42,-1.568l-0.511,1.553l-0.283,-0.445l-0.624,0.48l-0.374,-0.204l0.047,0.457l-0.623,0.481l0.284,0.446l-1.501,-0.001l1.195,0.969l-0.501,0.176l0.206,0.77l-0.301,0.325l0.408,0.076l0.213,0.794l0.486,-0.17l-0.507,1.539l1.251,-0.965l-0.018,0.579l0.755,0.001l0.175,0.386l0.199,-0.386l0.769,0l0.018,-0.568l1.177,0.955l-0.413,-1.545Zm-2.22,-3.14l-0.671,-0.544l0.236,0.88l0.094,-0.073l-0.028,-0.244l0.199,0.112l0.17,-0.131Zm-0.871,0.747l0.359,0.006l-0.153,-0.24l0.187,-0.144l-0.24,-0.086l-0.153,0.464Zm1.313,-1.058l-0.391,0l-0.009,0.278l0.112,-0.086l0.153,0.239l0.135,-0.431Zm1.812,1.111l-0.195,-0.037l-0.129,-0.479l-0.293,0.102l0.306,-0.93l-0.756,0.584l0.011,-0.35l-0.456,-0l-0.106,-0.234l-0.018,0.035l0.179,0.646l0.166,-0.242l0.312,0.259l0.198,-0.104l-0.035,0.238l0.322,0.267l-0.16,0.234l0.654,0.011Zm-2.255,0.06l-0.157,-0.06l-0.08,0.255l-0.126,0.022l0.088,0.102l-0.079,0.25l0.16,0.06l-0.393,0.304l0.472,0.008l-0.097,0.141l0.195,0.161l-0.021,0.144l0.119,-0.062l0.189,0.156l0.1,-0.146l0.141,0.506l0.156,-0.496l0.092,0.144l0.196,-0.151l0.12,0.068l-0.017,-0.148l0.196,-0.151l-0.093,-0.144l0.478,0.008l-0.385,-0.318l0.159,-0.054l-0.069,-0.249l0.094,-0.103l-0.13,-0.026l-0.071,-0.257l-0.154,0.052l0.155,-0.492l-0.394,0.304l0.003,-0.186l-0.24,-0.004l-0.057,-0.126l-0.061,0.124l-0.245,-0.005l-0.003,0.183l-0.379,-0.313l0.138,0.499Zm-1.108,0.61l0.235,0.085l-0.055,-0.2l0.263,-0.089l-0.295,-0.245l-0.148,0.449Zm-0.453,0.692l0.857,-0l-0.05,-0.181l-0.216,-0.045l0.156,-0.17l-0.041,-0.149l-0.706,0.545Zm0.71,0.269l0.346,0.28l0.123,-0.392l-0.255,0.086l-0.056,-0.201l-0.158,0.227Zm1.061,0.511l-0.202,-0.003l0.006,-0.308l-0.332,0.255l0.017,-0.009l0.355,0.288l0.156,-0.223Zm1.928,-1.951l-0.406,0.314l0.265,0.099l-0.13,0.415l0.144,0.168l-0.208,0.036l-0.133,0.421l-0.26,-0.097l0.172,0.619l-0.025,-0.244l0.376,-0.29l-0.171,-0.269l0.906,-0l-0.722,-0.586l0.303,-0.106l-0.124,-0.465l0.013,-0.015Zm-1.875,1.952l0.239,0.892l0.291,-0.883l-0.191,-0.003l-0.101,0.204l-0.095,-0.207l-0.143,-0.003Zm0.719,0.223l0.336,-0.259l-0.305,-0.253l-0.005,0.302l-0.161,-0.003l0.135,0.213Z" style="fill:#e7ebee;stroke:#1fa6a4;stroke-width:0.3px;stroke-linecap:round;stroke-miterlimit:1.5;"/><path d="M56.432,49.635l0.198,0.172l0.21,-0.368l0.185,0.027l-0.083,-0.205l0.205,-0.362l-0.201,-0.174l0.668,-0.293l-0.661,-0.244l0.19,-0.179l-0.212,-0.353l0.085,-0.218l-0.192,0.041l-0.206,-0.342l-0.196,0.185l-0.004,-0.878l-0.409,0.717l-0.074,-0.276l-0.333,0.146l-0.143,-0.167l-0.033,0.244l-0.333,0.146l0.075,0.276l-0.668,-0.246l0.419,0.696l-0.244,0.008l0.002,0.431l-0.171,0.118l0.172,0.107l0.002,0.444l0.236,-0.008l-0.405,0.711l0.67,-0.293l-0.076,0.296l0.336,0.123l0.033,0.228l0.133,-0.166l0.343,0.126l0.074,-0.29l0.412,0.685l-0.004,-0.865Zm-0.621,-1.983l-0.236,-0.39l0.003,0.492l0.05,-0.022l0.016,-0.13l0.076,0.09l0.091,-0.04Zm-0.475,0.243l0.159,0.062l-0.04,-0.149l0.1,-0.044l-0.097,-0.083l-0.122,0.214Zm0.707,-0.33l-0.174,-0.065l-0.036,0.142l0.06,-0.026l0.04,0.149l0.11,-0.2Zm0.677,0.869l-0.082,-0.051l-0.002,-0.268l-0.142,0.005l0.244,-0.43l-0.404,0.177l0.046,-0.179l-0.203,-0.074l-0.02,-0.138l-0.012,0.015l0.004,0.362l0.102,-0.097l0.109,0.184l0.1,-0.02l-0.043,0.116l0.112,0.191l-0.099,0.094l0.29,0.113Zm-1.01,-0.338l-0.063,-0.057l-0.065,0.119l-0.059,-0.01l0.027,0.067l-0.064,0.116l0.064,0.057l-0.21,0.093l0.209,0.081l-0.059,0.057l0.068,0.115l-0.027,0.071l0.061,-0.013l0.066,0.112l0.061,-0.059l0.004,0.284l0.127,-0.23l0.024,0.089l0.105,-0.046l0.045,0.055l0.01,-0.079l0.105,-0.046l-0.025,-0.09l0.212,0.083l-0.134,-0.227l0.077,-0.002l-0.002,-0.14l0.054,-0.037l-0.055,-0.035l-0.001,-0.144l-0.075,0.002l0.126,-0.229l-0.21,0.092l0.023,-0.095l-0.107,-0.042l-0.011,-0.074l-0.041,0.054l-0.109,-0.042l-0.022,0.093l-0.132,-0.223l0.003,0.28Zm-0.564,0.133l0.095,0.082l-0.002,-0.112l0.128,-0.003l-0.103,-0.174l-0.118,0.207Zm-0.282,0.282l0.381,0.141l-0.001,-0.102l-0.091,-0.058l0.089,-0.062l-0.001,-0.084l-0.377,0.165Zm0.284,0.256l0.121,0.201l0.101,-0.182l-0.123,0.002l-0.002,-0.112l-0.097,0.091Zm0.413,0.437l-0.09,-0.035l0.039,-0.158l-0.178,0.078l0.009,-0.002l0.124,0.207l0.096,-0.09Zm1.085,-0.691l-0.217,0.096l0.106,0.095l-0.106,0.192l0.044,0.111l-0.097,-0.016l-0.108,0.196l-0.104,-0.094l0.004,0.348l0.018,-0.13l0.201,-0.088l-0.045,-0.167l0.403,0.149l-0.253,-0.421l0.147,-0.005l-0.001,-0.26l0.008,-0.006Zm-1.062,0.7l0.003,0.499l0.232,-0.407l-0.085,-0.033l-0.069,0.088l-0.018,-0.122l-0.063,-0.025Zm0.294,0.233l0.18,-0.079l-0.107,-0.18l-0.037,0.155l-0.071,-0.028l0.035,0.132Z" style="fill:#e7ebee;stroke:#1fa6a4;stroke-width:0.3px;stroke-linecap:round;stroke-miterlimit:1.5;"/><path d="M24.934,65.629l0.642,0.496l0.664,-1.041l0.596,0.084l-0.275,-0.589l0.652,-1.023l-0.654,-0.505l2.142,-0.81l-2.133,-0.721l0.607,-0.502l-0.692,-1.014l0.266,-0.621l-0.615,0.11l-0.672,-0.984l-0.627,0.519l-0.037,-2.503l-1.293,2.03l-0.247,-0.791l-1.067,0.404l-0.464,-0.483l-0.097,0.695l-1.067,0.403l0.247,0.791l-2.154,-0.728l1.366,2.001l-0.783,0.014l0.019,1.23l-0.548,0.33l0.557,0.31l0.019,1.267l0.759,-0.013l-1.282,2.011l2.143,-0.809l-0.234,0.841l1.084,0.366l0.111,0.652l0.424,-0.471l1.105,0.374l0.23,-0.825l1.345,1.971l-0.037,-2.466Zm-2.054,-5.681l-0.767,-1.124l0.021,1.406l0.162,-0.061l0.048,-0.372l0.244,0.261l0.292,-0.11Zm-1.519,0.673l0.512,0.183l-0.132,-0.426l0.32,-0.121l-0.314,-0.242l-0.386,0.606Zm2.265,-0.914l-0.561,-0.19l-0.113,0.404l0.192,-0.073l0.132,0.425l0.35,-0.566Zm2.2,2.507l-0.267,-0.149l-0.011,-0.765l-0.459,0.008l0.775,-1.216l-1.295,0.49l0.142,-0.509l-0.655,-0.221l-0.068,-0.394l-0.038,0.043l0.024,1.034l0.325,-0.275l0.356,0.531l0.321,-0.055l-0.137,0.331l0.367,0.547l-0.315,0.266l0.935,0.334Zm-3.257,-1.006l-0.204,-0.163l-0.206,0.335l-0.189,-0.029l0.089,0.191l-0.203,0.33l0.208,0.165l-0.674,0.255l0.675,0.241l-0.19,0.161l0.222,0.33l-0.083,0.2l0.194,-0.033l0.215,0.321l0.196,-0.166l0.019,0.811l0.403,-0.653l0.08,0.257l0.336,-0.127l0.148,0.158l0.028,-0.225l0.336,-0.127l-0.08,-0.257l0.682,0.244l-0.437,-0.653l0.247,-0.002l-0.01,-0.398l0.172,-0.105l-0.176,-0.103l-0.01,-0.41l-0.239,0.002l0.398,-0.647l-0.674,0.255l0.072,-0.272l-0.343,-0.122l-0.037,-0.212l-0.133,0.151l-0.35,-0.125l-0.07,0.266l-0.43,-0.642l0.018,0.798Zm-1.81,0.359l0.307,0.238l-0.007,-0.321l0.409,-0.003l-0.336,-0.501l-0.373,0.587Zm-0.899,0.794l1.229,0.416l-0.007,-0.29l-0.292,-0.169l0.284,-0.174l-0.005,-0.24l-1.209,0.457Zm0.921,0.739l0.396,0.579l0.318,-0.516l-0.397,0.003l-0.007,-0.322l-0.31,0.256Zm1.339,1.265l-0.288,-0.103l0.118,-0.45l-0.567,0.215l0.027,-0.005l0.406,0.594l0.304,-0.251Zm3.47,-1.928l-0.697,0.263l0.345,0.275l-0.336,0.544l0.146,0.318l-0.312,-0.049l-0.341,0.554l-0.338,-0.27l0.023,0.992l0.052,-0.37l0.644,-0.243l-0.149,-0.478l1.301,0.44l-0.825,-1.209l0.473,-0.009l-0.011,-0.743l0.025,-0.015Zm-3.394,1.955l0.022,1.423l0.735,-1.153l-0.273,-0.098l-0.219,0.25l-0.061,-0.35l-0.204,-0.072Zm0.952,0.674l0.575,-0.217l-0.347,-0.519l-0.117,0.441l-0.229,-0.082l0.118,0.377Z" style="fill:#e7ebee;stroke:#1fa6a4;stroke-width:0.3px;stroke-linecap:round;stroke-miterlimit:1.5;"/><path d="M87.16,46.594l-0.536,0.173l0.166,0.763l-0.323,0.302l0.404,0.068l0.163,0.749l0.546,-0.176l-0.646,1.504l1.351,-0.924l-0.057,0.529l0.8,-0.006l0.161,0.382l0.242,-0.386l0.776,-0.006l0.059,-0.546l1.178,0.92l-0.324,-1.487l0.484,0.159l0.322,-0.749l0.444,-0.079l-0.275,-0.316l0.322,-0.748l-0.484,-0.159l1.364,-0.933l-1.578,0.013l0.366,-0.444l-0.578,-0.452l0.108,-0.431l-0.41,0.196l-0.596,-0.466l-0.355,0.43l-0.321,-1.474l-0.647,1.505l-0.278,-0.448l-0.687,0.469l-0.355,-0.182l0.016,0.414l-0.7,0.478l0.273,0.439l-1.555,0.013l1.16,0.906Zm3.612,0.985l0.887,-0.007l-0.662,-0.517l-0.048,0.114l0.149,0.166l-0.238,0.039l-0.088,0.205Zm0.413,-1.104l-0.329,0.219l0.26,0.085l-0.097,0.225l0.262,-0.084l-0.096,-0.445Zm-0.657,1.613l0.356,-0.243l-0.134,-0.215l-0.057,0.135l-0.261,-0.086l0.096,0.409Zm-2.211,0.289l0.196,-0.093l0.361,0.281l0.214,-0.26l0.194,0.891l0.391,-0.909l0.168,0.27l0.415,-0.283l0.214,0.11l-0.001,-0.038l-0.49,-0.375l-0.028,0.286l-0.416,-0.001l-0.127,0.201l-0.089,-0.201l-0.428,-0.001l0.027,-0.276l-0.601,0.398Zm2.019,-1.446l0.173,-0.053l-0.057,-0.241l0.104,-0.095l-0.131,-0.022l-0.056,-0.237l-0.176,0.054l0.204,-0.473l-0.434,0.287l0.016,-0.167l-0.259,0l-0.053,-0.121l-0.077,0.121l-0.251,-0l-0.017,0.172l-0.385,-0.294l0.111,0.471l-0.157,-0.052l-0.102,0.236l-0.143,0.023l0.09,0.101l-0.101,0.235l0.157,0.052l-0.438,0.29l0.511,0.001l-0.117,0.139l0.189,0.145l-0.033,0.135l0.131,-0.06l0.195,0.149l0.114,-0.135l0.109,0.466l0.204,-0.473l0.091,0.142l0.221,-0.146l0.115,0.059l-0.007,-0.131l0.225,-0.149l-0.09,-0.139l0.503,0l-0.379,-0.29Zm0.698,-1.148l-0.257,0.083l0.152,0.116l-0.194,0.23l0.392,0l-0.093,-0.429Zm0.06,-0.803l-0.779,0.533l0.138,0.105l0.218,-0.1l-0.055,0.224l0.114,0.087l0.364,-0.849Zm-0.782,0.239l-0.456,0.004l0.087,0.372l0.188,-0.223l0.152,0.116l0.029,-0.269Zm-1.224,0.274l0.185,-0.122l0.152,0.235l0.171,-0.398l-0.011,0.017l-0.469,0.004l-0.028,0.264Zm-0.761,2.668l0.21,-0.489l-0.292,0.09l-0.092,-0.393l-0.217,-0.037l0.172,-0.157l-0.094,-0.399l0.286,-0.088l-0.471,-0.36l0.147,0.168l-0.195,0.452l0.293,0.097l-0.824,0.563l0.953,-0.008l-0.221,0.268l0.349,0.274l-0.004,0.019Zm0.712,-2.635l-0.67,-0.523l0.184,0.845l0.175,-0.116l-0.011,-0.217l0.191,0.097l0.131,-0.086Zm-0.766,0.279l-0.174,0.404l0.406,0l-0.149,-0.23l0.148,-0.098l-0.231,-0.076Z" style="fill:#e7ebee;stroke:#1fa6a4;stroke-width:0.3px;stroke-linecap:round;stroke-miterlimit:1.5;"/><path d="M29.395,46.037l-0.309,-0.31l-0.347,0.531l-0.391,-0.097l0.157,0.454l-0.397,0.607l0.264,0.265l-1.138,0.378l1.22,0.58l-0.411,0.332l0.308,0.588l-0.153,0.339l0.312,-0.036l0.378,0.722l0.334,-0.268l-0.06,1.42l0.772,-1.181l0.127,0.587l0.634,-0.21l0.176,0.237l0.058,-0.314l0.633,-0.211l-0.127,-0.587l1.146,0.545l-0.626,-1.193l0.397,0.026l0.037,-0.86l0.284,-0.163l-0.269,-0.198l0.03,-0.701l-0.491,-0.032l0.823,-1.258l-1.138,0.378l0.121,-0.393l-0.589,-0.28l-0.046,-0.491l-0.3,0.326l-0.515,-0.245l-0.142,0.46l-0.695,-1.326l-0.067,1.579Zm0.922,3.49l0.41,0.782l0.04,-0.932l-0.14,0.047l-0.042,0.229l-0.128,-0.173l-0.14,0.047Zm1.075,-0.242l-0.5,-0.238l0.058,0.269l-0.173,0.058l0.175,0.175l0.208,-0.317l0.234,0.058l-0.002,-0.005Zm-1.654,0.549l0,0.005l0.18,-0.195l0.308,0.147l0.08,-0.261l-0.173,0.058l-0.058,-0.27l-0.337,0.516Zm0.775,-1.068l0.109,0.11l0.131,-0.199l0.106,0.026l-0.043,-0.123l0.128,-0.196l-0.111,-0.112l0.392,-0.13l-0.374,-0.178l0.115,-0.092l-0.113,-0.214l0.055,-0.121l-0.111,0.013l-0.11,-0.209l-0.118,0.095l0.022,-0.504l-0.255,0.389l-0.035,-0.163l-0.195,0.065l-0.078,-0.105l-0.025,0.139l-0.195,0.065l0.035,0.163l-0.378,-0.18l0.223,0.424l-0.141,-0.009l-0.01,0.248l-0.102,0.058l0.096,0.071l-0.01,0.255l0.135,0.009l-0.251,0.385l0.392,-0.13l-0.051,0.166l0.19,0.09l0.012,0.133l0.081,-0.088l0.194,0.092l0.05,-0.163l0.219,0.417l0.021,-0.497Zm1.024,-0.112l-0.15,-0.15l-0.006,0.154l-0.232,-0.016l0.176,0.337l0.212,-0.325Zm-2.11,0.501l-0.069,0.223l0.314,0.15l0.017,-0.401l-0.195,0.157l-0.067,-0.129Zm2.634,-0.885l-0.651,-0.309l-0.003,0.073l0.16,0.117l-0.169,0.096l-0.01,0.246l0.673,-0.223Zm-2.874,0.429l-0.438,0.67l0.673,-0.223l-0.109,-0.207l-0.184,0.021l0.091,-0.2l-0.033,-0.061Zm2.292,-1.529l-0.279,0.426l0.225,0.015l-0.01,0.243l0.162,-0.13l-0.185,-0.352l0.092,-0.203l-0.005,0.001Zm-2.67,0.886l-0.004,0.002l0.161,0.119l-0.018,0.419l0.192,0.013l-0.107,-0.204l0.189,-0.152l-0.413,-0.197Zm2.432,-0.973l-0.171,-0.325l-0.117,0.095l0.099,0.047l-0.085,0.274l0.274,-0.091Zm-2.105,0.372l-0.139,-0.009l-0.017,0.388l0.274,-0.091l-0.185,-0.185l0.067,-0.103Zm1.739,-0.64l0.032,-0.746l-0.38,0.581l0.056,0.027l0.134,-0.146l0.021,0.219l0.137,0.065Zm-1.451,0.201l-0.564,-0.268l0.329,0.627l0.092,-0.141l-0.07,-0.203l0.175,0.043l0.038,-0.058Zm0.372,-0.402l-0.326,0.108l0.036,0.167l0.096,-0.145l0.181,0.181l0.013,-0.311Zm0.572,-0.19l-0.325,0.108l0.136,0.261l0.084,-0.269l0.141,0.068l-0.036,-0.168Z" style="fill:#e7ebee;stroke:#1fa6a4;stroke-width:0.3px;stroke-linecap:round;stroke-miterlimit:1.5;"/><path d="M50.349,49.577l0.006,-0.55l-0.606,0.022l-0.199,-0.481l-0.209,0.495l-0.693,0.024l-0.006,0.47l-1.037,-0.92l0.425,1.701l-0.511,-0.191l-0.201,0.751l-0.34,0.085l0.237,0.301l-0.246,0.922l0.414,0.155l-1.031,0.968l1.349,-0.048l-0.323,0.56l0.577,0.512l-0.045,0.357l0.259,-0.168l0.577,0.511l0.323,-0.56l0.4,1.598l0.406,-1.521l0.252,0.435l0.625,-0.586l0.307,0.18l-0.045,-0.426l0.509,-0.478l-0.312,-0.537l1.437,-0.051l-1.037,-0.92l0.357,-0.157l-0.206,-0.821l0.31,-0.405l-0.431,-0.078l-0.179,-0.718l-0.418,0.184l0.452,-1.692l-1.147,1.077Zm-1.806,3.5l-0.267,0.999l0.677,-0.635l-0.127,-0.113l-0.188,0.122l0.033,-0.26l-0.128,-0.113Zm0.9,0.952l-0.174,-0.697l-0.148,0.257l-0.158,-0.14l-0.004,0.311l0.363,-0.013l0.119,0.288l0.002,-0.006Zm-1.508,-1.337l-0.003,0.005l0.258,0.047l0.107,0.429l0.236,-0.104l-0.158,-0.14l0.149,-0.257l-0.589,0.02Zm1.272,0.039l-0.002,0.194l0.227,-0.008l0.054,0.13l0.057,-0.134l0.224,-0.007l0.002,-0.198l0.358,0.317l-0.131,-0.521l0.142,0.053l0.073,-0.274l0.122,-0.03l-0.085,-0.108l0.071,-0.266l-0.146,-0.055l0.366,-0.343l-0.444,0.015l0.09,-0.155l-0.179,-0.158l0.02,-0.157l-0.114,0.074l-0.178,-0.158l-0.089,0.155l-0.132,-0.526l-0.144,0.541l-0.089,-0.154l-0.18,0.169l-0.11,-0.065l0.016,0.153l-0.186,0.174l0.087,0.149l-0.44,0.015l0.358,0.318l-0.151,0.066l0.066,0.265l-0.084,0.11l0.117,0.021l0.067,0.27l0.148,-0.066l-0.142,0.533l0.361,-0.339Zm0.775,0.993l0.003,-0.266l-0.112,0.104l-0.147,-0.254l-0.115,0.429l0.371,-0.013Zm-1.786,-1.85l-0.202,0.089l0.11,0.439l0.291,-0.273l-0.242,-0.091l0.043,-0.164Zm2.41,2.12l-0.227,-0.907l-0.053,0.05l0.027,0.253l-0.182,-0.107l-0.178,0.167l0.613,0.544Zm-2.254,-2.703l-0.765,0.027l0.613,0.543l0.07,-0.263l-0.14,-0.178l0.201,-0.05l0.021,-0.079Zm2.626,1.294l-0.488,0.018l0.143,0.246l-0.176,0.166l0.2,0.075l0.12,-0.449l0.204,-0.051l-0.003,-0.005Zm-2.435,-2.158l-0.005,-0.002l0.027,0.255l-0.304,0.286l0.122,0.211l0.069,-0.261l0.235,0.088l-0.144,-0.577Zm2.333,1.846l0.11,-0.415l-0.145,-0.055l0.034,0.139l-0.249,0.11l0.25,0.221Zm-1.692,-1.938l-0.088,-0.153l-0.282,0.264l0.249,0.221l0.004,-0.328l0.117,-0.004Zm1.63,1.36l0.542,-0.51l-0.664,0.024l0.02,0.078l0.193,0.035l-0.139,0.182l0.048,0.191Zm-1.127,-1.378l-0.197,-0.785l-0.214,0.8l0.162,-0.006l0.093,-0.221l0.089,0.215l0.067,-0.003Zm0.533,0.099l-0.297,-0.263l-0.092,0.159l0.166,-0.006l-0.003,0.322l0.226,-0.212Zm0.522,0.463l-0.297,-0.263l-0.089,0.332l0.244,-0.107l0.049,0.197l0.093,-0.159Z" style="fill:#e7ebee;stroke:#1fa6a4;stroke-width:0.3px;stroke-linecap:round;stroke-miterlimit:1.5;"/><path d="M55.706,54.459l-0.519,-0.462l-0.582,0.792l-0.656,-0.144l0.264,0.677l-0.667,0.906l0.444,0.395l-1.911,0.564l2.049,0.866l-0.692,0.495l0.518,0.878l-0.257,0.505l0.523,-0.053l0.636,1.078l0.56,-0.4l-0.101,2.119l1.297,-1.764l0.214,0.878l1.063,-0.314l0.296,0.353l0.097,-0.469l1.063,-0.314l-0.214,-0.877l1.924,0.814l-1.049,-1.78l0.666,0.038l0.061,-1.284l0.478,-0.242l-0.452,-0.296l0.05,-1.045l-0.824,-0.048l1.381,-1.878l-1.911,0.564l0.205,-0.587l-0.989,-0.418l-0.079,-0.732l-0.503,0.487l-0.864,-0.366l-0.239,0.687l-1.168,-1.98l-0.112,2.357Zm1.549,5.208l0.689,1.168l0.066,-1.391l-0.235,0.069l-0.07,0.342l-0.216,-0.257l-0.234,0.069Zm1.805,-0.361l-0.84,-0.355l0.098,0.402l-0.29,0.086l0.293,0.262l0.349,-0.474l0.393,0.086l-0.003,-0.007Zm-2.778,0.819l0.001,0.008l0.301,-0.291l0.518,0.219l0.135,-0.389l-0.291,0.086l-0.098,-0.402l-0.566,0.769Zm1.302,-1.593l0.184,0.164l0.218,-0.298l0.178,0.039l-0.072,-0.183l0.216,-0.292l-0.187,-0.167l0.658,-0.195l-0.627,-0.265l0.192,-0.137l-0.189,-0.32l0.092,-0.181l-0.187,0.019l-0.183,-0.31l-0.199,0.141l0.036,-0.753l-0.427,0.581l-0.059,-0.243l-0.328,0.096l-0.13,-0.155l-0.043,0.206l-0.328,0.097l0.06,0.243l-0.634,-0.267l0.373,0.632l-0.236,-0.014l-0.017,0.37l-0.171,0.087l0.162,0.106l-0.019,0.381l0.229,0.013l-0.423,0.575l0.659,-0.194l-0.086,0.247l0.318,0.135l0.022,0.198l0.136,-0.131l0.325,0.137l0.084,-0.243l0.368,0.623l0.035,-0.742Zm1.72,-0.167l-0.252,-0.224l-0.011,0.229l-0.39,-0.023l0.296,0.502l0.357,-0.484Zm-3.544,0.748l-0.116,0.332l0.529,0.223l0.028,-0.598l-0.328,0.235l-0.113,-0.192Zm4.422,-1.322l-1.091,-0.461l-0.006,0.109l0.268,0.175l-0.283,0.143l-0.017,0.367l1.129,-0.333Zm-4.824,0.64l-0.735,1l1.128,-0.333l-0.181,-0.308l-0.31,0.032l0.152,-0.299l-0.054,-0.092Zm3.848,-2.282l-0.468,0.637l0.377,0.022l-0.017,0.363l0.272,-0.194l-0.31,-0.526l0.153,-0.302l-0.007,0Zm-4.484,1.323l-0.006,0.004l0.27,0.177l-0.029,0.626l0.322,0.018l-0.179,-0.304l0.317,-0.227l-0.695,-0.294Zm4.084,-1.451l-0.286,-0.486l-0.198,0.141l0.168,0.071l-0.143,0.409l0.459,-0.135Zm-3.533,0.555l-0.235,-0.014l-0.027,0.579l0.458,-0.136l-0.309,-0.276l0.113,-0.153Zm2.919,-0.955l0.053,-1.115l-0.638,0.868l0.094,0.04l0.226,-0.218l0.035,0.328l0.23,0.097Zm-2.437,0.299l-0.946,-0.4l0.552,0.936l0.155,-0.211l-0.119,-0.303l0.294,0.064l0.064,-0.086Zm0.625,-0.6l-0.547,0.162l0.061,0.249l0.16,-0.217l0.303,0.271l0.023,-0.465Zm0.961,-0.283l-0.547,0.161l0.23,0.39l0.14,-0.402l0.237,0.101l-0.06,-0.25Z" style="fill:#e7ebee;stroke:#1fa6a4;stroke-width:0.3px;stroke-linecap:round;stroke-miterlimit:1.5;"/></svg>