<?xml version="1.0" encoding="UTF-8" standalone="no"?><!DOCTYPE svg PUBLIC "-//W3C//DTD SVG 1.1//EN" "http://www.w3.org/Graphics/SVG/1.1/DTD/svg11.dtd"><svg width="100%" height="100%" viewBox="0 0 100 80" version="1.1" xmlns="http://www.w3.org/2000/svg" xmlns:xlink="http://www.w3.org/1999/xlink" xml:space="preserve" xmlns:serif="http://www.serif.com/" style="fill-rule:evenodd;clip-rule:evenodd;stroke-linejoin:round;stroke-miterlimit:2;"><path d="M100,11.739c-0,-6.479 -5.26,-11.739 -11.739,-11.739l-76.522,0c-6.479,0 -11.739,5.26 -11.739,11.739l0,56.522c0,6.479 5.26,11.739 11.739,11.739l76.522,0c6.479,0 11.739,-5.26 11.739,-11.739l-0,-56.522Z" style="fill:#97c3e4;"/><circle cx="63.5" cy="32" r="29.5" style="fill:#fcd762;stroke:#ebdba0;stroke-width:2px;"/><path d="M30.296,23.482c2.83,-1.246 5.772,-1.202 7.313,0.315c0.289,0.286 0.514,0.61 0.676,0.96c0.357,-0.064 0.727,-0.097 1.106,-0.097c3.04,-0 5.507,2.154 5.507,4.807c0,2.655 -2.467,4.809 -5.507,4.809l-0.075,0c-0.519,2.329 -3.635,4.122 -7.398,4.122c-3.5,0 -6.442,-1.552 -7.252,-3.644c-2.849,1.255 -5.813,1.206 -7.356,-0.328c-0.288,-0.286 -0.51,-0.609 -0.67,-0.961c-0.358,0.062 -0.728,0.094 -1.107,0.093c-3.04,-0.014 -5.495,-2.179 -5.48,-4.832c0.014,-2.654 2.493,-4.798 5.533,-4.785l0.075,-0c0.533,-2.325 3.659,-4.106 7.422,-4.09c3.475,0.016 6.39,1.558 7.213,3.631Z" style="fill:#aeaeb7;stroke:#4c545d;stroke-width:2px;"/><path d="M43.936,56.325c-0.005,0.04 -0.011,0.082 -0.017,0.123c-0.371,2.329 -2.882,3.961 -5.605,3.644c-0.022,-0.003 -0.044,-0.005 -0.068,-0.008c-0.79,1.988 -3.832,3.237 -7.202,2.844c-3.113,-0.364 -5.518,-2.011 -5.977,-3.914c-2.703,0.81 -5.334,0.474 -6.512,-1.013c-0.221,-0.28 -0.379,-0.585 -0.477,-0.91c-0.328,0.021 -0.665,0.014 -1.005,-0.025c-2.724,-0.305 -4.645,-2.445 -4.286,-4.775c0.008,-0.062 0.019,-0.124 0.033,-0.185c-0.115,-0.044 -0.225,-0.091 -0.33,-0.141c-0.185,0.1 -0.398,0.171 -0.633,0.206c-1.022,0.145 -2.084,-0.464 -2.371,-1.361c-0.133,-0.419 -0.075,-0.827 0.13,-1.158c-2.65,-0.984 -4.196,-3.707 -3.477,-6.249c0.75,-2.657 3.691,-4.116 6.564,-3.256c0.661,0.198 1.262,0.502 1.785,0.884c2.542,-0.98 6.017,-1.053 9.582,0.014c1.153,0.345 2.234,0.785 3.227,1.299c0.415,-0.15 0.86,-0.275 1.329,-0.374c1.957,-0.407 3.923,-0.242 5.411,0.351c0.276,-0.176 0.599,-0.307 0.962,-0.382c1.575,-0.33 3.315,0.519 3.881,1.892c0.455,1.102 0.019,2.209 -0.984,2.774c0.878,0.291 1.69,0.648 2.414,1.064c0.532,-0.237 1.131,-0.389 1.783,-0.435c2.828,-0.201 5.563,1.671 6.105,4.178c0.541,2.506 -1.317,4.705 -4.145,4.906c-0.039,0.002 -0.078,0.005 -0.117,0.007Z" style="fill:#a5abaf;stroke:#4c545d;stroke-width:2px;"/><path d="M72.258,44.428c0.025,0.045 0.048,0.09 0.072,0.136c1.298,2.576 0.099,5.646 -2.679,6.85c-0.023,0.011 -0.047,0.02 -0.068,0.03c0.664,2.466 -1.306,5.443 -4.743,6.933c-3.175,1.378 -6.594,1.049 -8.368,-0.629c-1.961,2.341 -4.664,3.477 -6.821,2.622c-0.404,-0.16 -0.768,-0.382 -1.088,-0.658c-0.293,0.207 -0.615,0.386 -0.961,0.538c-2.77,1.217 -6.083,0.119 -7.394,-2.451c-0.035,-0.069 -0.067,-0.139 -0.099,-0.209c-0.138,0.021 -0.274,0.033 -0.409,0.043c-0.103,0.205 -0.251,0.397 -0.449,0.563c-0.853,0.723 -2.28,0.698 -3.183,-0.054c-0.42,-0.353 -0.655,-0.8 -0.698,-1.251c-3.178,0.485 -6.553,-1.418 -7.676,-4.408c-1.173,-3.124 0.554,-6.257 3.854,-6.994c0.759,-0.169 1.536,-0.196 2.298,-0.101c1.689,-2.424 4.893,-4.448 8.99,-5.364c1.325,-0.294 2.651,-0.453 3.944,-0.486c0.284,-0.387 0.612,-0.763 0.982,-1.126c1.545,-1.513 3.505,-2.447 5.32,-2.681c0.133,-0.331 0.343,-0.646 0.63,-0.927c1.245,-1.219 3.476,-1.331 4.978,-0.251c1.205,0.864 1.577,2.237 1.037,3.373c1.028,-0.197 2.043,-0.287 3.015,-0.271c0.331,-0.539 0.786,-1.03 1.363,-1.442c2.509,-1.791 6.397,-1.421 8.676,0.826c2.279,2.247 2.091,5.526 -0.418,7.316c-0.034,0.025 -0.07,0.049 -0.105,0.073Z" style="fill:#a5abaf;stroke:#4c545d;stroke-width:2px;"/><path d="M37.608,25.202c0.812,-2.32 2.584,-4.423 5.135,-5.778c5.22,-2.771 11.747,-1.374 14.567,3.119c0.398,0.633 0.701,1.295 0.914,1.972c4.942,1.808 8.436,4.985 9.131,8.691c0.471,0.241 0.917,0.549 1.331,0.925c2.295,2.084 3.049,5.757 2.258,9.477c0.551,0.211 1.032,0.583 1.393,1.116c1.2,1.777 0.603,4.677 -1.333,6.474c-1.647,1.527 -3.736,1.767 -5.062,0.711c-0.807,0.645 -1.658,1.148 -2.519,1.505c-0.117,0.136 -0.235,0.271 -0.359,0.402c-3.315,3.553 -8.206,4.114 -11.082,1.339c-0.035,0.011 -0.071,0.021 -0.106,0.032c-1.877,0.539 -3.742,0.147 -4.995,-0.886c-2.411,2.311 -6.525,3.834 -11.191,3.834c-4.208,-0 -7.968,-1.239 -10.433,-3.177c-0.687,0.251 -1.433,0.389 -2.215,0.389c-2.32,0 -4.343,-1.218 -5.388,-3.016c-3.108,0.462 -6.378,0.313 -9.19,-0.564c-6.148,-1.915 -7.816,-6.574 -3.719,-10.399c0.195,-0.183 0.4,-0.36 0.614,-0.532c-0.538,-0.115 -1.031,-0.374 -1.434,-0.782c-1.366,-1.392 -1.162,-4.001 0.455,-5.824c1.373,-1.55 3.331,-2.036 4.727,-1.29c2.723,-2.647 6.342,-3.472 9.122,-1.753c0.488,0.303 0.928,0.671 1.314,1.089c0.551,-0.108 1.115,-0.206 1.691,-0.29c0.325,-2.338 2.483,-4.591 5.48,-5.451c0.951,-0.273 1.894,-0.379 2.783,-0.338c0.404,-0.511 0.938,-0.892 1.569,-1.074c1.416,-0.406 2.89,0.326 3.694,1.698c0.858,-0.598 1.813,-1.141 2.848,-1.619Z" style="fill:#c3c8cb;stroke:#4c545d;stroke-width:2px;"/><path d="M22.911,40.394c0.74,-2.689 5.185,-4.759 10.549,-4.759c5.883,0 10.655,2.487 10.655,5.552c0,0.401 -0.081,0.793 -0.237,1.171c1.561,2.408 -0.215,6.075 -4.488,8.753c-4.876,3.055 -11.17,3.676 -14.045,1.382c-0.414,-0.33 -0.733,-0.703 -0.965,-1.107c-0.509,0.074 -1.036,0.112 -1.577,0.112c-4.335,-0 -7.852,-2.487 -7.852,-5.552c0,-3.065 3.517,-5.552 7.852,-5.552l0.108,0Z" style="fill:#efeff0;stroke:#4c545d;stroke-width:2px;"/><path d="M34.969,48.984c-3.001,1.47 -6.123,1.419 -7.76,-0.373c-0.306,-0.337 -0.545,-0.718 -0.718,-1.131c-0.378,0.075 -0.771,0.114 -1.173,0.114c-3.226,-0 -5.844,-2.542 -5.844,-5.675c-0,-3.133 2.618,-5.676 5.844,-5.676l0.08,0c0.55,-2.748 3.858,-4.865 7.851,-4.865c3.714,0 6.836,1.833 7.697,4.301c3.023,-1.48 6.169,-1.422 7.804,0.388c0.307,0.337 0.543,0.72 0.712,1.135c0.381,-0.075 0.773,-0.112 1.176,-0.111c3.225,0.017 5.83,2.572 5.814,5.704c-0.014,3.133 -2.645,5.664 -5.871,5.648l-0.08,-0c-0.564,2.745 -3.882,4.846 -7.875,4.827c-3.689,-0.018 -6.783,-1.839 -7.657,-4.286Z" style="fill:#fafafa;stroke:#4c545d;stroke-width:2px;"/><path d="M50.247,49.758c-2.655,1.205 -5.417,1.162 -6.864,-0.306c-0.272,-0.276 -0.483,-0.588 -0.635,-0.928c-0.335,0.064 -0.682,0.095 -1.038,0.095c-2.853,0 -5.168,-2.083 -5.168,-4.651c-0,-2.567 2.315,-4.65 5.168,-4.65l0.07,-0c0.488,-2.253 3.413,-3.987 6.944,-3.987c3.287,-0 6.047,1.502 6.809,3.525c2.673,-1.214 5.455,-1.167 6.903,0.317c0.271,0.276 0.48,0.59 0.628,0.929c0.336,-0.061 0.685,-0.091 1.04,-0.09c2.854,0.014 5.157,2.108 5.144,4.674c-0.013,2.567 -2.341,4.641 -5.194,4.628l-0.07,-0c-0.5,2.25 -3.434,3.972 -6.967,3.956c-3.26,-0.015 -5.998,-1.507 -6.77,-3.512Z" style="fill:#e0e0e3;stroke:#4c545d;stroke-width:2px;"/></svg>