<?xml version="1.0" encoding="UTF-8" standalone="no"?><!DOCTYPE svg PUBLIC "-//W3C//DTD SVG 1.1//EN" "http://www.w3.org/Graphics/SVG/1.1/DTD/svg11.dtd"><svg width="100%" height="100%" viewBox="0 0 800 800" version="1.1" xmlns="http://www.w3.org/2000/svg" xmlns:xlink="http://www.w3.org/1999/xlink" xml:space="preserve" xmlns:serif="http://www.serif.com/" style="fill-rule:evenodd;clip-rule:evenodd;stroke-linejoin:round;stroke-miterlimit:2;"><g id="SVGRepo_bgCarrier"><path d="M700,400c0,-165.575 -134.425,-300 -300,-300c-165.575,-0 -300,134.425 -300,300c-0,165.575 134.425,300 300,300c165.575,0 300,-134.425 300,-300Z" style="fill:#161716;"/></g><g id="SVGRepo_iconCarrier"><path d="M400.004,120.002c-7.833,-0 -15.588,0.321 -23.257,0.951c97.442,54.852 163.257,159.265 163.257,279.05c0,119.785 -65.815,224.198 -163.258,279.05c7.67,0.631 15.425,0.951 23.258,0.951c154.64,0 280,-125.36 280,-280c0,-154.641 -125.36,-280.002 -280,-280.002Z" style="fill:#e8f0e9;fill-rule:nonzero;"/></g></svg>