<?xml version="1.0" encoding="UTF-8" standalone="no"?><!DOCTYPE svg PUBLIC "-//W3C//DTD SVG 1.1//EN" "http://www.w3.org/Graphics/SVG/1.1/DTD/svg11.dtd"><svg width="100%" height="100%" viewBox="0 0 100 100" version="1.1" xmlns="http://www.w3.org/2000/svg" xmlns:xlink="http://www.w3.org/1999/xlink" xml:space="preserve" xmlns:serif="http://www.serif.com/" style="fill-rule:evenodd;clip-rule:evenodd;stroke-linejoin:round;stroke-miterlimit:2;"><path d="M50,2.438l-5.132,14.026c-2.461,0.376 -4.873,1.022 -7.192,1.927l-11.457,-9.581l2.569,14.713c-1.943,1.556 -3.709,3.322 -5.265,5.265l-14.713,-2.569l9.581,11.457c-0.905,2.319 -1.551,4.731 -1.927,7.192l-14.026,5.132l14.026,5.132c0.376,2.461 1.022,4.873 1.927,7.192l-9.581,11.457l14.713,-2.569c1.556,1.943 3.322,3.709 5.265,5.265l-2.569,14.713l11.457,-9.581c2.319,0.905 4.731,1.551 7.192,1.927l5.132,14.026l5.132,-14.026c2.461,-0.376 4.873,-1.022 7.192,-1.927l11.457,9.581l-2.569,-14.713c1.943,-1.556 3.709,-3.322 5.265,-5.265l14.713,2.569l-9.581,-11.457c0.905,-2.319 1.551,-4.731 1.927,-7.192l14.027,-5.132l-14.027,-5.132c-0.376,-2.461 -1.022,-4.873 -1.927,-7.192l9.581,-11.457l-14.713,2.569c-1.556,-1.943 -3.322,-3.709 -5.265,-5.265l2.569,-14.713l-11.457,9.581c-2.319,-0.905 -4.731,-1.551 -7.192,-1.927l-5.132,-14.027Zm0,8.732l2.314,6.325c0.376,1.028 1.282,1.77 2.364,1.935c2.243,0.343 4.442,0.932 6.556,1.757c1.02,0.397 2.175,0.208 3.014,-0.494l5.168,-4.321c-0,0 -1.159,6.636 -1.159,6.636c-0.188,1.078 0.226,2.173 1.08,2.857c1.771,1.419 3.38,3.028 4.799,4.799c0.684,0.854 1.779,1.268 2.857,1.08l6.636,-1.159c-0,0 -4.321,5.168 -4.321,5.168c-0.702,0.839 -0.891,1.994 -0.494,3.014c0.825,2.114 1.414,4.313 1.757,6.556c0.165,1.082 0.907,1.988 1.935,2.364l6.325,2.314c0,0 -6.325,2.314 -6.325,2.314c-1.028,0.376 -1.77,1.282 -1.935,2.364c-0.343,2.243 -0.932,4.442 -1.757,6.556c-0.397,1.02 -0.208,2.175 0.494,3.014l4.321,5.168c-0,-0 -6.636,-1.159 -6.636,-1.159c-1.078,-0.188 -2.173,0.226 -2.857,1.08c-1.419,1.771 -3.028,3.38 -4.799,4.799c-0.854,0.684 -1.268,1.779 -1.08,2.857l1.159,6.636c-0,-0 -5.168,-4.321 -5.168,-4.321c-0.839,-0.702 -1.994,-0.891 -3.014,-0.494c-2.114,0.825 -4.313,1.414 -6.556,1.757c-1.082,0.165 -1.988,0.907 -2.364,1.935l-2.314,6.325c-0,0 -2.314,-6.325 -2.314,-6.325c-0.376,-1.028 -1.282,-1.77 -2.364,-1.935c-2.243,-0.343 -4.442,-0.932 -6.556,-1.757c-1.02,-0.397 -2.175,-0.208 -3.014,0.494l-5.168,4.321c0,-0 1.159,-6.636 1.159,-6.636c0.188,-1.078 -0.226,-2.173 -1.08,-2.857c-1.771,-1.419 -3.38,-3.028 -4.799,-4.799c-0.684,-0.854 -1.779,-1.268 -2.857,-1.08l-6.636,1.159c0,-0 4.321,-5.168 4.321,-5.168c0.702,-0.839 0.891,-1.994 0.494,-3.014c-0.825,-2.114 -1.414,-4.313 -1.757,-6.556c-0.165,-1.082 -0.907,-1.988 -1.935,-2.364l-6.325,-2.314c-0,-0 6.325,-2.314 6.325,-2.314c1.028,-0.376 1.77,-1.282 1.935,-2.364c0.343,-2.243 0.932,-4.442 1.757,-6.556c0.397,-1.02 0.208,-2.175 -0.494,-3.014l-4.321,-5.168c0,0 6.636,1.159 6.636,1.159c1.078,0.188 2.173,-0.226 2.857,-1.08c1.419,-1.771 3.028,-3.38 4.799,-4.799c0.854,-0.684 1.268,-1.779 1.08,-2.857l-1.159,-6.636c0,0 5.168,4.321 5.168,4.321c0.839,0.702 1.994,0.891 3.014,0.494c2.114,-0.825 4.313,-1.414 6.556,-1.757c1.082,-0.165 1.988,-0.907 2.364,-1.935l2.314,-6.325Z"/><text x="24.995px" y="62.885px" style="font-family:'Arial-BoldMT', 'Arial', sans-serif;font-weight:700;font-size:36px;">UV</text></svg>