<?xml version="1.0" encoding="UTF-8" standalone="no"?><!DOCTYPE svg PUBLIC "-//W3C//DTD SVG 1.1//EN" "http://www.w3.org/Graphics/SVG/1.1/DTD/svg11.dtd"><svg width="100%" height="100%" viewBox="0 0 100 80" version="1.1" xmlns="http://www.w3.org/2000/svg" xmlns:xlink="http://www.w3.org/1999/xlink" xml:space="preserve" xmlns:serif="http://www.serif.com/" style="fill-rule:evenodd;clip-rule:evenodd;stroke-linejoin:round;stroke-miterlimit:2;"><path d="M59,12.425l1.72,5.293l3.314,-1.636l-0.532,3.658l5.566,-0l-4.503,3.271l2.58,2.646l-3.643,0.625l1.72,5.293l-4.502,-3.271l-1.72,3.271l-1.72,-3.271l-4.502,3.271l1.72,-5.293l-3.643,-0.625l2.58,-2.646l-4.503,-3.271l5.566,-0l-0.532,-3.658l3.314,1.636l1.72,-5.293Z" style="fill:#d7d9d9;"/><path d="M59,12.425l1.72,5.293l3.314,-1.636l-0.532,3.658l5.566,-0l-4.503,3.271l2.58,2.646l-3.643,0.625l1.72,5.293l-4.502,-3.271l-1.72,3.271l-1.72,-3.271l-4.502,3.271l1.72,-5.293l-3.643,-0.625l2.58,-2.646l-4.503,-3.271l5.566,-0l-0.532,-3.658l3.314,1.636l1.72,-5.293Zm-2.557,7.066l-1.816,2.099l0.235,2.765l1.435,2.376l2.703,0.63l2.703,-0.63l1.435,-2.376l0.235,-2.765l-1.816,-2.099l-2.557,-1.078l-2.557,1.078Z" style="fill:#d7d9d9;"/><path d="M12.963,3.5l-0.809,3.806l2.579,0.169l-1.601,2.029l3.37,1.945l-3.87,0.407l0.637,2.505l-2.424,-0.896l-0.809,3.807l-1.583,-3.555l-2.185,1.379l0.102,-2.582l-3.87,0.407l2.892,-2.604l-1.987,-1.652l2.487,-0.7l-1.583,-3.555l3.37,1.945l0.957,-2.4l1.435,2.149l2.892,-2.604Z" style="fill:#d7d9d9;"/><path d="M12.963,3.5l-0.809,3.806l2.579,0.169l-1.601,2.029l3.37,1.945l-3.87,0.407l0.637,2.505l-2.424,-0.896l-0.809,3.807l-1.583,-3.555l-2.185,1.379l0.102,-2.582l-3.87,0.407l2.892,-2.604l-1.987,-1.652l2.487,-0.7l-1.583,-3.555l3.37,1.945l0.957,-2.4l1.435,2.149l2.892,-2.604Zm-5.566,4.339l-0.715,1.523l0.033,1.682l1.228,1.151l1.611,0.488l1.473,-0.812l0.962,-1.381l-0.317,-1.653l-1.016,-1.341l-1.67,-0.209l-1.589,0.552Z" style="fill:#d7d9d9;"/><path d="M5.38,28.708l0.993,1.529l0.909,-0.799l0.142,1.202l1.76,-0.471l-1.147,1.415l1.04,0.619l-1.099,0.506l0.993,1.528l-1.701,-0.653l-0.267,1.18l-0.821,-0.888l-1.147,1.416l0.096,-1.82l-1.205,0.111l0.591,-1.055l-1.701,-0.653l1.76,-0.472l-0.478,-1.111l1.187,0.236l0.095,-1.82Z" style="fill:#d7d9d9;"/><path d="M5.38,28.708l0.993,1.529l0.909,-0.799l0.142,1.202l1.76,-0.471l-1.147,1.415l1.04,0.619l-1.099,0.506l0.993,1.528l-1.701,-0.653l-0.267,1.18l-0.821,-0.888l-1.147,1.416l0.096,-1.82l-1.205,0.111l0.591,-1.055l-1.701,-0.653l1.76,-0.472l-0.478,-1.111l1.187,0.236l0.095,-1.82Zm0.493,3.021l-0.145,0.298l0.113,0.313l0.239,0.23l0.332,-0.011l0.293,-0.157l0.092,-0.319l-0.058,-0.327l-0.275,-0.186l-0.329,-0.045l-0.262,0.204Z" style="fill:#d7d9d9;"/><path d="M93.098,3.881l1.148,1.768l1.053,-0.923l0.164,1.39l2.037,-0.545l-1.327,1.638l1.204,0.716l-1.272,0.586l1.148,1.769l-1.969,-0.756l-0.308,1.366l-0.95,-1.029l-1.328,1.639l0.111,-2.106l-1.395,0.129l0.685,-1.222l-1.969,-0.756l2.037,-0.545l-0.553,-1.287l1.373,0.274l0.111,-2.106Z" style="fill:#d7d9d9;"/><path d="M93.098,3.881l1.148,1.768l1.053,-0.923l0.164,1.39l2.037,-0.545l-1.327,1.638l1.204,0.716l-1.272,0.586l1.148,1.769l-1.969,-0.756l-0.308,1.366l-0.95,-1.029l-1.328,1.639l0.111,-2.106l-1.395,0.129l0.685,-1.222l-1.969,-0.756l2.037,-0.545l-0.553,-1.287l1.373,0.274l0.111,-2.106Zm0.405,3.362l-0.226,0.467l0.176,0.489l0.375,0.359l0.519,-0.017l0.457,-0.244l0.145,-0.499l-0.092,-0.511l-0.429,-0.292l-0.515,-0.071l-0.41,0.319Z" style="fill:#d7d9d9;"/><path d="M46.311,5l0.962,1.482l0.883,-0.774l0.137,1.165l1.707,-0.457l-1.112,1.373l1.009,0.6l-1.066,0.491l0.962,1.482l-1.65,-0.633l-0.258,1.144l-0.797,-0.862l-1.112,1.374l0.093,-1.765l-1.169,0.108l0.574,-1.024l-1.65,-0.633l1.707,-0.458l-0.463,-1.078l1.151,0.23l0.092,-1.765Z" style="fill:#d7d9d9;"/><path d="M46.311,5l0.962,1.482l0.883,-0.774l0.137,1.165l1.707,-0.457l-1.112,1.373l1.009,0.6l-1.066,0.491l0.962,1.482l-1.65,-0.633l-0.258,1.144l-0.797,-0.862l-1.112,1.374l0.093,-1.765l-1.169,0.108l0.574,-1.024l-1.65,-0.633l1.707,-0.458l-0.463,-1.078l1.151,0.23l0.092,-1.765Zm0.509,2.955l-0.129,0.266l0.101,0.279l0.213,0.205l0.296,-0.01l0.261,-0.139l0.083,-0.285l-0.052,-0.292l-0.246,-0.166l-0.293,-0.04l-0.234,0.182Z" style="fill:#d7d9d9;"/><path d="M78.255,3.5l0.005,1.767l1.16,-0.172l-0.516,1.054l1.682,0.541l-1.679,0.551l0.522,1.051l-1.161,-0.166l0.005,1.768l-1.043,-1.427l-0.838,0.821l-0.202,-1.156l-1.679,0.551l1.035,-1.432l-1.04,-0.544l1.037,-0.549l-1.043,-1.426l1.682,0.541l0.195,-1.157l0.843,0.817l1.035,-1.433Z" style="fill:#d7d9d9;"/><path d="M78.255,3.5l0.005,1.767l1.16,-0.172l-0.516,1.054l1.682,0.541l-1.679,0.551l0.522,1.051l-1.161,-0.166l0.005,1.768l-1.043,-1.427l-0.838,0.821l-0.202,-1.156l-1.679,0.551l1.035,-1.432l-1.04,-0.544l1.037,-0.549l-1.043,-1.426l1.682,0.541l0.195,-1.157l0.843,0.817l1.035,-1.433Zm-1.175,2.759l-0.253,0.153l-0.066,0.289l0.068,0.288l0.254,0.153l0.295,0.024l0.223,-0.194l0.115,-0.274l-0.116,-0.272l-0.225,-0.193l-0.295,0.026Z" style="fill:#d7d9d9;"/><path d="M89.255,37.5l0.005,1.767l1.16,-0.172l-0.516,1.054l1.682,0.541l-1.679,0.551l0.522,1.051l-1.161,-0.166l0.005,1.768l-1.043,-1.427l-0.838,0.821l-0.202,-1.156l-1.679,0.551l1.035,-1.432l-1.04,-0.544l1.037,-0.549l-1.043,-1.426l1.682,0.541l0.195,-1.157l0.843,0.817l1.035,-1.433Z" style="fill:#d7d9d9;"/><path d="M89.255,37.5l0.005,1.767l1.16,-0.172l-0.516,1.054l1.682,0.541l-1.679,0.551l0.522,1.051l-1.161,-0.166l0.005,1.768l-1.043,-1.427l-0.838,0.821l-0.202,-1.156l-1.679,0.551l1.035,-1.432l-1.04,-0.544l1.037,-0.549l-1.043,-1.426l1.682,0.541l0.195,-1.157l0.843,0.817l1.035,-1.433Zm-1.175,2.759l-0.253,0.153l-0.066,0.289l0.068,0.288l0.254,0.153l0.295,0.024l0.223,-0.194l0.115,-0.274l-0.116,-0.272l-0.225,-0.193l-0.295,0.026Z" style="fill:#d7d9d9;"/><path d="M68.668,42.303l0.005,1.767l1.161,-0.172l-0.516,1.054l1.682,0.541l-1.679,0.551l0.522,1.051l-1.162,-0.165l0.005,1.767l-1.042,-1.427l-0.838,0.822l-0.202,-1.157l-1.679,0.551l1.035,-1.432l-1.041,-0.543l1.038,-0.549l-1.043,-1.427l1.682,0.541l0.195,-1.157l0.843,0.817l1.034,-1.433Z" style="fill:#d7d9d9;"/><path d="M68.668,42.303l0.005,1.767l1.161,-0.172l-0.516,1.054l1.682,0.541l-1.679,0.551l0.522,1.051l-1.162,-0.165l0.005,1.767l-1.042,-1.427l-0.838,0.822l-0.202,-1.157l-1.679,0.551l1.035,-1.432l-1.041,-0.543l1.038,-0.549l-1.043,-1.427l1.682,0.541l0.195,-1.157l0.843,0.817l1.034,-1.433Zm-1.174,2.759l-0.253,0.154l-0.067,0.288l0.069,0.288l0.253,0.153l0.296,0.024l0.223,-0.194l0.114,-0.273l-0.115,-0.273l-0.225,-0.193l-0.295,0.026Z" style="fill:#d7d9d9;"/><path d="M31.991,8l0.003,1.144l0.752,-0.112l-0.335,0.682l1.089,0.351l-1.087,0.356l0.338,0.68l-0.752,-0.107l0.004,1.144l-0.675,-0.924l-0.542,0.532l-0.131,-0.748l-1.087,0.356l0.67,-0.927l-0.673,-0.351l0.671,-0.356l-0.675,-0.923l1.089,0.35l0.126,-0.748l0.545,0.528l0.67,-0.927Z" style="fill:#d7d9d9;"/><path d="M31.991,8l0.003,1.144l0.752,-0.112l-0.335,0.682l1.089,0.351l-1.087,0.356l0.338,0.68l-0.752,-0.107l0.004,1.144l-0.675,-0.924l-0.542,0.532l-0.131,-0.748l-1.087,0.356l0.67,-0.927l-0.673,-0.351l0.671,-0.356l-0.675,-0.923l1.089,0.35l0.126,-0.748l0.545,0.528l0.67,-0.927Z" style="fill:#d7d9d9;"/><path d="M75.491,29l0.003,1.144l0.752,-0.112l-0.335,0.682l1.089,0.351l-1.087,0.356l0.338,0.68l-0.752,-0.107l0.004,1.144l-0.675,-0.924l-0.542,0.532l-0.131,-0.748l-1.087,0.356l0.67,-0.927l-0.673,-0.351l0.671,-0.356l-0.675,-0.923l1.089,0.35l0.126,-0.748l0.545,0.528l0.67,-0.927Z" style="fill:#d7d9d9;"/><path d="M75.491,29l0.003,1.144l0.752,-0.112l-0.335,0.682l1.089,0.351l-1.087,0.356l0.338,0.68l-0.752,-0.107l0.004,1.144l-0.675,-0.924l-0.542,0.532l-0.131,-0.748l-1.087,0.356l0.67,-0.927l-0.673,-0.351l0.671,-0.356l-0.675,-0.923l1.089,0.35l0.126,-0.748l0.545,0.528l0.67,-0.927Z" style="fill:#d7d9d9;"/><path d="M87.43,52.931l0.003,1.144l0.751,-0.112l-0.334,0.682l1.089,0.351l-1.087,0.356l0.338,0.68l-0.752,-0.107l0.004,1.144l-0.675,-0.923l-0.543,0.531l-0.13,-0.748l-1.087,0.356l0.67,-0.927l-0.673,-0.351l0.671,-0.355l-0.675,-0.924l1.089,0.351l0.126,-0.749l0.545,0.528l0.67,-0.927Z" style="fill:#d7d9d9;"/><path d="M87.43,52.931l0.003,1.144l0.751,-0.112l-0.334,0.682l1.089,0.351l-1.087,0.356l0.338,0.68l-0.752,-0.107l0.004,1.144l-0.675,-0.923l-0.543,0.531l-0.13,-0.748l-1.087,0.356l0.67,-0.927l-0.673,-0.351l0.671,-0.355l-0.675,-0.924l1.089,0.351l0.126,-0.749l0.545,0.528l0.67,-0.927Z" style="fill:#d7d9d9;"/><path d="M48.45,36.061l0.003,0.795l0.522,-0.077l-0.232,0.474l0.757,0.244l-0.756,0.248l0.235,0.473l-0.523,-0.074l0.002,0.795l-0.469,-0.642l-0.377,0.37l-0.091,-0.521l-0.756,0.248l0.466,-0.645l-0.468,-0.244l0.467,-0.247l-0.47,-0.643l0.757,0.244l0.088,-0.521l0.38,0.368l0.465,-0.645Z" style="fill:#d7d9d9;"/><path d="M48.45,36.061l0.003,0.795l0.522,-0.077l-0.232,0.474l0.757,0.244l-0.756,0.248l0.235,0.473l-0.523,-0.074l0.002,0.795l-0.469,-0.642l-0.377,0.37l-0.091,-0.521l-0.756,0.248l0.466,-0.645l-0.468,-0.244l0.467,-0.247l-0.47,-0.643l0.757,0.244l0.088,-0.521l0.38,0.368l0.465,-0.645Z" style="fill:#d7d9d9;"/><path d="M38.814,22.5l-0.424,1.994l1.351,0.088l-0.839,1.063l1.766,1.02l-2.028,0.213l0.334,1.312l-1.27,-0.469l-0.424,1.994l-0.829,-1.862l-1.145,0.722l0.054,-1.352l-2.028,0.213l1.515,-1.364l-1.041,-0.866l1.303,-0.367l-0.829,-1.862l1.765,1.019l0.502,-1.258l0.752,1.126l1.515,-1.364Z" style="fill:#d7d9d9;"/><path d="M38.814,22.5l-0.424,1.994l1.351,0.088l-0.839,1.063l1.766,1.02l-2.028,0.213l0.334,1.312l-1.27,-0.469l-0.424,1.994l-0.829,-1.862l-1.145,0.722l0.054,-1.352l-2.028,0.213l1.515,-1.364l-1.041,-0.866l1.303,-0.367l-0.829,-1.862l1.765,1.019l0.502,-1.258l0.752,1.126l1.515,-1.364Zm-2.464,2.775l-0.201,0.429l0.009,0.474l0.346,0.323l0.453,0.138l0.414,-0.229l0.271,-0.388l-0.089,-0.465l-0.286,-0.378l-0.47,-0.059l-0.447,0.155Z" style="fill:#d7d9d9;"/><path d="M86.5,18.5l-1.681,0.546l0.52,1.052l-1.162,-0.168l0,1.767l-1.038,-1.43l-0.841,0.819l-0.198,-1.156l-1.681,0.546l1.039,-1.43l-1.039,-0.546l1.039,-0.546l-1.039,-1.43l1.681,0.546l0.198,-1.156l0.841,0.819l1.038,-1.43l0,1.767l1.162,-0.168l-0.52,1.052l1.681,0.546Z" style="fill:#d7d9d9;"/><path d="M86.5,18.5l-1.681,0.546l0.52,1.052l-1.162,-0.168l0,1.767l-1.038,-1.43l-0.841,0.819l-0.198,-1.156l-1.681,0.546l1.039,-1.43l-1.039,-0.546l1.039,-0.546l-1.039,-1.43l1.681,0.546l0.198,-1.156l0.841,0.819l1.038,-1.43l0,1.767l1.162,-0.168l-0.52,1.052l1.681,0.546Zm-3.505,-0.442l-0.253,0.154l-0.068,0.288l0.068,0.288l0.253,0.154l0.295,0.025l0.224,-0.194l0.115,-0.273l-0.115,-0.273l-0.224,-0.194l-0.295,0.025Z" style="fill:#d7d9d9;"/><path d="M32.776,38.129l-1.32,-0.673l-0.316,0.932l-0.588,-0.788l-1.048,1.047l0.232,-1.463l-0.984,-0.013l0.568,-0.803l-1.32,-0.673l1.463,-0.231l-0.292,-0.94l0.94,0.292l0.232,-1.463l0.672,1.32l0.804,-0.568l0.012,0.984l1.463,-0.232l-1.047,1.047l0.788,0.589l-0.931,0.316l0.672,1.32Z" style="fill:#d7d9d9;"/><path d="M32.776,38.129l-1.32,-0.673l-0.316,0.932l-0.588,-0.788l-1.048,1.047l0.232,-1.463l-0.984,-0.013l0.568,-0.803l-1.32,-0.673l1.463,-0.231l-0.292,-0.94l0.94,0.292l0.232,-1.463l0.672,1.32l0.804,-0.568l0.012,0.984l1.463,-0.232l-1.047,1.047l0.788,0.589l-0.931,0.316l0.672,1.32Zm-2.114,-2.115l-0.058,0.094l0.026,0.106l0.071,0.084l0.109,0.008l0.102,-0.041l0.042,-0.102l-0.008,-0.109l-0.084,-0.071l-0.107,-0.026l-0.093,0.057Z" style="fill:#d7d9d9;"/><path d="M20.311,24l-0.092,-1.765l-1.151,0.23l0.463,-1.078l-1.707,-0.458l1.65,-0.633l-0.574,-1.024l1.169,0.108l-0.093,-1.765l1.112,1.374l0.797,-0.862l0.258,1.144l1.65,-0.633l-0.962,1.482l1.066,0.491l-1.009,0.6l1.112,1.373l-1.707,-0.457l-0.137,1.165l-0.883,-0.774l-0.962,1.482Z" style="fill:#d7d9d9;"/><path d="M20.311,24l-0.092,-1.765l-1.151,0.23l0.463,-1.078l-1.707,-0.458l1.65,-0.633l-0.574,-1.024l1.169,0.108l-0.093,-1.765l1.112,1.374l0.797,-0.862l0.258,1.144l1.65,-0.633l-0.962,1.482l1.066,0.491l-1.009,0.6l1.112,1.373l-1.707,-0.457l-0.137,1.165l-0.883,-0.774l-0.962,1.482Zm0.481,-3.5l-0.101,0.279l0.129,0.266l0.234,0.182l0.293,-0.04l0.246,-0.166l0.052,-0.292l-0.083,-0.285l-0.261,-0.139l-0.296,-0.01l-0.213,0.205Z" style="fill:#d7d9d9;"/><path d="M9.323,50.1l1.58,-1.754l-1.304,-0.871l1.456,-0.58l-1.18,-2.044l2.156,0.96l0.425,-1.509l1.002,1.206l1.58,-1.754l-0.247,2.347l1.566,-0.062l-0.837,1.325l2.157,0.96l-2.309,0.491l0.543,1.47l-1.519,-0.386l-0.247,2.347l-1.18,-2.044l-1.231,0.971l-0.102,-1.564l-2.309,0.491Z" style="fill:#d7d9d9;"/><path d="M9.323,50.1l1.58,-1.754l-1.304,-0.871l1.456,-0.58l-1.18,-2.044l2.156,0.96l0.425,-1.509l1.002,1.206l1.58,-1.754l-0.247,2.347l1.566,-0.062l-0.837,1.325l2.157,0.96l-2.309,0.491l0.543,1.47l-1.519,-0.386l-0.247,2.347l-1.18,-2.044l-1.231,0.971l-0.102,-1.564l-2.309,0.491Zm3.047,-3.003l-0.224,0.646l0.085,0.678l0.545,0.413l0.671,0.128l0.561,-0.39l0.33,-0.599l-0.199,-0.654l-0.467,-0.498l-0.683,-0.014l-0.619,0.29Z" style="fill:#d7d9d9;"/><path d="M46,53.427l1.157,-1.285l-0.955,-0.638l1.067,-0.425l-0.865,-1.498l1.58,0.703l0.312,-1.105l0.734,0.883l1.157,-1.285l-0.181,1.72l1.148,-0.046l-0.613,0.972l1.58,0.703l-1.692,0.36l0.398,1.077l-1.113,-0.283l-0.181,1.72l-0.865,-1.498l-0.901,0.711l-0.075,-1.146l-1.692,0.36Z" style="fill:#d7d9d9;"/><path d="M46,53.427l1.157,-1.285l-0.955,-0.638l1.067,-0.425l-0.865,-1.498l1.58,0.703l0.312,-1.105l0.734,0.883l1.157,-1.285l-0.181,1.72l1.148,-0.046l-0.613,0.972l1.58,0.703l-1.692,0.36l0.398,1.077l-1.113,-0.283l-0.181,1.72l-0.865,-1.498l-0.901,0.711l-0.075,-1.146l-1.692,0.36Zm2.515,-1.946l-0.089,0.257l0.033,0.269l0.217,0.164l0.267,0.051l0.223,-0.155l0.131,-0.238l-0.079,-0.26l-0.186,-0.198l-0.271,-0.005l-0.246,0.115Z" style="fill:#d7d9d9;"/></svg>