<?xml version="1.0" encoding="UTF-8" standalone="no"?><!DOCTYPE svg PUBLIC "-//W3C//DTD SVG 1.1//EN" "http://www.w3.org/Graphics/SVG/1.1/DTD/svg11.dtd"><svg width="100%" height="100%" viewBox="0 0 100 80" version="1.1" xmlns="http://www.w3.org/2000/svg" xmlns:xlink="http://www.w3.org/1999/xlink" xml:space="preserve" xmlns:serif="http://www.serif.com/" style="fill-rule:evenodd;clip-rule:evenodd;stroke-linejoin:round;stroke-miterlimit:2;"><path d="M100,11.739c-0,-6.479 -5.26,-11.739 -11.739,-11.739l-76.522,0c-6.479,0 -11.739,5.26 -11.739,11.739l0,56.522c0,6.479 5.26,11.739 11.739,11.739l76.522,0c6.479,0 11.739,-5.26 11.739,-11.739l-0,-56.522Z" style="fill:#6a6c82;"/><path d="M61.533,58.857c-0.022,-0.005 -0.046,0.008 -0.052,0.031c-0.005,0.023 0.009,0.046 0.032,0.051c0.023,0.006 0.045,-0.007 0.05,-0.03c0.006,-0.023 -0.008,-0.046 -0.03,-0.052Z" style="fill:#808080;stroke:#5c70d0;stroke-width:0.75px;"/><path d="M70.087,38.788c-0.004,0.038 -0.01,0.077 -0.016,0.116c-0.343,2.19 -2.666,3.725 -5.185,3.426c-0.021,-0.002 -0.041,-0.004 -0.063,-0.007c-0.731,1.869 -3.545,3.044 -6.664,2.674c-2.88,-0.342 -5.105,-1.89 -5.53,-3.68c-2.501,0.762 -4.934,0.446 -6.024,-0.953c-0.205,-0.263 -0.351,-0.55 -0.442,-0.855c-0.304,0.019 -0.615,0.013 -0.929,-0.024c-2.521,-0.287 -4.298,-2.299 -3.967,-4.49c0.008,-0.058 0.019,-0.117 0.031,-0.174c-0.106,-0.041 -0.208,-0.086 -0.305,-0.132c-0.172,0.093 -0.368,0.161 -0.586,0.193c-0.945,0.137 -1.928,-0.436 -2.193,-1.28c-0.124,-0.393 -0.07,-0.778 0.12,-1.089c-2.452,-0.925 -3.883,-3.485 -3.217,-5.876c0.694,-2.499 3.415,-3.87 6.073,-3.061c0.611,0.186 1.167,0.472 1.651,0.831c2.353,-0.922 5.567,-0.99 8.866,0.013c1.067,0.325 2.067,0.739 2.986,1.221c0.384,-0.14 0.796,-0.258 1.229,-0.351c1.81,-0.383 3.63,-0.227 5.007,0.329c0.255,-0.164 0.553,-0.288 0.89,-0.359c1.457,-0.31 3.067,0.489 3.591,1.78c0.421,1.036 0.017,2.077 -0.911,2.609c0.812,0.273 1.564,0.609 2.234,1c0.492,-0.223 1.046,-0.366 1.649,-0.409c2.617,-0.189 5.148,1.571 5.648,3.928c0.501,2.357 -1.218,4.425 -3.834,4.614c-0.037,0.002 -0.072,0.004 -0.109,0.006Z" style="fill:#a5abaf;stroke:#4c545d;stroke-width:2px;"/><path d="M96.291,27.601c0.023,0.043 0.045,0.085 0.067,0.128c1.201,2.423 0.091,5.309 -2.478,6.441c-0.022,0.011 -0.044,0.019 -0.063,0.029c0.614,2.318 -1.209,5.118 -4.389,6.519c-2.938,1.296 -6.101,0.987 -7.742,-0.591c-1.815,2.201 -4.315,3.269 -6.311,2.465c-0.374,-0.151 -0.711,-0.359 -1.007,-0.618c-0.271,0.194 -0.569,0.362 -0.889,0.505c-2.563,1.145 -5.628,0.112 -6.841,-2.304c-0.032,-0.066 -0.062,-0.131 -0.092,-0.197c-0.128,0.019 -0.253,0.031 -0.378,0.04c-0.095,0.193 -0.232,0.374 -0.415,0.529c-0.789,0.681 -2.11,0.657 -2.945,-0.05c-0.389,-0.332 -0.606,-0.752 -0.646,-1.177c-2.941,0.457 -6.063,-1.333 -7.102,-4.144c-1.086,-2.938 0.512,-5.884 3.566,-6.577c0.702,-0.159 1.421,-0.184 2.126,-0.095c1.563,-2.28 4.527,-4.183 8.317,-5.044c1.226,-0.276 2.453,-0.426 3.65,-0.457c0.263,-0.364 0.566,-0.717 0.908,-1.059c1.429,-1.423 3.243,-2.301 4.922,-2.521c0.124,-0.311 0.318,-0.607 0.583,-0.871c1.152,-1.147 3.216,-1.253 4.606,-0.237c1.115,0.813 1.459,2.104 0.959,3.172c0.952,-0.185 1.891,-0.269 2.79,-0.255c0.306,-0.506 0.727,-0.968 1.261,-1.356c2.322,-1.683 5.918,-1.336 8.027,0.777c2.109,2.113 1.935,5.196 -0.386,6.88c-0.032,0.023 -0.066,0.046 -0.098,0.068Z" style="fill:#a5abaf;stroke:#4c545d;stroke-width:2px;"/><path d="M64.233,9.523c0.751,-2.182 2.39,-4.16 4.751,-5.434c4.829,-2.606 10.868,-1.292 13.477,2.933c0.369,0.595 0.649,1.218 0.846,1.855c4.572,1.699 7.805,4.687 8.448,8.172c0.435,0.226 0.848,0.516 1.231,0.869c2.124,1.96 2.822,5.414 2.09,8.913c0.51,0.197 0.955,0.547 1.289,1.048c1.11,1.671 0.558,4.399 -1.234,6.088c-1.524,1.436 -3.456,1.662 -4.684,0.669c-0.746,0.606 -1.533,1.08 -2.33,1.415c-0.108,0.128 -0.218,0.255 -0.332,0.378c-3.067,3.341 -7.593,3.869 -10.254,1.259c-0.032,0.011 -0.065,0.02 -0.097,0.03c-1.737,0.507 -3.463,0.138 -4.622,-0.833c-2.231,2.173 -6.037,3.605 -10.354,3.605c-3.893,0 -7.372,-1.165 -9.652,-2.987c-0.636,0.236 -1.327,0.366 -2.05,0.366c-2.146,0 -4.019,-1.146 -4.985,-2.836c-2.876,0.434 -5.901,0.294 -8.503,-0.531c-5.688,-1.8 -7.231,-6.181 -3.441,-9.778c0.181,-0.173 0.37,-0.339 0.568,-0.501c-0.497,-0.107 -0.954,-0.351 -1.326,-0.735c-1.264,-1.309 -1.075,-3.762 0.421,-5.476c1.27,-1.458 3.082,-1.914 4.373,-1.213c2.519,-2.489 5.868,-3.266 8.44,-1.648c0.452,0.284 0.859,0.63 1.216,1.023c0.51,-0.102 1.031,-0.193 1.564,-0.272c0.301,-2.199 2.298,-4.317 5.07,-5.126c0.88,-0.257 1.753,-0.357 2.575,-0.318c0.374,-0.48 0.868,-0.839 1.452,-1.01c1.31,-0.382 2.673,0.307 3.418,1.597c0.794,-0.563 1.677,-1.073 2.635,-1.522Z" style="fill:#c3c8cb;stroke:#4c545d;stroke-width:2px;"/><path d="M50.635,23.808c0.684,-2.529 4.796,-4.475 9.76,-4.475c5.442,-0 9.858,2.339 9.858,5.221c0,0.377 -0.075,0.745 -0.22,1.101c1.445,2.264 -0.199,5.712 -4.152,8.231c-4.511,2.873 -10.334,3.456 -12.994,1.299c-0.383,-0.31 -0.678,-0.661 -0.893,-1.041c-0.472,0.07 -0.959,0.105 -1.46,0.105c-4.01,0 -7.264,-2.338 -7.264,-5.22c-0,-2.882 3.254,-5.221 7.264,-5.221l0.101,-0Z" style="fill:#efeff0;stroke:#4c545d;stroke-width:2px;"/><path d="M67.53,8.009c3.463,-1.551 7.065,-1.497 8.951,0.391c0.355,0.356 0.63,0.759 0.828,1.194c0.437,-0.08 0.89,-0.121 1.354,-0.121c3.721,0 6.741,2.68 6.741,5.982c0,3.303 -3.02,5.982 -6.741,5.982l-0.092,0c-0.635,2.898 -4.45,5.128 -9.056,5.128c-4.285,0 -7.886,-1.931 -8.877,-4.533c-3.488,1.561 -7.116,1.499 -9.005,-0.409c-0.352,-0.355 -0.624,-0.758 -0.82,-1.195c-0.438,0.077 -0.891,0.117 -1.355,0.115c-3.721,-0.017 -6.726,-2.71 -6.708,-6.011c0.017,-3.302 3.052,-5.97 6.773,-5.953l0.092,0c0.652,-2.893 4.479,-5.108 9.085,-5.089c4.254,0.02 7.822,1.939 8.83,4.519Z" style="fill:#aeaeb7;stroke:#4c545d;stroke-width:2px;"/><path d="M71.587,31.885c-2.777,1.383 -5.666,1.335 -7.18,-0.351c-0.284,-0.316 -0.504,-0.674 -0.665,-1.063c-0.35,0.071 -0.713,0.107 -1.085,0.107c-2.985,0 -5.407,-2.39 -5.407,-5.336c-0,-2.946 2.422,-5.337 5.407,-5.337l0.074,-0c0.509,-2.585 3.57,-4.575 7.264,-4.575c3.436,0 6.325,1.724 7.121,4.044c2.798,-1.392 5.708,-1.337 7.221,0.365c0.284,0.317 0.502,0.677 0.659,1.067c0.352,-0.07 0.715,-0.105 1.087,-0.104c2.984,0.016 5.395,2.419 5.38,5.363c-0.014,2.947 -2.447,5.326 -5.432,5.312l-0.074,-0c-0.522,2.581 -3.591,4.557 -7.287,4.539c-3.412,-0.017 -6.275,-1.73 -7.083,-4.031Z" style="fill:#b0b3b6;stroke:#4c545d;stroke-width:2px;"/><path d="M24.264,8.405c2.618,-1.172 5.34,-1.131 6.766,0.297c0.267,0.268 0.475,0.573 0.625,0.902c0.331,-0.061 0.673,-0.092 1.024,-0.092c2.812,0 5.095,2.026 5.095,4.521c-0,2.497 -2.283,4.522 -5.095,4.522l-0.07,0c-0.48,2.19 -3.363,3.876 -6.845,3.876c-3.238,-0 -5.96,-1.459 -6.709,-3.426c-2.637,1.18 -5.379,1.133 -6.806,-0.309c-0.267,-0.269 -0.473,-0.573 -0.62,-0.904c-0.332,0.059 -0.674,0.088 -1.025,0.087c-2.812,-0.012 -5.083,-2.048 -5.07,-4.543c0.013,-2.496 2.307,-4.512 5.119,-4.499l0.07,-0c0.493,-2.187 3.385,-3.861 6.867,-3.847c3.215,0.015 5.912,1.465 6.674,3.415Z" style="fill:#aeaeb7;stroke:#4c545d;stroke-width:2px;"/><path d="M36.883,39.288c-0.004,0.038 -0.01,0.077 -0.016,0.116c-0.343,2.19 -2.665,3.725 -5.185,3.426c-0.021,-0.002 -0.041,-0.004 -0.063,-0.007c-0.731,1.869 -3.545,3.044 -6.664,2.674c-2.88,-0.342 -5.105,-1.89 -5.529,-3.68c-2.501,0.762 -4.935,0.446 -6.025,-0.953c-0.205,-0.263 -0.351,-0.55 -0.441,-0.855c-0.305,0.019 -0.616,0.013 -0.93,-0.024c-2.521,-0.287 -4.298,-2.299 -3.966,-4.49c0.008,-0.058 0.018,-0.117 0.03,-0.174c-0.106,-0.041 -0.208,-0.086 -0.305,-0.132c-0.171,0.093 -0.368,0.161 -0.585,0.193c-0.946,0.137 -1.929,-0.436 -2.194,-1.28c-0.123,-0.393 -0.07,-0.778 0.12,-1.089c-2.452,-0.925 -3.883,-3.485 -3.217,-5.876c0.694,-2.499 3.415,-3.87 6.073,-3.061c0.612,0.186 1.167,0.472 1.651,0.831c2.353,-0.922 5.567,-0.99 8.866,0.013c1.067,0.325 2.067,0.739 2.986,1.221c0.384,-0.14 0.796,-0.258 1.229,-0.351c1.811,-0.383 3.63,-0.227 5.007,0.329c0.255,-0.164 0.554,-0.288 0.89,-0.359c1.457,-0.31 3.067,0.489 3.591,1.78c0.421,1.036 0.017,2.077 -0.91,2.609c0.812,0.273 1.563,0.609 2.233,1c0.492,-0.223 1.046,-0.366 1.649,-0.409c2.617,-0.189 5.148,1.571 5.649,3.928c0.501,2.357 -1.218,4.425 -3.835,4.614c-0.037,0.002 -0.072,0.004 -0.109,0.006Z" style="fill:#a5abaf;stroke:#4c545d;stroke-width:2px;"/><path d="M63.088,28.101c0.022,0.043 0.044,0.085 0.066,0.128c1.201,2.423 0.091,5.309 -2.478,6.441c-0.022,0.011 -0.044,0.019 -0.063,0.029c0.614,2.318 -1.209,5.118 -4.388,6.519c-2.938,1.296 -6.102,0.987 -7.743,-0.591c-1.815,2.201 -4.315,3.269 -6.31,2.465c-0.374,-0.151 -0.712,-0.359 -1.008,-0.618c-0.271,0.194 -0.568,0.362 -0.889,0.505c-2.562,1.145 -5.627,0.112 -6.841,-2.304c-0.032,-0.066 -0.062,-0.131 -0.091,-0.197c-0.128,0.019 -0.254,0.031 -0.379,0.04c-0.095,0.193 -0.232,0.374 -0.415,0.529c-0.789,0.681 -2.11,0.657 -2.945,-0.05c-0.389,-0.332 -0.606,-0.752 -0.646,-1.177c-2.94,0.457 -6.063,-1.333 -7.102,-4.144c-1.085,-2.938 0.512,-5.884 3.566,-6.577c0.702,-0.159 1.421,-0.184 2.126,-0.095c1.563,-2.28 4.527,-4.183 8.318,-5.044c1.226,-0.276 2.453,-0.426 3.649,-0.457c0.263,-0.364 0.566,-0.717 0.908,-1.059c1.429,-1.423 3.243,-2.301 4.922,-2.521c0.124,-0.311 0.318,-0.607 0.583,-0.871c1.152,-1.147 3.216,-1.253 4.606,-0.237c1.115,0.813 1.459,2.104 0.959,3.172c0.952,-0.185 1.891,-0.269 2.79,-0.255c0.306,-0.506 0.727,-0.968 1.261,-1.356c2.322,-1.683 5.919,-1.336 8.027,0.777c2.109,2.113 1.935,5.196 -0.386,6.88c-0.032,0.023 -0.065,0.046 -0.097,0.068Z" style="fill:#a5abaf;stroke:#4c545d;stroke-width:2px;"/><path d="M37.983,9.523c0.751,-2.182 2.39,-4.16 4.751,-5.434c4.829,-2.606 10.868,-1.292 13.477,2.933c0.369,0.595 0.649,1.218 0.846,1.855c4.572,1.699 7.805,4.687 8.448,8.172c0.435,0.226 0.848,0.516 1.231,0.869c2.124,1.96 2.822,5.414 2.09,8.913c0.51,0.197 0.955,0.547 1.289,1.048c1.11,1.671 0.558,4.399 -1.234,6.088c-1.524,1.436 -3.456,1.662 -4.684,0.669c-0.746,0.606 -1.533,1.08 -2.33,1.415c-0.108,0.128 -0.218,0.255 -0.332,0.378c-3.067,3.341 -7.593,3.869 -10.254,1.259c-0.032,0.011 -0.065,0.02 -0.097,0.03c-1.737,0.507 -3.463,0.138 -4.622,-0.833c-2.231,2.173 -5.995,-5.82 -10.312,-5.82c-3.893,0 -7.414,8.26 -9.694,6.438c-0.636,0.236 -1.327,0.366 -2.05,0.366c-2.146,0 -4.019,-1.146 -4.985,-2.836c-2.876,0.434 -5.901,0.294 -8.503,-0.531c-5.688,-1.8 -7.231,-6.181 -3.441,-9.778c0.181,-0.173 0.37,-0.339 0.568,-0.501c-0.497,-0.107 -0.954,-0.351 -1.326,-0.735c-1.264,-1.309 -1.075,-3.762 0.421,-5.476c1.27,-1.458 3.082,-1.914 4.373,-1.213c2.519,-2.489 5.868,-3.266 8.44,-1.648c0.452,0.284 0.859,0.63 1.216,1.023c0.51,-0.102 1.031,-0.193 1.564,-0.272c0.301,-2.199 2.298,-4.317 5.07,-5.126c0.88,-0.257 1.753,-0.357 2.575,-0.318c0.374,-0.48 0.868,-0.839 1.452,-1.01c1.31,-0.382 2.673,0.307 3.418,1.597c0.794,-0.563 1.677,-1.073 2.635,-1.522Z" style="fill:#c3c8cb;stroke:#4c545d;stroke-width:2px;"/><path d="M39.757,18.83c2.266,-2.119 5.048,-2.899 6.981,-1.716c0.362,0.222 0.676,0.502 0.941,0.829c0.315,-0.168 0.653,-0.307 1.009,-0.413c2.86,-0.853 5.865,0.745 6.707,3.568c0.842,2.823 -0.795,5.807 -3.656,6.66l-0.071,0.021c0.251,2.623 -2.113,5.404 -5.652,6.46c-3.294,0.983 -6.555,0.157 -7.981,-1.839c-2.282,2.133 -5.087,2.913 -7.024,1.715c-0.362,-0.223 -0.674,-0.506 -0.936,-0.835c-0.317,0.168 -0.655,0.306 -1.012,0.411c-2.864,0.838 -5.861,-0.776 -6.689,-3.602c-0.829,-2.827 0.823,-5.803 3.688,-6.642l0.071,-0.022c-0.238,-2.622 2.138,-5.393 5.684,-6.432c3.275,-0.959 6.508,-0.137 7.94,1.837Z" style="fill:#959da7;stroke:#4c545d;stroke-width:2px;"/><path d="M30.593,41.204c-3.165,1.576 -6.458,1.521 -8.184,-0.4c-0.324,-0.362 -0.575,-0.77 -0.758,-1.213c-0.399,0.081 -0.813,0.123 -1.237,0.123c-3.402,-0 -6.163,-2.725 -6.163,-6.083c-0,-3.358 2.761,-6.084 6.163,-6.084l0.085,-0c0.58,-2.946 4.069,-5.215 8.279,-5.215c3.918,0 7.211,1.965 8.118,4.61c3.189,-1.586 6.506,-1.524 8.231,0.416c0.323,0.361 0.572,0.772 0.751,1.216c0.401,-0.079 0.815,-0.12 1.24,-0.118c3.401,0.018 6.149,2.757 6.132,6.114c-0.016,3.358 -2.79,6.071 -6.192,6.054l-0.085,-0c-0.594,2.942 -4.093,5.195 -8.305,5.174c-3.89,-0.02 -7.153,-1.971 -8.075,-4.594Z" style="fill:#babdbf;stroke:#4c545d;stroke-width:2px;"/><path d="M57.682,37.731c-3.224,1.487 -6.578,1.435 -8.334,-0.377c-0.33,-0.34 -0.586,-0.726 -0.771,-1.145c-0.407,0.078 -0.828,0.117 -1.261,0.117c-3.463,0 -6.274,-2.57 -6.274,-5.738c0,-3.168 2.811,-5.739 6.274,-5.739l0.086,0c0.593,-2.779 4.143,-4.919 8.431,-4.919c3.99,0 7.341,1.853 8.265,4.349c3.246,-1.498 6.623,-1.439 8.382,0.392c0.328,0.34 0.582,0.728 0.762,1.146c0.408,-0.075 0.831,-0.112 1.262,-0.111c3.465,0.017 6.261,2.601 6.246,5.767c-0.017,3.168 -2.842,5.727 -6.306,5.71l-0.085,0c-0.607,2.777 -4.169,4.902 -8.458,4.882c-3.959,-0.018 -7.283,-1.859 -8.219,-4.334Z" style="fill:#bdbdc1;stroke:#4c545d;stroke-width:2px;"/><path d="M63.175,56.27c0,-0 -1.04,3.705 -1.04,5.293c-0,0.575 0.466,1.041 1.04,1.041c0.575,0 1.041,-0.466 1.041,-1.041c0,-1.588 -1.041,-5.293 -1.041,-5.293Z" style="fill:#ebeded;"/><path d="M63.175,56.27c0,-0 -1.04,3.705 -1.04,5.293c-0,0.575 0.466,1.041 1.04,1.041c0.575,0 1.041,-0.466 1.041,-1.041c0,-1.588 -1.041,-5.293 -1.041,-5.293Zm0,3.154c0.164,0.802 0.291,1.598 0.291,2.139c0,0.161 -0.13,0.291 -0.291,0.291c-0.16,0 -0.29,-0.13 -0.29,-0.291c-0,-0.541 0.126,-1.337 0.29,-2.139Z" style="fill:#5c70d0;"/><path d="M68.604,60.082c-0,-0 -1.041,2.597 -1.041,3.71c-0,0.574 0.466,1.041 1.041,1.041c0.574,-0 1.041,-0.467 1.041,-1.041c-0,-1.113 -1.041,-3.71 -1.041,-3.71Z" style="fill:#ebeded;"/><path d="M68.604,60.082c-0,-0 -1.041,2.597 -1.041,3.71c-0,0.574 0.466,1.041 1.041,1.041c0.574,-0 1.041,-0.467 1.041,-1.041c-0,-1.113 -1.041,-3.71 -1.041,-3.71Zm-0,2.242c0.163,0.55 0.291,1.097 0.291,1.468c-0,0.16 -0.131,0.291 -0.291,0.291c-0.161,-0 -0.291,-0.131 -0.291,-0.291c-0,-0.371 0.127,-0.918 0.291,-1.468Z" style="fill:#5c70d0;"/><path d="M74.626,54.686c-0,0 -1.041,2.597 -1.041,3.71c-0,0.574 0.466,1.041 1.041,1.041c0.574,-0 1.041,-0.467 1.041,-1.041c-0,-1.113 -1.041,-3.71 -1.041,-3.71Z" style="fill:#ebeded;"/><path d="M74.626,54.686c-0,0 -1.041,2.597 -1.041,3.71c-0,0.574 0.466,1.041 1.041,1.041c0.574,-0 1.041,-0.467 1.041,-1.041c-0,-1.113 -1.041,-3.71 -1.041,-3.71Zm-0,2.242c0.163,0.55 0.291,1.097 0.291,1.468c-0,0.161 -0.131,0.291 -0.291,0.291c-0.161,-0 -0.291,-0.13 -0.291,-0.291c-0,-0.371 0.127,-0.918 0.291,-1.468Z" style="fill:#5c70d0;"/><path d="M46.724,45.012c0,0 -1.04,2.597 -1.04,3.71c-0,0.574 0.466,1.041 1.04,1.041c0.575,-0 1.041,-0.467 1.041,-1.041c0,-1.113 -1.041,-3.71 -1.041,-3.71Z" style="fill:#ebeded;"/><path d="M46.724,45.012c0,0 -1.04,2.597 -1.04,3.71c-0,0.574 0.466,1.041 1.04,1.041c0.575,-0 1.041,-0.467 1.041,-1.041c0,-1.113 -1.041,-3.71 -1.041,-3.71Zm0.001,2.243c0.163,0.549 0.29,1.096 0.29,1.467c0,0.161 -0.13,0.291 -0.291,0.291c-0.16,-0 -0.29,-0.13 -0.29,-0.291c-0,-0.371 0.127,-0.918 0.291,-1.467Z" style="fill:#5c70d0;"/><path d="M78.493,55.331c-0,0 -1.041,2.597 -1.041,3.71c-0,0.574 0.466,1.041 1.041,1.041c0.574,-0 1.041,-0.467 1.041,-1.041c-0,-1.113 -1.041,-3.71 -1.041,-3.71Z" style="fill:#ebeded;"/><path d="M78.493,55.331c-0,0 -1.041,2.597 -1.041,3.71c-0,0.574 0.466,1.041 1.041,1.041c0.574,-0 1.041,-0.467 1.041,-1.041c-0,-1.113 -1.041,-3.71 -1.041,-3.71Zm-0,2.243c0.163,0.549 0.291,1.096 0.291,1.467c-0,0.161 -0.131,0.291 -0.291,0.291c-0.161,-0 -0.291,-0.13 -0.291,-0.291c-0,-0.371 0.127,-0.918 0.291,-1.467Z" style="fill:#5c70d0;"/><path d="M26.55,46c0,0 -1.12,3.22 -1.12,4.6c-0,0.619 0.502,1.121 1.12,1.121c0.619,-0 1.121,-0.502 1.121,-1.121c-0,-1.38 -1.121,-4.6 -1.121,-4.6Z" style="fill:#ebeded;"/><path d="M26.55,46c0,0 -1.12,3.22 -1.12,4.6c-0,0.619 0.502,1.121 1.12,1.121c0.619,-0 1.121,-0.502 1.121,-1.121c-0,-1.38 -1.121,-4.6 -1.121,-4.6Zm0,2.538c0.203,0.762 0.371,1.547 0.371,2.062c-0,0.205 -0.166,0.371 -0.371,0.371c-0.204,-0 -0.37,-0.166 -0.37,-0.371c-0,-0.515 0.167,-1.3 0.37,-2.062Z" style="fill:#5c70d0;"/><path d="M74.329,60.082c0,-0 -1.561,4.45 -1.561,6.357c-0,0.861 0.699,1.561 1.561,1.561c0.862,0 1.561,-0.7 1.561,-1.561c0,-1.907 -1.561,-6.357 -1.561,-6.357Z" style="fill:#ebeded;"/><path d="M74.329,60.082c0,-0 -1.561,4.45 -1.561,6.357c-0,0.861 0.699,1.561 1.561,1.561c0.862,0 1.561,-0.7 1.561,-1.561c0,-1.907 -1.561,-6.357 -1.561,-6.357Zm0,2.439c0.396,1.333 0.811,2.959 0.811,3.918c0,0.447 -0.363,0.811 -0.811,0.811c-0.448,-0 -0.811,-0.364 -0.811,-0.811c-0,-0.959 0.415,-2.585 0.811,-3.918Z" style="fill:#5c70d0;"/><path d="M78.789,54.686c0,0 -1.561,4.45 -1.561,6.357c0,0.861 0.7,1.561 1.561,1.561c0.862,0 1.562,-0.7 1.562,-1.561c-0,-1.907 -1.562,-6.357 -1.562,-6.357Z" style="fill:#ebeded;"/><path d="M78.789,54.686c0,0 -1.561,4.45 -1.561,6.357c0,0.861 0.7,1.561 1.561,1.561c0.862,0 1.562,-0.7 1.562,-1.561c-0,-1.907 -1.562,-6.357 -1.562,-6.357Zm0,2.439c0.397,1.333 0.812,2.959 0.812,3.918c-0,0.448 -0.364,0.811 -0.812,0.811c-0.447,0 -0.811,-0.363 -0.811,-0.811c0,-0.959 0.415,-2.585 0.811,-3.918Z" style="fill:#5c70d0;"/><path d="M67.918,43.249c0,0 -2.082,5.194 -2.082,7.42c0,1.149 0.933,2.082 2.082,2.082c1.149,-0 2.082,-0.933 2.082,-2.082c0,-2.226 -2.082,-7.42 -2.082,-7.42Z" style="fill:#ebeded;"/><path d="M67.918,43.249c0,0 -2.082,5.194 -2.082,7.42c0,1.149 0.933,2.082 2.082,2.082c1.149,-0 2.082,-0.933 2.082,-2.082c0,-2.226 -2.082,-7.42 -2.082,-7.42Zm0,2.125c0.587,1.648 1.332,3.995 1.332,5.295c0,0.735 -0.597,1.332 -1.332,1.332c-0.735,-0 -1.332,-0.597 -1.332,-1.332c0,-1.3 0.745,-3.647 1.332,-5.295Z" style="fill:#5c70d0;"/><path d="M39,69.288c0,0 -1.4,2.816 -1.4,4.023c-0,0.773 0.627,1.401 1.4,1.401c0.773,-0 1.4,-0.628 1.4,-1.401c0,-1.207 -1.4,-4.023 -1.4,-4.023Z" style="fill:#ebeded;"/><path d="M39,69.288c0,0 -1.4,2.816 -1.4,4.023c-0,0.773 0.627,1.401 1.4,1.401c0.773,-0 1.4,-0.628 1.4,-1.401c0,-1.207 -1.4,-4.023 -1.4,-4.023Zm0,1.787c0.327,0.778 0.65,1.687 0.65,2.236c0,0.359 -0.291,0.651 -0.65,0.651c-0.359,-0 -0.65,-0.292 -0.65,-0.651c-0,-0.549 0.323,-1.458 0.65,-2.236Z" style="fill:#5c70d0;"/><path d="M73.137,58.457c0,0 -2.862,5.756 -2.862,8.223c-0,1.58 1.283,2.863 2.862,2.863c1.58,-0 2.863,-1.283 2.863,-2.863c0,-2.467 -2.863,-8.223 -2.863,-8.223Z" style="fill:#ebeded;"/><path d="M73.137,58.457c0,0 -2.862,5.756 -2.862,8.223c-0,1.58 1.283,2.863 2.862,2.863c1.58,-0 2.863,-1.283 2.863,-2.863c0,-2.467 -2.863,-8.223 -2.863,-8.223Zm0,1.743c0.824,1.798 2.113,4.868 2.113,6.48c0,1.166 -0.947,2.113 -2.113,2.113c-1.166,-0 -2.112,-0.947 -2.112,-2.113c-0,-1.612 1.289,-4.682 2.112,-6.48Z" style="fill:#5c70d0;"/><path d="M82.935,63.249c0,0 -2.064,5.206 -2.064,7.437c-0,1.14 0.925,2.065 2.064,2.065c1.14,-0 2.065,-0.925 2.065,-2.065c0,-2.231 -2.065,-7.437 -2.065,-7.437Z" style="fill:#ebeded;"/><path d="M82.935,63.249c0,0 -2.064,5.206 -2.064,7.437c-0,1.14 0.925,2.065 2.064,2.065c1.14,-0 2.065,-0.925 2.065,-2.065c0,-2.231 -2.065,-7.437 -2.065,-7.437Zm0,2.147c0.582,1.651 1.315,3.992 1.315,5.29c0,0.726 -0.589,1.315 -1.315,1.315c-0.725,-0 -1.314,-0.589 -1.314,-1.315c-0,-1.298 0.733,-3.639 1.314,-5.29Z" style="fill:#5c70d0;"/><path d="M71.125,47.156c-0,0 -1.562,4.45 -1.562,6.357c0,0.862 0.7,1.561 1.562,1.561c0.861,0 1.561,-0.699 1.561,-1.561c-0,-1.907 -1.561,-6.357 -1.561,-6.357Z" style="fill:#ebeded;"/><path d="M71.125,47.156c-0,0 -1.562,4.45 -1.562,6.357c0,0.862 0.7,1.561 1.562,1.561c0.861,0 1.561,-0.699 1.561,-1.561c-0,-1.907 -1.561,-6.357 -1.561,-6.357Zm-0,2.439c0.396,1.333 0.811,2.959 0.811,3.918c-0,0.448 -0.364,0.811 -0.811,0.811c-0.448,0 -0.812,-0.363 -0.812,-0.811c0,-0.959 0.415,-2.585 0.812,-3.918Z" style="fill:#5c70d0;"/><path d="M66.819,56.666c-0,-0 -1.041,3.705 -1.041,5.293c-0,0.575 0.466,1.041 1.041,1.041c0.574,0 1.041,-0.466 1.041,-1.041c-0,-1.588 -1.041,-5.293 -1.041,-5.293Z" style="fill:#ebeded;"/><path d="M66.819,56.666c-0,-0 -1.041,3.705 -1.041,5.293c-0,0.575 0.466,1.041 1.041,1.041c0.574,0 1.041,-0.466 1.041,-1.041c-0,-1.588 -1.041,-5.293 -1.041,-5.293Zm-0,3.154c0.164,0.802 0.291,1.598 0.291,2.139c-0,0.161 -0.131,0.291 -0.291,0.291c-0.161,-0 -0.291,-0.13 -0.291,-0.291c-0,-0.541 0.127,-1.337 0.291,-2.139Z" style="fill:#5c70d0;"/><path d="M25.959,56.598c0,-0 -1.041,3.705 -1.041,5.293c0,0.575 0.467,1.041 1.041,1.041c0.575,0 1.041,-0.466 1.041,-1.041c0,-1.588 -1.041,-5.293 -1.041,-5.293Z" style="fill:#ebeded;"/><path d="M25.959,56.598c0,-0 -1.041,3.705 -1.041,5.293c0,0.575 0.467,1.041 1.041,1.041c0.575,0 1.041,-0.466 1.041,-1.041c-0,-1.588 -1.041,-5.293 -1.041,-5.293Zm0,3.154c0.164,0.803 0.291,1.598 0.291,2.139c0,0.161 -0.13,0.291 -0.291,0.291c-0.161,0 -0.291,-0.13 -0.291,-0.291c0,-0.541 0.127,-1.336 0.291,-2.139Z" style="fill:#5c70d0;"/><path d="M66.333,51.65c-0,0 -1.041,3.705 -1.041,5.294c-0,0.574 0.466,1.04 1.041,1.04c0.574,0 1.041,-0.466 1.041,-1.04c-0,-1.589 -1.041,-5.294 -1.041,-5.294Z" style="fill:#ebeded;"/><path d="M66.333,51.65c-0,0 -1.041,3.705 -1.041,5.294c-0,0.574 0.466,1.04 1.041,1.04c0.574,0 1.041,-0.466 1.041,-1.04c-0,-1.589 -1.041,-5.294 -1.041,-5.294Zm-0,3.154c0.164,0.803 0.291,1.599 0.291,2.14c-0,0.16 -0.131,0.29 -0.291,0.29c-0.161,0 -0.291,-0.13 -0.291,-0.29c-0,-0.541 0.127,-1.337 0.291,-2.14Z" style="fill:#5c70d0;"/><path d="M75.781,43.688c-0,-0 -1.041,2.597 -1.041,3.71c-0,0.574 0.466,1.041 1.041,1.041c0.574,-0 1.041,-0.467 1.041,-1.041c-0,-1.113 -1.041,-3.71 -1.041,-3.71Z" style="fill:#ebeded;"/><path d="M75.781,43.688c-0,-0 -1.041,2.597 -1.041,3.71c-0,0.574 0.466,1.041 1.041,1.041c0.574,-0 1.041,-0.467 1.041,-1.041c-0,-1.113 -1.041,-3.71 -1.041,-3.71Zm-0,2.242c0.163,0.55 0.291,1.097 0.291,1.468c-0,0.16 -0.131,0.291 -0.291,0.291c-0.161,-0 -0.291,-0.131 -0.291,-0.291c-0,-0.371 0.127,-0.918 0.291,-1.468Z" style="fill:#5c70d0;"/><path d="M85.781,43c0,0 -1.219,3.041 -1.219,4.344c0,0.672 0.547,1.218 1.219,1.218c0.673,0 1.219,-0.546 1.219,-1.218c0,-1.303 -1.219,-4.344 -1.219,-4.344Z" style="fill:#ebeded;"/><path d="M85.781,43c0,-0 -1.219,3.041 -1.219,4.344c0,0.672 0.547,1.218 1.219,1.218c0.673,0 1.219,-0.546 1.219,-1.218c0,-1.303 -1.219,-4.344 -1.219,-4.344Zm0,2.199c0.249,0.777 0.469,1.614 0.469,2.145c0,0.258 -0.21,0.468 -0.469,0.468c-0.258,0 -0.469,-0.21 -0.469,-0.468c0,-0.531 0.22,-1.368 0.469,-2.145Z" style="fill:#5c70d0;"/><path d="M81.616,49.788c-0,0 -1.041,2.597 -1.041,3.71c-0,0.575 0.466,1.041 1.041,1.041c0.574,0 1.04,-0.466 1.04,-1.041c0,-1.113 -1.04,-3.71 -1.04,-3.71Z" style="fill:#ebeded;"/><path d="M81.616,49.788c-0,0 -1.041,2.597 -1.041,3.71c-0,0.575 0.466,1.041 1.041,1.041c0.574,0 1.04,-0.466 1.04,-1.041c0,-1.113 -1.04,-3.71 -1.04,-3.71Zm-0,2.243c0.163,0.549 0.29,1.097 0.29,1.467c0,0.161 -0.13,0.291 -0.29,0.291c-0.161,0 -0.291,-0.13 -0.291,-0.291c-0,-0.37 0.127,-0.918 0.291,-1.467Z" style="fill:#5c70d0;"/><path d="M43.906,46c0,0 1.03,3.714 1.03,5.305c-0,0.568 -0.462,1.029 -1.03,1.029c-0.568,0 -1.029,-0.461 -1.029,-1.029c0,-1.591 1.029,-5.305 1.029,-5.305Z" style="fill:#ebeded;"/><path d="M43.906,46c0,0 1.03,3.714 1.03,5.305c-0,0.568 -0.462,1.029 -1.03,1.029c-0.568,0 -1.029,-0.461 -1.029,-1.029c0,-1.591 1.029,-5.305 1.029,-5.305Zm0,3.203c0.159,0.79 0.28,1.569 0.28,2.102c-0,0.154 -0.125,0.279 -0.28,0.279c-0.154,0 -0.279,-0.125 -0.279,-0.279c0,-0.533 0.121,-1.312 0.279,-2.102Z" style="fill:#5c70d0;"/><path d="M80.351,49.143c-0,0 1.029,2.605 1.029,3.722c0,0.568 -0.461,1.029 -1.029,1.029c-0.568,0 -1.029,-0.461 -1.029,-1.029c-0,-1.117 1.029,-3.722 1.029,-3.722Z" style="fill:#ebeded;"/><path d="M80.351,49.143c-0,0 1.029,2.605 1.029,3.722c0,0.568 -0.461,1.029 -1.029,1.029c-0.568,0 -1.029,-0.461 -1.029,-1.029c-0,-1.117 1.029,-3.722 1.029,-3.722Zm-0,2.278c0.157,0.541 0.279,1.078 0.279,1.444c0,0.154 -0.125,0.279 -0.279,0.279c-0.154,0 -0.279,-0.125 -0.279,-0.279c-0,-0.366 0.121,-0.903 0.279,-1.444Z" style="fill:#5c70d0;"/><path d="M36.774,56.31c-0,0 1.029,2.605 1.029,3.722c0,0.568 -0.461,1.029 -1.029,1.029c-0.568,0 -1.029,-0.461 -1.029,-1.029c-0,-1.117 1.029,-3.722 1.029,-3.722Z" style="fill:#ebeded;"/><path d="M36.774,56.31c-0,0 1.029,2.605 1.029,3.722c0,0.568 -0.461,1.029 -1.029,1.029c-0.568,0 -1.029,-0.461 -1.029,-1.029c-0,-1.117 1.029,-3.722 1.029,-3.722Zm-0,2.278c0.157,0.541 0.279,1.078 0.279,1.444c0,0.154 -0.125,0.279 -0.279,0.279c-0.154,0 -0.279,-0.125 -0.279,-0.279c-0,-0.366 0.121,-0.903 0.279,-1.444Z" style="fill:#5c70d0;"/><path d="M56.486,45.12c0,0 1.03,2.606 1.03,3.722c-0,0.568 -0.462,1.029 -1.03,1.029c-0.568,0 -1.029,-0.461 -1.029,-1.029c0,-1.116 1.029,-3.722 1.029,-3.722Z" style="fill:#ebeded;"/><path d="M56.486,45.12c0,0 1.03,2.606 1.03,3.722c-0,0.568 -0.462,1.029 -1.03,1.029c-0.568,0 -1.029,-0.461 -1.029,-1.029c0,-1.116 1.029,-3.722 1.029,-3.722Zm0,2.278c0.158,0.542 0.28,1.078 0.28,1.444c-0,0.154 -0.126,0.279 -0.28,0.279c-0.154,0 -0.279,-0.125 -0.279,-0.279c0,-0.366 0.122,-0.902 0.279,-1.444Z" style="fill:#5c70d0;"/><path d="M37.157,61.247c0,-0 1.03,2.605 1.03,3.721c-0,0.568 -0.462,1.029 -1.03,1.029c-0.568,0 -1.029,-0.461 -1.029,-1.029c0,-1.116 1.029,-3.721 1.029,-3.721Z" style="fill:#ebeded;"/><path d="M37.157,61.247c0,-0 1.03,2.605 1.03,3.721c-0,0.568 -0.462,1.029 -1.03,1.029c-0.568,0 -1.029,-0.461 -1.029,-1.029c0,-1.116 1.029,-3.721 1.029,-3.721Zm0,2.277c0.158,0.542 0.28,1.079 0.28,1.444c-0,0.154 -0.126,0.279 -0.28,0.279c-0.154,0 -0.279,-0.125 -0.279,-0.279c0,-0.365 0.122,-0.902 0.279,-1.444Z" style="fill:#5c70d0;"/><path d="M61.713,42.249c0,0 1.287,5.751 1.287,8.215c-0,0.71 -0.576,1.287 -1.287,1.287c-0.71,-0 -1.286,-0.577 -1.286,-1.287c-0,-2.464 1.286,-8.215 1.286,-8.215Z" style="fill:#ebeded;"/><path d="M61.713,42.249c0,0 1.287,5.751 1.287,8.215c-0,0.71 -0.576,1.287 -1.287,1.287c-0.71,-0 -1.286,-0.577 -1.286,-1.287c-0,-2.464 1.286,-8.215 1.286,-8.215Zm0,3.821c0.282,1.58 0.537,3.311 0.537,4.394c-0,0.296 -0.24,0.537 -0.537,0.537c-0.296,-0 -0.536,-0.241 -0.536,-0.537c-0,-1.083 0.255,-2.814 0.536,-4.394Z" style="fill:#5c70d0;"/><path d="M45.452,70c0,-0 2.548,4.335 2.548,6.192c0,1.406 -1.142,2.548 -2.548,2.548c-1.406,0 -2.548,-1.142 -2.548,-2.548c0,-1.857 2.548,-6.192 2.548,-6.192Z" style="fill:#ebeded;"/><path d="M45.452,70c0,-0 2.548,4.335 2.548,6.192c0,1.406 -1.142,2.548 -2.548,2.548c-1.406,0 -2.548,-1.142 -2.548,-2.548c0,-1.857 2.548,-6.192 2.548,-6.192Zm0,1.547c0.404,0.761 0.918,1.79 1.299,2.762c0.281,0.717 0.499,1.396 0.499,1.883c0,0.993 -0.806,1.798 -1.798,1.798c-0.992,0 -1.798,-0.805 -1.798,-1.798c0,-0.487 0.218,-1.166 0.499,-1.883c0.381,-0.972 0.895,-2.001 1.299,-2.762Z" style="fill:#5c70d0;"/><path d="M50,41.71c0,-0 1.426,3.608 1.426,5.155c-0,0.786 -0.639,1.425 -1.426,1.425c-0.787,0 -1.426,-0.639 -1.426,-1.425c0,-1.547 1.426,-5.155 1.426,-5.155Z" style="fill:#ebeded;"/><path d="M50,41.71c0,-0 1.426,3.608 1.426,5.155c-0,0.786 -0.639,1.425 -1.426,1.425c-0.787,0 -1.426,-0.639 -1.426,-1.425c0,-1.547 1.426,-5.155 1.426,-5.155Zm0,2.199c0.34,1.029 0.676,2.231 0.676,2.956c-0,0.372 -0.303,0.675 -0.676,0.675c-0.373,0 -0.676,-0.303 -0.676,-0.675c0,-0.725 0.336,-1.927 0.676,-2.956Z" style="fill:#5c70d0;"/><path d="M22.637,62.25c0,-0 1.384,3.501 1.384,5.002c-0,0.763 -0.62,1.383 -1.384,1.383c-0.763,0 -1.383,-0.62 -1.383,-1.383c0,-1.501 1.383,-5.002 1.383,-5.002Z" style="fill:#ebeded;"/><path d="M22.637,62.25c0,-0 1.384,3.501 1.384,5.002c-0,0.763 -0.62,1.383 -1.384,1.383c-0.763,0 -1.383,-0.62 -1.383,-1.383c0,-1.501 1.383,-5.002 1.383,-5.002Zm0,2.204c0.322,0.982 0.634,2.111 0.634,2.798c-0,0.349 -0.284,0.633 -0.634,0.633c-0.349,0 -0.633,-0.284 -0.633,-0.633c0,-0.687 0.312,-1.816 0.633,-2.798Z" style="fill:#5c70d0;"/><path d="M61.17,63.457c-0,0 2.83,5.779 2.83,8.255c0,1.562 -1.268,2.831 -2.83,2.831c-1.563,-0 -2.831,-1.269 -2.831,-2.831c0,-2.476 2.831,-8.255 2.831,-8.255Z" style="fill:#ebeded;"/><path d="M61.17,63.457c-0,0 2.83,5.779 2.83,8.255c0,1.562 -1.268,2.831 -2.83,2.831c-1.563,-0 -2.831,-1.269 -2.831,-2.831c0,-2.476 2.831,-8.255 2.831,-8.255Zm-0,1.766c0.815,1.809 2.08,4.876 2.08,6.489c0,1.148 -0.932,2.081 -2.08,2.081c-1.149,-0 -2.081,-0.933 -2.081,-2.081c0,-1.613 1.265,-4.68 2.081,-6.489Z" style="fill:#5c70d0;"/><path d="M27.83,59c0,0 2.831,5.778 2.831,8.255c-0,1.562 -1.268,2.83 -2.831,2.83c-1.562,0 -2.83,-1.268 -2.83,-2.83c0,-2.477 2.83,-8.255 2.83,-8.255Z" style="fill:#ebeded;"/><path d="M27.83,59c0,-0 2.831,5.778 2.831,8.255c-0,1.562 -1.268,2.83 -2.831,2.83c-1.562,0 -2.83,-1.268 -2.83,-2.83c0,-2.477 2.83,-8.255 2.83,-8.255Zm0,1.766c0.816,1.808 2.081,4.875 2.081,6.489c-0,1.148 -0.932,2.08 -2.081,2.08c-1.148,0 -2.08,-0.932 -2.08,-2.08c0,-1.614 1.265,-4.681 2.08,-6.489Z" style="fill:#5c70d0;"/><path d="M17.427,63c-0,0 2.573,4.85 2.573,6.929c0,1.42 -1.153,2.573 -2.573,2.573c-1.42,-0 -2.573,-1.153 -2.573,-2.573c-0,-2.079 2.573,-6.929 2.573,-6.929Z" style="fill:#ebeded;"/><path d="M17.427,63c-0,-0 2.573,4.85 2.573,6.929c0,1.42 -1.153,2.573 -2.573,2.573c-1.42,-0 -2.573,-1.153 -2.573,-2.573c-0,-2.079 2.573,-6.929 2.573,-6.929Zm-0,1.677c0.408,0.853 0.926,2.002 1.31,3.088c0.291,0.823 0.513,1.604 0.513,2.164c0,1.006 -0.817,1.823 -1.823,1.823c-1.006,-0 -1.823,-0.817 -1.823,-1.823c-0,-0.56 0.222,-1.341 0.513,-2.164c0.384,-1.086 0.901,-2.235 1.31,-3.088Z" style="fill:#5c70d0;"/><path d="M83.456,47.956c0,-0 1.544,4.462 1.544,6.374c-0,0.852 -0.692,1.544 -1.544,1.544c-0.852,-0 -1.544,-0.692 -1.544,-1.544c0,-1.912 1.544,-6.374 1.544,-6.374Z" style="fill:#ebeded;"/><path d="M83.456,47.956c0,-0 1.544,4.462 1.544,6.374c0,0.852 -0.692,1.544 -1.544,1.544c-0.852,-0 -1.544,-0.692 -1.544,-1.544c0,-1.912 1.544,-6.374 1.544,-6.374Zm0,2.473c0.389,1.332 0.794,2.946 0.794,3.901c0,0.438 -0.356,0.794 -0.794,0.794c-0.438,-0 -0.794,-0.356 -0.794,-0.794c0,-0.955 0.405,-2.569 0.794,-3.901Z" style="fill:#5c70d0;"/><path d="M22.779,43.365c0,-0 -1.017,4.487 -1.017,6.41c0,0.561 0.456,1.017 1.017,1.017c0.562,0 1.017,-0.456 1.017,-1.017c0,-1.923 -1.017,-6.41 -1.017,-6.41Z" style="fill:#ebeded;"/><path d="M22.779,43.365c0,-0 -1.017,4.487 -1.017,6.41c0,0.561 0.456,1.017 1.017,1.017c0.562,0 1.017,-0.456 1.017,-1.017c0,-1.923 -1.017,-6.41 -1.017,-6.41Zm0,3.907c0.152,0.943 0.267,1.867 0.267,2.503c0,0.147 -0.119,0.267 -0.267,0.267c-0.147,0 -0.267,-0.12 -0.267,-0.267c0,-0.636 0.115,-1.56 0.267,-2.503Z" style="fill:#5c70d0;"/><path d="M30.561,45c0,0 -1.561,4.45 -1.561,6.357c0,0.861 0.7,1.561 1.561,1.561c0.862,0 1.562,-0.7 1.562,-1.561c-0,-1.907 -1.562,-6.357 -1.562,-6.357Z" style="fill:#ebeded;"/><path d="M30.561,45c0,0 -1.561,4.45 -1.561,6.357c-0,0.861 0.7,1.561 1.561,1.561c0.862,0 1.562,-0.7 1.562,-1.561c-0,-1.907 -1.562,-6.357 -1.562,-6.357Zm0,2.439c0.397,1.333 0.812,2.959 0.812,3.918c-0,0.447 -0.364,0.811 -0.812,0.811c-0.447,0 -0.811,-0.364 -0.811,-0.811c-0,-0.959 0.415,-2.585 0.811,-3.918Z" style="fill:#5c70d0;"/><path d="M60,53c-0,0 -2.06,5.87 -2.06,8.385c0,1.137 0.923,2.06 2.06,2.06c1.137,0 2.06,-0.923 2.06,-2.06c-0,-2.515 -2.06,-8.385 -2.06,-8.385Z" style="fill:#ebeded;"/><path d="M60,53c-0,0 -2.06,5.87 -2.06,8.385c0,1.137 0.923,2.06 2.06,2.06c1.137,0 2.06,-0.923 2.06,-2.06c-0,-2.515 -2.06,-8.385 -2.06,-8.385Zm0,2.401c0.581,1.875 1.31,4.517 1.31,5.984c-0,0.723 -0.587,1.31 -1.31,1.31c-0.723,0 -1.31,-0.587 -1.31,-1.31c0,-1.467 0.729,-4.108 1.31,-5.984Z" style="fill:#5c70d0;"/><path d="M47.918,46c0,0 -2.082,5.194 -2.082,7.42c0,1.149 0.933,2.082 2.082,2.082c1.149,-0 2.082,-0.933 2.082,-2.082c0,-2.226 -2.082,-7.42 -2.082,-7.42Z" style="fill:#ebeded;"/><path d="M47.918,46c0,0 -2.082,5.194 -2.082,7.42c0,1.149 0.933,2.082 2.082,2.082c1.149,-0 2.082,-0.933 2.082,-2.082c0,-2.226 -2.082,-7.42 -2.082,-7.42Zm0,2.125c0.587,1.648 1.332,3.995 1.332,5.295c0,0.735 -0.597,1.332 -1.332,1.332c-0.735,-0 -1.332,-0.597 -1.332,-1.332c0,-1.3 0.745,-3.647 1.332,-5.295Z" style="fill:#5c70d0;"/><path d="M48.918,56.249c0,0 -2.082,5.194 -2.082,7.42c0,1.149 0.933,2.082 2.082,2.082c1.149,-0 2.082,-0.933 2.082,-2.082c0,-2.226 -2.082,-7.42 -2.082,-7.42Z" style="fill:#ebeded;"/><path d="M48.918,56.249c0,0 -2.082,5.194 -2.082,7.42c0,1.149 0.933,2.082 2.082,2.082c1.149,-0 2.082,-0.933 2.082,-2.082c0,-2.226 -2.082,-7.42 -2.082,-7.42Zm0,2.125c0.587,1.648 1.332,3.995 1.332,5.295c0,0.735 -0.597,1.332 -1.332,1.332c-0.735,-0 -1.332,-0.597 -1.332,-1.332c0,-1.3 0.745,-3.647 1.332,-5.295Z" style="fill:#5c70d0;"/><path d="M89.442,53.672c-0,-0 -1.558,3.133 -1.558,4.476c-0,0.86 0.698,1.558 1.558,1.558c0.86,-0 1.558,-0.698 1.558,-1.558c-0,-1.343 -1.558,-4.476 -1.558,-4.476Z" style="fill:#ebeded;"/><path d="M89.442,53.672c-0,-0 -1.558,3.133 -1.558,4.476c-0,0.86 0.698,1.558 1.558,1.558c0.86,-0 1.558,-0.698 1.558,-1.558c0,-1.343 -1.558,-4.476 -1.558,-4.476Zm-0,1.777c0.391,0.911 0.808,2.037 0.808,2.699c0,0.446 -0.362,0.808 -0.808,0.808c-0.446,-0 -0.808,-0.362 -0.808,-0.808c-0,-0.662 0.417,-1.788 0.808,-2.699Z" style="fill:#5c70d0;"/><path d="M33,68c0,0 -2.602,4.83 -2.602,6.899c-0,1.437 1.166,2.603 2.602,2.603c1.436,-0 2.602,-1.166 2.602,-2.603c0,-2.069 -2.602,-6.899 -2.602,-6.899Z" style="fill:#ebeded;"/><path d="M33,68c0,0 -2.602,4.83 -2.602,6.899c-0,1.437 1.166,2.603 2.602,2.603c1.436,-0 2.602,-1.166 2.602,-2.603c0,-2.069 -2.602,-6.899 -2.602,-6.899Zm-0,1.655c0.415,0.852 0.943,2.005 1.334,3.095c0.294,0.818 0.518,1.593 0.518,2.149c0,1.023 -0.83,1.853 -1.852,1.853c-1.022,-0 -1.852,-0.83 -1.852,-1.853c-0,-0.556 0.224,-1.331 0.518,-2.149c0.391,-1.09 0.919,-2.243 1.334,-3.095Z" style="fill:#5c70d0;"/><path d="M38.335,52.368c0,0 -1.561,4.45 -1.561,6.357c-0,0.862 0.7,1.561 1.561,1.561c0.862,0 1.562,-0.699 1.562,-1.561c-0,-1.907 -1.562,-6.357 -1.562,-6.357Z" style="fill:#ebeded;"/><path d="M38.335,52.368c0,0 -1.561,4.45 -1.561,6.357c-0,0.862 0.7,1.561 1.561,1.561c0.862,0 1.562,-0.699 1.562,-1.561c-0,-1.907 -1.562,-6.357 -1.562,-6.357Zm0,2.439c0.397,1.333 0.812,2.959 0.812,3.918c-0,0.448 -0.364,0.811 -0.812,0.811c-0.448,0 -0.811,-0.363 -0.811,-0.811c-0,-0.959 0.415,-2.585 0.811,-3.918Z" style="fill:#5c70d0;"/><path d="M22.041,52.831c-0,0 -1.041,2.597 -1.041,3.71c0,0.575 0.466,1.041 1.041,1.041c0.574,0 1.041,-0.466 1.041,-1.041c-0,-1.113 -1.041,-3.71 -1.041,-3.71Z" style="fill:#ebeded;"/><path d="M22.041,52.831c-0,0 -1.041,2.597 -1.041,3.71c0,0.575 0.466,1.041 1.041,1.041c0.574,0 1.041,-0.466 1.041,-1.041c-0,-1.113 -1.041,-3.71 -1.041,-3.71Zm-0,2.243c0.163,0.549 0.291,1.097 0.291,1.467c-0,0.161 -0.13,0.291 -0.291,0.291c-0.161,0 -0.291,-0.13 -0.291,-0.291c0,-0.37 0.128,-0.918 0.291,-1.467Z" style="fill:#5c70d0;"/><path d="M42.719,49.631c0,-0 1.761,3.978 1.761,5.682c-0,0.972 -0.789,1.761 -1.761,1.761c-0.971,-0 -1.76,-0.789 -1.76,-1.761c0,-1.704 1.76,-5.682 1.76,-5.682Z" style="fill:#ebeded;"/><path d="M42.719,49.631c0,-0 1.761,3.978 1.761,5.682c-0,0.972 -0.789,1.761 -1.761,1.761c-0.971,-0 -1.76,-0.789 -1.76,-1.761c0,-1.704 1.76,-5.682 1.76,-5.682Zm0,1.959c0.471,1.217 1.011,2.812 1.011,3.723c-0,0.558 -0.453,1.011 -1.011,1.011c-0.557,-0 -1.01,-0.453 -1.01,-1.011c0,-0.911 0.54,-2.506 1.01,-3.723Z" style="fill:#5c70d0;"/><path d="M51.386,48.35c0,-0 -1.758,4.386 -1.758,6.266c-0,0.97 0.788,1.758 1.758,1.758c0.97,0 1.758,-0.788 1.758,-1.758c0,-1.88 -1.758,-6.266 -1.758,-6.266Z" style="fill:#ebeded;"/><path d="M51.386,48.35c0,-0 -1.758,4.386 -1.758,6.266c-0,0.97 0.788,1.758 1.758,1.758c0.97,0 1.758,-0.788 1.758,-1.758c0,-1.88 -1.758,-6.266 -1.758,-6.266Zm0,2.142c0.471,1.352 1.008,3.115 1.008,4.124c0,0.556 -0.451,1.008 -1.008,1.008c-0.556,0 -1.008,-0.452 -1.008,-1.008c-0,-1.009 0.537,-2.772 1.008,-4.124Z" style="fill:#5c70d0;"/><path d="M19.661,53.379c-0,0 -1.041,3.706 -1.041,5.294c-0,0.574 0.466,1.041 1.041,1.041c0.574,-0 1.041,-0.467 1.041,-1.041c-0,-1.588 -1.041,-5.294 -1.041,-5.294Z" style="fill:#ebeded;"/><path d="M19.661,53.379c-0,0 -1.041,3.706 -1.041,5.294c-0,0.574 0.466,1.041 1.041,1.041c0.574,-0 1.041,-0.467 1.041,-1.041c-0,-1.588 -1.041,-5.294 -1.041,-5.294Zm-0,3.155c0.164,0.802 0.291,1.598 0.291,2.139c-0,0.16 -0.131,0.291 -0.291,0.291c-0.161,-0 -0.291,-0.131 -0.291,-0.291c-0,-0.541 0.127,-1.337 0.291,-2.139Z" style="fill:#5c70d0;"/><path d="M57.214,56.089c0,0 -1.041,2.597 -1.041,3.71c0,0.575 0.467,1.041 1.041,1.041c0.575,-0 1.041,-0.466 1.041,-1.041c0,-1.113 -1.041,-3.71 -1.041,-3.71Z" style="fill:#ebeded;"/><path d="M57.214,56.089c0,0 -1.041,2.597 -1.041,3.71c0,0.575 0.467,1.041 1.041,1.041c0.575,-0 1.041,-0.466 1.041,-1.041c0,-1.113 -1.041,-3.71 -1.041,-3.71Zm0,2.243c0.164,0.549 0.291,1.096 0.291,1.467c0,0.161 -0.13,0.291 -0.291,0.291c-0.16,-0 -0.291,-0.13 -0.291,-0.291c0,-0.371 0.128,-0.918 0.291,-1.467Z" style="fill:#5c70d0;"/><path d="M38.959,47c0,0 -1.041,2.597 -1.041,3.71c0,0.574 0.467,1.041 1.041,1.041c0.575,-0 1.041,-0.467 1.041,-1.041c0,-1.113 -1.041,-3.71 -1.041,-3.71Z" style="fill:#ebeded;"/><path d="M38.959,47c0,0 -1.041,2.597 -1.041,3.71c0,0.574 0.467,1.041 1.041,1.041c0.575,-0 1.041,-0.467 1.041,-1.041c0,-1.113 -1.041,-3.71 -1.041,-3.71Zm0,2.242c0.163,0.55 0.291,1.097 0.291,1.468c0,0.16 -0.13,0.291 -0.291,0.291c-0.161,-0 -0.291,-0.131 -0.291,-0.291c0,-0.371 0.128,-0.918 0.291,-1.468Z" style="fill:#5c70d0;"/><path d="M30.442,53.505c0,-0 -1.561,4.45 -1.561,6.357c-0,0.861 0.699,1.561 1.561,1.561c0.862,0 1.562,-0.7 1.562,-1.561c-0,-1.907 -1.562,-6.357 -1.562,-6.357Z" style="fill:#ebeded;"/><path d="M30.442,53.505c0,-0 -1.561,4.45 -1.561,6.357c-0,0.861 0.699,1.561 1.561,1.561c0.862,0 1.562,-0.7 1.562,-1.561c-0,-1.907 -1.562,-6.357 -1.562,-6.357Zm0,2.439c0.396,1.333 0.812,2.959 0.812,3.918c-0,0.447 -0.364,0.811 -0.812,0.811c-0.448,0 -0.811,-0.364 -0.811,-0.811c-0,-0.959 0.415,-2.585 0.811,-3.918Z" style="fill:#5c70d0;"/><path d="M34.221,49.156c0,-0 -1.561,4.449 -1.561,6.356c-0,0.862 0.7,1.562 1.561,1.562c0.862,-0 1.562,-0.7 1.562,-1.562c-0,-1.907 -1.562,-6.356 -1.562,-6.356Z" style="fill:#ebeded;"/><path d="M34.221,49.156c0,-0 -1.561,4.449 -1.561,6.356c-0,0.862 0.7,1.562 1.561,1.562c0.862,-0 1.562,-0.7 1.562,-1.562c-0,-1.907 -1.562,-6.356 -1.562,-6.356Zm0,2.439c0.397,1.333 0.812,2.959 0.812,3.917c-0,0.448 -0.364,0.812 -0.812,0.812c-0.448,-0 -0.811,-0.364 -0.811,-0.812c-0,-0.959 0.415,-2.584 0.811,-3.917Z" style="fill:#5c70d0;"/><path d="M68.137,66c0,0 -2.862,5.756 -2.862,8.223c-0,1.58 1.283,2.862 2.862,2.862c1.58,0 2.863,-1.282 2.863,-2.862c0,-2.467 -2.863,-8.223 -2.863,-8.223Z" style="fill:#ebeded;"/><path d="M68.137,66c0,0 -2.862,5.756 -2.862,8.223c-0,1.58 1.283,2.862 2.862,2.862c1.58,0 2.863,-1.282 2.863,-2.862c0,-2.467 -2.863,-8.223 -2.863,-8.223Zm0,1.742c0.824,1.798 2.113,4.868 2.113,6.481c0,1.166 -0.947,2.112 -2.113,2.112c-1.166,0 -2.112,-0.946 -2.112,-2.112c-0,-1.613 1.289,-4.683 2.112,-6.481Z" style="fill:#5c70d0;"/><path d="M72.564,48.42c-0,-0 -2.065,5.206 -2.065,7.437c0,1.139 0.925,2.064 2.065,2.064c1.139,0 2.064,-0.925 2.064,-2.064c0,-2.231 -2.064,-7.437 -2.064,-7.437Z" style="fill:#ebeded;"/><path d="M72.564,48.42c-0,-0 -2.065,5.206 -2.065,7.437c0,1.139 0.925,2.064 2.065,2.064c1.139,0 2.064,-0.925 2.064,-2.064c0,-2.231 -2.064,-7.437 -2.064,-7.437Zm-0,2.146c0.581,1.652 1.314,3.993 1.314,5.291c0,0.725 -0.589,1.314 -1.314,1.314c-0.726,0 -1.315,-0.589 -1.315,-1.314c0,-1.298 0.733,-3.639 1.315,-5.291Z" style="fill:#5c70d0;"/><path d="M46.177,56.29c-0,-0 -1.041,3.705 -1.041,5.293c-0,0.575 0.466,1.041 1.041,1.041c0.574,0 1.041,-0.466 1.041,-1.041c-0,-1.588 -1.041,-5.293 -1.041,-5.293Z" style="fill:#ebeded;"/><path d="M46.177,56.29c-0,-0 -1.041,3.705 -1.041,5.293c-0,0.575 0.466,1.041 1.041,1.041c0.574,0 1.041,-0.466 1.041,-1.041c-0,-1.588 -1.041,-5.293 -1.041,-5.293Zm-0,3.154c0.164,0.803 0.291,1.598 0.291,2.139c-0,0.161 -0.131,0.291 -0.291,0.291c-0.161,0 -0.291,-0.13 -0.291,-0.291c-0,-0.54 0.127,-1.336 0.291,-2.139Z" style="fill:#5c70d0;"/><path d="M15.169,53.77c-0,-0 -1.041,2.597 -1.041,3.71c0,0.574 0.466,1.04 1.041,1.04c0.574,0 1.041,-0.466 1.041,-1.04c-0,-1.113 -1.041,-3.71 -1.041,-3.71Z" style="fill:#ebeded;"/><path d="M15.169,53.77c-0,-0 -1.041,2.597 -1.041,3.71c0,0.574 0.466,1.04 1.041,1.04c0.574,0 1.041,-0.466 1.041,-1.04c-0,-1.113 -1.041,-3.71 -1.041,-3.71Zm-0,2.242c0.163,0.549 0.291,1.097 0.291,1.468c-0,0.16 -0.13,0.29 -0.291,0.29c-0.161,0 -0.291,-0.13 -0.291,-0.29c0,-0.371 0.128,-0.919 0.291,-1.468Z" style="fill:#5c70d0;"/><path d="M13.443,44.458c0,-0 1.03,3.713 1.03,5.305c-0,0.568 -0.461,1.029 -1.03,1.029c-0.568,0 -1.029,-0.461 -1.029,-1.029c0,-1.592 1.029,-5.305 1.029,-5.305Z" style="fill:#ebeded;"/><path d="M13.443,44.458c0,-0 1.03,3.713 1.03,5.305c-0,0.568 -0.461,1.029 -1.03,1.029c-0.568,0 -1.029,-0.461 -1.029,-1.029c0,-1.592 1.029,-5.305 1.029,-5.305Zm0,3.202c0.159,0.791 0.28,1.57 0.28,2.103c-0,0.154 -0.125,0.279 -0.28,0.279c-0.154,0 -0.279,-0.125 -0.279,-0.279c0,-0.533 0.121,-1.312 0.279,-2.103Z" style="fill:#5c70d0;"/><path d="M9.296,57.338c0,0 1.029,2.605 1.029,3.722c0,0.568 -0.461,1.029 -1.029,1.029c-0.568,0 -1.029,-0.461 -1.029,-1.029c0,-1.117 1.029,-3.722 1.029,-3.722Z" style="fill:#ebeded;"/><path d="M9.296,57.338c0,0 1.029,2.605 1.029,3.722c0,0.568 -0.461,1.029 -1.029,1.029c-0.568,0 -1.029,-0.461 -1.029,-1.029c0,-1.117 1.029,-3.722 1.029,-3.722Zm0,2.278c0.158,0.541 0.279,1.078 0.279,1.444c0,0.154 -0.125,0.279 -0.279,0.279c-0.154,0 -0.279,-0.125 -0.279,-0.279c0,-0.366 0.122,-0.903 0.279,-1.444Z" style="fill:#5c70d0;"/><path d="M53.83,60.457c0,0 2.831,5.779 2.831,8.255c-0,1.562 -1.268,2.831 -2.831,2.831c-1.562,-0 -2.83,-1.269 -2.83,-2.831c0,-2.476 2.83,-8.255 2.83,-8.255Z" style="fill:#ebeded;"/><path d="M53.83,60.457c0,0 2.831,5.779 2.831,8.255c-0,1.562 -1.268,2.831 -2.831,2.831c-1.562,-0 -2.83,-1.269 -2.83,-2.831c0,-2.476 2.83,-8.255 2.83,-8.255Zm0,1.766c0.816,1.809 2.081,4.876 2.081,6.489c-0,1.148 -0.932,2.081 -2.081,2.081c-1.148,-0 -2.08,-0.933 -2.08,-2.081c0,-1.613 1.265,-4.68 2.08,-6.489Z" style="fill:#5c70d0;"/><path d="M39.398,60.252c-0,-0 -1.562,4.449 -1.562,6.356c0,0.862 0.7,1.562 1.562,1.562c0.862,-0 1.561,-0.7 1.561,-1.562c0,-1.907 -1.561,-6.356 -1.561,-6.356Z" style="fill:#ebeded;"/><path d="M39.398,60.252c-0,-0 -1.562,4.449 -1.562,6.356c0,0.862 0.7,1.562 1.562,1.562c0.862,-0 1.561,-0.7 1.561,-1.562c0,-1.907 -1.561,-6.356 -1.561,-6.356Zm-0,2.439c0.396,1.333 0.811,2.959 0.811,3.917c0,0.448 -0.363,0.812 -0.811,0.812c-0.448,-0 -0.812,-0.364 -0.812,-0.812c0,-0.958 0.416,-2.584 0.812,-3.917Z" style="fill:#5c70d0;"/></svg>