<?xml version="1.0" encoding="UTF-8" standalone="no"?><!DOCTYPE svg PUBLIC "-//W3C//DTD SVG 1.1//EN" "http://www.w3.org/Graphics/SVG/1.1/DTD/svg11.dtd"><svg width="100%" height="100%" viewBox="0 0 100 80" version="1.1" xmlns="http://www.w3.org/2000/svg" xmlns:xlink="http://www.w3.org/1999/xlink" xml:space="preserve" xmlns:serif="http://www.serif.com/" style="fill-rule:evenodd;clip-rule:evenodd;stroke-linejoin:round;stroke-miterlimit:2;"><path d="M100,11.739c-0,-6.479 -5.26,-11.739 -11.739,-11.739l-76.522,0c-6.479,0 -11.739,5.26 -11.739,11.739l0,56.522c0,6.479 5.26,11.739 11.739,11.739l76.522,0c6.479,0 11.739,-5.26 11.739,-11.739l-0,-56.522Z" style="fill:#808080;"/><path d="M40.046,10.31c3.72,-1.662 7.588,-1.604 9.615,0.42c0.38,0.381 0.676,0.812 0.889,1.279c0.469,-0.086 0.955,-0.129 1.454,-0.129c3.997,-0 7.24,2.872 7.24,6.41c0,3.54 -3.243,6.412 -7.24,6.412l-0.099,-0c-0.682,3.105 -4.78,5.495 -9.727,5.495c-4.602,0 -8.47,-2.069 -9.534,-4.858c-3.747,1.674 -7.644,1.607 -9.672,-0.438c-0.379,-0.381 -0.671,-0.812 -0.881,-1.281c-0.471,0.083 -0.957,0.125 -1.456,0.123c-3.996,-0.017 -7.224,-2.904 -7.204,-6.442c0.018,-3.539 3.278,-6.398 7.274,-6.38l0.099,0c0.701,-3.1 4.811,-5.474 9.758,-5.453c4.57,0.021 8.402,2.077 9.484,4.842Z" style="fill:#aeaeb7;stroke:#4c545d;stroke-width:2px;"/><path d="M57.979,54.1c-0.006,0.054 -0.014,0.109 -0.023,0.164c-0.487,3.105 -3.788,5.281 -7.368,4.858c-0.029,-0.003 -0.059,-0.006 -0.09,-0.009c-1.038,2.649 -5.038,4.315 -9.469,3.791c-4.093,-0.485 -7.255,-2.681 -7.858,-5.218c-3.554,1.08 -7.013,0.632 -8.562,-1.351c-0.29,-0.373 -0.498,-0.78 -0.627,-1.213c-0.432,0.027 -0.874,0.018 -1.321,-0.034c-3.582,-0.407 -6.108,-3.26 -5.636,-6.367c0.011,-0.082 0.026,-0.165 0.044,-0.246c-0.152,-0.059 -0.296,-0.122 -0.434,-0.188c-0.244,0.133 -0.524,0.228 -0.832,0.274c-1.344,0.194 -2.74,-0.618 -3.117,-1.815c-0.176,-0.558 -0.1,-1.103 0.17,-1.544c-3.484,-1.311 -5.517,-4.942 -4.571,-8.331c0.986,-3.544 4.852,-5.488 8.629,-4.341c0.87,0.264 1.66,0.669 2.347,1.178c3.343,-1.307 7.911,-1.404 12.598,0.018c1.517,0.461 2.939,1.048 4.244,1.732c0.546,-0.199 1.131,-0.366 1.747,-0.498c2.572,-0.543 5.158,-0.322 7.115,0.467c0.362,-0.233 0.786,-0.408 1.264,-0.509c2.071,-0.439 4.359,0.693 5.103,2.523c0.598,1.47 0.025,2.945 -1.293,3.699c1.153,0.388 2.221,0.865 3.174,1.419c0.698,-0.316 1.487,-0.519 2.343,-0.58c3.718,-0.268 7.315,2.228 8.027,5.57c0.712,3.342 -1.731,6.274 -5.449,6.541c-0.052,0.004 -0.103,0.007 -0.155,0.01Z" style="fill:#a5abaf;stroke:#4c545d;stroke-width:2px;"/><path d="M95.217,38.238c0.032,0.06 0.063,0.12 0.094,0.181c1.706,3.435 0.13,7.528 -3.522,9.133c-0.031,0.015 -0.061,0.026 -0.089,0.041c0.873,3.287 -1.718,7.256 -6.236,9.243c-4.175,1.837 -8.67,1.399 -11.002,-0.839c-2.579,3.122 -6.132,4.637 -8.968,3.497c-0.531,-0.214 -1.011,-0.51 -1.432,-0.878c-0.385,0.276 -0.808,0.514 -1.263,0.717c-3.642,1.623 -7.997,0.159 -9.721,-3.267c-0.046,-0.093 -0.088,-0.185 -0.13,-0.279c-0.182,0.027 -0.361,0.043 -0.538,0.056c-0.135,0.274 -0.33,0.531 -0.59,0.751c-1.122,0.965 -2.999,0.931 -4.185,-0.071c-0.553,-0.47 -0.861,-1.067 -0.918,-1.669c-4.179,0.647 -8.615,-1.891 -10.093,-5.877c-1.542,-4.165 0.728,-8.343 5.068,-9.325c0.998,-0.226 2.02,-0.261 3.021,-0.135c2.221,-3.232 6.434,-5.93 11.82,-7.151c1.742,-0.393 3.486,-0.605 5.186,-0.649c0.373,-0.516 0.804,-1.017 1.29,-1.501c2.032,-2.018 4.609,-3.263 6.995,-3.575c0.175,-0.441 0.452,-0.861 0.829,-1.235c1.636,-1.627 4.57,-1.776 6.544,-0.336c1.585,1.153 2.074,2.984 1.364,4.498c1.352,-0.262 2.686,-0.382 3.964,-0.361c0.435,-0.719 1.033,-1.374 1.792,-1.923c3.299,-2.387 8.41,-1.894 11.407,1.101c2.997,2.996 2.75,7.368 -0.549,9.755c-0.046,0.033 -0.093,0.065 -0.138,0.098Z" style="fill:#a5abaf;stroke:#4c545d;stroke-width:2px;"/><path d="M49.66,12.603c1.068,-3.094 3.397,-5.898 6.751,-7.704c6.863,-3.696 15.444,-1.832 19.153,4.158c0.523,0.845 0.921,1.727 1.201,2.63c6.497,2.41 11.091,6.647 12.005,11.588c0.619,0.321 1.206,0.731 1.75,1.232c3.018,2.78 4.009,7.677 2.969,12.638c0.725,0.28 1.357,0.776 1.832,1.487c1.578,2.369 0.793,6.236 -1.754,8.631c-2.164,2.037 -4.911,2.357 -6.655,0.949c-1.061,0.86 -2.179,1.531 -3.312,2.006c-0.153,0.182 -0.309,0.362 -0.471,0.537c-4.359,4.736 -10.79,5.486 -14.572,1.785c-0.045,0.015 -0.092,0.028 -0.138,0.042c-2.468,0.719 -4.921,0.197 -6.567,-1.18c-3.171,3.081 -8.579,5.111 -14.714,5.111c-5.532,0 -10.476,-1.652 -13.717,-4.236c-0.903,0.335 -1.885,0.519 -2.912,0.519c-3.051,0 -5.711,-1.624 -7.084,-4.021c-4.088,0.616 -8.386,0.417 -12.083,-0.753c-8.084,-2.552 -10.276,-8.764 -4.891,-13.864c0.257,-0.245 0.527,-0.48 0.808,-0.711c-0.707,-0.152 -1.355,-0.497 -1.885,-1.042c-1.796,-1.855 -1.528,-5.334 0.598,-7.765c1.806,-2.067 4.38,-2.714 6.215,-1.72c3.58,-3.529 8.338,-4.63 11.993,-2.337c0.642,0.404 1.221,0.894 1.728,1.452c0.725,-0.145 1.466,-0.275 2.223,-0.386c0.428,-3.119 3.265,-6.122 7.205,-7.268c1.251,-0.365 2.491,-0.506 3.659,-0.451c0.532,-0.681 1.234,-1.191 2.063,-1.432c1.862,-0.542 3.799,0.434 4.857,2.264c1.128,-0.798 2.383,-1.521 3.745,-2.159Z" style="fill:#c3c8cb;stroke:#4c545d;stroke-width:2px;"/><path d="M30.337,32.859c0.971,-3.586 6.816,-6.346 13.869,-6.346c7.734,0 14.009,3.317 14.009,7.403c-0,0.535 -0.107,1.057 -0.312,1.562c2.052,3.21 -0.283,8.1 -5.901,11.67c-6.41,4.074 -14.685,4.901 -18.465,1.842c-0.545,-0.439 -0.964,-0.937 -1.27,-1.475c-0.669,0.099 -1.362,0.149 -2.073,0.149c-5.7,-0 -10.324,-3.316 -10.324,-7.403c0,-4.086 4.624,-7.402 10.324,-7.402l0.143,-0Z" style="fill:#efeff0;stroke:#4c545d;stroke-width:2px;"/><path d="M46.19,44.312c-3.946,1.961 -8.051,1.893 -10.203,-0.498c-0.403,-0.449 -0.716,-0.956 -0.944,-1.508c-0.497,0.101 -1.014,0.153 -1.542,0.153c-4.242,-0 -7.684,-3.39 -7.684,-7.567c-0,-4.177 3.442,-7.568 7.684,-7.568l0.105,0c0.724,-3.665 5.073,-6.486 10.322,-6.486c4.884,-0 8.989,2.444 10.12,5.734c3.975,-1.974 8.111,-1.896 10.261,0.517c0.403,0.449 0.714,0.96 0.936,1.513c0.501,-0.099 1.016,-0.149 1.546,-0.148c4.24,0.023 7.666,3.43 7.645,7.606c-0.02,4.177 -3.478,7.552 -7.72,7.531l-0.106,-0c-0.741,3.659 -5.103,6.462 -10.354,6.436c-4.849,-0.025 -8.917,-2.452 -10.066,-5.715Z" style="fill:#fafafa;stroke:#4c545d;stroke-width:2px;"/><path d="M66.277,45.343c-3.491,1.607 -7.123,1.551 -9.024,-0.407c-0.358,-0.368 -0.636,-0.784 -0.836,-1.237c-0.44,0.084 -0.897,0.127 -1.365,0.127c-3.751,-0 -6.795,-2.778 -6.795,-6.201c0,-3.424 3.044,-6.201 6.795,-6.201l0.093,-0c0.642,-3.004 4.487,-5.316 9.13,-5.316c4.321,-0 7.95,2.003 8.952,4.699c3.515,-1.618 7.171,-1.555 9.076,0.424c0.356,0.368 0.631,0.786 0.826,1.239c0.442,-0.082 0.9,-0.122 1.367,-0.12c3.752,0.017 6.78,2.81 6.763,6.231c-0.017,3.424 -3.078,6.188 -6.828,6.171l-0.093,-0c-0.657,3 -4.515,5.296 -9.16,5.275c-4.287,-0.02 -7.887,-2.01 -8.901,-4.684Z" style="fill:#e0e0e3;stroke:#4c545d;stroke-width:2px;"/></svg>