<?xml version="1.0" encoding="UTF-8" standalone="no"?><!DOCTYPE svg PUBLIC "-//W3C//DTD SVG 1.1//EN" "http://www.w3.org/Graphics/SVG/1.1/DTD/svg11.dtd"><svg width="100%" height="100%" viewBox="0 0 100 100" version="1.1" xmlns="http://www.w3.org/2000/svg" xmlns:xlink="http://www.w3.org/1999/xlink" xml:space="preserve" xmlns:serif="http://www.serif.com/" style="fill-rule:evenodd;clip-rule:evenodd;stroke-linejoin:round;stroke-miterlimit:2;"><path d="M100,28.735l-2.038,-1.427l-1.024,-3.052l-2.591,-0.217l-0.645,4.407l-0.821,1.273l-0.507,0.849l-3.034,0.812l-2.518,0.587l-2.029,2.574l0.572,1.191l-4.251,2.637l-1.3,1.616l-1.218,0.885l-3.292,1.915l-1.817,-0.542l1.402,-3.242l-2.074,-2.826l-0.609,-2.366l-1.549,-0.812l-2.656,2.374l-0.544,2.032l0.802,2.564l-0.793,2.917l-1.208,0.189l-0.673,-1.733l-0.342,-1.797l0.655,-3.693l-0.525,-0.659l0.82,-1.987l4.962,-0.695l-1.789,-1.733l-3.892,1.056l-1.909,-1.282l-3.191,1.498l-2.849,-0.279l0.977,-3.052l-2.019,-1.102l-1.789,0.1l-2.306,-1.093l-3.273,-0.009l-10.91,-0.542l-13.473,-1.797l-5.496,-1.101l-1.539,-0.343l-8.835,-2.33l-0.627,1.932l-3.025,-1.011l-0.074,4.785l1.061,0.47l-1.595,1.047l-3.071,5.743l-0.056,2.068l-1.475,3.368l0.092,3.774l2.988,11.774l3.458,1.897l1.605,2.094l0.313,2.014l4.86,0.623l-0.304,0.452l7.174,4.126l4.003,0.614l1.844,-0.822l3.486,0.452l2.803,2.889l0.766,2.465l2.775,1.86l1.125,-1.716l2.693,0.091l1.819,4.011l2.788,2.915l0.821,2.809l3.891,0.776l-0.498,-2.131l1.181,-2.438l2.244,-3.206l3.772,-2.953l3.246,0.966l0.876,-0.74l2.121,1.553l2.361,-0.759l0.341,-1.923l2.306,-0.641l2.028,-0.397l2.868,0.126l2.481,1.373l1.826,-1.409l3.329,2.492l-0.037,2.574l2.066,3.034l3.937,2.22l0.222,-4.225l-1.587,-3.359l-2.923,-4.903l0.729,-3.269l2.941,-3.259l0.886,-1.842l4.546,-5.598l-0.959,-1.517l0.027,-0.009l0.093,-0.019l0.166,-0.035l0.046,-0.01l-1.559,-1.372l0.12,-1.562l-0.529,-0.518l1.608,0.13l0.47,-0.226l0.296,-1.12l0.055,-0.009l0.018,-0.009l-1.42,-2.925l0.609,-0.641l1.798,0.262l-0.369,-2.953l0.461,-0.135l2.951,-1.509l0.812,-1.182l0.092,0.054l0.23,0.334l0.821,-0.966l-1.18,-2.267l-0.019,-0.496l1.559,-2.285l3.541,-3.566Z" style="fill-rule:nonzero;"/></svg>