<?xml version="1.0" encoding="UTF-8" standalone="no"?><!DOCTYPE svg PUBLIC "-//W3C//DTD SVG 1.1//EN" "http://www.w3.org/Graphics/SVG/1.1/DTD/svg11.dtd"><svg width="100%" height="100%" viewBox="0 0 100 100" version="1.1" xmlns="http://www.w3.org/2000/svg" xmlns:xlink="http://www.w3.org/1999/xlink" xml:space="preserve" xmlns:serif="http://www.serif.com/" style="fill-rule:evenodd;clip-rule:evenodd;stroke-linejoin:round;stroke-miterlimit:2;"><g><path d="M80.514,9.134c-0.266,-0.036 -0.526,-0.066 -0.779,-0.097c-0.229,-0.026 -0.45,-0.055 -0.666,-0.084c-2.051,-0.279 -4.062,0.069 -5.914,0.831c-1.393,-2.221 -1.976,-4.162 -1.79,-5.528c0.23,-1.696 1.791,-2.885 3.489,-2.654c0.925,0.125 1.699,0.65 2.174,1.376c0.003,-0.099 0.01,-0.196 0.023,-0.295c0.231,-1.698 1.795,-2.885 3.491,-2.654c1.696,0.23 2.885,1.791 2.655,3.489c-0.007,0.046 -0.018,0.092 -0.026,0.136c0.542,-0.338 1.204,-0.498 1.887,-0.405c1.555,0.211 2.644,1.645 2.433,3.198c-0.143,1.05 -0.919,2.354 -2.491,3.99c-1.52,-0.754 -3.021,-1.103 -4.486,-1.303Z" style="fill:#161716;fill-rule:nonzero;"/><path d="M11.224,10.597c6.427,-5.183 17.782,-4.725 24.013,3.739c6.683,9.082 9.544,17.246 16.069,18.342c9.302,1.56 12.605,-5.274 14.799,-11.442c0.46,-1.084 0.852,-2.483 1.327,-3.463c1.944,-4.029 6.711,-7.671 11.381,-7.037c2.353,0.32 5.473,0.361 8.869,4.412c0.907,1.278 2.82,4.144 3.75,6.109c1.042,2.211 -2.826,1.327 -4.465,1.297c-2.265,-0.042 -3.74,0.836 -4.759,2.192c-3.277,4.126 -3.099,7.786 -4.572,15.229c-1.996,10.087 -6.477,15.291 -11.905,18.542c-4.239,2.54 -10.224,3.794 -16.302,3.324l-1.377,10.135l23.449,3.186l-0.139,-3.473c-0.016,-0.423 0.206,-0.82 0.574,-1.025c0.371,-0.208 0.824,-0.19 1.175,0.047l10.317,6.92c0.355,0.239 0.546,0.661 0.488,1.085c-0.058,0.424 -0.354,0.78 -0.76,0.915l-11.789,3.917c-0.401,0.134 -0.844,0.03 -1.145,-0.268c-0.3,-0.297 -0.408,-0.738 -0.28,-1.141l1.061,-3.311l-23.449,-3.186l-1.494,10.998c6.97,1.845 11.733,8.957 11.733,13.36l-31.253,0c1.302,-9.115 8.174,-13.781 15.211,-13.887l1.502,-11.055l-18.255,-2.48l-4.035,3.921l-12.278,-1.668l4.937,-5.666l-3.247,-6.778l12.279,1.668l2.842,4.856l18.256,2.481l1.383,-10.183c-8.688,-1.888 -16.755,-7.573 -19.244,-18.386c-5.019,0.607 -8.034,-7.797 -4.46,-10.298c-6.827,2.092 -12.267,-7.246 -5.824,-10.381c-8.371,0.289 -8.928,-7.881 -4.383,-11.547Zm68.278,9.1c1.064,0.145 2.047,-0.601 2.191,-1.667c0.145,-1.066 -0.603,-2.045 -1.667,-2.19c-1.065,-0.145 -2.047,0.6 -2.191,1.666c-0.145,1.065 0.601,2.046 1.667,2.191Z" style="fill:#161716;fill-rule:nonzero;"/></g></svg>