<?xml version="1.0" encoding="UTF-8" standalone="no"?><!DOCTYPE svg PUBLIC "-//W3C//DTD SVG 1.1//EN" "http://www.w3.org/Graphics/SVG/1.1/DTD/svg11.dtd"><svg width="100%" height="100%" viewBox="0 0 100 100" version="1.1" xmlns="http://www.w3.org/2000/svg" xmlns:xlink="http://www.w3.org/1999/xlink" xml:space="preserve" xmlns:serif="http://www.serif.com/" style="fill-rule:evenodd;clip-rule:evenodd;stroke-linejoin:round;stroke-miterlimit:2;"><path d="M37,53l-1,11.545l3.648,5.724l-4.527,7.467l0.973,8.3l-2.552,10.013l4.521,-10.557l0.1,-6.724l3.973,-6.915l6.135,2.869l6.187,12.521l-2.393,-13.819l-10.775,-7.238l-1.29,-3.186l3,-9l-6,-1Z" style="fill:#ff3;stroke:#f8d514;stroke-width:1px;"/><path d="M62.125,75c0,0 5.875,8.385 5.875,11.979c0,3.242 -2.632,5.875 -5.875,5.875c-3.243,-0 -5.875,-2.633 -5.875,-5.875c0,-3.594 5.875,-11.979 5.875,-11.979Z" style="fill:#ebeded;"/><path d="M62.125,75c0,0 5.875,8.385 5.875,11.979c0,3.242 -2.632,5.875 -5.875,5.875c-3.243,-0 -5.875,-2.633 -5.875,-5.875c0,-3.594 5.875,-11.979 5.875,-11.979Zm0,3.638c0.892,1.423 1.977,3.267 2.794,5.015c0.594,1.271 1.081,2.461 1.081,3.326c0,2.139 -1.736,3.875 -3.875,3.875c-2.139,-0 -3.875,-1.736 -3.875,-3.875c0,-0.865 0.487,-2.055 1.081,-3.326c0.817,-1.748 1.902,-3.592 2.794,-5.015Z" style="fill:#5c70d0;"/><path d="M23.307,75c0,-0 6.307,8.535 6.307,12.193c0,3.481 -2.826,6.307 -6.307,6.307c-3.481,-0 -6.307,-2.826 -6.307,-6.307c0,-3.658 6.307,-12.193 6.307,-12.193Z" style="fill:#ebeded;"/><path d="M23.307,75c0,-0 6.307,8.535 6.307,12.193c0,3.481 -2.826,6.307 -6.307,6.307c-3.481,-0 -6.307,-2.826 -6.307,-6.307c0,-3.658 6.307,-12.193 6.307,-12.193Zm0,3.498c0.984,1.476 2.227,3.457 3.151,5.332c0.634,1.286 1.156,2.488 1.156,3.363c0,2.377 -1.93,4.307 -4.307,4.307c-2.377,-0 -4.307,-1.93 -4.307,-4.307c0,-0.875 0.523,-2.077 1.156,-3.363c0.924,-1.875 2.167,-3.857 3.151,-5.332Z" style="fill:#5c70d0;"/><g><path d="M42.067,56.966c-7.956,3.958 -16.234,3.818 -20.567,-1.002c-0.815,-0.907 -1.448,-1.933 -1.904,-3.048c-1.003,0.208 -2.044,0.312 -3.111,0.312c-8.548,-0 -15.485,-6.841 -15.485,-15.272c0,-8.431 6.937,-15.272 15.485,-15.272l0.211,0c1.463,-7.396 10.226,-13.091 20.808,-13.091c9.848,0 18.118,4.932 20.4,11.574c7.096,-7.12 16.344,-3.83 20.685,1.042c0.811,0.907 1.437,1.937 1.881,3.051c1.008,-0.199 2.052,-0.299 3.115,-0.295c8.552,0.044 15.415,6.921 15.415,15.347c-0,13.781 -15.774,15.196 -15.774,15.196c-1.496,7.389 -10.289,13.044 -20.874,12.992c-9.771,-0.048 -17.974,-4.949 -20.285,-11.534Z" style="fill:#d3d3d3;"/><path d="M42.067,56.966c-7.956,3.958 -16.234,3.818 -20.567,-1.002c-0.815,-0.907 -1.448,-1.933 -1.904,-3.048c-1.003,0.208 -2.044,0.312 -3.111,0.312c-8.548,-0 -15.485,-6.841 -15.485,-15.272c0,-8.431 6.937,-15.272 15.485,-15.272l0.211,0c1.463,-7.396 10.226,-13.091 20.808,-13.091c9.848,0 18.118,4.932 20.4,11.574c7.096,-7.12 16.344,-3.83 20.685,1.042c0.811,0.907 1.437,1.937 1.881,3.051c1.008,-0.199 2.052,-0.299 3.115,-0.295c8.552,0.044 15.415,6.921 15.415,15.347c-0,13.781 -15.774,15.196 -15.774,15.196c-1.496,7.389 -10.289,13.044 -20.874,12.992c-9.771,-0.048 -17.974,-4.949 -20.285,-11.534Zm2.83,-0.993c-0.284,-0.812 -0.904,-1.463 -1.701,-1.787c-0.797,-0.323 -1.695,-0.289 -2.466,0.094c-6.569,3.268 -13.421,3.658 -16.999,-0.322c-0.582,-0.647 -1.032,-1.381 -1.358,-2.177c-0.547,-1.338 -1.969,-2.095 -3.384,-1.802c-0.808,0.167 -1.646,0.249 -2.504,0.249c-6.88,-0 -12.485,-5.486 -12.485,-12.272c0,-6.786 5.605,-12.272 12.485,-12.272l0.211,0c1.433,0 2.665,-1.012 2.943,-2.418c1.239,-6.261 8.907,-10.673 17.865,-10.673c8.393,0 15.618,3.888 17.562,9.548c0.337,0.98 1.155,1.717 2.164,1.949c1.01,0.233 2.067,-0.072 2.799,-0.806c5.6,-5.619 12.894,-2.925 16.32,0.921c0.001,0.001 0.003,0.003 0.004,0.004c0.575,0.642 1.016,1.373 1.331,2.163c0.535,1.342 1.952,2.112 3.37,1.831c0.814,-0.161 1.658,-0.241 2.518,-0.238c6.887,0.036 12.428,5.561 12.428,12.347c-0,5.467 -3.156,8.464 -6.285,10.112c-3.381,1.78 -6.757,2.096 -6.757,2.096c-1.322,0.119 -2.409,1.092 -2.672,2.393c-1.267,6.254 -8.959,10.631 -17.919,10.587c-8.332,-0.041 -15.499,-3.912 -17.47,-9.527Z" style="fill:#808080;"/><path d="M54.999,36.003c5.351,-12.493 27.714,-4.924 21.658,10.05" style="fill:#d3d3d3;stroke:#808080;stroke-width:3px;stroke-linecap:round;stroke-miterlimit:1.5;"/><path d="M17.031,36.047c-4.441,-7.138 4.14,-15.335 10.969,-12.241" style="fill:#d3d3d3;stroke:#808080;stroke-width:3px;stroke-linecap:round;stroke-miterlimit:1.5;"/><path d="M43.29,42.047c1.984,-8.169 13.846,-7.785 16.42,-0.744" style="fill:#d3d3d3;stroke:#808080;stroke-width:3px;stroke-linecap:round;stroke-miterlimit:1.5;"/><path d="M24.917,56.856c-7.662,-5.099 -3.391,-16.407 4.615,-16.151" style="fill:#d3d3d3;stroke:#808080;stroke-width:3px;stroke-linecap:round;stroke-miterlimit:1.5;"/></g><path d="M79.057,65.573c0,0 6.557,9.359 6.557,13.37c0,3.619 -2.938,6.557 -6.557,6.557c-3.619,-0 -6.557,-2.938 -6.557,-6.557c0,-4.011 6.557,-13.37 6.557,-13.37Z" style="fill:#ebeded;"/><path d="M79.057,65.573c0,0 6.557,9.359 6.557,13.37c0,3.619 -2.938,6.557 -6.557,6.557c-3.619,-0 -6.557,-2.938 -6.557,-6.557c0,-4.011 6.557,-13.37 6.557,-13.37Zm0,3.626c1.033,1.63 2.352,3.843 3.329,5.934c0.679,1.454 1.228,2.82 1.228,3.81c0,2.515 -2.042,4.557 -4.557,4.557c-2.515,-0 -4.557,-2.042 -4.557,-4.557c0,-0.99 0.549,-2.356 1.228,-3.81c0.977,-2.091 2.296,-4.303 3.329,-5.934Z" style="fill:#5c70d0;"/><path d="M15,54c0,0 7.5,10.15 7.5,14.5c0,4.139 -3.36,7.5 -7.5,7.5c-4.14,0 -7.5,-3.361 -7.5,-7.5c-0,-4.35 7.5,-14.5 7.5,-14.5Z" style="fill:#ebeded;"/><path d="M15,54c0,-0 7.5,10.15 7.5,14.5c0,4.139 -3.36,7.5 -7.5,7.5c-4.14,0 -7.5,-3.361 -7.5,-7.5c-0,-4.35 7.5,-14.5 7.5,-14.5Zm-0,3.482c1.217,1.8 2.88,4.402 4.086,6.851c0.784,1.592 1.414,3.084 1.414,4.167c0,3.035 -2.464,5.5 -5.5,5.5c-3.036,0 -5.5,-2.465 -5.5,-5.5c-0,-1.083 0.63,-2.575 1.414,-4.167c1.206,-2.449 2.869,-5.052 4.086,-6.851Z" style="fill:#5c70d0;"/></svg>