<?xml version="1.0" encoding="UTF-8" standalone="no"?><!DOCTYPE svg PUBLIC "-//W3C//DTD SVG 1.1//EN" "http://www.w3.org/Graphics/SVG/1.1/DTD/svg11.dtd"><svg width="100%" height="100%" viewBox="0 0 100 80" version="1.1" xmlns="http://www.w3.org/2000/svg" xmlns:xlink="http://www.w3.org/1999/xlink" xml:space="preserve" xmlns:serif="http://www.serif.com/" style="fill-rule:evenodd;clip-rule:evenodd;stroke-linejoin:round;stroke-miterlimit:2;"><path d="M100,11.739c-0,-6.479 -5.26,-11.739 -11.739,-11.739l-76.522,0c-6.479,0 -11.739,5.26 -11.739,11.739l0,56.522c0,6.479 5.26,11.739 11.739,11.739l76.522,0c6.479,0 11.739,-5.26 11.739,-11.739l-0,-56.522Z" style="fill:#808080;"/><path d="M70.087,38.788c-0.004,0.038 -0.01,0.077 -0.016,0.116c-0.343,2.19 -2.666,3.725 -5.185,3.426c-0.021,-0.002 -0.041,-0.004 -0.063,-0.007c-0.731,1.869 -3.545,3.044 -6.664,2.674c-2.88,-0.342 -5.105,-1.89 -5.53,-3.68c-2.501,0.762 -4.934,0.446 -6.024,-0.953c-0.205,-0.263 -0.351,-0.55 -0.442,-0.855c-0.304,0.019 -0.615,0.013 -0.929,-0.024c-2.521,-0.287 -4.298,-2.299 -3.967,-4.49c0.008,-0.058 0.019,-0.117 0.031,-0.174c-0.106,-0.041 -0.208,-0.086 -0.305,-0.132c-0.172,0.093 -0.368,0.161 -0.586,0.193c-0.945,0.137 -1.928,-0.436 -2.193,-1.28c-0.124,-0.393 -0.07,-0.778 0.12,-1.089c-2.452,-0.925 -3.883,-3.485 -3.217,-5.876c0.694,-2.499 3.415,-3.87 6.073,-3.061c0.611,0.186 1.167,0.472 1.651,0.831c2.353,-0.922 5.567,-0.99 8.866,0.013c1.067,0.325 2.067,0.739 2.986,1.221c0.384,-0.14 0.796,-0.258 1.229,-0.351c1.81,-0.383 3.63,-0.227 5.007,0.329c0.255,-0.164 0.553,-0.288 0.89,-0.359c1.457,-0.31 3.067,0.489 3.591,1.78c0.421,1.036 0.017,2.077 -0.911,2.609c0.812,0.273 1.564,0.609 2.234,1c0.492,-0.223 1.046,-0.366 1.649,-0.409c2.617,-0.189 5.148,1.571 5.648,3.928c0.501,2.357 -1.218,4.425 -3.834,4.614c-0.037,0.002 -0.072,0.004 -0.109,0.006Z" style="fill:#a5abaf;stroke:#4c545d;stroke-width:2px;"/><path d="M96.291,27.601c0.023,0.043 0.045,0.085 0.067,0.128c1.201,2.423 0.091,5.309 -2.478,6.441c-0.022,0.011 -0.044,0.019 -0.063,0.029c0.614,2.318 -1.209,5.118 -4.389,6.519c-2.938,1.296 -6.101,0.987 -7.742,-0.591c-1.815,2.201 -4.315,3.269 -6.311,2.465c-0.374,-0.151 -0.711,-0.359 -1.007,-0.618c-0.271,0.194 -0.569,0.362 -0.889,0.505c-2.563,1.145 -5.628,0.112 -6.841,-2.304c-0.032,-0.066 -0.062,-0.131 -0.092,-0.197c-0.128,0.019 -0.253,0.031 -0.378,0.04c-0.095,0.193 -0.232,0.374 -0.415,0.529c-0.789,0.681 -2.11,0.657 -2.945,-0.05c-0.389,-0.332 -0.606,-0.752 -0.646,-1.177c-2.941,0.457 -6.063,-1.333 -7.102,-4.144c-1.086,-2.938 0.512,-5.884 3.566,-6.577c0.702,-0.159 1.421,-0.184 2.126,-0.095c1.563,-2.28 4.527,-4.183 8.317,-5.044c1.226,-0.276 2.453,-0.426 3.65,-0.457c0.263,-0.364 0.566,-0.717 0.908,-1.059c1.429,-1.423 3.243,-2.301 4.922,-2.521c0.124,-0.311 0.318,-0.607 0.583,-0.871c1.152,-1.147 3.216,-1.253 4.606,-0.237c1.115,0.813 1.459,2.104 0.959,3.172c0.952,-0.185 1.891,-0.269 2.79,-0.255c0.306,-0.506 0.727,-0.968 1.261,-1.356c2.322,-1.683 5.918,-1.336 8.027,0.777c2.109,2.113 1.935,5.196 -0.386,6.88c-0.032,0.023 -0.066,0.046 -0.098,0.068Z" style="fill:#a5abaf;stroke:#4c545d;stroke-width:2px;"/><path d="M64.233,9.523c0.751,-2.182 2.39,-4.16 4.751,-5.434c4.829,-2.606 10.868,-1.292 13.477,2.933c0.369,0.595 0.649,1.218 0.846,1.855c4.572,1.699 7.805,4.687 8.448,8.172c0.435,0.226 0.848,0.516 1.231,0.869c2.124,1.96 2.822,5.414 2.09,8.913c0.51,0.197 0.955,0.547 1.289,1.048c1.11,1.671 0.558,4.399 -1.234,6.088c-1.524,1.436 -3.456,1.662 -4.684,0.669c-0.746,0.606 -1.533,1.08 -2.33,1.415c-0.108,0.128 -0.218,0.255 -0.332,0.378c-3.067,3.341 -7.593,3.869 -10.254,1.259c-0.032,0.011 -0.065,0.02 -0.097,0.03c-1.737,0.507 -3.463,0.138 -4.622,-0.833c-2.231,2.173 -6.037,3.605 -10.354,3.605c-3.893,0 -7.372,-1.165 -9.652,-2.987c-0.636,0.236 -1.327,0.366 -2.05,0.366c-2.146,0 -4.019,-1.146 -4.985,-2.836c-2.876,0.434 -5.901,0.294 -8.503,-0.531c-5.688,-1.8 -7.231,-6.181 -3.441,-9.778c0.181,-0.173 0.37,-0.339 0.568,-0.501c-0.497,-0.107 -0.954,-0.351 -1.326,-0.735c-1.264,-1.309 -1.075,-3.762 0.421,-5.476c1.27,-1.458 3.082,-1.914 4.373,-1.213c2.519,-2.489 5.868,-3.266 8.44,-1.648c0.452,0.284 0.859,0.63 1.216,1.023c0.51,-0.102 1.031,-0.193 1.564,-0.272c0.301,-2.199 2.298,-4.317 5.07,-5.126c0.88,-0.257 1.753,-0.357 2.575,-0.318c0.374,-0.48 0.868,-0.839 1.452,-1.01c1.31,-0.382 2.673,0.307 3.418,1.597c0.794,-0.563 1.677,-1.073 2.635,-1.522Z" style="fill:#c3c8cb;stroke:#4c545d;stroke-width:2px;"/><path d="M50.635,23.808c0.684,-2.529 4.796,-4.475 9.76,-4.475c5.442,-0 9.858,2.339 9.858,5.221c0,0.377 -0.075,0.745 -0.22,1.101c1.445,2.264 -0.199,5.712 -4.152,8.231c-4.511,2.873 -10.334,3.456 -12.994,1.299c-0.383,-0.31 -0.678,-0.661 -0.893,-1.041c-0.472,0.07 -0.959,0.105 -1.46,0.105c-4.01,0 -7.264,-2.338 -7.264,-5.22c-0,-2.882 3.254,-5.221 7.264,-5.221l0.101,-0Z" style="fill:#efeff0;stroke:#4c545d;stroke-width:2px;"/><path d="M67.53,8.009c3.463,-1.551 7.065,-1.497 8.951,0.391c0.355,0.356 0.63,0.759 0.828,1.194c0.437,-0.08 0.89,-0.121 1.354,-0.121c3.721,0 6.741,2.68 6.741,5.982c0,3.303 -3.02,5.982 -6.741,5.982l-0.092,0c-0.635,2.898 -4.45,5.128 -9.056,5.128c-4.285,0 -7.886,-1.931 -8.877,-4.533c-3.488,1.561 -7.116,1.499 -9.005,-0.409c-0.352,-0.355 -0.624,-0.758 -0.82,-1.195c-0.438,0.077 -0.891,0.117 -1.355,0.115c-3.721,-0.017 -6.726,-2.71 -6.708,-6.011c0.017,-3.302 3.052,-5.97 6.773,-5.953l0.092,0c0.652,-2.893 4.479,-5.108 9.085,-5.089c4.254,0.02 7.822,1.939 8.83,4.519Z" style="fill:#aeaeb7;stroke:#4c545d;stroke-width:2px;"/><path d="M71.587,31.885c-2.777,1.383 -5.666,1.335 -7.18,-0.351c-0.284,-0.316 -0.504,-0.674 -0.665,-1.063c-0.35,0.071 -0.713,0.107 -1.085,0.107c-2.985,0 -5.407,-2.39 -5.407,-5.336c-0,-2.946 2.422,-5.337 5.407,-5.337l0.074,-0c0.509,-2.585 3.57,-4.575 7.264,-4.575c3.436,0 6.325,1.724 7.121,4.044c2.798,-1.392 5.708,-1.337 7.221,0.365c0.284,0.317 0.502,0.677 0.659,1.067c0.352,-0.07 0.715,-0.105 1.087,-0.104c2.984,0.016 5.395,2.419 5.38,5.363c-0.014,2.947 -2.447,5.326 -5.432,5.312l-0.074,-0c-0.522,2.581 -3.591,4.557 -7.287,4.539c-3.412,-0.017 -6.275,-1.73 -7.083,-4.031Z" style="fill:#b0b3b6;stroke:#4c545d;stroke-width:2px;"/><path d="M24.264,8.405c2.618,-1.172 5.34,-1.131 6.766,0.297c0.267,0.268 0.475,0.573 0.625,0.902c0.331,-0.061 0.673,-0.092 1.024,-0.092c2.812,0 5.095,2.026 5.095,4.521c-0,2.497 -2.283,4.522 -5.095,4.522l-0.07,0c-0.48,2.19 -3.363,3.876 -6.845,3.876c-3.238,-0 -5.96,-1.459 -6.709,-3.426c-2.637,1.18 -5.379,1.133 -6.806,-0.309c-0.267,-0.269 -0.473,-0.573 -0.62,-0.904c-0.332,0.059 -0.674,0.088 -1.025,0.087c-2.812,-0.012 -5.083,-2.048 -5.07,-4.543c0.013,-2.496 2.307,-4.512 5.119,-4.499l0.07,-0c0.493,-2.187 3.385,-3.861 6.867,-3.847c3.215,0.015 5.912,1.465 6.674,3.415Z" style="fill:#aeaeb7;stroke:#4c545d;stroke-width:2px;"/><path d="M36.883,39.288c-0.004,0.038 -0.01,0.077 -0.016,0.116c-0.343,2.19 -2.665,3.725 -5.185,3.426c-0.021,-0.002 -0.041,-0.004 -0.063,-0.007c-0.731,1.869 -3.545,3.044 -6.664,2.674c-2.88,-0.342 -5.105,-1.89 -5.529,-3.68c-2.501,0.762 -4.935,0.446 -6.025,-0.953c-0.205,-0.263 -0.351,-0.55 -0.441,-0.855c-0.305,0.019 -0.616,0.013 -0.93,-0.024c-2.521,-0.287 -4.298,-2.299 -3.966,-4.49c0.008,-0.058 0.018,-0.117 0.03,-0.174c-0.106,-0.041 -0.208,-0.086 -0.305,-0.132c-0.171,0.093 -0.368,0.161 -0.585,0.193c-0.946,0.137 -1.929,-0.436 -2.194,-1.28c-0.123,-0.393 -0.07,-0.778 0.12,-1.089c-2.452,-0.925 -3.883,-3.485 -3.217,-5.876c0.694,-2.499 3.415,-3.87 6.073,-3.061c0.612,0.186 1.167,0.472 1.651,0.831c2.353,-0.922 5.567,-0.99 8.866,0.013c1.067,0.325 2.067,0.739 2.986,1.221c0.384,-0.14 0.796,-0.258 1.229,-0.351c1.811,-0.383 3.63,-0.227 5.007,0.329c0.255,-0.164 0.554,-0.288 0.89,-0.359c1.457,-0.31 3.067,0.489 3.591,1.78c0.421,1.036 0.017,2.077 -0.91,2.609c0.812,0.273 1.563,0.609 2.233,1c0.492,-0.223 1.046,-0.366 1.649,-0.409c2.617,-0.189 5.148,1.571 5.649,3.928c0.501,2.357 -1.218,4.425 -3.835,4.614c-0.037,0.002 -0.072,0.004 -0.109,0.006Z" style="fill:#a5abaf;stroke:#4c545d;stroke-width:2px;"/><path d="M63.088,28.101c0.022,0.043 0.044,0.085 0.066,0.128c1.201,2.423 0.091,5.309 -2.478,6.441c-0.022,0.011 -0.044,0.019 -0.063,0.029c0.614,2.318 -1.209,5.118 -4.388,6.519c-2.938,1.296 -6.102,0.987 -7.743,-0.591c-1.815,2.201 -4.315,3.269 -6.31,2.465c-0.374,-0.151 -0.712,-0.359 -1.008,-0.618c-0.271,0.194 -0.568,0.362 -0.889,0.505c-2.562,1.145 -5.627,0.112 -6.841,-2.304c-0.032,-0.066 -0.062,-0.131 -0.091,-0.197c-0.128,0.019 -0.254,0.031 -0.379,0.04c-0.095,0.193 -0.232,0.374 -0.415,0.529c-0.789,0.681 -2.11,0.657 -2.945,-0.05c-0.389,-0.332 -0.606,-0.752 -0.646,-1.177c-2.94,0.457 -6.063,-1.333 -7.102,-4.144c-1.085,-2.938 0.512,-5.884 3.566,-6.577c0.702,-0.159 1.421,-0.184 2.126,-0.095c1.563,-2.28 4.527,-4.183 8.318,-5.044c1.226,-0.276 2.453,-0.426 3.649,-0.457c0.263,-0.364 0.566,-0.717 0.908,-1.059c1.429,-1.423 3.243,-2.301 4.922,-2.521c0.124,-0.311 0.318,-0.607 0.583,-0.871c1.152,-1.147 3.216,-1.253 4.606,-0.237c1.115,0.813 1.459,2.104 0.959,3.172c0.952,-0.185 1.891,-0.269 2.79,-0.255c0.306,-0.506 0.727,-0.968 1.261,-1.356c2.322,-1.683 5.919,-1.336 8.027,0.777c2.109,2.113 1.935,5.196 -0.386,6.88c-0.032,0.023 -0.065,0.046 -0.097,0.068Z" style="fill:#a5abaf;stroke:#4c545d;stroke-width:2px;"/><path d="M37.983,9.523c0.751,-2.182 2.39,-4.16 4.751,-5.434c4.829,-2.606 10.868,-1.292 13.477,2.933c0.369,0.595 0.649,1.218 0.846,1.855c4.572,1.699 7.805,4.687 8.448,8.172c0.435,0.226 0.848,0.516 1.231,0.869c2.124,1.96 2.822,5.414 2.09,8.913c0.51,0.197 0.955,0.547 1.289,1.048c1.11,1.671 0.558,4.399 -1.234,6.088c-1.524,1.436 -3.456,1.662 -4.684,0.669c-0.746,0.606 -1.533,1.08 -2.33,1.415c-0.108,0.128 -0.218,0.255 -0.332,0.378c-3.067,3.341 -7.593,3.869 -10.254,1.259c-0.032,0.011 -0.065,0.02 -0.097,0.03c-1.737,0.507 -3.463,0.138 -4.622,-0.833c-2.231,2.173 -5.995,-5.82 -10.312,-5.82c-3.893,0 -7.414,8.26 -9.694,6.438c-0.636,0.236 -1.327,0.366 -2.05,0.366c-2.146,0 -4.019,-1.146 -4.985,-2.836c-2.876,0.434 -5.901,0.294 -8.503,-0.531c-5.688,-1.8 -7.231,-6.181 -3.441,-9.778c0.181,-0.173 0.37,-0.339 0.568,-0.501c-0.497,-0.107 -0.954,-0.351 -1.326,-0.735c-1.264,-1.309 -1.075,-3.762 0.421,-5.476c1.27,-1.458 3.082,-1.914 4.373,-1.213c2.519,-2.489 5.868,-3.266 8.44,-1.648c0.452,0.284 0.859,0.63 1.216,1.023c0.51,-0.102 1.031,-0.193 1.564,-0.272c0.301,-2.199 2.298,-4.317 5.07,-5.126c0.88,-0.257 1.753,-0.357 2.575,-0.318c0.374,-0.48 0.868,-0.839 1.452,-1.01c1.31,-0.382 2.673,0.307 3.418,1.597c0.794,-0.563 1.677,-1.073 2.635,-1.522Z" style="fill:#c3c8cb;stroke:#4c545d;stroke-width:2px;"/><path d="M39.757,18.83c2.266,-2.119 5.048,-2.899 6.981,-1.716c0.362,0.222 0.676,0.502 0.941,0.829c0.315,-0.168 0.653,-0.307 1.009,-0.413c2.86,-0.853 5.865,0.745 6.707,3.568c0.842,2.823 -0.795,5.807 -3.656,6.66l-0.071,0.021c0.251,2.623 -2.113,5.404 -5.652,6.46c-3.294,0.983 -6.555,0.157 -7.981,-1.839c-2.282,2.133 -5.087,2.913 -7.024,1.715c-0.362,-0.223 -0.674,-0.506 -0.936,-0.835c-0.317,0.168 -0.655,0.306 -1.012,0.411c-2.864,0.838 -5.861,-0.776 -6.689,-3.602c-0.829,-2.827 0.823,-5.803 3.688,-6.642l0.071,-0.022c-0.238,-2.622 2.138,-5.393 5.684,-6.432c3.275,-0.959 6.508,-0.137 7.94,1.837Z" style="fill:#959da7;stroke:#4c545d;stroke-width:2px;"/><path d="M57.502,37.5l8.212,9.412l-1.014,7.7l0.687,2.496l6.267,2.498l1.569,6.008l7.777,4.841l-9.389,-4.534l-1.282,-5.75l-5.646,-1.762l-2.742,9.292l1.758,11.963l-3.539,-11.702l3.006,-9.677l-0.43,-2.924l-8.333,2.759l-6.338,6.064l4.564,-6.313l9.894,-3.96l-0.601,-6.949l-9.823,-8.186l5.403,-1.276Z" style="fill:#ff3;"/><path d="M57.502,37.5l8.212,9.412l-1.014,7.7l0.687,2.496l6.267,2.498l1.569,6.008l7.777,4.841l-9.389,-4.534l-1.282,-5.75l-5.646,-1.762l-2.742,9.292l1.758,11.963l-3.539,-11.702l3.006,-9.677l-0.43,-2.924l-8.333,2.759l-6.338,6.064l4.564,-6.313l9.894,-3.96l-0.601,-6.949l-9.823,-8.186l5.403,-1.276Zm15.416,28.491l-0.867,-0.419c-0,0 -1.229,-5.511 -1.229,-5.511l-0.342,-0.372l-5.647,-1.762l-0.635,0.339l-2.741,9.292l-0.016,0.216l0.767,5.214c-0,-0 -1.52,-5.024 -1.52,-5.024c0,0 2.96,-9.529 2.96,-9.529l0.018,-0.224l-0.43,-2.923l-0.658,-0.406l-6.486,2.147l6.619,-2.649l0.315,-0.512l-0.6,-6.949l-0.18,-0.345l-9.047,-7.539l4.122,-0.974l7.862,9.011c0,-0 -0.984,7.475 -0.984,7.475l0.014,0.199l0.687,2.496l0.3,0.335l6.03,2.404c-0,-0 1.504,5.761 1.504,5.761l0.184,0.249Zm-19.025,-8.082l-2.168,2.075c0,-0 1.228,-1.699 1.228,-1.699l0.94,-0.376Z" style="fill:#e7bc48;"/><path d="M28.677,36.805l-4.557,8.327l-0.736,9.095l-4.952,2.926l-2.629,6.725l-4.956,5.958l6.102,-5.224l2.555,-4.934l4.481,-2.837l1.868,5.676l-1.706,12.872l4.007,-11.642l-2.461,-11.602l0.787,-4.836l5.011,-7.467l-2.814,-3.037Z" style="fill:#ff3;"/><path d="M28.677,36.805l-4.557,8.327l-0.736,9.095l-4.952,2.926l-2.629,6.725l-4.956,5.958l6.102,-5.224l2.555,-4.934l4.481,-2.837l1.868,5.676l-1.706,12.872l4.007,-11.642l-2.461,-11.602l0.787,-4.836l5.011,-7.467l-2.814,-3.037Zm0.106,0.858l2.066,2.229c0,0 -4.788,7.136 -4.788,7.136l-0.079,0.2l-0.787,4.835l0.004,0.186l2.432,11.466c-0,0 -2.321,6.744 -2.321,6.744c-0,0 1.044,-7.876 1.044,-7.876l-0.021,-0.224l-1.868,-5.675l-0.75,-0.269l-4.481,2.836l-0.179,0.195l-2.509,4.847c-0,-0 -1.496,1.281 -1.496,1.281c-0,-0 1.142,-1.373 1.142,-1.373l0.082,-0.139l2.565,-6.563c-0,-0 4.802,-2.837 4.802,-2.837l0.246,-0.394l0.728,-8.988l4.168,-7.617Z" style="fill:#e7bc48;"/><path d="M30.593,41.204c-3.165,1.576 -6.458,1.521 -8.184,-0.4c-0.324,-0.362 -0.575,-0.77 -0.758,-1.213c-0.399,0.081 -0.813,0.123 -1.237,0.123c-3.402,-0 -6.163,-2.725 -6.163,-6.083c-0,-3.358 2.761,-6.084 6.163,-6.084l0.085,-0c0.58,-2.946 4.069,-5.215 8.279,-5.215c3.918,0 7.211,1.965 8.118,4.61c3.189,-1.586 6.506,-1.524 8.231,0.416c0.323,0.361 0.572,0.772 0.751,1.216c0.401,-0.079 0.815,-0.12 1.24,-0.118c3.401,0.018 6.149,2.757 6.132,6.114c-0.016,3.358 -2.79,6.071 -6.192,6.054l-0.085,-0c-0.594,2.942 -4.093,5.195 -8.305,5.174c-3.89,-0.02 -7.153,-1.971 -8.075,-4.594Z" style="fill:#babdbf;stroke:#4c545d;stroke-width:2px;"/><path d="M57.682,38.389c-3.224,1.487 -6.578,1.435 -8.334,-0.377c-0.33,-0.34 -0.586,-0.726 -0.771,-1.145c-0.407,0.078 -0.828,0.117 -1.261,0.117c-3.463,0 -6.274,-2.57 -6.274,-5.738c0,-3.168 2.811,-5.739 6.274,-5.739l0.086,0c0.593,-2.779 4.143,-4.919 8.431,-4.919c3.99,0 7.341,1.853 8.265,4.349c3.246,-1.498 6.623,-1.439 8.382,0.392c0.328,0.34 0.582,0.727 0.762,1.146c0.408,-0.075 0.831,-0.112 1.262,-0.111c3.465,0.017 6.261,2.601 6.246,5.767c-0.017,3.168 -2.842,5.727 -6.306,5.71l-0.085,0c-0.607,2.777 -4.169,4.901 -8.458,4.882c-3.959,-0.018 -7.283,-1.859 -8.219,-4.334Z" style="fill:#bdbdc1;stroke:#4c545d;stroke-width:2px;"/></svg>