<svg fill="#e8f0e9" width="100%" height="100%" viewBox="0 0 800 800" version="1.1" xmlns="http://www.w3.org/2000/svg" xmlns:xlink="http://www.w3.org/1999/xlink" xml:space="preserve" xmlns:serif="http://www.serif.com/" style="fill-rule:evenodd;clip-rule:evenodd;stroke-linejoin:round;stroke-miterlimit:2;"><g id="SVGRepo_iconCarrier"><g><g><path d="M541.123,740.497c0.707,-1.686 1.686,-3.235 2.947,-4.497c3.935,-3.934 10.246,-5.195 15.303,-3.084c1.68,0.7 3.229,1.686 4.627,3.084c1.269,1.261 2.248,2.809 2.953,4.497c0.7,1.686 1.117,3.509 1.117,5.331c0,1.959 -0.418,3.783 -1.117,5.469c-0.706,1.686 -1.686,3.234 -2.953,4.495c-1.398,1.399 -2.947,2.385 -4.627,3.085c-1.686,0.698 -3.509,1.123 -5.339,1.123c-1.823,-0 -3.646,-0.425 -5.331,-1.123c-1.686,-0.699 -3.228,-1.686 -4.633,-3.085c-1.261,-1.261 -2.24,-2.809 -2.947,-4.495c-0.842,-1.686 -1.123,-3.51 -1.123,-5.469c0,-1.822 0.281,-3.645 1.123,-5.331Z" style="fill-rule:nonzero;"/></g></g><g><g><path d="M509.83,609.947c3.307,-3.306 8.496,-4.366 12.86,-2.592c1.412,0.588 2.713,1.417 3.888,2.592c2.126,2.119 3.422,5.196 3.422,8.259c0,1.647 -0.236,3.179 -0.939,4.596c-0.593,1.417 -1.417,2.718 -2.481,3.778c-2.241,2.234 -5.19,3.42 -8.375,3.42c-3.186,0 -6.133,-1.186 -8.373,-3.42c-1.06,-1.06 -1.883,-2.361 -2.477,-3.778c-0.708,-1.417 -0.944,-2.949 -0.944,-4.596c-0.003,-3.064 1.299,-6.14 3.419,-8.259Z" style="fill-rule:nonzero;"/></g></g><g><g><path d="M717.75,545.863c5.629,-5.629 14.463,-7.433 21.893,-4.413c2.403,1.002 4.618,2.412 6.619,4.413c3.618,3.607 5.825,8.845 5.825,14.06c-0,2.803 -0.403,5.411 -1.599,7.823c-1.01,2.412 -2.411,4.627 -4.224,6.431c-3.814,3.805 -8.834,5.823 -14.257,5.823c-5.423,0 -10.441,-2.018 -14.254,-5.823c-1.804,-1.804 -3.206,-4.019 -4.216,-6.431c-1.205,-2.412 -1.607,-5.02 -1.607,-7.823c-0.005,-5.218 2.21,-10.453 5.82,-14.06Z" style="fill-rule:nonzero;"/></g></g><g><g><path d="M383.496,295.71c0.475,-1.13 1.134,-2.172 1.983,-3.02c3.591,-3.587 9.82,-3.587 13.407,-0c1.701,1.702 2.739,4.154 2.739,6.611c-0,2.55 -1.038,4.91 -2.739,6.704c-1.794,1.794 -4.247,2.739 -6.704,2.739c-2.454,-0 -4.91,-0.945 -6.703,-2.739c-0.849,-0.853 -1.508,-1.89 -1.983,-3.025c-0.566,-1.226 -0.756,-2.452 -0.756,-3.679c-0.001,-1.231 0.188,-2.457 0.756,-3.591Z" style="fill-rule:nonzero;"/></g></g><g><g><path d="M651.871,375.71c0.475,-1.13 1.134,-2.172 1.983,-3.02c3.591,-3.587 9.82,-3.587 13.407,-0c1.702,1.702 2.739,4.154 2.739,6.611c0,2.55 -1.037,4.91 -2.739,6.704c-1.793,1.794 -4.247,2.739 -6.704,2.739c-2.454,-0 -4.91,-0.945 -6.703,-2.739c-0.849,-0.853 -1.508,-1.89 -1.983,-3.025c-0.566,-1.226 -0.755,-2.452 -0.755,-3.679c-0.001,-1.231 0.188,-2.457 0.755,-3.591Z" style="fill-rule:nonzero;"/></g></g><g><g><path d="M306.17,181.063c0.249,-1.711 0.736,-3.17 1.459,-4.632c0.487,-1.449 1.224,-2.911 2.196,-4.132c0.961,-1.459 1.935,-2.672 2.91,-3.646c1.223,-1.21 2.434,-2.185 3.646,-3.159c1.46,-0.737 2.921,-1.711 4.383,-2.196c1.46,-0.726 2.921,-0.961 4.381,-1.448c8.026,-1.46 16.292,0.974 22.12,6.803c4.383,4.383 7.055,10.699 7.055,17.028c0,3.395 -0.723,6.319 -1.935,9.475c-1.224,2.921 -2.922,5.593 -5.117,7.792c-2.423,2.184 -5.106,4.131 -8.016,5.344c-2.921,1.223 -6.081,1.708 -9.251,1.708c-1.459,0 -3.159,0 -4.856,-0.487c-1.462,-0.249 -2.921,-0.737 -4.381,-1.224c-1.462,-0.725 -2.921,-1.462 -4.383,-2.185c-1.212,-0.974 -2.423,-1.946 -3.646,-3.159c-4.37,-4.618 -7.055,-10.699 -7.055,-17.267c0.003,-1.459 0.252,-3.167 0.49,-4.615Z" style="fill-rule:nonzero;"/></g></g><g><g><path d="M221.756,127.42c0.094,-0.648 0.279,-1.201 0.553,-1.755c0.185,-0.549 0.464,-1.103 0.832,-1.566c0.275,-0.553 0.733,-1.012 1.103,-1.381c0.922,-0.923 1.934,-1.566 3.041,-2.029c2.214,-0.919 4.792,-0.919 7.005,-0c1.197,0.463 2.12,1.106 3.038,2.029c0.369,0.369 0.738,0.827 1.107,1.381c0.369,0.464 0.648,1.018 0.832,1.566c0.274,0.554 0.459,1.107 0.548,1.755c0.095,0.549 0.185,1.197 0.185,1.75c0,0.643 -0.09,1.197 -0.185,1.84c-0.089,0.554 -0.274,1.197 -0.548,1.75c-0.185,0.553 -0.464,1.017 -0.832,1.571c-0.37,0.458 -0.738,0.918 -1.107,1.382c-0.918,0.827 -1.841,1.565 -3.038,2.024c-1.106,0.464 -2.304,0.649 -3.505,0.649c-1.197,-0 -2.394,-0.185 -3.5,-0.649c-1.107,-0.458 -2.119,-1.197 -3.041,-2.024c-1.656,-1.751 -2.673,-4.054 -2.673,-6.543c0.001,-0.553 0.096,-1.201 0.185,-1.75Z" style="fill-rule:nonzero;"/></g></g><g><g><path d="M425.123,74.925c0.914,-2.174 2.182,-4.178 3.814,-5.81c4.178,-4.354 10.538,-6.174 16.534,-5.082c1.09,0.364 2.181,0.54 3.273,1.082c1.082,0.364 2.174,1.09 3.264,1.64c0.914,0.728 1.818,1.454 2.724,2.36c1.642,1.632 2.91,3.636 3.822,5.81c0.906,2.182 1.446,4.542 1.446,6.91c-0,2.535 -0.54,4.719 -1.446,7.077c-0.914,2.182 -2.182,4.178 -3.824,5.818c-0.904,0.904 -1.81,1.632 -2.722,2.36c-1.09,0.54 -2.182,1.09 -3.264,1.632c-1.089,0.364 -2.181,0.726 -3.273,0.914c-1.268,0.364 -2.546,0.364 -3.636,0.364c-4.72,0 -9.446,-1.818 -12.896,-5.268c-1.632,-1.642 -2.9,-3.636 -3.814,-5.818c-0.904,-2.36 -1.454,-4.542 -1.454,-7.077c-0.002,-2.37 0.548,-4.73 1.452,-6.912Z" style="fill-rule:nonzero;"/></g></g><g><g><path d="M196.245,247.334c0.144,-0.988 0.425,-1.83 0.843,-2.674c0.281,-0.836 0.706,-1.679 1.267,-2.384c0.554,-0.842 1.117,-1.542 1.679,-2.105c1.405,-1.404 2.947,-2.384 4.633,-3.09c2.53,-1.118 5.331,-1.399 8.142,-0.836c0.843,0.281 1.686,0.417 2.53,0.836c0.836,0.281 1.68,0.842 2.522,1.267c0.706,0.562 1.405,1.123 2.103,1.823c2.53,2.53 4.072,6.175 4.072,9.828c-0,1.961 -0.417,3.647 -1.117,5.469c-0.706,1.686 -1.686,3.228 -2.955,4.497c-0.698,0.698 -1.398,1.261 -2.103,1.68c-0.842,0.562 -1.686,0.986 -2.522,1.404c-0.842,0.282 -1.686,0.563 -2.53,0.707c-0.979,0.281 -1.967,0.281 -2.809,0.281c-3.647,-0 -7.298,-1.405 -9.964,-4.07c-2.522,-2.666 -4.072,-6.319 -4.072,-9.966c0.002,-0.845 0.145,-1.831 0.281,-2.667Z" style="fill-rule:nonzero;"/></g></g><g><g><path d="M72.209,377.334c0.144,-0.988 0.425,-1.83 0.843,-2.674c0.281,-0.836 0.706,-1.679 1.267,-2.384c0.554,-0.842 1.117,-1.542 1.679,-2.105c1.405,-1.404 2.947,-2.384 4.633,-3.09c2.53,-1.118 5.331,-1.399 8.142,-0.836c0.843,0.281 1.686,0.417 2.53,0.836c0.836,0.281 1.68,0.842 2.522,1.267c0.706,0.562 1.405,1.123 2.103,1.823c2.53,2.53 4.072,6.175 4.072,9.828c0,1.961 -0.417,3.647 -1.117,5.469c-0.706,1.686 -1.686,3.228 -2.955,4.497c-0.698,0.698 -1.398,1.261 -2.103,1.68c-0.842,0.562 -1.686,0.986 -2.522,1.404c-0.842,0.282 -1.686,0.563 -2.53,0.707c-0.979,0.281 -1.967,0.281 -2.809,0.281c-3.647,-0 -7.298,-1.405 -9.964,-4.07c-2.522,-2.666 -4.072,-6.319 -4.072,-9.966c0.002,-0.845 0.145,-1.831 0.281,-2.667Z" style="fill-rule:nonzero;"/></g></g><g><g><path d="M523.712,140.633c10.092,-20.422 28.678,-33.415 55.255,-38.62c88.704,-17.375 116.804,-56.31 117.019,-56.612c2.866,-4.262 8.081,-6.281 13.095,-5.038c4.991,1.247 8.664,5.486 9.191,10.597c1.511,14.666 12.921,144.032 -51.242,170.469l-115.167,47.45c-0.082,0.033 -0.163,0.043 -0.245,0.074c-0.672,0.261 -1.359,0.485 -2.073,0.624c-0.581,0.113 -1.177,0.169 -1.775,0.198c-0.157,0.007 -0.313,0.008 -0.469,0.011c-0.496,0.003 -0.995,-0.021 -1.497,-0.081c-0.098,-0.011 -0.197,-0.012 -0.295,-0.028c-0.52,-0.072 -1.041,-0.173 -1.56,-0.318c-0.047,-0.011 -0.087,-0.038 -0.132,-0.051c-0.711,-0.206 -1.4,-0.47 -2.062,-0.799c-0.198,-0.1 -0.374,-0.226 -0.566,-0.337c-0.449,-0.256 -0.89,-0.525 -1.306,-0.837c-0.227,-0.173 -0.437,-0.358 -0.652,-0.544c-0.344,-0.299 -0.673,-0.611 -0.984,-0.951c-0.197,-0.213 -0.385,-0.43 -0.567,-0.658c-0.277,-0.349 -0.53,-0.718 -0.771,-1.1c-0.159,-0.253 -0.32,-0.5 -0.461,-0.763c-0.057,-0.108 -0.134,-0.2 -0.187,-0.311c-1.489,-3.016 -36.266,-74.363 -12.549,-122.375Zm23.097,81.658c35.91,-81.275 100.418,-84.203 103.485,-84.294c6.739,-0.189 12.361,5.12 12.552,11.865c0.188,6.733 -5.083,12.336 -11.865,12.552c-0.554,0.01 -53.758,2.428 -83.479,73.599l90.219,-37.168c32.38,-13.343 38.431,-76.772 37.7,-119.193c-19.456,15.193 -54.29,35.076 -111.757,46.332c-18.957,3.713 -31.396,12.032 -38.034,25.432c-10.25,20.705 -5.281,49.396 1.179,70.875Z" style="fill-rule:nonzero;"/></g></g><g><g><path d="M587.43,688.092c7.525,16.143 21.822,26.63 42.504,31.171c69.027,15.158 90.301,46.093 90.463,46.333c2.165,3.382 6.205,5.053 10.146,4.171c3.924,-0.887 6.87,-4.135 7.373,-8.12c1.442,-11.438 12.661,-112.356 -37.023,-134.161l-89.178,-39.138c-0.064,-0.027 -0.127,-0.037 -0.19,-0.063c-0.521,-0.215 -1.054,-0.403 -1.61,-0.524c-0.452,-0.099 -0.917,-0.153 -1.384,-0.186c-0.122,-0.009 -0.244,-0.013 -0.366,-0.018c-0.387,-0.011 -0.778,-0.001 -1.172,0.037c-0.076,0.007 -0.154,0.006 -0.231,0.017c-0.408,0.047 -0.817,0.116 -1.225,0.22c-0.037,0.009 -0.068,0.029 -0.104,0.039c-0.56,0.148 -1.103,0.342 -1.626,0.587c-0.157,0.075 -0.296,0.17 -0.448,0.253c-0.356,0.192 -0.705,0.395 -1.036,0.632c-0.181,0.131 -0.348,0.272 -0.52,0.414c-0.274,0.227 -0.536,0.465 -0.786,0.725c-0.158,0.163 -0.308,0.329 -0.454,0.504c-0.224,0.268 -0.427,0.552 -0.623,0.846c-0.128,0.195 -0.258,0.385 -0.374,0.589c-0.046,0.083 -0.108,0.153 -0.152,0.239c-1.217,2.331 -29.669,57.482 -11.984,95.433Zm19.505,-63.418c26.625,64.168 76.997,67.604 79.392,67.73c5.265,0.268 9.754,-3.783 10.023,-9.051c0.266,-5.26 -3.754,-9.733 -9.052,-10.023c-0.432,-0.017 -41.977,-2.854 -63.943,-59.014l69.86,30.657c25.073,11.006 28.675,60.693 27.35,93.84c-14.938,-12.222 -41.814,-28.383 -86.534,-38.204c-14.752,-3.239 -24.327,-9.963 -29.277,-20.555c-7.644,-16.367 -3.25,-38.705 2.181,-55.38Z" style="fill-rule:nonzero;"/></g></g><g><g><path d="M59.398,283.615c46.946,-29.845 129.252,-13.592 244.625,48.333c109.202,58.604 148.865,46.481 162.782,34.009c23.397,-20.936 14.082,-73.85 8.513,-92.477c-2.305,-7.734 1.82,-16.141 9.24,-18.775c7.405,-2.66 15.312,1.475 17.632,9.205c1.054,3.494 25.312,86.035 -17.388,124.336c-34.883,31.283 -98.359,21.541 -194.089,-29.864c-138.588,-74.385 -195.318,-63.142 -216.769,-49.806c-20.735,12.882 -21.994,35 -22.036,35.795c-0.217,8.175 -6.703,14.782 -14.477,14.762c-1.048,-0.012 -2.074,-0.138 -3.054,-0.372c-6.26,-1.493 -10.806,-7.421 -10.615,-14.485c0.042,-1.584 1.438,-38.932 35.636,-60.661Z" style="fill-rule:nonzero;"/></g></g><g><g><path d="M93.367,596.105c6.003,-4.208 148.829,-102.172 295.042,-29.127c99.053,49.538 101.836,107.503 98.436,130.135c-5.908,39.27 -41.422,70.906 -88.369,78.733c-6.258,1.042 -12.117,1.562 -17.572,1.562c-18.183,0 -31.909,-5.77 -40.93,-17.27c-22.939,-29.21 -1.356,-81.967 1.186,-87.875c3.05,-7.114 11.274,-10.432 18.408,-7.374c7.12,3.044 10.431,11.282 7.395,18.408c-5.921,13.927 -14.912,46.795 -4.9,59.53c6.121,7.758 20.663,7.183 31.794,5.331c34.925,-5.825 61.133,-28.017 65.225,-55.225c5.264,-35.008 -25.07,-71.77 -83.228,-100.842c-130.991,-65.506 -265.064,26.084 -266.401,27.03c-6.38,4.426 -15.119,2.864 -19.54,-3.482c-4.434,-6.347 -2.892,-15.092 3.454,-19.534Z" style="fill-rule:nonzero;"/></g></g><g><g><path d="M16.933,460.935c9.971,-4.098 247.115,-99.279 488.542,14.311c78.753,37.091 154.525,34.322 207.839,-7.511c36.576,-28.689 56.225,-72.331 48.9,-108.573c-5.449,-26.955 -24.769,-45.692 -55.869,-54.171c-38.88,-10.615 -67.719,-7.737 -85.744,8.513c-34.247,30.869 -23.151,101.267 -23.034,101.98c1.247,7.648 -3.92,14.857 -11.563,16.132c-7.662,1.275 -14.865,-3.892 -16.132,-11.54c-0.583,-3.495 -13.755,-86.135 31.854,-127.352c25.591,-23.129 63.264,-28.098 112.007,-14.817c41.421,11.302 68.411,38.18 75.998,75.689c9.375,46.399 -14.364,101.144 -59.091,136.219c-33.526,26.303 -74.195,39.531 -118.517,39.531c-37.625,0 -77.876,-9.526 -118.6,-28.689c-229.954,-108.216 -463.583,-14.708 -465.906,-13.761c-7.197,2.947 -15.366,-0.48 -18.319,-7.648c-2.94,-7.169 0.472,-15.366 7.635,-18.313Z" style="fill-rule:nonzero;"/></g></g></g></svg>