<?xml version="1.0" encoding="UTF-8" standalone="no"?><!DOCTYPE svg PUBLIC "-//W3C//DTD SVG 1.1//EN" "http://www.w3.org/Graphics/SVG/1.1/DTD/svg11.dtd"><svg width="100%" height="100%" viewBox="0 0 100 100" version="1.1" xmlns="http://www.w3.org/2000/svg" xmlns:xlink="http://www.w3.org/1999/xlink" xml:space="preserve" xmlns:serif="http://www.serif.com/" style="fill-rule:evenodd;clip-rule:evenodd;stroke-linecap:round;stroke-linejoin:round;stroke-miterlimit:1.5;"><g><path d="M41.993,52.012c-7.394,4.068 -15.069,3.889 -19.064,-1.123c-0.751,-0.943 -1.334,-2.009 -1.751,-3.165c-0.932,0.211 -1.897,0.314 -2.886,0.309c-7.926,-0.035 -14.326,-7.152 -14.287,-15.887c0.039,-8.735 6.503,-15.795 14.428,-15.759l0.196,0.001c1.391,-7.658 9.542,-13.522 19.353,-13.478c9.131,0.04 16.776,5.185 18.861,12.076c6.612,-7.348 15.172,-3.901 19.174,1.165c0.748,0.943 1.323,2.013 1.73,3.17c0.935,-0.203 1.904,-0.302 2.889,-0.294c7.929,0.081 14.295,7.235 14.222,15.966c-0.077,8.735 -6.575,15.761 -14.5,15.68l-0.196,-0.001c-1.421,7.649 -9.6,13.472 -19.414,13.375c-9.059,-0.091 -16.642,-5.202 -18.755,-12.035Z" style="fill:#d3d3d3;"/><path d="M79.347,53.386c-2.63,6.27 -9.984,10.746 -18.599,10.661c-9.059,-0.091 -16.642,-5.202 -18.755,-12.035c-7.394,4.068 -15.069,3.889 -19.064,-1.123c-0.751,-0.943 -1.334,-2.009 -1.751,-3.165c-0.932,0.211 -1.897,0.314 -2.886,0.309c-7.926,-0.035 -14.326,-7.152 -14.287,-15.887c0.039,-8.735 6.503,-15.795 14.428,-15.759l0.196,0.001c1.391,-7.658 9.542,-13.522 19.353,-13.478c9.131,0.04 16.776,5.185 18.861,12.076c6.612,-7.348 15.172,-3.901 19.174,1.165c0.748,0.943 1.323,2.013 1.73,3.17c0.935,-0.203 1.904,-0.302 2.889,-0.294c7.929,0.081 14.295,7.235 14.222,15.966c-0.077,8.735 -6.575,15.761 -14.5,15.68l-0.196,-0.001c-0.122,0.66 -0.295,1.305 -0.516,1.934c-0.849,-1.602 -2.192,-4.78 0.534,-4.768c0.081,0 0.149,0.042 0.206,0.119l0.001,-0.118c6.439,0.066 11.574,-5.774 11.636,-12.87c0.06,-7.097 -4.969,-13.04 -11.413,-13.107c-0.772,-0.007 -1.53,0.07 -2.262,0.229c-1.397,0.303 -2.8,-0.482 -3.275,-1.83c-0.301,-0.856 -0.723,-1.65 -1.277,-2.348c-0.001,-0.001 -0.002,-0.003 -0.004,-0.005c-3.099,-3.923 -9.721,-6.717 -14.842,-1.026c-0.685,0.76 -1.726,1.093 -2.725,0.87c-0.998,-0.222 -1.799,-0.966 -2.095,-1.945c-1.772,-5.858 -8.399,-10.028 -16.161,-10.063c-8.302,-0.037 -15.374,4.67 -16.551,11.15c-0.245,1.348 -1.419,2.328 -2.789,2.328c-0,0 -0.196,-0.001 -0.208,-0.001c-6.441,-0.028 -11.55,5.839 -11.581,12.938c-0.032,7.098 5.024,13.011 11.465,13.04c0.77,0.003 1.521,-0.076 2.247,-0.24c1.395,-0.316 2.807,0.457 3.292,1.803c0.311,0.861 0.742,1.657 1.302,2.36c3.24,4.065 9.485,3.706 15.481,0.407c0.747,-0.411 1.638,-0.464 2.428,-0.145c0.79,0.32 1.395,0.977 1.646,1.791c1.797,5.811 8.371,9.961 16.075,10.037c8.303,0.083 15.397,-4.586 16.599,-11.058c-0.154,0.829 0.069,1.683 0.607,2.33c0.36,0.434 0.837,0.745 1.365,0.902Z" style="fill:#808080;"/><path d="M39.816,30.452c4.907,-16.355 24.36,-16.094 27.184,-2.178" style="fill:#d3d3d3;stroke:#808080;stroke-width:3px;"/><path d="M26.212,51.642c-7.078,-5.317 -3.154,-16.88 4.235,-16.53" style="fill:#d3d3d3;stroke:#808080;stroke-width:3px;"/></g><g><path d="M42.067,67.919c-7.956,3.958 -16.234,3.818 -20.567,-1.002c-0.815,-0.907 -1.448,-1.933 -1.904,-3.047c-1.003,0.208 -2.044,0.311 -3.111,0.311c-8.548,0 -15.485,-6.841 -15.485,-15.271c-0,-8.431 6.937,-15.272 15.485,-15.272l0.211,-0c1.463,-7.397 10.226,-13.091 20.808,-13.091c9.848,-0 18.118,4.932 20.4,11.573c7.096,-7.12 16.344,-3.83 20.685,1.043c0.811,0.906 1.437,1.936 1.881,3.051c1.008,-0.2 2.052,-0.3 3.115,-0.296c8.552,0.044 15.452,6.921 15.415,15.348c-0.041,8.43 -7.015,15.24 -15.563,15.196l-0.211,-0c-1.496,7.388 -10.289,13.043 -20.874,12.991c-9.771,-0.048 -17.974,-4.948 -20.285,-11.534Z" style="fill:#fff;"/><path d="M82.257,69.301c-2.893,5.949 -10.725,10.197 -19.905,10.152c-9.771,-0.048 -17.974,-4.948 -20.285,-11.534c-7.956,3.958 -16.234,3.818 -20.567,-1.002c-0.815,-0.907 -1.448,-1.933 -1.904,-3.047c-1.003,0.208 -2.044,0.311 -3.111,0.311c-8.548,0 -15.485,-6.841 -15.485,-15.271c-0,-8.431 6.937,-15.272 15.485,-15.272l0.211,-0c1.463,-7.397 10.226,-13.091 20.808,-13.091c9.848,-0 18.118,4.932 20.4,11.573c7.096,-7.12 16.344,-3.83 20.685,1.043c0.811,0.906 1.437,1.936 1.881,3.051c1.008,-0.2 2.052,-0.3 3.115,-0.296c8.552,0.044 15.452,6.921 15.415,15.348c-0.041,8.43 -7.015,15.24 -15.563,15.196l-0.211,-0c-0.107,0.526 -0.25,1.043 -0.43,1.549c-0.461,-1.776 -0.935,-4.549 0.595,-4.549l0.061,0.001l0,-0.001c6.881,0.035 12.515,-5.424 12.548,-12.21c0.029,-6.783 -5.545,-12.297 -12.428,-12.334c-0.86,-0.003 -1.704,0.077 -2.518,0.238c-1.418,0.281 -2.835,-0.488 -3.37,-1.831c-0.315,-0.789 -0.756,-1.52 -1.331,-2.162c-0.001,-0.002 -0.003,-0.003 -0.004,-0.005c-3.426,-3.845 -10.72,-6.54 -16.321,-0.92c-0.731,0.734 -1.789,1.038 -2.798,0.806c-1.009,-0.233 -1.827,-0.97 -2.164,-1.949c-1.944,-5.661 -9.169,-9.548 -17.562,-9.548c-8.958,-0 -16.626,4.412 -17.865,10.673c-0.278,1.405 -1.51,2.418 -2.943,2.418l-0.211,-0c-6.881,-0 -12.485,5.485 -12.485,12.272c-0,6.786 5.604,12.271 12.485,12.271c0.858,0 1.696,-0.082 2.503,-0.249c1.416,-0.293 2.838,0.465 3.385,1.803c0.325,0.795 0.776,1.529 1.358,2.176c3.578,3.981 10.43,3.59 16.999,0.322c0.771,-0.383 1.668,-0.417 2.466,-0.093c0.797,0.324 1.416,0.974 1.701,1.786c1.971,5.616 9.138,9.486 17.469,9.527c8.961,0.044 16.653,-4.332 17.919,-10.587c-0.178,0.882 0.049,1.798 0.618,2.495c0.359,0.438 0.83,0.761 1.354,0.94Z" style="fill:#808080;"/><path d="M54.999,46.957c5.351,-12.493 27.714,-4.925 21.658,10.049" style="fill:#fff;stroke:#808080;stroke-width:3px;"/><path d="M17.031,47c-4.441,-7.137 4.14,-15.335 10.969,-12.241" style="fill:#fff;stroke:#808080;stroke-width:3px;"/><path d="M43.29,53c1.984,-8.169 13.846,-7.785 16.42,-0.743" style="fill:#fff;stroke:#808080;stroke-width:3px;"/><path d="M24.95,67.763c-7.661,-5.099 -3.415,-16.374 4.582,-16.105" style="fill:#fff;stroke:#808080;stroke-width:3px;"/></g></svg>