<?xml version="1.0" encoding="UTF-8" standalone="no"?><!DOCTYPE svg PUBLIC "-//W3C//DTD SVG 1.1//EN" "http://www.w3.org/Graphics/SVG/1.1/DTD/svg11.dtd"><svg width="100%" height="100%" viewBox="0 0 100 80" version="1.1" xmlns="http://www.w3.org/2000/svg" xmlns:xlink="http://www.w3.org/1999/xlink" xml:space="preserve" xmlns:serif="http://www.serif.com/" style="fill-rule:evenodd;clip-rule:evenodd;stroke-linecap:round;stroke-linejoin:round;stroke-miterlimit:1.5;"><path d="M100,11.739c-0,-6.479 -5.26,-11.739 -11.739,-11.739l-76.522,0c-6.479,0 -11.739,5.26 -11.739,11.739l0,56.522c0,6.479 5.26,11.739 11.739,11.739l76.522,0c6.479,0 11.739,-5.26 11.739,-11.739l-0,-56.522Z" style="fill:#d3d3d3;"/><path d="M76.293,69.827l0.228,0.652l0.872,-0.369l0.365,0.353l0.058,-0.531l0.857,-0.363l-0.232,-0.664l1.77,0.522l-1.136,-1.545l0.614,-0.035l-0.049,-1.025l0.433,-0.284l-0.458,-0.232l-0.047,-0.994l-0.634,0.036l1.002,-1.698l-1.701,0.719l0.159,-0.653l-0.882,-0.26l-0.113,-0.555l-0.351,0.418l-0.881,-0.26l-0.159,0.653l-1.147,-1.559l0.097,2.022l-0.532,-0.38l-0.492,0.835l-0.503,-0.052l0.247,0.486l-0.507,0.86l0.514,0.368l-1.685,0.712l1.771,0.523l-0.503,0.448l0.577,0.785l-0.192,0.492l0.478,-0.105l0.588,0.8l0.492,-0.439l0.095,1.992l0.987,-1.673Zm0.952,-4.834l-0.055,-1.135l-0.562,0.953l0.134,0.04l0.184,-0.226l0.057,0.297l0.242,0.071Zm-1.296,-0.304l0.269,0.378l0.085,-0.352l0.265,0.078l-0.111,-0.319l-0.508,0.215Zm1.895,0.513l-0.299,-0.406l-0.241,0.215l0.159,0.046l-0.086,0.351l0.467,-0.206Zm0.449,2.777l-0.119,-0.233l0.307,-0.519l-0.311,-0.223l1.018,-0.43l-1.07,-0.316l0.304,-0.27l-0.349,-0.475l0.116,-0.297l-0.043,0.009l-0.408,0.706l0.331,-0.023l0.021,0.533l0.238,0.123l-0.227,0.154l0.021,0.55l-0.32,0.022l0.491,0.689Zm-1.774,-2.295l-0.07,-0.211l-0.276,0.123l-0.115,-0.114l-0.019,0.173l-0.271,0.12l0.071,0.214l-0.556,-0.164l0.354,0.498l-0.193,0.013l0.013,0.332l-0.138,0.093l0.144,0.074l0.013,0.322l0.2,-0.013l-0.32,0.553l0.538,-0.238l-0.052,0.212l0.278,0.082l0.034,0.18l0.112,-0.137l0.277,0.082l0.051,-0.212l0.358,0.502l-0.025,-0.655l0.166,0.122l0.158,-0.272l0.158,0.015l-0.077,-0.157l0.162,-0.28l-0.161,-0.118l0.533,-0.236l-0.557,-0.164l0.159,-0.147l-0.18,-0.253l0.062,-0.16l-0.151,0.035l-0.184,-0.257l-0.156,0.143l-0.025,-0.645l-0.315,0.545Zm-1.363,-0.66l0.109,0.313l0.127,-0.219l0.276,0.202l-0.02,-0.504l-0.492,0.208Zm-0.929,0.086l0.655,0.891l0.114,-0.198l-0.127,-0.26l0.263,0.026l0.094,-0.164l-0.999,-0.295Zm0.316,0.955l0.027,0.585l0.426,-0.188l-0.268,-0.195l0.127,-0.22l-0.312,0.018Zm0.38,1.514l-0.152,-0.213l0.264,-0.242l-0.468,-0.139l0.02,0.011l0.028,0.601l0.308,-0.018Zm3.12,0.432l-0.576,-0.17l0.118,0.356l-0.448,0.198l-0.032,0.286l-0.19,-0.188l-0.456,0.202l-0.116,-0.349l-0.392,0.677l0.187,-0.222l0.532,0.157l0.096,-0.395l0.693,0.942l-0.058,-1.221l0.321,0.229l0.298,-0.504l0.023,0.002Zm-3.08,-0.376l-0.57,0.966l0.967,-0.409l-0.143,-0.2l-0.25,0.058l0.102,-0.265l-0.106,-0.15Zm0.362,0.926l0.475,0.14l-0.021,-0.521l-0.258,0.238l-0.121,-0.169l-0.075,0.312Z" style="fill:#e7ebee;stroke:#1fa6a4;stroke-width:0.2px;"/><path d="M61.533,58.857c-0.022,-0.005 -0.046,0.008 -0.052,0.031c-0.005,0.023 0.009,0.046 0.032,0.051c0.023,0.006 0.045,-0.007 0.05,-0.03c0.006,-0.023 -0.008,-0.046 -0.03,-0.052Z" style="fill:#808080;stroke:#5c70d0;stroke-width:0.75px;stroke-linecap:butt;stroke-miterlimit:2;"/><path d="M70.087,38.788c-0.004,0.038 -0.01,0.077 -0.016,0.116c-0.343,2.19 -2.666,3.725 -5.185,3.426c-0.021,-0.002 -0.041,-0.004 -0.063,-0.007c-0.731,1.869 -3.545,3.044 -6.664,2.674c-2.88,-0.342 -5.105,-1.89 -5.53,-3.68c-2.501,0.762 -4.934,0.446 -6.024,-0.953c-0.205,-0.263 -0.351,-0.55 -0.442,-0.855c-0.304,0.019 -0.615,0.013 -0.929,-0.024c-2.521,-0.287 -4.298,-2.299 -3.967,-4.49c0.008,-0.058 0.019,-0.117 0.031,-0.174c-0.106,-0.041 -0.208,-0.086 -0.305,-0.132c-0.172,0.093 -0.368,0.161 -0.586,0.193c-0.945,0.137 -1.928,-0.436 -2.193,-1.28c-0.124,-0.393 -0.07,-0.778 0.12,-1.089c-2.452,-0.925 -3.883,-3.485 -3.217,-5.876c0.694,-2.499 3.415,-3.87 6.073,-3.061c0.611,0.186 1.167,0.472 1.651,0.831c2.353,-0.922 5.567,-0.99 8.866,0.013c1.067,0.325 2.067,0.739 2.986,1.221c0.384,-0.14 0.796,-0.258 1.229,-0.351c1.81,-0.383 3.63,-0.227 5.007,0.329c0.255,-0.164 0.553,-0.288 0.89,-0.359c1.457,-0.31 3.067,0.489 3.591,1.78c0.421,1.036 0.017,2.077 -0.911,2.609c0.812,0.273 1.564,0.609 2.234,1c0.492,-0.223 1.046,-0.366 1.649,-0.409c2.617,-0.189 5.148,1.571 5.648,3.928c0.501,2.357 -1.218,4.425 -3.834,4.614c-0.037,0.002 -0.072,0.004 -0.109,0.006Z" style="fill:#a5abaf;stroke:#4c545d;stroke-width:2px;stroke-linecap:butt;stroke-miterlimit:2;"/><path d="M96.291,27.601c0.023,0.043 0.045,0.085 0.067,0.128c1.201,2.423 0.091,5.309 -2.478,6.441c-0.022,0.011 -0.044,0.019 -0.063,0.029c0.614,2.318 -1.209,5.118 -4.389,6.519c-2.938,1.296 -6.101,0.987 -7.742,-0.591c-1.815,2.201 -4.315,3.269 -6.311,2.465c-0.374,-0.151 -0.711,-0.359 -1.007,-0.618c-0.271,0.194 -0.569,0.362 -0.889,0.505c-2.563,1.145 -5.628,0.112 -6.841,-2.304c-0.032,-0.066 -0.062,-0.131 -0.092,-0.197c-0.128,0.019 -0.253,0.031 -0.378,0.04c-0.095,0.193 -0.232,0.374 -0.415,0.529c-0.789,0.681 -2.11,0.657 -2.945,-0.05c-0.389,-0.332 -0.606,-0.752 -0.646,-1.177c-2.941,0.457 -6.063,-1.333 -7.102,-4.144c-1.086,-2.938 0.512,-5.884 3.566,-6.577c0.702,-0.159 1.421,-0.184 2.126,-0.095c1.563,-2.28 4.527,-4.183 8.317,-5.044c1.226,-0.276 2.453,-0.426 3.65,-0.457c0.263,-0.364 0.566,-0.717 0.908,-1.059c1.429,-1.423 3.243,-2.301 4.922,-2.521c0.124,-0.311 0.318,-0.607 0.583,-0.871c1.152,-1.147 3.216,-1.253 4.606,-0.237c1.115,0.813 1.459,2.104 0.959,3.172c0.952,-0.185 1.891,-0.269 2.79,-0.255c0.306,-0.506 0.727,-0.968 1.261,-1.356c2.322,-1.683 5.918,-1.336 8.027,0.777c2.109,2.113 1.935,5.196 -0.386,6.88c-0.032,0.023 -0.066,0.046 -0.098,0.068Z" style="fill:#a5abaf;stroke:#4c545d;stroke-width:2px;stroke-linecap:butt;stroke-miterlimit:2;"/><path d="M64.233,9.523c0.751,-2.182 2.39,-4.16 4.751,-5.434c4.829,-2.606 10.868,-1.292 13.477,2.933c0.369,0.595 0.649,1.218 0.846,1.855c4.572,1.699 7.805,4.687 8.448,8.172c0.435,0.226 0.848,0.516 1.231,0.869c2.124,1.96 2.822,5.414 2.09,8.913c0.51,0.197 0.955,0.547 1.289,1.048c1.11,1.671 0.558,4.399 -1.234,6.088c-1.524,1.436 -3.456,1.662 -4.684,0.669c-0.746,0.606 -1.533,1.08 -2.33,1.415c-0.108,0.128 -0.218,0.255 -0.332,0.378c-3.067,3.341 -7.593,3.869 -10.254,1.259c-0.032,0.011 -0.065,0.02 -0.097,0.03c-1.737,0.507 -3.463,0.138 -4.622,-0.833c-2.231,2.173 -6.037,3.605 -10.354,3.605c-3.893,0 -7.372,-1.165 -9.652,-2.987c-0.636,0.236 -1.327,0.366 -2.05,0.366c-2.146,0 -4.019,-1.146 -4.985,-2.836c-2.876,0.434 -5.901,0.294 -8.503,-0.531c-5.688,-1.8 -7.231,-6.181 -3.441,-9.778c0.181,-0.173 0.37,-0.339 0.568,-0.501c-0.497,-0.107 -0.954,-0.351 -1.326,-0.735c-1.264,-1.309 -1.075,-3.762 0.421,-5.476c1.27,-1.458 3.082,-1.914 4.373,-1.213c2.519,-2.489 5.868,-3.266 8.44,-1.648c0.452,0.284 0.859,0.63 1.216,1.023c0.51,-0.102 1.031,-0.193 1.564,-0.272c0.301,-2.199 2.298,-4.317 5.07,-5.126c0.88,-0.257 1.753,-0.357 2.575,-0.318c0.374,-0.48 0.868,-0.839 1.452,-1.01c1.31,-0.382 2.673,0.307 3.418,1.597c0.794,-0.563 1.677,-1.073 2.635,-1.522Z" style="fill:#c3c8cb;stroke:#4c545d;stroke-width:2px;stroke-linecap:butt;stroke-miterlimit:2;"/><path d="M50.635,23.808c0.684,-2.529 4.796,-4.475 9.76,-4.475c5.442,-0 9.858,2.339 9.858,5.221c0,0.377 -0.075,0.745 -0.22,1.101c1.445,2.264 -0.199,5.712 -4.152,8.231c-4.511,2.873 -10.334,3.456 -12.994,1.299c-0.383,-0.31 -0.678,-0.661 -0.893,-1.041c-0.472,0.07 -0.959,0.105 -1.46,0.105c-4.01,0 -7.264,-2.338 -7.264,-5.22c-0,-2.882 3.254,-5.221 7.264,-5.221l0.101,-0Z" style="fill:#efeff0;stroke:#4c545d;stroke-width:2px;stroke-linecap:butt;stroke-miterlimit:2;"/><path d="M67.53,8.009c3.463,-1.551 7.065,-1.497 8.951,0.391c0.355,0.356 0.63,0.759 0.828,1.194c0.437,-0.08 0.89,-0.121 1.354,-0.121c3.721,0 6.741,2.68 6.741,5.982c0,3.303 -3.02,5.982 -6.741,5.982l-0.092,0c-0.635,2.898 -4.45,5.128 -9.056,5.128c-4.285,0 -7.886,-1.931 -8.877,-4.533c-3.488,1.561 -7.116,1.499 -9.005,-0.409c-0.352,-0.355 -0.624,-0.758 -0.82,-1.195c-0.438,0.077 -0.891,0.117 -1.355,0.115c-3.721,-0.017 -6.726,-2.71 -6.708,-6.011c0.017,-3.302 3.052,-5.97 6.773,-5.953l0.092,0c0.652,-2.893 4.479,-5.108 9.085,-5.089c4.254,0.02 7.822,1.939 8.83,4.519Z" style="fill:#aeaeb7;stroke:#4c545d;stroke-width:2px;stroke-linecap:butt;stroke-miterlimit:2;"/><path d="M71.587,31.885c-2.777,1.383 -5.666,1.335 -7.18,-0.351c-0.284,-0.316 -0.504,-0.674 -0.665,-1.063c-0.35,0.071 -0.713,0.107 -1.085,0.107c-2.985,0 -5.407,-2.39 -5.407,-5.336c-0,-2.946 2.422,-5.337 5.407,-5.337l0.074,-0c0.509,-2.585 3.57,-4.575 7.264,-4.575c3.436,0 6.325,1.724 7.121,4.044c2.798,-1.392 5.708,-1.337 7.221,0.365c0.284,0.317 0.502,0.677 0.659,1.067c0.352,-0.07 0.715,-0.105 1.087,-0.104c2.984,0.016 5.395,2.419 5.38,5.363c-0.014,2.947 -2.447,5.326 -5.432,5.312l-0.074,-0c-0.522,2.581 -3.591,4.557 -7.287,4.539c-3.412,-0.017 -6.275,-1.73 -7.083,-4.031Z" style="fill:#b0b3b6;stroke:#4c545d;stroke-width:2px;stroke-linecap:butt;stroke-miterlimit:2;"/><path d="M24.264,8.405c2.618,-1.172 5.34,-1.131 6.766,0.297c0.267,0.268 0.475,0.573 0.625,0.902c0.331,-0.061 0.673,-0.092 1.024,-0.092c2.812,0 5.095,2.026 5.095,4.521c-0,2.497 -2.283,4.522 -5.095,4.522l-0.07,0c-0.48,2.19 -3.363,3.876 -6.845,3.876c-3.238,-0 -5.96,-1.459 -6.709,-3.426c-2.637,1.18 -5.379,1.133 -6.806,-0.309c-0.267,-0.269 -0.473,-0.573 -0.62,-0.904c-0.332,0.059 -0.674,0.088 -1.025,0.087c-2.812,-0.012 -5.083,-2.048 -5.07,-4.543c0.013,-2.496 2.307,-4.512 5.119,-4.499l0.07,-0c0.493,-2.187 3.385,-3.861 6.867,-3.847c3.215,0.015 5.912,1.465 6.674,3.415Z" style="fill:#aeaeb7;stroke:#4c545d;stroke-width:2px;stroke-linecap:butt;stroke-miterlimit:2;"/><path d="M36.883,39.288c-0.004,0.038 -0.01,0.077 -0.016,0.116c-0.343,2.19 -2.665,3.725 -5.185,3.426c-0.021,-0.002 -0.041,-0.004 -0.063,-0.007c-0.731,1.869 -3.545,3.044 -6.664,2.674c-2.88,-0.342 -5.105,-1.89 -5.529,-3.68c-2.501,0.762 -4.935,0.446 -6.025,-0.953c-0.205,-0.263 -0.351,-0.55 -0.441,-0.855c-0.305,0.019 -0.616,0.013 -0.93,-0.024c-2.521,-0.287 -4.298,-2.299 -3.966,-4.49c0.008,-0.058 0.018,-0.117 0.03,-0.174c-0.106,-0.041 -0.208,-0.086 -0.305,-0.132c-0.171,0.093 -0.368,0.161 -0.585,0.193c-0.946,0.137 -1.929,-0.436 -2.194,-1.28c-0.123,-0.393 -0.07,-0.778 0.12,-1.089c-2.452,-0.925 -3.883,-3.485 -3.217,-5.876c0.694,-2.499 3.415,-3.87 6.073,-3.061c0.612,0.186 1.167,0.472 1.651,0.831c2.353,-0.922 5.567,-0.99 8.866,0.013c1.067,0.325 2.067,0.739 2.986,1.221c0.384,-0.14 0.796,-0.258 1.229,-0.351c1.811,-0.383 3.63,-0.227 5.007,0.329c0.255,-0.164 0.554,-0.288 0.89,-0.359c1.457,-0.31 3.067,0.489 3.591,1.78c0.421,1.036 0.017,2.077 -0.91,2.609c0.812,0.273 1.563,0.609 2.233,1c0.492,-0.223 1.046,-0.366 1.649,-0.409c2.617,-0.189 5.148,1.571 5.649,3.928c0.501,2.357 -1.218,4.425 -3.835,4.614c-0.037,0.002 -0.072,0.004 -0.109,0.006Z" style="fill:#a5abaf;stroke:#4c545d;stroke-width:2px;stroke-linecap:butt;stroke-miterlimit:2;"/><path d="M63.088,28.101c0.022,0.043 0.044,0.085 0.066,0.128c1.201,2.423 0.091,5.309 -2.478,6.441c-0.022,0.011 -0.044,0.019 -0.063,0.029c0.614,2.318 -1.209,5.118 -4.388,6.519c-2.938,1.296 -6.102,0.987 -7.743,-0.591c-1.815,2.201 -4.315,3.269 -6.31,2.465c-0.374,-0.151 -0.712,-0.359 -1.008,-0.618c-0.271,0.194 -0.568,0.362 -0.889,0.505c-2.562,1.145 -5.627,0.112 -6.841,-2.304c-0.032,-0.066 -0.062,-0.131 -0.091,-0.197c-0.128,0.019 -0.254,0.031 -0.379,0.04c-0.095,0.193 -0.232,0.374 -0.415,0.529c-0.789,0.681 -2.11,0.657 -2.945,-0.05c-0.389,-0.332 -0.606,-0.752 -0.646,-1.177c-2.94,0.457 -6.063,-1.333 -7.102,-4.144c-1.085,-2.938 0.512,-5.884 3.566,-6.577c0.702,-0.159 1.421,-0.184 2.126,-0.095c1.563,-2.28 4.527,-4.183 8.318,-5.044c1.226,-0.276 2.453,-0.426 3.649,-0.457c0.263,-0.364 0.566,-0.717 0.908,-1.059c1.429,-1.423 3.243,-2.301 4.922,-2.521c0.124,-0.311 0.318,-0.607 0.583,-0.871c1.152,-1.147 3.216,-1.253 4.606,-0.237c1.115,0.813 1.459,2.104 0.959,3.172c0.952,-0.185 1.891,-0.269 2.79,-0.255c0.306,-0.506 0.727,-0.968 1.261,-1.356c2.322,-1.683 5.919,-1.336 8.027,0.777c2.109,2.113 1.935,5.196 -0.386,6.88c-0.032,0.023 -0.065,0.046 -0.097,0.068Z" style="fill:#a5abaf;stroke:#4c545d;stroke-width:2px;stroke-linecap:butt;stroke-miterlimit:2;"/><path d="M37.983,9.523c0.751,-2.182 2.39,-4.16 4.751,-5.434c4.829,-2.606 10.868,-1.292 13.477,2.933c0.369,0.595 0.649,1.218 0.846,1.855c4.572,1.699 7.805,4.687 8.448,8.172c0.435,0.226 0.848,0.516 1.231,0.869c2.124,1.96 2.822,5.414 2.09,8.913c0.51,0.197 0.955,0.547 1.289,1.048c1.11,1.671 0.558,4.399 -1.234,6.088c-1.524,1.436 -3.456,1.662 -4.684,0.669c-0.746,0.606 -1.533,1.08 -2.33,1.415c-0.108,0.128 -0.218,0.255 -0.332,0.378c-3.067,3.341 -7.593,3.869 -10.254,1.259c-0.032,0.011 -0.065,0.02 -0.097,0.03c-1.737,0.507 -3.463,0.138 -4.622,-0.833c-2.231,2.173 -5.995,-5.82 -10.312,-5.82c-3.893,0 -7.414,8.26 -9.694,6.438c-0.636,0.236 -1.327,0.366 -2.05,0.366c-2.146,0 -4.019,-1.146 -4.985,-2.836c-2.876,0.434 -5.901,0.294 -8.503,-0.531c-5.688,-1.8 -7.231,-6.181 -3.441,-9.778c0.181,-0.173 0.37,-0.339 0.568,-0.501c-0.497,-0.107 -0.954,-0.351 -1.326,-0.735c-1.264,-1.309 -1.075,-3.762 0.421,-5.476c1.27,-1.458 3.082,-1.914 4.373,-1.213c2.519,-2.489 5.868,-3.266 8.44,-1.648c0.452,0.284 0.859,0.63 1.216,1.023c0.51,-0.102 1.031,-0.193 1.564,-0.272c0.301,-2.199 2.298,-4.317 5.07,-5.126c0.88,-0.257 1.753,-0.357 2.575,-0.318c0.374,-0.48 0.868,-0.839 1.452,-1.01c1.31,-0.382 2.673,0.307 3.418,1.597c0.794,-0.563 1.677,-1.073 2.635,-1.522Z" style="fill:#c3c8cb;stroke:#4c545d;stroke-width:2px;stroke-linecap:butt;stroke-miterlimit:2;"/><path d="M39.757,18.83c2.266,-2.119 5.048,-2.899 6.981,-1.716c0.362,0.222 0.676,0.502 0.941,0.829c0.315,-0.168 0.653,-0.307 1.009,-0.413c2.86,-0.853 5.865,0.745 6.707,3.568c0.842,2.823 -0.795,5.807 -3.656,6.66l-0.071,0.021c0.251,2.623 -2.113,5.404 -5.652,6.46c-3.294,0.983 -6.555,0.157 -7.981,-1.839c-2.282,2.133 -5.087,2.913 -7.024,1.715c-0.362,-0.223 -0.674,-0.506 -0.936,-0.835c-0.317,0.168 -0.655,0.306 -1.012,0.411c-2.864,0.838 -5.861,-0.776 -6.689,-3.602c-0.829,-2.827 0.823,-5.803 3.688,-6.642l0.071,-0.022c-0.238,-2.622 2.138,-5.393 5.684,-6.432c3.275,-0.959 6.508,-0.137 7.94,1.837Z" style="fill:#959da7;stroke:#4c545d;stroke-width:2px;stroke-linecap:butt;stroke-miterlimit:2;"/><path d="M30.593,41.204c-3.165,1.576 -6.458,1.521 -8.184,-0.4c-0.324,-0.362 -0.575,-0.77 -0.758,-1.213c-0.399,0.081 -0.813,0.123 -1.237,0.123c-3.402,-0 -6.163,-2.725 -6.163,-6.083c-0,-3.358 2.761,-6.084 6.163,-6.084l0.085,-0c0.58,-2.946 4.069,-5.215 8.279,-5.215c3.918,0 7.211,1.965 8.118,4.61c3.189,-1.586 6.506,-1.524 8.231,0.416c0.323,0.361 0.572,0.772 0.751,1.216c0.401,-0.079 0.815,-0.12 1.24,-0.118c3.401,0.018 6.149,2.757 6.132,6.114c-0.016,3.358 -2.79,6.071 -6.192,6.054l-0.085,-0c-0.594,2.942 -4.093,5.195 -8.305,5.174c-3.89,-0.02 -7.153,-1.971 -8.075,-4.594Z" style="fill:#babdbf;stroke:#4c545d;stroke-width:2px;stroke-linecap:butt;stroke-miterlimit:2;"/><path d="M57.682,37.731c-3.224,1.487 -6.578,1.435 -8.334,-0.377c-0.33,-0.34 -0.586,-0.726 -0.771,-1.145c-0.407,0.078 -0.828,0.117 -1.261,0.117c-3.463,0 -6.274,-2.57 -6.274,-5.738c0,-3.168 2.811,-5.739 6.274,-5.739l0.086,0c0.593,-2.779 4.143,-4.919 8.431,-4.919c3.99,0 7.341,1.853 8.265,4.349c3.246,-1.498 6.623,-1.439 8.382,0.392c0.328,0.34 0.582,0.728 0.762,1.146c0.408,-0.075 0.831,-0.112 1.262,-0.111c3.465,0.017 6.261,2.601 6.246,5.767c-0.017,3.168 -2.842,5.727 -6.306,5.71l-0.085,0c-0.607,2.777 -4.169,4.902 -8.458,4.882c-3.959,-0.018 -7.283,-1.859 -8.219,-4.334Z" style="fill:#bdbdc1;stroke:#4c545d;stroke-width:2px;stroke-linecap:butt;stroke-miterlimit:2;"/><path d="M63.175,56.27c0,-0 -1.04,3.705 -1.04,5.293c-0,0.575 0.466,1.041 1.04,1.041c0.575,0 1.041,-0.466 1.041,-1.041c0,-1.588 -1.041,-5.293 -1.041,-5.293Z" style="fill:#ebeded;"/><path d="M63.175,56.27c0,-0 -1.04,3.705 -1.04,5.293c-0,0.575 0.466,1.041 1.04,1.041c0.575,0 1.041,-0.466 1.041,-1.041c0,-1.588 -1.041,-5.293 -1.041,-5.293Zm0,3.154c0.164,0.802 0.291,1.598 0.291,2.139c0,0.161 -0.13,0.291 -0.291,0.291c-0.16,0 -0.29,-0.13 -0.29,-0.291c-0,-0.541 0.126,-1.337 0.29,-2.139Z" style="fill:#5c70d0;"/><path d="M68.604,60.082c-0,-0 -1.041,2.597 -1.041,3.71c-0,0.574 0.466,1.041 1.041,1.041c0.574,-0 1.041,-0.467 1.041,-1.041c-0,-1.113 -1.041,-3.71 -1.041,-3.71Z" style="fill:#ebeded;"/><path d="M68.604,60.082c-0,-0 -1.041,2.597 -1.041,3.71c-0,0.574 0.466,1.041 1.041,1.041c0.574,-0 1.041,-0.467 1.041,-1.041c-0,-1.113 -1.041,-3.71 -1.041,-3.71Zm-0,2.242c0.163,0.55 0.291,1.097 0.291,1.468c-0,0.16 -0.131,0.291 -0.291,0.291c-0.161,-0 -0.291,-0.131 -0.291,-0.291c-0,-0.371 0.127,-0.918 0.291,-1.468Z" style="fill:#5c70d0;"/><path d="M74.626,54.686c-0,0 -1.041,2.597 -1.041,3.71c-0,0.574 0.466,1.041 1.041,1.041c0.574,-0 1.041,-0.467 1.041,-1.041c-0,-1.113 -1.041,-3.71 -1.041,-3.71Z" style="fill:#ebeded;"/><path d="M74.626,54.686c-0,0 -1.041,2.597 -1.041,3.71c-0,0.574 0.466,1.041 1.041,1.041c0.574,-0 1.041,-0.467 1.041,-1.041c-0,-1.113 -1.041,-3.71 -1.041,-3.71Zm-0,2.242c0.163,0.55 0.291,1.097 0.291,1.468c-0,0.161 -0.131,0.291 -0.291,0.291c-0.161,-0 -0.291,-0.13 -0.291,-0.291c-0,-0.371 0.127,-0.918 0.291,-1.468Z" style="fill:#5c70d0;"/><path d="M78.493,55.331c-0,0 -1.041,2.597 -1.041,3.71c-0,0.574 0.466,1.041 1.041,1.041c0.574,-0 1.041,-0.467 1.041,-1.041c-0,-1.113 -1.041,-3.71 -1.041,-3.71Z" style="fill:#ebeded;"/><path d="M78.493,55.331c-0,0 -1.041,2.597 -1.041,3.71c-0,0.574 0.466,1.041 1.041,1.041c0.574,-0 1.041,-0.467 1.041,-1.041c-0,-1.113 -1.041,-3.71 -1.041,-3.71Zm-0,2.243c0.163,0.549 0.291,1.096 0.291,1.467c-0,0.161 -0.131,0.291 -0.291,0.291c-0.161,-0 -0.291,-0.13 -0.291,-0.291c-0,-0.371 0.127,-0.918 0.291,-1.467Z" style="fill:#5c70d0;"/><path d="M26.55,46c0,0 -1.12,3.22 -1.12,4.6c-0,0.619 0.502,1.121 1.12,1.121c0.619,-0 1.121,-0.502 1.121,-1.121c-0,-1.38 -1.121,-4.6 -1.121,-4.6Z" style="fill:#ebeded;"/><path d="M26.55,46c0,0 -1.12,3.22 -1.12,4.6c-0,0.619 0.502,1.121 1.12,1.121c0.619,-0 1.121,-0.502 1.121,-1.121c-0,-1.38 -1.121,-4.6 -1.121,-4.6Zm0,2.538c0.203,0.762 0.371,1.547 0.371,2.062c-0,0.205 -0.166,0.371 -0.371,0.371c-0.204,-0 -0.37,-0.166 -0.37,-0.371c-0,-0.515 0.167,-1.3 0.37,-2.062Z" style="fill:#5c70d0;"/><path d="M74.329,60.082c0,-0 -1.561,4.45 -1.561,6.357c-0,0.861 0.699,1.561 1.561,1.561c0.862,0 1.561,-0.7 1.561,-1.561c0,-1.907 -1.561,-6.357 -1.561,-6.357Z" style="fill:#ebeded;"/><path d="M74.329,60.082c0,-0 -1.561,4.45 -1.561,6.357c-0,0.861 0.699,1.561 1.561,1.561c0.862,0 1.561,-0.7 1.561,-1.561c0,-1.907 -1.561,-6.357 -1.561,-6.357Zm0,2.439c0.396,1.333 0.811,2.959 0.811,3.918c0,0.447 -0.363,0.811 -0.811,0.811c-0.448,-0 -0.811,-0.364 -0.811,-0.811c-0,-0.959 0.415,-2.585 0.811,-3.918Z" style="fill:#5c70d0;"/><path d="M78.789,54.686c0,0 -1.561,4.45 -1.561,6.357c0,0.861 0.7,1.561 1.561,1.561c0.862,0 1.562,-0.7 1.562,-1.561c-0,-1.907 -1.562,-6.357 -1.562,-6.357Z" style="fill:#ebeded;"/><path d="M78.789,54.686c0,0 -1.561,4.45 -1.561,6.357c0,0.861 0.7,1.561 1.561,1.561c0.862,0 1.562,-0.7 1.562,-1.561c-0,-1.907 -1.562,-6.357 -1.562,-6.357Zm0,2.439c0.397,1.333 0.812,2.959 0.812,3.918c-0,0.448 -0.364,0.811 -0.812,0.811c-0.447,0 -0.811,-0.363 -0.811,-0.811c0,-0.959 0.415,-2.585 0.811,-3.918Z" style="fill:#5c70d0;"/><path d="M39,69.288c0,0 -1.4,2.816 -1.4,4.023c-0,0.773 0.627,1.401 1.4,1.401c0.773,-0 1.4,-0.628 1.4,-1.401c0,-1.207 -1.4,-4.023 -1.4,-4.023Z" style="fill:#ebeded;"/><path d="M39,69.288c0,0 -1.4,2.816 -1.4,4.023c-0,0.773 0.627,1.401 1.4,1.401c0.773,-0 1.4,-0.628 1.4,-1.401c0,-1.207 -1.4,-4.023 -1.4,-4.023Zm0,1.787c0.327,0.778 0.65,1.687 0.65,2.236c0,0.359 -0.291,0.651 -0.65,0.651c-0.359,-0 -0.65,-0.292 -0.65,-0.651c-0,-0.549 0.323,-1.458 0.65,-2.236Z" style="fill:#5c70d0;"/><path d="M73.137,58.457c0,0 -2.862,5.756 -2.862,8.223c-0,1.58 1.283,2.863 2.862,2.863c1.58,-0 2.863,-1.283 2.863,-2.863c0,-2.467 -2.863,-8.223 -2.863,-8.223Z" style="fill:#ebeded;"/><path d="M73.137,58.457c0,0 -2.862,5.756 -2.862,8.223c-0,1.58 1.283,2.863 2.862,2.863c1.58,-0 2.863,-1.283 2.863,-2.863c0,-2.467 -2.863,-8.223 -2.863,-8.223Zm0,1.743c0.824,1.798 2.113,4.868 2.113,6.48c0,1.166 -0.947,2.113 -2.113,2.113c-1.166,-0 -2.112,-0.947 -2.112,-2.113c-0,-1.612 1.289,-4.682 2.112,-6.48Z" style="fill:#5c70d0;"/><path d="M82.935,63.249c0,0 -2.064,5.206 -2.064,7.437c-0,1.14 0.925,2.065 2.064,2.065c1.14,-0 2.065,-0.925 2.065,-2.065c0,-2.231 -2.065,-7.437 -2.065,-7.437Z" style="fill:#ebeded;"/><path d="M82.935,63.249c0,0 -2.064,5.206 -2.064,7.437c-0,1.14 0.925,2.065 2.064,2.065c1.14,-0 2.065,-0.925 2.065,-2.065c0,-2.231 -2.065,-7.437 -2.065,-7.437Zm0,2.147c0.582,1.651 1.315,3.992 1.315,5.29c0,0.726 -0.589,1.315 -1.315,1.315c-0.725,-0 -1.314,-0.589 -1.314,-1.315c-0,-1.298 0.733,-3.639 1.314,-5.29Z" style="fill:#5c70d0;"/><path d="M25.959,56.598c0,-0 -1.041,3.705 -1.041,5.293c0,0.575 0.467,1.041 1.041,1.041c0.575,0 1.041,-0.466 1.041,-1.041c0,-1.588 -1.041,-5.293 -1.041,-5.293Z" style="fill:#ebeded;"/><path d="M25.959,56.598c0,-0 -1.041,3.705 -1.041,5.293c0,0.575 0.467,1.041 1.041,1.041c0.575,0 1.041,-0.466 1.041,-1.041c-0,-1.588 -1.041,-5.293 -1.041,-5.293Zm0,3.154c0.164,0.803 0.291,1.598 0.291,2.139c0,0.161 -0.13,0.291 -0.291,0.291c-0.161,0 -0.291,-0.13 -0.291,-0.291c0,-0.541 0.127,-1.336 0.291,-2.139Z" style="fill:#5c70d0;"/><path d="M66.333,51.65c-0,0 -1.041,3.705 -1.041,5.294c-0,0.574 0.466,1.04 1.041,1.04c0.574,0 1.041,-0.466 1.041,-1.04c-0,-1.589 -1.041,-5.294 -1.041,-5.294Z" style="fill:#ebeded;"/><path d="M66.333,51.65c-0,0 -1.041,3.705 -1.041,5.294c-0,0.574 0.466,1.04 1.041,1.04c0.574,0 1.041,-0.466 1.041,-1.04c-0,-1.589 -1.041,-5.294 -1.041,-5.294Zm-0,3.154c0.164,0.803 0.291,1.599 0.291,2.14c-0,0.16 -0.131,0.29 -0.291,0.29c-0.161,0 -0.291,-0.13 -0.291,-0.29c-0,-0.541 0.127,-1.337 0.291,-2.14Z" style="fill:#5c70d0;"/><path d="M75.781,43.688c-0,-0 -1.041,2.597 -1.041,3.71c-0,0.574 0.466,1.041 1.041,1.041c0.574,-0 1.041,-0.467 1.041,-1.041c-0,-1.113 -1.041,-3.71 -1.041,-3.71Z" style="fill:#ebeded;"/><path d="M75.781,43.688c-0,-0 -1.041,2.597 -1.041,3.71c-0,0.574 0.466,1.041 1.041,1.041c0.574,-0 1.041,-0.467 1.041,-1.041c-0,-1.113 -1.041,-3.71 -1.041,-3.71Zm-0,2.242c0.163,0.55 0.291,1.097 0.291,1.468c-0,0.16 -0.131,0.291 -0.291,0.291c-0.161,-0 -0.291,-0.131 -0.291,-0.291c-0,-0.371 0.127,-0.918 0.291,-1.468Z" style="fill:#5c70d0;"/><path d="M85.781,43c0,0 -1.219,3.041 -1.219,4.344c0,0.672 0.547,1.218 1.219,1.218c0.673,0 1.219,-0.546 1.219,-1.218c0,-1.303 -1.219,-4.344 -1.219,-4.344Z" style="fill:#ebeded;"/><path d="M85.781,43c0,-0 -1.219,3.041 -1.219,4.344c0,0.672 0.547,1.218 1.219,1.218c0.673,0 1.219,-0.546 1.219,-1.218c0,-1.303 -1.219,-4.344 -1.219,-4.344Zm0,2.199c0.249,0.777 0.469,1.614 0.469,2.145c0,0.258 -0.21,0.468 -0.469,0.468c-0.258,0 -0.469,-0.21 -0.469,-0.468c0,-0.531 0.22,-1.368 0.469,-2.145Z" style="fill:#5c70d0;"/><path d="M43.906,46c0,0 1.03,3.714 1.03,5.305c-0,0.568 -0.462,1.029 -1.03,1.029c-0.568,0 -1.029,-0.461 -1.029,-1.029c0,-1.591 1.029,-5.305 1.029,-5.305Z" style="fill:#ebeded;"/><path d="M43.906,46c0,0 1.03,3.714 1.03,5.305c-0,0.568 -0.462,1.029 -1.03,1.029c-0.568,0 -1.029,-0.461 -1.029,-1.029c0,-1.591 1.029,-5.305 1.029,-5.305Zm0,3.203c0.159,0.79 0.28,1.569 0.28,2.102c-0,0.154 -0.125,0.279 -0.28,0.279c-0.154,0 -0.279,-0.125 -0.279,-0.279c0,-0.533 0.121,-1.312 0.279,-2.102Z" style="fill:#5c70d0;"/><path d="M56.486,45.12c0,0 1.03,2.606 1.03,3.722c-0,0.568 -0.462,1.029 -1.03,1.029c-0.568,0 -1.029,-0.461 -1.029,-1.029c0,-1.116 1.029,-3.722 1.029,-3.722Z" style="fill:#ebeded;"/><path d="M56.486,45.12c0,0 1.03,2.606 1.03,3.722c-0,0.568 -0.462,1.029 -1.03,1.029c-0.568,0 -1.029,-0.461 -1.029,-1.029c0,-1.116 1.029,-3.722 1.029,-3.722Zm0,2.278c0.158,0.542 0.28,1.078 0.28,1.444c-0,0.154 -0.126,0.279 -0.28,0.279c-0.154,0 -0.279,-0.125 -0.279,-0.279c0,-0.366 0.122,-0.902 0.279,-1.444Z" style="fill:#5c70d0;"/><path d="M37.157,61.247c0,-0 1.03,2.605 1.03,3.721c-0,0.568 -0.462,1.029 -1.03,1.029c-0.568,0 -1.029,-0.461 -1.029,-1.029c0,-1.116 1.029,-3.721 1.029,-3.721Z" style="fill:#ebeded;"/><path d="M37.157,61.247c0,-0 1.03,2.605 1.03,3.721c-0,0.568 -0.462,1.029 -1.03,1.029c-0.568,0 -1.029,-0.461 -1.029,-1.029c0,-1.116 1.029,-3.721 1.029,-3.721Zm0,2.277c0.158,0.542 0.28,1.079 0.28,1.444c-0,0.154 -0.126,0.279 -0.28,0.279c-0.154,0 -0.279,-0.125 -0.279,-0.279c0,-0.365 0.122,-0.902 0.279,-1.444Z" style="fill:#5c70d0;"/><path d="M61.713,42.249c0,0 1.287,5.751 1.287,8.215c-0,0.71 -0.576,1.287 -1.287,1.287c-0.71,-0 -1.286,-0.577 -1.286,-1.287c-0,-2.464 1.286,-8.215 1.286,-8.215Z" style="fill:#ebeded;"/><path d="M61.713,42.249c0,0 1.287,5.751 1.287,8.215c-0,0.71 -0.576,1.287 -1.287,1.287c-0.71,-0 -1.286,-0.577 -1.286,-1.287c-0,-2.464 1.286,-8.215 1.286,-8.215Zm0,3.821c0.282,1.58 0.537,3.311 0.537,4.394c-0,0.296 -0.24,0.537 -0.537,0.537c-0.296,-0 -0.536,-0.241 -0.536,-0.537c-0,-1.083 0.255,-2.814 0.536,-4.394Z" style="fill:#5c70d0;"/><path d="M45.452,70c0,-0 2.548,4.335 2.548,6.192c0,1.406 -1.142,2.548 -2.548,2.548c-1.406,0 -2.548,-1.142 -2.548,-2.548c0,-1.857 2.548,-6.192 2.548,-6.192Z" style="fill:#ebeded;"/><path d="M45.452,70c0,-0 2.548,4.335 2.548,6.192c0,1.406 -1.142,2.548 -2.548,2.548c-1.406,0 -2.548,-1.142 -2.548,-2.548c0,-1.857 2.548,-6.192 2.548,-6.192Zm0,1.547c0.404,0.761 0.918,1.79 1.299,2.762c0.281,0.717 0.499,1.396 0.499,1.883c0,0.993 -0.806,1.798 -1.798,1.798c-0.992,0 -1.798,-0.805 -1.798,-1.798c0,-0.487 0.218,-1.166 0.499,-1.883c0.381,-0.972 0.895,-2.001 1.299,-2.762Z" style="fill:#5c70d0;"/><path d="M50,41.71c0,-0 1.426,3.608 1.426,5.155c-0,0.786 -0.639,1.425 -1.426,1.425c-0.787,0 -1.426,-0.639 -1.426,-1.425c0,-1.547 1.426,-5.155 1.426,-5.155Z" style="fill:#ebeded;"/><path d="M50,41.71c0,-0 1.426,3.608 1.426,5.155c-0,0.786 -0.639,1.425 -1.426,1.425c-0.787,0 -1.426,-0.639 -1.426,-1.425c0,-1.547 1.426,-5.155 1.426,-5.155Zm0,2.199c0.34,1.029 0.676,2.231 0.676,2.956c-0,0.372 -0.303,0.675 -0.676,0.675c-0.373,0 -0.676,-0.303 -0.676,-0.675c0,-0.725 0.336,-1.927 0.676,-2.956Z" style="fill:#5c70d0;"/><path d="M22.637,62.25c0,-0 1.384,3.501 1.384,5.002c-0,0.763 -0.62,1.383 -1.384,1.383c-0.763,0 -1.383,-0.62 -1.383,-1.383c0,-1.501 1.383,-5.002 1.383,-5.002Z" style="fill:#ebeded;"/><path d="M22.637,62.25c0,-0 1.384,3.501 1.384,5.002c-0,0.763 -0.62,1.383 -1.384,1.383c-0.763,0 -1.383,-0.62 -1.383,-1.383c0,-1.501 1.383,-5.002 1.383,-5.002Zm0,2.204c0.322,0.982 0.634,2.111 0.634,2.798c-0,0.349 -0.284,0.633 -0.634,0.633c-0.349,0 -0.633,-0.284 -0.633,-0.633c0,-0.687 0.312,-1.816 0.633,-2.798Z" style="fill:#5c70d0;"/><path d="M17.427,63c-0,0 2.573,4.85 2.573,6.929c0,1.42 -1.153,2.573 -2.573,2.573c-1.42,-0 -2.573,-1.153 -2.573,-2.573c-0,-2.079 2.573,-6.929 2.573,-6.929Z" style="fill:#ebeded;"/><path d="M17.427,63c-0,-0 2.573,4.85 2.573,6.929c0,1.42 -1.153,2.573 -2.573,2.573c-1.42,-0 -2.573,-1.153 -2.573,-2.573c-0,-2.079 2.573,-6.929 2.573,-6.929Zm-0,1.677c0.408,0.853 0.926,2.002 1.31,3.088c0.291,0.823 0.513,1.604 0.513,2.164c0,1.006 -0.817,1.823 -1.823,1.823c-1.006,-0 -1.823,-0.817 -1.823,-1.823c-0,-0.56 0.222,-1.341 0.513,-2.164c0.384,-1.086 0.901,-2.235 1.31,-3.088Z" style="fill:#5c70d0;"/><path d="M83.456,47.956c0,-0 1.544,4.462 1.544,6.374c-0,0.852 -0.692,1.544 -1.544,1.544c-0.852,-0 -1.544,-0.692 -1.544,-1.544c0,-1.912 1.544,-6.374 1.544,-6.374Z" style="fill:#ebeded;"/><path d="M83.456,47.956c0,-0 1.544,4.462 1.544,6.374c0,0.852 -0.692,1.544 -1.544,1.544c-0.852,-0 -1.544,-0.692 -1.544,-1.544c0,-1.912 1.544,-6.374 1.544,-6.374Zm0,2.473c0.389,1.332 0.794,2.946 0.794,3.901c0,0.438 -0.356,0.794 -0.794,0.794c-0.438,-0 -0.794,-0.356 -0.794,-0.794c0,-0.955 0.405,-2.569 0.794,-3.901Z" style="fill:#5c70d0;"/><path d="M22.779,43.365c0,-0 -1.017,4.487 -1.017,6.41c0,0.561 0.456,1.017 1.017,1.017c0.562,0 1.017,-0.456 1.017,-1.017c0,-1.923 -1.017,-6.41 -1.017,-6.41Z" style="fill:#ebeded;"/><path d="M22.779,43.365c0,-0 -1.017,4.487 -1.017,6.41c0,0.561 0.456,1.017 1.017,1.017c0.562,0 1.017,-0.456 1.017,-1.017c0,-1.923 -1.017,-6.41 -1.017,-6.41Zm0,3.907c0.152,0.943 0.267,1.867 0.267,2.503c0,0.147 -0.119,0.267 -0.267,0.267c-0.147,0 -0.267,-0.12 -0.267,-0.267c0,-0.636 0.115,-1.56 0.267,-2.503Z" style="fill:#5c70d0;"/><path d="M30.561,45c0,0 -1.561,4.45 -1.561,6.357c0,0.861 0.7,1.561 1.561,1.561c0.862,0 1.562,-0.7 1.562,-1.561c-0,-1.907 -1.562,-6.357 -1.562,-6.357Z" style="fill:#ebeded;"/><path d="M30.561,45c0,0 -1.561,4.45 -1.561,6.357c-0,0.861 0.7,1.561 1.561,1.561c0.862,0 1.562,-0.7 1.562,-1.561c-0,-1.907 -1.562,-6.357 -1.562,-6.357Zm0,2.439c0.397,1.333 0.812,2.959 0.812,3.918c-0,0.447 -0.364,0.811 -0.812,0.811c-0.447,0 -0.811,-0.364 -0.811,-0.811c-0,-0.959 0.415,-2.585 0.811,-3.918Z" style="fill:#5c70d0;"/><path d="M47.918,46c0,0 -2.082,5.194 -2.082,7.42c0,1.149 0.933,2.082 2.082,2.082c1.149,-0 2.082,-0.933 2.082,-2.082c0,-2.226 -2.082,-7.42 -2.082,-7.42Z" style="fill:#ebeded;"/><path d="M47.918,46c0,0 -2.082,5.194 -2.082,7.42c0,1.149 0.933,2.082 2.082,2.082c1.149,-0 2.082,-0.933 2.082,-2.082c0,-2.226 -2.082,-7.42 -2.082,-7.42Zm0,2.125c0.587,1.648 1.332,3.995 1.332,5.295c0,0.735 -0.597,1.332 -1.332,1.332c-0.735,-0 -1.332,-0.597 -1.332,-1.332c0,-1.3 0.745,-3.647 1.332,-5.295Z" style="fill:#5c70d0;"/><path d="M48.918,56.249c0,0 -2.082,5.194 -2.082,7.42c0,1.149 0.933,2.082 2.082,2.082c1.149,-0 2.082,-0.933 2.082,-2.082c0,-2.226 -2.082,-7.42 -2.082,-7.42Z" style="fill:#ebeded;"/><path d="M48.918,56.249c0,0 -2.082,5.194 -2.082,7.42c0,1.149 0.933,2.082 2.082,2.082c1.149,-0 2.082,-0.933 2.082,-2.082c0,-2.226 -2.082,-7.42 -2.082,-7.42Zm0,2.125c0.587,1.648 1.332,3.995 1.332,5.295c0,0.735 -0.597,1.332 -1.332,1.332c-0.735,-0 -1.332,-0.597 -1.332,-1.332c0,-1.3 0.745,-3.647 1.332,-5.295Z" style="fill:#5c70d0;"/><path d="M33,68c0,0 -2.602,4.83 -2.602,6.899c-0,1.437 1.166,2.603 2.602,2.603c1.436,-0 2.602,-1.166 2.602,-2.603c0,-2.069 -2.602,-6.899 -2.602,-6.899Z" style="fill:#ebeded;"/><path d="M33,68c0,0 -2.602,4.83 -2.602,6.899c-0,1.437 1.166,2.603 2.602,2.603c1.436,-0 2.602,-1.166 2.602,-2.603c0,-2.069 -2.602,-6.899 -2.602,-6.899Zm-0,1.655c0.415,0.852 0.943,2.005 1.334,3.095c0.294,0.818 0.518,1.593 0.518,2.149c0,1.023 -0.83,1.853 -1.852,1.853c-1.022,-0 -1.852,-0.83 -1.852,-1.853c-0,-0.556 0.224,-1.331 0.518,-2.149c0.391,-1.09 0.919,-2.243 1.334,-3.095Z" style="fill:#5c70d0;"/><path d="M38.335,52.368c0,0 -1.561,4.45 -1.561,6.357c-0,0.862 0.7,1.561 1.561,1.561c0.862,0 1.562,-0.699 1.562,-1.561c-0,-1.907 -1.562,-6.357 -1.562,-6.357Z" style="fill:#ebeded;"/><path d="M38.335,52.368c0,0 -1.561,4.45 -1.561,6.357c-0,0.862 0.7,1.561 1.561,1.561c0.862,0 1.562,-0.699 1.562,-1.561c-0,-1.907 -1.562,-6.357 -1.562,-6.357Zm0,2.439c0.397,1.333 0.812,2.959 0.812,3.918c-0,0.448 -0.364,0.811 -0.812,0.811c-0.448,0 -0.811,-0.363 -0.811,-0.811c-0,-0.959 0.415,-2.585 0.811,-3.918Z" style="fill:#5c70d0;"/><path d="M22.041,52.831c-0,0 -1.041,2.597 -1.041,3.71c0,0.575 0.466,1.041 1.041,1.041c0.574,0 1.041,-0.466 1.041,-1.041c-0,-1.113 -1.041,-3.71 -1.041,-3.71Z" style="fill:#ebeded;"/><path d="M22.041,52.831c-0,0 -1.041,2.597 -1.041,3.71c0,0.575 0.466,1.041 1.041,1.041c0.574,0 1.041,-0.466 1.041,-1.041c-0,-1.113 -1.041,-3.71 -1.041,-3.71Zm-0,2.243c0.163,0.549 0.291,1.097 0.291,1.467c-0,0.161 -0.13,0.291 -0.291,0.291c-0.161,0 -0.291,-0.13 -0.291,-0.291c0,-0.37 0.128,-0.918 0.291,-1.467Z" style="fill:#5c70d0;"/><path d="M51.386,48.35c0,-0 -1.758,4.386 -1.758,6.266c-0,0.97 0.788,1.758 1.758,1.758c0.97,0 1.758,-0.788 1.758,-1.758c0,-1.88 -1.758,-6.266 -1.758,-6.266Z" style="fill:#ebeded;"/><path d="M51.386,48.35c0,-0 -1.758,4.386 -1.758,6.266c-0,0.97 0.788,1.758 1.758,1.758c0.97,0 1.758,-0.788 1.758,-1.758c0,-1.88 -1.758,-6.266 -1.758,-6.266Zm0,2.142c0.471,1.352 1.008,3.115 1.008,4.124c0,0.556 -0.451,1.008 -1.008,1.008c-0.556,0 -1.008,-0.452 -1.008,-1.008c-0,-1.009 0.537,-2.772 1.008,-4.124Z" style="fill:#5c70d0;"/><path d="M19.661,53.379c-0,0 -1.041,3.706 -1.041,5.294c-0,0.574 0.466,1.041 1.041,1.041c0.574,-0 1.041,-0.467 1.041,-1.041c-0,-1.588 -1.041,-5.294 -1.041,-5.294Z" style="fill:#ebeded;"/><path d="M19.661,53.379c-0,0 -1.041,3.706 -1.041,5.294c-0,0.574 0.466,1.041 1.041,1.041c0.574,-0 1.041,-0.467 1.041,-1.041c-0,-1.588 -1.041,-5.294 -1.041,-5.294Zm-0,3.155c0.164,0.802 0.291,1.598 0.291,2.139c-0,0.16 -0.131,0.291 -0.291,0.291c-0.161,-0 -0.291,-0.131 -0.291,-0.291c-0,-0.541 0.127,-1.337 0.291,-2.139Z" style="fill:#5c70d0;"/><path d="M57.214,56.089c0,0 -1.041,2.597 -1.041,3.71c0,0.575 0.467,1.041 1.041,1.041c0.575,-0 1.041,-0.466 1.041,-1.041c0,-1.113 -1.041,-3.71 -1.041,-3.71Z" style="fill:#ebeded;"/><path d="M57.214,56.089c0,0 -1.041,2.597 -1.041,3.71c0,0.575 0.467,1.041 1.041,1.041c0.575,-0 1.041,-0.466 1.041,-1.041c0,-1.113 -1.041,-3.71 -1.041,-3.71Zm0,2.243c0.164,0.549 0.291,1.096 0.291,1.467c0,0.161 -0.13,0.291 -0.291,0.291c-0.16,-0 -0.291,-0.13 -0.291,-0.291c0,-0.371 0.128,-0.918 0.291,-1.467Z" style="fill:#5c70d0;"/><path d="M38.959,47c0,0 -1.041,2.597 -1.041,3.71c0,0.574 0.467,1.041 1.041,1.041c0.575,-0 1.041,-0.467 1.041,-1.041c0,-1.113 -1.041,-3.71 -1.041,-3.71Z" style="fill:#ebeded;"/><path d="M38.959,47c0,0 -1.041,2.597 -1.041,3.71c0,0.574 0.467,1.041 1.041,1.041c0.575,-0 1.041,-0.467 1.041,-1.041c0,-1.113 -1.041,-3.71 -1.041,-3.71Zm0,2.242c0.163,0.55 0.291,1.097 0.291,1.468c0,0.16 -0.13,0.291 -0.291,0.291c-0.161,-0 -0.291,-0.131 -0.291,-0.291c0,-0.371 0.128,-0.918 0.291,-1.468Z" style="fill:#5c70d0;"/><path d="M30.442,53.505c0,-0 -1.561,4.45 -1.561,6.357c-0,0.861 0.699,1.561 1.561,1.561c0.862,0 1.562,-0.7 1.562,-1.561c-0,-1.907 -1.562,-6.357 -1.562,-6.357Z" style="fill:#ebeded;"/><path d="M30.442,53.505c0,-0 -1.561,4.45 -1.561,6.357c-0,0.861 0.699,1.561 1.561,1.561c0.862,0 1.562,-0.7 1.562,-1.561c-0,-1.907 -1.562,-6.357 -1.562,-6.357Zm0,2.439c0.396,1.333 0.812,2.959 0.812,3.918c-0,0.447 -0.364,0.811 -0.812,0.811c-0.448,0 -0.811,-0.364 -0.811,-0.811c-0,-0.959 0.415,-2.585 0.811,-3.918Z" style="fill:#5c70d0;"/><path d="M34.221,49.156c0,-0 -1.561,4.449 -1.561,6.356c-0,0.862 0.7,1.562 1.561,1.562c0.862,-0 1.562,-0.7 1.562,-1.562c-0,-1.907 -1.562,-6.356 -1.562,-6.356Z" style="fill:#ebeded;"/><path d="M34.221,49.156c0,-0 -1.561,4.449 -1.561,6.356c-0,0.862 0.7,1.562 1.561,1.562c0.862,-0 1.562,-0.7 1.562,-1.562c-0,-1.907 -1.562,-6.356 -1.562,-6.356Zm0,2.439c0.397,1.333 0.812,2.959 0.812,3.917c-0,0.448 -0.364,0.812 -0.812,0.812c-0.448,-0 -0.811,-0.364 -0.811,-0.812c-0,-0.959 0.415,-2.584 0.811,-3.917Z" style="fill:#5c70d0;"/><path d="M72.564,48.42c-0,-0 -2.065,5.206 -2.065,7.437c0,1.139 0.925,2.064 2.065,2.064c1.139,0 2.064,-0.925 2.064,-2.064c0,-2.231 -2.064,-7.437 -2.064,-7.437Z" style="fill:#ebeded;"/><path d="M72.564,48.42c-0,-0 -2.065,5.206 -2.065,7.437c0,1.139 0.925,2.064 2.065,2.064c1.139,0 2.064,-0.925 2.064,-2.064c0,-2.231 -2.064,-7.437 -2.064,-7.437Zm-0,2.146c0.581,1.652 1.314,3.993 1.314,5.291c0,0.725 -0.589,1.314 -1.314,1.314c-0.726,0 -1.315,-0.589 -1.315,-1.314c0,-1.298 0.733,-3.639 1.315,-5.291Z" style="fill:#5c70d0;"/><path d="M46.177,56.29c-0,-0 -1.041,3.705 -1.041,5.293c-0,0.575 0.466,1.041 1.041,1.041c0.574,0 1.041,-0.466 1.041,-1.041c-0,-1.588 -1.041,-5.293 -1.041,-5.293Z" style="fill:#ebeded;"/><path d="M46.177,56.29c-0,-0 -1.041,3.705 -1.041,5.293c-0,0.575 0.466,1.041 1.041,1.041c0.574,0 1.041,-0.466 1.041,-1.041c-0,-1.588 -1.041,-5.293 -1.041,-5.293Zm-0,3.154c0.164,0.803 0.291,1.598 0.291,2.139c-0,0.161 -0.131,0.291 -0.291,0.291c-0.161,0 -0.291,-0.13 -0.291,-0.291c-0,-0.54 0.127,-1.336 0.291,-2.139Z" style="fill:#5c70d0;"/><path d="M15.169,53.77c-0,-0 -1.041,2.597 -1.041,3.71c0,0.574 0.466,1.04 1.041,1.04c0.574,0 1.041,-0.466 1.041,-1.04c-0,-1.113 -1.041,-3.71 -1.041,-3.71Z" style="fill:#ebeded;"/><path d="M15.169,53.77c-0,-0 -1.041,2.597 -1.041,3.71c0,0.574 0.466,1.04 1.041,1.04c0.574,0 1.041,-0.466 1.041,-1.04c-0,-1.113 -1.041,-3.71 -1.041,-3.71Zm-0,2.242c0.163,0.549 0.291,1.097 0.291,1.468c-0,0.16 -0.13,0.29 -0.291,0.29c-0.161,0 -0.291,-0.13 -0.291,-0.29c0,-0.371 0.128,-0.919 0.291,-1.468Z" style="fill:#5c70d0;"/><path d="M13.443,44.458c0,-0 1.03,3.713 1.03,5.305c-0,0.568 -0.461,1.029 -1.03,1.029c-0.568,0 -1.029,-0.461 -1.029,-1.029c0,-1.592 1.029,-5.305 1.029,-5.305Z" style="fill:#ebeded;"/><path d="M13.443,44.458c0,-0 1.03,3.713 1.03,5.305c-0,0.568 -0.461,1.029 -1.03,1.029c-0.568,0 -1.029,-0.461 -1.029,-1.029c0,-1.592 1.029,-5.305 1.029,-5.305Zm0,3.202c0.159,0.791 0.28,1.57 0.28,2.103c-0,0.154 -0.125,0.279 -0.28,0.279c-0.154,0 -0.279,-0.125 -0.279,-0.279c0,-0.533 0.121,-1.312 0.279,-2.103Z" style="fill:#5c70d0;"/><path d="M53.83,60.457c0,0 2.831,5.779 2.831,8.255c-0,1.562 -1.268,2.831 -2.831,2.831c-1.562,-0 -2.83,-1.269 -2.83,-2.831c0,-2.476 2.83,-8.255 2.83,-8.255Z" style="fill:#ebeded;"/><path d="M53.83,60.457c0,0 2.831,5.779 2.831,8.255c-0,1.562 -1.268,2.831 -2.831,2.831c-1.562,-0 -2.83,-1.269 -2.83,-2.831c0,-2.476 2.83,-8.255 2.83,-8.255Zm0,1.766c0.816,1.809 2.081,4.876 2.081,6.489c-0,1.148 -0.932,2.081 -2.081,2.081c-1.148,-0 -2.08,-0.933 -2.08,-2.081c0,-1.613 1.265,-4.68 2.08,-6.489Z" style="fill:#5c70d0;"/><path d="M39.398,60.252c-0,-0 -1.562,4.449 -1.562,6.356c0,0.862 0.7,1.562 1.562,1.562c0.862,-0 1.561,-0.7 1.561,-1.562c0,-1.907 -1.561,-6.356 -1.561,-6.356Z" style="fill:#ebeded;"/><path d="M39.398,60.252c-0,-0 -1.562,4.449 -1.562,6.356c0,0.862 0.7,1.562 1.562,1.562c0.862,-0 1.561,-0.7 1.561,-1.562c0,-1.907 -1.561,-6.356 -1.561,-6.356Zm-0,2.439c0.396,1.333 0.811,2.959 0.811,3.917c0,0.448 -0.363,0.812 -0.811,0.812c-0.448,-0 -0.812,-0.364 -0.812,-0.812c0,-0.958 0.416,-2.584 0.812,-3.917Z" style="fill:#5c70d0;"/><path d="M87.495,69.778l0.462,0.038l-0.106,0.821l0.368,0.235l-0.42,0.171l-0.088,0.686l-0.563,-0.046l0.79,1.368l-1.403,-0.585l0.086,0.439l-0.736,0.167l-0.148,0.48l-0.316,-0.374l-0.731,0.166l-0.088,-0.443l-1.066,1.151l0.205,-1.593l-0.491,0.284l-0.339,-0.588l-0.455,0.027l0.251,-0.38l-0.405,-0.7l0.405,-0.234l-1.33,-0.556l1.581,-0.359l-0.456,-0.399l0.527,-0.569l-0.118,-0.329l0.349,0.08l0.588,-0.635l0.409,0.357l0.188,-1.458l0.725,1.256l0.241,-0.51l0.775,0.323l0.286,-0.223l0.016,0.349l0.702,0.294l-0.266,0.562l1.576,-0.358l-1.005,1.085Zm-3.446,-0.196l0.288,0.5l-0.233,-0.02l-0.037,0.285l-0.175,0.071l0.153,0.098l-0.044,0.341l0.192,0.016l-0.417,0.451l0.654,-0.149l-0.11,0.234l0.292,0.122l0.006,0.145l0.119,-0.093l0.322,0.135l0.101,-0.212l0.235,0.407l-0.042,0.136l-0.137,-0.162l-0.386,0.088l-0.052,-0.262l-0.548,0.591l0.099,-0.771l-0.234,0.135l-0.191,-0.331l-0.225,0.013l0.124,-0.188l-0.191,-0.331l0.234,-0.135l-0.718,-0.3l0.787,-0.179l-0.202,-0.176l0.27,-0.29l-0.072,-0.2l0.138,0.031Zm0.673,1.136l-0.114,-0.01l0.021,-0.164l-0.072,-0.046l0.082,-0.034l0.021,-0.161l0.116,0.009l-0.159,-0.276l0.295,0.123l-0.021,-0.106l0.166,-0.037l0.026,-0.087l0.057,0.068l0.161,-0.037l0.021,0.109l0.228,-0.246l-0.041,0.321l0.097,-0.056l0.08,0.137l0.093,-0.005l-0.051,0.078l0.079,0.138l-0.097,0.056l0.298,0.124l-0.327,0.075l0.084,0.073l-0.112,0.121l0.03,0.083l-0.088,-0.02l-0.116,0.124l-0.081,-0.071l-0.041,0.318l-0.159,-0.277l-0.05,0.105l-0.15,-0.062l-0.071,0.054l-0.003,-0.085l-0.153,-0.064l0.048,-0.103l-0.322,0.073l0.225,-0.242Zm1.01,-1.506l-0.337,0.363l-0.036,-0.184l-0.304,0.069l-0.131,-0.155l-0.062,0.199l-0.306,0.07l0.036,0.182l-0.443,-0.185l0.251,-0.271l0.195,0.17l0.099,-0.764l0.384,0.666l0.12,-0.254l0.361,0.151l0.169,-0.131l0.004,0.074Zm0.036,2.295l0.048,0.244l-0.329,0.075l0.052,-0.404l0.17,0.148l0.059,-0.063Zm0.334,-0.362l0.374,0.649l-0.702,-0.294l0.179,-0.194l0.145,0.033l-0.049,-0.136l0.053,-0.058Zm0.513,-0.466l0.005,0.003l-0.199,0.08l-0.05,0.389l-0.254,-0.021l0.151,-0.164l-0.189,-0.165l0.536,-0.122Zm-0.812,-1.308l0.303,0.126l-0.104,0.221l-0.045,-0.077l-0.204,0.118l0.05,-0.388Zm0.451,0.784l0.243,0.02l-0.046,0.357l-0.268,-0.112l0.168,-0.097l-0.097,-0.168Zm0.509,-0.585l-0.522,0.563l-0.058,-0.101l0.104,-0.158l-0.189,0.011l-0.084,-0.145l0.749,-0.17Z" style="fill:#e7ebee;stroke:#1fa6a4;stroke-width:0.2px;"/><path d="M43.975,55.028l0.267,0.028l-0.051,0.482l0.215,0.144l-0.24,0.095l-0.043,0.404l-0.324,-0.034l0.472,0.817l-0.815,-0.363l0.055,0.26l-0.422,0.09l-0.079,0.281l-0.187,-0.225l-0.419,0.089l-0.056,-0.262l-0.599,0.666l0.098,-0.937l-0.279,0.161l-0.203,-0.351l-0.261,0.011l0.14,-0.221l-0.242,-0.419l0.231,-0.133l-0.773,-0.344l0.905,-0.192l-0.267,-0.241l0.296,-0.329l-0.072,-0.196l0.202,0.051l0.331,-0.367l0.24,0.216l0.09,-0.858l0.433,0.75l0.132,-0.298l0.451,0.2l0.162,-0.128l0.013,0.206l0.408,0.182l-0.146,0.329l0.902,-0.192l-0.565,0.628Zm-1.986,-0.159l0.172,0.299l-0.135,-0.015l-0.017,0.168l-0.1,0.04l0.089,0.059l-0.021,0.201l0.111,0.012l-0.235,0.261l0.375,-0.08l-0.061,0.136l0.17,0.076l0.006,0.086l0.067,-0.054l0.187,0.084l0.055,-0.124l0.141,0.243l-0.023,0.08l-0.08,-0.098l-0.222,0.048l-0.033,-0.156l-0.308,0.342l0.047,-0.453l-0.133,0.077l-0.114,-0.198l-0.129,0.005l0.069,-0.11l-0.114,-0.197l0.133,-0.077l-0.417,-0.186l0.45,-0.096l-0.117,-0.106l0.151,-0.168l-0.044,-0.119l0.08,0.02Zm0.401,0.678l-0.065,-0.006l0.01,-0.097l-0.042,-0.028l0.047,-0.019l0.01,-0.095l0.067,0.007l-0.096,-0.165l0.172,0.076l-0.013,-0.062l0.095,-0.021l0.014,-0.05l0.033,0.04l0.092,-0.019l0.014,0.064l0.128,-0.142l-0.02,0.189l0.056,-0.032l0.047,0.082l0.054,-0.002l-0.029,0.045l0.048,0.083l-0.056,0.031l0.174,0.078l-0.188,0.039l0.049,0.045l-0.063,0.069l0.019,0.05l-0.051,-0.013l-0.065,0.072l-0.048,-0.043l-0.019,0.187l-0.096,-0.165l-0.027,0.061l-0.087,-0.039l-0.04,0.032l-0.003,-0.051l-0.089,-0.039l0.027,-0.061l-0.185,0.04l0.126,-0.141Zm0.563,-0.875l-0.189,0.21l-0.023,-0.109l-0.174,0.037l-0.078,-0.093l-0.033,0.116l-0.175,0.038l0.023,0.108l-0.258,-0.115l0.142,-0.157l0.114,0.103l0.047,-0.45l0.23,0.398l0.066,-0.148l0.21,0.093l0.095,-0.075l0.003,0.044Zm0.049,1.354l0.031,0.144l-0.188,0.041l0.024,-0.238l0.1,0.09l0.033,-0.037Zm0.188,-0.209l0.224,0.387l-0.408,-0.182l0.101,-0.112l0.084,0.021l-0.03,-0.081l0.029,-0.033Zm0.29,-0.269l0.002,0.002l-0.113,0.045l-0.024,0.228l-0.147,-0.015l0.086,-0.095l-0.111,-0.1l0.307,-0.065Zm-0.484,-0.782l0.176,0.079l-0.057,0.128l-0.027,-0.045l-0.116,0.067l0.024,-0.229Zm0.27,0.469l0.14,0.014l-0.022,0.21l-0.156,-0.069l0.096,-0.055l-0.058,-0.1Zm0.285,-0.34l-0.293,0.326l-0.035,-0.06l0.058,-0.092l-0.108,0.004l-0.051,-0.086l0.429,-0.092Z" style="fill:#e7ebee;stroke:#1fa6a4;stroke-width:0.2px;"/><path d="M19.435,58.677l0.266,0.028l-0.05,0.482l0.214,0.144l-0.24,0.095l-0.042,0.404l-0.324,-0.034l0.471,0.817l-0.815,-0.363l0.056,0.26l-0.422,0.09l-0.08,0.281l-0.186,-0.225l-0.419,0.089l-0.056,-0.262l-0.6,0.666l0.099,-0.937l-0.279,0.161l-0.203,-0.351l-0.261,0.011l0.139,-0.221l-0.241,-0.419l0.23,-0.133l-0.773,-0.344l0.906,-0.192l-0.267,-0.241l0.296,-0.329l-0.072,-0.196l0.202,0.051l0.331,-0.367l0.239,0.216l0.091,-0.858l0.432,0.75l0.133,-0.298l0.45,0.2l0.162,-0.128l0.014,0.206l0.408,0.182l-0.147,0.329l0.903,-0.192l-0.565,0.628Zm-1.986,-0.159l0.172,0.299l-0.135,-0.015l-0.018,0.168l-0.099,0.04l0.089,0.059l-0.021,0.201l0.111,0.012l-0.235,0.261l0.375,-0.08l-0.061,0.136l0.17,0.076l0.005,0.086l0.068,-0.054l0.187,0.084l0.055,-0.124l0.14,0.243l-0.022,0.08l-0.081,-0.097l-0.221,0.047l-0.033,-0.156l-0.309,0.342l0.048,-0.453l-0.133,0.077l-0.114,-0.198l-0.129,0.005l0.069,-0.11l-0.115,-0.197l0.134,-0.077l-0.417,-0.186l0.45,-0.096l-0.118,-0.106l0.152,-0.168l-0.044,-0.119l0.08,0.02Zm0.401,0.678l-0.066,-0.006l0.01,-0.097l-0.042,-0.028l0.047,-0.019l0.01,-0.095l0.067,0.007l-0.095,-0.165l0.172,0.076l-0.014,-0.062l0.095,-0.02l0.014,-0.051l0.034,0.04l0.092,-0.019l0.014,0.064l0.128,-0.142l-0.02,0.189l0.055,-0.032l0.048,0.082l0.053,-0.002l-0.028,0.045l0.047,0.083l-0.055,0.032l0.173,0.077l-0.187,0.04l0.049,0.044l-0.063,0.07l0.018,0.049l-0.051,-0.013l-0.065,0.072l-0.047,-0.043l-0.02,0.187l-0.095,-0.165l-0.027,0.061l-0.088,-0.039l-0.039,0.032l-0.004,-0.051l-0.089,-0.039l0.027,-0.061l-0.184,0.04l0.126,-0.141Zm0.563,-0.875l-0.189,0.21l-0.024,-0.109l-0.174,0.037l-0.077,-0.093l-0.033,0.116l-0.175,0.038l0.023,0.108l-0.258,-0.115l0.141,-0.157l0.115,0.103l0.047,-0.45l0.229,0.398l0.066,-0.148l0.21,0.093l0.096,-0.075l0.003,0.044Zm0.049,1.354l0.03,0.145l-0.188,0.04l0.025,-0.238l0.1,0.09l0.033,-0.037Zm0.188,-0.209l0.223,0.387l-0.408,-0.182l0.101,-0.112l0.084,0.021l-0.03,-0.081l0.03,-0.033Zm0.289,-0.269l0.003,0.002l-0.113,0.045l-0.024,0.228l-0.147,-0.015l0.085,-0.095l-0.111,-0.1l0.307,-0.065Zm-0.483,-0.781l0.176,0.078l-0.058,0.128l-0.026,-0.045l-0.116,0.067l0.024,-0.228Zm0.269,0.468l0.14,0.014l-0.022,0.211l-0.156,-0.07l0.096,-0.055l-0.058,-0.1Zm0.286,-0.34l-0.293,0.326l-0.035,-0.06l0.058,-0.092l-0.109,0.004l-0.05,-0.086l0.429,-0.092Z" style="fill:#e7ebee;stroke:#1fa6a4;stroke-width:0.2px;"/><path d="M63.899,66.115l-0.258,0.071l-0.129,-0.467l-0.253,-0.055l0.189,-0.177l-0.108,-0.391l0.314,-0.087l-0.738,-0.588l0.892,0.04l-0.147,-0.222l0.36,-0.238l-0.029,-0.291l0.256,0.141l0.357,-0.236l0.148,0.224l0.315,-0.839l0.251,0.908l0.201,-0.252l0.316,0.253l0.24,-0.105l-0.049,0.256l0.377,0.301l-0.165,0.208l0.845,0.038l-0.773,0.51l0.337,0.127l-0.156,0.415l0.139,0.155l-0.207,0.026l-0.173,0.463l-0.302,-0.113l0.229,0.831l-0.676,-0.539l-0.015,0.325l-0.492,-0.021l-0.104,0.178l-0.088,-0.187l-0.446,-0.02l0.016,-0.359l-0.77,0.508l0.296,-0.791Zm1.907,-0.579l-0.27,-0.214l0.131,-0.036l-0.045,-0.163l0.078,-0.073l-0.104,-0.023l-0.054,-0.195l-0.108,0.03l0.124,-0.329l-0.32,0.212l0.006,-0.15l-0.185,-0.008l-0.036,-0.078l-0.044,0.075l-0.204,-0.01l-0.006,0.136l-0.22,-0.175l-0.008,-0.082l0.11,0.06l0.189,-0.124l0.088,0.132l0.162,-0.431l0.121,0.44l0.096,-0.12l0.179,0.142l0.118,-0.052l-0.024,0.127l0.178,0.142l-0.096,0.121l0.456,0.02l-0.384,0.254l0.149,0.056l-0.08,0.212l0.084,0.094l-0.081,0.01Zm-0.622,-0.484l0.064,-0.018l0.026,0.094l0.049,0.011l-0.037,0.035l0.026,0.092l-0.065,0.018l0.149,0.118l-0.188,-0.008l0.036,0.053l-0.081,0.054l0.005,0.052l-0.046,-0.025l-0.079,0.052l-0.036,-0.056l-0.067,0.18l-0.051,-0.183l-0.039,0.05l-0.075,-0.059l-0.049,0.021l0.01,-0.052l-0.074,-0.06l0.04,-0.05l-0.19,-0.008l0.16,-0.106l-0.062,-0.023l0.033,-0.088l-0.035,-0.039l0.052,-0.007l0.034,-0.09l0.06,0.022l-0.05,-0.181l0.149,0.119l0.003,-0.067l0.096,0.004l0.025,-0.044l0.022,0.046l0.097,0.004l-0.003,0.066l0.158,-0.104l-0.067,0.177Zm-0.203,1.021l0.099,-0.265l0.061,0.093l0.149,-0.098l0.106,0.058l-0.012,-0.12l0.15,-0.099l-0.061,-0.092l0.281,0.012l-0.074,0.198l-0.144,-0.054l0.12,0.436l-0.359,-0.286l-0.007,0.162l-0.229,-0.011l-0.062,0.106l-0.018,-0.04Zm-0.541,-1.243l-0.081,-0.123l0.16,-0.106l0.064,0.23l-0.126,-0.047l-0.017,0.046Zm-0.099,0.264l-0.349,-0.279l0.446,0.02l-0.053,0.141l-0.086,0.011l0.058,0.065l-0.016,0.042Zm-0.171,0.356l-0.003,-0.001l0.089,-0.083l-0.061,-0.222l0.142,-0.039l-0.045,0.119l0.14,0.053l-0.262,0.173Zm0.736,0.55l-0.192,-0.008l0.006,-0.141l0.041,0.033l0.084,-0.105l0.061,0.221Zm-0.422,-0.337l-0.136,0.038l-0.056,-0.204l0.17,0.008l-0.069,0.086l0.091,0.072Zm-0.142,0.42l0.154,-0.41l0.054,0.043l-0.02,0.107l0.099,-0.044l0.079,0.063l-0.366,0.241Z" style="fill:#e7ebee;stroke:#1fa6a4;stroke-width:0.2px;"/><path d="M27.719,54.847l0.098,0.25l-0.452,0.177l-0.029,0.256l-0.195,-0.169l-0.378,0.148l-0.119,-0.304l-0.508,0.795l-0.053,-0.891l-0.205,0.169l-0.274,-0.334l-0.286,0.059l0.114,-0.269l-0.272,-0.331l0.207,-0.17l-0.867,-0.226l0.878,-0.344l-0.272,-0.174l0.218,-0.341l-0.129,-0.227l0.26,0.022l0.261,-0.406l0.224,0.143l-0.05,-0.845l0.587,0.716l0.091,-0.348l0.429,0.112l0.141,-0.154l0.047,0.203l0.478,0.125l-0.081,0.312l0.803,-0.315l-0.467,0.729l0.326,-0.019l0.029,0.492l0.188,0.085l-0.177,0.107l0.026,0.446l-0.359,0.021l0.586,0.713l-0.818,-0.213Zm-0.773,-1.836l-0.185,0.29l-0.05,-0.127l-0.157,0.062l-0.081,-0.07l-0.012,0.106l-0.187,0.074l0.04,0.104l-0.34,-0.089l0.244,0.296l-0.149,0.009l0.01,0.185l-0.073,0.045l0.078,0.035l0.012,0.205l0.136,-0.008l-0.152,0.236l-0.081,0.017l0.049,-0.117l-0.143,-0.175l0.123,-0.1l-0.446,-0.117l0.425,-0.166l-0.13,-0.083l0.124,-0.192l-0.064,-0.113l0.128,0.011l0.124,-0.192l0.129,0.083l-0.027,-0.456l0.292,0.356l0.04,-0.153l0.219,0.057l0.086,-0.094l0.018,0.081Zm-0.417,0.668l-0.024,-0.062l0.09,-0.035l0.006,-0.05l0.038,0.033l0.089,-0.035l0.025,0.062l0.103,-0.16l0.011,0.187l0.049,-0.04l0.062,0.075l0.051,-0.011l-0.02,0.049l0.059,0.072l-0.051,0.042l0.185,0.049l-0.176,0.069l0.054,0.034l-0.052,0.08l0.027,0.047l-0.053,-0.005l-0.052,0.08l-0.054,-0.034l0.012,0.189l-0.122,-0.148l-0.016,0.064l-0.091,-0.024l-0.036,0.039l-0.012,-0.051l-0.094,-0.025l0.017,-0.062l-0.175,0.069l0.102,-0.161l-0.067,0.004l-0.005,-0.095l-0.046,-0.021l0.043,-0.026l-0.006,-0.097l0.066,-0.004l-0.12,-0.146l0.183,0.048Zm1.036,0.097l-0.273,-0.071l0.086,-0.071l-0.113,-0.138l0.047,-0.112l-0.119,0.025l-0.113,-0.139l-0.086,0.071l-0.016,-0.282l0.204,0.053l-0.039,0.149l0.421,-0.165l-0.247,0.387l0.161,-0.009l0.014,0.229l0.111,0.05l-0.038,0.023Zm-1.18,0.666l-0.114,0.094l-0.122,-0.149l0.222,-0.087l-0.033,0.13l0.047,0.012Zm0.272,0.071l-0.24,0.376l-0.027,-0.446l0.146,0.038l0.02,0.085l0.058,-0.064l0.043,0.011Zm0.373,0.133l-0.001,0.004l-0.092,-0.08l-0.214,0.084l-0.054,-0.138l0.124,0.032l0.037,-0.144l0.2,0.242Zm0.471,-0.788l0.011,0.192l-0.14,0.008l0.028,-0.044l-0.113,-0.073l0.214,-0.083Zm-0.292,0.454l0.052,0.131l-0.197,0.077l-0.01,-0.17l0.093,0.06l0.062,-0.098Zm0.433,0.098l-0.424,-0.111l0.037,-0.058l0.108,0.009l-0.053,-0.095l0.054,-0.084l0.278,0.339Z" style="fill:#e7ebee;stroke:#1fa6a4;stroke-width:0.2px;"/><path d="M11.9,55.899l-0.495,0.161l-0.264,-0.728l-0.399,-0.067l0.271,-0.285l-0.259,-0.715l0.504,-0.164l-1.258,-0.882l1.495,-0l-0.313,-0.407l0.61,-0.449l-0.074,-0.409l0.381,0.183l0.591,-0.436l0.323,0.421l0.422,-1.433l0.515,1.419l0.285,-0.407l0.627,0.439l0.377,-0.187l-0.047,0.418l0.626,0.439l-0.286,0.408l1.51,-0.001l-1.202,0.886l0.505,0.16l-0.208,0.704l0.302,0.296l-0.41,0.07l-0.214,0.726l-0.489,-0.155l0.51,1.406l-1.258,-0.882l0.018,0.529l-0.76,0l-0.176,0.353l-0.2,-0.353l-0.774,0.001l-0.018,-0.519l-1.184,0.872l0.416,-1.412Zm2.233,-2.868l0.675,-0.498l-0.237,0.805l-0.095,-0.067l0.028,-0.223l-0.2,0.103l-0.171,-0.12Zm0.876,0.682l-0.361,0.006l0.154,-0.219l-0.188,-0.132l0.241,-0.079l0.154,0.424Zm-1.321,-0.966l0.394,-0l0.008,0.254l-0.112,-0.079l-0.154,0.219l-0.136,-0.394Zm-1.823,1.015l0.197,-0.034l0.129,-0.438l0.295,0.094l-0.308,-0.85l0.761,0.533l-0.011,-0.32l0.459,0l0.106,-0.213l0.018,0.032l-0.18,0.59l-0.166,-0.221l-0.315,0.236l-0.199,-0.094l0.036,0.217l-0.325,0.243l0.162,0.214l-0.659,0.011Zm2.268,0.054l0.159,-0.054l0.08,0.233l0.127,0.019l-0.088,0.093l0.079,0.229l-0.161,0.055l0.396,0.278l-0.476,0.007l0.098,0.129l-0.196,0.147l0.021,0.132l-0.12,-0.057l-0.19,0.143l-0.101,-0.134l-0.141,0.463l-0.157,-0.454l-0.092,0.132l-0.198,-0.138l-0.12,0.062l0.017,-0.135l-0.197,-0.138l0.092,-0.132l-0.48,0.007l0.387,-0.29l-0.16,-0.049l0.07,-0.228l-0.095,-0.094l0.131,-0.024l0.071,-0.234l0.155,0.047l-0.155,-0.449l0.395,0.277l-0.003,-0.17l0.242,-0.004l0.058,-0.114l0.061,0.112l0.247,-0.003l0.003,0.166l0.381,-0.286l-0.14,0.456Zm1.116,0.558l-0.237,0.077l0.055,-0.183l-0.264,-0.081l0.297,-0.223l0.149,0.41Zm0.455,0.632l-0.862,-0l0.051,-0.166l0.216,-0.04l-0.156,-0.155l0.041,-0.137l0.71,0.498Zm-0.714,0.246l-0.348,0.256l-0.124,-0.359l0.256,0.079l0.057,-0.184l0.159,0.208Zm-1.067,0.467l0.202,-0.003l-0.005,-0.282l0.333,0.234l-0.017,-0.008l-0.357,0.263l-0.156,-0.204Zm-1.94,-1.783l0.409,0.287l-0.267,0.091l0.131,0.378l-0.145,0.154l0.209,0.033l0.134,0.385l0.261,-0.089l-0.173,0.565l0.026,-0.222l-0.379,-0.265l0.173,-0.246l-0.913,-0l0.727,-0.535l-0.305,-0.097l0.125,-0.425l-0.013,-0.014Zm1.886,1.784l-0.24,0.814l-0.293,-0.806l0.192,-0.003l0.102,0.186l0.096,-0.189l0.143,-0.002Zm-0.723,0.203l-0.338,-0.237l0.307,-0.231l0.005,0.276l0.162,-0.002l-0.136,0.194Z" style="fill:#e7ebee;stroke:#1fa6a4;stroke-width:0.2px;"/><path d="M59.694,52.154l0.522,-0.423l0.586,0.724l0.66,-0.132l-0.266,0.619l0.671,0.828l-0.446,0.361l1.923,0.515l-2.062,0.791l0.696,0.452l-0.521,0.803l0.259,0.461l-0.527,-0.049l-0.64,0.985l-0.563,-0.365l0.102,1.936l-1.305,-1.611l-0.215,0.801l-1.069,-0.287l-0.299,0.323l-0.097,-0.428l-1.069,-0.287l0.215,-0.801l-1.936,0.743l1.056,-1.627l-0.671,0.036l-0.061,-1.173l-0.481,-0.221l0.455,-0.271l-0.05,-0.955l0.828,-0.044l-1.389,-1.716l1.923,0.516l-0.206,-0.536l0.995,-0.382l0.079,-0.669l0.506,0.444l0.869,-0.333l0.241,0.627l1.174,-1.809l0.113,2.154Zm-1.558,4.758l-0.693,1.067l-0.066,-1.271l0.236,0.063l0.07,0.312l0.217,-0.235l0.236,0.064Zm-1.816,-0.331l0.845,-0.324l-0.098,0.368l0.292,0.078l-0.296,0.24l-0.35,-0.434l-0.396,0.079l0.003,-0.007Zm2.795,0.749l-0.001,0.008l-0.303,-0.266l-0.52,0.199l-0.137,-0.355l0.293,0.079l0.099,-0.368l0.569,0.703Zm-1.31,-1.455l-0.184,0.15l-0.221,-0.272l-0.178,0.035l0.072,-0.167l-0.217,-0.267l0.188,-0.153l-0.662,-0.177l0.631,-0.243l-0.193,-0.125l0.19,-0.293l-0.093,-0.165l0.188,0.018l0.185,-0.284l0.199,0.129l-0.036,-0.688l0.429,0.531l0.06,-0.222l0.33,0.088l0.131,-0.142l0.043,0.189l0.33,0.088l-0.06,0.222l0.638,-0.244l-0.375,0.577l0.237,-0.012l0.017,0.338l0.172,0.079l-0.163,0.097l0.019,0.348l-0.23,0.012l0.426,0.526l-0.663,-0.178l0.086,0.226l-0.32,0.123l-0.022,0.181l-0.137,-0.12l-0.327,0.125l-0.085,-0.221l-0.369,0.569l-0.036,-0.678Zm-1.73,-0.153l0.253,-0.205l0.011,0.21l0.392,-0.021l-0.298,0.459l-0.358,-0.443Zm3.565,0.683l0.117,0.304l-0.532,0.204l-0.029,-0.547l0.33,0.215l0.114,-0.176Zm-4.449,-1.207l1.098,-0.422l0.006,0.1l-0.27,0.16l0.285,0.131l0.017,0.335l-1.136,-0.304Zm4.853,0.585l0.74,0.913l-1.135,-0.304l0.183,-0.281l0.311,0.028l-0.153,-0.272l0.054,-0.084Zm-3.871,-2.085l0.471,0.582l-0.38,0.02l0.018,0.331l-0.273,-0.177l0.312,-0.481l-0.155,-0.276l0.007,0.001Zm4.511,1.208l0.007,0.003l-0.273,0.162l0.03,0.572l-0.324,0.017l0.181,-0.278l-0.32,-0.207l0.699,-0.269Zm-4.108,-1.326l0.288,-0.443l0.198,0.128l-0.168,0.065l0.144,0.374l-0.462,-0.124Zm3.555,0.507l0.235,-0.012l0.028,0.528l-0.461,-0.123l0.311,-0.252l-0.113,-0.141Zm-2.937,-0.872l-0.054,-1.019l0.642,0.793l-0.095,0.037l-0.227,-0.2l-0.035,0.3l-0.231,0.089Zm2.451,0.273l0.952,-0.365l-0.555,0.855l-0.156,-0.193l0.119,-0.277l-0.296,0.059l-0.064,-0.079Zm-0.628,-0.548l0.55,0.148l-0.061,0.228l-0.161,-0.199l-0.306,0.248l-0.022,-0.425Zm-0.967,-0.259l0.55,0.148l-0.231,0.355l-0.141,-0.366l-0.239,0.092l0.061,-0.229Z" style="fill:#e7ebee;stroke:#1fa6a4;stroke-width:0.2px;"/><path d="M22.565,69.468l-0.01,-0.749l1.024,0.029l0.336,-0.655l0.353,0.675l1.172,0.033l0.009,0.64l1.753,-1.254l-0.719,2.32l0.864,-0.262l0.338,1.024l0.575,0.116l-0.4,0.411l0.415,1.257l-0.699,0.211l1.742,1.32l-2.28,-0.065l0.546,0.764l-0.975,0.697l0.076,0.487l-0.436,-0.229l-0.975,0.698l-0.546,-0.764l-0.675,2.179l-0.687,-2.075l-0.426,0.593l-1.055,-0.799l-0.518,0.246l0.076,-0.581l-0.86,-0.651l0.527,-0.733l-2.428,-0.069l1.753,-1.254l-0.603,-0.215l0.347,-1.12l-0.524,-0.552l0.728,-0.106l0.303,-0.979l0.706,0.252l-0.764,-2.308l1.937,1.468Zm3.051,4.773l0.451,1.361l-1.143,-0.866l0.215,-0.154l0.317,0.167l-0.055,-0.354l0.215,-0.154Zm-1.521,1.298l0.295,-0.951l0.251,0.351l0.266,-0.191l0.006,0.424l-0.613,-0.017l-0.201,0.392l-0.004,-0.008Zm2.548,-1.823l0.006,0.006l-0.436,0.064l-0.181,0.586l-0.399,-0.143l0.266,-0.191l-0.25,-0.35l0.994,0.028Zm-2.148,0.053l0.004,0.265l-0.385,-0.011l-0.091,0.177l-0.095,-0.182l-0.378,-0.011l-0.004,-0.27l-0.604,0.432l0.22,-0.71l-0.24,0.072l-0.124,-0.373l-0.205,-0.041l0.143,-0.147l-0.12,-0.362l0.248,-0.075l-0.619,-0.469l0.75,0.021l-0.151,-0.211l0.301,-0.216l-0.034,-0.214l0.192,0.101l0.301,-0.215l0.152,0.211l0.222,-0.717l0.244,0.737l0.15,-0.21l0.304,0.231l0.186,-0.088l-0.027,0.208l0.313,0.237l-0.146,0.203l0.744,0.021l-0.605,0.433l0.254,0.09l-0.112,0.361l0.142,0.15l-0.197,0.029l-0.114,0.368l-0.249,-0.089l0.24,0.726l-0.61,-0.462Zm-1.309,1.354l-0.004,-0.363l0.188,0.143l0.249,-0.347l0.193,0.585l-0.626,-0.018Zm3.016,-2.523l0.341,0.122l-0.185,0.598l-0.492,-0.373l0.41,-0.123l-0.074,-0.224Zm-4.07,2.891l0.383,-1.236l0.09,0.068l-0.045,0.344l0.306,-0.146l0.302,0.229l-1.036,0.741Zm3.807,-3.685l1.293,0.036l-1.036,0.741l-0.119,-0.359l0.237,-0.243l-0.34,-0.068l-0.035,-0.107Zm-4.435,1.764l0.823,0.024l-0.241,0.336l0.298,0.226l-0.339,0.102l-0.203,-0.613l-0.344,-0.069l0.006,-0.006Zm4.113,-2.942l0.007,-0.003l-0.045,0.347l0.514,0.39l-0.206,0.287l-0.117,-0.355l-0.397,0.12l0.244,-0.786Zm-3.941,2.516l-0.187,-0.566l0.246,-0.074l-0.058,0.189l0.421,0.15l-0.422,0.301Zm2.857,-2.642l0.15,-0.209l0.475,0.361l-0.421,0.3l-0.006,-0.446l-0.198,-0.006Zm-2.752,1.854l-0.916,-0.694l1.121,0.031l-0.033,0.107l-0.326,0.048l0.235,0.248l-0.081,0.26Zm1.904,-1.878l0.332,-1.071l0.361,1.091l-0.273,-0.008l-0.158,-0.302l-0.15,0.293l-0.112,-0.003Zm-0.901,0.135l0.502,-0.359l0.155,0.217l-0.281,-0.008l0.006,0.439l-0.382,-0.289Zm-0.881,0.63l0.501,-0.359l0.15,0.454l-0.412,-0.147l-0.084,0.27l-0.155,-0.218Z" style="fill:#e7ebee;stroke:#1fa6a4;stroke-width:0.2px;"/><path d="M15.923,48.491l-0.195,0.021l0.045,0.44l-0.155,0.127l0.177,0.091l0.037,0.368l0.236,-0.024l-0.332,0.734l0.59,-0.314l-0.036,0.236l0.31,0.09l0.062,0.257l0.133,-0.201l0.307,0.089l0.037,-0.237l0.448,0.618l-0.086,-0.855l0.207,0.152l0.142,-0.316l0.191,0.015l-0.105,-0.204l0.17,-0.376l-0.17,-0.126l0.559,-0.298l-0.664,-0.193l0.191,-0.214l-0.221,-0.305l0.049,-0.177l-0.146,0.043l-0.248,-0.341l-0.172,0.192l-0.079,-0.783l-0.304,0.674l-0.102,-0.274l-0.326,0.174l-0.12,-0.12l-0.007,0.188l-0.295,0.157l0.112,0.302l-0.663,-0.192l0.423,0.582Zm1.449,-0.105l-0.122,0.268l0.099,-0.01l0.015,0.153l0.074,0.038l-0.065,0.053l0.019,0.183l-0.081,0.008l0.176,0.242l-0.276,-0.08l0.047,0.126l-0.123,0.065l-0.003,0.078l-0.05,-0.05l-0.135,0.073l-0.042,-0.114l-0.099,0.219l0.017,0.072l0.058,-0.087l0.162,0.048l0.022,-0.141l0.231,0.317l-0.042,-0.414l0.098,0.073l0.081,-0.178l0.094,0.007l-0.052,-0.101l0.081,-0.178l-0.099,-0.072l0.302,-0.161l-0.331,-0.096l0.085,-0.094l-0.113,-0.157l0.03,-0.107l-0.058,0.017Zm-0.283,0.61l0.048,-0.005l-0.009,-0.089l0.03,-0.024l-0.035,-0.018l-0.008,-0.087l-0.049,0.005l0.067,-0.148l-0.124,0.066l0.009,-0.057l-0.07,-0.02l-0.011,-0.046l-0.024,0.036l-0.068,-0.02l-0.009,0.059l-0.096,-0.132l0.018,0.172l-0.041,-0.031l-0.034,0.074l-0.039,-0.003l0.022,0.042l-0.034,0.074l0.041,0.03l-0.125,0.067l0.137,0.04l-0.035,0.039l0.047,0.065l-0.012,0.045l0.037,-0.011l0.048,0.067l0.034,-0.038l0.018,0.17l0.067,-0.148l0.021,0.056l0.063,-0.033l0.029,0.029l0.002,-0.046l0.064,-0.034l-0.02,-0.056l0.135,0.04l-0.094,-0.13Zm-0.425,-0.808l0.142,0.194l0.015,-0.098l0.128,0.037l0.055,-0.084l0.026,0.107l0.128,0.038l-0.015,0.098l0.187,-0.1l-0.106,-0.146l-0.082,0.092l-0.041,-0.41l-0.162,0.357l-0.05,-0.136l-0.152,0.081l-0.071,-0.071l-0.002,0.041Zm-0.015,1.231l-0.02,0.131l0.138,0.04l-0.022,-0.216l-0.071,0.079l-0.025,-0.034Zm-0.141,-0.194l-0.157,0.348l0.295,-0.157l-0.075,-0.104l-0.061,0.017l0.021,-0.073l-0.023,-0.031Zm-0.215,-0.25l-0.002,0.001l0.083,0.044l0.021,0.208l0.107,-0.011l-0.064,-0.088l0.08,-0.089l-0.225,-0.065Zm0.341,-0.702l-0.127,0.068l0.044,0.118l0.018,-0.041l0.086,0.063l-0.021,-0.208Zm-0.19,0.421l-0.102,0.01l0.02,0.192l0.112,-0.06l-0.07,-0.052l0.04,-0.09Zm-0.214,-0.315l0.22,0.303l0.024,-0.054l-0.044,-0.085l0.08,0.006l0.035,-0.078l-0.315,-0.092Z" style="fill:#e7ebee;stroke:#1fa6a4;stroke-width:0.2px;"/><path d="M34.013,47.602l-0.242,0.028l0.046,0.483l-0.195,0.143l0.218,0.096l0.039,0.403l0.294,-0.034l-0.428,0.817l0.74,-0.363l-0.05,0.261l0.383,0.089l0.072,0.281l0.17,-0.224l0.38,0.089l0.051,-0.262l0.544,0.666l-0.089,-0.938l0.253,0.162l0.184,-0.351l0.238,0.01l-0.127,-0.221l0.219,-0.418l-0.209,-0.133l0.702,-0.344l-0.823,-0.193l0.243,-0.241l-0.269,-0.329l0.066,-0.195l-0.184,0.051l-0.3,-0.367l-0.218,0.215l-0.082,-0.858l-0.393,0.75l-0.12,-0.298l-0.409,0.201l-0.147,-0.128l-0.013,0.206l-0.37,0.181l0.133,0.329l-0.82,-0.192l0.513,0.628Zm1.804,-0.158l-0.156,0.298l0.122,-0.014l0.016,0.168l0.091,0.039l-0.081,0.06l0.019,0.201l-0.101,0.011l0.213,0.261l-0.34,-0.08l0.055,0.137l-0.154,0.075l-0.005,0.086l-0.061,-0.053l-0.17,0.083l-0.05,-0.124l-0.128,0.244l0.021,0.079l0.073,-0.097l0.201,0.047l0.03,-0.155l0.28,0.342l-0.043,-0.454l0.12,0.077l0.104,-0.198l0.118,0.005l-0.063,-0.109l0.104,-0.198l-0.121,-0.077l0.378,-0.185l-0.409,-0.096l0.107,-0.106l-0.137,-0.169l0.04,-0.118l-0.073,0.02Zm-0.364,0.678l0.059,-0.007l-0.009,-0.097l0.038,-0.028l-0.043,-0.019l-0.009,-0.095l-0.06,0.007l0.086,-0.165l-0.156,0.077l0.012,-0.063l-0.086,-0.02l-0.013,-0.05l-0.03,0.04l-0.084,-0.02l-0.012,0.065l-0.116,-0.142l0.018,0.188l-0.051,-0.032l-0.043,0.083l-0.049,-0.003l0.026,0.046l-0.043,0.082l0.051,0.032l-0.158,0.077l0.17,0.04l-0.044,0.044l0.057,0.07l-0.017,0.049l0.047,-0.013l0.059,0.072l0.043,-0.042l0.018,0.187l0.086,-0.166l0.025,0.062l0.079,-0.039l0.036,0.031l0.003,-0.05l0.081,-0.04l-0.024,-0.06l0.167,0.039l-0.114,-0.14Zm-0.512,-0.876l0.172,0.21l0.021,-0.109l0.158,0.037l0.071,-0.093l0.03,0.117l0.159,0.037l-0.021,0.108l0.234,-0.114l-0.129,-0.157l-0.103,0.102l-0.043,-0.449l-0.209,0.397l-0.059,-0.148l-0.191,0.094l-0.087,-0.076l-0.003,0.044Zm-0.044,1.355l-0.028,0.144l0.171,0.04l-0.023,-0.238l-0.09,0.09l-0.03,-0.036Zm-0.171,-0.21l-0.203,0.387l0.371,-0.181l-0.092,-0.113l-0.076,0.022l0.027,-0.081l-0.027,-0.034Zm-0.263,-0.269l-0.002,0.002l0.102,0.045l0.022,0.229l0.134,-0.016l-0.078,-0.094l0.101,-0.1l-0.279,-0.066Zm0.439,-0.781l-0.159,0.078l0.052,0.129l0.024,-0.046l0.105,0.067l-0.022,-0.228Zm-0.244,0.468l-0.128,0.015l0.021,0.21l0.141,-0.069l-0.087,-0.056l0.053,-0.1Zm-0.26,-0.339l0.267,0.326l0.031,-0.06l-0.052,-0.092l0.098,0.004l0.046,-0.087l-0.39,-0.091Z" style="fill:#e7ebee;stroke:#1fa6a4;stroke-width:0.2px;"/><path d="M76.013,50.677l-0.242,0.028l0.046,0.482l-0.195,0.144l0.218,0.095l0.039,0.404l0.294,-0.034l-0.428,0.817l0.74,-0.363l-0.05,0.26l0.383,0.09l0.072,0.281l0.17,-0.225l0.38,0.089l0.051,-0.262l0.544,0.666l-0.089,-0.937l0.253,0.161l0.184,-0.351l0.238,0.011l-0.127,-0.221l0.219,-0.419l-0.209,-0.133l0.702,-0.344l-0.823,-0.192l0.243,-0.241l-0.269,-0.329l0.066,-0.196l-0.184,0.051l-0.3,-0.367l-0.218,0.216l-0.082,-0.858l-0.393,0.75l-0.12,-0.298l-0.409,0.2l-0.147,-0.128l-0.013,0.206l-0.37,0.182l0.133,0.329l-0.82,-0.192l0.513,0.628Zm1.804,-0.159l-0.156,0.299l0.122,-0.015l0.016,0.168l0.091,0.04l-0.081,0.059l0.019,0.201l-0.101,0.012l0.213,0.261l-0.34,-0.08l0.055,0.136l-0.154,0.076l-0.005,0.086l-0.061,-0.054l-0.17,0.084l-0.05,-0.124l-0.128,0.243l0.021,0.08l0.073,-0.097l0.201,0.047l0.03,-0.156l0.28,0.342l-0.043,-0.453l0.12,0.077l0.104,-0.198l0.118,0.005l-0.063,-0.11l0.104,-0.197l-0.121,-0.077l0.378,-0.186l-0.409,-0.096l0.107,-0.106l-0.137,-0.168l0.04,-0.119l-0.073,0.02Zm-0.364,0.678l0.059,-0.006l-0.009,-0.097l0.038,-0.028l-0.043,-0.019l-0.009,-0.095l-0.06,0.007l0.086,-0.165l-0.156,0.076l0.012,-0.062l-0.086,-0.02l-0.013,-0.051l-0.03,0.04l-0.084,-0.019l-0.012,0.064l-0.116,-0.142l0.018,0.189l-0.051,-0.032l-0.043,0.082l-0.049,-0.002l0.026,0.045l-0.043,0.083l0.051,0.032l-0.158,0.077l0.17,0.04l-0.044,0.044l0.057,0.07l-0.017,0.049l0.047,-0.013l0.059,0.072l0.043,-0.043l0.018,0.187l0.086,-0.165l0.025,0.061l0.079,-0.039l0.036,0.032l0.003,-0.051l0.081,-0.039l-0.024,-0.061l0.167,0.04l-0.114,-0.141Zm-0.512,-0.875l0.172,0.21l0.021,-0.109l0.158,0.037l0.071,-0.093l0.03,0.116l0.159,0.038l-0.021,0.108l0.234,-0.115l-0.129,-0.157l-0.103,0.103l-0.043,-0.45l-0.209,0.398l-0.059,-0.148l-0.191,0.093l-0.087,-0.075l-0.003,0.044Zm-0.044,1.354l-0.028,0.145l0.171,0.04l-0.023,-0.238l-0.09,0.09l-0.03,-0.037Zm-0.171,-0.209l-0.203,0.387l0.371,-0.182l-0.092,-0.112l-0.076,0.021l0.027,-0.081l-0.027,-0.033Zm-0.263,-0.269l-0.002,0.002l0.102,0.045l0.022,0.228l0.134,-0.015l-0.078,-0.095l0.101,-0.1l-0.279,-0.065Zm0.439,-0.781l-0.159,0.078l0.052,0.128l0.024,-0.045l0.105,0.067l-0.022,-0.228Zm-0.244,0.468l-0.128,0.014l0.021,0.211l0.141,-0.07l-0.087,-0.055l0.053,-0.1Zm-0.26,-0.34l0.267,0.326l0.031,-0.06l-0.052,-0.092l0.098,0.004l0.046,-0.086l-0.39,-0.092Z" style="fill:#e7ebee;stroke:#1fa6a4;stroke-width:0.2px;"/><path d="M69.059,49.251l0.091,0.458l0.452,-0.307l0.171,0.236l0.048,-0.385l0.444,-0.301l-0.093,-0.466l0.871,0.289l-0.516,-1.053l0.309,-0.055l0.012,-0.733l0.228,-0.225l-0.222,-0.145l0.011,-0.711l-0.32,0.057l0.564,-1.267l-0.88,0.598l0.103,-0.476l-0.435,-0.145l-0.037,-0.392l-0.191,0.317l-0.434,-0.144l-0.103,0.476l-0.521,-1.064l-0.024,1.447l-0.253,-0.247l-0.277,0.623l-0.252,-0.013l0.107,0.337l-0.285,0.641l0.246,0.24l-0.873,0.592l0.872,0.29l-0.269,0.345l0.263,0.536l-0.114,0.363l0.244,-0.099l0.267,0.546l0.263,-0.339l-0.023,1.425l0.556,-1.249Zm0.649,-3.514l0.013,-0.813l-0.316,0.712l0.066,0.022l0.1,-0.171l0.019,0.21l0.118,0.04Zm-0.64,-0.156l0.121,0.258l0.056,-0.256l0.13,0.043l-0.044,-0.223l-0.263,0.178Zm0.934,0.277l-0.135,-0.278l-0.129,0.166l0.078,0.026l-0.056,0.256l0.242,-0.17Zm0.128,1.971l-0.052,-0.161l0.173,-0.388l-0.149,-0.145l0.528,-0.358l-0.527,-0.175l0.162,-0.208l-0.158,-0.324l0.069,-0.219l-0.023,0.009l-0.23,0.526l0.168,-0.032l-0.009,0.381l0.116,0.077l-0.12,0.121l-0.009,0.394l-0.162,0.031l0.223,0.471Zm-0.811,-1.561l-0.028,-0.148l-0.143,0.101l-0.053,-0.076l-0.016,0.125l-0.141,0.099l0.029,0.15l-0.275,-0.091l0.161,0.34l-0.098,0.019l-0.005,0.238l-0.072,0.073l0.069,0.047l-0.005,0.23l0.101,-0.019l-0.18,0.412l0.279,-0.196l-0.034,0.155l0.137,0.045l0.011,0.127l0.061,-0.103l0.136,0.045l0.034,-0.155l0.162,0.343l0.01,-0.469l0.08,0.08l0.089,-0.203l0.079,0.003l-0.033,-0.109l0.091,-0.209l-0.077,-0.076l0.276,-0.195l-0.274,-0.091l0.085,-0.113l-0.081,-0.173l0.037,-0.118l-0.078,0.033l-0.083,-0.176l-0.083,0.11l0.01,-0.462l-0.178,0.407Zm-0.662,-0.408l0.044,0.219l0.071,-0.163l0.132,0.131l0.008,-0.36l-0.255,0.173Zm-0.47,0.106l0.298,0.608l0.064,-0.148l-0.055,-0.18l0.132,0.006l0.053,-0.122l-0.492,-0.164Zm0.125,0.67l-0.007,0.419l0.22,-0.156l-0.127,-0.127l0.072,-0.164l-0.158,0.028Zm0.137,1.068l-0.068,-0.145l0.141,-0.187l-0.231,-0.076l0.01,0.006l-0.007,0.43l0.155,-0.028Zm1.554,0.16l-0.284,-0.094l0.047,0.249l-0.232,0.164l-0.026,0.207l-0.089,-0.126l-0.237,0.167l-0.046,-0.245l-0.22,0.505l0.101,-0.168l0.262,0.087l0.062,-0.288l0.316,0.643l0.014,-0.874l0.153,0.149l0.167,-0.377l0.012,0.001Zm-1.536,-0.121l-0.32,0.72l0.5,-0.339l-0.064,-0.137l-0.128,0.054l0.061,-0.196l-0.049,-0.102Zm0.15,0.647l0.234,0.077l0.008,-0.372l-0.139,0.183l-0.054,-0.115l-0.049,0.227Z" style="fill:#e7ebee;stroke:#1fa6a4;stroke-width:0.2px;"/><path d="M72.17,76.088l0.449,0.161l0.24,-0.728l0.363,-0.067l-0.247,-0.285l0.236,-0.715l-0.458,-0.164l1.143,-0.882l-1.358,-0l0.284,-0.407l-0.554,-0.449l0.068,-0.409l-0.346,0.183l-0.537,-0.435l-0.294,0.42l-0.383,-1.433l-0.468,1.419l-0.258,-0.407l-0.57,0.439l-0.342,-0.187l0.043,0.419l-0.569,0.438l0.259,0.408l-1.371,-0.001l1.092,0.886l-0.458,0.16l0.188,0.704l-0.274,0.296l0.372,0.071l0.194,0.725l0.444,-0.155l-0.463,1.406l1.143,-0.882l-0.016,0.529l0.69,0l0.16,0.353l0.181,-0.353l0.704,0.001l0.016,-0.519l1.075,0.872l-0.378,-1.412Zm-2.028,-2.868l-0.613,-0.498l0.216,0.805l0.086,-0.067l-0.026,-0.223l0.182,0.103l0.155,-0.12Zm-0.795,0.682l0.327,0.006l-0.139,-0.219l0.171,-0.132l-0.22,-0.079l-0.139,0.424Zm1.199,-0.966l-0.357,-0l-0.008,0.254l0.102,-0.079l0.139,0.219l0.124,-0.394Zm1.656,1.015l-0.179,-0.034l-0.117,-0.438l-0.268,0.094l0.279,-0.85l-0.69,0.533l0.01,-0.32l-0.417,0l-0.097,-0.213l-0.016,0.032l0.163,0.59l0.152,-0.221l0.285,0.236l0.181,-0.094l-0.032,0.217l0.294,0.243l-0.146,0.215l0.598,0.01Zm-2.06,0.054l-0.144,-0.054l-0.073,0.233l-0.115,0.019l0.08,0.094l-0.072,0.228l0.146,0.055l-0.359,0.278l0.432,0.007l-0.089,0.129l0.178,0.148l-0.02,0.131l0.11,-0.057l0.172,0.143l0.092,-0.134l0.128,0.463l0.142,-0.454l0.085,0.132l0.179,-0.138l0.109,0.062l-0.015,-0.135l0.179,-0.138l-0.084,-0.132l0.436,0.007l-0.352,-0.29l0.145,-0.049l-0.063,-0.228l0.086,-0.093l-0.118,-0.025l-0.065,-0.234l-0.141,0.047l0.141,-0.449l-0.359,0.277l0.003,-0.17l-0.22,-0.004l-0.052,-0.114l-0.056,0.113l-0.224,-0.004l-0.003,0.166l-0.346,-0.286l0.127,0.456Zm-1.013,0.558l0.215,0.077l-0.05,-0.183l0.24,-0.081l-0.27,-0.223l-0.135,0.41Zm-0.414,0.632l0.783,-0l-0.046,-0.166l-0.196,-0.04l0.142,-0.155l-0.038,-0.137l-0.645,0.498Zm0.649,0.246l0.316,0.256l0.112,-0.359l-0.232,0.079l-0.051,-0.184l-0.145,0.208Zm0.969,0.467l-0.184,-0.003l0.005,-0.282l-0.303,0.234l0.016,-0.008l0.324,0.263l0.142,-0.204Zm1.762,-1.783l-0.371,0.287l0.242,0.091l-0.119,0.378l0.132,0.154l-0.191,0.033l-0.121,0.385l-0.237,-0.089l0.157,0.566l-0.023,-0.223l0.343,-0.265l-0.156,-0.246l0.828,-0l-0.659,-0.535l0.276,-0.097l-0.113,-0.425l0.012,-0.014Zm-1.713,1.784l0.218,0.814l0.266,-0.806l-0.174,-0.003l-0.093,0.186l-0.087,-0.189l-0.13,-0.002Zm0.657,0.203l0.307,-0.237l-0.279,-0.231l-0.005,0.276l-0.147,-0.002l0.124,0.194Z" style="fill:#e7ebee;stroke:#1fa6a4;stroke-width:0.2px;"/><path d="M81.265,46.416l0.181,0.156l0.192,-0.336l0.169,0.025l-0.076,-0.188l0.188,-0.33l-0.185,-0.159l0.611,-0.268l-0.604,-0.223l0.174,-0.163l-0.194,-0.322l0.078,-0.2l-0.176,0.038l-0.188,-0.313l-0.179,0.169l-0.004,-0.802l-0.373,0.655l-0.068,-0.252l-0.304,0.133l-0.131,-0.152l-0.03,0.223l-0.304,0.133l0.068,0.252l-0.61,-0.225l0.383,0.636l-0.223,0.008l0.002,0.394l-0.157,0.108l0.158,0.097l0.002,0.406l0.215,-0.008l-0.369,0.65l0.611,-0.268l-0.069,0.27l0.307,0.113l0.03,0.209l0.122,-0.153l0.312,0.116l0.068,-0.265l0.377,0.626l-0.004,-0.79Zm-0.568,-1.812l-0.214,-0.357l0.002,0.45l0.046,-0.02l0.014,-0.119l0.069,0.082l0.083,-0.036Zm-0.433,0.222l0.145,0.056l-0.037,-0.136l0.092,-0.04l-0.089,-0.076l-0.111,0.196Zm0.646,-0.302l-0.159,-0.059l-0.033,0.13l0.055,-0.024l0.036,0.136l0.101,-0.183Zm0.618,0.794l-0.075,-0.046l-0.001,-0.245l-0.13,0.004l0.223,-0.392l-0.369,0.161l0.041,-0.163l-0.185,-0.068l-0.018,-0.126l-0.011,0.014l0.004,0.331l0.093,-0.09l0.099,0.169l0.092,-0.019l-0.04,0.107l0.103,0.174l-0.09,0.086l0.264,0.103Zm-0.922,-0.309l-0.058,-0.051l-0.06,0.108l-0.053,-0.009l0.025,0.061l-0.059,0.106l0.059,0.053l-0.193,0.084l0.192,0.074l-0.055,0.053l0.062,0.105l-0.024,0.064l0.055,-0.011l0.061,0.101l0.056,-0.053l0.003,0.259l0.116,-0.21l0.022,0.081l0.096,-0.041l0.042,0.049l0.008,-0.072l0.096,-0.041l-0.022,-0.082l0.193,0.075l-0.122,-0.208l0.07,-0.001l-0.001,-0.128l0.049,-0.034l-0.05,-0.032l-0.002,-0.132l-0.068,0.002l0.115,-0.209l-0.192,0.084l0.021,-0.087l-0.097,-0.038l-0.01,-0.067l-0.038,0.049l-0.099,-0.039l-0.021,0.085l-0.121,-0.204l0.004,0.256Zm-0.516,0.122l0.087,0.075l-0.001,-0.103l0.116,-0.002l-0.094,-0.16l-0.108,0.19Zm-0.258,0.258l0.349,0.128l-0.002,-0.093l-0.082,-0.053l0.081,-0.056l-0.001,-0.077l-0.345,0.151Zm0.26,0.233l0.111,0.184l0.092,-0.167l-0.113,0.003l-0.001,-0.103l-0.089,0.083Zm0.377,0.4l-0.082,-0.032l0.035,-0.144l-0.161,0.07l0.007,-0.001l0.114,0.189l0.087,-0.082Zm0.992,-0.631l-0.199,0.087l0.097,0.086l-0.097,0.176l0.041,0.101l-0.089,-0.014l-0.098,0.179l-0.096,-0.085l0.004,0.317l0.016,-0.118l0.184,-0.081l-0.041,-0.152l0.368,0.135l-0.231,-0.384l0.135,-0.004l-0.001,-0.238l0.007,-0.005Zm-0.97,0.639l0.002,0.456l0.212,-0.372l-0.077,-0.03l-0.063,0.081l-0.017,-0.112l-0.057,-0.023Zm0.268,0.213l0.164,-0.072l-0.097,-0.165l-0.034,0.142l-0.065,-0.026l0.032,0.121Z" style="fill:#e7ebee;stroke:#1fa6a4;stroke-width:0.2px;"/><path d="M28.559,65.532l0.586,0.453l0.607,-0.951l0.544,0.077l-0.251,-0.538l0.596,-0.934l-0.598,-0.462l1.957,-0.74l-1.949,-0.658l0.555,-0.46l-0.632,-0.926l0.243,-0.567l-0.562,0.1l-0.614,-0.898l-0.572,0.474l-0.035,-2.287l-1.181,1.854l-0.225,-0.722l-0.975,0.368l-0.424,-0.44l-0.089,0.634l-0.974,0.368l0.225,0.723l-1.968,-0.665l1.248,1.828l-0.715,0.013l0.017,1.124l-0.501,0.301l0.51,0.284l0.017,1.158l0.693,-0.013l-1.171,1.838l1.958,-0.74l-0.214,0.769l0.99,0.334l0.102,0.596l0.387,-0.43l1.01,0.341l0.209,-0.753l1.23,1.8l-0.034,-2.253Zm-1.877,-5.19l-0.7,-1.027l0.019,1.284l0.148,-0.055l0.043,-0.34l0.224,0.239l0.266,-0.101Zm-1.388,0.615l0.469,0.167l-0.122,-0.389l0.293,-0.11l-0.287,-0.222l-0.353,0.554Zm2.07,-0.836l-0.513,-0.173l-0.103,0.369l0.175,-0.066l0.121,0.388l0.32,-0.518Zm2.01,2.291l-0.244,-0.136l-0.01,-0.699l-0.419,0.007l0.707,-1.11l-1.183,0.447l0.13,-0.464l-0.599,-0.203l-0.061,-0.359l-0.035,0.039l0.022,0.944l0.297,-0.251l0.325,0.485l0.293,-0.05l-0.125,0.302l0.335,0.5l-0.288,0.243l0.855,0.305Zm-2.976,-0.918l-0.186,-0.149l-0.189,0.306l-0.172,-0.027l0.081,0.175l-0.185,0.3l0.19,0.152l-0.616,0.233l0.617,0.22l-0.174,0.146l0.203,0.303l-0.076,0.182l0.177,-0.03l0.197,0.293l0.179,-0.152l0.018,0.741l0.367,-0.596l0.073,0.234l0.307,-0.115l0.135,0.144l0.026,-0.205l0.307,-0.116l-0.073,-0.235l0.623,0.222l-0.399,-0.596l0.225,-0.002l-0.008,-0.364l0.157,-0.096l-0.162,-0.093l-0.008,-0.375l-0.219,0.001l0.364,-0.591l-0.616,0.233l0.066,-0.248l-0.314,-0.112l-0.034,-0.193l-0.121,0.138l-0.319,-0.114l-0.064,0.243l-0.394,-0.587l0.017,0.73Zm-1.654,0.327l0.281,0.217l-0.007,-0.292l0.374,-0.003l-0.307,-0.458l-0.341,0.536Zm-0.821,0.726l1.123,0.379l-0.006,-0.264l-0.268,-0.155l0.261,-0.159l-0.006,-0.219l-1.104,0.418Zm0.842,0.675l0.361,0.529l0.29,-0.471l-0.362,0.002l-0.006,-0.294l-0.283,0.234Zm1.223,1.155l-0.263,-0.094l0.108,-0.411l-0.518,0.196l0.025,-0.004l0.37,0.543l0.278,-0.23Zm3.17,-1.761l-0.636,0.24l0.314,0.251l-0.307,0.498l0.134,0.29l-0.285,-0.045l-0.312,0.506l-0.309,-0.246l0.022,0.906l0.047,-0.338l0.589,-0.222l-0.137,-0.437l1.189,0.402l-0.754,-1.104l0.432,-0.008l-0.01,-0.679l0.023,-0.014Zm-3.1,1.786l0.019,1.3l0.672,-1.054l-0.249,-0.088l-0.2,0.228l-0.056,-0.32l-0.186,-0.066Zm0.869,0.616l0.525,-0.198l-0.317,-0.474l-0.106,0.402l-0.209,-0.074l0.107,0.344Z" style="fill:#e7ebee;stroke:#1fa6a4;stroke-width:0.2px;"/><path d="M52.704,70.126l-0.832,-0.405l0.649,-1.17l-0.407,-0.557l0.722,-0.009l0.638,-1.15l0.847,0.412l-0.381,-2.543l1.862,1.793l0.158,-0.853l1.362,0.204l0.457,-0.568l0.229,0.671l1.321,0.198l-0.163,0.881l2.452,-1.174l-1.266,2.281l0.901,-0.135l0.19,1.266l0.722,0.233l-0.622,0.434l0.19,1.266l-0.902,0.135l1.88,1.81l-2.687,-0.403l0.413,0.793l-1.205,0.577l-0.021,0.71l-0.606,-0.41l-1.24,0.595l-0.401,-0.769l-1.254,2.261l-0.382,-2.544l-0.689,0.643l-0.947,-0.911l-0.693,0.203l0.226,-0.653l-0.965,-0.929l0.675,-0.629l-2.646,-0.397l2.415,-1.157Zm6.635,-0.688l1.509,0.227l-1.376,0.659l-0.029,-0.192l0.335,-0.228l-0.387,-0.119l-0.052,-0.347Zm0.174,1.852l-0.456,-0.426l0.485,-0.073l-0.057,-0.381l0.407,0.198l-0.379,0.682Zm-0.346,-2.717l0.49,0.471l-0.331,0.309l-0.034,-0.228l-0.485,0.073l0.36,-0.625Zm-3.634,-0.996l0.29,0.196l0.75,-0.359l0.242,0.464l0.758,-1.366l0.23,1.537l0.417,-0.388l0.572,0.551l0.418,-0.123l-0.02,0.059l-1.017,0.476l0.09,-0.459l-0.71,-0.1l-0.121,-0.349l-0.247,0.297l-0.731,-0.103l-0.087,0.445l-0.834,-0.778Zm2.751,2.784l0.27,0.126l-0.213,0.369l0.132,0.175l-0.235,0.004l-0.209,0.363l-0.274,-0.128l0.12,0.799l-0.602,-0.561l-0.052,0.269l-0.442,-0.063l-0.15,0.18l-0.073,-0.211l-0.428,-0.06l0.054,-0.278l-0.798,0.373l0.414,-0.72l-0.292,0.044l-0.06,-0.398l-0.234,-0.072l0.202,-0.138l-0.059,-0.398l0.293,-0.044l-0.608,-0.567l0.872,0.123l-0.133,-0.249l0.392,-0.184l0.008,-0.223l0.196,0.128l0.404,-0.189l0.128,0.241l0.411,-0.714l0.12,0.801l0.225,-0.204l0.306,0.286l0.225,-0.065l-0.074,0.206l0.312,0.291l-0.22,0.199l0.858,0.121l-0.786,0.368Zm0.64,1.991l-0.399,-0.194l0.315,-0.147l-0.22,-0.412l0.669,0.094l-0.365,0.659Zm-0.282,1.288l-1.074,-1.034l0.285,-0.133l0.324,0.212l0.014,-0.37l0.236,-0.111l0.215,1.436Zm-1.22,-0.568l-0.778,-0.117l0.328,-0.569l0.213,0.399l0.317,-0.148l-0.08,0.435Zm-1.957,-0.732l0.257,0.239l0.371,-0.336l0.101,0.673l-0.01,-0.03l-0.798,-0.12l0.079,-0.426Zm-0.02,-4.418l0.124,0.827l-0.454,-0.212l-0.346,0.6l-0.388,0.007l0.218,0.289l-0.352,0.612l0.446,0.208l-0.976,0.457l0.331,-0.231l-0.115,-0.765l0.546,-0.081l-1.137,-1.094l1.624,0.243l-0.25,-0.479l0.728,-0.348l0.001,-0.033Zm-0.048,4.354l-1.394,0.668l0.72,-1.297l0.242,0.227l-0.123,0.341l0.373,-0.108l0.182,0.169Zm-1.174,-0.629l-0.102,-0.682l0.693,0.097l-0.365,0.33l0.204,0.191l-0.43,0.064Z" style="fill:#e7ebee;stroke:#1fa6a4;stroke-width:0.2px;"/><path d="M84.492,60.616l-0.169,0.682l-0.835,-0.458l-0.316,0.352l-0.088,-0.574l-0.821,-0.449l0.172,-0.695l-1.611,0.431l0.955,-1.572l-0.573,-0.082l-0.022,-1.094l-0.421,-0.335l0.41,-0.216l-0.021,-1.062l0.592,0.085l-1.043,-1.891l1.628,0.892l-0.19,-0.71l0.803,-0.216l0.069,-0.585l0.353,0.472l0.802,-0.215l0.191,0.712l0.964,-1.588l0.043,2.159l0.469,-0.369l0.512,0.93l0.465,-0.019l-0.198,0.502l0.528,0.958l-0.455,0.357l1.614,0.884l-1.612,0.432l0.496,0.516l-0.485,0.799l0.211,0.542l-0.451,-0.147l-0.495,0.815l-0.486,-0.506l0.042,2.126l-1.027,-1.863Zm-1.201,-5.246l-0.024,-1.212l0.585,1.062l-0.121,0.033l-0.186,-0.255l-0.034,0.313l-0.22,0.059Zm1.185,-0.232l-0.225,0.385l-0.103,-0.382l-0.241,0.064l0.083,-0.333l0.486,0.266Zm-1.728,0.413l0.251,-0.414l0.238,0.248l-0.144,0.038l0.102,0.383l-0.447,-0.255Zm-0.236,2.942l0.095,-0.241l-0.319,-0.578l0.275,-0.216l-0.975,-0.535l0.974,-0.261l-0.3,-0.311l0.293,-0.483l-0.127,-0.327l0.041,0.013l0.425,0.785l-0.309,-0.048l0.015,0.57l-0.213,0.114l0.221,0.181l0.016,0.587l0.3,0.047l-0.412,0.703Zm1.499,-2.33l0.052,-0.221l0.264,0.151l0.099,-0.113l0.029,0.186l0.26,0.148l-0.052,0.225l0.507,-0.136l-0.297,0.507l0.18,0.028l0.01,0.355l0.134,0.11l-0.129,0.069l0.009,0.344l-0.186,-0.029l0.333,0.616l-0.515,-0.294l0.061,0.231l-0.252,0.068l-0.021,0.189l-0.112,-0.154l-0.252,0.068l-0.062,-0.231l-0.3,0.512l-0.019,-0.7l-0.147,0.118l-0.164,-0.302l-0.147,0.004l0.062,-0.162l-0.169,-0.312l0.142,-0.114l-0.511,-0.291l0.507,-0.136l-0.158,-0.169l0.151,-0.257l-0.068,-0.176l0.143,0.048l0.154,-0.262l0.154,0.165l-0.018,-0.69l0.328,0.607Zm1.224,-0.609l-0.081,0.327l-0.132,-0.243l-0.243,0.196l-0.015,-0.538l0.471,0.258Zm0.869,0.159l-0.55,0.907l-0.12,-0.22l0.102,-0.269l-0.243,0.008l-0.098,-0.182l0.909,-0.244Zm-0.231,1l0.013,0.624l-0.408,-0.232l0.236,-0.189l-0.133,-0.245l0.292,0.042Zm-0.254,1.594l0.127,-0.216l-0.261,-0.279l0.426,-0.115l-0.018,0.01l0.013,0.641l-0.287,-0.041Zm-2.872,0.238l0.524,-0.14l-0.087,0.372l0.43,0.245l0.049,0.308l0.163,-0.187l0.438,0.249l0.085,-0.366l0.408,0.754l-0.188,-0.252l-0.484,0.13l-0.115,-0.43l-0.583,0.96l-0.026,-1.305l-0.283,0.223l-0.31,-0.562l-0.021,0.001Zm2.839,-0.181l0.592,1.076l-0.925,-0.508l0.12,-0.204l0.236,0.081l-0.113,-0.292l0.09,-0.153Zm-0.276,0.966l-0.433,0.116l-0.015,-0.556l0.256,0.273l0.101,-0.172l0.091,0.339Z" style="fill:#e7ebee;stroke:#1fa6a4;stroke-width:0.2px;"/><path d="M42.089,64.922l0.755,-0.405l-0.59,-1.17l0.37,-0.558l-0.655,-0.009l-0.58,-1.15l-0.77,0.412l0.347,-2.542l-1.692,1.792l-0.142,-0.852l-1.237,0.204l-0.415,-0.568l-0.208,0.671l-1.2,0.198l0.147,0.881l-2.226,-1.174l1.15,2.28l-0.819,-0.135l-0.172,1.267l-0.655,0.233l0.564,0.434l-0.173,1.265l0.82,0.136l-1.708,1.81l2.441,-0.403l-0.375,0.793l1.094,0.577l0.019,0.71l0.55,-0.41l1.127,0.594l0.363,-0.768l1.14,2.261l0.346,-2.544l0.626,0.642l0.86,-0.91l0.629,0.203l-0.205,-0.653l0.876,-0.929l-0.613,-0.63l2.404,-0.397l-2.193,-1.156Zm-6.026,-0.688l-1.371,0.226l1.25,0.66l0.026,-0.193l-0.304,-0.227l0.351,-0.12l0.048,-0.346Zm-0.159,1.851l0.415,-0.426l-0.441,-0.073l0.052,-0.38l-0.369,0.198l0.343,0.681Zm0.315,-2.716l-0.445,0.471l0.3,0.308l0.031,-0.227l0.44,0.073l-0.326,-0.625Zm3.3,-0.996l-0.263,0.196l-0.681,-0.359l-0.22,0.464l-0.688,-1.366l-0.21,1.537l-0.378,-0.388l-0.519,0.55l-0.381,-0.123l0.019,0.06l0.923,0.476l-0.081,-0.459l0.644,-0.1l0.111,-0.35l0.224,0.298l0.664,-0.103l0.079,0.444l0.757,-0.777Zm-2.499,2.783l-0.244,0.126l0.193,0.37l-0.12,0.175l0.213,0.004l0.19,0.363l0.249,-0.129l-0.109,0.8l0.547,-0.562l0.048,0.269l0.401,-0.062l0.135,0.18l0.067,-0.211l0.389,-0.061l-0.049,-0.277l0.724,0.373l-0.376,-0.72l0.266,0.044l0.054,-0.399l0.213,-0.072l-0.184,-0.137l0.054,-0.398l-0.266,-0.044l0.552,-0.567l-0.792,0.122l0.121,-0.249l-0.356,-0.183l-0.008,-0.224l-0.177,0.128l-0.367,-0.189l-0.117,0.242l-0.373,-0.714l-0.109,0.8l-0.204,-0.203l-0.278,0.285l-0.205,-0.065l0.068,0.206l-0.283,0.291l0.2,0.199l-0.78,0.121l0.713,0.368Zm-0.58,1.992l0.362,-0.194l-0.286,-0.147l0.2,-0.413l-0.608,0.095l0.332,0.659Zm0.256,1.287l0.975,-1.033l-0.259,-0.134l-0.294,0.212l-0.013,-0.37l-0.214,-0.11l-0.195,1.435Zm1.108,-0.568l0.706,-0.116l-0.298,-0.569l-0.193,0.399l-0.288,-0.148l0.073,0.434Zm1.777,-0.732l-0.233,0.24l-0.338,-0.337l-0.092,0.674l0.01,-0.03l0.725,-0.12l-0.072,-0.427Zm0.018,-4.417l-0.113,0.827l0.413,-0.213l0.314,0.601l0.352,0.006l-0.197,0.29l0.319,0.611l-0.405,0.209l0.886,0.457l-0.3,-0.231l0.104,-0.765l-0.495,-0.082l1.032,-1.093l-1.475,0.243l0.227,-0.479l-0.661,-0.349l-0.001,-0.032Zm0.044,4.354l1.266,0.667l-0.654,-1.296l-0.22,0.226l0.111,0.341l-0.338,-0.107l-0.165,0.169Zm1.066,-0.629l0.093,-0.683l-0.629,0.098l0.331,0.33l-0.186,0.19l0.391,0.065Z" style="fill:#e7ebee;stroke:#1fa6a4;stroke-width:0.2px;"/><path d="M27.83,59c0,0 2.831,5.778 2.831,8.255c-0,1.562 -1.268,2.83 -2.831,2.83c-1.562,0 -2.83,-1.268 -2.83,-2.83c0,-2.477 2.83,-8.255 2.83,-8.255Z" style="fill:#ebeded;"/><path d="M27.83,59c0,-0 2.831,5.778 2.831,8.255c-0,1.562 -1.268,2.83 -2.831,2.83c-1.562,0 -2.83,-1.268 -2.83,-2.83c0,-2.477 2.83,-8.255 2.83,-8.255Zm0,1.766c0.816,1.808 2.081,4.875 2.081,6.489c-0,1.148 -0.932,2.08 -2.081,2.08c-1.148,0 -2.08,-0.932 -2.08,-2.08c0,-1.614 1.265,-4.681 2.08,-6.489Z" style="fill:#5c70d0;"/></svg>