<?xml version="1.0" encoding="UTF-8" standalone="no"?><!DOCTYPE svg PUBLIC "-//W3C//DTD SVG 1.1//EN" "http://www.w3.org/Graphics/SVG/1.1/DTD/svg11.dtd"><svg width="100%" height="100%" viewBox="0 0 100 80" version="1.1" xmlns="http://www.w3.org/2000/svg" xmlns:xlink="http://www.w3.org/1999/xlink" xml:space="preserve" xmlns:serif="http://www.serif.com/" style="fill-rule:evenodd;clip-rule:evenodd;stroke-linejoin:round;stroke-miterlimit:2;"><path d="M100,11.739c-0,-6.479 -5.26,-11.739 -11.739,-11.739l-76.522,0c-6.479,0 -11.739,5.26 -11.739,11.739l0,56.522c0,6.479 5.26,11.739 11.739,11.739l76.522,0c6.479,0 11.739,-5.26 11.739,-11.739l-0,-56.522Z" style="fill:#808080;"/><path d="M70.087,38.788c-0.004,0.038 -0.01,0.077 -0.016,0.116c-0.343,2.19 -2.666,3.725 -5.185,3.426c-0.021,-0.002 -0.041,-0.004 -0.063,-0.007c-0.731,1.869 -3.545,3.044 -6.664,2.674c-2.88,-0.342 -5.105,-1.89 -5.53,-3.68c-2.501,0.762 -4.934,0.446 -6.024,-0.953c-0.205,-0.263 -0.351,-0.55 -0.442,-0.855c-0.304,0.019 -0.615,0.013 -0.929,-0.024c-2.521,-0.287 -4.298,-2.299 -3.967,-4.49c0.008,-0.058 0.019,-0.117 0.031,-0.174c-0.106,-0.041 -0.208,-0.086 -0.305,-0.132c-0.172,0.093 -0.368,0.161 -0.586,0.193c-0.945,0.137 -1.928,-0.436 -2.193,-1.28c-0.124,-0.393 -0.07,-0.778 0.12,-1.089c-2.452,-0.925 -3.883,-3.485 -3.217,-5.876c0.694,-2.499 3.415,-3.87 6.073,-3.061c0.611,0.186 1.167,0.472 1.651,0.831c2.353,-0.922 5.567,-0.99 8.866,0.013c1.067,0.325 2.067,0.739 2.986,1.221c0.384,-0.14 0.796,-0.258 1.229,-0.351c1.81,-0.383 3.63,-0.227 5.007,0.329c0.255,-0.164 0.553,-0.288 0.89,-0.359c1.457,-0.31 3.067,0.489 3.591,1.78c0.421,1.036 0.017,2.077 -0.911,2.609c0.812,0.273 1.564,0.609 2.234,1c0.492,-0.223 1.046,-0.366 1.649,-0.409c2.617,-0.189 5.148,1.571 5.648,3.928c0.501,2.357 -1.218,4.425 -3.834,4.614c-0.037,0.002 -0.072,0.004 -0.109,0.006Z" style="fill:#a5abaf;stroke:#4c545d;stroke-width:2px;"/><path d="M96.291,27.601c0.023,0.043 0.045,0.085 0.067,0.128c1.201,2.423 0.091,5.309 -2.478,6.441c-0.022,0.011 -0.044,0.019 -0.063,0.029c0.614,2.318 -1.209,5.118 -4.389,6.519c-2.938,1.296 -6.101,0.987 -7.742,-0.591c-1.815,2.201 -4.315,3.269 -6.311,2.465c-0.374,-0.151 -0.711,-0.359 -1.007,-0.618c-0.271,0.194 -0.569,0.362 -0.889,0.505c-2.563,1.145 -5.628,0.112 -6.841,-2.304c-0.032,-0.066 -0.062,-0.131 -0.092,-0.197c-0.128,0.019 -0.253,0.031 -0.378,0.04c-0.095,0.193 -0.232,0.374 -0.415,0.529c-0.789,0.681 -2.11,0.657 -2.945,-0.05c-0.389,-0.332 -0.606,-0.752 -0.646,-1.177c-2.941,0.457 -6.063,-1.333 -7.102,-4.144c-1.086,-2.938 0.512,-5.884 3.566,-6.577c0.702,-0.159 1.421,-0.184 2.126,-0.095c1.563,-2.28 4.527,-4.183 8.317,-5.044c1.226,-0.276 2.453,-0.426 3.65,-0.457c0.263,-0.364 0.566,-0.717 0.908,-1.059c1.429,-1.423 3.243,-2.301 4.922,-2.521c0.124,-0.311 0.318,-0.607 0.583,-0.871c1.152,-1.147 3.216,-1.253 4.606,-0.237c1.115,0.813 1.459,2.104 0.959,3.172c0.952,-0.185 1.891,-0.269 2.79,-0.255c0.306,-0.506 0.727,-0.968 1.261,-1.356c2.322,-1.683 5.918,-1.336 8.027,0.777c2.109,2.113 1.935,5.196 -0.386,6.88c-0.032,0.023 -0.066,0.046 -0.098,0.068Z" style="fill:#a5abaf;stroke:#4c545d;stroke-width:2px;"/><path d="M64.233,9.523c0.751,-2.182 2.39,-4.16 4.751,-5.434c4.829,-2.606 10.868,-1.292 13.477,2.933c0.369,0.595 0.649,1.218 0.846,1.855c4.572,1.699 7.805,4.687 8.448,8.172c0.435,0.226 0.848,0.516 1.231,0.869c2.124,1.96 2.822,5.414 2.09,8.913c0.51,0.197 0.955,0.547 1.289,1.048c1.11,1.671 0.558,4.399 -1.234,6.088c-1.524,1.436 -3.456,1.662 -4.684,0.669c-0.746,0.606 -1.533,1.08 -2.33,1.415c-0.108,0.128 -0.218,0.255 -0.332,0.378c-3.067,3.341 -7.593,3.869 -10.254,1.259c-0.032,0.011 -0.065,0.02 -0.097,0.03c-1.737,0.507 -3.463,0.138 -4.622,-0.833c-2.231,2.173 -6.037,3.605 -10.354,3.605c-3.893,0 -7.372,-1.165 -9.652,-2.987c-0.636,0.236 -1.327,0.366 -2.05,0.366c-2.146,0 -4.019,-1.146 -4.985,-2.836c-2.876,0.434 -5.901,0.294 -8.503,-0.531c-5.688,-1.8 -7.231,-6.181 -3.441,-9.778c0.181,-0.173 0.37,-0.339 0.568,-0.501c-0.497,-0.107 -0.954,-0.351 -1.326,-0.735c-1.264,-1.309 -1.075,-3.762 0.421,-5.476c1.27,-1.458 3.082,-1.914 4.373,-1.213c2.519,-2.489 5.868,-3.266 8.44,-1.648c0.452,0.284 0.859,0.63 1.216,1.023c0.51,-0.102 1.031,-0.193 1.564,-0.272c0.301,-2.199 2.298,-4.317 5.07,-5.126c0.88,-0.257 1.753,-0.357 2.575,-0.318c0.374,-0.48 0.868,-0.839 1.452,-1.01c1.31,-0.382 2.673,0.307 3.418,1.597c0.794,-0.563 1.677,-1.073 2.635,-1.522Z" style="fill:#c3c8cb;stroke:#4c545d;stroke-width:2px;"/><path d="M50.635,23.808c0.684,-2.529 4.796,-4.475 9.76,-4.475c5.442,-0 9.858,2.339 9.858,5.221c0,0.377 -0.075,0.745 -0.22,1.101c1.445,2.264 -0.199,5.712 -4.152,8.231c-4.511,2.873 -10.334,3.456 -12.994,1.299c-0.383,-0.31 -0.678,-0.661 -0.893,-1.041c-0.472,0.07 -0.959,0.105 -1.46,0.105c-4.01,0 -7.264,-2.338 -7.264,-5.22c-0,-2.882 3.254,-5.221 7.264,-5.221l0.101,-0Z" style="fill:#efeff0;stroke:#4c545d;stroke-width:2px;"/><path d="M67.53,8.009c3.463,-1.551 7.065,-1.497 8.951,0.391c0.355,0.356 0.63,0.759 0.828,1.194c0.437,-0.08 0.89,-0.121 1.354,-0.121c3.721,0 6.741,2.68 6.741,5.982c0,3.303 -3.02,5.982 -6.741,5.982l-0.092,0c-0.635,2.898 -4.45,5.128 -9.056,5.128c-4.285,0 -7.886,-1.931 -8.877,-4.533c-3.488,1.561 -7.116,1.499 -9.005,-0.409c-0.352,-0.355 -0.624,-0.758 -0.82,-1.195c-0.438,0.077 -0.891,0.117 -1.355,0.115c-3.721,-0.017 -6.726,-2.71 -6.708,-6.011c0.017,-3.302 3.052,-5.97 6.773,-5.953l0.092,0c0.652,-2.893 4.479,-5.108 9.085,-5.089c4.254,0.02 7.822,1.939 8.83,4.519Z" style="fill:#aeaeb7;stroke:#4c545d;stroke-width:2px;"/><path d="M71.587,31.885c-2.777,1.383 -5.666,1.335 -7.18,-0.351c-0.284,-0.316 -0.504,-0.674 -0.665,-1.063c-0.35,0.071 -0.713,0.107 -1.085,0.107c-2.985,0 -5.407,-2.39 -5.407,-5.336c-0,-2.946 2.422,-5.337 5.407,-5.337l0.074,-0c0.509,-2.585 3.57,-4.575 7.264,-4.575c3.436,0 6.325,1.724 7.121,4.044c2.798,-1.392 5.708,-1.337 7.221,0.365c0.284,0.317 0.502,0.677 0.659,1.067c0.352,-0.07 0.715,-0.105 1.087,-0.104c2.984,0.016 5.395,2.419 5.38,5.363c-0.014,2.947 -2.447,5.326 -5.432,5.312l-0.074,-0c-0.522,2.581 -3.591,4.557 -7.287,4.539c-3.412,-0.017 -6.275,-1.73 -7.083,-4.031Z" style="fill:#b0b3b6;stroke:#4c545d;stroke-width:2px;"/><path d="M24.264,8.405c2.618,-1.172 5.34,-1.131 6.766,0.297c0.267,0.268 0.475,0.573 0.625,0.902c0.331,-0.061 0.673,-0.092 1.024,-0.092c2.812,0 5.095,2.026 5.095,4.521c-0,2.497 -2.283,4.522 -5.095,4.522l-0.07,0c-0.48,2.19 -3.363,3.876 -6.845,3.876c-3.238,-0 -5.96,-1.459 -6.709,-3.426c-2.637,1.18 -5.379,1.133 -6.806,-0.309c-0.267,-0.269 -0.473,-0.573 -0.62,-0.904c-0.332,0.059 -0.674,0.088 -1.025,0.087c-2.812,-0.012 -5.083,-2.048 -5.07,-4.543c0.013,-2.496 2.307,-4.512 5.119,-4.499l0.07,-0c0.493,-2.187 3.385,-3.861 6.867,-3.847c3.215,0.015 5.912,1.465 6.674,3.415Z" style="fill:#aeaeb7;stroke:#4c545d;stroke-width:2px;"/><path d="M36.883,39.288c-0.004,0.038 -0.01,0.077 -0.016,0.116c-0.343,2.19 -2.665,3.725 -5.185,3.426c-0.021,-0.002 -0.041,-0.004 -0.063,-0.007c-0.731,1.869 -3.545,3.044 -6.664,2.674c-2.88,-0.342 -5.105,-1.89 -5.529,-3.68c-2.501,0.762 -4.935,0.446 -6.025,-0.953c-0.205,-0.263 -0.351,-0.55 -0.441,-0.855c-0.305,0.019 -0.616,0.013 -0.93,-0.024c-2.521,-0.287 -4.298,-2.299 -3.966,-4.49c0.008,-0.058 0.018,-0.117 0.03,-0.174c-0.106,-0.041 -0.208,-0.086 -0.305,-0.132c-0.171,0.093 -0.368,0.161 -0.585,0.193c-0.946,0.137 -1.929,-0.436 -2.194,-1.28c-0.123,-0.393 -0.07,-0.778 0.12,-1.089c-2.452,-0.925 -3.883,-3.485 -3.217,-5.876c0.694,-2.499 3.415,-3.87 6.073,-3.061c0.612,0.186 1.167,0.472 1.651,0.831c2.353,-0.922 5.567,-0.99 8.866,0.013c1.067,0.325 2.067,0.739 2.986,1.221c0.384,-0.14 0.796,-0.258 1.229,-0.351c1.811,-0.383 3.63,-0.227 5.007,0.329c0.255,-0.164 0.554,-0.288 0.89,-0.359c1.457,-0.31 3.067,0.489 3.591,1.78c0.421,1.036 0.017,2.077 -0.91,2.609c0.812,0.273 1.563,0.609 2.233,1c0.492,-0.223 1.046,-0.366 1.649,-0.409c2.617,-0.189 5.148,1.571 5.649,3.928c0.501,2.357 -1.218,4.425 -3.835,4.614c-0.037,0.002 -0.072,0.004 -0.109,0.006Z" style="fill:#a5abaf;stroke:#4c545d;stroke-width:2px;"/><path d="M63.088,28.101c0.022,0.043 0.044,0.085 0.066,0.128c1.201,2.423 0.091,5.309 -2.478,6.441c-0.022,0.011 -0.044,0.019 -0.063,0.029c0.614,2.318 -1.209,5.118 -4.388,6.519c-2.938,1.296 -6.102,0.987 -7.743,-0.591c-1.815,2.201 -4.315,3.269 -6.31,2.465c-0.374,-0.151 -0.712,-0.359 -1.008,-0.618c-0.271,0.194 -0.568,0.362 -0.889,0.505c-2.562,1.145 -5.627,0.112 -6.841,-2.304c-0.032,-0.066 -0.062,-0.131 -0.091,-0.197c-0.128,0.019 -0.254,0.031 -0.379,0.04c-0.095,0.193 -0.232,0.374 -0.415,0.529c-0.789,0.681 -2.11,0.657 -2.945,-0.05c-0.389,-0.332 -0.606,-0.752 -0.646,-1.177c-2.94,0.457 -6.063,-1.333 -7.102,-4.144c-1.085,-2.938 0.512,-5.884 3.566,-6.577c0.702,-0.159 1.421,-0.184 2.126,-0.095c1.563,-2.28 4.527,-4.183 8.318,-5.044c1.226,-0.276 2.453,-0.426 3.649,-0.457c0.263,-0.364 0.566,-0.717 0.908,-1.059c1.429,-1.423 3.243,-2.301 4.922,-2.521c0.124,-0.311 0.318,-0.607 0.583,-0.871c1.152,-1.147 3.216,-1.253 4.606,-0.237c1.115,0.813 1.459,2.104 0.959,3.172c0.952,-0.185 1.891,-0.269 2.79,-0.255c0.306,-0.506 0.727,-0.968 1.261,-1.356c2.322,-1.683 5.919,-1.336 8.027,0.777c2.109,2.113 1.935,5.196 -0.386,6.88c-0.032,0.023 -0.065,0.046 -0.097,0.068Z" style="fill:#a5abaf;stroke:#4c545d;stroke-width:2px;"/><path d="M37.983,9.523c0.751,-2.182 2.39,-4.16 4.751,-5.434c4.829,-2.606 10.868,-1.292 13.477,2.933c0.369,0.595 0.649,1.218 0.846,1.855c4.572,1.699 7.805,4.687 8.448,8.172c0.435,0.226 0.848,0.516 1.231,0.869c2.124,1.96 2.822,5.414 2.09,8.913c0.51,0.197 0.955,0.547 1.289,1.048c1.11,1.671 0.558,4.399 -1.234,6.088c-1.524,1.436 -3.456,1.662 -4.684,0.669c-0.746,0.606 -1.533,1.08 -2.33,1.415c-0.108,0.128 -0.218,0.255 -0.332,0.378c-3.067,3.341 -7.593,3.869 -10.254,1.259c-0.032,0.011 -0.065,0.02 -0.097,0.03c-1.737,0.507 -3.463,0.138 -4.622,-0.833c-2.231,2.173 -5.995,-5.82 -10.312,-5.82c-3.893,0 -7.414,8.26 -9.694,6.438c-0.636,0.236 -1.327,0.366 -2.05,0.366c-2.146,0 -4.019,-1.146 -4.985,-2.836c-2.876,0.434 -5.901,0.294 -8.503,-0.531c-5.688,-1.8 -7.231,-6.181 -3.441,-9.778c0.181,-0.173 0.37,-0.339 0.568,-0.501c-0.497,-0.107 -0.954,-0.351 -1.326,-0.735c-1.264,-1.309 -1.075,-3.762 0.421,-5.476c1.27,-1.458 3.082,-1.914 4.373,-1.213c2.519,-2.489 5.868,-3.266 8.44,-1.648c0.452,0.284 0.859,0.63 1.216,1.023c0.51,-0.102 1.031,-0.193 1.564,-0.272c0.301,-2.199 2.298,-4.317 5.07,-5.126c0.88,-0.257 1.753,-0.357 2.575,-0.318c0.374,-0.48 0.868,-0.839 1.452,-1.01c1.31,-0.382 2.673,0.307 3.418,1.597c0.794,-0.563 1.677,-1.073 2.635,-1.522Z" style="fill:#c3c8cb;stroke:#4c545d;stroke-width:2px;"/><path d="M39.757,18.83c2.266,-2.119 5.048,-2.899 6.981,-1.716c0.362,0.222 0.676,0.502 0.941,0.829c0.315,-0.168 0.653,-0.307 1.009,-0.413c2.86,-0.853 5.865,0.745 6.707,3.568c0.842,2.823 -0.795,5.807 -3.656,6.66l-0.071,0.021c0.251,2.623 -2.113,5.404 -5.652,6.46c-3.294,0.983 -6.555,0.157 -7.981,-1.839c-2.282,2.133 -5.087,2.913 -7.024,1.715c-0.362,-0.223 -0.674,-0.506 -0.936,-0.835c-0.317,0.168 -0.655,0.306 -1.012,0.411c-2.864,0.838 -5.861,-0.776 -6.689,-3.602c-0.829,-2.827 0.823,-5.803 3.688,-6.642l0.071,-0.022c-0.238,-2.622 2.138,-5.393 5.684,-6.432c3.275,-0.959 6.508,-0.137 7.94,1.837Z" style="fill:#959da7;stroke:#4c545d;stroke-width:2px;"/><path d="M30.593,41.204c-3.165,1.576 -6.458,1.521 -8.184,-0.4c-0.324,-0.362 -0.575,-0.77 -0.758,-1.213c-0.399,0.081 -0.813,0.123 -1.237,0.123c-3.402,-0 -6.163,-2.725 -6.163,-6.083c-0,-3.358 2.761,-6.084 6.163,-6.084l0.085,-0c0.58,-2.946 4.069,-5.215 8.279,-5.215c3.918,0 7.211,1.965 8.118,4.61c3.189,-1.586 6.506,-1.524 8.231,0.416c0.323,0.361 0.572,0.772 0.751,1.216c0.401,-0.079 0.815,-0.12 1.24,-0.118c3.401,0.018 6.149,2.757 6.132,6.114c-0.016,3.358 -2.79,6.071 -6.192,6.054l-0.085,-0c-0.594,2.942 -4.093,5.195 -8.305,5.174c-3.89,-0.02 -7.153,-1.971 -8.075,-4.594Z" style="fill:#babdbf;stroke:#4c545d;stroke-width:2px;"/><path d="M57.682,37.731c-3.224,1.487 -6.578,1.435 -8.334,-0.377c-0.33,-0.34 -0.586,-0.726 -0.771,-1.145c-0.407,0.078 -0.828,0.117 -1.261,0.117c-3.463,0 -6.274,-2.57 -6.274,-5.738c0,-3.168 2.811,-5.739 6.274,-5.739l0.086,0c0.593,-2.779 4.143,-4.919 8.431,-4.919c3.99,0 7.341,1.853 8.265,4.349c3.246,-1.498 6.623,-1.439 8.382,0.392c0.328,0.34 0.582,0.728 0.762,1.146c0.408,-0.075 0.831,-0.112 1.262,-0.111c3.465,0.017 6.261,2.601 6.246,5.767c-0.017,3.168 -2.842,5.727 -6.306,5.71l-0.085,0c-0.607,2.777 -4.169,4.902 -8.458,4.882c-3.959,-0.018 -7.283,-1.859 -8.219,-4.334Z" style="fill:#bdbdc1;stroke:#4c545d;stroke-width:2px;"/><path d="M37.048,66.831l-0.055,-0.084l-0.014,0.274c-0.2,0.554 -0.389,1.116 -0.546,1.656l-0.113,-0.091l-0.622,0.766l-0.7,-0.14l0.281,0.657l-0.711,0.879l0.473,0.384l-2.041,0.546l2.188,0.84l-0.739,0.479l0.553,0.853l-0.274,0.489l0.559,-0.051l0.679,1.045l0.598,-0.388l-0.107,2.055l1.383,-1.71l0.228,0.851l1.136,-0.305l0.317,0.342l0.103,-0.455l1.135,-0.303l-0.228,-0.851l2.055,0.788l-1.123,-1.727l0.713,0.038l0.065,-1.243l0.509,-0.236l-0.481,-0.287l0.054,-1.013l-0.835,-0.044c-0.001,-0.018 -0.002,-0.036 -0.004,-0.055l1.432,-1.768l-1.655,0.443c-0.666,-2.775 -2.52,-6.677 -2.52,-6.677c0,-0 -0.917,1.931 -1.693,4.043Zm1.479,7.253l0.735,1.134l0.071,-1.35l-0.251,0.067l-0.074,0.333l-0.231,-0.249l-0.25,0.065Zm-1.039,0.445l0.002,0.008l0.321,-0.283l0.552,0.212l0.145,-0.376l-0.311,0.083l-0.105,-0.39l-0.604,0.746Zm2.469,-0.985c-0.104,0.051 -0.212,0.096 -0.323,0.134l0.028,0.103l-0.311,0.083l0.315,0.254l0.372,-0.46l0.42,0.083l-0.004,-0.008l-0.497,-0.189Zm-3.025,0.003l-0.125,0.323l0.564,0.216l0.03,-0.58l-0.348,0.227l-0.121,-0.186Zm-0.43,-0.661l-0.786,0.97l1.206,-0.323l-0.194,-0.298l-0.331,0.029l0.163,-0.289l-0.058,-0.089Zm-0.679,-0.928l-0.008,0.004l0.289,0.172l-0.031,0.606l0.344,0.019l-0.192,-0.297l0.101,-0.065c-0.053,-0.097 -0.1,-0.197 -0.142,-0.301l-0.361,-0.138Zm5.463,0.168c-0.039,0.094 -0.083,0.185 -0.131,0.274l0.498,-0.134l-0.367,-0.14Zm-5.229,-1.845c0.008,-0.05 0.017,-0.102 0.026,-0.154l-0.167,-0.064l0.141,0.218Z" style="fill:#a6aab4;stroke:#277891;stroke-width:0.5px;stroke-linecap:round;stroke-miterlimit:1.5;"/><path d="M87.273,47.507l0.016,-0.041l0.004,0.133c0.06,0.27 0.117,0.545 0.164,0.808l0.034,-0.045l0.186,0.374l0.21,-0.069l-0.085,0.321l0.213,0.428l-0.141,0.188l0.611,0.266l-0.655,0.409l0.221,0.234l-0.166,0.416l0.082,0.238l-0.167,-0.025l-0.203,0.51l-0.179,-0.189l0.032,1.002l-0.415,-0.834l-0.068,0.415l-0.34,-0.149l-0.095,0.167l-0.031,-0.222l-0.34,-0.148l0.069,-0.415l-0.616,0.384l0.336,-0.841l-0.213,0.018l-0.02,-0.606l-0.152,-0.115l0.144,-0.14l-0.016,-0.494l0.25,-0.021c0,-0.009 0.001,-0.018 0.001,-0.027l-0.429,-0.862l0.496,0.216c0.199,-1.353 0.755,-3.256 0.755,-3.256c-0,0 0.274,0.942 0.507,1.972Zm-0.443,3.536l-0.22,0.553l-0.022,-0.658l0.076,0.032l0.021,0.163l0.07,-0.122l0.075,0.032Zm0.311,0.217l-0.001,0.004l-0.096,-0.138l-0.165,0.103l-0.044,-0.183l0.094,0.04l0.031,-0.19l0.181,0.364Zm-0.74,-0.48c0.032,0.025 0.064,0.047 0.097,0.065l-0.008,0.05l0.093,0.041l-0.094,0.123l-0.112,-0.224l-0.125,0.041l0.001,-0.004l0.148,-0.092Zm0.906,0.001l0.038,0.158l-0.169,0.105l-0.009,-0.283l0.104,0.111l0.036,-0.091Zm0.129,-0.322l0.235,0.473l-0.361,-0.158l0.058,-0.145l0.099,0.014l-0.048,-0.141l0.017,-0.043Zm0.203,-0.453l0.003,0.002l-0.087,0.084l0.01,0.295l-0.103,0.01l0.057,-0.145l-0.03,-0.032c0.016,-0.047 0.03,-0.096 0.042,-0.146l0.108,-0.068Zm-1.636,0.082c0.012,0.046 0.025,0.091 0.04,0.134l-0.15,-0.065l0.11,-0.069Zm1.566,-0.899c-0.002,-0.025 -0.005,-0.05 -0.007,-0.075l0.05,-0.031l-0.043,0.106Z" style="fill:#a6aab4;stroke:#277891;stroke-width:0.5px;stroke-linecap:round;stroke-miterlimit:1.5;"/><path d="M70.532,50.196c0.594,-1.753 1.187,-3.196 1.187,-3.196c0,-0 1.062,2.582 1.766,5.033l0.421,0.19l-0.186,0.568l1.739,-0.547l-1.258,1.822l0.752,0.045l-0.046,1.014l0.411,0.287l-0.434,0.235l-0.056,1.244l-0.608,-0.036l0.957,1.724l-1.753,-0.787l0.195,0.851l-0.968,0.303l-0.088,0.455l-0.27,-0.342l-0.97,0.304l-0.194,-0.851l-1.18,1.711l0.091,-2.055l-0.51,0.388l-0.579,-1.046l-0.477,0.052l0.233,-0.489l-0.471,-0.853l0.63,-0.479l-1.866,-0.84l1.741,-0.546l-0.403,-0.384l0.606,-0.879l-0.24,-0.656l0.598,0.139l0.53,-0.768l0.147,0.139c0.124,-0.429 0.259,-0.861 0.397,-1.281l0.03,-0.695l0.126,0.226Zm1.833,7.739l-0.023,0.504l-0.241,-0.436c0.089,-0.017 0.177,-0.04 0.264,-0.068Zm-3.048,-0.858l0.325,-0.47c0.052,0.109 0.11,0.214 0.173,0.313l-0.498,0.157Zm4.777,-1.719l0.288,0.129l-0.303,0.095c0.008,-0.074 0.012,-0.149 0.015,-0.224Zm-4.508,-1.896l-0.098,-0.178l0.125,0.056c-0.009,0.041 -0.018,0.082 -0.027,0.122Z" style="fill:#a6aab4;stroke:#277891;stroke-width:0.51px;stroke-linecap:round;stroke-miterlimit:1.5;"/><path d="M58.269,66c-0,-0 0.571,2.202 0.931,4.239l0.107,-0.144l0.016,0.888c0.028,0.183 0.053,0.363 0.075,0.537l0.367,-0.259l0.465,0.577l0.424,-0.064l-0.184,0.364l0.477,0.596l-0.418,0.295l1.471,0.423l-1.477,0.475l0.451,0.297l-0.45,0.6l0.189,0.346l-0.41,-0.05l-0.458,0.612l-0.443,-0.292l0.024,1.449l-0.927,-1.157l-0.159,0.484l-0.762,-0.219l-0.293,0.275l-0.077,-0.382l-0.747,-0.216l0.162,-0.494l-1.479,0.476l0.885,-1.18l-0.524,0.007l-0.013,-0.743l-0.385,-0.183l0.378,-0.194l-0.012,-0.722l0.539,-0.008l-0.941,-1.175l1.485,0.427l-0.17,-0.464l0.735,-0.237l0.068,-0.408l0.051,0.045c0.343,-2.174 1.029,-4.821 1.029,-4.821Zm-0.278,8.931c-0.057,-0.025 -0.112,-0.056 -0.165,-0.095l-0.13,0.126l-0.042,-0.205l-0.141,-0.043l0.014,0.836l0.464,-0.619Zm0.539,0.007l0.036,0.045l-0.397,0.128l-0.05,-0.138c0.049,0.012 0.099,0.017 0.15,0.017c0.09,0 0.177,-0.018 0.261,-0.052Zm1.324,-1.371l-0.48,0.155l0.237,0.16l-0.232,0.32l0.101,0.186l-0.215,-0.029l-0.235,0.326l-0.095,-0.064c-0.042,0.052 -0.087,0.099 -0.133,0.141l0.01,0.346l0.036,-0.217l0.444,-0.142l-0.102,-0.281l0.898,0.258l-0.57,-0.71l0.327,-0.004l-0.008,-0.437l0.017,-0.008Zm-2.394,1.131l-0.199,-0.061l0.082,-0.263l-0.392,0.125l0.019,-0.002l0.281,0.349l0.209,-0.148Zm-0.923,-0.742l0.272,0.34l0.219,-0.304l-0.272,0.003l-0.006,-0.19l-0.213,0.151Zm-0.636,-0.433l0.848,0.243l-0.005,-0.17l-0.202,-0.1l0.197,-0.102l-0.004,-0.14l-0.834,0.269Zm1.055,-0.041l0.154,-0.05c0.006,0.035 0.013,0.069 0.02,0.102l-0.174,-0.052Zm2.522,-1.11c0.007,0.124 0.01,0.241 0.01,0.35c0,0.077 -0.002,0.152 -0.006,0.227l0.107,0.135l-0.125,0.089c-0.003,0.031 -0.007,0.061 -0.011,0.091l0.564,0.171l-0.184,-0.086l-0.008,-0.45l-0.317,0.005l0.535,-0.714l-0.565,0.182Zm-2.958,0.683l0.214,0.14l-0.007,-0.188l0.283,-0.001l-0.231,-0.295l-0.259,0.344Zm0.416,-0.555l0.126,-0.168c-0.004,0.07 -0.008,0.138 -0.01,0.203l-0.116,-0.035Z" style="fill:#a6aab4;stroke:#277891;stroke-width:0.5px;stroke-linecap:round;stroke-miterlimit:1.5;"/><path d="M44.818,49.955c0.402,-2.126 1.209,-4.72 1.209,-4.72c0,0 0.964,3.095 1.31,5.294l0.242,0.039l-0.092,0.527l1.368,-0.704l-0.706,1.366l0.503,-0.08l0.106,0.758l0.402,0.14l-0.346,0.259l0.105,0.758l-0.503,0.081l1.049,1.084l-1.499,-0.241l0.23,0.474l-0.671,0.345l-0.013,0.426l-0.338,-0.246l-0.692,0.357l-0.223,-0.461l-0.7,1.354l-0.212,-1.523l-0.385,0.385l-0.528,-0.546l-0.386,0.122l0.126,-0.391l-0.539,-0.556l0.377,-0.377l-1.477,-0.238l1.348,-0.692l-0.464,-0.243l0.362,-0.701l-0.227,-0.334l0.402,-0.004l0.356,-0.689l0.323,0.168c0.017,-0.163 0.04,-0.335 0.067,-0.514l-0.13,-0.93l0.246,0.253Zm2.377,5.097l-0.599,-0.619l0.159,-0.079l0.181,0.126l0.007,-0.221l0.132,-0.066l0.12,0.859Zm-0.681,-0.34l-0.433,-0.07l0.183,-0.341l0.119,0.239l0.176,-0.088l-0.045,0.26Zm-1.129,-0.477l-0.778,0.4l0.402,-0.776l0.135,0.136l-0.069,0.204l0.209,-0.064l0.101,0.1Zm0.038,0.038l0.143,0.144l0.207,-0.201l0.056,0.404l-0.005,-0.019l-0.445,-0.072l0.044,-0.256Zm1.929,0.008l-0.222,-0.116l0.175,-0.088l-0.123,-0.247l0.374,0.057l-0.204,0.394Zm-0.62,-0.418c-0.037,0.036 -0.076,0.068 -0.116,0.098l0.152,0.152l-0.036,-0.25Zm-1.699,-0.358l-0.36,-0.055l0.058,0.409l0.239,-0.038l-0.113,-0.114l0.188,-0.183c-0.004,-0.006 -0.008,-0.012 -0.012,-0.019Zm2.648,0.141l-0.255,-0.256l0.271,-0.044l-0.031,-0.227l0.227,0.118l-0.212,0.409Zm-0.618,-0.209c-0.01,0.018 -0.021,0.037 -0.032,0.055l0.07,-0.002l-0.038,-0.053Zm-2.366,-0.756l-0.129,0.021l0.064,0.458l-0.184,0.138l0.384,-0.193c-0.026,-0.063 -0.049,-0.129 -0.071,-0.196l-0.018,-0.009l0.01,-0.018c-0.021,-0.065 -0.039,-0.132 -0.056,-0.201Zm2.887,-0.144l0.841,0.135l-0.767,0.395l-0.016,-0.115l0.187,-0.136l-0.216,-0.072l-0.029,-0.207Zm-0.272,0.313c-0.009,0.032 -0.019,0.064 -0.03,0.095l0.152,-0.077l-0.122,-0.018Zm0.137,-0.759c-0.007,0.096 -0.017,0.189 -0.031,0.281l0.14,-0.023l0.018,0.136l0.185,-0.184l-0.273,-0.282l-0.039,0.072Zm-2.805,0.326c-0.019,-0.117 -0.033,-0.237 -0.041,-0.36l-0.364,-0.059l0.405,0.419Zm2.815,-0.672c0,0.013 0,0.027 0.001,0.04l0.041,-0.021l0.011,-0.036l-0.053,0.017Z" style="fill:#a6aab4;stroke:#277891;stroke-width:0.5px;"/><path d="M50.949,51.017c0,0 0.884,3.637 1.442,7.001l0.166,-0.237l0.024,1.466c0.043,0.303 0.082,0.599 0.115,0.886l0.57,-0.428l0.718,0.954l0.658,-0.107l-0.286,0.602l0.739,0.984l-0.647,0.487l2.276,0.699l-2.286,0.784l0.698,0.491l-0.696,0.992l0.293,0.57l-0.636,-0.081l-0.709,1.01l-0.685,-0.482l0.038,2.392l-1.435,-1.91l-0.246,0.799l-1.18,-0.362l-0.453,0.455l-0.119,-0.631l-1.156,-0.356l0.249,-0.816l-2.288,0.786l1.37,-1.95l-0.812,0.012l-0.02,-1.228l-0.596,-0.301l0.586,-0.32l-0.019,-1.192l0.835,-0.014l-1.457,-1.94l2.298,0.705l-0.263,-0.767l1.139,-0.392l0.104,-0.673l0.079,0.074c0.531,-3.59 1.592,-7.962 1.592,-7.962Zm-0.43,14.75c-0.087,-0.041 -0.172,-0.093 -0.255,-0.157l-0.202,0.209l-0.065,-0.339l-0.218,-0.071l0.022,1.38l0.718,-1.022Zm0.835,0.012l0.055,0.073l-0.614,0.212l-0.077,-0.227c0.076,0.019 0.153,0.028 0.231,0.028c0.139,0 0.275,-0.03 0.405,-0.086Zm2.048,-2.265l-0.742,0.256l0.366,0.265l-0.358,0.528l0.156,0.307l-0.332,-0.047l-0.365,0.538l-0.146,-0.105c-0.066,0.085 -0.134,0.163 -0.206,0.232l0.016,0.572l0.055,-0.358l0.687,-0.236l-0.158,-0.463l1.39,0.426l-0.881,-1.172l0.504,-0.008l-0.012,-0.721l0.026,-0.014Zm-3.704,1.869l-0.309,-0.101l0.127,-0.435l-0.606,0.207l0.03,-0.004l0.433,0.577l0.325,-0.244Zm-1.429,-1.225l0.421,0.56l0.339,-0.501l-0.422,0.004l-0.008,-0.313l-0.33,0.25Zm-0.984,-0.717l1.312,0.402l-0.008,-0.281l-0.312,-0.165l0.305,-0.168l-0.006,-0.232l-1.291,0.444Zm1.633,-0.067l0.238,-0.082c0.01,0.057 0.02,0.113 0.031,0.169l-0.269,-0.087Zm3.903,-1.834c0.01,0.205 0.016,0.399 0.016,0.579c0,0.126 -0.003,0.251 -0.009,0.374l0.164,0.223l-0.192,0.148c-0.006,0.05 -0.011,0.101 -0.017,0.151l0.873,0.281l-0.285,-0.142l-0.012,-0.743l-0.491,0.008l0.827,-1.18l-0.874,0.301Zm-4.578,1.129l0.331,0.231l-0.01,-0.31l0.437,-0.002l-0.358,-0.487l-0.4,0.568Zm0.643,-0.917l0.195,-0.277c-0.006,0.116 -0.011,0.228 -0.014,0.336l-0.181,-0.059Z" style="fill:#a6aab4;stroke:#277891;stroke-width:0.5px;stroke-linecap:round;stroke-miterlimit:1.5;"/><path d="M74.944,64.929c0.695,-3.769 2.09,-8.368 2.09,-8.368c0,0 1.665,5.486 2.264,9.385l0.417,0.068l-0.159,0.935l2.364,-1.247l-1.219,2.421l0.869,-0.143l0.182,1.345l0.695,0.247l-0.598,0.459l0.182,1.345l-0.869,0.142l1.811,1.922l-2.589,-0.427l0.398,0.841l-1.16,0.612l-0.022,0.754l-0.584,-0.435l-1.196,0.631l-0.386,-0.815l-1.209,2.399l-0.367,-2.7l-0.665,0.683l-0.913,-0.968l-0.667,0.215l0.218,-0.693l-0.93,-0.985l0.651,-0.668l-2.552,-0.421l2.328,-1.228l-0.802,-0.429l0.626,-1.244l-0.392,-0.592l0.695,-0.007l0.616,-1.222l0.557,0.299c0.03,-0.29 0.069,-0.595 0.116,-0.912l-0.224,-1.648l0.424,0.449Zm4.108,9.034l-1.036,-1.097l0.275,-0.14l0.313,0.223l0.012,-0.392l0.228,-0.116l0.208,1.522Zm-1.176,-0.602l-0.749,-0.124l0.315,-0.604l0.206,0.423l0.305,-0.156l-0.077,0.461Zm-1.952,-0.845l-1.345,0.709l0.695,-1.376l0.234,0.241l-0.119,0.361l0.36,-0.113l0.175,0.178Zm0.065,0.067l0.247,0.256l0.359,-0.357l0.097,0.715l-0.01,-0.034l-0.768,-0.126l0.075,-0.454Zm3.334,0.014l-0.384,-0.206l0.303,-0.156l-0.212,-0.438l0.645,0.101l-0.352,0.699Zm-1.071,-0.741c-0.065,0.063 -0.132,0.121 -0.201,0.173l0.262,0.269l-0.061,-0.442Zm-2.936,-0.634l-0.622,-0.098l0.099,0.725l0.414,-0.068l-0.196,-0.202l0.325,-0.324c-0.007,-0.011 -0.014,-0.022 -0.02,-0.033Zm4.575,0.249l-0.44,-0.454l0.468,-0.077l-0.054,-0.404l0.392,0.21l-0.366,0.725Zm-1.067,-0.371c-0.018,0.033 -0.037,0.066 -0.056,0.098l0.121,-0.003l-0.065,-0.095Zm-4.089,-1.339l-0.223,0.037l0.111,0.811l-0.319,0.246l0.664,-0.342c-0.044,-0.113 -0.085,-0.229 -0.122,-0.349l-0.031,-0.016l0.016,-0.031c-0.035,-0.116 -0.067,-0.234 -0.096,-0.356Zm4.99,-0.256l1.453,0.239l-1.327,0.701l-0.027,-0.204l0.322,-0.241l-0.372,-0.127l-0.049,-0.368Zm-0.471,0.555c-0.016,0.057 -0.034,0.113 -0.052,0.169l0.263,-0.136l-0.211,-0.033Zm0.237,-1.345c-0.012,0.169 -0.03,0.335 -0.054,0.497l0.242,-0.04l0.032,0.242l0.319,-0.327l-0.472,-0.501l-0.067,0.129Zm-4.848,0.577c-0.032,-0.207 -0.056,-0.42 -0.07,-0.638l-0.629,-0.103l0.699,0.741Zm4.865,-1.191c0,0.024 0.001,0.047 0.001,0.071l0.071,-0.037l0.02,-0.064l-0.092,0.03Z" style="fill:#a6aab4;stroke:#277891;stroke-width:0.5px;"/><path d="M27.818,51.606c0.402,-2.309 1.209,-5.126 1.209,-5.126c0,0 0.964,3.36 1.31,5.749l0.242,0.042l-0.092,0.572l1.368,-0.764l-0.706,1.483l0.503,-0.087l0.106,0.823l0.402,0.152l-0.346,0.281l0.105,0.824l-0.503,0.087l1.049,1.178l-1.499,-0.262l0.23,0.515l-0.671,0.375l-0.013,0.462l-0.338,-0.267l-0.692,0.387l-0.223,-0.5l-0.7,1.47l-0.212,-1.654l-0.385,0.418l-0.528,-0.593l-0.386,0.132l0.126,-0.424l-0.539,-0.604l0.377,-0.409l-1.477,-0.258l1.348,-0.752l-0.464,-0.263l0.362,-0.761l-0.227,-0.363l0.402,-0.005l0.356,-0.748l0.323,0.183c0.017,-0.178 0.04,-0.365 0.067,-0.559l-0.13,-1.009l0.246,0.275Zm2.377,5.534l-0.599,-0.672l0.159,-0.086l0.181,0.137l0.007,-0.24l0.132,-0.072l0.12,0.933Zm-0.681,-0.369l-0.433,-0.076l0.183,-0.37l0.119,0.259l0.176,-0.095l-0.045,0.282Zm-1.129,-0.518l-0.778,0.434l0.402,-0.842l0.135,0.148l-0.069,0.22l0.209,-0.069l0.101,0.109Zm0.038,0.041l0.143,0.157l0.207,-0.218l0.056,0.437l-0.005,-0.02l-0.445,-0.078l0.044,-0.278Zm1.929,0.009l-0.222,-0.126l0.175,-0.096l-0.123,-0.268l0.374,0.062l-0.204,0.428Zm-0.62,-0.454c-0.037,0.038 -0.076,0.074 -0.116,0.106l0.152,0.165l-0.036,-0.271Zm-1.699,-0.388l-0.36,-0.06l0.058,0.444l0.239,-0.042l-0.113,-0.123l0.188,-0.199c-0.004,-0.007 -0.008,-0.014 -0.012,-0.02Zm2.648,0.152l-0.255,-0.278l0.271,-0.047l-0.031,-0.247l0.227,0.128l-0.212,0.444Zm-0.618,-0.227c-0.01,0.02 -0.021,0.04 -0.032,0.06l0.07,-0.002l-0.038,-0.058Zm-2.366,-0.82l-0.129,0.022l0.064,0.497l-0.184,0.151l0.384,-0.21c-0.026,-0.069 -0.049,-0.14 -0.071,-0.213l-0.018,-0.01l0.01,-0.019c-0.021,-0.071 -0.039,-0.144 -0.056,-0.218Zm2.887,-0.157l0.841,0.146l-0.767,0.43l-0.016,-0.125l0.187,-0.148l-0.216,-0.078l-0.029,-0.225Zm-0.272,0.34c-0.009,0.035 -0.019,0.069 -0.03,0.103l0.152,-0.083l-0.122,-0.02Zm0.137,-0.824c-0.007,0.104 -0.017,0.205 -0.031,0.305l0.14,-0.025l0.018,0.148l0.185,-0.2l-0.273,-0.307l-0.039,0.079Zm-2.805,0.353c-0.019,-0.126 -0.033,-0.257 -0.041,-0.39l-0.364,-0.064l0.405,0.454Zm2.815,-0.729c0,0.015 0,0.029 0.001,0.043l0.041,-0.022l0.011,-0.039l-0.053,0.018Z" style="fill:#a6aab4;stroke:#277891;stroke-width:0.5px;"/><path d="M18.489,56.87l0.029,-0.042l0.008,0.138c0.107,0.279 0.209,0.563 0.293,0.836l0.061,-0.046l0.334,0.386l0.376,-0.071l-0.151,0.332l0.382,0.443l-0.254,0.194l1.096,0.276l-1.175,0.423l0.396,0.242l-0.296,0.43l0.147,0.247l-0.3,-0.026l-0.365,0.527l-0.321,-0.196l0.057,1.037l-0.743,-0.863l-0.122,0.43l-0.61,-0.154l-0.17,0.173l-0.056,-0.23l-0.609,-0.153l0.122,-0.429l-1.103,0.397l0.603,-0.871l-0.383,0.019l-0.035,-0.627l-0.273,-0.119l0.258,-0.145l-0.029,-0.511l0.448,-0.022c0.001,-0.009 0.002,-0.018 0.002,-0.028l-0.769,-0.892l0.89,0.224c0.357,-1.4 1.353,-3.369 1.353,-3.369c-0,0 0.492,0.975 0.909,2.04Zm-0.795,3.659l-0.394,0.572l-0.038,-0.681l0.135,0.034l0.039,0.168l0.124,-0.126l0.134,0.033Zm0.558,0.225l-0.001,0.004l-0.172,-0.143l-0.296,0.107l-0.078,-0.19l0.167,0.042l0.056,-0.197l0.324,0.377Zm-1.326,-0.497c0.056,0.025 0.114,0.048 0.174,0.067l-0.015,0.052l0.167,0.042l-0.169,0.128l-0.2,-0.232l-0.225,0.042l0.002,-0.004l0.266,-0.095Zm1.625,0.001l0.067,0.163l-0.303,0.109l-0.016,-0.293l0.187,0.115l0.065,-0.094Zm0.231,-0.333l0.422,0.489l-0.647,-0.163l0.104,-0.151l0.177,0.015l-0.087,-0.145l0.031,-0.045Zm0.365,-0.469l0.004,0.002l-0.155,0.087l0.017,0.306l-0.185,0.01l0.103,-0.15l-0.055,-0.033c0.029,-0.049 0.054,-0.1 0.077,-0.152l0.194,-0.07Zm-2.934,0.085c0.021,0.048 0.044,0.094 0.071,0.138l-0.268,-0.067l0.197,-0.071Zm2.808,-0.93c-0.004,-0.026 -0.009,-0.052 -0.014,-0.078l0.09,-0.032l-0.076,0.11Z" style="fill:#a6aab4;stroke:#277891;stroke-width:0.5px;stroke-linecap:round;stroke-miterlimit:1.5;"/><path d="M43.221,61.457c-0.3,-0.62 -0.599,-1.13 -0.599,-1.13c0,0 -0.535,0.912 -0.889,1.779l-0.212,0.067l0.093,0.201l-0.876,-0.194l0.634,0.644l-0.379,0.016l0.023,0.358l-0.207,0.102l0.219,0.083l0.028,0.44l0.306,-0.013l-0.482,0.609l0.883,-0.278l-0.098,0.301l0.488,0.107l0.044,0.161l0.136,-0.121l0.489,0.107l0.098,-0.3l0.594,0.604l-0.046,-0.726l0.257,0.137l0.292,-0.369l0.24,0.018l-0.117,-0.173l0.237,-0.302l-0.317,-0.169l0.94,-0.297l-0.877,-0.193l0.203,-0.135l-0.305,-0.311l0.12,-0.232l-0.301,0.049l-0.267,-0.271l-0.074,0.049c-0.062,-0.152 -0.13,-0.304 -0.2,-0.453l-0.015,-0.245l-0.063,0.08Zm-0.924,2.735l0.012,0.178l0.121,-0.154c-0.045,-0.006 -0.089,-0.014 -0.133,-0.024Zm1.536,-0.304l-0.164,-0.166c-0.026,0.039 -0.055,0.076 -0.087,0.111l0.251,0.055Zm-2.407,-0.607l-0.145,0.045l0.152,0.034c-0.003,-0.026 -0.006,-0.053 -0.007,-0.079Zm2.271,-0.67l0.05,-0.063l-0.064,0.02c0.005,0.014 0.01,0.029 0.014,0.043Z" style="fill:#a6aab4;stroke:#277891;stroke-width:0.5px;stroke-linecap:round;stroke-miterlimit:1.5;"/><path d="M65.635,48.586c-0.216,-1.165 -0.65,-2.586 -0.65,-2.586c0,-0 -0.517,1.695 -0.703,2.9l-0.13,0.021l0.049,0.289l-0.734,-0.386l0.379,0.749l-0.27,-0.044l-0.057,0.415l-0.216,0.076l0.186,0.142l-0.057,0.416l0.27,0.044l-0.562,0.594l0.804,-0.132l-0.123,0.26l0.36,0.189l0.007,0.233l0.181,-0.135l0.372,0.195l0.12,-0.252l0.376,0.742l0.114,-0.835l0.206,0.211l0.284,-0.299l0.207,0.067l-0.067,-0.214l0.289,-0.305l-0.203,-0.206l0.793,-0.13l-0.723,-0.38l0.249,-0.132l-0.194,-0.385l0.122,-0.182l-0.216,-0.003l-0.192,-0.377l-0.173,0.092c-0.009,-0.09 -0.021,-0.184 -0.036,-0.282l0.07,-0.509l-0.132,0.139Zm-1.277,2.791l0.322,-0.339l-0.085,-0.043l-0.098,0.069l-0.003,-0.121l-0.071,-0.036l-0.065,0.47Zm0.366,-0.186l0.232,-0.038l-0.098,-0.187l-0.063,0.131l-0.095,-0.048l0.024,0.142Zm0.606,-0.261l0.418,0.219l-0.216,-0.425l-0.072,0.075l0.037,0.111l-0.112,-0.035l-0.055,0.055Zm-0.02,0.021l-0.077,0.079l-0.111,-0.11l-0.03,0.221l0.003,-0.011l0.238,-0.039l-0.023,-0.14Zm-1.036,0.004l0.119,-0.063l-0.094,-0.049l0.066,-0.135l-0.201,0.031l0.11,0.216Zm0.333,-0.229c0.02,0.02 0.041,0.037 0.062,0.054l-0.081,0.083l0.019,-0.137Zm0.912,-0.196l0.193,-0.03l-0.03,0.224l-0.129,-0.021l0.061,-0.062l-0.101,-0.101c0.002,-0.003 0.004,-0.006 0.006,-0.01Zm-1.422,0.077l0.137,-0.14l-0.145,-0.024l0.016,-0.125l-0.121,0.065l0.113,0.224Zm0.332,-0.114c0.006,0.01 0.012,0.02 0.018,0.03l-0.038,-0.001l0.02,-0.029Zm1.271,-0.414l0.069,0.011l-0.034,0.251l0.099,0.076l-0.207,-0.106c0.014,-0.035 0.027,-0.071 0.038,-0.108l0.01,-0.005l-0.005,-0.009c0.011,-0.036 0.021,-0.073 0.03,-0.11Zm-1.551,-0.079l-0.451,0.074l0.412,0.216l0.008,-0.063l-0.1,-0.074l0.116,-0.04l0.015,-0.113Zm0.146,0.171c0.005,0.018 0.011,0.035 0.017,0.052l-0.082,-0.042l0.065,-0.01Zm-0.073,-0.415c0.004,0.052 0.009,0.103 0.016,0.153l-0.075,-0.012l-0.01,0.074l-0.099,-0.1l0.147,-0.155l0.021,0.04Zm1.506,0.178c0.01,-0.064 0.018,-0.13 0.022,-0.197l0.196,-0.032l-0.218,0.229Zm-1.512,-0.368c0,0.007 0,0.015 0,0.022l-0.022,-0.012l-0.006,-0.019l0.028,0.009Z" style="fill:#a6aab4;stroke:#277891;stroke-width:0.5px;"/><path d="M28.681,63.927c0.505,-1.402 1.246,-2.856 1.246,-2.856c-0,-0 0.753,1.48 1.258,2.893l0.263,-0.116l-0.047,0.305l0.52,0.344l-0.262,0.331l1.28,0.005l-1.016,0.669l0.41,0.123l-0.198,0.56l0.247,0.232l-0.346,0.053l-0.193,0.544l-0.421,-0.126l0.405,1.112l-1.036,-0.684l0.003,0.389l-0.638,-0.002l-0.165,0.29l-0.17,-0.291l-0.637,-0.002l-0.004,-0.39l-1.024,0.675l0.388,-1.108l-0.42,0.123l-0.198,-0.547l-0.348,-0.056l0.244,-0.228l-0.206,-0.564l0.409,-0.118l-1.025,-0.678l1.28,0.005l-0.269,-0.332l0.518,-0.34l-0.051,-0.306l0.203,0.091Zm1.386,3.222l-0.097,0.277l-0.099,-0.273c0.019,0.001 0.037,0.001 0.056,0.001c0.047,-0 0.094,-0.002 0.14,-0.005Zm1.522,-1.011l0.168,0.111l-0.207,-0.001c0.015,-0.036 0.028,-0.073 0.039,-0.11Zm-3.421,0.096l0.104,-0.068c0.007,0.023 0.016,0.046 0.025,0.069l-0.129,-0.001Z" style="fill:#a6aab4;stroke:#277891;stroke-width:0.5px;"/><path d="M66.641,61.264l0.043,-0.089l0.012,0.289c0.158,0.584 0.307,1.177 0.432,1.747l0.089,-0.097l0.491,0.808l0.554,-0.148l-0.222,0.693l0.562,0.927l-0.374,0.405l1.614,0.576l-1.73,0.885l0.584,0.505l-0.437,0.9l0.216,0.516l-0.441,-0.054l-0.537,1.102l-0.473,-0.409l0.085,2.166l-1.095,-1.803l-0.18,0.897l-0.898,-0.321l-0.251,0.361l-0.081,-0.48l-0.897,-0.319l0.18,-0.898l-1.626,0.831l0.888,-1.821l-0.563,0.04l-0.052,-1.311l-0.402,-0.248l0.38,-0.303l-0.042,-1.069l0.66,-0.045c0,-0.02 0.001,-0.039 0.002,-0.059l-1.132,-1.864l1.31,0.468c0.526,-2.927 1.992,-7.042 1.992,-7.042c-0,-0 0.725,2.037 1.339,4.264Zm-1.17,7.647l-0.581,1.197l-0.056,-1.424l0.199,0.071l0.058,0.351l0.183,-0.263l0.197,0.068Zm0.822,0.47l-0.002,0.009l-0.253,-0.299l-0.437,0.223l-0.114,-0.396l0.245,0.087l0.083,-0.411l0.478,0.787Zm-1.953,-1.039c0.083,0.054 0.168,0.102 0.256,0.142l-0.022,0.108l0.246,0.088l-0.249,0.267l-0.295,-0.484l-0.332,0.087l0.004,-0.008l0.392,-0.2Zm2.393,0.004l0.098,0.34l-0.446,0.228l-0.023,-0.612l0.275,0.24l0.096,-0.196Zm0.34,-0.697l0.621,1.022l-0.953,-0.34l0.153,-0.315l0.262,0.031l-0.129,-0.305l0.046,-0.093Zm0.537,-0.98l0.006,0.005l-0.229,0.181l0.025,0.639l-0.272,0.021l0.152,-0.313l-0.08,-0.069c0.042,-0.102 0.079,-0.208 0.112,-0.317l0.286,-0.147Zm-4.321,0.178c0.031,0.099 0.066,0.195 0.104,0.289l-0.394,-0.141l0.29,-0.148Zm4.135,-1.945c-0.006,-0.054 -0.013,-0.108 -0.02,-0.163l0.132,-0.067l-0.112,0.23Z" style="fill:#a6aab4;stroke:#277891;stroke-width:0.57px;stroke-linecap:round;stroke-miterlimit:1.5;"/><path d="M76.61,46.663l-0.013,-0.035l-0.003,0.113c-0.048,0.227 -0.092,0.459 -0.129,0.681l-0.027,-0.038l-0.147,0.315l-0.166,-0.058l0.066,0.271l-0.168,0.361l0.112,0.158l-0.483,0.225l0.518,0.345l-0.175,0.197l0.131,0.351l-0.065,0.201l0.132,-0.021l0.161,0.429l0.141,-0.159l-0.025,0.845l0.328,-0.704l0.054,0.351l0.269,-0.126l0.075,0.141l0.024,-0.187l0.269,-0.125l-0.054,-0.35l0.487,0.324l-0.266,-0.71l0.169,0.016l0.015,-0.511l0.121,-0.097l-0.114,-0.118l0.012,-0.417l-0.197,-0.018c-0.001,-0.007 -0.001,-0.015 -0.001,-0.023l0.339,-0.727l-0.392,0.183c-0.158,-1.141 -0.597,-2.746 -0.597,-2.746c0,0 -0.217,0.794 -0.401,1.663Zm0.351,2.982l0.174,0.466l0.016,-0.555l-0.059,0.028l-0.017,0.136l-0.055,-0.102l-0.059,0.027Zm-0.247,0.183l0.001,0.003l0.076,-0.116l0.131,0.087l0.034,-0.155l-0.074,0.034l-0.025,-0.16l-0.143,0.307Zm0.585,-0.405c-0.024,0.021 -0.05,0.039 -0.076,0.055l0.006,0.042l-0.073,0.034l0.074,0.105l0.088,-0.189l0.1,0.034l-0.001,-0.003l-0.118,-0.078Zm-0.716,0.001l-0.03,0.133l0.134,0.089l0.007,-0.239l-0.083,0.094l-0.028,-0.077Zm-0.102,-0.272l-0.186,0.399l0.285,-0.133l-0.046,-0.122l-0.078,0.012l0.039,-0.119l-0.014,-0.037Zm-0.161,-0.381l-0.002,0.001l0.069,0.071l-0.008,0.249l0.082,0.008l-0.046,-0.122l0.024,-0.027c-0.012,-0.04 -0.024,-0.081 -0.033,-0.124l-0.086,-0.056Zm1.294,0.069c-0.009,0.038 -0.02,0.076 -0.031,0.112l0.118,-0.055l-0.087,-0.057Zm-1.238,-0.759c0.002,-0.021 0.004,-0.042 0.006,-0.063l-0.04,-0.027l0.034,0.09Z" style="fill:#a6aab4;stroke:#277891;stroke-width:0.5px;stroke-linecap:round;stroke-miterlimit:1.5;"/><path d="M23.385,66.12c-0.439,-1.479 -0.879,-2.696 -0.879,-2.696c0,0 -0.786,2.177 -1.307,4.245l-0.311,0.16l0.137,0.479l-1.287,-0.461l0.931,1.536l-0.556,0.039l0.033,0.854l-0.303,0.243l0.321,0.198l0.041,1.049l0.45,-0.03l-0.709,1.454l1.298,-0.665l-0.144,0.718l0.717,0.256l0.065,0.384l0.2,-0.289l0.717,0.257l0.144,-0.718l0.874,1.443l-0.067,-1.733l0.377,0.327l0.429,-0.882l0.353,0.044l-0.173,-0.413l0.349,-0.719l-0.467,-0.404l1.382,-0.708l-1.289,-0.461l0.299,-0.324l-0.449,-0.741l0.178,-0.553l-0.443,0.117l-0.393,-0.648l-0.108,0.117c-0.092,-0.361 -0.192,-0.726 -0.294,-1.08l-0.023,-0.586l-0.093,0.191Zm-1.356,6.526l0.016,0.425l0.179,-0.367c-0.066,-0.014 -0.132,-0.034 -0.195,-0.058Zm2.256,-0.723l-0.241,-0.397c-0.038,0.093 -0.081,0.181 -0.128,0.265l0.369,0.132Zm-3.536,-1.45l-0.214,0.109l0.224,0.08c-0.005,-0.062 -0.009,-0.125 -0.01,-0.189Zm3.336,-1.599l0.073,-0.15l-0.093,0.047c0.007,0.035 0.014,0.069 0.02,0.103Z" style="fill:#a6aab4;stroke:#277891;stroke-width:0.5px;stroke-linecap:round;stroke-miterlimit:1.5;"/><path d="M12.789,63.408c0,0 0.451,1.858 0.737,3.575l0.084,-0.121l0.013,0.749c0.022,0.155 0.042,0.306 0.059,0.453l0.291,-0.219l0.367,0.487l0.336,-0.054l-0.146,0.307l0.377,0.503l-0.33,0.248l1.163,0.357l-1.169,0.4l0.358,0.251l-0.357,0.507l0.15,0.291l-0.325,-0.042l-0.362,0.516l-0.35,-0.246l0.02,1.222l-0.734,-0.976l-0.125,0.408l-0.603,-0.185l-0.232,0.233l-0.06,-0.323l-0.591,-0.182l0.127,-0.416l-1.169,0.401l0.7,-0.996l-0.415,0.007l-0.01,-0.627l-0.305,-0.154l0.3,-0.164l-0.01,-0.608l0.427,-0.007l-0.745,-0.991l1.175,0.36l-0.135,-0.391l0.582,-0.201l0.053,-0.343l0.04,0.037c0.272,-1.833 0.814,-4.066 0.814,-4.066Zm-0.22,7.533c-0.044,-0.021 -0.088,-0.048 -0.13,-0.081l-0.103,0.107l-0.033,-0.173l-0.112,-0.036l0.011,0.704l0.367,-0.521Zm0.427,0.005l0.028,0.038l-0.314,0.108l-0.039,-0.116c0.039,0.01 0.078,0.015 0.118,0.015c0.071,-0 0.14,-0.016 0.207,-0.045Zm1.046,-1.156l-0.379,0.131l0.187,0.135l-0.183,0.27l0.08,0.157l-0.17,-0.025l-0.186,0.275l-0.075,-0.053c-0.033,0.043 -0.068,0.083 -0.105,0.118l0.008,0.292l0.028,-0.183l0.351,-0.12l-0.081,-0.237l0.711,0.218l-0.451,-0.599l0.258,-0.004l-0.006,-0.368l0.013,-0.007Zm-1.892,0.955l-0.158,-0.052l0.065,-0.222l-0.31,0.106l0.015,-0.002l0.222,0.294l0.166,-0.124Zm-0.731,-0.626l0.216,0.286l0.173,-0.256l-0.216,0.002l-0.004,-0.16l-0.169,0.128Zm-0.502,-0.366l0.67,0.205l-0.004,-0.144l-0.16,-0.083l0.156,-0.086l-0.003,-0.119l-0.659,0.227Zm0.834,-0.035l0.122,-0.041c0.005,0.029 0.01,0.057 0.015,0.086l-0.137,-0.045Zm1.994,-0.936c0.006,0.105 0.009,0.204 0.009,0.296c-0,0.064 -0.002,0.128 -0.005,0.191l0.084,0.114l-0.098,0.075c-0.003,0.026 -0.006,0.052 -0.009,0.077l0.446,0.144l-0.146,-0.073l-0.006,-0.379l-0.251,0.004l0.423,-0.602l-0.447,0.153Zm-2.339,0.576l0.169,0.119l-0.005,-0.159l0.224,-0.001l-0.183,-0.249l-0.205,0.29Zm0.329,-0.468l0.1,-0.141c-0.004,0.059 -0.006,0.116 -0.008,0.171l-0.092,-0.03Z" style="fill:#a6aab4;stroke:#277891;stroke-width:0.5px;stroke-linecap:round;stroke-miterlimit:1.5;"/><path d="M18.375,44.571c-0,-0 0.401,1.387 0.655,2.67l0.076,-0.091l0.01,0.559c0.02,0.116 0.038,0.229 0.053,0.338l0.259,-0.163l0.326,0.364l0.299,-0.041l-0.129,0.23l0.335,0.375l-0.294,0.186l1.035,0.267l-1.039,0.299l0.317,0.187l-0.317,0.378l0.134,0.218l-0.289,-0.031l-0.322,0.385l-0.312,-0.184l0.017,0.912l-0.652,-0.728l-0.112,0.305l-0.536,-0.138l-0.206,0.173l-0.054,-0.241l-0.526,-0.136l0.114,-0.311l-1.041,0.3l0.623,-0.744l-0.369,0.005l-0.009,-0.468l-0.271,-0.115l0.266,-0.122l-0.009,-0.455l0.38,-0.005l-0.662,-0.74l1.045,0.269l-0.12,-0.293l0.518,-0.149l0.047,-0.257l0.036,0.028c0.241,-1.369 0.724,-3.036 0.724,-3.036Zm-0.196,5.625c-0.04,-0.015 -0.078,-0.035 -0.116,-0.06l-0.091,0.08l-0.03,-0.129l-0.099,-0.027l0.01,0.526l0.326,-0.39Zm0.38,0.005l0.025,0.028l-0.279,0.081l-0.036,-0.087c0.035,0.007 0.07,0.011 0.106,0.011c0.063,-0 0.125,-0.012 0.184,-0.033Zm0.931,-0.864l-0.338,0.097l0.167,0.102l-0.163,0.201l0.071,0.117l-0.151,-0.018l-0.166,0.206l-0.066,-0.041c-0.03,0.033 -0.061,0.062 -0.094,0.089l0.007,0.218l0.025,-0.137l0.313,-0.089l-0.072,-0.177l0.632,0.162l-0.401,-0.447l0.23,-0.003l-0.006,-0.275l0.012,-0.005Zm-1.684,0.713l-0.14,-0.039l0.057,-0.166l-0.275,0.079l0.013,-0.001l0.197,0.22l0.148,-0.093Zm-0.65,-0.468l0.192,0.214l0.154,-0.191l-0.192,0.002l-0.003,-0.12l-0.151,0.095Zm-0.447,-0.273l0.597,0.153l-0.004,-0.107l-0.142,-0.063l0.138,-0.064l-0.002,-0.088l-0.587,0.169Zm0.742,-0.026l0.109,-0.031c0.004,0.022 0.009,0.043 0.014,0.065l-0.123,-0.034Zm1.775,-0.699c0.004,0.078 0.007,0.152 0.007,0.221c-0,0.048 -0.002,0.096 -0.004,0.143l0.075,0.085l-0.088,0.056c-0.002,0.019 -0.005,0.038 -0.008,0.058l0.397,0.107l-0.13,-0.054l-0.005,-0.284l-0.223,0.003l0.376,-0.45l-0.397,0.115Zm-2.081,0.431l0.15,0.088l-0.005,-0.119l0.199,-0l-0.163,-0.186l-0.181,0.217Zm0.292,-0.35l0.089,-0.106c-0.003,0.044 -0.006,0.087 -0.007,0.128l-0.082,-0.022Z" style="fill:#a6aab4;stroke:#277891;stroke-width:0.5px;stroke-linecap:round;stroke-miterlimit:1.5;"/><path d="M34.793,52.396c0.316,-1.437 0.95,-3.191 0.95,-3.191c0,-0 0.757,2.092 1.029,3.579l0.19,0.026l-0.072,0.357l1.074,-0.476l-0.554,0.923l0.395,-0.054l0.083,0.513l0.316,0.094l-0.272,0.175l0.083,0.513l-0.395,0.054l0.823,0.733l-1.177,-0.163l0.181,0.321l-0.528,0.234l-0.01,0.287l-0.265,-0.166l-0.544,0.241l-0.175,-0.311l-0.55,0.915l-0.166,-1.03l-0.303,0.261l-0.415,-0.37l-0.303,0.083l0.099,-0.265l-0.423,-0.376l0.296,-0.254l-1.16,-0.161l1.058,-0.468l-0.364,-0.164l0.284,-0.474l-0.178,-0.226l0.316,-0.003l0.28,-0.466l0.253,0.114c0.014,-0.11 0.032,-0.227 0.053,-0.348l-0.102,-0.628l0.193,0.171Zm1.867,3.446l-0.47,-0.419l0.125,-0.053l0.142,0.085l0.005,-0.149l0.104,-0.045l0.094,0.581Zm-0.534,-0.23l-0.341,-0.047l0.144,-0.231l0.093,0.162l0.139,-0.06l-0.035,0.176Zm-0.888,-0.322l-0.611,0.27l0.316,-0.525l0.106,0.092l-0.054,0.138l0.164,-0.043l0.079,0.068Zm0.03,0.025l0.112,0.098l0.163,-0.136l0.044,0.273l-0.004,-0.013l-0.349,-0.049l0.034,-0.173Zm1.515,0.006l-0.174,-0.079l0.138,-0.059l-0.097,-0.167l0.294,0.038l-0.161,0.267Zm-0.486,-0.283c-0.03,0.024 -0.06,0.046 -0.092,0.066l0.119,0.103l-0.027,-0.169Zm-1.335,-0.242l-0.283,-0.037l0.045,0.276l0.188,-0.025l-0.089,-0.077l0.148,-0.124c-0.003,-0.004 -0.006,-0.009 -0.009,-0.013Zm2.08,0.095l-0.2,-0.173l0.212,-0.029l-0.024,-0.154l0.178,0.08l-0.166,0.276Zm-0.485,-0.141c-0.009,0.012 -0.017,0.025 -0.026,0.037l0.055,-0.001l-0.029,-0.036Zm-1.859,-0.511l-0.101,0.014l0.05,0.31l-0.145,0.093l0.302,-0.13c-0.02,-0.043 -0.039,-0.088 -0.056,-0.133l-0.014,-0.006l0.008,-0.012c-0.016,-0.044 -0.031,-0.09 -0.044,-0.136Zm2.268,-0.098l0.661,0.092l-0.603,0.267l-0.013,-0.078l0.147,-0.092l-0.169,-0.048l-0.023,-0.141Zm-0.214,0.212c-0.007,0.022 -0.015,0.043 -0.023,0.064l0.119,-0.051l-0.096,-0.013Zm0.108,-0.513c-0.006,0.065 -0.014,0.128 -0.025,0.19l0.11,-0.016l0.015,0.093l0.145,-0.125l-0.214,-0.191l-0.031,0.049Zm-2.204,0.22c-0.015,-0.079 -0.025,-0.16 -0.032,-0.243l-0.286,-0.04l0.318,0.283Zm2.212,-0.454c-0,0.009 -0,0.018 0,0.027l0.032,-0.014l0.009,-0.024l-0.041,0.011Z" style="fill:#a6aab4;stroke:#277891;stroke-width:0.5px;"/><path d="M82.195,49.764c-0.318,-1.947 -0.957,-4.323 -0.957,-4.323c0,0 -0.761,2.834 -1.035,4.848l-0.191,0.036l0.072,0.482l-1.082,-0.644l0.558,1.251l-0.397,-0.074l-0.084,0.695l-0.318,0.128l0.274,0.237l-0.083,0.694l0.397,0.074l-0.829,0.993l1.185,-0.221l-0.182,0.435l0.531,0.316l0.01,0.39l0.267,-0.225l0.548,0.326l0.176,-0.422l0.554,1.24l0.168,-1.395l0.304,0.353l0.418,-0.5l0.305,0.111l-0.1,-0.358l0.426,-0.509l-0.298,-0.345l1.168,-0.218l-1.065,-0.634l0.366,-0.222l-0.286,-0.642l0.18,-0.306l-0.318,-0.004l-0.282,-0.631l-0.255,0.155c-0.014,-0.15 -0.032,-0.308 -0.053,-0.472l0.102,-0.851l-0.194,0.232Zm-1.88,4.667l0.474,-0.567l-0.126,-0.072l-0.143,0.115l-0.005,-0.202l-0.105,-0.06l-0.095,0.786Zm0.538,-0.311l0.343,-0.064l-0.144,-0.312l-0.094,0.219l-0.14,-0.081l0.035,0.238Zm0.894,-0.437l0.615,0.367l-0.318,-0.711l-0.107,0.125l0.054,0.186l-0.165,-0.059l-0.079,0.092Zm-0.03,0.035l-0.113,0.132l-0.164,-0.184l-0.045,0.369l0.005,-0.017l0.351,-0.066l-0.034,-0.234Zm-1.526,0.007l0.176,-0.106l-0.139,-0.081l0.097,-0.226l-0.295,0.052l0.161,0.361Zm0.49,-0.382c0.03,0.032 0.061,0.062 0.092,0.089l-0.12,0.139l0.028,-0.228Zm1.344,-0.328l0.284,-0.051l-0.045,0.375l-0.189,-0.035l0.089,-0.104l-0.148,-0.168c0.003,-0.006 0.006,-0.011 0.009,-0.017Zm-2.094,0.128l0.201,-0.234l-0.214,-0.04l0.025,-0.208l-0.18,0.108l0.168,0.374Zm0.488,-0.191c0.009,0.017 0.017,0.034 0.026,0.05l-0.056,-0.001l0.03,-0.049Zm1.871,-0.692l0.103,0.019l-0.051,0.42l0.146,0.126l-0.304,-0.176c0.02,-0.059 0.039,-0.119 0.056,-0.181l0.014,-0.008l-0.007,-0.016c0.016,-0.06 0.03,-0.121 0.043,-0.184Zm-2.283,-0.132l-0.665,0.124l0.607,0.362l0.013,-0.106l-0.148,-0.124l0.17,-0.066l0.023,-0.19Zm0.215,0.287c0.008,0.029 0.016,0.058 0.024,0.087l-0.12,-0.07l0.096,-0.017Zm-0.108,-0.695c0.006,0.087 0.014,0.173 0.025,0.257l-0.111,-0.021l-0.015,0.125l-0.145,-0.169l0.215,-0.259l0.031,0.067Zm2.219,0.298c0.015,-0.107 0.025,-0.217 0.032,-0.33l0.288,-0.053l-0.32,0.383Zm-2.227,-0.615c0,0.012 -0,0.024 -0,0.036l-0.033,-0.019l-0.009,-0.033l0.042,0.016Z" style="fill:#a6aab4;stroke:#277891;stroke-width:0.5px;"/><path d="M52.508,44.674l-0.024,-0.036l-0.006,0.116c-0.085,0.236 -0.165,0.475 -0.232,0.705l-0.047,-0.039l-0.264,0.326l-0.298,-0.059l0.119,0.279l-0.301,0.374l0.2,0.164l-0.866,0.232l0.929,0.357l-0.314,0.204l0.235,0.363l-0.116,0.208l0.237,-0.022l0.288,0.445l0.254,-0.165l-0.045,0.874l0.587,-0.728l0.097,0.362l0.483,-0.129l0.134,0.145l0.044,-0.193l0.482,-0.129l-0.097,-0.362l0.873,0.335l-0.477,-0.735l0.303,0.016l0.027,-0.528l0.216,-0.101l-0.204,-0.122l0.023,-0.431l-0.355,-0.018c-0,-0.008 -0.001,-0.016 -0.001,-0.024l0.608,-0.752l-0.703,0.188c-0.283,-1.18 -1.07,-2.841 -1.07,-2.841c-0,0 -0.39,0.822 -0.719,1.721Zm0.628,3.085l0.312,0.483l0.03,-0.574l-0.107,0.028l-0.031,0.142l-0.098,-0.106l-0.106,0.027Zm-0.441,0.19l0,0.003l0.137,-0.12l0.234,0.09l0.062,-0.16l-0.132,0.035l-0.045,-0.166l-0.256,0.318Zm1.048,-0.419c-0.044,0.021 -0.09,0.041 -0.137,0.057l0.012,0.043l-0.132,0.036l0.133,0.108l0.159,-0.196l0.178,0.036l-0.002,-0.004l-0.211,-0.08Zm-1.285,0.001l-0.053,0.137l0.24,0.092l0.013,-0.247l-0.148,0.097l-0.052,-0.079Zm-0.182,-0.281l-0.334,0.412l0.512,-0.137l-0.082,-0.127l-0.141,0.013l0.069,-0.123l-0.024,-0.038Zm-0.288,-0.395l-0.004,0.001l0.123,0.074l-0.013,0.257l0.146,0.009l-0.082,-0.126l0.043,-0.028c-0.022,-0.042 -0.043,-0.084 -0.06,-0.128l-0.153,-0.059Zm2.32,0.071c-0.017,0.04 -0.036,0.079 -0.056,0.117l0.212,-0.057l-0.156,-0.06Zm-2.221,-0.784c0.003,-0.022 0.007,-0.044 0.011,-0.066l-0.071,-0.027l0.06,0.093Z" style="fill:#a6aab4;stroke:#277891;stroke-width:0.5px;stroke-linecap:round;stroke-miterlimit:1.5;"/><path d="M12.407,47.012c0.237,-0.523 0.473,-0.953 0.473,-0.953c0,0 0.423,0.769 0.704,1.5l0.168,0.057l-0.075,0.169l0.694,-0.163l-0.502,0.543l0.3,0.014l-0.018,0.302l0.163,0.085l-0.173,0.07l-0.022,0.371l-0.242,-0.011l0.381,0.514l-0.698,-0.235l0.077,0.254l-0.385,0.09l-0.035,0.136l-0.108,-0.102l-0.386,0.091l-0.078,-0.254l-0.47,0.51l0.036,-0.612l-0.203,0.115l-0.231,-0.311l-0.19,0.015l0.093,-0.146l-0.187,-0.254l0.251,-0.143l-0.744,-0.25l0.694,-0.163l-0.161,-0.114l0.242,-0.262l-0.096,-0.196l0.238,0.042l0.211,-0.229l0.059,0.041c0.049,-0.128 0.103,-0.256 0.158,-0.382l0.012,-0.207l0.05,0.068Zm0.73,2.306l-0.009,0.15l-0.096,-0.129c0.036,-0.006 0.071,-0.012 0.105,-0.021Zm-1.214,-0.256l0.13,-0.14c0.02,0.033 0.043,0.064 0.069,0.094l-0.199,0.046Zm1.903,-0.512l0.115,0.039l-0.12,0.028c0.003,-0.022 0.005,-0.044 0.005,-0.067Zm-1.796,-0.565l-0.039,-0.053l0.05,0.017c-0.003,0.012 -0.007,0.024 -0.011,0.036Z" style="fill:#a6aab4;stroke:#277891;stroke-width:0.5px;stroke-linecap:round;stroke-miterlimit:1.5;"/><path d="M84.498,58.181c0.171,-0.982 0.514,-2.181 0.514,-2.181c-0,-0 0.409,1.43 0.556,2.446l0.102,0.018l-0.038,0.243l0.58,-0.325l-0.299,0.631l0.213,-0.037l0.045,0.35l0.171,0.065l-0.147,0.119l0.045,0.351l-0.214,0.037l0.445,0.501l-0.636,-0.112l0.098,0.22l-0.285,0.159l-0.006,0.197l-0.143,-0.114l-0.294,0.165l-0.095,-0.213l-0.297,0.625l-0.09,-0.703l-0.164,0.178l-0.224,-0.253l-0.164,0.057l0.053,-0.181l-0.228,-0.257l0.16,-0.174l-0.627,-0.11l0.572,-0.319l-0.197,-0.112l0.154,-0.324l-0.097,-0.155l0.171,-0.002l0.151,-0.318l0.137,0.078c0.008,-0.076 0.017,-0.155 0.029,-0.238l-0.055,-0.429l0.104,0.117Zm1.009,2.354l-0.254,-0.286l0.068,-0.036l0.077,0.058l0.002,-0.102l0.056,-0.031l0.051,0.397Zm-0.289,-0.157l-0.183,-0.032l0.077,-0.158l0.051,0.111l0.074,-0.041l-0.019,0.12Zm-0.479,-0.22l-0.331,0.185l0.171,-0.359l0.058,0.063l-0.03,0.094l0.089,-0.03l0.043,0.047Zm0.016,0.017l0.061,0.067l0.088,-0.093l0.024,0.186l-0.003,-0.008l-0.189,-0.033l0.019,-0.119Zm0.819,0.004l-0.094,-0.054l0.074,-0.04l-0.052,-0.114l0.159,0.026l-0.087,0.182Zm-0.263,-0.193c-0.016,0.016 -0.032,0.031 -0.049,0.045l0.064,0.07l-0.015,-0.115Zm-0.722,-0.165l-0.152,-0.026l0.024,0.189l0.102,-0.018l-0.049,-0.052l0.08,-0.085c-0.001,-0.003 -0.003,-0.005 -0.005,-0.008Zm1.125,0.064l-0.108,-0.118l0.115,-0.02l-0.014,-0.105l0.097,0.055l-0.09,0.188Zm-0.262,-0.096c-0.005,0.009 -0.01,0.017 -0.014,0.025l0.03,-0l-0.016,-0.025Zm-1.005,-0.349l-0.055,0.01l0.027,0.211l-0.078,0.064l0.163,-0.089c-0.011,-0.029 -0.021,-0.06 -0.03,-0.091l-0.008,-0.004l0.004,-0.008c-0.008,-0.03 -0.016,-0.061 -0.023,-0.093Zm1.226,-0.067l0.357,0.063l-0.326,0.182l-0.007,-0.053l0.08,-0.063l-0.092,-0.033l-0.012,-0.096Zm-0.116,0.145c-0.004,0.015 -0.008,0.029 -0.013,0.044l0.065,-0.036l-0.052,-0.008Zm0.058,-0.351c-0.003,0.044 -0.007,0.088 -0.013,0.13l0.06,-0.011l0.007,0.063l0.079,-0.085l-0.116,-0.13l-0.017,0.033Zm-1.191,0.151c-0.008,-0.054 -0.014,-0.11 -0.017,-0.167l-0.155,-0.027l0.172,0.194Zm1.196,-0.311c-0,0.007 -0,0.013 -0,0.019l0.017,-0.01l0.005,-0.016l-0.022,0.007Z" style="fill:#a6aab4;stroke:#277891;stroke-width:0.5px;"/><path d="M59.58,49.652c0,-0 -0.557,1.139 -1.034,2.393l-0.016,-0.021l0.003,0.056c-0.151,0.4 -0.294,0.809 -0.407,1.197l-0.197,0.331l-0.327,-0.034l0.16,0.311l-0.328,0.549l0.334,0.236l-1.094,0.456l1.148,0.334l-0.325,0.286l0.373,0.502l-0.124,0.315l0.31,-0.067l0.382,0.512l0.319,-0.282l0.062,1.274l0.64,-1.07l0.148,0.418l0.565,-0.236l0.237,0.225l0.037,-0.34l0.556,-0.231l-0.15,-0.425l1.148,0.334l-0.737,-0.989l0.398,-0.022l-0.031,-0.655l0.28,-0.181l-0.296,-0.149l-0.031,-0.636l-0.358,0.021c-0.004,-0.021 -0.008,-0.043 -0.012,-0.065l0.609,-1.019l-0.78,0.326c-0.469,-1.624 -1.462,-3.654 -1.462,-3.654Zm0.635,7.073l-0.025,-0.534c-0.099,0.037 -0.203,0.066 -0.31,0.085l0.335,0.449Zm-0.9,-0.443l-0.079,0.134l0.111,-0.13c-0.01,-0.001 -0.021,-0.003 -0.032,-0.004Zm0.115,0.013l0.274,0.079l0.019,-0.078c-0.047,0.004 -0.095,0.006 -0.143,0.006c-0.05,-0 -0.101,-0.002 -0.15,-0.007Zm-1.021,-0.454l-0.183,0.306l0.37,-0.154c-0.066,-0.046 -0.129,-0.097 -0.187,-0.152Zm2.928,-0.991l-0.067,-0.019c-0.002,0.017 -0.005,0.034 -0.007,0.05l0.074,-0.031Z" style="fill:#a6aab4;stroke:#277891;stroke-width:0.5px;"/><path d="M36.829,53.598c0.558,-1.228 1.114,-2.239 1.114,-2.239c0,0 0.997,1.809 1.657,3.526l0.395,0.133l-0.175,0.398l1.633,-0.383l-1.181,1.276l0.705,0.032l-0.043,0.71l0.385,0.201l-0.407,0.165l-0.052,0.871l-0.57,-0.025l0.898,1.208l-1.645,-0.552l0.182,0.596l-0.907,0.213l-0.083,0.319l-0.253,-0.24l-0.91,0.213l-0.182,-0.596l-1.108,1.198l0.086,-1.439l-0.479,0.271l-0.543,-0.732l-0.447,0.036l0.219,-0.342l-0.442,-0.598l0.591,-0.336l-1.751,-0.588l1.633,-0.383l-0.378,-0.269l0.569,-0.615l-0.225,-0.46l0.56,0.098l0.498,-0.539l0.137,0.098c0.117,-0.301 0.244,-0.603 0.373,-0.898l0.029,-0.487l0.117,0.159Zm1.72,5.422l-0.021,0.353l-0.227,-0.306c0.085,-0.011 0.167,-0.028 0.248,-0.047Zm-2.859,-0.602l0.304,-0.329c0.049,0.077 0.104,0.15 0.163,0.22l-0.467,0.109Zm4.481,-1.204l0.271,0.091l-0.285,0.066c0.007,-0.052 0.012,-0.104 0.014,-0.157Zm-4.229,-1.328l-0.092,-0.125l0.118,0.04c-0.009,0.028 -0.017,0.057 -0.026,0.085Z" style="fill:#a6aab4;stroke:#277891;stroke-width:0.5px;stroke-linecap:round;stroke-miterlimit:1.5;"/></svg>