<?xml version="1.0" encoding="UTF-8" standalone="no"?><!DOCTYPE svg PUBLIC "-//W3C//DTD SVG 1.1//EN" "http://www.w3.org/Graphics/SVG/1.1/DTD/svg11.dtd"><svg width="100%" height="100%" viewBox="0 0 100 100" version="1.1" xmlns="http://www.w3.org/2000/svg" xmlns:xlink="http://www.w3.org/1999/xlink" xml:space="preserve" xmlns:serif="http://www.serif.com/" style="fill-rule:evenodd;clip-rule:evenodd;stroke-linejoin:round;stroke-miterlimit:2;"><g><path d="M78.618,30.664l-1.889,-0.506c0.09,-0.142 0.182,-0.284 0.228,-0.455c0.237,-0.885 -0.297,-1.796 -1.191,-2.035c-0.893,-0.24 -1.809,0.285 -2.045,1.168c-0.046,0.171 -0.04,0.339 -0.03,0.508l-6.19,-1.659c0.09,-0.142 0.182,-0.283 0.228,-0.455c0.236,-0.885 -0.297,-1.795 -1.192,-2.035c-0.89,-0.239 -1.809,0.285 -2.046,1.167c-0.046,0.172 -0.038,0.34 -0.028,0.509l-6.191,-1.659c0.09,-0.142 0.18,-0.284 0.226,-0.455c0.237,-0.885 -0.294,-1.795 -1.187,-2.034c-0.893,-0.24 -1.809,0.284 -2.046,1.167c-0.046,0.172 -0.04,0.339 -0.031,0.508l-6.192,-1.659c0.091,-0.142 0.183,-0.283 0.228,-0.455c0.237,-0.885 -0.296,-1.795 -1.187,-2.034c-0.893,-0.239 -1.811,0.284 -2.047,1.167c-0.046,0.172 -0.041,0.339 -0.032,0.508l-6.19,-1.659c0.092,-0.141 0.183,-0.283 0.229,-0.455c0.237,-0.884 -0.295,-1.794 -1.188,-2.034c-0.893,-0.239 -1.81,0.285 -2.047,1.168c-0.046,0.171 -0.04,0.339 -0.031,0.507l-1.893,-0.507c-2.553,-0.684 -5.176,0.815 -5.853,3.342l-11.605,43.311c-0.678,2.529 0.845,5.136 3.398,5.821l38.511,10.319l12.462,-7.115l10.219,-38.139c0.677,-2.525 -0.845,-5.136 -3.398,-5.82Zm-9.067,42.247l-0.662,0.378l-3.961,-1.062c-1.853,-0.496 -3.766,0.598 -4.257,2.431l-1.051,3.923l-0.662,0.377l-37.464,-10.038c-1.159,-0.311 -1.853,-1.498 -1.545,-2.646l11.159,-41.645l47.939,12.845l-9.496,35.437Z" style="fill-rule:nonzero;"/><path d="M48.989,33.946l-5.948,-1.594l-1.578,5.891l5.947,1.593l1.579,-5.89Z"/><path d="M56.92,36.071l-5.948,-1.594l-1.578,5.891l5.947,1.593l1.579,-5.89Z"/><path d="M64.849,38.196l-5.946,-1.594l-1.578,5.891l5.946,1.593l1.578,-5.89Z"/><path d="M72.783,40.322l-5.949,-1.595l-1.579,5.891l5.95,1.594l1.578,-5.89Z"/><path d="M38.953,39.675l-5.949,-1.594l-1.579,5.892l5.95,1.594l1.578,-5.892Z"/><path d="M46.884,41.8l-5.948,-1.593l-1.578,5.892l5.947,1.593l1.579,-5.892Z"/><path d="M54.815,43.925l-5.948,-1.593l-1.578,5.892l5.947,1.593l1.579,-5.892Z"/><path d="M62.744,46.05l-5.946,-1.593l-1.579,5.892l5.947,1.593l1.578,-5.892Z"/><path d="M70.679,48.176l-5.95,-1.594l-1.579,5.892l5.95,1.594l1.579,-5.892Z"/><path d="M36.849,47.53l-5.95,-1.595l-1.579,5.892l5.95,1.595l1.579,-5.892Z"/><path d="M44.78,49.655l-5.948,-1.594l-1.579,5.892l5.948,1.594l1.579,-5.892Z"/><path d="M52.711,51.78l-5.948,-1.594l-1.579,5.892l5.948,1.594l1.579,-5.892Z"/><path d="M60.64,53.904l-5.946,-1.593l-1.579,5.892l5.946,1.593l1.579,-5.892Z"/><path d="M68.574,56.03l-5.949,-1.594l-1.579,5.892l5.949,1.594l1.579,-5.892Z"/><path d="M34.744,55.384l-5.949,-1.594l-1.579,5.89l5.95,1.594l1.578,-5.89Z"/><path d="M42.675,57.509l-5.948,-1.594l-1.578,5.891l5.948,1.593l1.578,-5.89Z"/><path d="M50.606,59.634l-5.948,-1.594l-1.578,5.891l5.948,1.593l1.578,-5.89Z"/><path d="M58.535,61.759l-5.946,-1.594l-1.578,5.891l5.946,1.593l1.578,-5.89Z"/><path d="M66.469,63.885l-5.949,-1.595l-1.578,5.891l5.949,1.594l1.578,-5.89Z"/><path d="M40.306,66.344l-13.879,-3.719l-0.789,2.945l13.879,3.719l0.789,-2.945Z"/></g><path d="M15.246,67.265c-1.125,-2.269 -2.043,-4.683 -2.724,-7.223c-0.681,-2.54 -1.092,-5.089 -1.252,-7.617l-9.717,0c0.169,3.356 0.694,6.748 1.6,10.128c0.905,3.379 2.147,6.579 3.678,9.571l8.415,-4.859Zm0.012,-34.523l-8.412,-4.857c-3.101,6.046 -4.946,12.748 -5.295,19.69l9.718,-0c0.327,-5.215 1.711,-10.253 3.989,-14.833Zm13.284,49.575c-4.263,-2.827 -7.98,-6.498 -10.872,-10.851l-8.415,4.858c3.773,5.839 8.722,10.72 14.43,14.405l4.857,-8.412Zm-0.008,-64.647l-4.858,-8.415c-5.839,3.773 -10.72,8.722 -14.405,14.43l8.412,4.857c2.827,-4.263 6.498,-7.98 10.851,-10.872Zm19.041,71.061c-5.215,-0.327 -10.253,-1.711 -14.833,-3.989l-4.857,8.412c6.046,3.101 12.748,4.946 19.69,5.295l0,-9.718Zm-0,-87.178c-3.356,0.169 -6.748,0.694 -10.128,1.6c-3.379,0.905 -6.579,2.147 -9.571,3.678l4.859,8.415c2.269,-1.125 4.683,-2.043 7.223,-2.724c2.54,-0.681 5.089,-1.092 7.617,-1.252l-0,-9.717Zm24.549,91.616l-4.859,-8.415c-2.269,1.125 -4.683,2.043 -7.223,2.724c-2.54,0.681 -5.089,1.092 -7.617,1.252l0,9.717c3.356,-0.169 6.748,-0.694 10.128,-1.6c3.379,-0.905 6.579,-2.147 9.571,-3.678Zm-0.009,-86.323c-6.046,-3.101 -12.748,-4.946 -19.69,-5.295l-0,9.718c5.215,0.327 10.253,1.711 14.833,3.989l4.691,-3.274l0.166,-5.138Zm18.614,69.469l-8.412,-4.857c-2.827,4.263 -6.498,7.98 -10.851,10.872l4.858,8.415c5.839,-3.773 10.72,-8.722 14.405,-14.43Zm-24.416,-57.253l8.482,-5.824l0.568,-10.705l10.373,17.807l-19.423,-1.278Zm32.136,33.363l-9.718,-0c-0.327,5.215 -1.711,10.253 -3.989,14.833l8.412,4.857c3.101,-6.046 4.946,-12.748 5.295,-19.69Zm-5.28,-24.549l-3.463,3.532l-4.952,1.327c1.125,2.269 2.043,4.683 2.724,7.223c0.681,2.54 1.092,5.089 1.252,7.617l9.717,-0c-0.169,-3.356 -0.694,-6.748 -1.6,-10.128c-0.905,-3.379 -2.147,-6.579 -3.678,-9.571Z"/><g id="Layer_2_18_"></g></svg>