<?xml version="1.0" encoding="UTF-8" standalone="no"?><!DOCTYPE svg PUBLIC "-//W3C//DTD SVG 1.1//EN" "http://www.w3.org/Graphics/SVG/1.1/DTD/svg11.dtd"><svg width="100%" height="100%" viewBox="0 0 100 100" version="1.1" xmlns="http://www.w3.org/2000/svg" xmlns:xlink="http://www.w3.org/1999/xlink" xml:space="preserve" xmlns:serif="http://www.serif.com/" style="fill-rule:evenodd;clip-rule:evenodd;stroke-linecap:round;stroke-linejoin:round;stroke-miterlimit:1.5;"><path d="M88.988,61.063c-1.659,2.946 -5.099,4.961 -9.064,4.937c-4.686,-0.028 -8.62,-2.898 -9.729,-6.755c-3.815,2.318 -7.785,2.236 -9.863,-0.587c-0.391,-0.531 -0.695,-1.132 -0.913,-1.785c-0.482,0.122 -0.981,0.183 -1.492,0.183c-4.1,-0 -7.427,-4.007 -7.427,-8.945c-0,-4.937 3.327,-8.944 7.427,-8.944l0.101,0c0.701,-4.332 4.904,-7.667 9.979,-7.667c4.723,0 8.689,2.889 9.784,6.778c3.842,-2.334 8.805,-0.918 10.822,2.398c0.483,-0.117 0.984,-0.176 1.494,-0.173c4.102,0.025 7.411,4.053 7.393,8.988c-0.02,4.938 -3.364,8.926 -7.464,8.9l-0.101,0c-0.087,0.524 -0.225,1.032 -0.41,1.522c-0.462,-1.676 -0.973,-4.358 0.489,-4.358c0.023,0 0.046,0 0.071,0c2.675,-0.005 4.566,-2.845 4.579,-6.074c0.011,-3.247 -1.875,-6.124 -4.572,-6.142c-0.277,-0.001 -0.549,0.03 -0.812,0.093c-1.199,0.291 -2.448,-0.228 -3.09,-1.282c-1.288,-2.117 -4.474,-2.938 -6.927,-1.448c-0.758,0.46 -1.687,0.54 -2.512,0.215c-0.825,-0.325 -1.45,-1.017 -1.691,-1.871c-0.779,-2.772 -3.687,-4.71 -7.053,-4.71c-3.595,0 -6.683,2.216 -7.18,5.285c-0.222,1.373 -1.408,2.382 -2.799,2.382l-0.101,0c-2.695,0 -4.591,2.863 -4.591,6.108c0,3.246 1.896,6.109 4.591,6.109c0.273,-0 0.54,-0.032 0.797,-0.096c1.438,-0.364 2.913,0.442 3.384,1.849c0.123,0.366 0.288,0.706 0.508,1.004c1.285,1.745 3.748,1.277 6.107,-0.156c0.755,-0.459 1.681,-0.539 2.504,-0.218c0.824,0.322 1.45,1.009 1.694,1.859c0.791,2.751 3.677,4.682 7.02,4.702c3.593,0.021 6.688,-2.174 7.196,-5.237c-0.136,0.822 0.096,1.663 0.635,2.298c0.327,0.387 0.748,0.674 1.216,0.838Z"/><text x="8px" y="67.896px" style="font-family:'Arial-BoldMT', 'Arial', sans-serif;font-weight:700;font-size:50px;">%</text><path d="M63.074,53.216c-5.33,-4.996 2.013,-14.351 8.459,-8.535" style="fill:none;stroke:#000;stroke-width:3px;"/><path d="M69.79,49.576c1.984,-8.168 13.846,-7.785 16.42,-0.743" style="fill:none;stroke:#000;stroke-width:3px;"/></svg>