<?xml version="1.0" encoding="UTF-8" standalone="no"?><!DOCTYPE svg PUBLIC "-//W3C//DTD SVG 1.1//EN" "http://www.w3.org/Graphics/SVG/1.1/DTD/svg11.dtd"><svg width="100%" height="100%" viewBox="0 0 100 100" version="1.1" xmlns="http://www.w3.org/2000/svg" xmlns:xlink="http://www.w3.org/1999/xlink" xml:space="preserve" xmlns:serif="http://www.serif.com/" style="fill-rule:evenodd;clip-rule:evenodd;stroke-linejoin:round;stroke-miterlimit:2;"><path d="M100,49.932c0,-27.633 -22.404,-50.068 -50,-50.068c-27.596,0 -50,22.435 -50,50.068c0,27.633 22.404,50.068 50,50.068c27.596,-0 50,-22.435 50,-50.068Z" style="fill:#e0e0d5;"/><path d="M100,49.932c0,-27.633 -22.404,-50.068 -50,-50.068c-27.596,0 -50,22.435 -50,50.068c0,27.633 22.404,50.068 50,50.068c27.596,-0 50,-22.435 50,-50.068Zm-3,0c0,25.976 -21.059,47.068 -47,47.068c-25.941,-0 -47,-21.092 -47,-47.068c0,-25.976 21.059,-47.068 47,-47.068c25.941,0 47,21.092 47,47.068Z" style="fill:#122f41;"/><path d="M50.032,5c-0,0 -8.968,15.844 -8.968,22.635c-0,4.949 4.018,8.968 8.968,8.968c4.95,-0 8.968,-4.019 8.968,-8.968c-0,-6.791 -8.968,-22.635 -8.968,-22.635Z" style="fill:#122f41;"/><path d="M28,15.095c-0,-0 -6.5,11.483 -6.5,16.405c0,3.587 2.913,6.5 6.5,6.5c3.587,0 6.5,-2.913 6.5,-6.5c-0,-4.922 -6.5,-16.405 -6.5,-16.405Z" style="fill:#122f41;"/><path d="M71.5,15.095c0,-0 -6.5,11.483 -6.5,16.405c0,3.587 2.913,6.5 6.5,6.5c3.587,0 6.5,-2.913 6.5,-6.5c0,-4.922 -6.5,-16.405 -6.5,-16.405Z" style="fill:#122f41;"/><text x="21.547px" y="87.906px" style="font-family:'Arial-BoldMT', 'Arial', sans-serif;font-weight:700;font-size:64px;fill:#122f41;">%</text></svg>