<?xml version="1.0" encoding="UTF-8" standalone="no"?><!DOCTYPE svg PUBLIC "-//W3C//DTD SVG 1.1//EN" "http://www.w3.org/Graphics/SVG/1.1/DTD/svg11.dtd"><svg width="100%" height="100%" viewBox="0 0 100 100" version="1.1" xmlns="http://www.w3.org/2000/svg" xmlns:xlink="http://www.w3.org/1999/xlink" xml:space="preserve" xmlns:serif="http://www.serif.com/" style="fill-rule:evenodd;clip-rule:evenodd;stroke-linejoin:round;stroke-miterlimit:2;"><path d="M100,49.932c0,-27.633 -22.404,-50.068 -50,-50.068c-27.596,0 -50,22.435 -50,50.068c0,27.633 22.404,50.068 50,50.068c27.596,-0 50,-22.435 50,-50.068Z" style="fill:#122f41;"/><path d="M100,49.932c0,-27.633 -22.404,-50.068 -50,-50.068c-27.596,0 -50,22.435 -50,50.068c0,27.633 22.404,50.068 50,50.068c27.596,-0 50,-22.435 50,-50.068Zm-3,0c0,25.976 -21.059,47.068 -47,47.068c-25.941,-0 -47,-21.092 -47,-47.068c0,-25.976 21.059,-47.068 47,-47.068c25.941,0 47,21.092 47,47.068Z" style="fill:#122f41;"/><path d="M50,2.438l-5.132,14.026c-2.461,0.376 -4.873,1.022 -7.192,1.927l-11.457,-9.581l2.569,14.713c-1.943,1.556 -3.709,3.322 -5.265,5.265l-14.713,-2.569l9.581,11.457c-0.905,2.319 -1.551,4.731 -1.927,7.192l-14.026,5.132l14.026,5.132c0.376,2.461 1.022,4.873 1.927,7.192l-9.581,11.457l14.713,-2.569c1.556,1.943 3.322,3.709 5.265,5.265l-2.569,14.713l11.457,-9.581c2.319,0.905 4.731,1.551 7.192,1.927l5.132,14.026l5.132,-14.026c2.461,-0.376 4.873,-1.022 7.192,-1.927l11.457,9.581l-2.569,-14.713c1.943,-1.556 3.709,-3.322 5.265,-5.265l14.713,2.569l-9.581,-11.457c0.905,-2.319 1.551,-4.731 1.927,-7.192l14.027,-5.132l-14.027,-5.132c-0.376,-2.461 -1.022,-4.873 -1.927,-7.192l9.581,-11.457l-14.713,2.569c-1.556,-1.943 -3.322,-3.709 -5.265,-5.265l2.569,-14.713l-11.457,9.581c-2.319,-0.905 -4.731,-1.551 -7.192,-1.927l-5.132,-14.027Z" style="fill:#e0e0d5;"/><text x="24.995px" y="62.885px" style="font-family:'Arial-BoldMT', 'Arial', sans-serif;font-weight:700;font-size:36px;fill:#122f41;">UV</text></svg>