<?xml version="1.0" encoding="UTF-8" standalone="no"?><!DOCTYPE svg PUBLIC "-//W3C//DTD SVG 1.1//EN" "http://www.w3.org/Graphics/SVG/1.1/DTD/svg11.dtd"><svg width="100%" height="100%" viewBox="0 0 100 100" version="1.1" xmlns="http://www.w3.org/2000/svg" xmlns:xlink="http://www.w3.org/1999/xlink" xml:space="preserve" xmlns:serif="http://www.serif.com/" style="fill-rule:evenodd;clip-rule:evenodd;stroke-linecap:round;stroke-linejoin:round;stroke-miterlimit:1.5;"><path d="M14.197,21.207c7.509,1.163 13.433,7.087 14.596,14.596c0.04,0.263 0.372,0.263 0.414,0c1.163,-7.509 7.087,-13.433 14.596,-14.596c0.263,-0.04 0.263,-0.372 0,-0.414c-7.511,-1.163 -13.436,-7.087 -14.598,-14.596c-0.04,-0.263 -0.372,-0.263 -0.415,-0c-1.16,7.509 -7.084,13.433 -14.593,14.596c-0.263,0.04 -0.263,0.372 -0,0.414Z" style="fill:#ffffe0;fill-rule:nonzero;"/><path d="M14.197,21.207c7.509,1.163 13.433,7.087 14.596,14.596c0.04,0.263 0.372,0.263 0.414,0c1.163,-7.509 7.087,-13.433 14.596,-14.596c0.263,-0.04 0.263,-0.372 0,-0.414c-7.511,-1.163 -13.436,-7.087 -14.598,-14.596c-0.04,-0.263 -0.372,-0.263 -0.415,-0c-1.16,7.509 -7.084,13.433 -14.593,14.596c-0.263,0.04 -0.263,0.372 -0,0.414Zm14.802,-7.027c1.699,2.779 4.042,5.122 6.822,6.821c-2.78,1.699 -5.123,4.041 -6.821,6.821c-1.7,-2.781 -4.042,-5.124 -6.822,-6.822c2.78,-1.699 5.122,-4.041 6.821,-6.82Z" style="fill:#ffd700;"/><path d="M72.577,26.572c-3.336,-0.516 -5.968,-3.148 -6.485,-6.485c-0.017,-0.116 -0.167,-0.116 -0.184,-0c-0.516,3.336 -3.148,5.968 -6.485,6.485c-0.116,0.017 -0.116,0.166 0,0.184c3.336,0.515 5.968,3.147 6.485,6.484c0.017,0.116 0.167,0.116 0.184,0c0.516,-3.335 3.148,-5.967 6.485,-6.484c0.116,-0.018 0.116,-0.166 -0,-0.184Z" style="fill:#ffffe0;fill-rule:nonzero;"/><path d="M72.577,26.572c-3.336,-0.516 -5.968,-3.148 -6.485,-6.485c-0.017,-0.116 -0.167,-0.116 -0.184,-0c-0.516,3.336 -3.148,5.968 -6.485,6.485c-0.116,0.017 -0.116,0.166 0,0.184c3.336,0.515 5.968,3.147 6.485,6.484c0.017,0.116 0.167,0.116 0.184,0c0.516,-3.335 3.148,-5.967 6.485,-6.484c0.116,-0.018 0.116,-0.166 -0,-0.184Zm-6.576,-2.758c0.727,1.148 1.702,2.122 2.849,2.85c-1.148,0.728 -2.123,1.702 -2.851,2.849c-0.727,-1.148 -1.702,-2.122 -2.849,-2.85c1.148,-0.728 2.123,-1.702 2.851,-2.849Z" style="fill:#ffd700;"/><path d="M89.935,14.931c-2.484,-0.387 -4.444,-2.363 -4.827,-4.865c-0.014,-0.088 -0.124,-0.088 -0.137,-0c-0.384,2.504 -2.344,4.479 -4.827,4.865c-0.087,0.014 -0.087,0.125 0,0.138c2.484,0.387 4.444,2.363 4.827,4.865c0.014,0.088 0.124,0.088 0.137,0c0.384,-2.504 2.344,-4.479 4.827,-4.865c0.087,-0.013 0.087,-0.124 -0,-0.138Z" style="fill:#ffffe0;fill-rule:nonzero;"/><path d="M89.935,14.931c-2.484,-0.387 -4.444,-2.363 -4.827,-4.865c-0.014,-0.088 -0.124,-0.088 -0.137,-0c-0.384,2.504 -2.344,4.479 -4.827,4.865c-0.087,0.014 -0.087,0.125 0,0.138c2.484,0.387 4.444,2.363 4.827,4.865c0.014,0.088 0.124,0.088 0.137,0c0.384,-2.504 2.344,-4.479 4.827,-4.865c0.087,-0.013 0.087,-0.124 -0,-0.138Zm-4.896,-2.192c0.562,0.922 1.336,1.698 2.252,2.262c-0.917,0.564 -1.689,1.34 -2.251,2.26c-0.562,-0.921 -1.335,-1.697 -2.251,-2.261c0.916,-0.563 1.689,-1.34 2.25,-2.261Z" style="fill:#ffd700;"/><g><path d="M42.067,83.919c-7.956,3.958 -16.234,3.818 -20.567,-1.002c-0.815,-0.907 -1.448,-1.933 -1.904,-3.047c-1.003,0.208 -2.044,0.311 -3.111,0.311c-8.548,0 -15.485,-6.841 -15.485,-15.271c0,-8.431 6.937,-15.272 15.485,-15.272l0.211,-0c1.463,-7.397 10.226,-13.091 20.808,-13.091c9.848,-0 18.118,4.932 20.4,11.573c7.096,-7.12 16.344,-3.83 20.685,1.043c0.811,0.906 1.437,1.936 1.881,3.051c1.008,-0.2 2.052,-0.3 3.115,-0.296c8.552,0.044 15.415,6.921 15.415,15.348c-0,13.781 -15.774,15.196 -15.774,15.196c-1.496,7.388 -10.289,13.043 -20.874,12.991c-9.771,-0.048 -17.974,-4.948 -20.285,-11.534Z" style="fill:#d3d3d3;"/><path d="M42.067,83.919c-7.956,3.958 -16.234,3.818 -20.567,-1.002c-0.815,-0.907 -1.448,-1.933 -1.904,-3.047c-1.003,0.208 -2.044,0.311 -3.111,0.311c-8.548,0 -15.485,-6.841 -15.485,-15.271c0,-8.431 6.937,-15.272 15.485,-15.272l0.211,-0c1.463,-7.397 10.226,-13.091 20.808,-13.091c9.848,-0 18.118,4.932 20.4,11.573c7.096,-7.12 16.344,-3.83 20.685,1.043c0.811,0.906 1.437,1.936 1.881,3.051c1.008,-0.2 2.052,-0.3 3.115,-0.296c8.552,0.044 15.415,6.921 15.415,15.348c-0,13.781 -15.774,15.196 -15.774,15.196c-1.496,7.388 -10.289,13.043 -20.874,12.991c-9.771,-0.048 -17.974,-4.948 -20.285,-11.534Zm2.83,-0.993c-0.284,-0.812 -0.904,-1.462 -1.701,-1.786c-0.797,-0.324 -1.695,-0.29 -2.466,0.093c-6.569,3.268 -13.421,3.659 -16.999,-0.322c-0.582,-0.647 -1.032,-1.381 -1.358,-2.176c-0.547,-1.338 -1.969,-2.096 -3.384,-1.803c-0.808,0.167 -1.646,0.249 -2.504,0.249c-6.88,0 -12.485,-5.485 -12.485,-12.271c0,-6.787 5.605,-12.272 12.485,-12.272l0.211,-0c1.433,-0 2.665,-1.013 2.943,-2.418c1.239,-6.261 8.907,-10.673 17.865,-10.673c8.393,-0 15.618,3.887 17.562,9.548c0.337,0.979 1.155,1.716 2.164,1.949c1.01,0.232 2.067,-0.072 2.799,-0.806c5.6,-5.62 12.894,-2.925 16.32,0.92c0.001,0.002 0.003,0.003 0.004,0.005c0.575,0.642 1.016,1.373 1.331,2.162c0.535,1.343 1.952,2.112 3.37,1.831c0.814,-0.161 1.658,-0.241 2.518,-0.238c6.887,0.037 12.428,5.561 12.428,12.348c-0,5.467 -3.156,8.464 -6.285,10.111c-3.381,1.78 -6.757,2.097 -6.757,2.097c-1.322,0.118 -2.409,1.091 -2.672,2.392c-1.267,6.255 -8.959,10.631 -17.919,10.587c-8.332,-0.041 -15.499,-3.911 -17.47,-9.527Z" style="fill:#808080;"/><path d="M54.999,62.957c5.351,-12.493 27.714,-4.925 21.658,10.049" style="fill:#d3d3d3;stroke:#808080;stroke-width:3px;"/><path d="M17.031,63c-4.441,-7.137 4.14,-15.335 10.969,-12.241" style="fill:#d3d3d3;stroke:#808080;stroke-width:3px;"/><path d="M43.29,69c1.984,-8.169 13.846,-7.785 16.42,-0.743" style="fill:#d3d3d3;stroke:#808080;stroke-width:3px;"/><path d="M24.917,83.809c-7.662,-5.098 -3.391,-16.407 4.615,-16.151" style="fill:#d3d3d3;stroke:#808080;stroke-width:3px;"/></g></svg>