<?xml version="1.0" encoding="UTF-8" standalone="no"?><!DOCTYPE svg PUBLIC "-//W3C//DTD SVG 1.1//EN" "http://www.w3.org/Graphics/SVG/1.1/DTD/svg11.dtd"><svg width="100%" height="100%" viewBox="0 0 100 80" version="1.1" xmlns="http://www.w3.org/2000/svg" xmlns:xlink="http://www.w3.org/1999/xlink" xml:space="preserve" xmlns:serif="http://www.serif.com/" style="fill-rule:evenodd;clip-rule:evenodd;stroke-linejoin:round;stroke-miterlimit:2;"><path d="M100,11.739c-0,-6.479 -5.26,-11.739 -11.739,-11.739l-76.522,0c-6.479,0 -11.739,5.26 -11.739,11.739l0,56.522c0,6.479 5.26,11.739 11.739,11.739l76.522,-0c6.479,-0 11.739,-5.26 11.739,-11.739l-0,-56.522Z" style="fill:#173f58;"/><path d="M66.497,3.789c0.79,0.063 1.379,0.753 1.317,1.541c-0.061,0.788 -0.752,1.377 -1.541,1.316c-0.788,-0.062 -1.378,-0.752 -1.316,-1.54c0.062,-0.788 0.752,-1.379 1.54,-1.317Z" style="fill:#decc7c;"/><path d="M59.302,12.076c0.501,0.04 0.875,0.477 0.835,0.978c-0.039,0.5 -0.477,0.875 -0.978,0.836c-0.499,-0.039 -0.873,-0.477 -0.834,-0.978c0.038,-0.501 0.477,-0.875 0.977,-0.836Z" style="fill:#deb87c;"/><path d="M54.646,22.946c0.575,0.044 1.005,0.547 0.96,1.122c-0.044,0.575 -0.547,1.004 -1.122,0.96c-0.575,-0.047 -1.004,-0.55 -0.96,-1.123c0.046,-0.574 0.55,-1.004 1.122,-0.959Z" style="fill:#e6dcce;"/><path d="M57.369,32.057c0.42,0.033 0.735,0.401 0.701,0.822c-0.033,0.42 -0.401,0.735 -0.822,0.702c-0.419,-0.034 -0.733,-0.402 -0.701,-0.821c0.033,-0.421 0.401,-0.735 0.822,-0.703Z" style="fill:#dfc8b8;"/><path d="M64.375,43.258c0.815,0.062 1.425,0.776 1.361,1.592c-0.065,0.813 -0.777,1.422 -1.592,1.358c-0.815,-0.062 -1.423,-0.777 -1.361,-1.592c0.065,-0.813 0.777,-1.423 1.592,-1.358Z" style="fill:#deb87c;"/><path d="M47.1,34.902c0.546,0.043 0.952,0.522 0.909,1.068c-0.041,0.544 -0.52,0.953 -1.066,0.91c-0.543,-0.041 -0.953,-0.52 -0.909,-1.066c0.041,-0.546 0.52,-0.953 1.066,-0.912Z" style="fill:#baa583;"/><path d="M34.963,30.39c0.161,0.013 0.282,0.153 0.269,0.315c-0.013,0.16 -0.153,0.28 -0.314,0.267c-0.16,-0.012 -0.281,-0.152 -0.268,-0.314c0.013,-0.16 0.153,-0.28 0.313,-0.268Z" style="fill:#deb87c;"/><path d="M35.455,30.392c0.415,0.033 0.724,0.393 0.691,0.807c-0.033,0.411 -0.393,0.72 -0.807,0.688c-0.411,-0.033 -0.72,-0.393 -0.688,-0.808c0.033,-0.411 0.393,-0.72 0.804,-0.687Z" style="fill:#e4971d;"/><path d="M33.571,22.455c0.161,0.013 0.28,0.153 0.269,0.313c-0.013,0.162 -0.154,0.281 -0.314,0.269c-0.161,-0.012 -0.281,-0.154 -0.268,-0.314c0.013,-0.16 0.153,-0.28 0.313,-0.268Z" style="fill:#7cc3de;"/><path d="M25.7,26.398c0.398,0.027 0.692,0.377 0.664,0.772c-0.031,0.399 -0.381,0.693 -0.776,0.662c-0.396,-0.028 -0.693,-0.378 -0.661,-0.773c0.031,-0.399 0.377,-0.693 0.773,-0.661Z" style="fill:#deb87c;"/><path d="M73.443,35.657c-0.091,0.132 -0.274,0.166 -0.407,0.075c-0.131,-0.09 -0.165,-0.273 -0.075,-0.406c0.092,-0.132 0.274,-0.166 0.407,-0.075c0.131,0.092 0.165,0.273 0.075,0.406Z" style="fill:#7cc0de;"/><path d="M28.389,41.681c-0.159,0.232 -0.481,0.292 -0.715,0.132c-0.231,-0.161 -0.291,-0.48 -0.132,-0.714c0.16,-0.232 0.481,-0.292 0.715,-0.132c0.232,0.159 0.291,0.48 0.132,0.714Z" style="fill:#f3f1ef;"/><path d="M39.578,11.29c-0.092,0.132 -0.273,0.166 -0.406,0.075c-0.132,-0.091 -0.166,-0.273 -0.075,-0.406c0.09,-0.132 0.273,-0.166 0.406,-0.075c0.132,0.09 0.166,0.273 0.075,0.406Z" style="fill:#deb87c;"/><path d="M14.67,37.49c-0.091,0.132 -0.273,0.166 -0.406,0.075c-0.132,-0.091 -0.166,-0.273 -0.075,-0.407c0.092,-0.131 0.273,-0.165 0.406,-0.075c0.132,0.091 0.166,0.274 0.075,0.407Z" style="fill:#deb87c;"/><path d="M93.978,54.193c-0.091,0.131 -0.274,0.165 -0.407,0.075c-0.131,-0.092 -0.165,-0.274 -0.075,-0.407c0.092,-0.131 0.274,-0.165 0.407,-0.075c0.131,0.091 0.165,0.273 0.075,0.407Z" style="fill:#deb87c;"/><path d="M41.264,46.348c-0.131,0.19 -0.394,0.239 -0.586,0.108c-0.19,-0.133 -0.239,-0.394 -0.108,-0.586c0.13,-0.19 0.394,-0.239 0.586,-0.108c0.19,0.13 0.239,0.394 0.108,0.586Z" style="fill:#7ccade;"/><path d="M45.535,19.079c-0.091,0.132 -0.273,0.166 -0.407,0.075c-0.131,-0.09 -0.165,-0.273 -0.075,-0.406c0.091,-0.132 0.274,-0.166 0.407,-0.075c0.132,0.09 0.166,0.273 0.075,0.406Z" style="fill:#c7beb0;"/><path d="M42.752,45.969c0.162,0.012 0.282,0.153 0.269,0.314c-0.013,0.16 -0.153,0.281 -0.314,0.268c-0.16,-0.013 -0.281,-0.153 -0.268,-0.315c0.013,-0.16 0.153,-0.28 0.313,-0.267Z" style="fill:#deb87c;"/><path d="M42.752,45.969c0.162,0.012 0.282,0.153 0.269,0.314c-0.013,0.16 -0.153,0.281 -0.314,0.268c-0.16,-0.013 -0.281,-0.153 -0.268,-0.315c0.013,-0.16 0.153,-0.28 0.313,-0.267Z" style="fill:#deb87c;"/><path d="M41.36,38.034c0.161,0.012 0.28,0.153 0.269,0.313c-0.013,0.161 -0.154,0.28 -0.314,0.269c-0.16,-0.013 -0.281,-0.155 -0.268,-0.315c0.013,-0.16 0.153,-0.28 0.313,-0.267Z" style="fill:#deb87c;"/><path d="M33.571,42.699c0.161,0.011 0.28,0.153 0.269,0.313c-0.013,0.161 -0.154,0.28 -0.314,0.267c-0.161,-0.011 -0.281,-0.153 -0.268,-0.313c0.013,-0.161 0.153,-0.28 0.313,-0.267Z" style="fill:#deb87c;"/><path d="M34.205,57.733c-0.09,0.132 -0.273,0.166 -0.406,0.075c-0.132,-0.092 -0.166,-0.273 -0.075,-0.406c0.09,-0.132 0.273,-0.166 0.406,-0.075c0.132,0.09 0.166,0.273 0.075,0.406Z" style="fill:#a37836;"/><path d="M47.368,26.868c-0.093,0.132 -0.274,0.166 -0.407,0.075c-0.132,-0.09 -0.166,-0.273 -0.075,-0.406c0.091,-0.132 0.273,-0.166 0.406,-0.075c0.132,0.091 0.166,0.273 0.076,0.406Z" style="fill:#deb87c;"/><path d="M23.002,53.535c-0.183,0.266 -0.552,0.334 -0.821,0.151c-0.266,-0.183 -0.335,-0.552 -0.151,-0.821c0.186,-0.266 0.552,-0.335 0.821,-0.151c0.266,0.183 0.335,0.552 0.151,0.821Z" style="fill:#c8c4bd;"/><path d="M87.95,32.884c0.322,0.026 0.563,0.308 0.537,0.629c-0.025,0.32 -0.307,0.561 -0.627,0.535c-0.322,-0.024 -0.563,-0.305 -0.537,-0.627c0.025,-0.321 0.306,-0.561 0.627,-0.537Z" style="fill:#d7592a;"/><path d="M75.44,27.558c0.16,0.013 0.28,0.153 0.267,0.314c-0.013,0.16 -0.153,0.281 -0.314,0.268c-0.16,-0.013 -0.281,-0.153 -0.268,-0.314c0.013,-0.16 0.153,-0.281 0.315,-0.268Z" style="fill:#deb87c;"/><path d="M75.44,27.558c0.16,0.013 0.28,0.153 0.267,0.314c-0.013,0.16 -0.153,0.281 -0.314,0.268c-0.16,-0.013 -0.281,-0.153 -0.268,-0.314c0.013,-0.16 0.153,-0.281 0.315,-0.268Z" style="fill:#e4971d;"/><path d="M74.046,19.623c0.161,0.013 0.282,0.153 0.269,0.313c-0.013,0.161 -0.153,0.28 -0.314,0.269c-0.16,-0.013 -0.281,-0.154 -0.268,-0.314c0.013,-0.16 0.153,-0.281 0.313,-0.268Z" style="fill:#7cc3de;"/><path d="M66.257,24.288c0.161,0.011 0.282,0.153 0.269,0.313c-0.013,0.161 -0.153,0.28 -0.314,0.268c-0.16,-0.012 -0.281,-0.153 -0.268,-0.313c0.013,-0.162 0.153,-0.281 0.313,-0.268Z" style="fill:#deb87c;"/><path d="M66.891,39.322c-0.09,0.132 -0.273,0.166 -0.405,0.075c-0.133,-0.092 -0.167,-0.273 -0.076,-0.406c0.092,-0.132 0.273,-0.166 0.406,-0.075c0.133,0.091 0.167,0.273 0.075,0.406Z" style="fill:#f3f1ef;"/><path d="M80.054,8.458c-0.091,0.131 -0.274,0.165 -0.405,0.075c-0.134,-0.091 -0.168,-0.274 -0.077,-0.407c0.092,-0.131 0.273,-0.165 0.407,-0.075c0.133,0.091 0.165,0.274 0.075,0.407Z" style="fill:#deb87c;"/><path d="M55.145,34.657c-0.09,0.132 -0.273,0.166 -0.405,0.076c-0.133,-0.091 -0.167,-0.274 -0.076,-0.407c0.092,-0.132 0.273,-0.166 0.406,-0.075c0.133,0.091 0.167,0.273 0.075,0.406Z" style="fill:#deb87c;"/><path d="M81.762,43.571c-0.091,0.132 -0.274,0.166 -0.406,0.075c-0.133,-0.092 -0.167,-0.273 -0.076,-0.406c0.092,-0.132 0.273,-0.166 0.406,-0.075c0.134,0.09 0.168,0.273 0.076,0.406Z" style="fill:#7ccade;"/><path d="M86.01,16.247c-0.091,0.131 -0.273,0.165 -0.405,0.075c-0.133,-0.091 -0.167,-0.274 -0.076,-0.407c0.092,-0.131 0.273,-0.165 0.406,-0.075c0.133,0.091 0.167,0.274 0.075,0.407Z" style="fill:#c7beb0;"/><path d="M83.229,43.136c0.16,0.013 0.28,0.153 0.267,0.315c-0.012,0.16 -0.153,0.28 -0.314,0.267c-0.16,-0.012 -0.28,-0.153 -0.268,-0.314c0.013,-0.16 0.153,-0.28 0.315,-0.268Z" style="fill:#deb87c;"/><path d="M83.229,43.136c0.16,0.013 0.28,0.153 0.267,0.315c-0.012,0.16 -0.153,0.28 -0.314,0.267c-0.16,-0.012 -0.28,-0.153 -0.268,-0.314c0.013,-0.16 0.153,-0.28 0.315,-0.268Z" style="fill:#deb87c;"/><path d="M81.835,35.201c0.162,0.013 0.282,0.153 0.269,0.313c-0.013,0.162 -0.153,0.281 -0.314,0.269c-0.16,-0.012 -0.281,-0.154 -0.268,-0.314c0.013,-0.16 0.153,-0.28 0.313,-0.268Z" style="fill:#deb87c;"/><path d="M74.046,39.866c0.161,0.012 0.282,0.153 0.269,0.313c-0.013,0.162 -0.153,0.281 -0.314,0.268c-0.16,-0.011 -0.281,-0.153 -0.268,-0.313c0.013,-0.162 0.153,-0.28 0.313,-0.268Z" style="fill:#deb87c;"/><path d="M74.68,54.901c-0.09,0.131 -0.273,0.165 -0.405,0.075c-0.133,-0.092 -0.167,-0.274 -0.076,-0.407c0.092,-0.131 0.273,-0.165 0.406,-0.075c0.134,0.091 0.168,0.274 0.075,0.407Z" style="fill:#a37836;"/><path d="M87.843,24.036c-0.091,0.132 -0.274,0.166 -0.405,0.075c-0.133,-0.091 -0.167,-0.273 -0.077,-0.406c0.092,-0.132 0.274,-0.166 0.407,-0.076c0.133,0.091 0.165,0.274 0.075,0.407Z" style="fill:#deb87c;"/><path d="M62.934,50.236c-0.09,0.131 -0.273,0.165 -0.405,0.075c-0.133,-0.091 -0.167,-0.274 -0.076,-0.407c0.092,-0.131 0.273,-0.165 0.406,-0.075c0.134,0.091 0.168,0.274 0.075,0.407Z" style="fill:#c8c4bd;"/><path d="M49.075,61.982c-0.09,0.131 -0.273,0.165 -0.406,0.075c-0.132,-0.092 -0.166,-0.274 -0.075,-0.407c0.091,-0.131 0.273,-0.165 0.406,-0.075c0.132,0.091 0.166,0.274 0.075,0.407Z" style="fill:#f5efe6;"/><path d="M53.324,34.657c-0.091,0.132 -0.273,0.166 -0.406,0.076c-0.132,-0.091 -0.166,-0.274 -0.075,-0.407c0.09,-0.132 0.273,-0.166 0.406,-0.075c0.132,0.091 0.166,0.273 0.075,0.406Z" style="fill:#deb87c;"/><path d="M69.221,58.991c0.037,0.157 -0.061,0.314 -0.217,0.351c-0.157,0.037 -0.314,-0.061 -0.351,-0.217c-0.037,-0.157 0.061,-0.314 0.217,-0.351c0.157,-0.037 0.314,0.061 0.351,0.217Z" style="fill:#deb87c;"/><path d="M69.221,58.991c0.037,0.157 -0.061,0.314 -0.217,0.351c-0.157,0.037 -0.314,-0.061 -0.351,-0.217c-0.037,-0.157 0.061,-0.314 0.217,-0.351c0.157,-0.037 0.314,0.061 0.351,0.217Z" style="fill:#deb87c;"/><path d="M76.357,55.252c0.037,0.156 -0.061,0.313 -0.218,0.35c-0.156,0.037 -0.313,-0.06 -0.35,-0.217c-0.036,-0.157 0.06,-0.314 0.217,-0.351c0.157,-0.037 0.314,0.061 0.351,0.218Z" style="fill:#deb87c;"/><path d="M69.544,49.25c0.037,0.157 -0.06,0.314 -0.217,0.351c-0.157,0.037 -0.314,-0.061 -0.351,-0.218c-0.037,-0.156 0.061,-0.313 0.218,-0.35c0.156,-0.038 0.313,0.06 0.35,0.217Z" style="fill:#deb87c;"/><path d="M55.414,54.426c-0.154,-0.046 -0.24,-0.209 -0.195,-0.364c0.047,-0.153 0.21,-0.24 0.364,-0.194c0.154,0.046 0.242,0.208 0.195,0.363c-0.046,0.154 -0.209,0.242 -0.364,0.195Z" style="fill:#deb87c;"/><path d="M88.82,57.579c-0.153,-0.047 -0.241,-0.21 -0.194,-0.364c0.045,-0.155 0.208,-0.242 0.362,-0.196c0.155,0.047 0.243,0.21 0.196,0.364c-0.047,0.155 -0.21,0.241 -0.364,0.196Z" style="fill:#deb87c;"/><path d="M56.287,41.818c-0.155,-0.046 -0.242,-0.208 -0.196,-0.363c0.047,-0.154 0.21,-0.242 0.364,-0.195c0.153,0.045 0.241,0.209 0.194,0.362c-0.045,0.155 -0.208,0.243 -0.362,0.196Z" style="fill:#de897c;"/><path d="M55.89,69.884c-0.154,-0.047 -0.242,-0.209 -0.195,-0.364c0.047,-0.153 0.209,-0.241 0.364,-0.194c0.154,0.046 0.241,0.208 0.195,0.363c-0.047,0.154 -0.209,0.242 -0.364,0.195Z" style="fill:#deb87c;"/><path d="M83.044,65.616c-0.223,-0.068 -0.35,-0.303 -0.282,-0.526c0.067,-0.223 0.303,-0.348 0.526,-0.282c0.223,0.067 0.35,0.302 0.282,0.525c-0.067,0.223 -0.303,0.35 -0.526,0.283Z" style="fill:#dfd8cc;"/><path d="M71.735,22.328c-0.091,0.132 -0.274,0.166 -0.407,0.075c-0.131,-0.092 -0.165,-0.273 -0.075,-0.406c0.091,-0.132 0.274,-0.166 0.407,-0.075c0.131,0.09 0.165,0.273 0.075,0.406Z" style="fill:#deb87c;"/><path d="M87.021,38.49c-0.092,0.131 -0.273,0.165 -0.406,0.075c-0.132,-0.091 -0.166,-0.274 -0.075,-0.407c0.09,-0.131 0.273,-0.165 0.406,-0.075c0.132,0.092 0.166,0.274 0.075,0.407Z" style="fill:#d7592a;"/><path d="M80.582,23.914c-0.239,0.345 -0.708,0.433 -1.054,0.195c-0.345,-0.235 -0.433,-0.705 -0.194,-1.05c0.235,-0.345 0.708,-0.433 1.05,-0.198c0.345,0.238 0.433,0.708 0.198,1.053Z" style="fill:#7cc5de;"/><path d="M54.458,5.409c-0.133,-0.093 -0.165,-0.274 -0.075,-0.407c0.091,-0.132 0.274,-0.166 0.405,-0.075c0.134,0.091 0.168,0.273 0.077,0.406c-0.092,0.132 -0.273,0.166 -0.407,0.076Z" style="fill:#7cc0de;"/><path d="M35.923,25.944c-0.132,-0.093 -0.166,-0.274 -0.075,-0.407c0.091,-0.132 0.273,-0.166 0.407,-0.075c0.131,0.091 0.165,0.273 0.075,0.406c-0.091,0.132 -0.274,0.166 -0.407,0.076Z" style="fill:#deb87c;"/><path d="M57.23,19.916c-0.024,0.322 -0.306,0.561 -0.627,0.537c-0.322,-0.026 -0.561,-0.307 -0.536,-0.629c0.024,-0.32 0.306,-0.561 0.628,-0.535c0.321,0.024 0.56,0.306 0.535,0.627Z" style="fill:#baa583;"/><path d="M62.558,7.405c-0.013,0.16 -0.153,0.281 -0.315,0.268c-0.16,-0.013 -0.28,-0.153 -0.267,-0.314c0.012,-0.16 0.153,-0.281 0.314,-0.268c0.16,0.013 0.28,0.153 0.268,0.314Z" style="fill:#deb87c;"/><path d="M62.558,7.405c-0.013,0.16 -0.153,0.281 -0.315,0.268c-0.16,-0.013 -0.28,-0.153 -0.267,-0.314c0.012,-0.16 0.153,-0.281 0.314,-0.268c0.16,0.013 0.28,0.153 0.268,0.314Z" style="fill:#e4971d;"/><path d="M70.493,6.012c-0.013,0.161 -0.153,0.282 -0.313,0.269c-0.162,-0.013 -0.282,-0.154 -0.269,-0.314c0.012,-0.161 0.154,-0.281 0.314,-0.268c0.16,0.013 0.281,0.153 0.268,0.313Z" style="fill:#7cc3de;"/><path d="M81.658,12.019c-0.132,-0.09 -0.166,-0.273 -0.075,-0.406c0.091,-0.132 0.273,-0.166 0.407,-0.075c0.131,0.091 0.165,0.273 0.075,0.406c-0.092,0.132 -0.274,0.166 -0.407,0.075Z" style="fill:#deb87c;"/><path d="M42.917,14.138c-0.242,-0.167 -0.304,-0.502 -0.137,-0.747c0.166,-0.242 0.501,-0.304 0.746,-0.138c0.242,0.169 0.304,0.502 0.138,0.747c-0.167,0.242 -0.502,0.304 -0.747,0.138Z" style="fill:#7ccade;"/><path d="M73.869,17.976c-0.132,-0.091 -0.166,-0.273 -0.075,-0.407c0.091,-0.131 0.273,-0.165 0.406,-0.075c0.132,0.092 0.166,0.274 0.075,0.407c-0.092,0.132 -0.273,0.166 -0.406,0.075Z" style="fill:#c7beb0;"/><path d="M46.979,15.195c-0.012,0.16 -0.152,0.28 -0.314,0.267c-0.16,-0.013 -0.28,-0.153 -0.268,-0.314c0.013,-0.16 0.153,-0.281 0.315,-0.268c0.16,0.013 0.28,0.153 0.267,0.315Z" style="fill:#deb87c;"/><path d="M46.979,15.195c-0.012,0.16 -0.152,0.28 -0.314,0.267c-0.16,-0.013 -0.28,-0.153 -0.268,-0.314c0.013,-0.16 0.153,-0.281 0.315,-0.268c0.16,0.013 0.28,0.153 0.267,0.315Z" style="fill:#deb87c;"/><path d="M54.914,13.801c-0.012,0.161 -0.152,0.282 -0.313,0.269c-0.161,-0.013 -0.281,-0.154 -0.269,-0.314c0.013,-0.16 0.155,-0.281 0.315,-0.268c0.16,0.013 0.28,0.153 0.267,0.313Z" style="fill:#deb87c;"/><path d="M50.249,6.012c-0.012,0.161 -0.152,0.282 -0.312,0.269c-0.162,-0.013 -0.281,-0.154 -0.27,-0.314c0.013,-0.161 0.155,-0.281 0.315,-0.268c0.16,0.013 0.28,0.153 0.267,0.313Z" style="fill:#deb87c;"/><path d="M35.215,6.646c-0.132,-0.09 -0.166,-0.273 -0.075,-0.406c0.091,-0.132 0.273,-0.166 0.406,-0.075c0.132,0.092 0.166,0.273 0.075,0.406c-0.09,0.132 -0.273,0.166 -0.406,0.075Z" style="fill:#a37836;"/><path d="M66.08,19.809c-0.132,-0.091 -0.166,-0.274 -0.075,-0.407c0.09,-0.132 0.273,-0.166 0.406,-0.075c0.132,0.091 0.166,0.273 0.075,0.406c-0.092,0.132 -0.273,0.166 -0.406,0.076Z" style="fill:#deb87c;"/><path d="M34.864,8.323c-0.156,0.037 -0.315,-0.061 -0.351,-0.218c-0.037,-0.157 0.06,-0.314 0.218,-0.351c0.157,-0.037 0.314,0.061 0.351,0.218c0.037,0.157 -0.061,0.314 -0.218,0.351Z" style="fill:#deb87c;"/><path d="M32.537,20.786c0.047,-0.155 0.21,-0.241 0.364,-0.196c0.154,0.047 0.242,0.21 0.195,0.364c-0.046,0.155 -0.209,0.242 -0.364,0.196c-0.154,-0.047 -0.24,-0.21 -0.195,-0.364Z" style="fill:#deb87c;"/><path d="M24.494,15.178c0.047,-0.155 0.21,-0.243 0.364,-0.196c0.153,0.047 0.241,0.21 0.194,0.364c-0.045,0.154 -0.208,0.242 -0.362,0.195c-0.155,-0.046 -0.242,-0.209 -0.196,-0.363Z" style="fill:#dfd8cc;"/><path d="M55.409,62.109c0.012,-0.161 0.153,-0.282 0.314,-0.269c0.16,0.013 0.281,0.153 0.268,0.315c-0.013,0.16 -0.153,0.28 -0.315,0.267c-0.16,-0.013 -0.28,-0.153 -0.267,-0.313Z" style="fill:#deb87c;"/><path d="M55.409,62.109c0.012,-0.161 0.153,-0.282 0.314,-0.269c0.16,0.013 0.281,0.153 0.268,0.315c-0.013,0.16 -0.153,0.28 -0.315,0.267c-0.16,-0.013 -0.28,-0.153 -0.267,-0.313Z" style="fill:#e4971d;"/><path d="M46.857,63.169c0.026,-0.332 0.315,-0.577 0.644,-0.551c0.332,0.023 0.577,0.315 0.554,0.644c-0.026,0.33 -0.318,0.578 -0.647,0.551c-0.33,-0.023 -0.577,-0.314 -0.551,-0.644Z" style="fill:#7cc3de;"/><path d="M19.832,36.483c0.162,-0.001 0.291,0.132 0.29,0.292c0.001,0.162 -0.131,0.291 -0.292,0.29c-0.16,0.001 -0.291,-0.131 -0.29,-0.292c-0.001,-0.162 0.132,-0.291 0.292,-0.29Z" style="fill:#deb87c;"/><path d="M21.578,51.429c-0.082,0.138 -0.26,0.186 -0.4,0.105c-0.138,-0.082 -0.185,-0.26 -0.105,-0.4c0.081,-0.138 0.26,-0.185 0.4,-0.104c0.138,0.08 0.185,0.26 0.105,0.399Z" style="fill:#f3f1ef;"/><path d="M9.519,47.647c-0.081,0.138 -0.261,0.185 -0.4,0.105c-0.138,-0.081 -0.186,-0.261 -0.105,-0.4c0.081,-0.138 0.26,-0.186 0.4,-0.105c0.138,0.08 0.185,0.26 0.105,0.4Z" style="fill:#deb87c;"/><path d="M67.717,63.501c0.011,-0.161 0.153,-0.28 0.313,-0.267c0.161,0.011 0.28,0.153 0.268,0.313c-0.012,0.16 -0.153,0.28 -0.313,0.267c-0.162,-0.011 -0.281,-0.153 -0.268,-0.313Z" style="fill:#deb87c;"/><path d="M82.751,62.867c0.132,0.092 0.166,0.273 0.076,0.406c-0.093,0.132 -0.274,0.166 -0.407,0.075c-0.132,-0.09 -0.166,-0.273 -0.075,-0.406c0.091,-0.132 0.273,-0.166 0.406,-0.075Z" style="fill:#a37836;"/><path d="M18.44,62.606c-0.081,0.138 -0.261,0.185 -0.4,0.105c-0.138,-0.081 -0.186,-0.261 -0.105,-0.4c0.081,-0.138 0.26,-0.186 0.4,-0.105c0.138,0.08 0.185,0.26 0.105,0.4Z" style="fill:#c8c4bd;"/><path d="M50.962,61.149c-0.092,0.132 -0.273,0.166 -0.407,0.075c-0.131,-0.091 -0.165,-0.273 -0.075,-0.406c0.091,-0.132 0.274,-0.166 0.407,-0.075c0.131,0.092 0.165,0.273 0.075,0.406Z" style="fill:#deb87c;"/><path d="M31.665,61.857c-0.091,0.132 -0.274,0.166 -0.407,0.075c-0.132,-0.09 -0.166,-0.273 -0.075,-0.406c0.092,-0.132 0.273,-0.166 0.407,-0.075c0.131,0.092 0.165,0.273 0.075,0.406Z" style="fill:#a37836;"/><path d="M33.959,62.45c0.076,0.325 -0.127,0.65 -0.452,0.727c-0.325,0.076 -0.65,-0.126 -0.727,-0.452c-0.076,-0.325 0.126,-0.65 0.452,-0.726c0.325,-0.077 0.65,0.126 0.727,0.451Z" style="fill:#deb87c;"/><path d="M45.804,64.535c-0.154,-0.047 -0.241,-0.209 -0.195,-0.364c0.046,-0.154 0.209,-0.242 0.364,-0.195c0.154,0.047 0.242,0.209 0.195,0.364c-0.047,0.154 -0.21,0.242 -0.364,0.195Z" style="fill:#deb87c;"/><path d="M17.186,24.401c0.061,-0.283 0.345,-0.463 0.625,-0.399c0.284,0.063 0.463,0.344 0.4,0.628c-0.061,0.283 -0.342,0.462 -0.625,0.399c-0.284,-0.063 -0.463,-0.344 -0.4,-0.628Z" style="fill:#dfd8cc;"/><path d="M67.044,44.696c-0.012,0.161 -0.153,0.281 -0.314,0.269c-0.16,-0.013 -0.281,-0.153 -0.268,-0.315c0.013,-0.16 0.153,-0.28 0.315,-0.267c0.16,0.012 0.28,0.152 0.267,0.313Z" style="fill:#deb87c;"/><path d="M67.044,44.696c-0.012,0.161 -0.153,0.281 -0.314,0.269c-0.16,-0.013 -0.281,-0.153 -0.268,-0.315c0.013,-0.16 0.153,-0.28 0.315,-0.267c0.16,0.012 0.28,0.152 0.267,0.313Z" style="fill:#e4971d;"/><path d="M74.979,43.303c-0.012,0.162 -0.153,0.281 -0.313,0.269c-0.161,-0.012 -0.28,-0.154 -0.269,-0.314c0.013,-0.16 0.155,-0.28 0.315,-0.268c0.16,0.013 0.28,0.153 0.267,0.313Z" style="fill:#7cc3de;"/><path d="M70.314,35.514c-0.011,0.162 -0.153,0.281 -0.313,0.269c-0.161,-0.012 -0.28,-0.154 -0.267,-0.314c0.011,-0.16 0.153,-0.28 0.313,-0.268c0.161,0.013 0.28,0.153 0.267,0.313Z" style="fill:#deb87c;"/><path d="M55.28,36.149c-0.132,-0.091 -0.166,-0.274 -0.075,-0.407c0.092,-0.131 0.273,-0.165 0.406,-0.075c0.132,0.091 0.166,0.274 0.075,0.407c-0.09,0.131 -0.273,0.165 -0.406,0.075Z" style="fill:#f3f1ef;"/><path d="M86.145,49.311c-0.132,-0.092 -0.166,-0.273 -0.075,-0.407c0.09,-0.131 0.273,-0.165 0.406,-0.075c0.132,0.091 0.166,0.274 0.075,0.407c-0.091,0.132 -0.273,0.166 -0.406,0.075Z" style="fill:#deb87c;"/><path d="M59.945,24.403c-0.132,-0.091 -0.166,-0.274 -0.075,-0.407c0.09,-0.131 0.273,-0.165 0.406,-0.075c0.132,0.092 0.166,0.274 0.075,0.407c-0.09,0.131 -0.273,0.165 -0.406,0.075Z" style="fill:#deb87c;"/><path d="M51.031,51.019c-0.131,-0.091 -0.165,-0.273 -0.075,-0.407c0.092,-0.131 0.274,-0.165 0.407,-0.075c0.131,0.091 0.165,0.274 0.075,0.407c-0.091,0.132 -0.274,0.166 -0.407,0.075Z" style="fill:#7ccade;"/><path d="M78.356,55.268c-0.132,-0.091 -0.166,-0.274 -0.076,-0.407c0.091,-0.132 0.274,-0.166 0.407,-0.075c0.132,0.091 0.166,0.273 0.075,0.406c-0.091,0.132 -0.273,0.166 -0.406,0.076Z" style="fill:#c7beb0;"/><path d="M51.466,52.485c-0.013,0.161 -0.153,0.281 -0.314,0.269c-0.16,-0.013 -0.281,-0.153 -0.268,-0.315c0.013,-0.16 0.153,-0.28 0.314,-0.267c0.16,0.012 0.281,0.153 0.268,0.313Z" style="fill:#deb87c;"/><path d="M51.466,52.485c-0.013,0.161 -0.153,0.281 -0.314,0.269c-0.16,-0.013 -0.281,-0.153 -0.268,-0.315c0.013,-0.16 0.153,-0.28 0.314,-0.267c0.16,0.012 0.281,0.153 0.268,0.313Z" style="fill:#deb87c;"/><path d="M59.401,51.093c-0.013,0.161 -0.153,0.28 -0.313,0.269c-0.161,-0.013 -0.28,-0.155 -0.269,-0.315c0.013,-0.16 0.154,-0.28 0.314,-0.267c0.16,0.012 0.281,0.153 0.268,0.313Z" style="fill:#deb87c;"/><path d="M54.736,43.303c-0.011,0.162 -0.153,0.281 -0.313,0.269c-0.161,-0.012 -0.28,-0.154 -0.268,-0.314c0.012,-0.16 0.153,-0.28 0.313,-0.268c0.162,0.013 0.281,0.153 0.268,0.313Z" style="fill:#deb87c;"/><path d="M39.702,43.938c-0.132,-0.091 -0.166,-0.273 -0.075,-0.407c0.092,-0.131 0.273,-0.165 0.406,-0.075c0.132,0.091 0.166,0.274 0.075,0.407c-0.091,0.132 -0.273,0.165 -0.406,0.075Z" style="fill:#a37836;"/><path d="M44.367,32.192c-0.132,-0.091 -0.166,-0.273 -0.075,-0.407c0.09,-0.131 0.273,-0.165 0.406,-0.075c0.132,0.092 0.166,0.274 0.075,0.407c-0.091,0.131 -0.273,0.165 -0.406,0.075Z" style="fill:#c8c4bd;"/><path d="M71.491,45.656c0.092,-0.132 0.274,-0.166 0.407,-0.075c0.131,0.09 0.165,0.273 0.075,0.406c-0.091,0.132 -0.274,0.166 -0.407,0.075c-0.131,-0.09 -0.165,-0.273 -0.075,-0.406Z" style="fill:#deb87c;"/><path d="M90.788,44.948c0.091,-0.132 0.274,-0.166 0.407,-0.075c0.132,0.09 0.166,0.273 0.075,0.406c-0.092,0.132 -0.273,0.166 -0.407,0.075c-0.131,-0.091 -0.165,-0.273 -0.075,-0.406Z" style="fill:#a37836;"/><path d="M89.112,44.596c-0.037,-0.155 0.061,-0.314 0.218,-0.351c0.157,-0.037 0.314,0.061 0.351,0.218c0.037,0.157 -0.061,0.315 -0.218,0.351c-0.157,0.037 -0.315,-0.06 -0.351,-0.218Z" style="fill:#deb87c;"/><path d="M76.649,42.27c0.154,0.046 0.241,0.209 0.195,0.364c-0.046,0.154 -0.209,0.242 -0.364,0.195c-0.154,-0.047 -0.242,-0.21 -0.195,-0.364c0.047,-0.154 0.21,-0.241 0.364,-0.195Z" style="fill:#deb87c;"/><path d="M82.257,34.227c0.155,0.047 0.242,0.21 0.196,0.364c-0.047,0.153 -0.21,0.241 -0.364,0.194c-0.155,-0.045 -0.243,-0.208 -0.196,-0.363c0.047,-0.154 0.21,-0.242 0.364,-0.195Z" style="fill:#dfd8cc;"/><path d="M58.48,29.779c-0.161,-0.013 -0.28,-0.155 -0.269,-0.315c0.013,-0.16 0.155,-0.28 0.315,-0.267c0.16,0.011 0.28,0.153 0.267,0.313c-0.011,0.16 -0.152,0.28 -0.313,0.269Z" style="fill:#7cc0de;"/><path d="M66.492,27.457c0.069,0.146 0.008,0.321 -0.137,0.39c-0.146,0.069 -0.32,0.007 -0.39,-0.139c-0.069,-0.144 -0.007,-0.319 0.139,-0.388c0.144,-0.069 0.319,-0.008 0.388,0.137Z" style="fill:#deb87c;"/><path d="M66.492,27.457c0.069,0.146 0.008,0.321 -0.137,0.39c-0.146,0.069 -0.32,0.007 -0.39,-0.139c-0.069,-0.144 -0.007,-0.319 0.139,-0.388c0.144,-0.069 0.319,-0.008 0.388,0.137Z" style="fill:#e4971d;"/><path d="M72.668,22.284c0.069,0.145 0.009,0.32 -0.137,0.39c-0.146,0.069 -0.32,0.007 -0.39,-0.139c-0.069,-0.145 -0.007,-0.319 0.139,-0.388c0.144,-0.07 0.319,-0.009 0.388,0.137Z" style="fill:#7cc3de;"/><path d="M85.342,21.903c-0.162,-0.013 -0.281,-0.153 -0.269,-0.313c0.012,-0.161 0.154,-0.282 0.314,-0.269c0.16,0.013 0.28,0.153 0.268,0.314c-0.012,0.16 -0.153,0.281 -0.313,0.268Z" style="fill:#deb87c;"/><path d="M55.787,40.94c-0.162,-0.013 -0.282,-0.155 -0.269,-0.315c0.013,-0.16 0.153,-0.28 0.314,-0.267c0.16,0.011 0.281,0.153 0.268,0.313c-0.013,0.161 -0.153,0.28 -0.313,0.269Z" style="fill:#7ccade;"/><path d="M56.896,41.992c0.069,0.146 0.007,0.32 -0.138,0.389c-0.145,0.07 -0.32,0.008 -0.389,-0.137c-0.069,-0.146 -0.007,-0.32 0.137,-0.389c0.146,-0.07 0.32,-0.009 0.39,0.137Z" style="fill:#deb87c;"/><path d="M56.896,41.992c0.069,0.146 0.007,0.32 -0.138,0.389c-0.145,0.07 -0.32,0.008 -0.389,-0.137c-0.069,-0.146 -0.007,-0.32 0.137,-0.389c0.146,-0.07 0.32,-0.009 0.39,0.137Z" style="fill:#deb87c;"/><path d="M63.072,36.819c0.069,0.145 0.007,0.32 -0.138,0.389c-0.145,0.069 -0.32,0.007 -0.389,-0.139c-0.069,-0.144 -0.007,-0.318 0.137,-0.388c0.146,-0.069 0.32,-0.008 0.39,0.138Z" style="fill:#deb87c;"/><path d="M55.137,32.406c0.069,0.144 0.008,0.32 -0.138,0.389c-0.144,0.07 -0.32,0.007 -0.389,-0.139c-0.069,-0.144 -0.007,-0.32 0.139,-0.388c0.144,-0.069 0.318,-0.008 0.388,0.138Z" style="fill:#deb87c;"/><path d="M42.435,40.471c-0.162,-0.011 -0.282,-0.153 -0.269,-0.313c0.013,-0.16 0.153,-0.28 0.314,-0.268c0.16,0.012 0.281,0.153 0.268,0.313c-0.013,0.16 -0.153,0.281 -0.313,0.268Z" style="fill:#a37836;"/><path d="M42.967,42.1c-0.116,0.11 -0.301,0.103 -0.412,-0.013c-0.11,-0.118 -0.105,-0.303 0.013,-0.414c0.118,-0.11 0.303,-0.104 0.414,0.013c0.109,0.118 0.103,0.303 -0.015,0.414Z" style="fill:#deb87c;"/><path d="M37.414,53.221c-0.036,-0.157 0.061,-0.314 0.219,-0.351c0.155,-0.037 0.312,0.061 0.349,0.217c0.039,0.157 -0.059,0.314 -0.216,0.351c-0.158,0.037 -0.315,-0.061 -0.352,-0.217Z" style="fill:#dfd8cc;"/><path d="M69.17,21.634c-0.16,-0.013 -0.28,-0.153 -0.268,-0.314c0.012,-0.16 0.153,-0.281 0.313,-0.268c0.16,0.013 0.281,0.153 0.269,0.313c-0.012,0.161 -0.154,0.282 -0.314,0.269Z" style="fill:#deb87c;"/><path d="M76.17,30.154c-0.16,-0.013 -0.28,-0.153 -0.269,-0.313c0.013,-0.162 0.155,-0.282 0.315,-0.269c0.16,0.013 0.28,0.153 0.267,0.314c-0.011,0.16 -0.153,0.281 -0.313,0.268Z" style="fill:#7cc5de;"/><path d="M83.059,25.074c0.013,-0.16 0.153,-0.28 0.314,-0.268c0.16,0.013 0.281,0.153 0.268,0.313c-0.013,0.162 -0.153,0.282 -0.313,0.269c-0.162,-0.012 -0.282,-0.153 -0.269,-0.314Z" style="fill:#deb87c;"/><path d="M74.006,21.307c0.012,-0.16 0.153,-0.281 0.313,-0.268c0.16,0.012 0.281,0.153 0.269,0.313c-0.012,0.162 -0.154,0.281 -0.314,0.269c-0.16,-0.012 -0.28,-0.154 -0.268,-0.314Z" style="fill:#c7beb0;"/><path d="M39.57,51.478c-0.011,0.141 -0.134,0.246 -0.275,0.235c-0.14,-0.011 -0.245,-0.134 -0.234,-0.275c0.011,-0.14 0.134,-0.245 0.274,-0.234c0.141,0.011 0.246,0.134 0.235,0.274Z" style="fill:#a37836;"/><path d="M27.065,53.278c-0.013,0.16 -0.153,0.28 -0.313,0.267c-0.162,-0.012 -0.282,-0.153 -0.269,-0.314c0.012,-0.16 0.153,-0.28 0.314,-0.268c0.16,0.013 0.281,0.153 0.268,0.315Z" style="fill:#c8c4bd;"/><path d="M52.626,34.932c-0.145,0.07 -0.319,0.009 -0.388,-0.137c-0.07,-0.146 -0.009,-0.32 0.137,-0.39c0.146,-0.069 0.32,-0.007 0.39,0.138c0.069,0.146 0.007,0.32 -0.139,0.389Z" style="fill:#7cc3de;"/><path d="M43.953,43.839c0.013,-0.162 0.154,-0.282 0.314,-0.269c0.16,0.012 0.281,0.153 0.268,0.314c-0.011,0.16 -0.153,0.28 -0.313,0.268c-0.16,-0.013 -0.28,-0.153 -0.269,-0.313Z" style="fill:#c7beb0;"/><path d="M48.845,33.088c0.161,0.012 0.281,0.153 0.269,0.313c-0.013,0.16 -0.153,0.281 -0.315,0.269c-0.16,-0.012 -0.28,-0.154 -0.267,-0.314c0.012,-0.16 0.153,-0.28 0.313,-0.268Z" style="fill:#deb87c;"/><path d="M54.356,35.861c0.037,0.156 -0.06,0.315 -0.218,0.351c-0.155,0.037 -0.313,-0.06 -0.351,-0.218c-0.037,-0.157 0.061,-0.314 0.218,-0.351c0.157,-0.037 0.315,0.061 0.351,0.218Z" style="fill:#deb87c;"/><path d="M64.125,36.697c0.039,0.156 -0.059,0.313 -0.216,0.35c-0.157,0.038 -0.315,-0.06 -0.351,-0.217c-0.037,-0.157 0.06,-0.314 0.218,-0.351c0.155,-0.037 0.313,0.061 0.349,0.218Z" style="fill:#dfd8cc;"/><path d="M35.578,41.397c-0.134,-0.09 -0.166,-0.273 -0.075,-0.406c0.09,-0.132 0.273,-0.166 0.406,-0.075c0.132,0.092 0.166,0.273 0.075,0.406c-0.092,0.132 -0.273,0.166 -0.406,0.075Z" style="fill:#a37836;"/><path d="M35.226,43.074c-0.157,0.037 -0.314,-0.061 -0.351,-0.218c-0.037,-0.157 0.061,-0.315 0.218,-0.351c0.157,-0.037 0.315,0.061 0.351,0.218c0.037,0.157 -0.06,0.314 -0.218,0.351Z" style="fill:#deb87c;"/><path d="M24.857,49.928c0.045,-0.154 0.209,-0.242 0.362,-0.195c0.155,0.047 0.243,0.21 0.196,0.364c-0.045,0.154 -0.208,0.242 -0.363,0.195c-0.154,-0.046 -0.242,-0.209 -0.195,-0.364Z" style="fill:#dfd8cc;"/><path d="M19.874,29.072c0.217,0.017 0.379,0.206 0.362,0.424c-0.017,0.215 -0.206,0.377 -0.423,0.36c-0.216,-0.017 -0.378,-0.206 -0.361,-0.423c0.017,-0.216 0.206,-0.378 0.422,-0.361Z" style="fill:#deb87c;"/><path d="M15.668,28.379c0.368,0.029 0.642,0.349 0.613,0.717c-0.029,0.364 -0.349,0.638 -0.716,0.609c-0.365,-0.029 -0.639,-0.348 -0.61,-0.716c0.029,-0.364 0.348,-0.639 0.713,-0.61Z" style="fill:#e4971d;"/><path d="M17.838,19.015c0.161,0.013 0.28,0.153 0.269,0.313c-0.013,0.162 -0.154,0.281 -0.315,0.269c-0.16,-0.012 -0.28,-0.154 -0.267,-0.314c0.013,-0.16 0.153,-0.28 0.313,-0.268Z" style="fill:#7cc3de;"/><path d="M10.049,23.68c0.161,0.012 0.28,0.153 0.269,0.313c-0.013,0.162 -0.155,0.281 -0.315,0.268c-0.16,-0.011 -0.28,-0.153 -0.267,-0.313c0.012,-0.161 0.153,-0.28 0.313,-0.268Z" style="fill:#deb87c;"/><path d="M84.333,11.532c-0.091,0.131 -0.274,0.165 -0.407,0.075c-0.132,-0.092 -0.166,-0.274 -0.075,-0.407c0.091,-0.131 0.273,-0.165 0.407,-0.075c0.131,0.091 0.165,0.273 0.075,0.407Z" style="fill:#f3f1ef;"/><path d="M19.29,7.891c-0.092,0.132 -0.274,0.166 -0.407,0.075c-0.132,-0.091 -0.166,-0.273 -0.075,-0.406c0.091,-0.132 0.273,-0.166 0.407,-0.076c0.131,0.091 0.165,0.274 0.075,0.407Z" style="fill:#deb87c;"/><path d="M72.587,6.867c-0.091,0.131 -0.274,0.165 -0.407,0.075c-0.132,-0.091 -0.166,-0.274 -0.075,-0.407c0.092,-0.131 0.273,-0.165 0.407,-0.075c0.131,0.091 0.165,0.273 0.075,0.407Z" style="fill:#deb87c;"/><path d="M96.359,19.995c-0.165,0.241 -0.499,0.303 -0.742,0.137c-0.24,-0.168 -0.302,-0.499 -0.137,-0.742c0.166,-0.24 0.499,-0.302 0.742,-0.137c0.241,0.166 0.303,0.499 0.137,0.742Z" style="fill:#7ccade;"/><path d="M29.802,15.639c-0.091,0.132 -0.273,0.166 -0.407,0.075c-0.131,-0.09 -0.165,-0.273 -0.075,-0.406c0.091,-0.132 0.274,-0.166 0.407,-0.075c0.132,0.09 0.166,0.273 0.075,0.406Z" style="fill:#c7beb0;"/><path d="M84.445,31.268c0.162,0.013 0.282,0.153 0.269,0.314c-0.012,0.16 -0.153,0.281 -0.314,0.268c-0.16,-0.013 -0.281,-0.153 -0.268,-0.314c0.013,-0.16 0.153,-0.281 0.313,-0.268Z" style="fill:#deb87c;"/><path d="M84.445,31.268c0.162,0.013 0.282,0.153 0.269,0.314c-0.012,0.16 -0.153,0.281 -0.314,0.268c-0.16,-0.013 -0.281,-0.153 -0.268,-0.314c0.013,-0.16 0.153,-0.281 0.313,-0.268Z" style="fill:#deb87c;"/><path d="M83.053,23.333c0.161,0.013 0.28,0.153 0.269,0.313c-0.013,0.161 -0.154,0.28 -0.314,0.269c-0.16,-0.013 -0.281,-0.154 -0.268,-0.314c0.013,-0.16 0.153,-0.281 0.313,-0.268Z" style="fill:#deb87c;"/><path d="M91.487,12.075c0.162,0.012 0.281,0.153 0.269,0.313c-0.012,0.162 -0.154,0.281 -0.314,0.268c-0.16,-0.011 -0.28,-0.153 -0.268,-0.313c0.013,-0.161 0.153,-0.28 0.313,-0.268Z" style="fill:#deb87c;"/><path d="M97.63,26.001c-0.09,0.132 -0.273,0.166 -0.406,0.075c-0.132,-0.092 -0.166,-0.273 -0.075,-0.406c0.091,-0.132 0.273,-0.166 0.406,-0.075c0.132,0.09 0.166,0.273 0.075,0.406Z" style="fill:#a37836;"/><path d="M85.884,21.336c-0.09,0.132 -0.273,0.166 -0.406,0.075c-0.132,-0.091 -0.166,-0.273 -0.075,-0.406c0.092,-0.132 0.273,-0.166 0.406,-0.075c0.132,0.09 0.166,0.273 0.075,0.406Z" style="fill:#c8c4bd;"/><path d="M20.19,22.504c-0.132,-0.092 -0.166,-0.274 -0.075,-0.407c0.091,-0.132 0.273,-0.166 0.407,-0.075c0.131,0.091 0.165,0.273 0.075,0.406c-0.091,0.132 -0.274,0.166 -0.407,0.076Z" style="fill:#deb87c;"/><path d="M16.804,17.346c0.047,-0.155 0.21,-0.241 0.364,-0.196c0.154,0.047 0.242,0.21 0.195,0.364c-0.046,0.155 -0.209,0.242 -0.364,0.196c-0.154,-0.047 -0.24,-0.21 -0.195,-0.364Z" style="fill:#deb87c;"/><path d="M8.761,11.738c0.047,-0.155 0.21,-0.243 0.364,-0.196c0.153,0.047 0.241,0.21 0.194,0.364c-0.045,0.154 -0.208,0.242 -0.362,0.196c-0.155,-0.047 -0.242,-0.21 -0.196,-0.364Z" style="fill:#dfd8cc;"/><path d="M95.09,30.125c-0.091,0.132 -0.274,0.166 -0.407,0.075c-0.131,-0.091 -0.165,-0.273 -0.075,-0.406c0.092,-0.132 0.274,-0.166 0.407,-0.075c0.131,0.092 0.165,0.273 0.075,0.406Z" style="fill:#a37836;"/><path d="M96.767,30.476c0.036,0.157 -0.061,0.315 -0.219,0.351c-0.157,0.037 -0.314,-0.06 -0.351,-0.218c-0.037,-0.157 0.061,-0.314 0.218,-0.351c0.158,-0.037 0.315,0.061 0.352,0.218Z" style="fill:#deb87c;"/><path d="M97.618,13.315c-0.132,-0.091 -0.166,-0.274 -0.075,-0.407c0.092,-0.132 0.273,-0.166 0.406,-0.075c0.132,0.091 0.166,0.273 0.075,0.407c-0.09,0.131 -0.273,0.165 -0.406,0.075Z" style="fill:#a37836;"/><path d="M28.634,28.752c-0.132,-0.091 -0.166,-0.273 -0.076,-0.407c0.091,-0.131 0.274,-0.165 0.407,-0.075c0.132,0.092 0.166,0.274 0.075,0.407c-0.091,0.132 -0.273,0.165 -0.406,0.075Z" style="fill:#c8c4bd;"/><path d="M84.128,25.77c-0.162,-0.011 -0.282,-0.153 -0.269,-0.313c0.013,-0.16 0.153,-0.28 0.314,-0.267c0.16,0.011 0.281,0.153 0.268,0.313c-0.013,0.16 -0.153,0.28 -0.313,0.267Z" style="fill:#a37836;"/><path d="M84.66,27.399c-0.116,0.11 -0.301,0.103 -0.412,-0.013c-0.11,-0.117 -0.104,-0.303 0.013,-0.413c0.118,-0.111 0.303,-0.105 0.414,0.012c0.109,0.118 0.103,0.303 -0.015,0.414Z" style="fill:#deb87c;"/><path d="M84.616,37.411c-0.037,-0.157 0.061,-0.314 0.218,-0.351c0.156,-0.037 0.313,0.061 0.35,0.217c0.038,0.157 -0.059,0.314 -0.217,0.351c-0.157,0.037 -0.314,-0.061 -0.351,-0.217Z" style="fill:#dfd8cc;"/><path d="M86.772,35.634c-0.013,0.162 -0.153,0.282 -0.315,0.269c-0.16,-0.013 -0.28,-0.153 -0.267,-0.314c0.012,-0.16 0.153,-0.281 0.313,-0.268c0.161,0.013 0.281,0.153 0.269,0.313Z" style="fill:#a37836;"/><path d="M90.49,21.546c-0.013,0.16 -0.153,0.28 -0.313,0.267c-0.162,-0.012 -0.282,-0.153 -0.269,-0.314c0.013,-0.16 0.153,-0.281 0.314,-0.268c0.16,0.013 0.281,0.153 0.268,0.315Z" style="fill:#c8c4bd;"/><path d="M85.646,29.138c0.013,-0.161 0.154,-0.282 0.315,-0.269c0.16,0.013 0.28,0.153 0.267,0.314c-0.011,0.16 -0.153,0.281 -0.313,0.268c-0.16,-0.013 -0.28,-0.153 -0.269,-0.313Z" style="fill:#c7beb0;"/><path d="M93.494,10.774c-0.133,-0.091 -0.166,-0.273 -0.075,-0.407c0.091,-0.131 0.273,-0.165 0.406,-0.075c0.132,0.092 0.166,0.274 0.075,0.407c-0.092,0.132 -0.273,0.166 -0.406,0.075Z" style="fill:#a37836;"/><path d="M93.381,12.834c-0.261,0.061 -0.523,-0.102 -0.584,-0.363c-0.062,-0.262 0.101,-0.523 0.363,-0.584c0.261,-0.062 0.523,0.101 0.584,0.362c0.061,0.262 -0.101,0.523 -0.363,0.585Z" style="fill:#deb87c;"/><path d="M82.773,19.305c0.046,-0.154 0.21,-0.242 0.363,-0.195c0.154,0.046 0.242,0.209 0.195,0.364c-0.045,0.154 -0.208,0.242 -0.362,0.195c-0.155,-0.047 -0.242,-0.209 -0.196,-0.364Z" style="fill:#dfd8cc;"/><path d="M67.788,3.701c-0.132,-0.092 -0.166,-0.274 -0.075,-0.407c0.09,-0.133 0.273,-0.166 0.406,-0.075c0.132,0.091 0.166,0.273 0.075,0.405c-0.09,0.133 -0.273,0.167 -0.406,0.077Z" style="fill:#deb87c;"/><path d="M51.626,18.987c-0.133,-0.092 -0.166,-0.273 -0.075,-0.406c0.091,-0.133 0.273,-0.167 0.405,-0.075c0.133,0.09 0.167,0.273 0.076,0.405c-0.092,0.133 -0.273,0.167 -0.406,0.076Z" style="fill:#d7592a;"/><path d="M48.735,39.74c-0.133,-0.093 -0.166,-0.274 -0.075,-0.407c0.09,-0.133 0.273,-0.167 0.405,-0.075c0.133,0.091 0.167,0.273 0.076,0.405c-0.092,0.133 -0.273,0.167 -0.406,0.077Z" style="fill:#d7592a;"/><path d="M15.849,12.203c-0.372,-0.257 -0.463,-0.763 -0.21,-1.134c0.253,-0.372 0.763,-0.467 1.131,-0.21c0.372,0.253 0.466,0.763 0.213,1.131c-0.256,0.371 -0.763,0.466 -1.134,0.213Z" style="fill:#d7592a;"/><path d="M93.838,41.279c-0.371,-0.257 -0.462,-0.763 -0.209,-1.135c0.253,-0.371 0.763,-0.466 1.131,-0.209c0.371,0.253 0.466,0.763 0.213,1.131c-0.257,0.371 -0.763,0.466 -1.135,0.213Z" style="fill:#7cc5de;"/><path d="M6.092,38.15c-0.133,-0.092 -0.166,-0.274 -0.075,-0.407c0.09,-0.133 0.273,-0.167 0.405,-0.075c0.133,0.091 0.167,0.274 0.076,0.405c-0.092,0.133 -0.273,0.167 -0.406,0.077Z" style="fill:#d7592a;"/><path d="M25.365,21.845c-0.133,-0.092 -0.165,-0.273 -0.075,-0.406c0.091,-0.133 0.274,-0.167 0.405,-0.075c0.133,0.091 0.167,0.273 0.077,0.405c-0.092,0.133 -0.274,0.167 -0.407,0.076Z" style="fill:#d7592a;"/><path d="M26.492,35.432c-0.133,-0.092 -0.166,-0.273 -0.075,-0.406c0.091,-0.133 0.273,-0.167 0.405,-0.075c0.133,0.09 0.167,0.273 0.077,0.405c-0.092,0.133 -0.274,0.167 -0.407,0.076Z" style="fill:#d7592a;"/><path d="M84.433,56.246c-0.133,-0.092 -0.165,-0.273 -0.075,-0.406c0.091,-0.133 0.273,-0.167 0.405,-0.075c0.133,0.09 0.167,0.273 0.077,0.405c-0.092,0.133 -0.274,0.167 -0.407,0.076Z" style="fill:#d7592a;"/><path d="M78.972,50.044c-0.191,-0.132 -0.237,-0.391 -0.107,-0.582c0.129,-0.19 0.391,-0.239 0.579,-0.107c0.191,0.13 0.24,0.391 0.11,0.58c-0.132,0.19 -0.391,0.239 -0.582,0.109Z" style="fill:#d7592a;"/><path d="M30.123,50.059c-0.257,-0.178 -0.32,-0.528 -0.145,-0.785c0.175,-0.257 0.528,-0.322 0.782,-0.145c0.257,0.175 0.322,0.528 0.148,0.782c-0.178,0.257 -0.528,0.323 -0.785,0.148Z" style="fill:#d7592a;"/><path d="M74.861,13.401c-0.133,-0.092 -0.165,-0.273 -0.075,-0.406c0.091,-0.133 0.274,-0.167 0.405,-0.075c0.134,0.09 0.168,0.273 0.077,0.405c-0.092,0.133 -0.273,0.167 -0.407,0.076Z" style="fill:#d7592a;"/><path d="M50.537,11.41c-0.314,-0.218 -0.391,-0.646 -0.177,-0.96c0.214,-0.314 0.645,-0.394 0.956,-0.177c0.314,0.214 0.395,0.645 0.181,0.956c-0.218,0.315 -0.646,0.395 -0.96,0.181Z" style="fill:#d7592a;"/><path d="M38.832,19.018c-0.314,-0.217 -0.391,-0.645 -0.177,-0.959c0.214,-0.315 0.645,-0.395 0.956,-0.177c0.314,0.214 0.395,0.645 0.181,0.956c-0.218,0.314 -0.646,0.394 -0.96,0.18Z" style="fill:#d7592a;"/><path d="M22.236,37.046c0.322,0.026 0.561,0.307 0.535,0.629c-0.024,0.32 -0.305,0.561 -0.627,0.535c-0.32,-0.024 -0.561,-0.306 -0.535,-0.627c0.024,-0.322 0.306,-0.561 0.627,-0.537Z" style="fill:#baa583;"/><path d="M9.724,31.72c0.161,0.013 0.282,0.153 0.269,0.314c-0.013,0.16 -0.153,0.281 -0.314,0.268c-0.16,-0.013 -0.281,-0.153 -0.268,-0.315c0.013,-0.16 0.153,-0.28 0.313,-0.267Z" style="fill:#deb87c;"/><path d="M9.724,31.72c0.161,0.013 0.282,0.153 0.269,0.314c-0.013,0.16 -0.153,0.281 -0.314,0.268c-0.16,-0.013 -0.281,-0.153 -0.268,-0.315c0.013,-0.16 0.153,-0.28 0.313,-0.267Z" style="fill:#e4971d;"/><path d="M8.332,23.785c0.161,0.013 0.28,0.153 0.269,0.313c-0.013,0.161 -0.154,0.28 -0.315,0.269c-0.16,-0.013 -0.28,-0.155 -0.267,-0.315c0.013,-0.16 0.153,-0.28 0.313,-0.267Z" style="fill:#7cc3de;"/><path d="M0.543,28.45c0.161,0.011 0.28,0.153 0.269,0.313c-0.013,0.161 -0.155,0.28 -0.315,0.267c-0.16,-0.011 -0.28,-0.153 -0.267,-0.313c0.012,-0.161 0.153,-0.28 0.313,-0.267Z" style="fill:#deb87c;"/><path d="M1.177,43.484c-0.09,0.132 -0.273,0.166 -0.406,0.075c-0.132,-0.092 -0.166,-0.273 -0.075,-0.406c0.09,-0.132 0.273,-0.166 0.406,-0.075c0.132,0.09 0.166,0.273 0.075,0.406Z" style="fill:#f3f1ef;"/><path d="M14.339,12.619c-0.092,0.132 -0.273,0.166 -0.406,0.075c-0.132,-0.09 -0.166,-0.273 -0.075,-0.406c0.09,-0.132 0.273,-0.166 0.406,-0.075c0.132,0.091 0.166,0.273 0.075,0.406Z" style="fill:#deb87c;"/><path d="M16.047,47.733c-0.09,0.132 -0.273,0.166 -0.406,0.075c-0.132,-0.092 -0.166,-0.273 -0.075,-0.407c0.09,-0.131 0.273,-0.165 0.406,-0.075c0.132,0.091 0.166,0.274 0.075,0.407Z" style="fill:#7ccade;"/><path d="M20.296,20.409c-0.091,0.131 -0.273,0.165 -0.407,0.075c-0.131,-0.091 -0.165,-0.274 -0.075,-0.407c0.091,-0.132 0.274,-0.166 0.407,-0.075c0.132,0.091 0.166,0.273 0.075,0.407Z" style="fill:#c7beb0;"/><path d="M17.513,47.298c0.162,0.013 0.282,0.153 0.269,0.314c-0.013,0.16 -0.153,0.281 -0.314,0.268c-0.16,-0.013 -0.281,-0.153 -0.268,-0.314c0.013,-0.16 0.153,-0.281 0.313,-0.268Z" style="fill:#deb87c;"/><path d="M17.513,47.298c0.162,0.013 0.282,0.153 0.269,0.314c-0.013,0.16 -0.153,0.281 -0.314,0.268c-0.16,-0.013 -0.281,-0.153 -0.268,-0.314c0.013,-0.16 0.153,-0.281 0.313,-0.268Z" style="fill:#deb87c;"/><path d="M16.121,39.363c0.161,0.013 0.28,0.153 0.269,0.313c-0.013,0.161 -0.154,0.28 -0.314,0.269c-0.16,-0.013 -0.281,-0.154 -0.268,-0.314c0.013,-0.16 0.153,-0.281 0.313,-0.268Z" style="fill:#deb87c;"/><path d="M8.332,44.028c0.161,0.011 0.28,0.153 0.269,0.313c-0.013,0.161 -0.154,0.28 -0.315,0.268c-0.16,-0.012 -0.28,-0.153 -0.267,-0.313c0.013,-0.162 0.153,-0.281 0.313,-0.268Z" style="fill:#deb87c;"/><path d="M8.966,59.062c-0.09,0.132 -0.273,0.166 -0.406,0.076c-0.132,-0.093 -0.166,-0.274 -0.075,-0.407c0.09,-0.132 0.273,-0.166 0.406,-0.075c0.132,0.091 0.166,0.273 0.075,0.406Z" style="fill:#a37836;"/><path d="M22.129,28.198c-0.093,0.131 -0.274,0.165 -0.407,0.075c-0.132,-0.091 -0.166,-0.274 -0.075,-0.407c0.091,-0.131 0.273,-0.165 0.406,-0.075c0.132,0.091 0.166,0.274 0.076,0.407Z" style="fill:#deb87c;"/><path d="M46.27,53.795c-0.091,0.131 -0.274,0.165 -0.407,0.075c-0.132,-0.091 -0.166,-0.274 -0.075,-0.407c0.092,-0.131 0.273,-0.165 0.406,-0.075c0.132,0.091 0.166,0.274 0.076,0.407Z" style="fill:#c8c4bd;"/><path d="M23.836,63.311c-0.09,0.132 -0.273,0.166 -0.406,0.075c-0.132,-0.092 -0.166,-0.273 -0.075,-0.406c0.091,-0.132 0.273,-0.166 0.406,-0.075c0.132,0.09 0.166,0.273 0.075,0.406Z" style="fill:#f5efe6;"/><path d="M10.684,27.273c-0.132,-0.092 -0.166,-0.273 -0.075,-0.407c0.091,-0.131 0.273,-0.165 0.407,-0.075c0.131,0.091 0.165,0.274 0.075,0.407c-0.091,0.132 -0.274,0.166 -0.407,0.075Z" style="fill:#deb87c;"/><path d="M21.306,15.057c-0.132,-0.091 -0.166,-0.274 -0.075,-0.407c0.09,-0.131 0.273,-0.165 0.406,-0.075c0.132,0.092 0.166,0.273 0.075,0.407c-0.09,0.131 -0.273,0.165 -0.406,0.075Z" style="fill:#7ccade;"/><path d="M21.74,16.524c-0.012,0.16 -0.152,0.28 -0.314,0.268c-0.16,-0.013 -0.28,-0.153 -0.268,-0.315c0.013,-0.16 0.153,-0.28 0.315,-0.268c0.16,0.013 0.28,0.153 0.267,0.315Z" style="fill:#deb87c;"/><path d="M21.74,16.524c-0.012,0.16 -0.152,0.28 -0.314,0.268c-0.16,-0.013 -0.28,-0.153 -0.268,-0.315c0.013,-0.16 0.153,-0.28 0.315,-0.268c0.16,0.013 0.28,0.153 0.267,0.315Z" style="fill:#deb87c;"/><path d="M9.976,7.976c-0.132,-0.091 -0.166,-0.274 -0.075,-0.407c0.091,-0.132 0.273,-0.166 0.406,-0.075c0.132,0.092 0.166,0.273 0.075,0.407c-0.09,0.131 -0.273,0.165 -0.406,0.075Z" style="fill:#a37836;"/><path d="M9.625,9.652c-0.156,0.037 -0.315,-0.06 -0.351,-0.218c-0.037,-0.157 0.06,-0.314 0.218,-0.351c0.157,-0.037 0.314,0.061 0.351,0.218c0.037,0.157 -0.061,0.315 -0.218,0.351Z" style="fill:#deb87c;"/><path d="M7.298,22.115c0.047,-0.154 0.21,-0.241 0.364,-0.195c0.154,0.046 0.242,0.209 0.195,0.364c-0.046,0.154 -0.209,0.242 -0.364,0.195c-0.154,-0.047 -0.24,-0.21 -0.195,-0.364Z" style="fill:#deb87c;"/><path d="M27.969,19.597c0.047,-0.154 0.21,-0.242 0.364,-0.195c0.153,0.047 0.241,0.21 0.194,0.364c-0.045,0.154 -0.208,0.242 -0.362,0.195c-0.155,-0.046 -0.242,-0.209 -0.196,-0.364Z" style="fill:#dfd8cc;"/><path d="M22.235,64.831c0.012,-0.162 0.153,-0.281 0.313,-0.268c0.161,0.011 0.28,0.153 0.269,0.313c-0.013,0.16 -0.155,0.28 -0.315,0.268c-0.16,-0.012 -0.28,-0.153 -0.267,-0.313Z" style="fill:#7cc3de;"/><path d="M32.889,35.695c0.162,-0.001 0.291,0.132 0.29,0.292c0,0.162 -0.132,0.291 -0.292,0.29c-0.161,0.001 -0.291,-0.132 -0.291,-0.292c-0,-0.162 0.132,-0.291 0.293,-0.29Z" style="fill:#deb87c;"/><path d="M45.388,52.156c-0.082,0.138 -0.26,0.185 -0.4,0.105c-0.138,-0.082 -0.185,-0.26 -0.105,-0.4c0.081,-0.138 0.261,-0.185 0.4,-0.105c0.138,0.081 0.186,0.26 0.105,0.4Z" style="fill:#f3f1ef;"/><path d="M6.426,63.186c-0.091,0.132 -0.274,0.166 -0.407,0.076c-0.132,-0.091 -0.166,-0.274 -0.075,-0.407c0.092,-0.132 0.273,-0.166 0.407,-0.075c0.131,0.092 0.165,0.273 0.075,0.406Z" style="fill:#a37836;"/><path d="M8.102,63.538c0.037,0.157 -0.061,0.314 -0.218,0.351c-0.157,0.037 -0.314,-0.061 -0.351,-0.218c-0.037,-0.157 0.061,-0.315 0.218,-0.351c0.157,-0.037 0.315,0.06 0.351,0.218Z" style="fill:#deb87c;"/><path d="M20.565,65.865c-0.154,-0.047 -0.241,-0.21 -0.195,-0.364c0.046,-0.155 0.209,-0.243 0.364,-0.196c0.154,0.047 0.242,0.21 0.195,0.364c-0.047,0.154 -0.21,0.242 -0.364,0.196Z" style="fill:#deb87c;"/><path d="M14.463,45.267c-0.132,-0.09 -0.166,-0.273 -0.075,-0.406c0.092,-0.132 0.273,-0.166 0.406,-0.075c0.132,0.09 0.166,0.273 0.075,0.406c-0.091,0.132 -0.273,0.166 -0.406,0.075Z" style="fill:#a37836;"/><path d="M19.128,33.521c-0.132,-0.09 -0.166,-0.273 -0.075,-0.406c0.09,-0.132 0.273,-0.166 0.406,-0.075c0.132,0.092 0.166,0.273 0.075,0.406c-0.091,0.132 -0.273,0.166 -0.406,0.075Z" style="fill:#c8c4bd;"/><path d="M17.196,41.8c-0.162,-0.011 -0.282,-0.153 -0.269,-0.313c0.013,-0.16 0.153,-0.28 0.314,-0.267c0.16,0.011 0.281,0.153 0.268,0.313c-0.013,0.16 -0.153,0.28 -0.313,0.267Z" style="fill:#a37836;"/><path d="M17.728,43.429c-0.116,0.11 -0.301,0.103 -0.412,-0.013c-0.11,-0.117 -0.105,-0.303 0.013,-0.413c0.118,-0.111 0.303,-0.105 0.414,0.012c0.109,0.118 0.103,0.304 -0.015,0.414Z" style="fill:#deb87c;"/><path d="M12.175,54.55c-0.036,-0.157 0.061,-0.314 0.218,-0.351c0.156,-0.037 0.313,0.061 0.35,0.217c0.039,0.157 -0.059,0.314 -0.216,0.351c-0.158,0.037 -0.315,-0.061 -0.352,-0.217Z" style="fill:#dfd8cc;"/><path d="M14.331,52.773c-0.013,0.162 -0.153,0.282 -0.315,0.269c-0.16,-0.013 -0.28,-0.153 -0.267,-0.314c0.013,-0.16 0.153,-0.281 0.313,-0.268c0.161,0.013 0.282,0.153 0.269,0.313Z" style="fill:#a37836;"/><path d="M1.826,54.607c-0.013,0.16 -0.153,0.281 -0.313,0.268c-0.162,-0.013 -0.282,-0.153 -0.269,-0.315c0.012,-0.16 0.153,-0.28 0.314,-0.267c0.16,0.012 0.281,0.153 0.268,0.314Z" style="fill:#c8c4bd;"/><path d="M18.714,45.168c0.013,-0.161 0.154,-0.282 0.314,-0.269c0.16,0.013 0.281,0.153 0.268,0.314c-0.011,0.16 -0.153,0.281 -0.313,0.268c-0.16,-0.013 -0.28,-0.153 -0.269,-0.313Z" style="fill:#c7beb0;"/><path d="M23.606,34.418c0.161,0.011 0.281,0.153 0.269,0.313c-0.013,0.16 -0.153,0.28 -0.315,0.269c-0.16,-0.013 -0.28,-0.155 -0.267,-0.315c0.012,-0.16 0.153,-0.28 0.313,-0.267Z" style="fill:#deb87c;"/><path d="M10.339,42.727c-0.134,-0.091 -0.166,-0.274 -0.075,-0.407c0.09,-0.132 0.273,-0.166 0.406,-0.075c0.132,0.092 0.166,0.273 0.075,0.406c-0.092,0.132 -0.273,0.166 -0.406,0.076Z" style="fill:#a37836;"/><path d="M9.987,44.403c-0.157,0.037 -0.314,-0.061 -0.351,-0.218c-0.037,-0.157 0.061,-0.314 0.218,-0.351c0.157,-0.037 0.315,0.061 0.351,0.218c0.037,0.157 -0.06,0.315 -0.218,0.351Z" style="fill:#deb87c;"/><path d="M50,46.228c0.045,-0.155 0.209,-0.242 0.362,-0.196c0.155,0.047 0.243,0.21 0.196,0.364c-0.045,0.155 -0.208,0.242 -0.363,0.196c-0.154,-0.047 -0.242,-0.21 -0.195,-0.364Z" style="fill:#dfd8cc;"/><path d="M4.563,16.969c-0.091,0.131 -0.273,0.165 -0.407,0.075c-0.131,-0.091 -0.165,-0.274 -0.075,-0.407c0.091,-0.132 0.274,-0.166 0.407,-0.075c0.132,0.091 0.166,0.273 0.075,0.407Z" style="fill:#c7beb0;"/><path d="M3.395,30.081c-0.132,-0.09 -0.166,-0.273 -0.076,-0.406c0.091,-0.132 0.274,-0.166 0.407,-0.075c0.132,0.092 0.166,0.273 0.075,0.406c-0.091,0.132 -0.273,0.166 -0.406,0.075Z" style="fill:#c8c4bd;"/><path d="M23.496,41.069c-0.133,-0.092 -0.166,-0.273 -0.075,-0.407c0.09,-0.133 0.273,-0.167 0.405,-0.075c0.133,0.091 0.167,0.274 0.076,0.405c-0.092,0.134 -0.273,0.168 -0.406,0.077Z" style="fill:#d7592a;"/><path d="M0.126,23.175c-0.133,-0.092 -0.165,-0.274 -0.075,-0.407c0.091,-0.133 0.274,-0.167 0.405,-0.075c0.133,0.091 0.167,0.274 0.077,0.405c-0.092,0.133 -0.274,0.167 -0.407,0.077Z" style="fill:#d7592a;"/><path d="M1.253,36.762c-0.133,-0.092 -0.166,-0.274 -0.075,-0.407c0.091,-0.133 0.273,-0.167 0.405,-0.075c0.133,0.091 0.167,0.273 0.077,0.405c-0.092,0.133 -0.274,0.167 -0.407,0.077Z" style="fill:#d7592a;"/><path d="M5.309,51.436c-0.133,-0.093 -0.165,-0.274 -0.075,-0.407c0.091,-0.133 0.274,-0.167 0.405,-0.075c0.133,0.091 0.167,0.273 0.077,0.405c-0.092,0.133 -0.274,0.167 -0.407,0.077Z" style="fill:#d7592a;"/><path d="M13.713,19.914c-0.133,-0.092 -0.166,-0.273 -0.075,-0.407c0.091,-0.133 0.273,-0.167 0.405,-0.075c0.133,0.091 0.167,0.274 0.077,0.405c-0.092,0.134 -0.274,0.168 -0.407,0.077Z" style="fill:#d7592a;"/><path d="M22.236,37.046c0.322,0.026 0.561,0.307 0.535,0.629c-0.024,0.32 -0.305,0.561 -0.627,0.535c-0.32,-0.024 -0.561,-0.306 -0.535,-0.627c0.024,-0.322 0.306,-0.561 0.627,-0.537Z" style="fill:#baa583;"/><path d="M9.724,31.72c0.161,0.013 0.282,0.153 0.269,0.314c-0.013,0.16 -0.153,0.281 -0.314,0.268c-0.16,-0.013 -0.281,-0.153 -0.268,-0.315c0.013,-0.16 0.153,-0.28 0.313,-0.267Z" style="fill:#deb87c;"/><path d="M9.724,31.72c0.161,0.013 0.282,0.153 0.269,0.314c-0.013,0.16 -0.153,0.281 -0.314,0.268c-0.16,-0.013 -0.281,-0.153 -0.268,-0.315c0.013,-0.16 0.153,-0.28 0.313,-0.267Z" style="fill:#e4971d;"/><path d="M8.332,23.785c0.161,0.013 0.28,0.153 0.269,0.313c-0.013,0.161 -0.154,0.28 -0.315,0.269c-0.16,-0.013 -0.28,-0.155 -0.267,-0.315c0.013,-0.16 0.153,-0.28 0.313,-0.267Z" style="fill:#7cc3de;"/><path d="M0.543,28.45c0.161,0.011 0.28,0.153 0.269,0.313c-0.013,0.161 -0.155,0.28 -0.315,0.267c-0.16,-0.011 -0.28,-0.153 -0.267,-0.313c0.012,-0.161 0.153,-0.28 0.313,-0.267Z" style="fill:#deb87c;"/><path d="M1.177,43.484c-0.09,0.132 -0.273,0.166 -0.406,0.075c-0.132,-0.092 -0.166,-0.273 -0.075,-0.406c0.09,-0.132 0.273,-0.166 0.406,-0.075c0.132,0.09 0.166,0.273 0.075,0.406Z" style="fill:#f3f1ef;"/><path d="M14.339,12.619c-0.092,0.132 -0.273,0.166 -0.406,0.075c-0.132,-0.09 -0.166,-0.273 -0.075,-0.406c0.09,-0.132 0.273,-0.166 0.406,-0.075c0.132,0.091 0.166,0.273 0.075,0.406Z" style="fill:#deb87c;"/><path d="M16.49,48.113c-0.166,0.242 -0.5,0.304 -0.744,0.138c-0.242,-0.169 -0.304,-0.501 -0.138,-0.745c0.166,-0.241 0.501,-0.303 0.745,-0.137c0.241,0.166 0.303,0.5 0.137,0.744Z" style="fill:#7ccade;"/><path d="M20.296,20.409c-0.091,0.131 -0.273,0.165 -0.407,0.075c-0.131,-0.091 -0.165,-0.274 -0.075,-0.407c0.091,-0.132 0.274,-0.166 0.407,-0.075c0.132,0.091 0.166,0.273 0.075,0.407Z" style="fill:#c7beb0;"/><path d="M17.513,47.298c0.162,0.013 0.282,0.153 0.269,0.314c-0.013,0.16 -0.153,0.281 -0.314,0.268c-0.16,-0.013 -0.281,-0.153 -0.268,-0.314c0.013,-0.16 0.153,-0.281 0.313,-0.268Z" style="fill:#deb87c;"/><path d="M17.513,47.298c0.162,0.013 0.282,0.153 0.269,0.314c-0.013,0.16 -0.153,0.281 -0.314,0.268c-0.16,-0.013 -0.281,-0.153 -0.268,-0.314c0.013,-0.16 0.153,-0.281 0.313,-0.268Z" style="fill:#deb87c;"/><path d="M16.121,39.363c0.161,0.013 0.28,0.153 0.269,0.313c-0.013,0.161 -0.154,0.28 -0.314,0.269c-0.16,-0.013 -0.281,-0.154 -0.268,-0.314c0.013,-0.16 0.153,-0.281 0.313,-0.268Z" style="fill:#deb87c;"/><path d="M7.88,43.054c0.432,0.03 0.75,0.409 0.72,0.837c-0.034,0.432 -0.413,0.75 -0.842,0.716c-0.428,-0.03 -0.75,-0.409 -0.716,-0.837c0.034,-0.432 0.41,-0.75 0.838,-0.716Z" style="fill:#deb87c;"/><path d="M8.966,59.062c-0.09,0.132 -0.273,0.166 -0.406,0.076c-0.132,-0.093 -0.166,-0.274 -0.075,-0.407c0.09,-0.132 0.273,-0.166 0.406,-0.075c0.132,0.091 0.166,0.273 0.075,0.406Z" style="fill:#a37836;"/><path d="M22.129,28.198c-0.093,0.131 -0.274,0.165 -0.407,0.075c-0.132,-0.091 -0.166,-0.274 -0.075,-0.407c0.091,-0.131 0.273,-0.165 0.406,-0.075c0.132,0.091 0.166,0.274 0.076,0.407Z" style="fill:#deb87c;"/><path d="M46.27,53.795c-0.091,0.131 -0.274,0.165 -0.407,0.075c-0.132,-0.091 -0.166,-0.274 -0.075,-0.407c0.092,-0.131 0.273,-0.165 0.406,-0.075c0.132,0.091 0.166,0.274 0.076,0.407Z" style="fill:#c8c4bd;"/><path d="M23.836,63.311c-0.09,0.132 -0.273,0.166 -0.406,0.075c-0.132,-0.092 -0.166,-0.273 -0.075,-0.406c0.091,-0.132 0.273,-0.166 0.406,-0.075c0.132,0.09 0.166,0.273 0.075,0.406Z" style="fill:#f5efe6;"/><path d="M10.684,27.273c-0.132,-0.092 -0.166,-0.273 -0.075,-0.407c0.091,-0.131 0.273,-0.165 0.407,-0.075c0.131,0.091 0.165,0.274 0.075,0.407c-0.091,0.132 -0.274,0.166 -0.407,0.075Z" style="fill:#deb87c;"/><path d="M21.306,15.057c-0.132,-0.091 -0.166,-0.274 -0.075,-0.407c0.09,-0.131 0.273,-0.165 0.406,-0.075c0.132,0.092 0.166,0.273 0.075,0.407c-0.09,0.131 -0.273,0.165 -0.406,0.075Z" style="fill:#7ccade;"/><path d="M21.74,16.524c-0.012,0.16 -0.152,0.28 -0.314,0.268c-0.16,-0.013 -0.28,-0.153 -0.268,-0.315c0.013,-0.16 0.153,-0.28 0.315,-0.268c0.16,0.013 0.28,0.153 0.267,0.315Z" style="fill:#deb87c;"/><path d="M21.74,16.524c-0.012,0.16 -0.152,0.28 -0.314,0.268c-0.16,-0.013 -0.28,-0.153 -0.268,-0.315c0.013,-0.16 0.153,-0.28 0.315,-0.268c0.16,0.013 0.28,0.153 0.267,0.315Z" style="fill:#deb87c;"/><path d="M10.691,17.457c-0.131,-0.091 -0.165,-0.273 -0.075,-0.406c0.091,-0.132 0.274,-0.166 0.407,-0.076c0.131,0.093 0.165,0.274 0.075,0.407c-0.091,0.132 -0.274,0.166 -0.407,0.075Z" style="fill:#a37836;"/><path d="M9.625,9.652c-0.156,0.037 -0.315,-0.06 -0.351,-0.218c-0.037,-0.157 0.06,-0.314 0.218,-0.351c0.157,-0.037 0.314,0.061 0.351,0.218c0.037,0.157 -0.061,0.315 -0.218,0.351Z" style="fill:#deb87c;"/><path d="M7.298,22.115c0.047,-0.154 0.21,-0.241 0.364,-0.195c0.154,0.046 0.242,0.209 0.195,0.364c-0.046,0.154 -0.209,0.242 -0.364,0.195c-0.154,-0.047 -0.24,-0.21 -0.195,-0.364Z" style="fill:#deb87c;"/><path d="M2.717,19.89c0.047,-0.155 0.21,-0.242 0.364,-0.196c0.153,0.047 0.241,0.21 0.194,0.364c-0.045,0.155 -0.208,0.242 -0.362,0.196c-0.154,-0.047 -0.242,-0.21 -0.196,-0.364Z" style="fill:#dfd8cc;"/><path d="M22.235,64.831c0.012,-0.162 0.153,-0.281 0.313,-0.268c0.161,0.011 0.28,0.153 0.269,0.313c-0.013,0.16 -0.155,0.28 -0.315,0.268c-0.16,-0.012 -0.28,-0.153 -0.267,-0.313Z" style="fill:#7cc3de;"/><path d="M4.628,40.334c0.162,-0.001 0.291,0.132 0.29,0.292c0.001,0.162 -0.132,0.291 -0.292,0.29c-0.161,0.001 -0.291,-0.132 -0.29,-0.292c-0.001,-0.162 0.131,-0.291 0.292,-0.29Z" style="fill:#deb87c;"/><path d="M45.388,52.156c-0.082,0.138 -0.26,0.185 -0.4,0.105c-0.138,-0.082 -0.185,-0.26 -0.105,-0.4c0.081,-0.138 0.261,-0.185 0.4,-0.105c0.138,0.081 0.186,0.26 0.105,0.4Z" style="fill:#f3f1ef;"/><path d="M6.426,63.186c-0.091,0.132 -0.274,0.166 -0.407,0.076c-0.132,-0.091 -0.166,-0.274 -0.075,-0.407c0.092,-0.132 0.273,-0.166 0.407,-0.075c0.131,0.092 0.165,0.273 0.075,0.406Z" style="fill:#a37836;"/><path d="M20.565,65.865c-0.154,-0.047 -0.241,-0.21 -0.195,-0.364c0.046,-0.155 0.209,-0.243 0.364,-0.196c0.154,0.047 0.242,0.21 0.195,0.364c-0.047,0.154 -0.21,0.242 -0.364,0.196Z" style="fill:#deb87c;"/><path d="M14.463,45.267c-0.132,-0.09 -0.166,-0.273 -0.075,-0.406c0.092,-0.132 0.273,-0.166 0.406,-0.075c0.132,0.09 0.166,0.273 0.075,0.406c-0.091,0.132 -0.273,0.166 -0.406,0.075Z" style="fill:#a37836;"/><path d="M19.128,33.521c-0.132,-0.09 -0.166,-0.273 -0.075,-0.406c0.09,-0.132 0.273,-0.166 0.406,-0.075c0.132,0.092 0.166,0.273 0.075,0.406c-0.091,0.132 -0.273,0.166 -0.406,0.075Z" style="fill:#c8c4bd;"/><path d="M17.196,41.8c-0.162,-0.011 -0.282,-0.153 -0.269,-0.313c0.013,-0.16 0.153,-0.28 0.314,-0.267c0.16,0.011 0.281,0.153 0.268,0.313c-0.013,0.16 -0.153,0.28 -0.313,0.267Z" style="fill:#a37836;"/><path d="M17.728,43.429c-0.116,0.11 -0.301,0.103 -0.412,-0.013c-0.11,-0.117 -0.105,-0.303 0.013,-0.413c0.118,-0.111 0.303,-0.105 0.414,0.012c0.109,0.118 0.103,0.304 -0.015,0.414Z" style="fill:#deb87c;"/><path d="M12.175,54.55c-0.036,-0.157 0.061,-0.314 0.218,-0.351c0.156,-0.037 0.313,0.061 0.35,0.217c0.039,0.157 -0.059,0.314 -0.216,0.351c-0.158,0.037 -0.315,-0.061 -0.352,-0.217Z" style="fill:#dfd8cc;"/><path d="M14.331,52.773c-0.013,0.162 -0.153,0.282 -0.315,0.269c-0.16,-0.013 -0.28,-0.153 -0.267,-0.314c0.013,-0.16 0.153,-0.281 0.313,-0.268c0.161,0.013 0.282,0.153 0.269,0.313Z" style="fill:#a37836;"/><path d="M1.826,54.607c-0.013,0.16 -0.153,0.281 -0.313,0.268c-0.162,-0.013 -0.282,-0.153 -0.269,-0.315c0.012,-0.16 0.153,-0.28 0.314,-0.267c0.16,0.012 0.281,0.153 0.268,0.314Z" style="fill:#c8c4bd;"/><path d="M18.714,45.168c0.013,-0.161 0.154,-0.282 0.314,-0.269c0.16,0.013 0.281,0.153 0.268,0.314c-0.011,0.16 -0.153,0.281 -0.313,0.268c-0.16,-0.013 -0.28,-0.153 -0.269,-0.313Z" style="fill:#c7beb0;"/><path d="M23.606,34.418c0.161,0.011 0.281,0.153 0.269,0.313c-0.013,0.16 -0.153,0.28 -0.315,0.269c-0.16,-0.013 -0.28,-0.155 -0.267,-0.315c0.012,-0.16 0.153,-0.28 0.313,-0.267Z" style="fill:#deb87c;"/><path d="M10.339,42.727c-0.134,-0.091 -0.166,-0.274 -0.075,-0.407c0.09,-0.132 0.273,-0.166 0.406,-0.075c0.132,0.092 0.166,0.273 0.075,0.406c-0.092,0.132 -0.273,0.166 -0.406,0.076Z" style="fill:#a37836;"/><path d="M9.987,44.403c-0.157,0.037 -0.314,-0.061 -0.351,-0.218c-0.037,-0.157 0.061,-0.314 0.218,-0.351c0.157,-0.037 0.315,0.061 0.351,0.218c0.037,0.157 -0.06,0.315 -0.218,0.351Z" style="fill:#deb87c;"/><path d="M1.882,49.781c0.046,-0.155 0.21,-0.242 0.363,-0.196c0.154,0.047 0.242,0.21 0.195,0.364c-0.045,0.155 -0.208,0.243 -0.362,0.196c-0.154,-0.047 -0.242,-0.21 -0.196,-0.364Z" style="fill:#dfd8cc;"/><path d="M4.563,16.969c-0.091,0.131 -0.273,0.165 -0.407,0.075c-0.131,-0.091 -0.165,-0.274 -0.075,-0.407c0.091,-0.132 0.274,-0.166 0.407,-0.075c0.132,0.091 0.166,0.273 0.075,0.407Z" style="fill:#c7beb0;"/><path d="M36.778,22.892c-0.132,-0.092 -0.166,-0.274 -0.075,-0.407c0.091,-0.131 0.273,-0.165 0.407,-0.075c0.131,0.091 0.165,0.274 0.075,0.407c-0.091,0.131 -0.274,0.165 -0.407,0.075Z" style="fill:#deb87c;"/><path d="M3.395,30.081c-0.132,-0.09 -0.166,-0.273 -0.076,-0.406c0.091,-0.132 0.274,-0.166 0.407,-0.075c0.132,0.092 0.166,0.273 0.075,0.406c-0.091,0.132 -0.273,0.166 -0.406,0.075Z" style="fill:#c8c4bd;"/><path d="M23.496,41.069c-0.133,-0.092 -0.166,-0.273 -0.075,-0.407c0.09,-0.133 0.273,-0.167 0.405,-0.075c0.133,0.091 0.167,0.274 0.076,0.405c-0.092,0.134 -0.273,0.168 -0.406,0.077Z" style="fill:#d7592a;"/><path d="M0.126,23.175c-0.133,-0.092 -0.165,-0.274 -0.075,-0.407c0.091,-0.133 0.274,-0.167 0.405,-0.075c0.133,0.091 0.167,0.274 0.077,0.405c-0.092,0.133 -0.274,0.167 -0.407,0.077Z" style="fill:#d7592a;"/><path d="M1.253,36.762c-0.133,-0.092 -0.166,-0.274 -0.075,-0.407c0.091,-0.133 0.273,-0.167 0.405,-0.075c0.133,0.091 0.167,0.273 0.077,0.405c-0.092,0.133 -0.274,0.167 -0.407,0.077Z" style="fill:#d7592a;"/><path d="M5.309,51.436c-0.133,-0.093 -0.165,-0.274 -0.075,-0.407c0.091,-0.133 0.274,-0.167 0.405,-0.075c0.133,0.091 0.167,0.273 0.077,0.405c-0.092,0.133 -0.274,0.167 -0.407,0.077Z" style="fill:#d7592a;"/><path d="M25.836,9.913c-0.138,-0.08 -0.185,-0.26 -0.105,-0.399c0.081,-0.138 0.261,-0.186 0.4,-0.105c0.138,0.08 0.186,0.26 0.105,0.399c-0.081,0.138 -0.26,0.186 -0.4,0.105Z" style="fill:#deb87c;"/><path d="M49.803,10.443c-0.012,0.162 -0.153,0.281 -0.313,0.269c-0.162,-0.012 -0.281,-0.154 -0.268,-0.314c0.011,-0.16 0.153,-0.28 0.313,-0.268c0.161,0.013 0.28,0.153 0.268,0.313Z" style="fill:#deb87c;"/><path d="M61.745,9.156c0.155,0.047 0.243,0.21 0.196,0.364c-0.047,0.153 -0.21,0.241 -0.364,0.194c-0.155,-0.045 -0.242,-0.208 -0.196,-0.363c0.047,-0.154 0.21,-0.242 0.364,-0.195Z" style="fill:#dfd8cc;"/><path d="M35.333,6.487c0.092,-0.134 0.274,-0.166 0.407,-0.076c0.133,0.091 0.167,0.274 0.075,0.406c-0.091,0.133 -0.274,0.167 -0.405,0.076c-0.133,-0.092 -0.167,-0.273 -0.077,-0.406Z" style="fill:#d7592a;"/><path d="M41.763,10.119c-0.013,0.161 -0.153,0.281 -0.314,0.269c-0.16,-0.013 -0.281,-0.153 -0.268,-0.315c0.013,-0.16 0.153,-0.28 0.315,-0.267c0.16,0.012 0.28,0.153 0.267,0.313Z" style="fill:#deb87c;"/><path d="M41.763,10.119c-0.013,0.161 -0.153,0.281 -0.314,0.269c-0.16,-0.013 -0.281,-0.153 -0.268,-0.315c0.013,-0.16 0.153,-0.28 0.315,-0.267c0.16,0.012 0.28,0.153 0.267,0.313Z" style="fill:#e4971d;"/><path d="M49.698,8.726c-0.013,0.162 -0.153,0.281 -0.313,0.27c-0.161,-0.013 -0.28,-0.155 -0.269,-0.315c0.013,-0.16 0.154,-0.28 0.315,-0.268c0.16,0.013 0.28,0.153 0.267,0.313Z" style="fill:#7cc3de;"/><path d="M45.033,0.937c-0.011,0.162 -0.153,0.281 -0.313,0.269c-0.161,-0.012 -0.28,-0.154 -0.267,-0.314c0.011,-0.16 0.152,-0.28 0.313,-0.268c0.161,0.013 0.28,0.153 0.267,0.313Z" style="fill:#deb87c;"/><path d="M29.999,1.572c-0.132,-0.091 -0.166,-0.274 -0.075,-0.407c0.092,-0.131 0.273,-0.165 0.406,-0.075c0.132,0.091 0.166,0.274 0.075,0.407c-0.09,0.131 -0.273,0.165 -0.406,0.075Z" style="fill:#f3f1ef;"/><path d="M29.455,8.726c-0.011,0.162 -0.153,0.281 -0.313,0.27c-0.162,-0.013 -0.28,-0.155 -0.268,-0.315c0.012,-0.16 0.153,-0.28 0.313,-0.268c0.162,0.013 0.281,0.153 0.268,0.313Z" style="fill:#deb87c;"/><path d="M14.42,9.361c-0.131,-0.091 -0.165,-0.273 -0.075,-0.407c0.092,-0.131 0.274,-0.165 0.407,-0.075c0.132,0.091 0.166,0.274 0.075,0.407c-0.091,0.132 -0.273,0.166 -0.407,0.075Z" style="fill:#a37836;"/><path d="M12.905,5.695c-0.132,-0.09 -0.166,-0.273 -0.075,-0.406c0.09,-0.132 0.273,-0.166 0.406,-0.075c0.132,0.092 0.166,0.273 0.075,0.406c-0.09,0.132 -0.273,0.166 -0.406,0.075Z" style="fill:#c8c4bd;"/><path d="M46.21,11.079c0.092,-0.132 0.273,-0.166 0.407,-0.075c0.131,0.09 0.165,0.273 0.075,0.406c-0.091,0.132 -0.274,0.166 -0.407,0.075c-0.132,-0.09 -0.166,-0.273 -0.075,-0.406Z" style="fill:#deb87c;"/><path d="M65.507,10.371c0.091,-0.132 0.274,-0.166 0.407,-0.075c0.131,0.09 0.165,0.273 0.075,0.406c-0.092,0.132 -0.274,0.166 -0.407,0.075c-0.131,-0.09 -0.165,-0.273 -0.075,-0.406Z" style="fill:#a37836;"/><path d="M63.831,10.019c-0.037,-0.155 0.06,-0.314 0.218,-0.351c0.157,-0.037 0.314,0.061 0.351,0.218c0.037,0.158 -0.061,0.315 -0.218,0.352c-0.157,0.036 -0.315,-0.061 -0.351,-0.219Z" style="fill:#deb87c;"/><path d="M51.368,7.693c0.154,0.046 0.241,0.209 0.195,0.364c-0.046,0.154 -0.209,0.242 -0.364,0.195c-0.154,-0.047 -0.242,-0.21 -0.195,-0.364c0.047,-0.154 0.21,-0.241 0.364,-0.195Z" style="fill:#deb87c;"/><path d="M59.602,1.72c0.155,0.047 0.242,0.21 0.196,0.364c-0.047,0.153 -0.21,0.241 -0.364,0.194c-0.155,-0.045 -0.243,-0.208 -0.196,-0.363c0.047,-0.154 0.21,-0.242 0.364,-0.195Z" style="fill:#dfd8cc;"/><path d="M52.2,27.544c0.001,0.162 -0.131,0.291 -0.292,0.29c-0.162,0 -0.291,-0.132 -0.29,-0.292c-0,-0.161 0.132,-0.291 0.292,-0.291c0.162,-0 0.291,0.132 0.29,0.293Z" style="fill:#deb87c;"/><path d="M14.544,4.814c-0.138,-0.082 -0.186,-0.261 -0.105,-0.4c0.082,-0.138 0.26,-0.186 0.4,-0.105c0.138,0.081 0.185,0.26 0.105,0.4c-0.081,0.138 -0.261,0.185 -0.4,0.105Z" style="fill:#f3f1ef;"/><path d="M10.148,3.618c-0.132,-0.09 -0.166,-0.273 -0.075,-0.406c0.09,-0.132 0.273,-0.166 0.406,-0.075c0.132,0.092 0.166,0.273 0.075,0.406c-0.092,0.132 -0.273,0.166 -0.406,0.075Z" style="fill:#a37836;"/><path d="M35.421,12.609c-0.158,0.037 -0.315,-0.061 -0.352,-0.218c-0.037,-0.158 0.061,-0.315 0.218,-0.352c0.158,-0.036 0.315,0.061 0.352,0.219c0.036,0.157 -0.061,0.314 -0.218,0.351Z" style="fill:#deb87c;"/><path d="M18.932,12.57c0.158,-0.037 0.315,0.061 0.352,0.218c0.037,0.156 -0.061,0.313 -0.217,0.35c-0.157,0.038 -0.314,-0.06 -0.351,-0.217c-0.037,-0.157 0.061,-0.314 0.216,-0.351Z" style="fill:#dfd8cc;"/><path d="M18.876,2.22c-0.16,-0.012 -0.281,-0.153 -0.268,-0.313c0.013,-0.161 0.153,-0.281 0.315,-0.269c0.16,0.013 0.28,0.153 0.267,0.315c-0.013,0.16 -0.153,0.28 -0.314,0.267Z" style="fill:#c8c4bd;"/><path d="M30.756,10.733c0.091,-0.133 0.274,-0.165 0.407,-0.075c0.132,0.091 0.166,0.274 0.075,0.407c-0.092,0.131 -0.273,0.165 -0.407,0.075c-0.131,-0.092 -0.165,-0.274 -0.075,-0.407Z" style="fill:#a37836;"/><path d="M29.08,10.382c-0.037,-0.157 0.061,-0.314 0.218,-0.351c0.157,-0.037 0.314,0.061 0.351,0.218c0.037,0.157 -0.061,0.314 -0.218,0.351c-0.157,0.037 -0.315,-0.061 -0.351,-0.218Z" style="fill:#deb87c;"/><path d="M22.225,0.013c0.155,0.045 0.242,0.209 0.196,0.362c-0.047,0.154 -0.21,0.242 -0.364,0.196c-0.155,-0.046 -0.243,-0.209 -0.196,-0.363c0.047,-0.154 0.21,-0.242 0.364,-0.195Z" style="fill:#dfd8cc;"/><path d="M56.514,4.958c-0.131,-0.091 -0.165,-0.274 -0.075,-0.407c0.091,-0.132 0.274,-0.166 0.407,-0.075c0.131,0.091 0.165,0.273 0.075,0.407c-0.091,0.131 -0.273,0.165 -0.407,0.075Z" style="fill:#c7beb0;"/><path d="M70.147,26.29c0.092,-0.132 0.273,-0.166 0.406,-0.075c0.132,0.09 0.166,0.273 0.075,0.406c-0.09,0.132 -0.273,0.166 -0.406,0.075c-0.132,-0.091 -0.166,-0.273 -0.075,-0.406Z" style="fill:#deb87c;"/><path d="M43.402,3.789c0.09,-0.132 0.273,-0.165 0.406,-0.075c0.132,0.091 0.166,0.273 0.075,0.407c-0.092,0.131 -0.273,0.165 -0.406,0.075c-0.132,-0.091 -0.166,-0.274 -0.075,-0.407Z" style="fill:#c8c4bd;"/><path d="M50.308,0.521c0.092,-0.133 0.273,-0.166 0.407,-0.075c0.133,0.09 0.167,0.273 0.075,0.405c-0.091,0.133 -0.274,0.167 -0.405,0.076c-0.133,-0.092 -0.167,-0.273 -0.077,-0.406Z" style="fill:#d7592a;"/><path d="M36.721,1.648c0.092,-0.133 0.274,-0.166 0.407,-0.075c0.133,0.09 0.167,0.273 0.075,0.405c-0.091,0.133 -0.274,0.167 -0.405,0.076c-0.133,-0.092 -0.167,-0.273 -0.077,-0.406Z" style="fill:#d7592a;"/><path d="M22.047,5.704c0.092,-0.133 0.274,-0.166 0.407,-0.075c0.133,0.09 0.167,0.273 0.075,0.405c-0.091,0.133 -0.273,0.167 -0.405,0.076c-0.133,-0.092 -0.167,-0.273 -0.077,-0.406Z" style="fill:#d7592a;"/><path d="M41.763,10.119c-0.013,0.161 -0.153,0.281 -0.314,0.269c-0.16,-0.013 -0.281,-0.153 -0.268,-0.315c0.013,-0.16 0.153,-0.28 0.315,-0.267c0.16,0.012 0.28,0.153 0.267,0.313Z" style="fill:#deb87c;"/><path d="M41.763,10.119c-0.013,0.161 -0.153,0.281 -0.314,0.269c-0.16,-0.013 -0.281,-0.153 -0.268,-0.315c0.013,-0.16 0.153,-0.28 0.315,-0.267c0.16,0.012 0.28,0.153 0.267,0.313Z" style="fill:#e4971d;"/><path d="M49.698,8.726c-0.013,0.162 -0.153,0.281 -0.313,0.27c-0.161,-0.013 -0.28,-0.155 -0.269,-0.315c0.013,-0.16 0.154,-0.28 0.315,-0.268c0.16,0.013 0.28,0.153 0.267,0.313Z" style="fill:#7cc3de;"/><path d="M45.033,0.937c-0.011,0.162 -0.153,0.281 -0.313,0.269c-0.161,-0.012 -0.28,-0.154 -0.267,-0.314c0.011,-0.16 0.152,-0.28 0.313,-0.268c0.161,0.013 0.28,0.153 0.267,0.313Z" style="fill:#deb87c;"/><path d="M29.999,1.572c-0.132,-0.091 -0.166,-0.274 -0.075,-0.407c0.092,-0.131 0.273,-0.165 0.406,-0.075c0.132,0.091 0.166,0.274 0.075,0.407c-0.09,0.131 -0.273,0.165 -0.406,0.075Z" style="fill:#f3f1ef;"/><path d="M29.455,8.726c-0.011,0.162 -0.153,0.281 -0.313,0.27c-0.162,-0.013 -0.28,-0.155 -0.268,-0.315c0.012,-0.16 0.153,-0.28 0.313,-0.268c0.162,0.013 0.281,0.153 0.268,0.313Z" style="fill:#deb87c;"/><path d="M14.42,9.361c-0.131,-0.091 -0.165,-0.273 -0.075,-0.407c0.092,-0.131 0.274,-0.165 0.407,-0.075c0.132,0.091 0.166,0.274 0.075,0.407c-0.091,0.132 -0.273,0.166 -0.407,0.075Z" style="fill:#a37836;"/><path d="M12.053,5.6c-0.378,-0.259 -0.475,-0.782 -0.215,-1.164c0.259,-0.377 0.782,-0.474 1.164,-0.215c0.377,0.264 0.474,0.783 0.215,1.164c-0.26,0.378 -0.783,0.475 -1.164,0.215Z" style="fill:#c8c4bd;"/><path d="M46.21,11.079c0.092,-0.132 0.273,-0.166 0.407,-0.075c0.131,0.09 0.165,0.273 0.075,0.406c-0.091,0.132 -0.274,0.166 -0.407,0.075c-0.132,-0.09 -0.166,-0.273 -0.075,-0.406Z" style="fill:#deb87c;"/><path d="M65.507,10.371c0.091,-0.132 0.274,-0.166 0.407,-0.075c0.131,0.09 0.165,0.273 0.075,0.406c-0.092,0.132 -0.274,0.166 -0.407,0.075c-0.131,-0.09 -0.165,-0.273 -0.075,-0.406Z" style="fill:#a37836;"/><path d="M63.831,10.019c-0.037,-0.155 0.06,-0.314 0.218,-0.351c0.157,-0.037 0.314,0.061 0.351,0.218c0.037,0.158 -0.061,0.315 -0.218,0.352c-0.157,0.036 -0.315,-0.061 -0.351,-0.219Z" style="fill:#deb87c;"/><path d="M51.368,7.693c0.154,0.046 0.241,0.209 0.195,0.364c-0.046,0.154 -0.209,0.242 -0.364,0.195c-0.154,-0.047 -0.242,-0.21 -0.195,-0.364c0.047,-0.154 0.21,-0.241 0.364,-0.195Z" style="fill:#deb87c;"/><path d="M57.177,1.176c0.154,0.047 0.242,0.21 0.195,0.364c-0.046,0.153 -0.209,0.241 -0.363,0.194c-0.155,-0.045 -0.243,-0.208 -0.196,-0.362c0.047,-0.154 0.21,-0.242 0.364,-0.196Z" style="fill:#dfd8cc;"/><path d="M36.983,15.587c0.001,0.162 -0.132,0.291 -0.292,0.29c-0.162,0.001 -0.291,-0.131 -0.29,-0.292c-0.001,-0.16 0.132,-0.291 0.292,-0.29c0.162,-0.001 0.291,0.132 0.29,0.292Z" style="fill:#deb87c;"/><path d="M14.544,4.814c-0.138,-0.082 -0.186,-0.261 -0.105,-0.4c0.082,-0.138 0.26,-0.186 0.4,-0.105c0.138,0.081 0.185,0.26 0.105,0.4c-0.081,0.138 -0.261,0.185 -0.4,0.105Z" style="fill:#f3f1ef;"/><path d="M6.635,5.792c-0.132,-0.091 -0.166,-0.273 -0.075,-0.406c0.091,-0.132 0.273,-0.166 0.407,-0.075c0.131,0.092 0.165,0.273 0.075,0.406c-0.092,0.132 -0.274,0.166 -0.407,0.075Z" style="fill:#a37836;"/><path d="M3.858,10.978c-0.158,0.037 -0.315,-0.061 -0.352,-0.218c-0.036,-0.157 0.061,-0.314 0.218,-0.351c0.158,-0.037 0.315,0.061 0.352,0.218c0.037,0.157 -0.061,0.314 -0.218,0.351Z" style="fill:#deb87c;"/><path d="M18.932,12.57c0.158,-0.037 0.315,0.061 0.352,0.218c0.037,0.156 -0.061,0.313 -0.217,0.35c-0.157,0.038 -0.314,-0.06 -0.351,-0.217c-0.037,-0.157 0.061,-0.314 0.216,-0.351Z" style="fill:#dfd8cc;"/><path d="M18.876,2.22c-0.16,-0.012 -0.281,-0.153 -0.268,-0.313c0.013,-0.161 0.153,-0.281 0.315,-0.269c0.16,0.013 0.28,0.153 0.267,0.315c-0.013,0.16 -0.153,0.28 -0.314,0.267Z" style="fill:#c8c4bd;"/><path d="M30.756,10.733c0.091,-0.133 0.274,-0.165 0.407,-0.075c0.132,0.091 0.166,0.274 0.075,0.407c-0.092,0.131 -0.273,0.165 -0.407,0.075c-0.131,-0.092 -0.165,-0.274 -0.075,-0.407Z" style="fill:#a37836;"/><path d="M27.634,11.281c-0.129,-0.551 0.213,-1.102 0.764,-1.231c0.551,-0.129 1.102,0.214 1.231,0.765c0.13,0.551 -0.213,1.102 -0.764,1.231c-0.551,0.129 -1.102,-0.214 -1.231,-0.765Z" style="fill:#deb87c;"/><path d="M22.225,0.013c0.155,0.045 0.242,0.209 0.196,0.362c-0.047,0.154 -0.21,0.242 -0.364,0.196c-0.155,-0.046 -0.243,-0.209 -0.196,-0.363c0.047,-0.154 0.21,-0.242 0.364,-0.195Z" style="fill:#dfd8cc;"/><path d="M56.514,4.958c-0.131,-0.091 -0.165,-0.274 -0.075,-0.407c0.091,-0.132 0.274,-0.166 0.407,-0.075c0.131,0.091 0.165,0.273 0.075,0.407c-0.091,0.131 -0.273,0.165 -0.407,0.075Z" style="fill:#c7beb0;"/><path d="M40.004,26.581c0.092,-0.132 0.273,-0.166 0.406,-0.075c0.132,0.091 0.166,0.273 0.075,0.407c-0.091,0.131 -0.273,0.165 -0.406,0.075c-0.132,-0.091 -0.166,-0.274 -0.075,-0.407Z" style="fill:#deb87c;"/><path d="M43.402,3.789c0.09,-0.132 0.273,-0.165 0.406,-0.075c0.132,0.091 0.166,0.273 0.075,0.407c-0.092,0.131 -0.273,0.165 -0.406,0.075c-0.132,-0.091 -0.166,-0.274 -0.075,-0.407Z" style="fill:#c8c4bd;"/><path d="M50.308,0.521c0.092,-0.133 0.273,-0.166 0.407,-0.075c0.133,0.09 0.167,0.273 0.075,0.405c-0.091,0.133 -0.274,0.167 -0.405,0.076c-0.133,-0.092 -0.167,-0.273 -0.077,-0.406Z" style="fill:#d7592a;"/><path d="M36.785,1.806c0.207,-0.3 0.614,-0.373 0.914,-0.169c0.299,0.204 0.376,0.615 0.169,0.911c-0.204,0.299 -0.615,0.376 -0.911,0.172c-0.3,-0.207 -0.376,-0.615 -0.172,-0.914Z" style="fill:#d7592a;"/><path d="M22.047,5.704c0.092,-0.133 0.274,-0.166 0.407,-0.075c0.133,0.09 0.167,0.273 0.075,0.405c-0.091,0.133 -0.273,0.167 -0.405,0.076c-0.133,-0.092 -0.167,-0.273 -0.077,-0.406Z" style="fill:#d7592a;"/><path d="M13.713,19.914c-0.133,-0.092 -0.166,-0.273 -0.075,-0.407c0.091,-0.133 0.273,-0.167 0.405,-0.075c0.133,0.091 0.167,0.274 0.077,0.405c-0.092,0.134 -0.274,0.168 -0.407,0.077Z" style="fill:#d7592a;"/><path d="M84.725,65.193c-0.133,-0.092 -0.166,-0.273 -0.075,-0.406c0.091,-0.133 0.273,-0.167 0.405,-0.075c0.133,0.09 0.167,0.273 0.076,0.405c-0.092,0.133 -0.273,0.167 -0.406,0.076Z" style="fill:#d7592a;"/><path d="M69.591,14.578c-0.133,-0.09 -0.167,-0.271 -0.075,-0.405c0.09,-0.133 0.271,-0.167 0.405,-0.075c0.133,0.091 0.167,0.272 0.075,0.405c-0.091,0.134 -0.272,0.168 -0.405,0.075Z" style="fill:#7cc5de;"/><path d="M54.383,49.627c0.705,0.055 1.237,0.675 1.18,1.383c-0.055,0.708 -0.675,1.237 -1.383,1.18c-0.708,-0.055 -1.237,-0.675 -1.18,-1.383c0.055,-0.705 0.675,-1.237 1.383,-1.18Z" style="fill:#deb87c;"/><path d="M87.627,7.314c0.465,0.272 0.625,0.877 0.353,1.347c-0.271,0.465 -0.876,0.624 -1.346,0.353c-0.465,-0.272 -0.625,-0.877 -0.354,-1.347c0.272,-0.465 0.877,-0.624 1.347,-0.353Z" style="fill:#deb87c;"/><path d="M63.799,1.746c0.011,-0.161 0.153,-0.28 0.313,-0.269c0.161,0.013 0.28,0.155 0.267,0.315c-0.011,0.16 -0.153,0.28 -0.313,0.267c-0.161,-0.012 -0.28,-0.153 -0.267,-0.313Z" style="fill:#deb87c;"/><path d="M51.856,3.034c-0.155,-0.047 -0.242,-0.21 -0.196,-0.364c0.047,-0.153 0.21,-0.241 0.364,-0.194c0.155,0.045 0.242,0.208 0.196,0.362c-0.047,0.155 -0.21,0.242 -0.364,0.196Z" style="fill:#dfd8cc;"/><path d="M78.268,5.703c-0.092,0.133 -0.273,0.166 -0.407,0.075c-0.133,-0.091 -0.167,-0.273 -0.075,-0.405c0.091,-0.133 0.274,-0.167 0.405,-0.076c0.133,0.092 0.167,0.273 0.077,0.406Z" style="fill:#d7592a;"/><path d="M71.838,2.071c0.013,-0.161 0.153,-0.282 0.314,-0.269c0.16,0.013 0.281,0.153 0.268,0.314c-0.013,0.16 -0.153,0.281 -0.314,0.268c-0.16,-0.013 -0.281,-0.153 -0.268,-0.313Z" style="fill:#deb87c;"/><path d="M71.838,2.071c0.013,-0.161 0.153,-0.282 0.314,-0.269c0.16,0.013 0.281,0.153 0.268,0.314c-0.013,0.16 -0.153,0.281 -0.314,0.268c-0.16,-0.013 -0.281,-0.153 -0.268,-0.313Z" style="fill:#e4971d;"/><path d="M63.903,3.463c0.013,-0.161 0.153,-0.28 0.313,-0.269c0.161,0.013 0.28,0.154 0.269,0.314c-0.013,0.16 -0.154,0.281 -0.314,0.268c-0.16,-0.013 -0.281,-0.153 -0.268,-0.313Z" style="fill:#7cc3de;"/><path d="M68.568,11.252c0.011,-0.161 0.153,-0.28 0.313,-0.269c0.161,0.013 0.28,0.155 0.268,0.315c-0.012,0.16 -0.153,0.28 -0.313,0.267c-0.162,-0.012 -0.281,-0.153 -0.268,-0.313Z" style="fill:#deb87c;"/><path d="M83.602,10.618c0.132,0.09 0.166,0.273 0.075,0.406c-0.092,0.132 -0.273,0.166 -0.406,0.075c-0.132,-0.09 -0.166,-0.273 -0.075,-0.406c0.091,-0.132 0.273,-0.166 0.406,-0.075Z" style="fill:#f3f1ef;"/><path d="M84.146,3.463c0.011,-0.161 0.153,-0.28 0.313,-0.269c0.162,0.013 0.281,0.154 0.268,0.314c-0.012,0.16 -0.153,0.281 -0.313,0.268c-0.162,-0.013 -0.281,-0.153 -0.268,-0.313Z" style="fill:#deb87c;"/><path d="M82.957,18.751c0.132,0.091 0.166,0.273 0.075,0.407c-0.092,0.131 -0.273,0.165 -0.406,0.075c-0.132,-0.091 -0.166,-0.274 -0.075,-0.407c0.09,-0.131 0.273,-0.165 0.406,-0.075Z" style="fill:#a37836;"/><path d="M94.516,14.575c0.131,0.09 0.165,0.273 0.075,0.406c-0.091,0.132 -0.274,0.166 -0.407,0.075c-0.131,-0.092 -0.165,-0.273 -0.075,-0.406c0.091,-0.132 0.274,-0.166 0.407,-0.075Z" style="fill:#c8c4bd;"/><path d="M67.391,1.111c-0.092,0.132 -0.273,0.166 -0.406,0.075c-0.132,-0.091 -0.166,-0.273 -0.075,-0.407c0.09,-0.131 0.273,-0.165 0.406,-0.075c0.132,0.091 0.166,0.274 0.075,0.407Z" style="fill:#deb87c;"/><path d="M48.094,1.819c-0.091,0.132 -0.274,0.166 -0.407,0.075c-0.131,-0.091 -0.165,-0.273 -0.075,-0.406c0.092,-0.132 0.274,-0.166 0.407,-0.076c0.131,0.091 0.165,0.274 0.075,0.407Z" style="fill:#a37836;"/><path d="M49.771,2.17c0.036,0.156 -0.061,0.315 -0.219,0.351c-0.157,0.037 -0.314,-0.061 -0.351,-0.218c-0.037,-0.157 0.061,-0.314 0.218,-0.351c0.158,-0.037 0.315,0.061 0.352,0.218Z" style="fill:#deb87c;"/><path d="M62.233,4.497c-0.154,-0.047 -0.241,-0.21 -0.195,-0.364c0.046,-0.154 0.209,-0.242 0.364,-0.195c0.154,0.046 0.242,0.209 0.195,0.364c-0.047,0.154 -0.209,0.24 -0.364,0.195Z" style="fill:#deb87c;"/><path d="M56.625,12.54c-0.154,-0.047 -0.242,-0.21 -0.195,-0.364c0.046,-0.153 0.209,-0.241 0.364,-0.194c0.154,0.045 0.242,0.208 0.195,0.362c-0.047,0.155 -0.21,0.242 -0.364,0.196Z" style="fill:#dfd8cc;"/><path d="M77.931,17.202c-0.001,-0.162 0.131,-0.291 0.292,-0.29c0.162,-0.001 0.291,0.131 0.29,0.292c0.001,0.16 -0.132,0.291 -0.292,0.29c-0.162,0.001 -0.291,-0.132 -0.29,-0.292Z" style="fill:#deb87c;"/><path d="M92.877,15.456c0.138,0.082 0.185,0.26 0.105,0.4c-0.082,0.138 -0.261,0.185 -0.4,0.105c-0.138,-0.081 -0.186,-0.26 -0.105,-0.4c0.081,-0.138 0.26,-0.185 0.4,-0.105Z" style="fill:#f3f1ef;"/><path d="M87.081,21.292c0.132,0.09 0.166,0.273 0.075,0.406c-0.09,0.132 -0.273,0.166 -0.406,0.075c-0.132,-0.092 -0.166,-0.273 -0.075,-0.406c0.092,-0.132 0.273,-0.166 0.406,-0.075Z" style="fill:#a37836;"/><path d="M87.432,19.615c0.158,-0.037 0.315,0.061 0.352,0.218c0.037,0.157 -0.061,0.315 -0.218,0.351c-0.158,0.037 -0.315,-0.061 -0.352,-0.218c-0.036,-0.157 0.061,-0.314 0.218,-0.351Z" style="fill:#deb87c;"/><path d="M91.902,2.575c-0.157,0.037 -0.314,-0.061 -0.351,-0.218c-0.037,-0.156 0.061,-0.313 0.216,-0.35c0.158,-0.038 0.315,0.059 0.352,0.216c0.036,0.158 -0.061,0.315 -0.217,0.352Z" style="fill:#dfd8cc;"/><path d="M94.725,9.969c0.16,0.013 0.281,0.153 0.268,0.313c-0.013,0.162 -0.153,0.282 -0.315,0.269c-0.16,-0.012 -0.28,-0.153 -0.267,-0.314c0.013,-0.16 0.153,-0.281 0.314,-0.268Z" style="fill:#c8c4bd;"/><path d="M82.845,1.456c-0.091,0.133 -0.274,0.166 -0.407,0.075c-0.131,-0.09 -0.165,-0.273 -0.075,-0.406c0.092,-0.132 0.273,-0.166 0.407,-0.075c0.131,0.092 0.165,0.273 0.075,0.406Z" style="fill:#a37836;"/><path d="M84.521,1.808c0.037,0.157 -0.06,0.314 -0.218,0.351c-0.157,0.037 -0.314,-0.061 -0.351,-0.218c-0.037,-0.157 0.061,-0.315 0.218,-0.352c0.157,-0.036 0.315,0.061 0.351,0.219Z" style="fill:#deb87c;"/><path d="M91.376,12.177c-0.154,-0.045 -0.242,-0.21 -0.196,-0.362c0.047,-0.155 0.21,-0.243 0.364,-0.196c0.155,0.045 0.243,0.208 0.196,0.363c-0.047,0.154 -0.21,0.242 -0.364,0.195Z" style="fill:#dfd8cc;"/><path d="M57.087,7.232c0.131,0.091 0.165,0.273 0.075,0.406c-0.091,0.132 -0.274,0.166 -0.407,0.076c-0.131,-0.091 -0.165,-0.274 -0.075,-0.407c0.091,-0.132 0.274,-0.166 0.407,-0.075Z" style="fill:#c7beb0;"/><path d="M63.951,16.844c-0.092,0.132 -0.273,0.166 -0.406,0.075c-0.132,-0.091 -0.166,-0.273 -0.075,-0.407c0.09,-0.131 0.273,-0.165 0.406,-0.075c0.132,0.091 0.166,0.274 0.075,0.407Z" style="fill:#deb87c;"/><path d="M70.199,8.4c-0.09,0.132 -0.273,0.166 -0.406,0.075c-0.132,-0.09 -0.166,-0.273 -0.075,-0.406c0.092,-0.132 0.273,-0.166 0.406,-0.075c0.132,0.091 0.166,0.273 0.075,0.406Z" style="fill:#c8c4bd;"/><path d="M63.293,11.669c-0.092,0.133 -0.273,0.165 -0.407,0.075c-0.133,-0.091 -0.167,-0.274 -0.075,-0.405c0.091,-0.133 0.274,-0.167 0.405,-0.077c0.134,0.092 0.168,0.274 0.077,0.407Z" style="fill:#d7592a;"/><path d="M76.88,10.542c-0.092,0.133 -0.274,0.165 -0.407,0.075c-0.133,-0.091 -0.167,-0.273 -0.075,-0.405c0.091,-0.133 0.274,-0.167 0.405,-0.077c0.133,0.092 0.167,0.274 0.077,0.407Z" style="fill:#d7592a;"/><path d="M91.554,6.486c-0.092,0.133 -0.274,0.165 -0.407,0.075c-0.133,-0.091 -0.167,-0.274 -0.075,-0.405c0.091,-0.133 0.273,-0.167 0.405,-0.077c0.133,0.092 0.167,0.274 0.077,0.407Z" style="fill:#d7592a;"/><path d="M71.838,2.071c0.013,-0.161 0.153,-0.282 0.314,-0.269c0.16,0.013 0.281,0.153 0.268,0.314c-0.013,0.16 -0.153,0.281 -0.314,0.268c-0.16,-0.013 -0.281,-0.153 -0.268,-0.313Z" style="fill:#deb87c;"/><path d="M71.838,2.071c0.013,-0.161 0.153,-0.282 0.314,-0.269c0.16,0.013 0.281,0.153 0.268,0.314c-0.013,0.16 -0.153,0.281 -0.314,0.268c-0.16,-0.013 -0.281,-0.153 -0.268,-0.313Z" style="fill:#e4971d;"/><path d="M63.903,3.463c0.013,-0.161 0.153,-0.28 0.313,-0.269c0.161,0.013 0.28,0.154 0.269,0.314c-0.013,0.16 -0.154,0.281 -0.314,0.268c-0.16,-0.013 -0.281,-0.153 -0.268,-0.313Z" style="fill:#7cc3de;"/><path d="M68.568,11.252c0.011,-0.161 0.153,-0.28 0.313,-0.269c0.161,0.013 0.28,0.155 0.268,0.315c-0.012,0.16 -0.153,0.28 -0.313,0.267c-0.162,-0.012 -0.281,-0.153 -0.268,-0.313Z" style="fill:#deb87c;"/><path d="M83.602,10.618c0.132,0.09 0.166,0.273 0.075,0.406c-0.092,0.132 -0.273,0.166 -0.406,0.075c-0.132,-0.09 -0.166,-0.273 -0.075,-0.406c0.091,-0.132 0.273,-0.166 0.406,-0.075Z" style="fill:#f3f1ef;"/><path d="M84.146,3.463c0.011,-0.161 0.153,-0.28 0.313,-0.269c0.162,0.013 0.281,0.154 0.268,0.314c-0.012,0.16 -0.153,0.281 -0.313,0.268c-0.162,-0.013 -0.281,-0.153 -0.268,-0.313Z" style="fill:#deb87c;"/><path d="M82.957,18.751c0.132,0.091 0.166,0.273 0.075,0.407c-0.092,0.131 -0.273,0.165 -0.406,0.075c-0.132,-0.091 -0.166,-0.274 -0.075,-0.407c0.09,-0.131 0.273,-0.165 0.406,-0.075Z" style="fill:#a37836;"/><path d="M94.516,14.575c0.131,0.09 0.165,0.273 0.075,0.406c-0.091,0.132 -0.274,0.166 -0.407,0.075c-0.131,-0.092 -0.165,-0.273 -0.075,-0.406c0.091,-0.132 0.274,-0.166 0.407,-0.075Z" style="fill:#c8c4bd;"/><path d="M67.391,1.111c-0.092,0.132 -0.273,0.166 -0.406,0.075c-0.132,-0.091 -0.166,-0.273 -0.075,-0.407c0.09,-0.131 0.273,-0.165 0.406,-0.075c0.132,0.091 0.166,0.274 0.075,0.407Z" style="fill:#deb87c;"/><path d="M48.094,1.819c-0.091,0.132 -0.274,0.166 -0.407,0.075c-0.131,-0.091 -0.165,-0.273 -0.075,-0.406c0.092,-0.132 0.274,-0.166 0.407,-0.076c0.131,0.091 0.165,0.274 0.075,0.407Z" style="fill:#a37836;"/><path d="M38.524,69.955c-0.013,0.161 -0.153,0.282 -0.315,0.269c-0.16,-0.013 -0.28,-0.153 -0.267,-0.314c0.012,-0.16 0.153,-0.281 0.314,-0.268c0.16,0.013 0.28,0.153 0.268,0.313Z" style="fill:#deb87c;"/><path d="M38.524,69.955c-0.013,0.161 -0.153,0.282 -0.315,0.269c-0.16,-0.013 -0.28,-0.153 -0.267,-0.314c0.012,-0.16 0.153,-0.281 0.314,-0.268c0.16,0.013 0.28,0.153 0.268,0.313Z" style="fill:#e4971d;"/><path d="M46.459,68.563c-0.013,0.161 -0.153,0.28 -0.313,0.269c-0.162,-0.013 -0.281,-0.155 -0.269,-0.315c0.012,-0.16 0.154,-0.28 0.314,-0.267c0.16,0.013 0.28,0.153 0.268,0.313Z" style="fill:#7cc3de;"/><path d="M41.794,60.774c-0.012,0.161 -0.153,0.28 -0.313,0.269c-0.162,-0.013 -0.281,-0.155 -0.268,-0.315c0.011,-0.16 0.153,-0.28 0.313,-0.267c0.162,0.012 0.281,0.153 0.268,0.313Z" style="fill:#deb87c;"/><path d="M73.357,30.528c-0.132,-0.092 -0.166,-0.273 -0.076,-0.406c0.091,-0.132 0.274,-0.166 0.407,-0.076c0.132,0.091 0.166,0.274 0.075,0.407c-0.091,0.132 -0.273,0.166 -0.406,0.075Z" style="fill:#deb87c;"/><path d="M65.567,36.485c-0.131,-0.091 -0.165,-0.274 -0.075,-0.407c0.091,-0.132 0.274,-0.166 0.407,-0.075c0.131,0.091 0.165,0.273 0.075,0.406c-0.091,0.132 -0.273,0.166 -0.407,0.076Z" style="fill:#c7beb0;"/><path d="M57.778,38.317c-0.131,-0.092 -0.165,-0.273 -0.075,-0.406c0.091,-0.132 0.274,-0.166 0.407,-0.075c0.131,0.09 0.165,0.273 0.075,0.406c-0.091,0.132 -0.274,0.166 -0.407,0.075Z" style="fill:#deb87c;"/><path d="M58.703,26.873c0.092,-0.132 0.273,-0.166 0.406,-0.075c0.132,0.09 0.166,0.273 0.076,0.406c-0.091,0.132 -0.274,0.166 -0.407,0.075c-0.132,-0.09 -0.166,-0.273 -0.075,-0.406Z" style="fill:#deb87c;"/><path d="M70.919,37.494c0.091,-0.131 0.274,-0.165 0.407,-0.075c0.131,0.091 0.165,0.274 0.075,0.407c-0.092,0.131 -0.274,0.165 -0.407,0.075c-0.131,-0.091 -0.165,-0.274 -0.075,-0.407Z" style="fill:#7ccade;"/><path d="M69.452,37.929c-0.16,-0.013 -0.28,-0.153 -0.268,-0.314c0.013,-0.16 0.153,-0.281 0.315,-0.268c0.16,0.013 0.28,0.153 0.267,0.314c-0.012,0.16 -0.153,0.281 -0.314,0.268Z" style="fill:#deb87c;"/><path d="M69.452,37.929c-0.16,-0.013 -0.28,-0.153 -0.268,-0.314c0.013,-0.16 0.153,-0.281 0.315,-0.268c0.16,0.013 0.28,0.153 0.267,0.314c-0.012,0.16 -0.153,0.281 -0.314,0.268Z" style="fill:#deb87c;"/><path d="M94.306,50.794c0.091,-0.132 0.273,-0.166 0.406,-0.075c0.132,0.091 0.166,0.273 0.076,0.407c-0.092,0.131 -0.274,0.165 -0.407,0.075c-0.132,-0.091 -0.166,-0.274 -0.075,-0.407Z" style="fill:#a37836;"/><path d="M92.629,50.443c-0.037,-0.156 0.061,-0.314 0.218,-0.351c0.158,-0.037 0.315,0.061 0.352,0.218c0.036,0.157 -0.061,0.314 -0.219,0.351c-0.157,0.037 -0.314,-0.061 -0.351,-0.218Z" style="fill:#deb87c;"/><path d="M48.128,67.529c0.155,0.047 0.241,0.21 0.196,0.364c-0.047,0.154 -0.21,0.242 -0.364,0.195c-0.154,-0.046 -0.242,-0.209 -0.196,-0.364c0.047,-0.154 0.21,-0.24 0.364,-0.195Z" style="fill:#deb87c;"/><path d="M85.775,40.073c0.154,0.047 0.242,0.21 0.195,0.364c-0.046,0.153 -0.209,0.241 -0.364,0.194c-0.154,-0.045 -0.242,-0.208 -0.195,-0.362c0.047,-0.154 0.209,-0.242 0.364,-0.196Z" style="fill:#dfd8cc;"/><path d="M52.455,35.316c0.09,-0.132 0.273,-0.166 0.406,-0.075c0.132,0.091 0.166,0.273 0.075,0.407c-0.092,0.131 -0.273,0.165 -0.406,0.075c-0.132,-0.091 -0.166,-0.274 -0.075,-0.407Z" style="fill:#c8c4bd;"/><path d="M41.964,54.222c-0.013,0.161 -0.153,0.282 -0.315,0.269c-0.16,-0.013 -0.28,-0.153 -0.267,-0.314c0.012,-0.16 0.153,-0.281 0.314,-0.268c0.16,0.013 0.28,0.153 0.268,0.313Z" style="fill:#deb87c;"/><path d="M41.964,54.222c-0.013,0.161 -0.153,0.282 -0.315,0.269c-0.16,-0.013 -0.28,-0.153 -0.267,-0.314c0.012,-0.16 0.153,-0.281 0.314,-0.268c0.16,0.013 0.28,0.153 0.268,0.313Z" style="fill:#e4971d;"/><path d="M93.061,34.869c-0.131,-0.092 -0.165,-0.274 -0.075,-0.407c0.091,-0.131 0.274,-0.165 0.407,-0.075c0.132,0.091 0.166,0.273 0.075,0.407c-0.091,0.131 -0.273,0.165 -0.407,0.075Z" style="fill:#deb87c;"/><path d="M85.313,45.381c-0.132,-0.091 -0.166,-0.273 -0.075,-0.406c0.091,-0.132 0.273,-0.166 0.407,-0.076c0.131,0.091 0.165,0.274 0.075,0.407c-0.091,0.132 -0.274,0.166 -0.407,0.075Z" style="fill:#c7beb0;"/><path d="M46.411,55.182c0.092,-0.132 0.273,-0.166 0.406,-0.075c0.132,0.091 0.166,0.273 0.075,0.406c-0.091,0.132 -0.273,0.166 -0.406,0.075c-0.132,-0.09 -0.166,-0.273 -0.075,-0.406Z" style="fill:#deb87c;"/><path d="M40.162,63.625c0.091,-0.131 0.274,-0.165 0.407,-0.075c0.131,0.091 0.165,0.274 0.075,0.407c-0.092,0.132 -0.274,0.166 -0.407,0.075c-0.131,-0.091 -0.165,-0.273 -0.075,-0.407Z" style="fill:#c8c4bd;"/><path d="M47.069,60.357c0.092,-0.133 0.273,-0.166 0.406,-0.075c0.133,0.091 0.167,0.273 0.075,0.405c-0.09,0.133 -0.273,0.167 -0.405,0.077c-0.133,-0.092 -0.167,-0.274 -0.076,-0.407Z" style="fill:#d7592a;"/><path d="M27.551,59.308c0.178,-0.257 0.527,-0.32 0.784,-0.145c0.257,0.175 0.323,0.528 0.145,0.782c-0.175,0.257 -0.527,0.323 -0.782,0.148c-0.257,-0.178 -0.322,-0.528 -0.147,-0.785Z" style="fill:#d7592a;"/><path d="M66.062,29.902c0.092,-0.133 0.273,-0.166 0.406,-0.075c0.134,0.09 0.168,0.273 0.075,0.405c-0.09,0.133 -0.273,0.167 -0.405,0.076c-0.133,-0.092 -0.167,-0.273 -0.076,-0.406Z" style="fill:#d7592a;"/><path d="M48.506,55.288c-0.132,-0.091 -0.166,-0.273 -0.075,-0.407c0.09,-0.131 0.273,-0.165 0.406,-0.075c0.132,0.091 0.166,0.274 0.075,0.407c-0.091,0.132 -0.273,0.165 -0.406,0.075Z" style="fill:#c7beb0;"/><path d="M40.716,57.12c-0.131,-0.092 -0.165,-0.273 -0.075,-0.406c0.091,-0.132 0.274,-0.166 0.407,-0.075c0.132,0.091 0.166,0.273 0.075,0.406c-0.091,0.132 -0.273,0.166 -0.407,0.075Z" style="fill:#deb87c;"/><path d="M85.896,36.885c0.09,-0.132 0.273,-0.166 0.406,-0.075c0.132,0.09 0.166,0.273 0.075,0.406c-0.092,0.132 -0.273,0.166 -0.406,0.075c-0.132,-0.09 -0.166,-0.273 -0.075,-0.406Z" style="fill:#7ccade;"/><path d="M84.428,37.32c-0.16,-0.013 -0.28,-0.153 -0.267,-0.315c0.013,-0.16 0.153,-0.28 0.314,-0.268c0.16,0.013 0.281,0.153 0.268,0.315c-0.013,0.16 -0.153,0.28 -0.315,0.268Z" style="fill:#deb87c;"/><path d="M84.428,37.32c-0.16,-0.013 -0.28,-0.153 -0.267,-0.315c0.013,-0.16 0.153,-0.28 0.314,-0.268c0.16,0.013 0.281,0.153 0.268,0.315c-0.013,0.16 -0.153,0.28 -0.315,0.268Z" style="fill:#deb87c;"/><path d="M35.393,54.119c0.091,-0.131 0.273,-0.165 0.406,-0.075c0.132,0.091 0.166,0.274 0.075,0.407c-0.092,0.132 -0.273,0.166 -0.406,0.075c-0.132,-0.091 -0.166,-0.273 -0.075,-0.407Z" style="fill:#c8c4bd;"/><path d="M34.497,58.598c-0.012,0.161 -0.153,0.281 -0.313,0.269c-0.16,-0.013 -0.281,-0.153 -0.27,-0.315c0.013,-0.16 0.155,-0.28 0.315,-0.267c0.16,0.012 0.28,0.153 0.268,0.313Z" style="fill:#deb87c;"/><path d="M48.506,55.288c-0.132,-0.091 -0.166,-0.273 -0.075,-0.407c0.09,-0.131 0.273,-0.165 0.406,-0.075c0.132,0.091 0.166,0.274 0.075,0.407c-0.091,0.132 -0.273,0.165 -0.406,0.075Z" style="fill:#c7beb0;"/><path d="M40.716,57.12c-0.131,-0.092 -0.165,-0.273 -0.075,-0.406c0.091,-0.132 0.274,-0.166 0.407,-0.075c0.132,0.091 0.166,0.273 0.075,0.406c-0.091,0.132 -0.273,0.166 -0.407,0.075Z" style="fill:#deb87c;"/><path d="M85.896,36.885c0.09,-0.132 0.273,-0.166 0.406,-0.075c0.132,0.09 0.166,0.273 0.075,0.406c-0.092,0.132 -0.273,0.166 -0.406,0.075c-0.132,-0.09 -0.166,-0.273 -0.075,-0.406Z" style="fill:#7ccade;"/><path d="M84.428,37.32c-0.16,-0.013 -0.28,-0.153 -0.267,-0.315c0.013,-0.16 0.153,-0.28 0.314,-0.268c0.16,0.013 0.281,0.153 0.268,0.315c-0.013,0.16 -0.153,0.28 -0.315,0.268Z" style="fill:#deb87c;"/><path d="M84.428,37.32c-0.16,-0.013 -0.28,-0.153 -0.267,-0.315c0.013,-0.16 0.153,-0.28 0.314,-0.268c0.16,0.013 0.281,0.153 0.268,0.315c-0.013,0.16 -0.153,0.28 -0.315,0.268Z" style="fill:#deb87c;"/><path d="M35.393,54.119c0.091,-0.131 0.273,-0.165 0.406,-0.075c0.132,0.091 0.166,0.274 0.075,0.407c-0.092,0.132 -0.273,0.166 -0.406,0.075c-0.132,-0.091 -0.166,-0.273 -0.075,-0.407Z" style="fill:#c8c4bd;"/><path d="M34.497,58.598c-0.012,0.161 -0.153,0.281 -0.313,0.269c-0.16,-0.013 -0.281,-0.153 -0.27,-0.315c0.013,-0.16 0.155,-0.28 0.315,-0.267c0.16,0.012 0.28,0.153 0.268,0.313Z" style="fill:#deb87c;"/><path d="M91.039,41.415c0.081,-0.138 0.26,-0.185 0.4,-0.105c0.138,0.081 0.185,0.261 0.105,0.4c-0.081,0.138 -0.261,0.186 -0.4,0.105c-0.138,-0.08 -0.186,-0.26 -0.105,-0.4Z" style="fill:#deb87c;"/><path d="M94.466,50.912c0.133,0.092 0.165,0.274 0.075,0.407c-0.091,0.133 -0.273,0.167 -0.405,0.075c-0.133,-0.091 -0.167,-0.273 -0.077,-0.405c0.092,-0.133 0.274,-0.167 0.407,-0.077Z" style="fill:#d7592a;"/><path d="M74.528,32.713c-0.161,-0.013 -0.282,-0.153 -0.269,-0.315c0.013,-0.16 0.153,-0.28 0.314,-0.267c0.16,0.012 0.281,0.153 0.268,0.314c-0.013,0.16 -0.153,0.281 -0.313,0.268Z" style="fill:#deb87c;"/><path d="M74.528,32.713c-0.161,-0.013 -0.282,-0.153 -0.269,-0.315c0.013,-0.16 0.153,-0.28 0.314,-0.267c0.16,0.012 0.281,0.153 0.268,0.314c-0.013,0.16 -0.153,0.281 -0.313,0.268Z" style="fill:#e4971d;"/><path d="M83.709,35.983c-0.161,-0.012 -0.28,-0.153 -0.269,-0.313c0.013,-0.162 0.155,-0.281 0.315,-0.268c0.16,0.011 0.28,0.153 0.267,0.313c-0.013,0.162 -0.153,0.281 -0.313,0.268Z" style="fill:#deb87c;"/><path d="M83.157,61.5c0.091,-0.131 0.274,-0.165 0.407,-0.075c0.131,0.092 0.165,0.274 0.075,0.407c-0.091,0.131 -0.274,0.165 -0.407,0.075c-0.131,-0.091 -0.165,-0.274 -0.075,-0.407Z" style="fill:#f3f1ef;"/><path d="M92.226,45.034c-0.162,-0.011 -0.281,-0.153 -0.269,-0.313c0.013,-0.161 0.154,-0.28 0.314,-0.268c0.16,0.012 0.281,0.153 0.268,0.313c-0.013,0.162 -0.153,0.281 -0.313,0.268Z" style="fill:#deb87c;"/><path d="M87.114,50.587c0.091,-0.132 0.273,-0.166 0.407,-0.075c0.131,0.091 0.165,0.273 0.075,0.406c-0.092,0.132 -0.274,0.166 -0.407,0.075c-0.132,-0.09 -0.166,-0.273 -0.075,-0.406Z" style="fill:#c8c4bd;"/><path d="M73.568,37.16c0.131,0.092 0.165,0.273 0.075,0.406c-0.091,0.132 -0.274,0.166 -0.407,0.075c-0.131,-0.09 -0.165,-0.273 -0.075,-0.406c0.091,-0.132 0.274,-0.166 0.407,-0.075Z" style="fill:#deb87c;"/><path d="M89.741,67.172c-0.162,0.001 -0.291,-0.132 -0.29,-0.292c-0.001,-0.162 0.132,-0.291 0.292,-0.29c0.161,-0.001 0.291,0.131 0.29,0.292c0.001,0.162 -0.131,0.291 -0.292,0.29Z" style="fill:#deb87c;"/><path d="M87.996,52.226c0.082,-0.138 0.26,-0.186 0.399,-0.105c0.138,0.082 0.186,0.26 0.105,0.4c-0.08,0.138 -0.26,0.185 -0.4,0.105c-0.138,-0.081 -0.185,-0.261 -0.104,-0.4Z" style="fill:#f3f1ef;"/><path d="M88.382,34.512c0.037,0.157 -0.061,0.314 -0.218,0.351c-0.156,0.037 -0.313,-0.061 -0.35,-0.217c-0.038,-0.157 0.06,-0.314 0.217,-0.351c0.157,-0.037 0.314,0.061 0.351,0.217Z" style="fill:#dfd8cc;"/><path d="M90.219,46.335c0.133,0.091 0.166,0.274 0.075,0.407c-0.09,0.132 -0.273,0.166 -0.406,0.075c-0.132,-0.092 -0.166,-0.273 -0.075,-0.406c0.092,-0.132 0.273,-0.166 0.406,-0.076Z" style="fill:#a37836;"/><path d="M90.57,44.659c0.158,-0.037 0.315,0.061 0.352,0.218c0.036,0.157 -0.061,0.314 -0.219,0.351c-0.157,0.037 -0.314,-0.061 -0.351,-0.218c-0.037,-0.157 0.061,-0.314 0.218,-0.351Z" style="fill:#deb87c;"/><path d="M84.716,53.727c-0.045,0.154 -0.209,0.242 -0.362,0.195c-0.154,-0.047 -0.242,-0.209 -0.196,-0.364c0.046,-0.154 0.209,-0.242 0.363,-0.195c0.154,0.047 0.242,0.209 0.195,0.364Z" style="fill:#dfd8cc;"/><path d="M80.857,34.351c0.132,0.091 0.166,0.274 0.075,0.407c-0.09,0.131 -0.273,0.165 -0.406,0.075c-0.132,-0.092 -0.166,-0.273 -0.075,-0.407c0.091,-0.131 0.273,-0.165 0.406,-0.075Z" style="fill:#c8c4bd;"/><path d="M83.081,68.223c0.133,0.092 0.166,0.273 0.075,0.406c-0.09,0.133 -0.273,0.167 -0.405,0.075c-0.133,-0.09 -0.167,-0.273 -0.076,-0.405c0.092,-0.133 0.273,-0.167 0.406,-0.076Z" style="fill:#d7592a;"/><path d="M95.248,37.627c0.134,0.092 0.166,0.273 0.075,0.406c-0.09,0.133 -0.273,0.167 -0.405,0.075c-0.133,-0.091 -0.167,-0.273 -0.076,-0.405c0.092,-0.133 0.273,-0.167 0.406,-0.076Z" style="fill:#d7592a;"/><path d="M74.528,32.713c-0.161,-0.013 -0.282,-0.153 -0.269,-0.315c0.013,-0.16 0.153,-0.28 0.314,-0.267c0.16,0.012 0.281,0.153 0.268,0.314c-0.013,0.16 -0.153,0.281 -0.313,0.268Z" style="fill:#deb87c;"/><path d="M74.528,32.713c-0.161,-0.013 -0.282,-0.153 -0.269,-0.315c0.013,-0.16 0.153,-0.28 0.314,-0.267c0.16,0.012 0.281,0.153 0.268,0.314c-0.013,0.16 -0.153,0.281 -0.313,0.268Z" style="fill:#e4971d;"/><path d="M83.709,35.983c-0.161,-0.012 -0.28,-0.153 -0.269,-0.313c0.013,-0.162 0.155,-0.281 0.315,-0.268c0.16,0.011 0.28,0.153 0.267,0.313c-0.013,0.162 -0.153,0.281 -0.313,0.268Z" style="fill:#deb87c;"/><path d="M83.157,61.5c0.091,-0.131 0.274,-0.165 0.407,-0.075c0.131,0.092 0.165,0.274 0.075,0.407c-0.091,0.131 -0.274,0.165 -0.407,0.075c-0.131,-0.091 -0.165,-0.274 -0.075,-0.407Z" style="fill:#f3f1ef;"/><path d="M92.817,46.309c-0.515,-0.036 -0.895,-0.488 -0.859,-0.999c0.041,-0.516 0.493,-0.895 1.004,-0.855c0.511,0.037 0.895,0.489 0.855,1c-0.041,0.515 -0.489,0.895 -1,0.854Z" style="fill:#deb87c;"/><path d="M87.114,50.587c0.091,-0.132 0.273,-0.166 0.407,-0.075c0.131,0.091 0.165,0.273 0.075,0.406c-0.092,0.132 -0.274,0.166 -0.407,0.075c-0.132,-0.09 -0.166,-0.273 -0.075,-0.406Z" style="fill:#c8c4bd;"/><path d="M73.568,37.16c0.131,0.092 0.165,0.273 0.075,0.406c-0.091,0.132 -0.274,0.166 -0.407,0.075c-0.131,-0.09 -0.165,-0.273 -0.075,-0.406c0.091,-0.132 0.274,-0.166 0.407,-0.075Z" style="fill:#deb87c;"/><path d="M89.741,67.172c-0.162,0.001 -0.291,-0.132 -0.29,-0.292c-0.001,-0.162 0.132,-0.291 0.292,-0.29c0.161,-0.001 0.291,0.131 0.29,0.292c0.001,0.162 -0.131,0.291 -0.292,0.29Z" style="fill:#deb87c;"/><path d="M87.996,52.226c0.082,-0.138 0.26,-0.186 0.399,-0.105c0.138,0.082 0.186,0.26 0.105,0.4c-0.08,0.138 -0.26,0.185 -0.4,0.105c-0.138,-0.081 -0.185,-0.261 -0.104,-0.4Z" style="fill:#f3f1ef;"/><path d="M88.382,34.512c0.037,0.157 -0.061,0.314 -0.218,0.351c-0.156,0.037 -0.313,-0.061 -0.35,-0.217c-0.038,-0.157 0.06,-0.314 0.217,-0.351c0.157,-0.037 0.314,0.061 0.351,0.217Z" style="fill:#dfd8cc;"/><path d="M90.219,46.335c0.133,0.091 0.166,0.274 0.075,0.407c-0.09,0.132 -0.273,0.166 -0.406,0.075c-0.132,-0.092 -0.166,-0.273 -0.075,-0.406c0.092,-0.132 0.273,-0.166 0.406,-0.076Z" style="fill:#a37836;"/><path d="M90.57,44.659c0.158,-0.037 0.315,0.061 0.352,0.218c0.036,0.157 -0.061,0.314 -0.219,0.351c-0.157,0.037 -0.314,-0.061 -0.351,-0.218c-0.037,-0.157 0.061,-0.314 0.218,-0.351Z" style="fill:#deb87c;"/><path d="M84.716,53.727c-0.045,0.154 -0.209,0.242 -0.362,0.195c-0.154,-0.047 -0.242,-0.209 -0.196,-0.364c0.046,-0.154 0.209,-0.242 0.363,-0.195c0.154,0.047 0.242,0.209 0.195,0.364Z" style="fill:#dfd8cc;"/><path d="M80.857,34.351c0.132,0.091 0.166,0.274 0.075,0.407c-0.09,0.131 -0.273,0.165 -0.406,0.075c-0.132,-0.092 -0.166,-0.273 -0.075,-0.407c0.091,-0.131 0.273,-0.165 0.406,-0.075Z" style="fill:#c8c4bd;"/><path d="M83.507,68.27c0.257,0.178 0.319,0.528 0.144,0.785c-0.175,0.257 -0.527,0.322 -0.781,0.145c-0.257,-0.175 -0.323,-0.528 -0.148,-0.782c0.178,-0.257 0.528,-0.323 0.785,-0.148Z" style="fill:#d7592a;"/><path d="M88.06,43.343c0.374,0.259 0.466,0.769 0.211,1.143c-0.255,0.375 -0.77,0.47 -1.14,0.212c-0.375,-0.255 -0.471,-0.769 -0.216,-1.139c0.26,-0.375 0.77,-0.47 1.145,-0.216Z" style="fill:#d7592a;"/><path d="M82.828,39.043c-0.132,-0.09 -0.166,-0.273 -0.075,-0.406c0.09,-0.132 0.273,-0.166 0.406,-0.075c0.132,0.092 0.166,0.273 0.075,0.406c-0.091,0.132 -0.273,0.166 -0.406,0.075Z" style="fill:#a37836;"/><path d="M82.828,39.043c-0.132,-0.09 -0.166,-0.273 -0.075,-0.406c0.09,-0.132 0.273,-0.166 0.406,-0.075c0.132,0.092 0.166,0.273 0.075,0.406c-0.091,0.132 -0.273,0.166 -0.406,0.075Z" style="fill:#a37836;"/><path d="M49.771,2.17c0.036,0.156 -0.061,0.315 -0.219,0.351c-0.157,0.037 -0.314,-0.061 -0.351,-0.218c-0.037,-0.157 0.061,-0.314 0.218,-0.351c0.158,-0.037 0.315,0.061 0.352,0.218Z" style="fill:#deb87c;"/><path d="M62.233,4.497c-0.154,-0.047 -0.241,-0.21 -0.195,-0.364c0.046,-0.154 0.209,-0.242 0.364,-0.195c0.154,0.046 0.242,0.209 0.195,0.364c-0.047,0.154 -0.209,0.24 -0.364,0.195Z" style="fill:#deb87c;"/><path d="M56.625,12.54c-0.154,-0.047 -0.242,-0.21 -0.195,-0.364c0.046,-0.153 0.209,-0.241 0.364,-0.194c0.154,0.045 0.242,0.208 0.195,0.362c-0.047,0.155 -0.21,0.242 -0.364,0.196Z" style="fill:#dfd8cc;"/><path d="M77.931,17.202c-0.001,-0.162 0.131,-0.291 0.292,-0.29c0.162,-0.001 0.291,0.131 0.29,0.292c0.001,0.16 -0.132,0.291 -0.292,0.29c-0.162,0.001 -0.291,-0.132 -0.29,-0.292Z" style="fill:#deb87c;"/><path d="M92.877,15.456c0.138,0.082 0.185,0.26 0.105,0.4c-0.082,0.138 -0.261,0.185 -0.4,0.105c-0.138,-0.081 -0.186,-0.26 -0.105,-0.4c0.081,-0.138 0.26,-0.185 0.4,-0.105Z" style="fill:#f3f1ef;"/><path d="M87.081,21.292c0.132,0.09 0.166,0.273 0.075,0.406c-0.09,0.132 -0.273,0.166 -0.406,0.075c-0.132,-0.092 -0.166,-0.273 -0.075,-0.406c0.092,-0.132 0.273,-0.166 0.406,-0.075Z" style="fill:#a37836;"/><path d="M88.129,24.831c0.566,-0.133 1.132,0.219 1.265,0.785c0.133,0.566 -0.219,1.132 -0.785,1.265c-0.566,0.132 -1.132,-0.22 -1.265,-0.786c-0.133,-0.566 0.219,-1.132 0.785,-1.264Z" style="fill:#deb87c;"/><path d="M94.659,5.836c-0.157,0.036 -0.314,-0.061 -0.351,-0.219c-0.037,-0.155 0.061,-0.313 0.217,-0.349c0.157,-0.039 0.314,0.059 0.351,0.216c0.037,0.158 -0.061,0.315 -0.217,0.352Z" style="fill:#dfd8cc;"/><path d="M94.725,9.969c0.16,0.013 0.281,0.153 0.268,0.313c-0.013,0.162 -0.153,0.282 -0.315,0.269c-0.16,-0.012 -0.28,-0.153 -0.267,-0.314c0.013,-0.16 0.153,-0.281 0.314,-0.268Z" style="fill:#c8c4bd;"/><path d="M82.845,1.456c-0.091,0.133 -0.274,0.166 -0.407,0.075c-0.131,-0.09 -0.165,-0.273 -0.075,-0.406c0.092,-0.132 0.273,-0.166 0.407,-0.075c0.131,0.092 0.165,0.273 0.075,0.406Z" style="fill:#a37836;"/><path d="M84.521,1.808c0.037,0.157 -0.06,0.314 -0.218,0.351c-0.157,0.037 -0.314,-0.061 -0.351,-0.218c-0.037,-0.157 0.061,-0.315 0.218,-0.352c0.157,-0.036 0.315,0.061 0.351,0.219Z" style="fill:#deb87c;"/><path d="M91.376,12.177c-0.154,-0.045 -0.242,-0.21 -0.196,-0.362c0.047,-0.155 0.21,-0.243 0.364,-0.196c0.155,0.045 0.243,0.208 0.196,0.363c-0.047,0.154 -0.21,0.242 -0.364,0.195Z" style="fill:#dfd8cc;"/><path d="M57.087,7.232c0.131,0.091 0.165,0.273 0.075,0.406c-0.091,0.132 -0.274,0.166 -0.407,0.076c-0.131,-0.091 -0.165,-0.274 -0.075,-0.407c0.091,-0.132 0.274,-0.166 0.407,-0.075Z" style="fill:#c7beb0;"/><path d="M63.951,16.844c-0.092,0.132 -0.273,0.166 -0.406,0.075c-0.132,-0.091 -0.166,-0.273 -0.075,-0.407c0.09,-0.131 0.273,-0.165 0.406,-0.075c0.132,0.091 0.166,0.274 0.075,0.407Z" style="fill:#deb87c;"/><path d="M70.199,8.4c-0.09,0.132 -0.273,0.166 -0.406,0.075c-0.132,-0.09 -0.166,-0.273 -0.075,-0.406c0.092,-0.132 0.273,-0.166 0.406,-0.075c0.132,0.091 0.166,0.273 0.075,0.406Z" style="fill:#c8c4bd;"/><path d="M63.293,11.669c-0.092,0.133 -0.273,0.165 -0.407,0.075c-0.133,-0.091 -0.167,-0.274 -0.075,-0.405c0.091,-0.133 0.274,-0.167 0.405,-0.077c0.134,0.092 0.168,0.274 0.077,0.407Z" style="fill:#d7592a;"/><path d="M76.88,10.542c-0.092,0.133 -0.274,0.165 -0.407,0.075c-0.133,-0.091 -0.167,-0.273 -0.075,-0.405c0.091,-0.133 0.274,-0.167 0.405,-0.077c0.133,0.092 0.167,0.274 0.077,0.407Z" style="fill:#d7592a;"/><path d="M92.527,7.32c-0.26,0.376 -0.772,0.468 -1.148,0.212c-0.376,-0.256 -0.472,-0.772 -0.212,-1.144c0.256,-0.376 0.772,-0.472 1.144,-0.216c0.376,0.26 0.472,0.772 0.216,1.148Z" style="fill:#d7592a;"/></svg>