<?xml version="1.0" encoding="UTF-8" standalone="no"?><!DOCTYPE svg PUBLIC "-//W3C//DTD SVG 1.1//EN" "http://www.w3.org/Graphics/SVG/1.1/DTD/svg11.dtd"><svg width="100%" height="100%" viewBox="0 0 100 100" version="1.1" xmlns="http://www.w3.org/2000/svg" xmlns:xlink="http://www.w3.org/1999/xlink" xml:space="preserve" xmlns:serif="http://www.serif.com/" style="fill-rule:evenodd;clip-rule:evenodd;stroke-linejoin:round;stroke-miterlimit:2;"><g id="SVGRepo_iconCarrier"><g><g><g><path d="M58.329,80.097c0.066,-0.155 0.159,-0.298 0.278,-0.414c0.372,-0.363 0.968,-0.479 1.445,-0.284c0.159,0.064 0.305,0.155 0.437,0.284c0.12,0.116 0.212,0.259 0.279,0.414c0.066,0.156 0.106,0.324 0.106,0.492c-0,0.18 -0.04,0.349 -0.106,0.504c-0.067,0.155 -0.159,0.298 -0.279,0.414c-0.132,0.129 -0.278,0.22 -0.437,0.285c-0.159,0.064 -0.331,0.103 -0.504,0.103c-0.172,0 -0.344,-0.039 -0.504,-0.103c-0.159,-0.065 -0.304,-0.156 -0.437,-0.285c-0.119,-0.116 -0.212,-0.259 -0.278,-0.414c-0.08,-0.155 -0.107,-0.324 -0.107,-0.504c0,-0.168 0.027,-0.336 0.107,-0.492Z" style="fill:#161716;fill-rule:nonzero;"/></g></g><g><g><path d="M55.373,68.063c0.312,-0.305 0.802,-0.402 1.215,-0.239c0.133,0.054 0.256,0.131 0.367,0.239c0.201,0.195 0.323,0.479 0.323,0.761c0,0.152 -0.022,0.293 -0.089,0.424c-0.056,0.131 -0.134,0.251 -0.234,0.348c-0.212,0.206 -0.49,0.316 -0.791,0.316c-0.301,-0 -0.579,-0.11 -0.791,-0.316c-0.1,-0.097 -0.178,-0.217 -0.234,-0.348c-0.067,-0.131 -0.089,-0.272 -0.089,-0.424c-0,-0.282 0.123,-0.566 0.323,-0.761Z" style="fill:#161716;fill-rule:nonzero;"/></g></g><g><g><path d="M75.01,62.156c0.532,-0.519 1.366,-0.686 2.068,-0.407c0.227,0.092 0.436,0.222 0.625,0.407c0.342,0.332 0.55,0.815 0.55,1.296c0,0.258 -0.038,0.498 -0.151,0.721c-0.095,0.222 -0.227,0.426 -0.399,0.593c-0.36,0.35 -0.834,0.536 -1.346,0.536c-0.512,0 -0.986,-0.186 -1.346,-0.536c-0.171,-0.167 -0.303,-0.371 -0.399,-0.593c-0.113,-0.223 -0.151,-0.463 -0.151,-0.721c-0.001,-0.481 0.208,-0.964 0.549,-1.296Z" style="fill:#161716;fill-rule:nonzero;"/></g></g><g><g><path d="M43.441,39.096c0.045,-0.104 0.107,-0.2 0.188,-0.279c0.339,-0.33 0.927,-0.33 1.266,0c0.16,0.157 0.258,0.383 0.258,0.61c0,0.235 -0.098,0.452 -0.258,0.618c-0.17,0.165 -0.401,0.252 -0.633,0.252c-0.232,0 -0.464,-0.087 -0.633,-0.252c-0.081,-0.079 -0.143,-0.174 -0.188,-0.279c-0.053,-0.113 -0.071,-0.226 -0.071,-0.339c-0,-0.114 0.018,-0.227 0.071,-0.331Z" style="fill:#161716;fill-rule:nonzero;"/></g></g><g><g><path d="M68.788,46.47c0.045,-0.104 0.107,-0.2 0.188,-0.278c0.339,-0.331 0.927,-0.331 1.266,0c0.161,0.157 0.258,0.383 0.258,0.609c0,0.236 -0.097,0.453 -0.258,0.618c-0.17,0.166 -0.401,0.253 -0.633,0.253c-0.232,-0 -0.464,-0.087 -0.633,-0.253c-0.081,-0.078 -0.143,-0.174 -0.188,-0.278c-0.053,-0.113 -0.071,-0.226 -0.071,-0.34c-0,-0.113 0.018,-0.226 0.071,-0.331Z" style="fill:#161716;fill-rule:nonzero;"/></g></g><g><g><path d="M36.138,28.527c0.024,-0.157 0.07,-0.292 0.138,-0.427c0.046,-0.133 0.116,-0.268 0.207,-0.381c0.091,-0.134 0.183,-0.246 0.275,-0.336c0.116,-0.111 0.23,-0.201 0.344,-0.291c0.138,-0.068 0.276,-0.158 0.414,-0.202c0.138,-0.067 0.276,-0.089 0.414,-0.134c0.758,-0.134 1.539,0.09 2.089,0.627c0.414,0.404 0.667,0.987 0.667,1.57c-0,0.313 -0.069,0.583 -0.183,0.873c-0.116,0.27 -0.276,0.516 -0.483,0.719c-0.229,0.201 -0.483,0.381 -0.757,0.492c-0.276,0.113 -0.575,0.158 -0.874,0.158c-0.138,-0 -0.299,-0 -0.459,-0.045c-0.138,-0.023 -0.276,-0.068 -0.414,-0.113c-0.138,-0.067 -0.275,-0.135 -0.414,-0.201c-0.114,-0.09 -0.228,-0.18 -0.344,-0.292c-0.413,-0.425 -0.666,-0.986 -0.666,-1.591c0,-0.135 0.024,-0.292 0.046,-0.426Z" style="fill:#161716;fill-rule:nonzero;"/></g></g><g><g><path d="M28.166,23.582c0.008,-0.059 0.026,-0.11 0.052,-0.161c0.017,-0.051 0.044,-0.102 0.078,-0.145c0.026,-0.051 0.07,-0.093 0.105,-0.127c0.087,-0.085 0.182,-0.144 0.287,-0.187c0.209,-0.085 0.452,-0.085 0.661,-0c0.113,0.043 0.201,0.102 0.287,0.187c0.035,0.034 0.07,0.076 0.105,0.127c0.035,0.043 0.061,0.094 0.078,0.145c0.026,0.051 0.044,0.102 0.052,0.161c0.009,0.051 0.018,0.111 0.018,0.162c-0,0.059 -0.009,0.11 -0.018,0.169c-0.008,0.051 -0.026,0.111 -0.052,0.162c-0.017,0.051 -0.043,0.093 -0.078,0.144c-0.035,0.043 -0.07,0.085 -0.105,0.128c-0.086,0.076 -0.174,0.144 -0.287,0.186c-0.104,0.043 -0.217,0.06 -0.331,0.06c-0.113,0 -0.226,-0.017 -0.33,-0.06c-0.105,-0.042 -0.2,-0.11 -0.287,-0.186c-0.157,-0.162 -0.253,-0.374 -0.253,-0.603c0,-0.051 0.009,-0.111 0.018,-0.162Z" style="fill:#161716;fill-rule:nonzero;"/></g></g><g><g><path d="M47.373,18.743c0.086,-0.2 0.206,-0.385 0.36,-0.535c0.395,-0.402 0.995,-0.569 1.562,-0.469c0.103,0.034 0.206,0.05 0.309,0.1c0.102,0.033 0.205,0.1 0.308,0.151c0.086,0.067 0.172,0.134 0.257,0.218c0.155,0.15 0.275,0.335 0.361,0.535c0.086,0.201 0.137,0.419 0.137,0.637c-0,0.234 -0.051,0.435 -0.137,0.653c-0.086,0.201 -0.206,0.385 -0.361,0.536c-0.085,0.083 -0.171,0.15 -0.257,0.217c-0.103,0.05 -0.206,0.101 -0.308,0.151c-0.103,0.033 -0.206,0.067 -0.309,0.084c-0.12,0.034 -0.241,0.034 -0.344,0.034c-0.446,-0 -0.892,-0.168 -1.218,-0.486c-0.154,-0.151 -0.274,-0.335 -0.36,-0.536c-0.085,-0.218 -0.137,-0.419 -0.137,-0.653c-0.001,-0.218 0.051,-0.436 0.137,-0.637Z" style="fill:#161716;fill-rule:nonzero;"/></g></g><g><g><path d="M25.756,34.636c0.014,-0.091 0.04,-0.168 0.08,-0.246c0.026,-0.077 0.066,-0.155 0.119,-0.22c0.053,-0.078 0.106,-0.142 0.159,-0.194c0.133,-0.129 0.278,-0.22 0.438,-0.285c0.238,-0.103 0.503,-0.129 0.769,-0.077c0.079,0.026 0.159,0.039 0.238,0.077c0.079,0.026 0.159,0.078 0.239,0.117c0.066,0.052 0.132,0.104 0.198,0.168c0.239,0.233 0.385,0.569 0.385,0.906c-0,0.181 -0.04,0.336 -0.106,0.504c-0.066,0.156 -0.159,0.298 -0.279,0.415c-0.066,0.064 -0.132,0.116 -0.198,0.155c-0.08,0.051 -0.16,0.09 -0.239,0.129c-0.079,0.026 -0.159,0.052 -0.238,0.065c-0.093,0.026 -0.186,0.026 -0.266,0.026c-0.344,0 -0.689,-0.129 -0.941,-0.375c-0.238,-0.246 -0.384,-0.583 -0.384,-0.919c-0,-0.078 0.013,-0.169 0.026,-0.246Z" style="fill:#161716;fill-rule:nonzero;"/></g></g><g><g><path d="M14.041,46.62c0.014,-0.091 0.041,-0.169 0.08,-0.246c0.027,-0.077 0.067,-0.155 0.12,-0.22c0.052,-0.078 0.105,-0.142 0.158,-0.194c0.133,-0.13 0.279,-0.22 0.438,-0.285c0.239,-0.103 0.503,-0.129 0.769,-0.077c0.079,0.026 0.159,0.038 0.239,0.077c0.079,0.026 0.158,0.078 0.238,0.117c0.067,0.052 0.133,0.103 0.199,0.168c0.238,0.233 0.384,0.569 0.384,0.906c0,0.181 -0.039,0.336 -0.105,0.504c-0.067,0.155 -0.16,0.297 -0.279,0.414c-0.066,0.065 -0.132,0.117 -0.199,0.155c-0.08,0.052 -0.159,0.091 -0.238,0.13c-0.08,0.026 -0.16,0.052 -0.239,0.065c-0.093,0.026 -0.186,0.026 -0.266,0.026c-0.344,-0 -0.689,-0.13 -0.941,-0.375c-0.238,-0.246 -0.384,-0.583 -0.384,-0.919c0,-0.078 0.014,-0.169 0.026,-0.246Z" style="fill:#161716;fill-rule:nonzero;"/></g></g><g><g><path d="M56.684,24.8c0.953,-1.882 2.709,-3.08 5.219,-3.56c8.378,-1.601 11.031,-5.191 11.052,-5.218c0.27,-0.393 0.763,-0.579 1.237,-0.465c0.471,0.115 0.818,0.506 0.868,0.977c0.142,1.352 1.22,13.277 -4.84,15.714l-10.877,4.374c-0.008,0.003 -0.016,0.004 -0.023,0.007c-0.064,0.024 -0.129,0.045 -0.196,0.058c-0.055,0.01 -0.111,0.015 -0.168,0.018c-0.015,0.001 -0.029,0.001 -0.044,0.001c-0.047,0 -0.094,-0.002 -0.141,-0.007c-0.01,-0.001 -0.019,-0.002 -0.028,-0.003c-0.049,-0.007 -0.099,-0.016 -0.148,-0.029c-0.004,-0.001 -0.008,-0.004 -0.012,-0.005c-0.067,-0.019 -0.132,-0.043 -0.195,-0.074c-0.018,-0.009 -0.035,-0.02 -0.053,-0.031c-0.043,-0.023 -0.084,-0.048 -0.124,-0.077c-0.021,-0.016 -0.041,-0.033 -0.061,-0.05c-0.033,-0.028 -0.064,-0.056 -0.093,-0.088c-0.019,-0.019 -0.036,-0.039 -0.054,-0.06c-0.026,-0.033 -0.05,-0.067 -0.072,-0.102c-0.015,-0.023 -0.031,-0.046 -0.044,-0.07c-0.005,-0.01 -0.013,-0.019 -0.018,-0.029c-0.14,-0.278 -3.425,-6.855 -1.185,-11.281Zm2.182,7.528c3.391,-7.492 9.484,-7.762 9.773,-7.771c0.637,-0.017 1.168,0.472 1.186,1.094c0.018,0.621 -0.48,1.137 -1.121,1.157c-0.052,0.001 -5.077,0.224 -7.884,6.785l8.521,-3.426c3.058,-1.23 3.629,-7.078 3.56,-10.988c-1.837,1.401 -5.127,3.233 -10.555,4.271c-1.79,0.342 -2.965,1.109 -3.592,2.344c-0.968,1.909 -0.499,4.554 0.112,6.534Z" style="fill:#161716;fill-rule:nonzero;"/></g></g><g><g><path d="M62.702,75.267c0.711,1.488 2.061,2.454 4.014,2.873c6.52,1.397 8.529,4.249 8.544,4.271c0.205,0.312 0.586,0.466 0.959,0.385c0.37,-0.082 0.648,-0.382 0.696,-0.749c0.136,-1.054 1.196,-10.357 -3.497,-12.367l-8.422,-3.608c-0.006,-0.003 -0.012,-0.003 -0.018,-0.006c-0.049,-0.02 -0.1,-0.037 -0.152,-0.048c-0.043,-0.009 -0.087,-0.014 -0.131,-0.017c-0.012,-0.001 -0.023,-0.002 -0.035,-0.002c-0.036,-0.001 -0.073,-0 -0.11,0.003c-0.007,0.001 -0.015,0.001 -0.022,0.002c-0.039,0.004 -0.077,0.011 -0.116,0.02c-0.003,0.001 -0.006,0.003 -0.01,0.004c-0.053,0.014 -0.104,0.031 -0.153,0.054c-0.015,0.007 -0.028,0.016 -0.043,0.023c-0.033,0.018 -0.066,0.037 -0.097,0.059c-0.017,0.012 -0.033,0.025 -0.049,0.038c-0.026,0.021 -0.051,0.043 -0.075,0.067c-0.015,0.015 -0.029,0.03 -0.043,0.046c-0.021,0.025 -0.04,0.051 -0.058,0.078c-0.013,0.018 -0.025,0.036 -0.036,0.054c-0.004,0.008 -0.01,0.014 -0.014,0.022c-0.115,0.215 -2.802,5.299 -1.132,8.798Zm1.842,-5.846c2.515,5.915 7.272,6.231 7.498,6.243c0.498,0.025 0.922,-0.349 0.947,-0.834c0.025,-0.485 -0.354,-0.897 -0.855,-0.924c-0.041,-0.002 -3.964,-0.263 -6.039,-5.44l6.598,2.826c2.368,1.014 2.708,5.595 2.583,8.65c-1.411,-1.126 -3.949,-2.616 -8.173,-3.522c-1.393,-0.298 -2.297,-0.918 -2.765,-1.894c-0.722,-1.509 -0.307,-3.568 0.206,-5.105Z" style="fill:#161716;fill-rule:nonzero;"/></g></g><g><g><path d="M12.831,37.981c4.434,-2.751 12.208,-1.253 23.104,4.455c10.314,5.403 14.06,4.285 15.374,3.135c2.21,-1.93 1.33,-6.807 0.804,-8.524c-0.217,-0.713 0.172,-1.488 0.873,-1.731c0.7,-0.245 1.446,0.136 1.665,0.848c0.1,0.322 2.391,7.931 -1.642,11.462c-3.294,2.884 -9.289,1.986 -18.331,-2.753c-13.089,-6.857 -18.447,-5.821 -20.473,-4.591c-1.958,1.187 -2.077,3.226 -2.081,3.3c-0.02,0.753 -0.633,1.362 -1.367,1.36c-0.099,-0.001 -0.196,-0.012 -0.289,-0.034c-0.591,-0.138 -1.02,-0.684 -1.002,-1.335c0.004,-0.146 0.136,-3.589 3.365,-5.592Z" style="fill:#161716;fill-rule:nonzero;"/></g></g><g><g><path d="M16.04,66.787c0.567,-0.388 14.056,-9.418 27.865,-2.685c9.355,4.567 9.618,9.91 9.297,11.996c-0.558,3.62 -3.912,6.536 -8.346,7.258c-0.591,0.096 -1.144,0.144 -1.66,0.144c-1.717,0 -3.013,-0.532 -3.865,-1.592c-2.167,-2.693 -0.128,-7.556 0.112,-8.101c0.288,-0.655 1.065,-0.961 1.738,-0.679c0.673,0.28 0.986,1.04 0.699,1.697c-0.559,1.283 -1.409,4.313 -0.463,5.487c0.578,0.715 1.952,0.662 3.003,0.492c3.298,-0.537 5.774,-2.583 6.16,-5.091c0.497,-3.227 -2.368,-6.616 -7.861,-9.296c-12.371,-6.039 -25.034,2.404 -25.16,2.492c-0.603,0.408 -1.428,0.264 -1.846,-0.321c-0.418,-0.585 -0.273,-1.392 0.327,-1.801Z" style="fill:#161716;fill-rule:nonzero;"/></g></g><g><g><path d="M8.821,54.327c0.941,-0.378 23.339,-9.152 46.141,1.319c7.438,3.419 14.594,3.164 19.629,-0.692c3.455,-2.645 5.311,-6.668 4.619,-10.009c-0.515,-2.485 -2.34,-4.212 -5.277,-4.994c-3.672,-0.978 -6.396,-0.713 -8.098,0.785c-3.235,2.846 -2.187,9.335 -2.176,9.401c0.118,0.705 -0.37,1.369 -1.092,1.487c-0.723,0.118 -1.404,-0.359 -1.523,-1.064c-0.055,-0.322 -1.299,-7.94 3.008,-11.739c2.417,-2.133 5.975,-2.591 10.579,-1.366c3.912,1.042 6.461,3.519 7.178,6.977c0.885,4.277 -1.357,9.324 -5.581,12.557c-3.167,2.425 -7.008,3.644 -11.194,3.644c-3.553,-0 -7.355,-0.878 -11.201,-2.645c-21.718,-9.975 -43.784,-1.355 -44.003,-1.268c-0.68,0.271 -1.451,-0.044 -1.73,-0.705c-0.278,-0.661 0.044,-1.417 0.721,-1.688Z" style="fill:#161716;fill-rule:nonzero;"/></g></g></g><path d="M50,0c27.596,0 50,22.404 50,50c0,27.596 -22.404,50 -50,50c-27.596,0 -50,-22.404 -50,-50c-0,-27.596 22.404,-50 50,-50Zm-0,4c25.388,-0 46,20.612 46,46c-0,25.388 -20.612,46 -46,46c-25.388,0 -46,-20.612 -46,-46c-0,-25.388 20.612,-46 46,-46Z" style="fill:#161716;"/></g></svg>