<?xml version="1.0" encoding="UTF-8" standalone="no"?><!DOCTYPE svg PUBLIC "-//W3C//DTD SVG 1.1//EN" "http://www.w3.org/Graphics/SVG/1.1/DTD/svg11.dtd"><svg width="100%" height="100%" viewBox="0 0 100 100" version="1.1" xmlns="http://www.w3.org/2000/svg" xmlns:xlink="http://www.w3.org/1999/xlink" xml:space="preserve" xmlns:serif="http://www.serif.com/" style="fill-rule:evenodd;clip-rule:evenodd;stroke-linejoin:round;stroke-miterlimit:2;"><g><path d="M80.514,9.134c-0.266,-0.036 -0.526,-0.066 -0.779,-0.097c-0.229,-0.026 -0.45,-0.055 -0.666,-0.084c-2.051,-0.279 -4.062,0.069 -5.914,0.831c-1.393,-2.221 -1.976,-4.162 -1.79,-5.528c0.23,-1.696 1.791,-2.885 3.489,-2.654c0.925,0.125 1.699,0.65 2.174,1.376c0.003,-0.099 0.01,-0.196 0.023,-0.295c0.231,-1.698 1.795,-2.885 3.491,-2.654c1.696,0.23 2.885,1.791 2.655,3.489c-0.007,0.046 -0.018,0.092 -0.026,0.136c0.542,-0.338 1.204,-0.498 1.887,-0.405c1.555,0.211 2.644,1.645 2.433,3.198c-0.143,1.05 -0.919,2.354 -2.491,3.99c-1.52,-0.754 -3.021,-1.103 -4.486,-1.303Z" style="fill:#e8f0e9;fill-rule:nonzero;"/><path d="M80.514,9.134l-1.445,-0.181c-2.051,-0.279 -4.062,0.069 -5.914,0.831c-1.393,-2.221 -1.976,-4.162 -1.79,-5.528c0.23,-1.696 1.791,-2.885 3.489,-2.654c0.925,0.125 1.699,0.65 2.174,1.376c0.003,-0.099 0.01,-0.196 0.023,-0.295c0.231,-1.698 1.795,-2.885 3.491,-2.654c1.696,0.23 2.885,1.791 2.655,3.489c-0.007,0.046 -0.018,0.092 -0.026,0.136c0.542,-0.338 1.204,-0.498 1.887,-0.405c1.555,0.211 2.644,1.645 2.433,3.198c-0.143,1.05 -0.919,2.354 -2.491,3.99c-1.52,-0.754 -3.021,-1.103 -4.486,-1.303Zm0.134,-0.99l-1.445,-0.182c-1.933,-0.263 -3.834,-0.018 -5.618,0.592c-0.942,-1.665 -1.374,-3.102 -1.23,-4.163c0.157,-1.149 1.214,-1.954 2.364,-1.798c0.626,0.085 1.15,0.44 1.472,0.932c0.238,0.364 0.685,0.533 1.105,0.416c0.419,-0.117 0.715,-0.491 0.731,-0.927l0.015,-0.197c0.157,-1.15 1.217,-1.954 2.366,-1.797c1.148,0.156 1.953,1.212 1.798,2.362c-0.005,0.034 -0.014,0.068 -0.02,0.101c-0.068,0.389 0.1,0.781 0.427,1.001c0.328,0.221 0.754,0.228 1.089,0.018c0.35,-0.219 0.779,-0.322 1.221,-0.262c1.008,0.137 1.714,1.066 1.577,2.073c-0,-0 -0,-0 -0,-0c-0.108,0.798 -0.682,1.738 -1.739,2.913c-1.392,-0.594 -2.766,-0.899 -4.113,-1.082Z" style="fill:#161716;"/><path d="M11.224,10.597c6.427,-5.183 17.782,-4.725 24.013,3.739c6.683,9.082 9.544,17.246 16.069,18.342c9.302,1.56 12.605,-5.274 14.799,-11.442c0.46,-1.084 0.852,-2.483 1.327,-3.463c1.944,-4.029 6.711,-7.671 11.381,-7.037c2.353,0.32 5.473,0.361 8.869,4.412c0.907,1.278 2.82,4.144 3.75,6.109c1.042,2.211 -2.826,1.327 -4.465,1.297c-2.265,-0.042 -3.74,0.836 -4.759,2.192c-3.277,4.126 -3.099,7.786 -4.572,15.229c-1.996,10.087 -6.477,15.291 -11.905,18.542c-4.239,2.54 -10.224,3.794 -16.302,3.324l-1.377,10.135l23.449,3.186l-0.139,-3.473c-0.016,-0.423 0.206,-0.82 0.574,-1.025c0.371,-0.208 0.824,-0.19 1.175,0.047l10.317,6.92c0.355,0.239 0.546,0.661 0.488,1.085c-0.058,0.424 -0.354,0.78 -0.76,0.915l-11.789,3.917c-0.401,0.134 -0.844,0.03 -1.145,-0.268c-0.3,-0.297 -0.408,-0.738 -0.28,-1.141l1.061,-3.311l-23.449,-3.186l-1.494,10.998c6.97,1.845 11.733,8.957 11.733,13.36l-31.253,0c1.302,-9.115 8.174,-13.781 15.211,-13.887l1.502,-11.055l-18.255,-2.48l-4.035,3.921l-12.278,-1.668l4.937,-5.666l-3.247,-6.778l12.279,1.668l2.842,4.856l18.256,2.481l1.383,-10.183c-8.688,-1.888 -16.755,-7.573 -19.244,-18.386c-5.019,0.607 -8.034,-7.797 -4.46,-10.298c-6.827,2.092 -12.267,-7.246 -5.824,-10.381c-8.371,0.289 -8.928,-7.881 -4.383,-11.547Zm68.278,9.1c1.064,0.145 2.047,-0.601 2.191,-1.667c0.145,-1.066 -0.603,-2.045 -1.667,-2.19c-1.065,-0.145 -2.047,0.6 -2.191,1.666c-0.145,1.065 0.601,2.046 1.667,2.191Z" style="fill:#e8f0e9;fill-rule:nonzero;"/><path d="M11.224,10.597c6.427,-5.183 17.782,-4.725 24.013,3.739c6.683,9.082 9.544,17.246 16.069,18.342c9.302,1.56 12.605,-5.274 14.799,-11.442c0.46,-1.084 0.852,-2.483 1.327,-3.463c1.944,-4.029 6.711,-7.671 11.381,-7.037c2.353,0.32 5.473,0.361 8.869,4.412c0.907,1.278 2.82,4.144 3.75,6.109c1.042,2.211 -2.826,1.327 -4.465,1.297c-2.265,-0.042 -3.74,0.836 -4.759,2.192c-3.277,4.126 -3.099,7.786 -4.572,15.229c-1.996,10.087 -6.477,15.291 -11.905,18.542c-4.239,2.54 -10.224,3.794 -16.302,3.324l-1.377,10.135l23.449,3.186l-0.139,-3.473c-0.016,-0.423 0.206,-0.82 0.574,-1.025c0.371,-0.208 0.824,-0.19 1.175,0.047l10.317,6.92c0.355,0.239 0.546,0.661 0.488,1.085c-0.058,0.424 -0.354,0.78 -0.76,0.915l-11.789,3.917c-0.401,0.134 -0.844,0.03 -1.145,-0.268c-0.3,-0.297 -0.408,-0.738 -0.28,-1.141l1.061,-3.311l-23.449,-3.186l-1.494,10.998c6.97,1.845 11.733,8.957 11.733,13.36l-31.253,0c1.302,-9.115 8.174,-13.781 15.211,-13.887l1.502,-11.055l-18.255,-2.48l-4.035,3.921l-12.278,-1.668l4.937,-5.666l-3.247,-6.778l12.279,1.668l2.842,4.856l18.256,2.481l1.383,-10.183c-8.688,-1.888 -16.755,-7.573 -19.244,-18.386c-5.019,0.607 -8.034,-7.797 -4.46,-10.298c-6.827,2.092 -12.267,-7.246 -5.824,-10.381c-8.371,0.289 -8.928,-7.881 -4.383,-11.547Zm79.302,11.083c-0.244,0.033 -0.641,0.079 -0.943,0.068c-0.918,-0.033 -1.937,-0.182 -2.597,-0.194c-2.658,-0.049 -4.38,0.999 -5.576,2.589c-3.358,4.234 -3.24,7.982 -4.755,15.638c-1.922,9.715 -6.209,14.747 -11.437,17.879c-0,-0 -0,-0 -0,-0c-4.085,2.446 -9.856,3.637 -15.712,3.184c-0.528,-0.041 -0.996,0.337 -1.068,0.862l-1.377,10.135c-0.074,0.547 0.309,1.051 0.857,1.126l23.448,3.186c0.293,0.04 0.589,-0.052 0.808,-0.251c0.218,-0.199 0.338,-0.485 0.326,-0.78l-0.139,-3.471c-0.002,-0.047 0.022,-0.092 0.063,-0.114c-0,-0.001 -0,-0.001 0,-0.001c0.04,-0.022 0.09,-0.022 0.128,0.004l10.318,6.921c0.039,0.026 0.062,0.073 0.055,0.12c0,0 0,0 0,0.001c-0.006,0.047 -0.04,0.086 -0.085,0.101l-11.791,3.917c-0.044,0.014 -0.091,0.001 -0.124,-0.031c-0,-0 -0,-0 -0,-0c-0.034,-0.033 -0.044,-0.082 -0.03,-0.127c-0,0 1.06,-3.308 1.06,-3.308c0.09,-0.282 0.051,-0.589 -0.106,-0.839c-0.158,-0.25 -0.419,-0.418 -0.712,-0.457l-23.448,-3.187c-0.548,-0.074 -1.052,0.309 -1.126,0.857l-1.494,10.997c-0.068,0.5 0.247,0.972 0.735,1.101c3.931,1.041 7.107,3.875 9.025,6.861c0.995,1.549 1.657,3.136 1.88,4.533c0,0 -28.98,0 -28.98,0c1.607,-7.79 7.744,-11.792 14.037,-11.887c0.495,-0.008 0.909,-0.375 0.976,-0.865l1.502,-11.055c0.075,-0.547 -0.309,-1.051 -0.856,-1.125l-18.256,-2.481c-0.304,-0.042 -0.611,0.059 -0.831,0.274l-3.686,3.582c0,-0 -9.958,-1.354 -9.958,-1.354c-0,0 3.719,-4.267 3.719,-4.267c0.263,-0.301 0.321,-0.729 0.148,-1.089l-2.445,-5.106c-0,0 9.958,1.354 9.958,1.354c0,-0 2.596,4.435 2.596,4.435c0.155,0.265 0.424,0.445 0.728,0.486l18.256,2.481c0.263,0.035 0.529,-0.035 0.74,-0.195c0.211,-0.161 0.35,-0.399 0.386,-0.662l1.383,-10.183c0.07,-0.517 -0.269,-1.001 -0.778,-1.112c-8.339,-1.811 -16.094,-7.254 -18.483,-17.632c-0.114,-0.499 -0.586,-0.83 -1.094,-0.769c-2.059,0.249 -3.637,-1.444 -4.404,-3.362c-0.402,-1.006 -0.582,-2.096 -0.46,-3.069c0.105,-0.838 0.435,-1.591 1.097,-2.054c0.404,-0.282 0.542,-0.816 0.326,-1.258c-0.216,-0.442 -0.721,-0.662 -1.192,-0.518c-2.913,0.893 -5.525,-0.667 -6.727,-2.77c-0.684,-1.198 -0.922,-2.583 -0.409,-3.776c0.339,-0.789 1.008,-1.476 2.043,-1.98c0.425,-0.207 0.647,-0.682 0.533,-1.141c-0.114,-0.458 -0.533,-0.774 -1.005,-0.758c-2.865,0.099 -4.695,-0.879 -5.569,-2.385c-1.309,-2.257 -0.481,-5.505 1.848,-7.384l0,0c6.045,-4.875 16.719,-4.407 22.58,3.553c4.023,5.469 6.67,10.603 9.555,14.075c2.086,2.511 4.312,4.184 7.154,4.661c-0,-0 -0,-0 -0,-0c9.925,1.665 13.555,-5.489 15.898,-12.071c0.447,-1.06 0.828,-2.425 1.293,-3.383c0,-0.001 0.001,-0.001 0.001,-0.002c1.773,-3.676 6.085,-7.06 10.346,-6.481c-0,0 -0,0 -0,0c2.174,0.296 5.069,0.307 8.205,4.026c0.899,1.268 2.741,4.026 3.642,5.927Zm-11.159,-0.992c0,0 0,0 0,0c1.611,0.219 3.098,-0.91 3.317,-2.523c0.219,-1.613 -0.913,-3.097 -2.523,-3.316c-1.613,-0.219 -3.098,0.909 -3.317,2.522c-0.219,1.613 0.91,3.098 2.523,3.317Zm0.135,-0.991c1.064,0.145 2.047,-0.601 2.191,-1.667c0.145,-1.066 -0.603,-2.045 -1.667,-2.19c-1.065,-0.145 -2.047,0.6 -2.191,1.666c-0.145,1.065 0.601,2.046 1.667,2.191Z" style="fill:#161716;"/></g></svg>