<?xml version="1.0" encoding="UTF-8" standalone="no"?><!DOCTYPE svg PUBLIC "-//W3C//DTD SVG 1.1//EN" "http://www.w3.org/Graphics/SVG/1.1/DTD/svg11.dtd"><svg width="100%" height="100%" viewBox="0 0 100 80" version="1.1" xmlns="http://www.w3.org/2000/svg" xmlns:xlink="http://www.w3.org/1999/xlink" xml:space="preserve" xmlns:serif="http://www.serif.com/" style="fill-rule:evenodd;clip-rule:evenodd;stroke-linejoin:round;stroke-miterlimit:2;"><path d="M100,11.739c-0,-6.479 -5.26,-11.739 -11.739,-11.739l-76.522,0c-6.479,0 -11.739,5.26 -11.739,11.739l0,56.522c0,6.479 5.26,11.739 11.739,11.739l76.522,0c6.479,0 11.739,-5.26 11.739,-11.739l-0,-56.522Z" style="fill:#808080;"/><g><g><path d="M7.813,24.378c5.448,-3.393 15,-1.545 28.389,5.494c12.673,6.661 17.276,5.283 18.891,3.866c2.716,-2.38 1.635,-8.395 0.988,-10.512c-0.267,-0.879 0.212,-1.835 1.073,-2.134c0.859,-0.303 1.777,0.167 2.046,1.046c0.122,0.397 2.937,9.78 -2.018,14.133c-4.048,3.556 -11.415,2.449 -22.525,-3.394c-16.083,-8.456 -22.667,-7.178 -25.156,-5.662c-2.407,1.464 -2.553,3.979 -2.558,4.069c-0.025,0.929 -0.778,1.68 -1.68,1.678c-0.121,-0.001 -0.241,-0.016 -0.354,-0.042c-0.727,-0.17 -1.254,-0.844 -1.232,-1.647c0.005,-0.18 0.167,-4.425 4.136,-6.895Z" style="fill:#d3d3d3;fill-rule:nonzero;"/></g></g><g><g><path d="M11.583,55.929c0.682,-0.39 16.906,-9.479 33.514,-2.702c11.252,4.596 11.568,9.974 11.182,12.073c-0.671,3.644 -4.705,6.579 -10.038,7.305c-0.711,0.097 -1.377,0.145 -1.996,0.145c-2.066,0 -3.625,-0.535 -4.649,-1.602c-2.606,-2.71 -0.154,-7.605 0.134,-8.153c0.347,-0.66 1.281,-0.968 2.091,-0.684c0.809,0.282 1.185,1.046 0.84,1.708c-0.672,1.292 -1.694,4.341 -0.556,5.523c0.695,0.719 2.347,0.666 3.611,0.494c3.967,-0.54 6.944,-2.599 7.409,-5.123c0.598,-3.248 -2.848,-6.659 -9.454,-9.356c-14.879,-6.078 -30.109,2.42 -30.26,2.507c-0.725,0.411 -1.718,0.266 -2.22,-0.323c-0.504,-0.588 -0.329,-1.4 0.392,-1.812Z" style="fill:#d3d3d3;fill-rule:nonzero;"/></g></g><g><g><path d="M3.487,42.442c1.133,-0.381 28.07,-9.211 55.494,1.327c8.946,3.442 17.553,3.185 23.609,-0.697c4.154,-2.661 6.386,-6.71 5.554,-10.073c-0.619,-2.501 -2.813,-4.239 -6.346,-5.026c-4.416,-0.984 -7.692,-0.717 -9.74,0.79c-3.89,2.864 -2.63,9.396 -2.616,9.462c0.141,0.709 -0.446,1.378 -1.314,1.496c-0.87,0.119 -1.688,-0.361 -1.832,-1.07c-0.066,-0.325 -1.563,-7.992 3.618,-11.816c2.907,-2.146 7.186,-2.607 12.723,-1.374c4.705,1.048 7.771,3.542 8.633,7.022c1.065,4.305 -1.632,9.384 -6.712,12.638c-3.809,2.44 -8.428,3.668 -13.463,3.668c-4.274,-0 -8.846,-0.884 -13.472,-2.662c-26.12,-10.04 -52.658,-1.365 -52.922,-1.277c-0.818,0.274 -1.746,-0.044 -2.081,-0.709c-0.334,-0.666 0.053,-1.426 0.867,-1.699Z" style="fill:#d3d3d3;fill-rule:nonzero;"/></g></g><g><g><path d="M75.917,16.041c0.435,-0.646 1.241,-1.059 2.394,-1.228c3.85,-0.566 5.064,-1.799 5.074,-1.808c0.123,-0.135 0.35,-0.2 0.568,-0.162c0.216,0.039 0.377,0.172 0.4,0.333c0.068,0.462 0.582,4.538 -2.201,5.384l-4.994,1.519c-0.004,0.001 -0.007,0.001 -0.011,0.002c-0.029,0.009 -0.059,0.016 -0.09,0.021c-0.025,0.003 -0.051,0.005 -0.077,0.006c-0.007,0 -0.013,0 -0.02,0.001c-0.022,-0 -0.043,-0.001 -0.065,-0.003c-0.004,-0 -0.009,-0 -0.013,-0.001c-0.023,-0.002 -0.045,-0.005 -0.068,-0.009c-0.002,-0.001 -0.004,-0.001 -0.005,-0.002c-0.031,-0.006 -0.061,-0.014 -0.09,-0.025c-0.009,-0.003 -0.016,-0.007 -0.025,-0.01c-0.019,-0.008 -0.038,-0.017 -0.057,-0.026c-0.009,-0.006 -0.019,-0.011 -0.028,-0.017c-0.015,-0.01 -0.029,-0.019 -0.043,-0.03c-0.008,-0.007 -0.017,-0.014 -0.025,-0.021c-0.012,-0.011 -0.023,-0.022 -0.033,-0.034c-0.007,-0.008 -0.014,-0.016 -0.02,-0.024c-0.003,-0.004 -0.006,-0.006 -0.008,-0.01c-0.066,-0.095 -1.586,-2.337 -0.563,-3.856Zm1.015,2.57c1.548,-2.569 4.348,-2.674 4.482,-2.678c0.292,-0.007 0.537,0.159 0.546,0.372c0.01,0.212 -0.219,0.39 -0.513,0.398c-0.024,0 -2.334,0.087 -3.615,2.337l3.913,-1.19c1.404,-0.427 1.658,-2.428 1.62,-3.765c-0.843,0.483 -2.353,1.116 -4.847,1.483c-0.822,0.12 -1.361,0.385 -1.648,0.809c-0.442,0.655 -0.222,1.558 0.062,2.234Z" style="fill:#4c545d;fill-rule:nonzero;"/></g></g><g><g><path d="M92.714,24.84c0.52,0.301 0.813,0.801 0.87,1.485c0.191,2.285 1.155,3.083 1.163,3.089c0.106,0.082 0.144,0.219 0.095,0.343c-0.05,0.123 -0.176,0.207 -0.315,0.209c-0.401,0.005 -3.933,0.005 -4.446,-1.679l-0.921,-3.021c-0,-0.003 -0,-0.005 -0.001,-0.007c-0.005,-0.017 -0.009,-0.035 -0.01,-0.054c-0.001,-0.015 -0.001,-0.03 -0,-0.045c0,-0.004 0.001,-0.008 0.001,-0.012c0.002,-0.013 0.004,-0.025 0.007,-0.038c0.001,-0.002 0.001,-0.005 0.002,-0.007c0.003,-0.013 0.008,-0.026 0.013,-0.039c0.001,-0.001 0.001,-0.002 0.002,-0.003c0.008,-0.018 0.017,-0.034 0.028,-0.05c0.003,-0.005 0.007,-0.009 0.011,-0.014c0.008,-0.011 0.017,-0.021 0.027,-0.031c0.005,-0.006 0.011,-0.011 0.016,-0.016c0.01,-0.008 0.019,-0.015 0.029,-0.022c0.007,-0.005 0.013,-0.009 0.02,-0.013c0.01,-0.006 0.021,-0.012 0.032,-0.017c0.007,-0.004 0.014,-0.007 0.022,-0.01c0.003,-0.001 0.006,-0.003 0.009,-0.004c0.086,-0.031 2.123,-0.752 3.346,-0.044Zm-2.279,0.402c2.083,1.091 1.96,2.73 1.953,2.808c-0.016,0.171 -0.177,0.302 -0.36,0.291c-0.182,-0.01 -0.317,-0.156 -0.302,-0.328c0.002,-0.014 0.103,-1.366 -1.727,-2.278l0.722,2.367c0.259,0.85 1.953,1.145 3.102,1.221c-0.35,-0.526 -0.778,-1.453 -0.901,-2.933c-0.041,-0.488 -0.227,-0.821 -0.568,-1.019c-0.528,-0.306 -1.318,-0.245 -1.919,-0.129Z" style="fill:#4c545d;fill-rule:nonzero;"/></g></g><g><g><path d="M53.762,73.027c0.409,0.805 1.183,1.325 2.299,1.547c3.727,0.741 4.882,2.281 4.89,2.293c0.118,0.168 0.336,0.251 0.549,0.206c0.211,-0.046 0.369,-0.209 0.396,-0.408c0.075,-0.572 0.657,-5.616 -2.028,-6.693l-4.819,-1.933c-0.004,-0.002 -0.007,-0.002 -0.01,-0.003c-0.029,-0.011 -0.057,-0.02 -0.087,-0.026c-0.025,-0.005 -0.05,-0.008 -0.075,-0.009c-0.007,-0 -0.013,-0.001 -0.02,-0.001c-0.021,-0 -0.042,0 -0.063,0.002c-0.004,0.001 -0.008,0.001 -0.012,0.001c-0.022,0.003 -0.044,0.006 -0.066,0.011c-0.002,0.001 -0.004,0.002 -0.006,0.002c-0.03,0.008 -0.059,0.018 -0.088,0.03c-0.008,0.004 -0.016,0.009 -0.024,0.013c-0.019,0.01 -0.038,0.02 -0.055,0.032c-0.01,0.006 -0.019,0.013 -0.028,0.021c-0.015,0.011 -0.029,0.023 -0.043,0.036c-0.008,0.008 -0.016,0.016 -0.024,0.025c-0.012,0.014 -0.023,0.028 -0.033,0.043c-0.007,0.009 -0.014,0.019 -0.021,0.029c-0.002,0.004 -0.005,0.008 -0.008,0.012c-0.065,0.117 -1.587,2.879 -0.624,4.77Zm1.037,-3.172c1.451,3.199 4.169,3.358 4.298,3.364c0.284,0.012 0.525,-0.192 0.539,-0.455c0.013,-0.263 -0.205,-0.485 -0.491,-0.498c-0.023,-0.001 -2.265,-0.133 -3.462,-2.933l3.775,1.515c1.355,0.543 1.56,3.024 1.496,4.681c-0.808,-0.607 -2.261,-1.408 -4.676,-1.888c-0.796,-0.158 -1.314,-0.491 -1.584,-1.019c-0.416,-0.816 -0.184,-1.933 0.105,-2.767Z" style="fill:#4c545d;fill-rule:nonzero;"/></g></g><g><g><path d="M28.251,68.882c-0.419,0.219 -0.669,0.6 -0.743,1.131c-0.247,1.775 -1.033,2.369 -1.039,2.373c-0.086,0.061 -0.122,0.166 -0.089,0.264c0.033,0.098 0.128,0.167 0.237,0.173c0.313,0.016 3.069,0.123 3.541,-1.173l0.848,-2.328c0,-0.002 0,-0.003 0.001,-0.005c0.004,-0.014 0.008,-0.027 0.01,-0.042c0.002,-0.011 0.002,-0.023 0.002,-0.035c-0,-0.003 -0,-0.006 -0,-0.009c-0.001,-0.01 -0.002,-0.02 -0.004,-0.03c-0.001,-0.002 -0.001,-0.004 -0.001,-0.006c-0.003,-0.01 -0.005,-0.02 -0.009,-0.03c-0,-0.001 -0.001,-0.002 -0.001,-0.003c-0.006,-0.014 -0.012,-0.027 -0.02,-0.04c-0.003,-0.004 -0.005,-0.007 -0.008,-0.011c-0.006,-0.009 -0.012,-0.017 -0.02,-0.025c-0.004,-0.005 -0.008,-0.009 -0.012,-0.013c-0.007,-0.006 -0.014,-0.012 -0.021,-0.018c-0.005,-0.004 -0.01,-0.007 -0.015,-0.011c-0.008,-0.005 -0.016,-0.01 -0.025,-0.014c-0.005,-0.003 -0.011,-0.006 -0.016,-0.009c-0.003,-0.001 -0.005,-0.002 -0.007,-0.003c-0.066,-0.027 -1.625,-0.651 -2.609,-0.136Zm1.761,0.383c-1.673,0.787 -1.646,2.069 -1.644,2.13c0.005,0.133 0.125,0.24 0.268,0.238c0.143,-0.003 0.255,-0.113 0.25,-0.247c-0.001,-0.011 -0.022,-1.069 1.445,-1.724l-0.664,1.824c-0.239,0.654 -1.574,0.833 -2.473,0.857c0.295,-0.399 0.668,-1.109 0.828,-2.259c0.053,-0.379 0.212,-0.633 0.487,-0.777c0.424,-0.223 1.039,-0.151 1.503,-0.042Z" style="fill:#4c545d;fill-rule:nonzero;"/></g></g><g><g><path d="M69.793,10.912c-0.493,-0.036 -0.972,0.14 -1.424,0.526c-1.507,1.286 -2.568,1.362 -2.576,1.363c-0.114,0.005 -0.22,0.07 -0.266,0.165c-0.046,0.094 -0.022,0.197 0.06,0.256c0.236,0.17 2.341,1.64 3.673,0.847l2.391,-1.423c0.002,-0.001 0.003,-0.002 0.005,-0.003c0.013,-0.009 0.027,-0.018 0.039,-0.028c0.01,-0.009 0.019,-0.018 0.027,-0.028c0.003,-0.002 0.005,-0.005 0.007,-0.007c0.007,-0.008 0.013,-0.017 0.019,-0.026c0.001,-0.001 0.002,-0.003 0.003,-0.005c0.006,-0.009 0.011,-0.019 0.016,-0.029c0,-0 0,-0.001 0.001,-0.002c0.006,-0.014 0.011,-0.028 0.014,-0.042c0.001,-0.004 0.001,-0.008 0.002,-0.013c0.001,-0.01 0.003,-0.019 0.003,-0.029c-0,-0.006 -0.001,-0.011 -0.001,-0.017c-0,-0.008 -0.001,-0.017 -0.003,-0.025c-0.001,-0.006 -0.002,-0.011 -0.004,-0.016c-0.002,-0.008 -0.005,-0.016 -0.009,-0.024c-0.002,-0.005 -0.004,-0.01 -0.007,-0.015c-0.001,-0.002 -0.001,-0.004 -0.003,-0.006c-0.032,-0.054 -0.806,-1.333 -1.967,-1.419Zm1.113,1.189c-1.907,-0.215 -2.833,0.817 -2.876,0.866c-0.095,0.109 -0.078,0.254 0.037,0.324c0.115,0.07 0.284,0.039 0.38,-0.071c0.008,-0.009 0.772,-0.859 2.418,-0.643l-1.873,1.115c-0.673,0.4 -1.862,-0.129 -2.593,-0.561c0.529,-0.169 1.349,-0.545 2.325,-1.378c0.322,-0.275 0.636,-0.397 0.96,-0.374c0.501,0.037 0.935,0.403 1.222,0.722Z" style="fill:#4c545d;fill-rule:nonzero;"/></g></g><g><g><path d="M52.703,21.335c0.365,-0.491 0.394,-1.1 0.086,-1.81c-1.028,-2.37 -0.48,-3.523 -0.476,-3.532c0.063,-0.121 0.029,-0.272 -0.087,-0.379c-0.116,-0.107 -0.288,-0.145 -0.43,-0.096c-0.409,0.139 -3.977,1.419 -3.596,3.3l0.684,3.376c0.001,0.002 0.002,0.004 0.002,0.007c0.005,0.019 0.01,0.039 0.019,0.058c0.006,0.015 0.015,0.03 0.024,0.045c0.002,0.004 0.005,0.008 0.008,0.012c0.008,0.012 0.017,0.024 0.027,0.035c0.002,0.003 0.003,0.005 0.005,0.007c0.011,0.012 0.022,0.023 0.035,0.034c0.001,0.001 0.002,0.002 0.003,0.003c0.017,0.015 0.036,0.028 0.055,0.041c0.006,0.003 0.013,0.006 0.019,0.009c0.014,0.008 0.028,0.016 0.043,0.022c0.009,0.003 0.017,0.006 0.026,0.009c0.013,0.005 0.027,0.009 0.041,0.013c0.009,0.002 0.017,0.004 0.026,0.006c0.014,0.002 0.028,0.004 0.042,0.005c0.009,0.001 0.018,0.002 0.028,0.002c0.003,0 0.007,0.001 0.011,0.001c0.104,0 2.547,-0.012 3.405,-1.168Zm-2.518,0.421c1.523,-1.853 0.522,-3.459 0.473,-3.535c-0.108,-0.166 -0.34,-0.239 -0.519,-0.163c-0.179,0.077 -0.238,0.272 -0.13,0.44c0.009,0.014 0.834,1.339 -0.528,2.919l-0.536,-2.644c-0.192,-0.95 1.363,-1.86 2.483,-2.353c-0.072,0.656 -0.009,1.744 0.656,3.279c0.22,0.506 0.211,0.91 -0.029,1.233c-0.369,0.498 -1.201,0.723 -1.87,0.824Z" style="fill:#4c545d;fill-rule:nonzero;"/></g></g><g><g><path d="M56.121,64.967c0.036,-0.056 0.085,-0.107 0.148,-0.149c0.197,-0.131 0.515,-0.174 0.769,-0.106c0.085,0.023 0.163,0.055 0.234,0.101c0.064,0.042 0.113,0.092 0.149,0.148c0.035,0.056 0.057,0.116 0.057,0.176c0,0.065 -0.021,0.125 -0.056,0.181c-0.035,0.056 -0.084,0.107 -0.147,0.149c-0.071,0.047 -0.148,0.08 -0.233,0.103c-0.084,0.024 -0.176,0.038 -0.268,0.039c-0.092,0 -0.184,-0.013 -0.268,-0.036c-0.085,-0.023 -0.163,-0.055 -0.234,-0.101c-0.064,-0.041 -0.113,-0.092 -0.149,-0.148c-0.043,-0.055 -0.057,-0.116 -0.057,-0.18c-0.001,-0.061 0.013,-0.121 0.055,-0.177Z" style="fill:#4c545d;fill-rule:nonzero;"/></g></g><g><g><path d="M53.681,53.917c0.17,-0.113 0.439,-0.151 0.665,-0.091c0.073,0.019 0.14,0.047 0.201,0.087c0.111,0.071 0.178,0.176 0.179,0.28c-0,0.056 -0.012,0.108 -0.048,0.156c-0.031,0.049 -0.073,0.093 -0.128,0.129c-0.116,0.077 -0.268,0.118 -0.433,0.119c-0.165,0 -0.317,-0.039 -0.434,-0.115c-0.055,-0.035 -0.097,-0.079 -0.128,-0.127c-0.037,-0.048 -0.05,-0.101 -0.05,-0.157c-0.001,-0.104 0.066,-0.209 0.176,-0.281Z" style="fill:#4c545d;fill-rule:nonzero;"/></g></g><g><g><path d="M78.379,49.481c0.192,-0.127 0.493,-0.169 0.747,-0.102c0.082,0.022 0.158,0.053 0.226,0.098c0.124,0.08 0.2,0.197 0.2,0.314c0.001,0.063 -0.013,0.121 -0.053,0.176c-0.035,0.054 -0.082,0.104 -0.144,0.145c-0.13,0.086 -0.301,0.132 -0.486,0.132c-0.185,0.001 -0.356,-0.043 -0.487,-0.128c-0.062,-0.04 -0.11,-0.09 -0.144,-0.144c-0.042,-0.053 -0.056,-0.112 -0.056,-0.175c-0.001,-0.117 0.074,-0.234 0.197,-0.316Z" style="fill:#4c545d;fill-rule:nonzero;"/></g></g><g><g><path d="M36.902,26.896c0.029,-0.047 0.07,-0.09 0.123,-0.125c0.224,-0.148 0.614,-0.15 0.839,-0.004c0.107,0.07 0.172,0.17 0.173,0.271c0,0.105 -0.064,0.203 -0.17,0.277c-0.112,0.074 -0.265,0.114 -0.419,0.115c-0.154,0 -0.308,-0.038 -0.42,-0.111c-0.054,-0.035 -0.095,-0.078 -0.125,-0.124c-0.036,-0.05 -0.048,-0.101 -0.048,-0.151c-0,-0.051 0.011,-0.101 0.047,-0.148Z" style="fill:#4c545d;fill-rule:nonzero;"/></g></g><g><g><path d="M71.649,33.563c0.027,-0.043 0.065,-0.083 0.114,-0.115c0.207,-0.138 0.568,-0.139 0.776,-0.004c0.099,0.064 0.159,0.157 0.159,0.251c0.001,0.097 -0.059,0.187 -0.157,0.255c-0.103,0.069 -0.245,0.106 -0.387,0.106c-0.142,0.001 -0.284,-0.034 -0.388,-0.102c-0.05,-0.032 -0.088,-0.072 -0.116,-0.115c-0.033,-0.046 -0.044,-0.093 -0.044,-0.139c-0,-0.047 0.011,-0.094 0.043,-0.137Z" style="fill:#4c545d;fill-rule:nonzero;"/></g></g><g><g><path d="M30.03,18.354c0.009,-0.044 0.028,-0.081 0.055,-0.119c0.019,-0.037 0.047,-0.074 0.085,-0.105c0.037,-0.037 0.075,-0.068 0.112,-0.093c0.047,-0.031 0.094,-0.056 0.141,-0.081c0.056,-0.019 0.113,-0.044 0.169,-0.057c0.057,-0.019 0.113,-0.025 0.17,-0.038c0.31,-0.038 0.63,0.022 0.857,0.17c0.17,0.11 0.274,0.271 0.275,0.432c0,0.086 -0.027,0.16 -0.074,0.241c-0.047,0.074 -0.112,0.143 -0.197,0.199c-0.094,0.056 -0.197,0.106 -0.31,0.137c-0.113,0.032 -0.235,0.045 -0.358,0.045c-0.056,0.001 -0.122,0.001 -0.188,-0.011c-0.056,-0.006 -0.113,-0.018 -0.169,-0.031c-0.057,-0.018 -0.114,-0.036 -0.17,-0.054c-0.047,-0.025 -0.094,-0.049 -0.142,-0.08c-0.17,-0.117 -0.274,-0.271 -0.275,-0.438c0,-0.037 0.009,-0.081 0.019,-0.117Z" style="fill:#4c545d;fill-rule:nonzero;"/></g></g><g><g><path d="M48.732,24.962c0.006,-0.027 0.017,-0.05 0.034,-0.072c0.012,-0.023 0.029,-0.046 0.052,-0.065c0.017,-0.023 0.045,-0.042 0.068,-0.057c0.058,-0.038 0.121,-0.065 0.19,-0.084c0.138,-0.038 0.299,-0.039 0.437,-0.002c0.075,0.019 0.133,0.045 0.191,0.082c0.023,0.015 0.046,0.034 0.069,0.057c0.023,0.019 0.041,0.041 0.052,0.064c0.017,0.022 0.029,0.045 0.035,0.072c0.006,0.022 0.012,0.049 0.012,0.071c-0,0.027 -0.006,0.05 -0.012,0.076c-0.005,0.023 -0.016,0.049 -0.034,0.072c-0.011,0.023 -0.028,0.042 -0.051,0.065c-0.023,0.019 -0.046,0.038 -0.069,0.057c-0.057,0.034 -0.115,0.065 -0.189,0.084c-0.069,0.019 -0.144,0.027 -0.219,0.027c-0.075,0.001 -0.15,-0.007 -0.219,-0.025c-0.069,-0.019 -0.132,-0.049 -0.19,-0.083c-0.104,-0.071 -0.168,-0.165 -0.168,-0.267c-0,-0.023 0.005,-0.05 0.011,-0.072Z" style="fill:#4c545d;fill-rule:nonzero;"/></g></g><g><g><path d="M76.664,21.284c0.041,-0.065 0.098,-0.125 0.172,-0.174c0.189,-0.13 0.476,-0.186 0.748,-0.154c0.05,0.01 0.099,0.015 0.148,0.031c0.05,0.011 0.099,0.032 0.148,0.048c0.042,0.022 0.083,0.043 0.124,0.07c0.075,0.048 0.132,0.107 0.174,0.172c0.041,0.065 0.066,0.135 0.066,0.205c0.001,0.076 -0.023,0.141 -0.064,0.211c-0.041,0.065 -0.098,0.125 -0.172,0.174c-0.041,0.027 -0.082,0.049 -0.123,0.071c-0.05,0.016 -0.099,0.033 -0.148,0.049c-0.049,0.011 -0.099,0.022 -0.148,0.028c-0.057,0.011 -0.115,0.011 -0.165,0.012c-0.213,0.001 -0.428,-0.053 -0.584,-0.155c-0.074,-0.048 -0.132,-0.107 -0.174,-0.172c-0.041,-0.07 -0.066,-0.135 -0.067,-0.21c-0,-0.071 0.025,-0.141 0.065,-0.206Z" style="fill:#4c545d;fill-rule:nonzero;"/></g></g><g><g><path d="M50.016,36.429c0.008,-0.037 0.023,-0.069 0.047,-0.1c0.016,-0.032 0.04,-0.063 0.072,-0.09c0.031,-0.032 0.063,-0.058 0.095,-0.079c0.08,-0.053 0.167,-0.09 0.263,-0.117c0.144,-0.042 0.303,-0.053 0.463,-0.033c0.048,0.01 0.096,0.015 0.144,0.03c0.048,0.011 0.096,0.032 0.144,0.047c0.04,0.021 0.08,0.042 0.12,0.068c0.145,0.094 0.233,0.23 0.234,0.366c-0,0.074 -0.024,0.137 -0.063,0.205c-0.04,0.063 -0.095,0.121 -0.167,0.169c-0.04,0.026 -0.08,0.048 -0.12,0.063c-0.048,0.022 -0.096,0.038 -0.143,0.054c-0.048,0.01 -0.096,0.021 -0.144,0.027c-0.056,0.011 -0.112,0.011 -0.16,0.011c-0.207,0.001 -0.415,-0.051 -0.568,-0.15c-0.144,-0.099 -0.232,-0.235 -0.233,-0.371c-0,-0.032 0.008,-0.069 0.016,-0.1Z" style="fill:#4c545d;fill-rule:nonzero;"/></g></g><g><g><path d="M30.011,39.931c0.006,-0.027 0.017,-0.049 0.034,-0.072c0.012,-0.022 0.029,-0.045 0.052,-0.064c0.022,-0.023 0.045,-0.042 0.068,-0.057c0.057,-0.038 0.12,-0.065 0.189,-0.084c0.103,-0.03 0.217,-0.038 0.332,-0.024c0.035,0.008 0.069,0.011 0.104,0.022c0.034,0.008 0.069,0.023 0.103,0.034c0.029,0.015 0.057,0.03 0.086,0.048c0.104,0.068 0.167,0.165 0.168,0.263c-0,0.053 -0.017,0.098 -0.045,0.147c-0.029,0.046 -0.069,0.087 -0.121,0.122c-0.028,0.018 -0.056,0.034 -0.085,0.045c-0.035,0.015 -0.069,0.027 -0.103,0.038c-0.034,0.008 -0.069,0.016 -0.103,0.02c-0.04,0.007 -0.081,0.008 -0.115,0.008c-0.149,0 -0.298,-0.037 -0.407,-0.108c-0.104,-0.071 -0.168,-0.168 -0.168,-0.266c-0,-0.023 0.006,-0.05 0.011,-0.072Z" style="fill:#4c545d;fill-rule:nonzero;"/></g></g><g><g><path d="M87.03,48.056c1.306,0.206 2.385,0.951 3.206,2.215c2.742,4.219 5.413,5.059 5.433,5.065c0.288,0.081 0.503,0.315 0.538,0.586c0.035,0.27 -0.119,0.519 -0.384,0.621c-0.76,0.294 -7.502,2.791 -10.233,-0.054l-4.901,-5.108c-0.003,-0.004 -0.005,-0.007 -0.009,-0.011c-0.028,-0.03 -0.054,-0.062 -0.076,-0.095c-0.018,-0.028 -0.033,-0.057 -0.046,-0.087c-0.004,-0.008 -0.007,-0.016 -0.011,-0.024c-0.01,-0.025 -0.019,-0.05 -0.026,-0.076c-0.001,-0.005 -0.003,-0.01 -0.004,-0.016c-0.007,-0.027 -0.012,-0.055 -0.015,-0.083c-0,-0.003 0.001,-0.005 0,-0.008c-0.003,-0.038 -0.003,-0.077 0.001,-0.115c0.002,-0.012 0.005,-0.023 0.007,-0.034c0.005,-0.027 0.01,-0.053 0.019,-0.078c0.004,-0.014 0.01,-0.028 0.016,-0.041c0.009,-0.022 0.019,-0.043 0.031,-0.064c0.007,-0.013 0.015,-0.026 0.024,-0.039c0.013,-0.019 0.028,-0.037 0.043,-0.055c0.011,-0.012 0.021,-0.023 0.032,-0.034c0.005,-0.005 0.008,-0.01 0.013,-0.014c0.133,-0.12 3.271,-2.935 6.342,-2.451Zm-3.932,2.378c5.112,0.606 6.582,3.818 6.65,3.971c0.147,0.337 -0.025,0.7 -0.385,0.81c-0.359,0.109 -0.768,-0.074 -0.918,-0.413c-0.011,-0.027 -1.224,-2.677 -5.666,-3.12l3.84,4.002c1.378,1.436 4.92,0.799 7.192,0.132c-1.215,-0.756 -2.995,-2.219 -4.771,-4.952c-0.586,-0.902 -1.288,-1.406 -2.145,-1.542c-1.325,-0.21 -2.771,0.467 -3.797,1.112Z" style="fill:#4c545d;fill-rule:nonzero;"/></g></g><g><g><path d="M47.549,45.502c-0.185,0.502 -0.67,0.888 -1.441,1.147c-2.573,0.866 -3.194,1.872 -3.198,1.879c-0.062,0.109 -0.208,0.182 -0.366,0.182c-0.158,0 -0.293,-0.072 -0.338,-0.181c-0.131,-0.313 -1.225,-3.08 0.555,-4.009l3.196,-1.669c0.002,-0.001 0.005,-0.002 0.007,-0.003c0.019,-0.009 0.038,-0.018 0.059,-0.025c0.017,-0.006 0.034,-0.01 0.052,-0.014c0.005,-0.001 0.01,-0.002 0.014,-0.003c0.015,-0.003 0.03,-0.005 0.046,-0.006c0.003,-0.001 0.006,-0.001 0.009,-0.001c0.016,-0.002 0.032,-0.002 0.049,-0.002c0.001,0 0.003,0 0.004,0c0.023,0.001 0.045,0.003 0.067,0.007c0.006,0.001 0.012,0.003 0.019,0.004c0.015,0.003 0.03,0.007 0.044,0.011c0.008,0.003 0.015,0.005 0.023,0.008c0.012,0.005 0.024,0.01 0.035,0.016c0.007,0.003 0.014,0.007 0.021,0.011c0.01,0.006 0.02,0.013 0.03,0.02c0.006,0.005 0.012,0.009 0.018,0.014c0.002,0.002 0.005,0.004 0.007,0.006c0.063,0.058 1.525,1.428 1.088,2.608Zm-1.169,-1.66c-0.611,1.975 -2.539,2.392 -2.63,2.411c-0.202,0.041 -0.403,-0.044 -0.448,-0.191c-0.044,-0.146 0.082,-0.298 0.285,-0.339c0.017,-0.004 1.606,-0.348 2.089,-2.068l-2.503,1.308c-0.899,0.469 -0.713,1.889 -0.445,2.813c0.498,-0.439 1.433,-1.064 3.099,-1.625c0.55,-0.185 0.877,-0.435 0.999,-0.765c0.189,-0.509 -0.127,-1.109 -0.446,-1.544Z" style="fill:#4c545d;fill-rule:nonzero;"/></g></g><g><g><path d="M43.605,22.561c-0.111,-0.398 -0.463,-0.718 -1.047,-0.951c-1.95,-0.778 -2.367,-1.586 -2.37,-1.592c-0.041,-0.087 -0.149,-0.15 -0.273,-0.156c-0.123,-0.007 -0.233,0.044 -0.276,0.127c-0.123,0.238 -1.164,2.348 0.163,3.143l2.381,1.428c0.002,0.001 0.004,0.001 0.006,0.002c0.014,0.008 0.028,0.016 0.044,0.022c0.013,0.005 0.026,0.01 0.04,0.013c0.003,0.001 0.007,0.002 0.011,0.003c0.011,0.003 0.023,0.005 0.035,0.007c0.002,0 0.004,0.001 0.007,0.001c0.012,0.002 0.025,0.003 0.038,0.003c0.001,0 0.002,0 0.003,0c0.018,0.001 0.035,-0 0.053,-0.002c0.005,-0.001 0.01,-0.002 0.015,-0.003c0.012,-0.001 0.023,-0.003 0.035,-0.006c0.006,-0.002 0.012,-0.004 0.018,-0.006c0.01,-0.003 0.02,-0.007 0.029,-0.011c0.006,-0.002 0.011,-0.005 0.017,-0.008c0.008,-0.004 0.016,-0.009 0.024,-0.014c0.006,-0.003 0.011,-0.006 0.016,-0.01c0.002,-0.002 0.004,-0.003 0.006,-0.004c0.052,-0.043 1.286,-1.05 1.025,-1.986Zm-1.025,1.244c-0.343,-1.561 -1.819,-1.964 -1.89,-1.982c-0.155,-0.04 -0.317,0.018 -0.362,0.13c-0.044,0.113 0.044,0.235 0.2,0.276c0.013,0.003 1.23,0.336 1.491,1.693l-1.866,-1.118c-0.67,-0.401 -0.429,-1.5 -0.157,-2.208c0.359,0.362 1.046,0.887 2.309,1.39c0.417,0.167 0.655,0.374 0.728,0.636c0.113,0.403 -0.174,0.858 -0.453,1.183Z" style="fill:#4c545d;fill-rule:nonzero;"/></g></g><g><g><path d="M76.067,34.622c0.68,0.132 1.39,-0.036 2.113,-0.5c2.411,-1.548 3.909,-1.481 3.921,-1.48c0.159,0.012 0.323,-0.063 0.41,-0.187c0.087,-0.125 0.078,-0.271 -0.022,-0.368c-0.288,-0.276 -2.869,-2.671 -4.918,-1.783l-3.677,1.595c-0.003,0.001 -0.005,0.002 -0.008,0.004c-0.021,0.009 -0.041,0.02 -0.061,0.032c-0.015,0.01 -0.03,0.022 -0.045,0.034c-0.003,0.003 -0.007,0.006 -0.011,0.009c-0.011,0.01 -0.022,0.021 -0.032,0.032c-0.002,0.003 -0.004,0.005 -0.006,0.007c-0.011,0.012 -0.02,0.024 -0.029,0.038c-0.001,0.001 -0.001,0.002 -0.002,0.003c-0.012,0.018 -0.022,0.037 -0.029,0.056c-0.003,0.006 -0.004,0.012 -0.006,0.018c-0.005,0.013 -0.009,0.027 -0.011,0.041c-0.002,0.007 -0.003,0.015 -0.003,0.022c-0.002,0.012 -0.002,0.024 -0.002,0.037c0,0.007 0.001,0.015 0.001,0.022c0.002,0.012 0.004,0.023 0.007,0.035c0.002,0.007 0.004,0.015 0.006,0.022c0.001,0.003 0.001,0.006 0.003,0.009c0.032,0.081 0.804,1.992 2.401,2.302Zm-1.265,-1.841c2.607,0.612 4.147,-0.676 4.219,-0.738c0.159,-0.136 0.171,-0.341 0.027,-0.458c-0.144,-0.116 -0.388,-0.1 -0.548,0.037c-0.012,0.011 -1.283,1.073 -3.526,0.501l2.88,-1.249c1.034,-0.448 2.566,0.485 3.482,1.208c-0.779,0.15 -2.013,0.54 -3.575,1.542c-0.516,0.331 -0.983,0.45 -1.429,0.364c-0.69,-0.133 -1.206,-0.715 -1.53,-1.207Z" style="fill:#4c545d;fill-rule:nonzero;"/></g></g><g><g><path d="M63.745,23.138c0.063,0.009 0.125,0.028 0.182,0.058c0.241,0.129 0.363,0.434 0.264,0.656c-0.047,0.106 -0.142,0.188 -0.258,0.22c-0.121,0.034 -0.253,0.014 -0.372,-0.046c-0.12,-0.065 -0.213,-0.172 -0.262,-0.293c-0.048,-0.12 -0.052,-0.252 -0.002,-0.363c0.023,-0.053 0.059,-0.099 0.104,-0.137c0.047,-0.044 0.101,-0.069 0.159,-0.085c0.058,-0.016 0.12,-0.023 0.185,-0.01Z" style="fill:#4c545d;fill-rule:nonzero;"/></g></g><g><g><path d="M71.456,15.076c0.053,-0.006 0.102,-0.003 0.153,0.007c0.049,0.003 0.101,0.013 0.148,0.033c0.055,0.017 0.102,0.037 0.142,0.059c0.051,0.027 0.094,0.056 0.137,0.084c0.04,0.039 0.086,0.075 0.118,0.115c0.039,0.039 0.064,0.081 0.096,0.121c0.141,0.232 0.17,0.501 0.071,0.725c-0.075,0.168 -0.227,0.3 -0.412,0.351c-0.1,0.027 -0.194,0.029 -0.301,0.018c-0.101,-0.014 -0.2,-0.044 -0.291,-0.092c-0.093,-0.056 -0.183,-0.122 -0.254,-0.2c-0.072,-0.079 -0.124,-0.17 -0.163,-0.266c-0.018,-0.045 -0.039,-0.096 -0.045,-0.151c-0.011,-0.047 -0.014,-0.095 -0.018,-0.143c0.004,-0.05 0.007,-0.1 0.011,-0.15c0.013,-0.045 0.027,-0.089 0.048,-0.136c0.082,-0.169 0.227,-0.3 0.419,-0.353c0.043,-0.011 0.096,-0.018 0.141,-0.022Z" style="fill:#4c545d;fill-rule:nonzero;"/></g></g><g><g><path d="M73.692,2.27c0.033,-0.004 0.062,-0.002 0.094,0.004c0.029,0.002 0.061,0.009 0.09,0.021c0.032,0.006 0.062,0.022 0.087,0.036c0.062,0.033 0.112,0.074 0.156,0.122c0.087,0.096 0.138,0.222 0.138,0.342c0.002,0.064 -0.011,0.118 -0.036,0.175c-0.01,0.022 -0.025,0.046 -0.044,0.072c-0.014,0.024 -0.035,0.045 -0.057,0.061c-0.021,0.02 -0.043,0.037 -0.072,0.049c-0.024,0.012 -0.053,0.025 -0.079,0.032c-0.031,0.008 -0.059,0.011 -0.091,0.015c-0.028,0.003 -0.062,0.002 -0.093,-0.004c-0.03,-0.002 -0.057,-0.009 -0.091,-0.02c-0.029,-0.012 -0.058,-0.024 -0.087,-0.036c-0.057,-0.034 -0.11,-0.07 -0.155,-0.122c-0.044,-0.048 -0.076,-0.104 -0.1,-0.163c-0.024,-0.059 -0.038,-0.119 -0.038,-0.18c-0,-0.06 0.015,-0.119 0.035,-0.174c0.051,-0.104 0.139,-0.184 0.257,-0.216c0.026,-0.007 0.058,-0.011 0.086,-0.014Z" style="fill:#4c545d;fill-rule:nonzero;"/></g></g><g><g><path d="M86.592,23.004c0.087,0.012 0.174,0.038 0.253,0.08c0.209,0.107 0.362,0.315 0.41,0.538c0.003,0.042 0.013,0.082 0.01,0.126c0.003,0.042 -0.006,0.087 -0.01,0.131c-0.011,0.039 -0.023,0.078 -0.042,0.119c-0.032,0.073 -0.082,0.137 -0.144,0.19c-0.062,0.053 -0.135,0.094 -0.216,0.116c-0.087,0.024 -0.169,0.026 -0.263,0.016c-0.088,-0.012 -0.174,-0.038 -0.254,-0.081c-0.044,-0.023 -0.081,-0.048 -0.119,-0.074c-0.034,-0.033 -0.069,-0.067 -0.103,-0.1c-0.028,-0.035 -0.056,-0.07 -0.078,-0.107c-0.03,-0.042 -0.049,-0.087 -0.064,-0.126c-0.068,-0.167 -0.073,-0.351 -0.004,-0.506c0.033,-0.073 0.083,-0.137 0.145,-0.19c0.068,-0.054 0.135,-0.094 0.221,-0.118c0.081,-0.023 0.17,-0.025 0.258,-0.014Z" style="fill:#4c545d;fill-rule:nonzero;"/></g></g><g><g><path d="M60.843,3.635c0.045,-0.005 0.086,-0.002 0.13,0.006c0.041,0.003 0.085,0.012 0.125,0.028c0.046,0.015 0.086,0.032 0.121,0.05c0.085,0.046 0.155,0.103 0.216,0.17c0.093,0.099 0.156,0.22 0.182,0.352c0.003,0.041 0.012,0.08 0.009,0.123c0.003,0.04 -0.006,0.085 -0.009,0.127c-0.011,0.038 -0.023,0.076 -0.041,0.115c-0.063,0.143 -0.192,0.255 -0.349,0.298c-0.085,0.023 -0.165,0.025 -0.256,0.015c-0.085,-0.011 -0.169,-0.037 -0.246,-0.078c-0.043,-0.023 -0.08,-0.047 -0.11,-0.074c-0.04,-0.031 -0.073,-0.063 -0.106,-0.095c-0.027,-0.034 -0.055,-0.069 -0.076,-0.105c-0.03,-0.04 -0.047,-0.084 -0.063,-0.121c-0.065,-0.163 -0.07,-0.342 -0.003,-0.492c0.069,-0.144 0.199,-0.256 0.356,-0.299c0.036,-0.01 0.081,-0.016 0.12,-0.02Z" style="fill:#4c545d;fill-rule:nonzero;"/></g></g><g><g><path d="M68.437,30.502c0.032,-0.004 0.062,-0.002 0.093,0.004c0.03,0.002 0.061,0.008 0.09,0.02c0.034,0.011 0.062,0.023 0.087,0.036c0.061,0.033 0.112,0.074 0.155,0.122c0.067,0.071 0.112,0.158 0.131,0.253c0.002,0.029 0.009,0.057 0.007,0.088c0.002,0.029 -0.005,0.061 -0.007,0.091c-0.008,0.027 -0.017,0.055 -0.029,0.083c-0.046,0.102 -0.139,0.182 -0.251,0.213c-0.061,0.017 -0.118,0.018 -0.184,0.011c-0.061,-0.008 -0.121,-0.026 -0.177,-0.056c-0.03,-0.016 -0.057,-0.034 -0.079,-0.053c-0.028,-0.022 -0.052,-0.045 -0.076,-0.068c-0.019,-0.025 -0.039,-0.049 -0.054,-0.075c-0.021,-0.029 -0.034,-0.061 -0.045,-0.087c-0.047,-0.117 -0.05,-0.246 -0.002,-0.353c0.049,-0.104 0.142,-0.184 0.255,-0.215c0.026,-0.007 0.058,-0.011 0.086,-0.014Z" style="fill:#4c545d;fill-rule:nonzero;"/></g></g></svg>