<?xml version="1.0" encoding="UTF-8" standalone="no"?><!DOCTYPE svg PUBLIC "-//W3C//DTD SVG 1.1//EN" "http://www.w3.org/Graphics/SVG/1.1/DTD/svg11.dtd"><svg width="100%" height="100%" viewBox="0 0 100 100" version="1.1" xmlns="http://www.w3.org/2000/svg" xmlns:xlink="http://www.w3.org/1999/xlink" xml:space="preserve" xmlns:serif="http://www.serif.com/" style="fill-rule:evenodd;clip-rule:evenodd;stroke-linecap:round;stroke-linejoin:round;stroke-miterlimit:1.5;"><g><path d="M35.867,14.161c7.387,-3.83 15.074,-3.695 19.097,0.97c0.757,0.877 1.345,1.87 1.768,2.948c0.932,-0.201 1.898,-0.301 2.889,-0.301c7.937,-0 14.379,6.619 14.379,14.777c0,8.158 -6.442,14.778 -14.379,14.778l-0.196,-0c-1.359,7.156 -9.496,12.667 -19.321,12.667c-9.145,0 -16.825,-4.773 -18.943,-11.199c-6.59,6.89 -15.177,3.706 -19.208,-1.009c-0.753,-0.877 -1.334,-1.874 -1.747,-2.952c-0.935,0.193 -1.905,0.29 -2.892,0.286c-7.941,-0.043 -14.348,-6.697 -14.314,-14.851c0.038,-8.158 6.514,-14.746 14.451,-14.704l0.196,0c1.39,-7.149 9.554,-12.621 19.384,-12.571c9.072,0.047 16.69,4.788 18.836,11.161Z" style="fill:#fff;"/><path d="M58.438,50.296c-2.738,5.66 -9.917,9.704 -18.334,9.704c-9.145,0 -16.825,-4.773 -18.943,-11.199c-6.59,6.89 -15.177,3.706 -19.208,-1.009c-0.753,-0.877 -1.334,-1.874 -1.747,-2.952c-0.935,0.193 -1.905,0.29 -2.892,0.286c-7.941,-0.043 -14.348,-6.697 -14.314,-14.851c0.038,-8.158 6.514,-14.746 14.451,-14.704l0.196,0c1.39,-7.149 9.554,-12.621 19.384,-12.571c9.072,0.047 16.69,4.788 18.836,11.161c7.387,-3.83 15.074,-3.695 19.097,0.97c0.757,0.877 1.345,1.87 1.768,2.948c0.932,-0.201 1.898,-0.301 2.889,-0.301c7.937,-0 14.379,6.619 14.379,14.777c0,8.158 -6.442,14.778 -14.379,14.778l-0.196,-0c-0.107,0.561 -0.255,1.112 -0.443,1.651c-0.488,-1.847 -1.008,-4.776 0.597,-4.776l0.042,0.001l-0,-0.001c6.237,-0 11.254,-5.243 11.254,-11.653c0,-6.409 -5.017,-11.653 -11.254,-11.653c-0.765,0 -1.511,0.076 -2.23,0.232c-1.498,0.322 -3.008,-0.488 -3.568,-1.914c-0.293,-0.748 -0.699,-1.439 -1.225,-2.048c-3.218,-3.731 -9.384,-3.301 -15.293,-0.237c-0.81,0.419 -1.763,0.464 -2.608,0.123c-0.846,-0.342 -1.5,-1.036 -1.791,-1.9c-1.792,-5.32 -8.317,-8.994 -15.891,-9.033c-8.146,-0.042 -15.149,4.118 -16.3,10.042c-0.286,1.469 -1.572,2.529 -3.068,2.529l-0.212,-0c-6.236,-0.034 -11.28,5.184 -11.31,11.593c-0.027,6.407 4.964,11.678 11.203,11.712c0.767,0.003 1.52,-0.071 2.246,-0.221c1.5,-0.31 3.003,0.513 3.55,1.943c0.284,0.742 0.682,1.43 1.2,2.034c0.001,0.002 0.003,0.003 0.004,0.005c3.06,3.579 9.573,6.109 14.575,0.879c0.758,-0.793 1.877,-1.13 2.947,-0.888c1.07,0.242 1.935,1.028 2.278,2.07c1.768,5.362 8.345,9.052 15.976,9.052c8.143,0 15.125,-4.194 16.251,-10.125c-0.173,0.914 0.07,1.858 0.663,2.575c0.377,0.456 0.871,0.789 1.42,0.971Z" style="fill:#d3d3d3;"/><path d="M9.336,23.132c0.853,-6.444 6.917,-9.105 12.272,-8.076c4.885,0.938 9.179,4.946 8.391,11.952" style="fill:#fff;stroke:#d3d3d3;stroke-width:3px;"/><path d="M59.114,34.403c4.124,6.906 -3.844,14.838 -10.185,11.845" style="fill:#fff;stroke:#d3d3d3;stroke-width:3px;"/><path d="M1.911,32c-0.236,-8.119 10.498,-10.654 14.544,-4.7" style="fill:#fff;stroke:#d3d3d3;stroke-width:3px;"/><path d="M51.673,14.441c7.113,4.936 3.234,15.75 -4.167,15.455" style="fill:#fff;stroke:#d3d3d3;stroke-width:3px;"/></g><g><path d="M74.851,51.277c-8.411,4.063 -17.143,3.88 -21.692,-1.135c-0.855,-0.943 -1.519,-2.01 -1.994,-3.167c-1.06,0.211 -2.158,0.314 -3.284,0.309c-9.017,-0.041 -16.304,-7.162 -16.265,-15.897c0.039,-8.735 7.389,-15.79 16.407,-15.75l0.222,0.001c1.578,-7.657 10.849,-13.516 22.012,-13.466c10.389,0.046 19.091,5.196 21.467,12.088c7.52,-7.344 17.261,-3.892 21.817,1.177c0.852,0.943 1.507,2.014 1.971,3.17c1.064,-0.202 2.166,-0.3 3.287,-0.291c9.022,0.085 16.269,7.243 16.191,15.974c-0.082,8.735 -7.47,15.757 -16.488,15.672l-0.223,-0.001c-1.612,7.648 -10.914,13.466 -22.081,13.362c-10.307,-0.096 -18.939,-5.212 -21.347,-12.046Z" style="fill:#fff;"/><path d="M117.095,53.186c-3.19,5.998 -11.364,10.225 -20.897,10.137c-10.307,-0.096 -18.939,-5.212 -21.347,-12.046c-8.411,4.063 -17.143,3.88 -21.692,-1.135c-0.855,-0.943 -1.519,-2.01 -1.994,-3.167c-1.06,0.211 -2.158,0.314 -3.284,0.309c-9.017,-0.041 -16.304,-7.162 -16.265,-15.897c0.039,-8.735 7.389,-15.79 16.407,-15.75l0.222,0.001c1.578,-7.657 10.849,-13.516 22.012,-13.466c10.389,0.046 19.091,5.196 21.467,12.088c7.52,-7.344 17.261,-3.892 21.817,1.177c0.852,0.943 1.507,2.014 1.971,3.17c1.064,-0.202 2.166,-0.3 3.287,-0.291c9.022,0.085 16.269,7.243 16.191,15.974c-0.082,8.735 -7.47,15.757 -16.488,15.672l-0.223,-0.001c-0.159,0.754 -0.393,1.491 -0.697,2.205c-1.032,-1.981 -2.51,-5.657 0.719,-5.643c0.09,0.001 0.167,0.043 0.233,0.122l0.001,-0.121c7.09,0.068 12.953,-5.397 13.018,-12.265c0.061,-6.865 -5.691,-12.437 -12.784,-12.506c-0.892,-0.007 -1.769,0.07 -2.615,0.231c-1.615,0.307 -3.221,-0.572 -3.832,-2.098c-0.314,-0.782 -0.756,-1.507 -1.332,-2.145c-0.002,-0.002 -0.003,-0.004 -0.005,-0.006c-3.522,-3.918 -11.046,-6.693 -16.859,-1.016c-0.843,0.823 -2.048,1.157 -3.194,0.886c-1.146,-0.272 -2.074,-1.111 -2.457,-2.225c-1.996,-5.787 -9.51,-9.732 -18.234,-9.771c-5.816,-0.026 -11.061,1.731 -14.606,4.629c-2.07,1.691 -3.543,3.764 -4.023,6.094c-0.329,1.597 -1.736,2.743 -3.367,2.743l-0.238,-0.001c-7.09,-0.031 -12.923,5.46 -12.954,12.329c-0.03,6.868 5.753,12.411 12.844,12.443c0.89,0.004 1.76,-0.076 2.598,-0.242c1.612,-0.32 3.225,0.545 3.849,2.065c0.325,0.79 0.777,1.519 1.361,2.163c3.698,4.076 10.815,3.652 17.651,0.35c0.881,-0.426 1.901,-0.456 2.806,-0.083c0.904,0.373 1.607,1.113 1.932,2.036c2.022,5.741 9.477,9.67 18.136,9.751c5.818,0.054 11.074,-1.679 14.633,-4.56c2.079,-1.682 3.562,-3.748 4.053,-6.075c-0.214,1.014 0.041,2.07 0.694,2.875c0.395,0.487 0.91,0.85 1.485,1.06Z" style="fill:#d3d3d3;"/><path d="M61.682,24.279c5.116,-10.983 21.775,-8.728 23.421,1.363" style="fill:#fff;stroke:#d3d3d3;stroke-width:3px;"/><path d="M81.286,26.183c7.463,-5.162 17.062,3.287 14.195,10.678" style="fill:#fff;stroke:#d3d3d3;stroke-width:3px;"/><path d="M56.895,50.897c-8.057,-5.321 -3.599,-16.882 4.809,-16.528" style="fill:#fff;stroke:#d3d3d3;stroke-width:3px;"/></g><g><path d="M42.067,67.919c-7.956,3.958 -16.234,3.818 -20.567,-1.002c-0.815,-0.907 -1.448,-1.933 -1.904,-3.047c-1.003,0.208 -2.044,0.311 -3.111,0.311c-8.548,0 -15.485,-6.841 -15.485,-15.271c-0,-8.431 6.937,-15.272 15.485,-15.272l0.211,-0c1.463,-7.397 10.226,-13.091 20.808,-13.091c9.848,-0 18.118,4.932 20.4,11.573c7.096,-7.12 16.344,-3.83 20.685,1.043c0.811,0.906 1.437,1.936 1.881,3.051c1.008,-0.2 2.052,-0.3 3.115,-0.296c8.552,0.044 15.452,6.921 15.415,15.348c-0.041,8.43 -7.015,15.24 -15.563,15.196l-0.211,-0c-1.496,7.388 -10.289,13.043 -20.874,12.991c-9.771,-0.048 -17.974,-4.948 -20.285,-11.534Z" style="fill:#fff;"/><path d="M82.126,69.562c-2.991,5.812 -10.728,9.935 -19.774,9.891c-9.771,-0.048 -17.974,-4.948 -20.285,-11.534c-7.956,3.958 -16.234,3.818 -20.567,-1.002c-0.815,-0.907 -1.448,-1.933 -1.904,-3.047c-1.003,0.208 -2.044,0.311 -3.111,0.311c-8.548,0 -15.485,-6.841 -15.485,-15.271c-0,-8.431 6.937,-15.272 15.485,-15.272l0.211,-0c1.463,-7.397 10.226,-13.091 20.808,-13.091c9.848,-0 18.118,4.932 20.4,11.573c7.096,-7.12 16.344,-3.83 20.685,1.043c0.811,0.906 1.437,1.936 1.881,3.051c1.008,-0.2 2.052,-0.3 3.115,-0.296c8.552,0.044 15.452,6.921 15.415,15.348c-0.041,8.43 -7.015,15.24 -15.563,15.196l-0.211,-0c-0.116,0.573 -0.276,1.136 -0.478,1.687c-0.51,-1.947 -1.032,-4.977 0.643,-4.977l0.063,0.002l-0,-0.002c6.719,0.034 12.224,-5.295 12.256,-11.921c0.029,-6.624 -5.417,-12.007 -12.14,-12.043c-0.839,-0.003 -1.664,0.075 -2.46,0.233c-1.555,0.308 -3.108,-0.536 -3.695,-2.008c-0.303,-0.758 -0.726,-1.46 -1.278,-2.077c-0.002,-0.002 -0.003,-0.003 -0.005,-0.005c-3.337,-3.746 -10.442,-6.383 -15.898,-0.908c-0.802,0.804 -1.962,1.138 -3.069,0.883c-1.107,-0.255 -2.004,-1.063 -2.373,-2.137c-1.912,-5.566 -9.035,-9.353 -17.288,-9.353c-8.801,0 -16.364,4.289 -17.58,10.44c-0.305,1.541 -1.657,2.652 -3.228,2.652l-0.211,-0c-6.719,-0 -12.195,5.354 -12.195,11.982c-0,6.627 5.476,11.981 12.195,11.981c0.838,0 1.656,-0.08 2.445,-0.243c1.552,-0.321 3.112,0.51 3.711,1.977c0.313,0.765 0.746,1.47 1.306,2.093c3.505,3.899 10.219,3.457 16.654,0.256c0.845,-0.42 1.83,-0.458 2.704,-0.103c0.874,0.355 1.553,1.069 1.866,1.959c1.938,5.522 9.004,9.293 17.197,9.333c8.804,0.043 16.389,-4.209 17.633,-10.354c-0.196,0.967 0.053,1.971 0.678,2.735c0.385,0.471 0.887,0.82 1.447,1.018Z" style="fill:#d3d3d3;"/><path d="M54.999,46.957c5.351,-12.493 27.714,-4.925 21.658,10.049" style="fill:#fff;stroke:#d3d3d3;stroke-width:3px;"/><path d="M17.031,47c-4.441,-7.137 4.14,-15.335 10.969,-12.241" style="fill:#fff;stroke:#d3d3d3;stroke-width:3px;"/><path d="M43.29,53c1.984,-8.169 13.846,-7.785 16.42,-0.743" style="fill:#fff;stroke:#d3d3d3;stroke-width:3px;"/><path d="M25.044,67.629c-7.659,-5.1 -3.483,-16.276 4.488,-15.971" style="fill:#fff;stroke:#d3d3d3;stroke-width:3px;"/></g></svg>