<?xml version="1.0" encoding="UTF-8" standalone="no"?><!DOCTYPE svg PUBLIC "-//W3C//DTD SVG 1.1//EN" "http://www.w3.org/Graphics/SVG/1.1/DTD/svg11.dtd"><svg width="100%" height="100%" viewBox="0 0 100 100" version="1.1" xmlns="http://www.w3.org/2000/svg" xmlns:xlink="http://www.w3.org/1999/xlink" xml:space="preserve" xmlns:serif="http://www.serif.com/" style="fill-rule:evenodd;clip-rule:evenodd;stroke-linejoin:round;stroke-miterlimit:2;"><path d="M50,6.5c0,0 -28.71,30.34 -28.71,58.29c-0,15.845 12.865,28.71 28.71,28.71c15.845,0 28.71,-12.865 28.71,-28.71c-0,-27.95 -28.71,-58.29 -28.71,-58.29Zm4.627,52.081c-0,-2.789 0.612,-4.857 1.837,-6.202c1.225,-1.345 2.9,-2.018 5.024,-2.018c2.138,0 3.819,0.673 5.044,2.018c1.225,1.345 1.837,3.413 1.837,6.202c0,2.804 -0.612,4.878 -1.837,6.223c-1.225,1.346 -2.885,2.018 -4.981,2.018c-2.166,0 -3.862,-0.672 -5.087,-2.018c-1.225,-1.345 -1.837,-3.419 -1.837,-6.223Zm-9.643,8.178l-4.418,-0l16.589,-32.859l4.29,-0l-16.461,32.859Zm14.295,-8.199c-0,2.025 0.233,3.377 0.701,4.057c0.354,0.524 0.842,0.786 1.465,0.786c0.637,-0 1.126,-0.255 1.466,-0.765c0.467,-0.694 0.701,-2.053 0.701,-4.078c-0,-2.025 -0.227,-3.384 -0.68,-4.078c-0.354,-0.51 -0.85,-0.765 -1.487,-0.765c-0.637,0 -1.126,0.255 -1.465,0.765c-0.468,0.694 -0.701,2.053 -0.701,4.078Zm-25.659,-16.44c0,-2.79 0.613,-4.857 1.838,-6.202c1.225,-1.345 2.885,-2.018 4.98,-2.018c2.167,-0 3.863,0.669 5.088,2.007c1.224,1.338 1.837,3.409 1.837,6.213c-0,2.789 -0.613,4.857 -1.837,6.202c-1.225,1.345 -2.886,2.018 -4.981,2.018c-2.167,-0 -3.862,-0.669 -5.087,-2.007c-1.225,-1.338 -1.838,-3.409 -1.838,-6.213Zm4.652,-0.043c-0,2.025 0.234,3.385 0.701,4.079c0.354,0.509 0.842,0.764 1.465,0.764c0.638,0 1.133,-0.255 1.487,-0.764c0.453,-0.694 0.68,-2.054 0.68,-4.079c-0,-2.025 -0.227,-3.377 -0.68,-4.056c-0.354,-0.524 -0.849,-0.786 -1.487,-0.786c-0.623,-0 -1.111,0.255 -1.465,0.764c-0.467,0.694 -0.701,2.053 -0.701,4.078Z" style="fill:#161716;"/><path d="M50,0c27.596,0 50,22.404 50,50c0,27.596 -22.404,50 -50,50c-27.596,0 -50,-22.404 -50,-50c-0,-27.596 22.404,-50 50,-50Zm-0,4c25.388,-0 46,20.612 46,46c-0,25.388 -20.612,46 -46,46c-25.388,0 -46,-20.612 -46,-46c-0,-25.388 20.612,-46 46,-46Z" style="fill:#161716;"/><text x="90px" y="-14.104px" style="font-family:'Arial-BoldMT', 'Arial', sans-serif;font-weight:700;font-size:50px;">%</text></svg>