<?xml version="1.0" encoding="UTF-8" standalone="no"?><!DOCTYPE svg PUBLIC "-//W3C//DTD SVG 1.1//EN" "http://www.w3.org/Graphics/SVG/1.1/DTD/svg11.dtd"><svg width="100%" height="100%" viewBox="0 0 800 800" version="1.1" xmlns="http://www.w3.org/2000/svg" xmlns:xlink="http://www.w3.org/1999/xlink" xml:space="preserve" xmlns:serif="http://www.serif.com/" style="fill-rule:evenodd;clip-rule:evenodd;stroke-linejoin:round;stroke-miterlimit:2;"><g id="SVGRepo_bgCarrier"><path d="M800,400c0,-220.766 -179.234,-400 -400,-400c-220.766,0 -400,179.234 -400,400c0,220.766 179.234,400 400,400c220.766,0 400,-179.234 400,-400Z" style="fill:#173f58;"/></g><g id="SVGRepo_iconCarrier"><path d="M400.003,166.668c-6.527,0 -12.99,0.268 -19.38,0.793c81.201,45.71 136.047,132.721 136.047,232.541c0,99.822 -54.846,186.832 -136.048,232.542c6.391,0.526 12.854,0.793 19.381,0.793c128.867,0 233.334,-104.467 233.334,-233.334c0,-128.867 -104.467,-233.335 -233.334,-233.335Z" style="fill:#eaeff1;fill-rule:nonzero;"/></g></svg>