<?xml version="1.0" encoding="UTF-8" standalone="no"?><!DOCTYPE svg PUBLIC "-//W3C//DTD SVG 1.1//EN" "http://www.w3.org/Graphics/SVG/1.1/DTD/svg11.dtd"><svg width="100%" height="100%" viewBox="0 0 100 100" version="1.1" xmlns="http://www.w3.org/2000/svg" xmlns:xlink="http://www.w3.org/1999/xlink" xml:space="preserve" xmlns:serif="http://www.serif.com/" style="fill-rule:evenodd;clip-rule:evenodd;stroke-linecap:round;stroke-linejoin:round;stroke-miterlimit:1.5;"><path d="M41.993,52.012c-7.394,4.068 -15.069,3.889 -19.064,-1.123c-0.751,-0.943 -1.334,-2.009 -1.751,-3.165c-0.932,0.211 -1.897,0.314 -2.886,0.309c-7.926,-0.035 -14.326,-7.152 -14.287,-15.887c0.039,-8.735 6.503,-15.795 14.428,-15.759l0.196,0.001c1.391,-7.658 9.542,-13.522 19.353,-13.478c9.131,0.04 16.776,5.185 18.861,12.076c6.612,-7.348 15.172,-3.901 19.174,1.165c0.748,0.943 1.323,2.013 1.73,3.17c0.935,-0.203 1.904,-0.302 2.889,-0.294c7.929,0.081 14.222,7.235 14.222,15.966c-0,12.731 -14.696,15.679 -14.696,15.679c-1.421,7.649 -9.6,13.472 -19.414,13.375c-9.059,-0.091 -16.642,-5.202 -18.755,-12.035Z" style="fill:#d3d3d3;"/><path d="M41.993,52.012c-7.394,4.068 -15.069,3.889 -19.064,-1.123c-0.751,-0.943 -1.334,-2.009 -1.751,-3.165c-0.932,0.211 -1.897,0.314 -2.886,0.309c-7.926,-0.035 -14.326,-7.152 -14.287,-15.887c0.039,-8.735 6.503,-15.795 14.428,-15.759l0.196,0.001c1.391,-7.658 9.542,-13.522 19.353,-13.478c9.131,0.04 16.776,5.185 18.861,12.076c6.612,-7.348 15.172,-3.901 19.174,1.165c0.748,0.943 1.323,2.013 1.73,3.17c0.935,-0.203 1.904,-0.302 2.889,-0.294c7.929,0.081 14.222,7.235 14.222,15.966c-0,12.731 -14.696,15.679 -14.696,15.679c-1.421,7.649 -9.6,13.472 -19.414,13.375c-9.059,-0.091 -16.642,-5.202 -18.755,-12.035Zm2.708,-0.837c-0.251,-0.814 -0.856,-1.471 -1.646,-1.791c-0.79,-0.319 -1.681,-0.266 -2.428,0.145c-5.996,3.299 -12.241,3.658 -15.481,-0.407c-0.56,-0.703 -0.991,-1.499 -1.302,-2.36c-0.485,-1.346 -1.897,-2.119 -3.292,-1.803c-0.726,0.164 -1.477,0.243 -2.247,0.24c-6.441,-0.029 -11.497,-5.942 -11.465,-13.04c0.031,-7.099 5.14,-12.966 11.581,-12.938c0.012,0 0.208,0.001 0.208,0.001c1.37,0 2.544,-0.98 2.789,-2.328c1.177,-6.48 8.249,-11.187 16.551,-11.15c7.762,0.035 14.389,4.205 16.161,10.063c0.296,0.979 1.097,1.723 2.095,1.945c0.999,0.223 2.04,-0.11 2.725,-0.87c5.121,-5.691 11.743,-2.897 14.842,1.026c0.002,0.002 0.003,0.004 0.004,0.005c0.554,0.698 0.976,1.492 1.277,2.348c0.475,1.348 1.878,2.133 3.275,1.83c0.732,-0.159 1.49,-0.236 2.262,-0.229c6.451,0.067 11.413,6.026 11.413,13.131c0,5.174 -3.044,8.327 -6.03,10.219c-3.197,2.027 -6.389,2.681 -6.389,2.681c-1.135,0.228 -2.017,1.123 -2.229,2.261c-1.202,6.472 -8.296,11.141 -16.599,11.058c-7.704,-0.076 -14.278,-4.226 -16.075,-10.037Z" style="fill:#808080;"/><path d="M41,30.452c4.003,-13.347 17.812,-15.608 24.291,-8.418c1.002,1.112 1.778,2.449 2.368,4.006c0.271,0.713 0.492,1.472 0.657,2.276l0.507,2.729" style="fill:#d3d3d3;stroke:#808080;stroke-width:3px;"/><path d="M25.72,51.537c-7.078,-5.316 -3.154,-16.879 4.235,-16.529" style="fill:#d3d3d3;stroke:#808080;stroke-width:3px;"/><path d="M42.067,68.919c-7.956,3.958 -16.234,3.818 -20.567,-1.002c-0.815,-0.907 -1.448,-1.933 -1.904,-3.047c-1.003,0.208 -2.044,0.311 -3.111,0.311c-8.548,0 -15.485,-6.841 -15.485,-15.271c0,-8.431 6.937,-15.272 15.485,-15.272l0.211,-0c1.463,-7.397 10.226,-13.091 20.808,-13.091c9.848,-0 18.118,4.932 20.4,11.573c7.096,-7.12 16.344,-3.83 20.685,1.043c0.811,0.906 1.437,1.936 1.881,3.051c1.008,-0.2 2.052,-0.3 3.115,-0.296c8.552,0.044 15.415,6.921 15.415,15.348c-0,13.781 -15.774,15.196 -15.774,15.196c-1.496,7.388 -10.289,13.043 -20.874,12.991c-9.771,-0.048 -17.974,-4.948 -20.285,-11.534Z" style="fill:#fff;"/><path d="M42.067,68.919c-7.956,3.958 -16.234,3.818 -20.567,-1.002c-0.815,-0.907 -1.448,-1.933 -1.904,-3.047c-1.003,0.208 -2.044,0.311 -3.111,0.311c-8.548,0 -15.485,-6.841 -15.485,-15.271c0,-8.431 6.937,-15.272 15.485,-15.272l0.211,-0c1.463,-7.397 10.226,-13.091 20.808,-13.091c9.848,-0 18.118,4.932 20.4,11.573c7.096,-7.12 16.344,-3.83 20.685,1.043c0.811,0.906 1.437,1.936 1.881,3.051c1.008,-0.2 2.052,-0.3 3.115,-0.296c8.552,0.044 15.415,6.921 15.415,15.348c-0,13.781 -15.774,15.196 -15.774,15.196c-1.496,7.388 -10.289,13.043 -20.874,12.991c-9.771,-0.048 -17.974,-4.948 -20.285,-11.534Zm2.83,-0.993c-0.284,-0.812 -0.904,-1.462 -1.701,-1.786c-0.797,-0.324 -1.695,-0.29 -2.466,0.093c-6.569,3.268 -13.421,3.659 -16.999,-0.322c-0.582,-0.647 -1.032,-1.381 -1.358,-2.176c-0.547,-1.338 -1.969,-2.096 -3.384,-1.803c-0.808,0.167 -1.646,0.249 -2.504,0.249c-6.88,0 -12.485,-5.485 -12.485,-12.271c0,-6.787 5.605,-12.272 12.485,-12.272l0.211,-0c1.433,-0 2.665,-1.013 2.943,-2.418c1.239,-6.261 8.907,-10.673 17.865,-10.673c8.393,-0 15.618,3.887 17.562,9.548c0.337,0.979 1.155,1.716 2.164,1.949c1.01,0.232 2.067,-0.072 2.799,-0.806c5.6,-5.62 12.894,-2.925 16.32,0.92c0.001,0.002 0.003,0.003 0.004,0.005c0.575,0.642 1.016,1.373 1.331,2.162c0.535,1.343 1.952,2.112 3.37,1.831c0.814,-0.161 1.658,-0.241 2.518,-0.238c6.887,0.037 12.428,5.561 12.428,12.348c-0,5.467 -3.156,8.464 -6.285,10.111c-3.381,1.78 -6.757,2.097 -6.757,2.097c-1.322,0.118 -2.409,1.091 -2.672,2.392c-1.267,6.255 -8.959,10.631 -17.919,10.587c-8.332,-0.041 -15.499,-3.911 -17.47,-9.527Z" style="fill:#808080;"/><path d="M54.999,46.41c5.351,-12.493 27.714,-4.924 21.658,10.05" style="fill:#fff;stroke:#808080;stroke-width:3px;"/><path d="M17.031,46.453c-4.441,-7.137 4.14,-15.335 10.969,-12.24" style="fill:#fff;stroke:#808080;stroke-width:3px;"/><path d="M43.29,52.453c1.984,-8.168 13.846,-7.784 16.42,-0.743" style="fill:#fff;stroke:#808080;stroke-width:3px;"/><path d="M24.019,68.16c-7.662,-5.098 -3.39,-16.407 4.616,-16.151" style="fill:#fff;stroke:#808080;stroke-width:3px;"/></svg>