<?xml version="1.0" encoding="UTF-8" standalone="no"?><!DOCTYPE svg PUBLIC "-//W3C//DTD SVG 1.1//EN" "http://www.w3.org/Graphics/SVG/1.1/DTD/svg11.dtd"><svg width="100%" height="100%" viewBox="0 0 100 100" version="1.1" xmlns="http://www.w3.org/2000/svg" xmlns:xlink="http://www.w3.org/1999/xlink" xml:space="preserve" xmlns:serif="http://www.serif.com/" style="fill-rule:evenodd;clip-rule:evenodd;stroke-linejoin:round;stroke-miterlimit:2;"><path d="M42.957,69.427c-7.062,4.29 -14.411,4.139 -18.258,-1.087c-0.723,-0.983 -1.286,-2.096 -1.69,-3.304c-0.891,0.226 -1.815,0.338 -2.762,0.338c-7.589,0 -13.747,-7.416 -13.747,-16.556c0,-9.14 6.158,-16.556 13.747,-16.556l0.187,-0c1.299,-8.019 9.079,-14.193 18.472,-14.193c8.743,0 16.085,5.347 18.11,12.547c7.112,-4.321 16.3,-1.699 20.034,4.438c0.894,-0.216 1.822,-0.325 2.765,-0.32c7.592,0.047 13.718,7.503 13.685,16.638c-0.036,9.14 -6.228,16.522 -13.816,16.474l-0.188,0c-1.328,8.01 -9.134,14.141 -18.531,14.084c-8.673,-0.051 -15.956,-5.364 -18.008,-12.503Zm12.71,-10.581c-0,-2.875 0.631,-5.007 1.894,-6.394c1.263,-1.386 2.989,-2.08 5.179,-2.08c2.204,0 3.938,0.694 5.2,2.08c1.263,1.387 1.894,3.519 1.894,6.394c0,2.891 -0.631,5.029 -1.894,6.416c-1.262,1.387 -2.974,2.081 -5.135,2.081c-2.233,-0 -3.981,-0.694 -5.244,-2.081c-1.263,-1.387 -1.894,-3.525 -1.894,-6.416Zm-9.941,8.431l-4.555,-0l17.102,-33.875l4.423,-0l-16.97,33.875Zm14.736,-8.452c0,2.087 0.241,3.481 0.723,4.182c0.365,0.54 0.869,0.81 1.511,0.81c0.657,0 1.161,-0.263 1.511,-0.788c0.482,-0.716 0.722,-2.117 0.722,-4.204c0,-2.088 -0.233,-3.489 -0.7,-4.205c-0.365,-0.525 -0.876,-0.788 -1.533,-0.788c-0.657,0 -1.161,0.263 -1.511,0.788c-0.482,0.716 -0.723,2.117 -0.723,4.205Zm-26.451,-16.949c-0,-2.876 0.631,-5.007 1.894,-6.394c1.263,-1.387 2.974,-2.08 5.135,-2.08c2.233,-0 3.981,0.69 5.244,2.069c1.263,1.38 1.894,3.515 1.894,6.405c0,2.876 -0.631,5.007 -1.894,6.394c-1.263,1.387 -2.974,2.08 -5.135,2.08c-2.233,0 -3.981,-0.689 -5.244,-2.069c-1.263,-1.379 -1.894,-3.514 -1.894,-6.405Zm4.795,-0.044c0,2.088 0.241,3.489 0.723,4.205c0.365,0.525 0.868,0.788 1.511,0.788c0.657,-0 1.168,-0.263 1.532,-0.788c0.468,-0.716 0.701,-2.117 0.701,-4.205c0,-2.087 -0.233,-3.481 -0.701,-4.182c-0.364,-0.54 -0.875,-0.81 -1.532,-0.81c-0.643,-0 -1.146,0.263 -1.511,0.788c-0.482,0.715 -0.723,2.117 -0.723,4.204Z" style="fill:#161716;"/><path d="M50,0c27.596,0 50,22.404 50,50c0,27.596 -22.404,50 -50,50c-27.596,0 -50,-22.404 -50,-50c-0,-27.596 22.404,-50 50,-50Zm-0,4c25.388,-0 46,20.612 46,46c-0,25.388 -20.612,46 -46,46c-25.388,0 -46,-20.612 -46,-46c-0,-25.388 20.612,-46 46,-46Z" style="fill:#161716;"/><path d="M-37.957,151.764c-7.874,4.784 -16.068,4.615 -20.357,-1.212c-0.806,-1.095 -1.433,-2.336 -1.884,-3.683c-0.993,0.251 -2.024,0.377 -3.079,0.377c-8.461,-0 -15.327,-8.269 -15.327,-18.46c-0,-10.19 6.866,-18.459 15.327,-18.459l0.209,0c1.448,-8.94 10.121,-15.824 20.595,-15.824c9.747,0 17.933,5.962 20.191,13.99c7.93,-4.818 18.173,-1.895 22.337,4.948c0.997,-0.242 2.031,-0.362 3.083,-0.358c8.464,0.054 15.294,8.366 15.257,18.552c-0.04,10.19 -6.943,18.42 -15.404,18.367l-0.209,0c-1.481,8.931 -10.184,15.766 -20.661,15.703c-9.67,-0.058 -17.79,-5.981 -20.078,-13.941Z" style="fill:#f00;"/></svg>