<?xml version="1.0" encoding="UTF-8" standalone="no"?><!DOCTYPE svg PUBLIC "-//W3C//DTD SVG 1.1//EN" "http://www.w3.org/Graphics/SVG/1.1/DTD/svg11.dtd"><svg width="100%" height="100%" viewBox="0 0 100 100" version="1.1" xmlns="http://www.w3.org/2000/svg" xmlns:xlink="http://www.w3.org/1999/xlink" xml:space="preserve" xmlns:serif="http://www.serif.com/" style="fill-rule:evenodd;clip-rule:evenodd;stroke-linejoin:round;stroke-miterlimit:2;"><g><g><path d="M8.568,30.549c5.295,-4.238 14.578,-1.93 27.59,6.862c12.317,8.319 16.79,6.598 18.36,4.828c2.639,-2.972 1.589,-10.485 0.96,-13.129c-0.26,-1.098 0.206,-2.292 1.043,-2.665c0.834,-0.379 1.727,0.208 1.988,1.306c0.119,0.496 2.854,12.215 -1.961,17.652c-3.934,4.441 -11.094,3.059 -21.891,-4.239c-15.631,-10.562 -22.03,-8.965 -24.449,-7.072c-2.339,1.829 -2.481,4.97 -2.486,5.082c-0.024,1.16 -0.756,2.098 -1.632,2.096c-0.118,-0.001 -0.235,-0.02 -0.344,-0.053c-0.707,-0.212 -1.219,-1.054 -1.198,-2.057c0.005,-0.224 0.162,-5.526 4.02,-8.611Z" style="fill:#d3d3d3;fill-rule:nonzero;"/></g><g><path d="M12.232,69.955c0.663,-0.487 16.43,-11.839 32.571,-3.375c10.935,5.741 11.242,12.458 10.867,15.079c-0.652,4.552 -4.572,8.217 -9.755,9.124c-0.691,0.121 -1.339,0.181 -1.94,0.181c-2.008,0 -3.523,-0.668 -4.518,-2.001c-2.533,-3.384 -0.15,-9.498 0.13,-10.182c0.337,-0.825 1.245,-1.209 2.032,-0.855c0.786,0.352 1.152,1.307 0.816,2.133c-0.653,1.614 -1.646,5.422 -0.54,6.899c0.675,0.898 2.281,0.831 3.509,0.617c3.856,-0.675 6.749,-3.246 7.201,-6.399c0.581,-4.057 -2.768,-8.317 -9.188,-11.685c-14.46,-7.592 -29.262,3.022 -29.409,3.131c-0.704,0.513 -1.669,0.332 -2.157,-0.404c-0.49,-0.734 -0.32,-1.748 0.381,-2.263Z" style="fill:#d3d3d3;fill-rule:nonzero;"/></g><g><path d="M4.364,53.11c1.101,-0.476 27.28,-11.504 53.932,1.658c8.695,4.299 17.059,3.978 22.945,-0.871c4.037,-3.323 6.206,-8.381 5.398,-12.581c-0.602,-3.124 -2.734,-5.294 -6.168,-6.277c-4.291,-1.229 -7.475,-0.896 -9.466,0.986c-3.78,3.578 -2.556,11.736 -2.542,11.818c0.137,0.886 -0.434,1.721 -1.277,1.869c-0.846,0.148 -1.641,-0.451 -1.781,-1.337c-0.064,-0.406 -1.519,-9.981 3.517,-14.758c2.825,-2.68 6.983,-3.256 12.365,-1.716c4.572,1.309 7.552,4.424 8.39,8.771c1.035,5.377 -1.586,11.72 -6.523,15.784c-3.702,3.048 -8.191,4.582 -13.085,4.582c-4.153,-0 -8.597,-1.105 -13.093,-3.325c-25.385,-12.54 -51.176,-1.705 -51.433,-1.595c-0.795,0.342 -1.697,-0.055 -2.022,-0.886c-0.325,-0.832 0.051,-1.781 0.843,-2.122Z" style="fill:#d3d3d3;fill-rule:nonzero;"/></g><g><path d="M55.517,81.244c0.035,-0.07 0.082,-0.134 0.144,-0.187c0.191,-0.163 0.5,-0.217 0.747,-0.132c0.082,0.029 0.158,0.069 0.227,0.126c0.062,0.053 0.11,0.115 0.145,0.185c0.034,0.07 0.056,0.145 0.056,0.22c-0,0.081 -0.021,0.156 -0.055,0.226c-0.034,0.07 -0.082,0.134 -0.143,0.186c-0.069,0.059 -0.144,0.1 -0.226,0.129c-0.082,0.03 -0.171,0.047 -0.261,0.048c-0.089,0 -0.179,-0.016 -0.26,-0.045c-0.083,-0.028 -0.159,-0.068 -0.228,-0.126c-0.062,-0.051 -0.109,-0.115 -0.144,-0.185c-0.042,-0.068 -0.056,-0.144 -0.056,-0.224c-0.001,-0.077 0.013,-0.152 0.054,-0.221Z" style="fill:#808080;fill-rule:nonzero;"/></g><g><path d="M53.145,67.442c0.166,-0.141 0.427,-0.188 0.647,-0.113c0.071,0.023 0.136,0.058 0.195,0.108c0.108,0.089 0.173,0.22 0.174,0.35c-0,0.07 -0.012,0.135 -0.047,0.195c-0.03,0.061 -0.071,0.116 -0.124,0.161c-0.113,0.096 -0.261,0.147 -0.421,0.149c-0.16,-0 -0.308,-0.049 -0.422,-0.144c-0.053,-0.044 -0.094,-0.099 -0.124,-0.159c-0.036,-0.06 -0.049,-0.126 -0.049,-0.196c-0.001,-0.13 0.064,-0.261 0.171,-0.351Z" style="fill:#808080;fill-rule:nonzero;"/></g><g><path d="M77.148,61.902c0.187,-0.159 0.48,-0.211 0.726,-0.128c0.08,0.028 0.154,0.067 0.22,0.123c0.121,0.1 0.194,0.246 0.194,0.392c0.001,0.079 -0.012,0.151 -0.051,0.22c-0.034,0.067 -0.08,0.13 -0.14,0.181c-0.126,0.107 -0.293,0.165 -0.472,0.165c-0.18,0.001 -0.346,-0.054 -0.474,-0.16c-0.06,-0.05 -0.107,-0.112 -0.14,-0.18c-0.04,-0.066 -0.054,-0.14 -0.054,-0.219c-0.001,-0.146 0.072,-0.292 0.191,-0.394Z" style="fill:#808080;fill-rule:nonzero;"/></g><g><path d="M36.838,33.694c0.029,-0.059 0.068,-0.113 0.12,-0.157c0.218,-0.184 0.597,-0.187 0.815,-0.005c0.104,0.088 0.167,0.213 0.168,0.339c0,0.131 -0.062,0.253 -0.165,0.346c-0.109,0.092 -0.257,0.142 -0.407,0.144c-0.15,-0 -0.299,-0.048 -0.408,-0.139c-0.053,-0.044 -0.092,-0.098 -0.122,-0.155c-0.035,-0.062 -0.046,-0.126 -0.046,-0.189c-0,-0.063 0.01,-0.126 0.045,-0.184Z" style="fill:#808080;fill-rule:nonzero;"/></g><g><path d="M70.608,42.021c0.026,-0.054 0.063,-0.104 0.111,-0.144c0.201,-0.172 0.552,-0.174 0.754,-0.005c0.096,0.08 0.154,0.196 0.154,0.313c0.001,0.122 -0.057,0.234 -0.152,0.319c-0.1,0.086 -0.238,0.132 -0.376,0.132c-0.138,0.002 -0.276,-0.042 -0.377,-0.127c-0.049,-0.04 -0.086,-0.09 -0.113,-0.144c-0.032,-0.057 -0.043,-0.116 -0.043,-0.173c0,-0.059 0.011,-0.118 0.042,-0.171Z" style="fill:#808080;fill-rule:nonzero;"/></g><g><path d="M30.16,23.025c0.008,-0.055 0.027,-0.101 0.053,-0.149c0.019,-0.046 0.046,-0.092 0.083,-0.131c0.036,-0.046 0.073,-0.085 0.109,-0.116c0.045,-0.039 0.091,-0.07 0.137,-0.101c0.054,-0.024 0.11,-0.055 0.164,-0.071c0.055,-0.024 0.11,-0.032 0.165,-0.048c0.301,-0.047 0.612,0.028 0.833,0.212c0.165,0.138 0.266,0.339 0.267,0.54c0,0.107 -0.026,0.2 -0.072,0.301c-0.045,0.092 -0.108,0.179 -0.191,0.248c-0.091,0.07 -0.192,0.133 -0.301,0.172c-0.11,0.04 -0.229,0.056 -0.348,0.056c-0.055,0.001 -0.119,0.001 -0.183,-0.014c-0.054,-0.007 -0.11,-0.022 -0.164,-0.039c-0.056,-0.022 -0.111,-0.045 -0.165,-0.067c-0.046,-0.031 -0.092,-0.061 -0.138,-0.1c-0.166,-0.146 -0.267,-0.338 -0.268,-0.547c0,-0.046 0.009,-0.101 0.019,-0.146Z" style="fill:#808080;fill-rule:nonzero;"/></g><g><path d="M48.336,31.278c0.005,-0.034 0.016,-0.062 0.033,-0.09c0.011,-0.029 0.028,-0.057 0.05,-0.081c0.017,-0.029 0.044,-0.053 0.066,-0.071c0.057,-0.048 0.118,-0.081 0.185,-0.105c0.134,-0.048 0.29,-0.049 0.425,-0.003c0.072,0.024 0.129,0.057 0.185,0.103c0.023,0.018 0.045,0.042 0.067,0.071c0.023,0.024 0.04,0.051 0.051,0.08c0.016,0.027 0.028,0.056 0.034,0.09c0.006,0.027 0.011,0.061 0.011,0.088c0,0.034 -0.005,0.063 -0.011,0.095c-0.005,0.029 -0.016,0.062 -0.033,0.09c-0.011,0.029 -0.027,0.053 -0.05,0.082c-0.022,0.023 -0.044,0.047 -0.067,0.071c-0.055,0.042 -0.112,0.081 -0.184,0.105c-0.067,0.023 -0.139,0.033 -0.212,0.033c-0.073,0.002 -0.146,-0.008 -0.213,-0.031c-0.067,-0.024 -0.128,-0.061 -0.185,-0.104c-0.101,-0.088 -0.163,-0.206 -0.163,-0.333c-0,-0.029 0.005,-0.062 0.011,-0.09Z" style="fill:#808080;fill-rule:nonzero;"/></g><g><path d="M75.482,26.684c0.04,-0.081 0.095,-0.156 0.167,-0.217c0.184,-0.162 0.462,-0.232 0.727,-0.192c0.048,0.012 0.096,0.018 0.144,0.038c0.048,0.014 0.096,0.04 0.144,0.06c0.04,0.028 0.08,0.054 0.12,0.088c0.073,0.06 0.128,0.133 0.169,0.215c0.04,0.081 0.064,0.168 0.064,0.256c0.001,0.095 -0.022,0.176 -0.062,0.263c-0.04,0.081 -0.095,0.156 -0.167,0.217c-0.04,0.034 -0.08,0.062 -0.12,0.089c-0.048,0.02 -0.096,0.041 -0.143,0.061c-0.048,0.014 -0.097,0.028 -0.144,0.035c-0.056,0.014 -0.112,0.014 -0.161,0.015c-0.207,0.002 -0.416,-0.066 -0.567,-0.193c-0.072,-0.06 -0.129,-0.134 -0.169,-0.215c-0.04,-0.088 -0.064,-0.169 -0.065,-0.262c-0,-0.089 0.024,-0.177 0.063,-0.258Z" style="fill:#808080;fill-rule:nonzero;"/></g><g><path d="M49.583,45.6c0.008,-0.046 0.023,-0.086 0.046,-0.125c0.016,-0.04 0.039,-0.078 0.07,-0.112c0.03,-0.04 0.061,-0.073 0.092,-0.099c0.078,-0.066 0.163,-0.112 0.256,-0.146c0.14,-0.052 0.294,-0.066 0.45,-0.041c0.047,0.012 0.093,0.019 0.14,0.037c0.047,0.014 0.093,0.04 0.14,0.059c0.039,0.026 0.078,0.052 0.117,0.085c0.14,0.117 0.226,0.287 0.227,0.457c-0,0.092 -0.023,0.171 -0.061,0.256c-0.039,0.079 -0.093,0.151 -0.163,0.211c-0.038,0.033 -0.077,0.06 -0.116,0.079c-0.047,0.027 -0.094,0.047 -0.139,0.067c-0.047,0.013 -0.093,0.027 -0.14,0.034c-0.055,0.014 -0.109,0.014 -0.156,0.014c-0.201,0.001 -0.403,-0.064 -0.552,-0.188c-0.14,-0.123 -0.225,-0.293 -0.226,-0.463c-0,-0.04 0.008,-0.086 0.015,-0.125Z" style="fill:#808080;fill-rule:nonzero;"/></g><g><path d="M30.141,49.974c0.006,-0.034 0.017,-0.061 0.033,-0.09c0.012,-0.027 0.029,-0.056 0.051,-0.08c0.021,-0.029 0.044,-0.052 0.066,-0.071c0.055,-0.047 0.117,-0.081 0.184,-0.105c0.1,-0.037 0.211,-0.047 0.322,-0.03c0.034,0.01 0.067,0.014 0.101,0.028c0.033,0.01 0.067,0.028 0.1,0.042c0.029,0.019 0.056,0.038 0.084,0.06c0.101,0.085 0.162,0.206 0.163,0.328c0,0.067 -0.016,0.123 -0.043,0.184c-0.029,0.058 -0.067,0.109 -0.118,0.152c-0.027,0.023 -0.054,0.043 -0.083,0.057c-0.034,0.018 -0.067,0.033 -0.1,0.047c-0.033,0.01 -0.067,0.02 -0.1,0.025c-0.039,0.009 -0.079,0.01 -0.112,0.01c-0.144,0 -0.289,-0.046 -0.395,-0.135c-0.101,-0.088 -0.163,-0.21 -0.163,-0.332c-0,-0.029 0.005,-0.062 0.01,-0.09Z" style="fill:#808080;fill-rule:nonzero;"/></g><g><g><path d="M42.299,28.305c-0.108,-0.497 -0.45,-0.897 -1.018,-1.188c-1.895,-0.972 -2.3,-1.981 -2.303,-1.988c-0.04,-0.109 -0.145,-0.188 -0.265,-0.195c-0.12,-0.009 -0.227,0.055 -0.269,0.158c-0.119,0.298 -1.131,2.933 0.159,3.926l2.314,1.783c0.002,0.002 0.004,0.002 0.006,0.003c0.013,0.01 0.027,0.02 0.042,0.027c0.013,0.007 0.026,0.013 0.039,0.017c0.003,0.001 0.007,0.002 0.011,0.003c0.011,0.004 0.022,0.007 0.034,0.009c0.002,0 0.004,0.001 0.007,0.001c0.011,0.003 0.024,0.004 0.037,0.004l0.003,0c0.017,0.001 0.034,0 0.051,-0.002c0.005,-0.002 0.01,-0.003 0.015,-0.004c0.011,-0.001 0.022,-0.004 0.034,-0.008c0.005,-0.002 0.011,-0.005 0.017,-0.007c0.01,-0.004 0.02,-0.009 0.028,-0.014c0.006,-0.002 0.011,-0.006 0.017,-0.01c0.008,-0.005 0.015,-0.011 0.023,-0.017c0.006,-0.004 0.011,-0.008 0.016,-0.013c0.002,-0.002 0.004,-0.004 0.006,-0.005c0.05,-0.053 1.249,-1.311 0.996,-2.48Z" style="fill:#d3d3d3;fill-rule:nonzero;"/></g><g><path d="M42.299,28.305c-0.108,-0.497 -0.45,-0.897 -1.018,-1.188c-1.895,-0.972 -2.3,-1.981 -2.303,-1.988c-0.04,-0.109 -0.145,-0.188 -0.265,-0.195c-0.12,-0.009 -0.227,0.055 -0.269,0.158c-0.119,0.298 -1.131,2.933 0.159,3.926l2.314,1.783c0.002,0.002 0.004,0.002 0.006,0.003c0.013,0.01 0.027,0.02 0.042,0.027c0.013,0.007 0.026,0.013 0.039,0.017c0.003,0.001 0.007,0.002 0.011,0.003c0.011,0.004 0.022,0.007 0.034,0.009c0.002,0 0.004,0.001 0.007,0.001c0.011,0.003 0.024,0.004 0.037,0.004l0.003,0c0.017,0.001 0.034,0 0.051,-0.002c0.005,-0.002 0.01,-0.003 0.015,-0.004c0.011,-0.001 0.022,-0.004 0.034,-0.008c0.005,-0.002 0.011,-0.005 0.017,-0.007c0.01,-0.004 0.02,-0.009 0.028,-0.014c0.006,-0.002 0.011,-0.006 0.017,-0.01c0.008,-0.005 0.015,-0.011 0.023,-0.017c0.006,-0.004 0.011,-0.008 0.016,-0.013c0.002,-0.002 0.004,-0.004 0.006,-0.005c0.05,-0.053 1.249,-1.311 0.996,-2.48Zm-0.996,1.553c-0.334,-1.949 -1.768,-2.453 -1.837,-2.475c-0.151,-0.05 -0.308,0.022 -0.352,0.162c-0.043,0.141 0.043,0.294 0.194,0.345c0.013,0.004 1.196,0.42 1.449,2.115l-1.813,-1.397c-0.651,-0.501 -0.417,-1.873 -0.153,-2.758c0.349,0.453 1.017,1.108 2.244,1.737c0.406,0.208 0.637,0.467 0.708,0.794c0.11,0.503 -0.169,1.072 -0.44,1.477Z" style="fill:#808080;fill-rule:nonzero;"/></g></g><g><g><path d="M29.038,81.453c-0.395,-0.299 -0.904,-0.364 -1.514,-0.193c-2.039,0.574 -2.98,0.094 -2.987,0.09c-0.098,-0.054 -0.227,-0.041 -0.322,0.036c-0.095,0.076 -0.136,0.197 -0.102,0.304c0.098,0.306 0.997,2.985 2.594,2.845l2.865,-0.252c0.002,-0 0.003,-0.001 0.006,-0.002c0.016,-0.002 0.033,-0.003 0.049,-0.009c0.014,-0.004 0.027,-0.008 0.04,-0.014c0.003,-0.001 0.006,-0.003 0.01,-0.005c0.011,-0.004 0.021,-0.01 0.031,-0.016c0.002,-0.002 0.004,-0.002 0.006,-0.004c0.01,-0.006 0.021,-0.014 0.03,-0.023c0.001,-0 0.002,-0.001 0.002,-0.002c0.014,-0.011 0.026,-0.023 0.038,-0.037c0.002,-0.004 0.005,-0.009 0.008,-0.013c0.008,-0.009 0.015,-0.018 0.021,-0.029c0.003,-0.006 0.006,-0.012 0.009,-0.018c0.004,-0.009 0.009,-0.02 0.012,-0.029c0.003,-0.006 0.004,-0.013 0.006,-0.019c0.003,-0.01 0.005,-0.02 0.007,-0.03c0.002,-0.006 0.003,-0.013 0.004,-0.02c-0.001,-0.003 0,-0.005 0.001,-0.007c0.004,-0.076 0.114,-1.848 -0.814,-2.553Z" style="fill:#d3d3d3;fill-rule:nonzero;"/></g><g><path d="M29.038,81.453c-0.395,-0.299 -0.904,-0.364 -1.514,-0.193c-2.039,0.574 -2.98,0.094 -2.987,0.09c-0.098,-0.054 -0.227,-0.041 -0.322,0.036c-0.095,0.076 -0.136,0.197 -0.102,0.304c0.098,0.306 0.997,2.985 2.594,2.845l2.865,-0.252c0.002,-0 0.003,-0.001 0.006,-0.002c0.016,-0.002 0.033,-0.003 0.049,-0.009c0.014,-0.004 0.027,-0.008 0.04,-0.014c0.003,-0.001 0.006,-0.003 0.01,-0.005c0.011,-0.004 0.021,-0.01 0.031,-0.016c0.002,-0.002 0.004,-0.002 0.006,-0.004c0.01,-0.006 0.021,-0.014 0.03,-0.023c0.001,-0 0.002,-0.001 0.002,-0.002c0.014,-0.011 0.026,-0.023 0.038,-0.037c0.002,-0.004 0.005,-0.009 0.008,-0.013c0.008,-0.009 0.015,-0.018 0.021,-0.029c0.003,-0.006 0.006,-0.012 0.009,-0.018c0.004,-0.009 0.009,-0.02 0.012,-0.029c0.003,-0.006 0.004,-0.013 0.006,-0.019c0.003,-0.01 0.005,-0.02 0.007,-0.03c0.002,-0.006 0.003,-0.013 0.004,-0.02c-0.001,-0.003 0,-0.005 0.001,-0.007c0.004,-0.076 0.114,-1.848 -0.814,-2.553Zm0.23,1.855c-1.48,-1.237 -2.876,-0.628 -2.943,-0.598c-0.144,0.066 -0.217,0.229 -0.162,0.365c0.057,0.135 0.217,0.191 0.364,0.125c0.011,-0.006 1.163,-0.507 2.423,0.594l-2.245,0.197c-0.806,0.072 -1.494,-1.122 -1.853,-1.969c0.548,0.1 1.463,0.133 2.783,-0.239c0.436,-0.122 0.773,-0.087 1.033,0.11c0.4,0.304 0.548,0.923 0.6,1.415Z" style="fill:#808080;fill-rule:nonzero;"/></g></g><g><g><path d="M27.502,87.613c-0.254,0.287 -0.348,0.687 -0.278,1.189c0.235,1.676 -0.201,2.382 -0.204,2.387c-0.049,0.074 -0.051,0.177 -0.003,0.26c0.047,0.083 0.132,0.126 0.213,0.109c0.232,-0.05 2.267,-0.525 2.309,-1.809l0.075,-2.305c0,-0.002 -0.001,-0.004 -0.001,-0.005c0,-0.014 0.001,-0.027 -0.002,-0.041c-0.001,-0.011 -0.003,-0.022 -0.007,-0.032c-0,-0.003 -0.001,-0.006 -0.002,-0.009c-0.002,-0.009 -0.006,-0.018 -0.01,-0.026c-0,-0.002 -0,-0.003 -0.002,-0.005c-0.003,-0.009 -0.008,-0.018 -0.014,-0.026c0,-0.001 -0,-0.002 -0.001,-0.002c-0.007,-0.012 -0.015,-0.023 -0.024,-0.033c-0.003,-0.003 -0.005,-0.006 -0.008,-0.008c-0.006,-0.008 -0.012,-0.014 -0.02,-0.02c-0.004,-0.002 -0.008,-0.005 -0.012,-0.008c-0.006,-0.005 -0.013,-0.009 -0.02,-0.013c-0.004,-0.002 -0.009,-0.004 -0.013,-0.006c-0.007,-0.003 -0.014,-0.006 -0.021,-0.008c-0.005,-0.002 -0.009,-0.004 -0.015,-0.005c-0.002,-0 -0.003,-0.001 -0.005,-0.002c-0.055,-0.01 -1.337,-0.257 -1.935,0.418Z" style="fill:#d3d3d3;fill-rule:nonzero;"/></g><g><path d="M27.502,87.613c-0.254,0.287 -0.348,0.687 -0.278,1.189c0.235,1.676 -0.201,2.382 -0.204,2.387c-0.049,0.074 -0.051,0.177 -0.003,0.26c0.047,0.083 0.132,0.126 0.213,0.109c0.232,-0.05 2.267,-0.525 2.309,-1.809l0.075,-2.305c0,-0.002 -0.001,-0.004 -0.001,-0.005c0,-0.014 0.001,-0.027 -0.002,-0.041c-0.001,-0.011 -0.003,-0.022 -0.007,-0.032c-0,-0.003 -0.001,-0.006 -0.002,-0.009c-0.002,-0.009 -0.006,-0.018 -0.01,-0.026c-0,-0.002 -0,-0.003 -0.002,-0.005c-0.003,-0.009 -0.008,-0.018 -0.014,-0.026c0,-0.001 -0,-0.002 -0.001,-0.002c-0.007,-0.012 -0.015,-0.023 -0.024,-0.033c-0.003,-0.003 -0.005,-0.006 -0.008,-0.008c-0.006,-0.008 -0.012,-0.014 -0.02,-0.02c-0.004,-0.002 -0.008,-0.005 -0.012,-0.008c-0.006,-0.005 -0.013,-0.009 -0.02,-0.013c-0.004,-0.002 -0.009,-0.004 -0.013,-0.006c-0.007,-0.003 -0.014,-0.006 -0.021,-0.008c-0.005,-0.002 -0.009,-0.004 -0.015,-0.005c-0.002,-0 -0.003,-0.001 -0.005,-0.002c-0.055,-0.01 -1.337,-0.257 -1.935,0.418Zm1.374,-0.015c-1.037,1.067 -0.719,2.234 -0.702,2.29c0.035,0.121 0.147,0.194 0.251,0.162c0.104,-0.033 0.159,-0.156 0.124,-0.278c-0.003,-0.01 -0.265,-0.973 0.652,-1.877l-0.059,1.806c-0.02,0.648 -0.953,1.089 -1.604,1.298c0.123,-0.427 0.23,-1.153 0.078,-2.238c-0.05,-0.359 0.006,-0.624 0.173,-0.813c0.258,-0.291 0.723,-0.353 1.087,-0.35Z" style="fill:#808080;fill-rule:nonzero;"/></g></g><g><g><path d="M50.382,26.483c0.368,-0.611 0.409,-1.37 0.119,-2.255c-0.967,-2.958 -0.406,-4.393 -0.401,-4.404c0.064,-0.15 0.034,-0.339 -0.079,-0.473c-0.112,-0.134 -0.28,-0.182 -0.421,-0.122c-0.405,0.173 -3.944,1.754 -3.604,4.099l0.608,4.209c0.001,0.003 0.003,0.005 0.004,0.009c0.004,0.024 0.008,0.048 0.016,0.072c0.007,0.019 0.014,0.039 0.024,0.057c0.001,0.004 0.004,0.01 0.007,0.015c0.007,0.015 0.016,0.03 0.025,0.044c0.002,0.002 0.003,0.006 0.006,0.009c0.009,0.014 0.021,0.029 0.033,0.042c0.001,0.001 0.002,0.002 0.003,0.003c0.017,0.02 0.034,0.036 0.054,0.052c0.006,0.003 0.012,0.007 0.019,0.011c0.012,0.011 0.026,0.02 0.041,0.028c0.008,0.004 0.016,0.007 0.024,0.011c0.014,0.006 0.028,0.012 0.042,0.016c0.008,0.003 0.017,0.005 0.026,0.007c0.013,0.003 0.026,0.005 0.04,0.007c0.01,0.002 0.018,0.004 0.028,0.004c0.004,-0.001 0.007,-0 0.01,0.001c0.102,-0.001 2.509,-0.005 3.376,-1.442Z" style="fill:#d3d3d3;fill-rule:nonzero;"/></g><g><path d="M50.382,26.483c0.368,-0.611 0.409,-1.37 0.119,-2.255c-0.967,-2.958 -0.406,-4.393 -0.401,-4.404c0.064,-0.15 0.034,-0.339 -0.079,-0.473c-0.112,-0.134 -0.28,-0.182 -0.421,-0.122c-0.405,0.173 -3.944,1.754 -3.604,4.099l0.608,4.209c0.001,0.003 0.003,0.005 0.004,0.009c0.004,0.024 0.008,0.048 0.016,0.072c0.007,0.019 0.014,0.039 0.024,0.057c0.001,0.004 0.004,0.01 0.007,0.015c0.007,0.015 0.016,0.03 0.025,0.044c0.002,0.002 0.003,0.006 0.006,0.009c0.009,0.014 0.021,0.029 0.033,0.042c0.001,0.001 0.002,0.002 0.003,0.003c0.017,0.02 0.034,0.036 0.054,0.052c0.006,0.003 0.012,0.007 0.019,0.011c0.012,0.011 0.026,0.02 0.041,0.028c0.008,0.004 0.016,0.007 0.024,0.011c0.014,0.006 0.028,0.012 0.042,0.016c0.008,0.003 0.017,0.005 0.026,0.007c0.013,0.003 0.026,0.005 0.04,0.007c0.01,0.002 0.018,0.004 0.028,0.004c0.004,-0.001 0.007,-0 0.01,0.001c0.102,-0.001 2.509,-0.005 3.376,-1.442Zm-2.487,0.513c1.535,-2.302 0.58,-4.308 0.532,-4.403c-0.103,-0.207 -0.33,-0.3 -0.508,-0.205c-0.178,0.096 -0.238,0.339 -0.135,0.549c0.009,0.017 0.795,1.671 -0.576,3.635l-0.478,-3.298c-0.172,-1.183 1.378,-2.313 2.491,-2.922c-0.084,0.818 -0.044,2.174 0.584,4.089c0.206,0.633 0.19,1.134 -0.053,1.536c-0.372,0.619 -1.197,0.897 -1.857,1.019Z" style="fill:#808080;fill-rule:nonzero;"/></g></g><g><g><path d="M65.273,15.988c-0.471,-0.072 -0.939,0.113 -1.392,0.55c-1.513,1.462 -2.535,1.493 -2.542,1.493c-0.109,0 -0.214,0.072 -0.263,0.184c-0.05,0.111 -0.032,0.235 0.044,0.311c0.217,0.219 2.157,2.108 3.475,1.229l2.367,-1.575c0.002,-0.001 0.003,-0.003 0.005,-0.005c0.013,-0.009 0.027,-0.018 0.039,-0.031c0.009,-0.009 0.019,-0.019 0.027,-0.031c0.002,-0.002 0.005,-0.005 0.007,-0.009c0.007,-0.009 0.014,-0.019 0.02,-0.029c0.001,-0.002 0.002,-0.003 0.003,-0.006c0.007,-0.01 0.012,-0.022 0.017,-0.034c0,-0.001 0,-0.002 0.001,-0.003c0.007,-0.016 0.012,-0.032 0.016,-0.05c0,-0.005 0.001,-0.01 0.001,-0.015c0.003,-0.011 0.005,-0.022 0.006,-0.035c-0,-0.006 -0,-0.013 -0,-0.019c-0,-0.011 -0.001,-0.022 -0.003,-0.032c0,-0.006 -0.001,-0.012 -0.002,-0.019c-0.002,-0.009 -0.005,-0.019 -0.007,-0.028c-0.002,-0.007 -0.003,-0.013 -0.006,-0.019c-0.001,-0.003 -0.002,-0.005 -0.002,-0.008c-0.029,-0.067 -0.703,-1.65 -1.811,-1.819Z" style="fill:#d3d3d3;fill-rule:nonzero;"/></g><g><path d="M65.273,15.988c-0.471,-0.072 -0.939,0.113 -1.392,0.55c-1.513,1.462 -2.535,1.493 -2.542,1.493c-0.109,0 -0.214,0.072 -0.263,0.184c-0.05,0.111 -0.032,0.235 0.044,0.311c0.217,0.219 2.157,2.108 3.475,1.229l2.367,-1.575c0.002,-0.001 0.003,-0.003 0.005,-0.005c0.013,-0.009 0.027,-0.018 0.039,-0.031c0.009,-0.009 0.019,-0.019 0.027,-0.031c0.002,-0.002 0.005,-0.005 0.007,-0.009c0.007,-0.009 0.014,-0.019 0.02,-0.029c0.001,-0.002 0.002,-0.003 0.003,-0.006c0.007,-0.01 0.012,-0.022 0.017,-0.034c0,-0.001 0,-0.002 0.001,-0.003c0.007,-0.016 0.012,-0.032 0.016,-0.05c0,-0.005 0.001,-0.01 0.001,-0.015c0.003,-0.011 0.005,-0.022 0.006,-0.035c-0,-0.006 -0,-0.013 -0,-0.019c-0,-0.011 -0.001,-0.022 -0.003,-0.032c0,-0.006 -0.001,-0.012 -0.002,-0.019c-0.002,-0.009 -0.005,-0.019 -0.007,-0.028c-0.002,-0.007 -0.003,-0.013 -0.006,-0.019c-0.001,-0.003 -0.002,-0.005 -0.002,-0.008c-0.029,-0.067 -0.703,-1.65 -1.811,-1.819Zm1.003,1.494c-1.815,-0.368 -2.758,0.82 -2.802,0.877c-0.096,0.126 -0.088,0.302 0.018,0.392c0.108,0.091 0.271,0.063 0.369,-0.064c0.007,-0.01 0.785,-0.99 2.351,-0.635l-1.854,1.235c-0.665,0.443 -1.778,-0.262 -2.456,-0.824c0.517,-0.173 1.323,-0.578 2.301,-1.526c0.324,-0.312 0.631,-0.441 0.941,-0.394c0.477,0.073 0.874,0.538 1.132,0.939Z" style="fill:#808080;fill-rule:nonzero;"/></g></g><g><g><path d="M76.675,20.454c0.486,-0.672 1.262,-1.03 2.307,-1.064c3.487,-0.113 4.756,-1.343 4.765,-1.352c0.131,-0.136 0.34,-0.179 0.527,-0.105c0.185,0.072 0.305,0.244 0.3,0.43c-0.014,0.533 -0.21,5.222 -2.799,5.798l-4.648,1.037c-0.004,0 -0.007,-0.001 -0.011,-0.001c-0.027,0.006 -0.054,0.011 -0.082,0.011c-0.023,0 -0.046,0.001 -0.069,-0.003c-0.005,-0 -0.012,-0.001 -0.019,-0.002c-0.018,-0.002 -0.037,-0.007 -0.057,-0.011c-0.002,-0.002 -0.006,-0.001 -0.011,-0.003c-0.019,-0.005 -0.039,-0.012 -0.058,-0.021c-0.001,-0.001 -0.003,-0.001 -0.004,-0.002c-0.027,-0.011 -0.051,-0.024 -0.076,-0.04c-0.006,-0.006 -0.013,-0.011 -0.019,-0.016c-0.017,-0.011 -0.032,-0.022 -0.047,-0.036c-0.007,-0.008 -0.014,-0.016 -0.021,-0.024c-0.012,-0.012 -0.024,-0.027 -0.034,-0.04c-0.007,-0.008 -0.012,-0.017 -0.018,-0.027c-0.009,-0.013 -0.016,-0.028 -0.024,-0.043c-0.006,-0.01 -0.011,-0.019 -0.015,-0.03c-0.001,-0.005 -0.003,-0.009 -0.006,-0.012c-0.041,-0.117 -1.026,-2.865 0.119,-4.444Z" style="fill:#d3d3d3;fill-rule:nonzero;"/></g><g><path d="M76.675,20.454c0.486,-0.672 1.262,-1.03 2.307,-1.064c3.487,-0.113 4.756,-1.343 4.765,-1.352c0.131,-0.136 0.34,-0.179 0.527,-0.105c0.185,0.072 0.305,0.244 0.3,0.43c-0.014,0.533 -0.21,5.222 -2.799,5.798l-4.648,1.037c-0.004,0 -0.007,-0.001 -0.011,-0.001c-0.027,0.006 -0.054,0.011 -0.082,0.011c-0.023,0 -0.046,0.001 -0.069,-0.003c-0.005,-0 -0.012,-0.001 -0.019,-0.002c-0.018,-0.002 -0.037,-0.007 -0.057,-0.011c-0.002,-0.002 -0.006,-0.001 -0.011,-0.003c-0.019,-0.005 -0.039,-0.012 -0.058,-0.021c-0.001,-0.001 -0.003,-0.001 -0.004,-0.002c-0.027,-0.011 -0.051,-0.024 -0.076,-0.04c-0.006,-0.006 -0.013,-0.011 -0.019,-0.016c-0.017,-0.011 -0.032,-0.022 -0.047,-0.036c-0.007,-0.008 -0.014,-0.016 -0.021,-0.024c-0.012,-0.012 -0.024,-0.027 -0.034,-0.04c-0.007,-0.008 -0.012,-0.017 -0.018,-0.027c-0.009,-0.013 -0.016,-0.028 -0.024,-0.043c-0.006,-0.01 -0.011,-0.019 -0.015,-0.03c-0.001,-0.005 -0.003,-0.009 -0.006,-0.012c-0.041,-0.117 -1.026,-2.865 0.119,-4.444Zm0.486,3.049c1.774,-2.698 4.262,-2.434 4.381,-2.419c0.259,0.032 0.449,0.254 0.423,0.496c-0.027,0.242 -0.255,0.411 -0.517,0.38c-0.022,-0.003 -2.074,-0.22 -3.561,2.151l3.641,-0.81c1.307,-0.29 1.85,-2.524 2.029,-4.044c-0.82,0.433 -2.253,0.944 -4.511,1.015c-0.747,0.026 -1.264,0.25 -1.584,0.692c-0.494,0.68 -0.444,1.734 -0.301,2.539Z" style="fill:#808080;fill-rule:nonzero;"/></g></g><g><g><path d="M94.039,32.03c0.518,0.296 0.848,0.871 0.981,1.708c0.444,2.794 1.431,3.641 1.439,3.647c0.107,0.086 0.16,0.249 0.127,0.41c-0.03,0.16 -0.137,0.28 -0.267,0.303c-0.371,0.064 -3.648,0.572 -4.32,-1.433l-1.207,-3.598c-0,-0.003 0,-0.005 -0.001,-0.008c-0.006,-0.021 -0.013,-0.042 -0.016,-0.065c-0.002,-0.019 -0.005,-0.037 -0.005,-0.056c-0,-0.004 -0,-0.01 -0,-0.015c-0.001,-0.016 0,-0.032 0.001,-0.048c0.001,-0.002 0,-0.005 0.001,-0.009c0.002,-0.016 0.004,-0.033 0.009,-0.05c-0,-0.001 0,-0.002 0.001,-0.004c0.004,-0.023 0.011,-0.044 0.02,-0.067c0.003,-0.006 0.006,-0.012 0.009,-0.018c0.005,-0.015 0.012,-0.028 0.02,-0.042c0.004,-0.007 0.009,-0.014 0.014,-0.021c0.007,-0.011 0.016,-0.023 0.025,-0.032c0.004,-0.007 0.01,-0.013 0.016,-0.019c0.009,-0.009 0.018,-0.017 0.028,-0.025c0.006,-0.007 0.012,-0.012 0.019,-0.017c0.003,-0.002 0.005,-0.004 0.007,-0.006c0.077,-0.05 1.883,-1.233 3.099,-0.535Z" style="fill:#d3d3d3;fill-rule:nonzero;"/></g><g><path d="M94.039,32.03c0.518,0.296 0.848,0.871 0.981,1.708c0.444,2.794 1.431,3.641 1.439,3.647c0.107,0.086 0.16,0.249 0.127,0.41c-0.03,0.16 -0.137,0.28 -0.267,0.303c-0.371,0.064 -3.648,0.572 -4.32,-1.433l-1.207,-3.598c-0,-0.003 0,-0.005 -0.001,-0.008c-0.006,-0.021 -0.013,-0.042 -0.016,-0.065c-0.002,-0.019 -0.005,-0.037 -0.005,-0.056c-0,-0.004 -0,-0.01 -0,-0.015c-0.001,-0.016 0,-0.032 0.001,-0.048c0.001,-0.002 0,-0.005 0.001,-0.009c0.002,-0.016 0.004,-0.033 0.009,-0.05c-0,-0.001 0,-0.002 0.001,-0.004c0.004,-0.023 0.011,-0.044 0.02,-0.067c0.003,-0.006 0.006,-0.012 0.009,-0.018c0.005,-0.015 0.012,-0.028 0.02,-0.042c0.004,-0.007 0.009,-0.014 0.014,-0.021c0.007,-0.011 0.016,-0.023 0.025,-0.032c0.004,-0.007 0.01,-0.013 0.016,-0.019c0.009,-0.009 0.018,-0.017 0.028,-0.025c0.006,-0.007 0.012,-0.012 0.019,-0.017c0.003,-0.002 0.005,-0.004 0.007,-0.006c0.077,-0.05 1.883,-1.233 3.099,-0.535Zm-2.066,0.824c2.059,1.047 2.137,3.089 2.139,3.187c0.004,0.213 -0.129,0.398 -0.3,0.411c-0.172,0.013 -0.312,-0.147 -0.318,-0.363c-0,-0.017 -0.065,-1.702 -1.868,-2.564l0.945,2.819c0.338,1.012 1.946,1.133 3.021,1.061c-0.387,-0.599 -0.892,-1.681 -1.178,-3.491c-0.096,-0.597 -0.306,-0.982 -0.647,-1.177c-0.524,-0.302 -1.251,-0.113 -1.794,0.117Z" style="fill:#808080;fill-rule:nonzero;"/></g></g><g><g><path d="M75.605,44.38c0.579,0.303 1.282,0.257 2.088,-0.139c2.693,-1.323 4.041,-0.919 4.051,-0.916c0.142,0.048 0.315,-0.004 0.434,-0.135c0.119,-0.128 0.157,-0.304 0.095,-0.441c-0.176,-0.391 -1.78,-3.802 -3.932,-3.186l-3.863,1.104c-0.003,0.001 -0.005,0.003 -0.008,0.004c-0.022,0.007 -0.045,0.014 -0.066,0.025c-0.018,0.009 -0.036,0.018 -0.052,0.03c-0.004,0.003 -0.009,0.006 -0.013,0.009c-0.014,0.009 -0.027,0.02 -0.04,0.032c-0.002,0.002 -0.005,0.003 -0.008,0.006c-0.013,0.011 -0.026,0.025 -0.038,0.039c-0.001,0.001 -0.002,0.002 -0.002,0.003c-0.018,0.019 -0.032,0.039 -0.046,0.061c-0.003,0.007 -0.006,0.013 -0.01,0.02c-0.009,0.014 -0.017,0.029 -0.024,0.045c-0.003,0.009 -0.006,0.018 -0.009,0.026c-0.005,0.015 -0.009,0.03 -0.013,0.044c-0.003,0.009 -0.004,0.018 -0.005,0.028c-0.003,0.013 -0.004,0.027 -0.005,0.041c-0.002,0.01 -0.003,0.019 -0.003,0.029c0.001,0.004 0,0.007 -0,0.01c0.005,0.104 0.107,2.547 1.469,3.261Z" style="fill:#d3d3d3;fill-rule:nonzero;"/></g><g><path d="M75.605,44.38c0.579,0.303 1.282,0.257 2.088,-0.139c2.693,-1.323 4.041,-0.919 4.051,-0.916c0.142,0.048 0.315,-0.004 0.434,-0.135c0.119,-0.128 0.157,-0.304 0.095,-0.441c-0.176,-0.391 -1.78,-3.802 -3.932,-3.186l-3.863,1.104c-0.003,0.001 -0.005,0.003 -0.008,0.004c-0.022,0.007 -0.045,0.014 -0.066,0.025c-0.018,0.009 -0.036,0.018 -0.052,0.03c-0.004,0.003 -0.009,0.006 -0.013,0.009c-0.014,0.009 -0.027,0.02 -0.04,0.032c-0.002,0.002 -0.005,0.003 -0.008,0.006c-0.013,0.011 -0.026,0.025 -0.038,0.039c-0.001,0.001 -0.002,0.002 -0.002,0.003c-0.018,0.019 -0.032,0.039 -0.046,0.061c-0.003,0.007 -0.006,0.013 -0.01,0.02c-0.009,0.014 -0.017,0.029 -0.024,0.045c-0.003,0.009 -0.006,0.018 -0.009,0.026c-0.005,0.015 -0.009,0.03 -0.013,0.044c-0.003,0.009 -0.004,0.018 -0.005,0.028c-0.003,0.013 -0.004,0.027 -0.005,0.041c-0.002,0.01 -0.003,0.019 -0.003,0.029c0.001,0.004 0,0.007 -0,0.01c0.005,0.104 0.107,2.547 1.469,3.261Zm-0.575,-2.466c2.189,1.293 4.003,0.092 4.088,0.033c0.188,-0.128 0.264,-0.37 0.17,-0.539c-0.097,-0.17 -0.323,-0.203 -0.513,-0.075c-0.015,0.011 -1.512,1 -3.381,-0.164l3.026,-0.866c1.086,-0.312 2.193,1.132 2.801,2.191c-0.759,0.009 -2.01,0.206 -3.753,1.064c-0.576,0.283 -1.04,0.324 -1.421,0.124c-0.587,-0.307 -0.877,-1.111 -1.017,-1.768Z" style="fill:#808080;fill-rule:nonzero;"/></g></g><g><g><path d="M48.555,59.757c-0.375,0.48 -0.977,0.716 -1.792,0.702c-2.721,-0.049 -3.701,0.816 -3.709,0.823c-0.101,0.095 -0.264,0.12 -0.41,0.057c-0.145,-0.06 -0.24,-0.193 -0.238,-0.33c0.007,-0.395 0.122,-3.87 2.139,-4.199l3.619,-0.593c0.003,-0.001 0.005,0.001 0.008,0c0.021,-0.003 0.042,-0.005 0.064,-0.005c0.018,0.001 0.036,0.002 0.054,0.005c0.004,0.001 0.009,0.002 0.014,0.003c0.015,0.002 0.03,0.006 0.045,0.01c0.002,0.001 0.005,0.001 0.009,0.003c0.015,0.004 0.03,0.01 0.045,0.017c0.001,0.001 0.002,0.001 0.004,0.002c0.021,0.009 0.04,0.02 0.059,0.033c0.005,0.004 0.01,0.008 0.016,0.013c0.013,0.008 0.024,0.017 0.036,0.028c0.006,0.006 0.011,0.012 0.017,0.018c0.01,0.01 0.018,0.021 0.026,0.032c0.006,0.006 0.01,0.013 0.015,0.02c0.007,0.01 0.013,0.022 0.019,0.033c0.005,0.008 0.009,0.015 0.012,0.023c0.001,0.004 0.003,0.006 0.004,0.009c0.033,0.088 0.824,2.166 -0.056,3.296Z" style="fill:#d3d3d3;fill-rule:nonzero;"/></g><g><path d="M48.555,59.757c-0.375,0.48 -0.977,0.716 -1.792,0.702c-2.721,-0.049 -3.701,0.816 -3.709,0.823c-0.101,0.095 -0.264,0.12 -0.41,0.057c-0.145,-0.06 -0.24,-0.193 -0.238,-0.33c0.007,-0.395 0.122,-3.87 2.139,-4.199l3.619,-0.593c0.003,-0.001 0.005,0.001 0.008,0c0.021,-0.003 0.042,-0.005 0.064,-0.005c0.018,0.001 0.036,0.002 0.054,0.005c0.004,0.001 0.009,0.002 0.014,0.003c0.015,0.002 0.03,0.006 0.045,0.01c0.002,0.001 0.005,0.001 0.009,0.003c0.015,0.004 0.03,0.01 0.045,0.017c0.001,0.001 0.002,0.001 0.004,0.002c0.021,0.009 0.04,0.02 0.059,0.033c0.005,0.004 0.01,0.008 0.016,0.013c0.013,0.008 0.024,0.017 0.036,0.028c0.006,0.006 0.011,0.012 0.017,0.018c0.01,0.01 0.018,0.021 0.026,0.032c0.006,0.006 0.01,0.013 0.015,0.02c0.007,0.01 0.013,0.022 0.019,0.033c0.005,0.008 0.009,0.015 0.012,0.023c0.001,0.004 0.003,0.006 0.004,0.009c0.033,0.088 0.824,2.166 -0.056,3.296Zm-0.404,-2.283c-1.363,1.936 -3.307,1.645 -3.4,1.629c-0.203,-0.033 -0.353,-0.205 -0.335,-0.384c0.02,-0.179 0.197,-0.295 0.401,-0.262c0.017,0.003 1.62,0.242 2.762,-1.463l-2.835,0.464c-1.018,0.165 -1.424,1.803 -1.551,2.925c0.637,-0.29 1.751,-0.615 3.513,-0.582c0.582,0.01 0.984,-0.137 1.23,-0.453c0.38,-0.486 0.333,-1.271 0.215,-1.874Z" style="fill:#808080;fill-rule:nonzero;"/></g></g><g><g><path d="M90.308,60.696c1.011,0.574 1.659,1.691 1.925,3.321c0.888,5.444 2.82,7.087 2.834,7.099c0.211,0.167 0.314,0.484 0.253,0.797c-0.059,0.312 -0.266,0.548 -0.519,0.594c-0.723,0.128 -7.107,1.147 -8.433,-2.756l-2.382,-7.004c-0.002,-0.005 -0,-0.01 -0.002,-0.016c-0.013,-0.041 -0.026,-0.082 -0.032,-0.126c-0.005,-0.036 -0.011,-0.073 -0.01,-0.11c-0.001,-0.008 -0.001,-0.019 -0.001,-0.029c-0.001,-0.03 0.001,-0.061 0.003,-0.093c0.001,-0.005 -0,-0.011 0.001,-0.018c0.003,-0.031 0.008,-0.065 0.016,-0.097c0.001,-0.003 0.001,-0.005 0.002,-0.008c0.009,-0.045 0.022,-0.087 0.039,-0.13c0.006,-0.012 0.011,-0.024 0.017,-0.035c0.011,-0.029 0.023,-0.055 0.039,-0.083c0.009,-0.014 0.018,-0.027 0.027,-0.04c0.015,-0.023 0.032,-0.045 0.048,-0.065c0.01,-0.013 0.021,-0.023 0.033,-0.036c0.016,-0.017 0.034,-0.033 0.053,-0.049c0.012,-0.013 0.023,-0.023 0.037,-0.033c0.007,-0.003 0.011,-0.007 0.015,-0.012c0.149,-0.097 3.659,-2.421 6.037,-1.071Z" style="fill:#d3d3d3;fill-rule:nonzero;"/></g><g><path d="M90.308,60.696c1.011,0.574 1.659,1.691 1.925,3.321c0.888,5.444 2.82,7.087 2.834,7.099c0.211,0.167 0.314,0.484 0.253,0.797c-0.059,0.312 -0.266,0.548 -0.519,0.594c-0.723,0.128 -7.107,1.147 -8.433,-2.756l-2.382,-7.004c-0.002,-0.005 -0,-0.01 -0.002,-0.016c-0.013,-0.041 -0.026,-0.082 -0.032,-0.126c-0.005,-0.036 -0.011,-0.073 -0.01,-0.11c-0.001,-0.008 -0.001,-0.019 -0.001,-0.029c-0.001,-0.03 0.001,-0.061 0.003,-0.093c0.001,-0.005 -0,-0.011 0.001,-0.018c0.003,-0.031 0.008,-0.065 0.016,-0.097c0.001,-0.003 0.001,-0.005 0.002,-0.008c0.009,-0.045 0.022,-0.087 0.039,-0.13c0.006,-0.012 0.011,-0.024 0.017,-0.035c0.011,-0.029 0.023,-0.055 0.039,-0.083c0.009,-0.014 0.018,-0.027 0.027,-0.04c0.015,-0.023 0.032,-0.045 0.048,-0.065c0.01,-0.013 0.021,-0.023 0.033,-0.036c0.016,-0.017 0.034,-0.033 0.053,-0.049c0.012,-0.013 0.023,-0.023 0.037,-0.033c0.007,-0.003 0.011,-0.007 0.015,-0.012c0.149,-0.097 3.659,-2.421 6.037,-1.071Zm-4.022,1.626c4.024,2.022 4.191,6.003 4.195,6.193c0.011,0.417 -0.248,0.777 -0.581,0.806c-0.334,0.025 -0.61,-0.286 -0.623,-0.705c-0,-0.035 -0.14,-3.318 -3.661,-4.983l1.863,5.488c0.669,1.97 3.805,2.191 5.898,2.042c-0.757,-1.166 -1.752,-3.271 -2.324,-6.796c-0.192,-1.164 -0.604,-1.912 -1.27,-2.29c-1.023,-0.583 -2.439,-0.208 -3.497,0.245Z" style="fill:#808080;fill-rule:nonzero;"/></g></g><g><g><path d="M55.277,89.937c0.1,0.975 0.627,1.804 1.569,2.465c3.146,2.207 3.675,4.22 3.679,4.235c0.05,0.216 0.22,0.386 0.429,0.422c0.208,0.038 0.407,-0.066 0.499,-0.258c0.262,-0.55 2.506,-5.438 0.425,-7.577l-3.733,-3.843c-0.004,-0.003 -0.007,-0.003 -0.01,-0.006c-0.022,-0.021 -0.044,-0.043 -0.07,-0.06c-0.021,-0.014 -0.042,-0.029 -0.065,-0.038c-0.005,-0.003 -0.012,-0.006 -0.018,-0.009c-0.018,-0.01 -0.038,-0.016 -0.058,-0.023c-0.004,-0.001 -0.007,-0.003 -0.012,-0.004c-0.02,-0.007 -0.042,-0.011 -0.064,-0.014c-0.002,0 -0.004,-0 -0.005,-0c-0.031,-0.006 -0.06,-0.006 -0.091,-0.005c-0.009,0.002 -0.017,0.003 -0.026,0.005c-0.021,0 -0.04,0.003 -0.061,0.008c-0.011,0.004 -0.021,0.008 -0.032,0.012c-0.018,0.005 -0.036,0.013 -0.052,0.021c-0.011,0.004 -0.02,0.01 -0.031,0.016c-0.014,0.009 -0.029,0.019 -0.044,0.03c-0.01,0.006 -0.02,0.012 -0.029,0.021c-0.004,0.005 -0.008,0.007 -0.011,0.009c-0.098,0.094 -2.424,2.299 -2.189,4.593Z" style="fill:#d3d3d3;fill-rule:nonzero;"/></g><g><path d="M55.277,89.937c0.1,0.975 0.627,1.804 1.569,2.465c3.146,2.207 3.675,4.22 3.679,4.235c0.05,0.216 0.22,0.386 0.429,0.422c0.208,0.038 0.407,-0.066 0.499,-0.258c0.262,-0.55 2.506,-5.438 0.425,-7.577l-3.733,-3.843c-0.004,-0.003 -0.007,-0.003 -0.01,-0.006c-0.022,-0.021 -0.044,-0.043 -0.07,-0.06c-0.021,-0.014 -0.042,-0.029 -0.065,-0.038c-0.005,-0.003 -0.012,-0.006 -0.018,-0.009c-0.018,-0.01 -0.038,-0.016 -0.058,-0.023c-0.004,-0.001 -0.007,-0.003 -0.012,-0.004c-0.02,-0.007 -0.042,-0.011 -0.064,-0.014c-0.002,0 -0.004,-0 -0.005,-0c-0.031,-0.006 -0.06,-0.006 -0.091,-0.005c-0.009,0.002 -0.017,0.003 -0.026,0.005c-0.021,0 -0.04,0.003 -0.061,0.008c-0.011,0.004 -0.021,0.008 -0.032,0.012c-0.018,0.005 -0.036,0.013 -0.052,0.021c-0.011,0.004 -0.02,0.01 -0.031,0.016c-0.014,0.009 -0.029,0.019 -0.044,0.03c-0.01,0.006 -0.02,0.012 -0.029,0.021c-0.004,0.005 -0.008,0.007 -0.011,0.009c-0.098,0.094 -2.424,2.299 -2.189,4.593Zm2.023,-2.811c0.235,3.809 2.657,5.032 2.774,5.088c0.255,0.123 0.543,0.012 0.645,-0.25c0.1,-0.263 -0.022,-0.572 -0.279,-0.697c-0.021,-0.01 -2.018,-1.02 -2.159,-4.325l2.926,3.009c1.051,1.079 0.395,3.677 -0.226,5.33c-0.53,-0.931 -1.582,-2.311 -3.62,-3.738c-0.672,-0.474 -1.031,-1.012 -1.097,-1.654c-0.102,-0.988 0.488,-2.031 1.036,-2.763Z" style="fill:#808080;fill-rule:nonzero;"/></g></g><g><path d="M62.926,29c0.061,0.011 0.122,0.035 0.177,0.072c0.234,0.161 0.353,0.542 0.257,0.82c-0.046,0.132 -0.138,0.234 -0.251,0.274c-0.118,0.043 -0.246,0.018 -0.362,-0.057c-0.116,-0.081 -0.207,-0.215 -0.254,-0.366c-0.047,-0.15 -0.051,-0.315 -0.002,-0.453c0.022,-0.067 0.057,-0.124 0.101,-0.171c0.046,-0.055 0.098,-0.087 0.154,-0.107c0.057,-0.02 0.117,-0.028 0.18,-0.012Z" style="fill:#808080;fill-rule:nonzero;"/></g><g><path d="M70.42,18.931c0.052,-0.008 0.099,-0.004 0.149,0.008c0.048,0.004 0.098,0.017 0.144,0.042c0.053,0.021 0.099,0.046 0.138,0.073c0.049,0.034 0.091,0.07 0.133,0.105c0.039,0.049 0.083,0.094 0.115,0.144c0.038,0.049 0.062,0.101 0.093,0.151c0.137,0.29 0.165,0.626 0.069,0.905c-0.073,0.21 -0.221,0.375 -0.401,0.439c-0.097,0.034 -0.188,0.036 -0.292,0.022c-0.098,-0.017 -0.194,-0.055 -0.283,-0.115c-0.09,-0.07 -0.178,-0.152 -0.247,-0.249c-0.07,-0.099 -0.12,-0.213 -0.158,-0.333c-0.018,-0.056 -0.038,-0.119 -0.044,-0.188c-0.011,-0.059 -0.013,-0.119 -0.017,-0.179c0.004,-0.062 0.006,-0.125 0.01,-0.187c0.013,-0.056 0.027,-0.111 0.047,-0.17c0.08,-0.211 0.221,-0.375 0.407,-0.441c0.042,-0.014 0.094,-0.022 0.137,-0.027Z" style="fill:#808080;fill-rule:nonzero;"/></g><g><path d="M72.593,2.936c0.032,-0.005 0.061,-0.002 0.092,0.005c0.028,0.003 0.059,0.011 0.087,0.026c0.031,0.008 0.06,0.028 0.085,0.045c0.06,0.042 0.109,0.093 0.151,0.153c0.085,0.12 0.134,0.277 0.134,0.427c0.002,0.08 -0.01,0.147 -0.035,0.218c-0.009,0.028 -0.024,0.058 -0.042,0.09c-0.014,0.03 -0.034,0.057 -0.056,0.077c-0.02,0.025 -0.042,0.046 -0.07,0.061c-0.023,0.015 -0.051,0.031 -0.076,0.04c-0.031,0.01 -0.058,0.013 -0.089,0.018c-0.027,0.004 -0.06,0.003 -0.09,-0.005c-0.029,-0.002 -0.056,-0.011 -0.089,-0.024c-0.028,-0.015 -0.056,-0.03 -0.084,-0.045c-0.056,-0.043 -0.107,-0.088 -0.151,-0.153c-0.043,-0.06 -0.074,-0.13 -0.097,-0.203c-0.023,-0.074 -0.037,-0.149 -0.037,-0.225c-0,-0.075 0.015,-0.149 0.034,-0.218c0.05,-0.129 0.135,-0.229 0.25,-0.269c0.025,-0.009 0.056,-0.014 0.083,-0.018Z" style="fill:#808080;fill-rule:nonzero;"/></g><g><path d="M85.13,28.833c0.085,0.015 0.169,0.047 0.246,0.099c0.203,0.134 0.352,0.394 0.399,0.672c0.003,0.053 0.012,0.103 0.009,0.158c0.003,0.052 -0.005,0.108 -0.009,0.163c-0.011,0.049 -0.023,0.098 -0.041,0.149c-0.031,0.091 -0.08,0.171 -0.14,0.237c-0.06,0.067 -0.131,0.118 -0.21,0.145c-0.085,0.03 -0.164,0.033 -0.256,0.02c-0.085,-0.015 -0.169,-0.047 -0.246,-0.101c-0.043,-0.029 -0.079,-0.06 -0.116,-0.092c-0.033,-0.042 -0.067,-0.084 -0.1,-0.125c-0.027,-0.044 -0.055,-0.088 -0.076,-0.134c-0.029,-0.052 -0.048,-0.109 -0.062,-0.157c-0.066,-0.209 -0.071,-0.439 -0.004,-0.632c0.032,-0.091 0.081,-0.171 0.141,-0.238c0.066,-0.067 0.131,-0.117 0.215,-0.147c0.078,-0.029 0.165,-0.031 0.25,-0.017Z" style="fill:#808080;fill-rule:nonzero;"/></g><g><path d="M60.106,4.641c0.044,-0.006 0.083,-0.002 0.126,0.008c0.04,0.003 0.083,0.015 0.122,0.035c0.044,0.018 0.083,0.039 0.117,0.062c0.083,0.057 0.151,0.129 0.21,0.212c0.091,0.124 0.152,0.275 0.177,0.44c0.003,0.051 0.012,0.1 0.009,0.154c0.003,0.05 -0.006,0.106 -0.009,0.158c-0.011,0.048 -0.022,0.095 -0.04,0.144c-0.061,0.178 -0.186,0.318 -0.339,0.372c-0.083,0.029 -0.16,0.031 -0.249,0.019c-0.082,-0.014 -0.164,-0.046 -0.239,-0.098c-0.042,-0.028 -0.078,-0.058 -0.107,-0.092c-0.039,-0.039 -0.071,-0.079 -0.103,-0.119c-0.026,-0.042 -0.053,-0.086 -0.074,-0.131c-0.029,-0.05 -0.045,-0.105 -0.061,-0.151c-0.063,-0.204 -0.068,-0.427 -0.003,-0.615c0.067,-0.179 0.194,-0.319 0.346,-0.373c0.035,-0.012 0.079,-0.02 0.117,-0.025Z" style="fill:#808080;fill-rule:nonzero;"/></g><g><path d="M67.486,38.197c0.031,-0.005 0.06,-0.002 0.091,0.005c0.029,0.003 0.059,0.01 0.087,0.025c0.033,0.014 0.06,0.029 0.085,0.045c0.059,0.042 0.108,0.093 0.15,0.153c0.065,0.088 0.109,0.197 0.128,0.316c0.001,0.036 0.008,0.071 0.006,0.11c0.002,0.036 -0.005,0.076 -0.006,0.113c-0.008,0.034 -0.017,0.069 -0.029,0.104c-0.044,0.127 -0.135,0.227 -0.244,0.266c-0.059,0.021 -0.114,0.022 -0.178,0.014c-0.06,-0.01 -0.118,-0.033 -0.172,-0.07c-0.03,-0.02 -0.056,-0.043 -0.077,-0.066c-0.027,-0.028 -0.051,-0.057 -0.074,-0.085c-0.019,-0.032 -0.038,-0.062 -0.053,-0.094c-0.02,-0.036 -0.033,-0.076 -0.043,-0.109c-0.046,-0.146 -0.049,-0.307 -0.002,-0.441c0.047,-0.129 0.138,-0.229 0.248,-0.268c0.025,-0.009 0.056,-0.014 0.083,-0.018Z" style="fill:#808080;fill-rule:nonzero;"/></g></g></svg>