<?xml version="1.0" encoding="UTF-8" standalone="no"?><!DOCTYPE svg PUBLIC "-//W3C//DTD SVG 1.1//EN" "http://www.w3.org/Graphics/SVG/1.1/DTD/svg11.dtd"><svg width="100%" height="100%" viewBox="0 0 100 100" version="1.1" xmlns="http://www.w3.org/2000/svg" xmlns:xlink="http://www.w3.org/1999/xlink" xml:space="preserve" xmlns:serif="http://www.serif.com/" style="fill-rule:evenodd;clip-rule:evenodd;stroke-linejoin:round;stroke-miterlimit:2;"><path d="M68.509,49.677c-0.272,-3.329 -0.053,-10.937 4.419,-15.591c3.107,-3.234 7.68,-3.929 13.599,-2.071c5.028,1.58 8.305,5.339 9.227,10.585c1.138,6.487 -1.745,14.143 -7.174,19.047c-4.072,3.678 -9.009,5.528 -14.39,5.528c-4.568,0 -9.454,-1.332 -14.399,-4.011c-27.917,-15.133 -58.43,-1.991 -58.788,-2.994c-0.357,-1.004 30.928,-16.443 60.239,-0.56c9.562,5.188 18.762,4.801 25.235,-1.051c4.439,-4.011 6.825,-10.114 5.935,-15.182c-0.662,-3.77 -3.006,-6.389 -6.782,-7.575c-4.72,-1.483 -8.222,-1.081 -10.411,1.19c-4.157,4.316 -2.81,14.162 -2.796,14.261c0.151,1.069 0.877,5.515 4.667,4.736c5.545,-1.141 9.069,-3.841 9.666,-7.407c0.464,-2.772 -1.005,-5.699 -3.656,-7.283c-0.844,-0.506 -2.002,-0.985 -2.722,-0.407c-1.181,0.95 -1.414,4.416 -1.343,5.946c0.037,0.784 -0.472,1.49 -1.135,1.579c-0.665,0.091 -1.233,-0.473 -1.271,-1.255c-0.033,-0.649 -0.236,-6.422 2.471,-8.601c1.064,-0.858 2.34,-1.021 3.809,-0.492c0.44,0.16 0.899,0.381 1.373,0.664c3.563,2.131 5.507,6.25 4.837,10.25c-0.385,2.305 -2.303,7.876 -11.749,9.82c-7.392,1.518 -8.415,-3.695 -8.861,-9.126Z" style="fill:#d3d3d3;"/><path d="M2.259,42.641c-0.595,1.092 28.572,10.528 51.416,-6.25c15.475,-11.373 14.542,-19.703 13.424,-22.757c-1.944,-5.301 -8.687,-8.217 -16.777,-7.259c-1.079,0.128 -2.078,0.312 -2.996,0.553c-3.061,0.8 -5.231,2.22 -6.471,4.246c-3.155,5.145 1.839,11.615 2.322,12.39c2.003,3.206 3.706,3.857 3.706,3.857c6.378,4.714 11.869,-5.333 11.838,-9.221c-0.004,-0.518 -0.044,-0.994 -0.117,-1.426c-0.247,-1.445 -0.879,-2.418 -1.891,-2.902c-2.57,-1.232 -5.38,2.558 -5.713,3.333c-0.273,0.635 -0.654,1.106 -0.321,1.61c0.332,0.505 1.014,0.6 1.524,0.215c0.997,-0.751 2.35,-3.591 3.471,-3.053c0.682,0.328 0.835,1.495 0.843,2.417c0.023,2.892 -1.338,5.422 -3.386,6.298c-1.808,0.771 -2.572,-0.431 -4.691,-2.147c-0,0 -0.66,-1.005 -1.187,-1.68c-1.332,-1.711 -3.64,-5.968 -2.262,-8.212c0.843,-1.367 3.304,-1.927 5.222,-2.154c6.018,-0.712 10.966,1.275 12.313,4.947c1.732,4.726 -2.486,11.266 -11.571,17.942c-20.464,15.041 -48.106,8.159 -48.696,9.253Z" style="fill:#d3d3d3;fill-rule:nonzero;"/><path d="M6.995,75.048c-0.758,-0.857 18.949,-21.124 41.079,-13.105c14.994,5.44 16.588,14.025 16.578,17.463c-0.019,5.969 -4.37,11.381 -10.828,13.468c-0.861,0.279 -1.678,0.471 -2.445,0.578c-2.565,0.356 -4.619,-0.234 -6.129,-1.771c-3.841,-3.904 -1.811,-12.173 -1.656,-13.12c0.644,-3.921 1.768,-5.202 1.768,-5.202c3.575,-7.053 10.56,0.819 11.614,4.674c0.14,0.514 0.241,0.999 0.305,1.456c0.211,1.52 -0.003,2.719 -0.643,3.577c-1.625,2.18 -5.295,0.851 -5.707,0.692c-0.496,-0.19 -0.806,-0.848 -0.691,-1.471c0.114,-0.623 0.609,-0.974 1.107,-0.785c0.97,0.37 3.204,0.825 3.913,-0.127c0.43,-0.582 0.224,-1.792 -0.025,-2.706c-0.783,-2.867 -2.526,-4.858 -4.336,-4.955c-1.597,-0.086 -1.849,1.388 -2.995,3.88c-0,0 -0.227,1.242 -0.443,2.106c-0.545,2.192 -1.132,7.266 0.544,8.968c1.023,1.035 3.063,0.664 4.593,0.17c4.804,-1.552 8.039,-5.374 8.052,-9.509c0.017,-5.321 -5.023,-10.205 -13.826,-13.397c-19.828,-7.194 -39.074,9.976 -39.829,9.116Z" style="fill:#d3d3d3;fill-rule:nonzero;"/></svg>