<?xml version="1.0" encoding="UTF-8" standalone="no"?><!DOCTYPE svg PUBLIC "-//W3C//DTD SVG 1.1//EN" "http://www.w3.org/Graphics/SVG/1.1/DTD/svg11.dtd"><svg width="100%" height="100%" viewBox="0 0 100 100" version="1.1" xmlns="http://www.w3.org/2000/svg" xmlns:xlink="http://www.w3.org/1999/xlink" xml:space="preserve" xmlns:serif="http://www.serif.com/" style="fill-rule:evenodd;clip-rule:evenodd;stroke-linecap:round;stroke-linejoin:round;stroke-miterlimit:1.5;"><path d="M14.197,21.207c7.509,1.163 13.433,7.087 14.596,14.596c0.04,0.263 0.372,0.263 0.414,0c1.163,-7.509 7.087,-13.433 14.596,-14.596c0.263,-0.04 0.263,-0.372 0,-0.414c-7.511,-1.163 -13.436,-7.087 -14.598,-14.596c-0.04,-0.263 -0.372,-0.263 -0.415,-0c-1.16,7.509 -7.084,13.433 -14.593,14.596c-0.263,0.04 -0.263,0.372 -0,0.414Z" style="fill:#ffffe0;fill-rule:nonzero;"/><path d="M14.197,21.207c7.509,1.163 13.433,7.087 14.596,14.596c0.04,0.263 0.372,0.263 0.414,0c1.163,-7.509 7.087,-13.433 14.596,-14.596c0.263,-0.04 0.263,-0.372 0,-0.414c-7.511,-1.163 -13.436,-7.087 -14.598,-14.596c-0.04,-0.263 -0.372,-0.263 -0.415,-0c-1.16,7.509 -7.084,13.433 -14.593,14.596c-0.263,0.04 -0.263,0.372 -0,0.414Zm14.802,-7.027c1.699,2.779 4.042,5.122 6.822,6.821c-2.78,1.699 -5.123,4.041 -6.821,6.821c-1.7,-2.781 -4.042,-5.124 -6.822,-6.822c2.78,-1.699 5.122,-4.041 6.821,-6.82Z" style="fill:#ffd700;"/><path d="M72.577,26.572c-3.336,-0.516 -5.968,-3.148 -6.485,-6.485c-0.017,-0.116 -0.167,-0.116 -0.184,-0c-0.516,3.336 -3.148,5.968 -6.485,6.485c-0.116,0.017 -0.116,0.166 0,0.184c3.336,0.515 5.968,3.147 6.485,6.484c0.017,0.116 0.167,0.116 0.184,0c0.516,-3.335 3.148,-5.967 6.485,-6.484c0.116,-0.018 0.116,-0.166 -0,-0.184Z" style="fill:#ffffe0;fill-rule:nonzero;"/><path d="M72.577,26.572c-3.336,-0.516 -5.968,-3.148 -6.485,-6.485c-0.017,-0.116 -0.167,-0.116 -0.184,-0c-0.516,3.336 -3.148,5.968 -6.485,6.485c-0.116,0.017 -0.116,0.166 0,0.184c3.336,0.515 5.968,3.147 6.485,6.484c0.017,0.116 0.167,0.116 0.184,0c0.516,-3.335 3.148,-5.967 6.485,-6.484c0.116,-0.018 0.116,-0.166 -0,-0.184Zm-6.576,-2.758c0.727,1.148 1.702,2.122 2.849,2.85c-1.148,0.728 -2.123,1.702 -2.851,2.849c-0.727,-1.148 -1.702,-2.122 -2.849,-2.85c1.148,-0.728 2.123,-1.702 2.851,-2.849Z" style="fill:#ffd700;"/><path d="M89.935,14.931c-2.484,-0.387 -4.444,-2.363 -4.827,-4.865c-0.014,-0.088 -0.124,-0.088 -0.137,-0c-0.384,2.504 -2.344,4.479 -4.827,4.865c-0.087,0.014 -0.087,0.125 0,0.138c2.484,0.387 4.444,2.363 4.827,4.865c0.014,0.088 0.124,0.088 0.137,0c0.384,-2.504 2.344,-4.479 4.827,-4.865c0.087,-0.013 0.087,-0.124 -0,-0.138Z" style="fill:#ffffe0;fill-rule:nonzero;"/><path d="M89.935,14.931c-2.484,-0.387 -4.444,-2.363 -4.827,-4.865c-0.014,-0.088 -0.124,-0.088 -0.137,-0c-0.384,2.504 -2.344,4.479 -4.827,4.865c-0.087,0.014 -0.087,0.125 0,0.138c2.484,0.387 4.444,2.363 4.827,4.865c0.014,0.088 0.124,0.088 0.137,0c0.384,-2.504 2.344,-4.479 4.827,-4.865c0.087,-0.013 0.087,-0.124 -0,-0.138Zm-4.896,-2.192c0.562,0.922 1.336,1.698 2.252,2.262c-0.917,0.564 -1.689,1.34 -2.251,2.26c-0.562,-0.921 -1.335,-1.697 -2.251,-2.261c0.916,-0.563 1.689,-1.34 2.25,-2.261Z" style="fill:#ffd700;"/><g><path d="M42.067,87.373c-7.956,3.958 -16.234,3.818 -20.567,-1.003c-0.815,-0.906 -1.448,-1.932 -1.904,-3.047c-1.003,0.208 -2.044,0.312 -3.111,0.312c-8.548,-0 -15.485,-6.841 -15.485,-15.272c-0,-8.431 6.937,-15.272 15.485,-15.272l0.211,0c1.463,-7.396 10.226,-13.091 20.808,-13.091c9.848,0 18.118,4.932 20.4,11.574c7.096,-7.121 16.344,-3.83 20.685,1.042c0.811,0.907 1.437,1.937 1.881,3.051c1.008,-0.2 2.052,-0.299 3.115,-0.295c8.552,0.044 15.452,6.921 15.415,15.347c-0.041,8.431 -7.015,15.24 -15.563,15.196l-0.211,0c-1.496,7.388 -10.289,13.044 -20.874,12.992c-9.771,-0.048 -17.974,-4.949 -20.285,-11.534Z" style="fill:#d3d3d3;"/><path d="M82.257,88.754c-2.893,5.95 -10.725,10.198 -19.905,10.153c-9.771,-0.048 -17.974,-4.949 -20.285,-11.534c-7.956,3.958 -16.234,3.818 -20.567,-1.003c-0.815,-0.906 -1.448,-1.932 -1.904,-3.047c-1.003,0.208 -2.044,0.312 -3.111,0.312c-8.548,-0 -15.485,-6.841 -15.485,-15.272c-0,-8.431 6.937,-15.272 15.485,-15.272l0.211,0c1.463,-7.396 10.226,-13.091 20.808,-13.091c9.848,0 18.118,4.932 20.4,11.574c7.096,-7.121 16.344,-3.83 20.685,1.042c0.811,0.907 1.437,1.937 1.881,3.051c1.008,-0.2 2.052,-0.299 3.115,-0.295c8.552,0.044 15.452,6.921 15.415,15.347c-0.041,8.431 -7.015,15.24 -15.563,15.196l-0.211,0c-0.06,0.296 -0.132,0.588 -0.216,0.879c-0.133,-1.727 -0.178,-3.879 0.421,-3.879c0.027,0 0.054,0.001 0.08,0c6.854,0.004 12.456,-5.443 12.489,-12.21c0.029,-6.782 -5.545,-12.297 -12.428,-12.333c-0.86,-0.003 -1.704,0.076 -2.518,0.238c-1.418,0.281 -2.835,-0.489 -3.37,-1.831c-0.315,-0.79 -0.756,-1.521 -1.331,-2.163c-0.001,-0.001 -0.003,-0.003 -0.004,-0.004c-3.426,-3.846 -10.72,-6.54 -16.321,-0.921c-0.731,0.734 -1.789,1.039 -2.798,0.806c-1.009,-0.232 -1.827,-0.969 -2.164,-1.949c-1.944,-5.66 -9.169,-9.548 -17.562,-9.548c-8.958,0 -16.626,4.412 -17.865,10.673c-0.278,1.406 -1.51,2.418 -2.943,2.418l-0.211,0c-6.881,0 -12.485,5.486 -12.485,12.272c-0,6.786 5.604,12.272 12.485,12.272c0.858,-0 1.696,-0.082 2.503,-0.249c1.416,-0.293 2.838,0.464 3.385,1.802c0.325,0.796 0.776,1.53 1.358,2.177c3.578,3.98 10.43,3.59 16.999,0.322c0.771,-0.383 1.668,-0.417 2.466,-0.094c0.797,0.324 1.416,0.975 1.701,1.786c1.971,5.616 9.138,9.487 17.469,9.528c8.961,0.044 16.653,-4.333 17.919,-10.587c-0.178,0.882 0.049,1.798 0.618,2.494c0.359,0.439 0.83,0.761 1.354,0.94Z" style="fill:#808080;"/><path d="M54.999,66.41c5.351,-12.493 27.714,-4.924 21.658,10.05" style="fill:#d3d3d3;stroke:#808080;stroke-width:3px;"/><path d="M17.031,66.453c-4.441,-7.137 4.14,-15.335 10.969,-12.24" style="fill:#d3d3d3;stroke:#808080;stroke-width:3px;"/><path d="M43.29,72.453c1.984,-8.168 13.846,-7.784 16.42,-0.743" style="fill:#d3d3d3;stroke:#808080;stroke-width:3px;"/><path d="M24.917,87.263c-7.662,-5.099 -3.391,-16.407 4.615,-16.151" style="fill:#d3d3d3;stroke:#808080;stroke-width:3px;"/></g></svg>