<?xml version="1.0" encoding="UTF-8" standalone="no"?><!DOCTYPE svg PUBLIC "-//W3C//DTD SVG 1.1//EN" "http://www.w3.org/Graphics/SVG/1.1/DTD/svg11.dtd"><svg width="100%" height="100%" viewBox="0 0 100 100" version="1.1" xmlns="http://www.w3.org/2000/svg" xmlns:xlink="http://www.w3.org/1999/xlink" xml:space="preserve" xmlns:serif="http://www.serif.com/" style="fill-rule:evenodd;clip-rule:evenodd;stroke-linecap:round;stroke-linejoin:round;stroke-miterlimit:1.5;"><path d="M100,50c0,27.596 -22.404,50 -50,50c-27.596,0 -50,-22.404 -50,-50c0,-27.596 22.404,-50 50,-50c27.596,-0 50,22.404 50,50Z" style="fill:#e0e0d5;"/><path d="M100,50c0,27.596 -22.404,50 -50,50c-27.596,0 -50,-22.404 -50,-50c0,-27.596 22.404,-50 50,-50c27.596,-0 50,22.404 50,50Zm-3,-0c0,25.94 -21.06,47 -47,47c-25.94,0 -47,-21.06 -47,-47c0,-25.94 21.06,-47 47,-47c25.94,-0 47,21.06 47,47Z" style="fill:#122f41;"/><path d="M50,0c11.038,0 20,22.404 20,50c0,27.596 -8.962,50 -20,50c-11.038,0 -20,-22.404 -20,-50c-0,-27.596 8.962,-50 20,-50Zm-0,3c3.541,0 6.52,3.223 9.175,8.089c4.787,8.774 7.825,22.949 7.825,38.911c0,15.962 -3.038,30.137 -7.825,38.911c-2.655,4.866 -5.634,8.089 -9.175,8.089c-3.541,0 -6.52,-3.223 -9.175,-8.089c-4.787,-8.774 -7.825,-22.949 -7.825,-38.911c-0,-15.962 3.038,-30.137 7.825,-38.911c2.655,-4.866 5.634,-8.089 9.175,-8.089Z" style="fill:#122f41;"/><path d="M50,0c22.077,0 40,22.404 40,50c0,27.596 -17.923,50 -40,50c-22.077,0 -40,-22.404 -40,-50c0,-27.596 17.923,-50 40,-50Zm0,3c20.623,0 37,21.221 37,47c0,25.779 -16.377,47 -37,47c-20.623,0 -37,-21.221 -37,-47c0,-25.779 16.377,-47 37,-47Z" style="fill:#122f41;"/><path d="M50,97l-0,-94" style="fill:none;stroke:#122f41;stroke-width:3px;"/><path d="M100,50l-50,20l-50,-20l50,-20l50,20Z" style="fill:#122f41;"/></svg>