<?xml version="1.0" encoding="UTF-8" standalone="no"?><!DOCTYPE svg PUBLIC "-//W3C//DTD SVG 1.1//EN" "http://www.w3.org/Graphics/SVG/1.1/DTD/svg11.dtd"><svg width="100%" height="100%" viewBox="0 0 100 100" version="1.1" xmlns="http://www.w3.org/2000/svg" xmlns:xlink="http://www.w3.org/1999/xlink" xml:space="preserve" xmlns:serif="http://www.serif.com/" style="fill-rule:evenodd;clip-rule:evenodd;stroke-linejoin:round;stroke-miterlimit:2;"><g id="SVGRepo_iconCarrier"><g><path d="M55.582,60l-10.991,-0l-4.417,-40l19.826,-0l-4.418,40Z" style="fill-rule:nonzero;"/><circle cx="50" cy="72.5" r="7.5"/></g><path d="M57.682,88.038c-2.483,0.5 -5.052,0.762 -7.682,0.762c-2.63,-0 -5.199,-0.262 -7.682,-0.762l-2.515,9.386c3.286,0.705 6.698,1.076 10.197,1.076c3.499,-0 6.911,-0.371 10.197,-1.076l-2.515,-9.386Zm17.98,-8.946c-3.834,3.385 -8.342,6.025 -13.295,7.692l2.515,9.386c6.616,-2.134 12.612,-5.651 17.649,-10.21l-6.869,-6.868Zm-51.324,-0l-6.869,6.868c5.038,4.56 11.034,8.077 17.649,10.21l2.515,-9.386c-4.953,-1.666 -9.461,-4.307 -13.295,-7.692Zm-11.122,-16.725l-9.386,2.515c2.134,6.616 5.651,12.612 10.21,17.649l6.868,-6.869c-3.385,-3.834 -6.025,-8.342 -7.692,-13.295Zm73.568,-0c-1.666,4.953 -4.307,9.461 -7.692,13.295l6.868,6.869c4.56,-5.038 8.077,-11.034 10.21,-17.649l-9.386,-2.515Zm-84.208,-22.564c-0.705,3.286 -1.076,6.698 -1.076,10.197c0,3.499 0.371,6.911 1.076,10.197l9.386,-2.515c-0.5,-2.483 -0.762,-5.052 -0.762,-7.682c-0,-2.63 0.262,-5.199 0.762,-7.682l-9.386,-2.515Zm94.848,0l-9.386,2.515c0.5,2.483 0.762,5.052 0.762,7.682c-0,2.63 -0.262,5.199 -0.762,7.682l9.386,2.515c0.705,-3.286 1.076,-6.698 1.076,-10.197c-0,-3.499 -0.371,-6.911 -1.076,-10.197Zm-83.384,-22.334c-4.56,5.038 -8.077,11.034 -10.21,17.649l9.386,2.515c1.666,-4.953 4.307,-9.461 7.692,-13.295l-6.868,-6.869Zm71.92,0l-6.868,6.869c3.385,3.834 6.025,8.342 7.692,13.295l9.386,-2.515c-2.134,-6.616 -5.651,-12.612 -10.21,-17.649Zm-21.078,-13.639l-2.515,9.386c4.953,1.666 9.461,4.307 13.295,7.692l6.869,-6.868c-5.038,-4.56 -11.034,-8.077 -17.649,-10.21Zm-29.764,-0c-6.616,2.134 -12.612,5.651 -17.649,10.21l6.869,6.868c3.834,-3.385 8.342,-6.025 13.295,-7.692l-2.515,-9.386Zm4.685,-1.254l2.515,9.386c2.483,-0.5 5.052,-0.762 7.682,-0.762c2.63,0 5.199,0.262 7.682,0.762l2.515,-9.386c-3.286,-0.705 -6.698,-1.076 -10.197,-1.076c-3.499,0 -6.911,0.371 -10.197,1.076Z"/></g></svg>