<?xml version="1.0" encoding="UTF-8" standalone="no"?><!DOCTYPE svg PUBLIC "-//W3C//DTD SVG 1.1//EN" "http://www.w3.org/Graphics/SVG/1.1/DTD/svg11.dtd"><svg width="100%" height="100%" viewBox="0 0 100 100" version="1.1" xmlns="http://www.w3.org/2000/svg" xmlns:xlink="http://www.w3.org/1999/xlink" xml:space="preserve" xmlns:serif="http://www.serif.com/" style="fill-rule:evenodd;clip-rule:evenodd;stroke-linejoin:round;stroke-miterlimit:2;"><path d="M37,53l-1,11.545l3.648,5.724l-4.527,7.467l0.973,8.3l-2.552,10.013l4.521,-10.557l0.1,-6.724l3.973,-6.915l6.135,2.869l6.187,12.521l-2.393,-13.819l-10.775,-7.238l-1.29,-3.186l3,-9l-6,-1Z" style="fill:#ff3;stroke:#f8d514;stroke-width:1px;"/><g><path d="M42.067,57.373c-7.956,3.958 -16.234,3.818 -20.567,-1.003c-0.815,-0.906 -1.448,-1.932 -1.904,-3.047c-1.003,0.208 -2.044,0.312 -3.111,0.312c-8.548,-0 -15.485,-6.841 -15.485,-15.272c-0,-8.431 6.937,-15.272 15.485,-15.272l0.211,0c1.463,-7.396 10.226,-13.091 20.808,-13.091c9.848,-0 18.118,4.932 20.4,11.574c7.096,-7.121 16.344,-3.83 20.685,1.042c0.811,0.907 1.437,1.937 1.881,3.051c1.008,-0.2 2.052,-0.299 3.115,-0.295c8.552,0.044 15.452,6.921 15.415,15.347c-0.041,8.431 -7.015,15.24 -15.563,15.196l-0.211,0c-1.496,7.388 -10.289,13.044 -20.874,12.992c-9.771,-0.048 -17.974,-4.949 -20.285,-11.534Z" style="fill:#d3d3d3;"/><path d="M82.257,58.754c-2.893,5.95 -10.725,10.198 -19.905,10.153c-9.771,-0.048 -17.974,-4.949 -20.285,-11.534c-7.956,3.958 -16.234,3.818 -20.567,-1.003c-0.815,-0.906 -1.448,-1.932 -1.904,-3.047c-1.003,0.208 -2.044,0.312 -3.111,0.312c-8.548,-0 -15.485,-6.841 -15.485,-15.272c-0,-8.431 6.937,-15.272 15.485,-15.272l0.211,0c1.463,-7.396 10.226,-13.091 20.808,-13.091c9.848,0 18.118,4.932 20.4,11.574c7.096,-7.121 16.344,-3.83 20.685,1.042c0.811,0.907 1.437,1.937 1.881,3.051c1.008,-0.2 2.052,-0.299 3.115,-0.295c8.552,0.044 15.452,6.921 15.415,15.347c-0.041,8.431 -7.015,15.24 -15.563,15.196l-0.211,0c-0.134,0.662 -0.327,1.31 -0.575,1.942c-0.862,-1.722 -2.108,-4.942 0.597,-4.942c0.074,0 0.142,0.011 0.204,0.034l0,-0.034c6.881,0.036 12.515,-5.424 12.548,-12.21c0.029,-6.782 -5.545,-12.297 -12.428,-12.333c-0.86,-0.003 -1.704,0.076 -2.518,0.238c-1.418,0.281 -2.835,-0.489 -3.37,-1.831c-0.315,-0.79 -0.756,-1.521 -1.331,-2.163c-0.001,-0.001 -0.003,-0.003 -0.004,-0.004c-3.426,-3.846 -10.72,-6.54 -16.321,-0.921c-0.731,0.734 -1.789,1.039 -2.798,0.806c-1.009,-0.232 -1.827,-0.969 -2.164,-1.949c-1.944,-5.66 -9.169,-9.548 -17.562,-9.548c-8.958,0 -16.626,4.412 -17.865,10.673c-0.278,1.406 -1.51,2.418 -2.943,2.418l-0.211,0c-6.881,0 -12.485,5.486 -12.485,12.272c-0,6.786 5.604,12.272 12.485,12.272c0.858,-0 1.696,-0.082 2.503,-0.249c1.416,-0.293 2.838,0.464 3.385,1.802c0.325,0.796 0.776,1.53 1.358,2.177c3.578,3.98 10.43,3.59 16.999,0.322c0.771,-0.383 1.668,-0.417 2.466,-0.094c0.797,0.324 1.416,0.975 1.701,1.786c1.971,5.616 9.138,9.487 17.469,9.528c8.961,0.044 16.653,-4.333 17.919,-10.587c-0.178,0.882 0.049,1.798 0.618,2.494c0.359,0.439 0.83,0.761 1.354,0.94Z" style="fill:#808080;"/><path d="M54.999,36.41c5.351,-12.493 27.714,-4.924 21.658,10.05" style="fill:#d3d3d3;stroke:#808080;stroke-width:3px;stroke-linecap:round;stroke-miterlimit:1.5;"/><path d="M17.031,36.453c-4.441,-7.137 4.14,-15.335 10.969,-12.24" style="fill:#d3d3d3;stroke:#808080;stroke-width:3px;stroke-linecap:round;stroke-miterlimit:1.5;"/><path d="M43.29,42.453c1.984,-8.168 13.846,-7.784 16.42,-0.743" style="fill:#d3d3d3;stroke:#808080;stroke-width:3px;stroke-linecap:round;stroke-miterlimit:1.5;"/><path d="M24.543,57c-7.673,-5.082 -2.781,-17.264 5.457,-17.334" style="fill:#d3d3d3;stroke:#808080;stroke-width:3px;stroke-linecap:round;stroke-miterlimit:1.5;"/></g></svg>