<?xml version="1.0" encoding="UTF-8" standalone="no"?><!DOCTYPE svg PUBLIC "-//W3C//DTD SVG 1.1//EN" "http://www.w3.org/Graphics/SVG/1.1/DTD/svg11.dtd"><svg width="100%" height="100%" viewBox="0 0 100 100" version="1.1" xmlns="http://www.w3.org/2000/svg" xmlns:xlink="http://www.w3.org/1999/xlink" xml:space="preserve" xmlns:serif="http://www.serif.com/" style="fill-rule:evenodd;clip-rule:evenodd;stroke-linecap:square;stroke-miterlimit:1.5;"><path d="M100,49.932c0,-27.633 -22.404,-50.068 -50,-50.068c-27.596,0 -50,22.435 -50,50.068c0,27.633 22.404,50.068 50,50.068c27.596,-0 50,-22.435 50,-50.068Z" style="fill:#e0e0d5;"/><path d="M100,49.932c0,-27.633 -22.404,-50.068 -50,-50.068c-27.596,0 -50,22.435 -50,50.068c0,27.633 22.404,50.068 50,50.068c27.596,-0 50,-22.435 50,-50.068Zm-3,0c0,25.976 -21.059,47.068 -47,47.068c-25.941,-0 -47,-21.092 -47,-47.068c0,-25.976 21.059,-47.068 47,-47.068c25.941,0 47,21.092 47,47.068Z" style="fill:#122f41;"/><g><g><path d="M72.606,71.893c0,-3.482 -3.051,-6.309 -6.81,-6.309c-3.758,0 -6.81,2.827 -6.81,6.309c0,3.481 3.052,6.308 6.81,6.308c3.759,0 6.81,-2.827 6.81,-6.308Z" style="fill:#122f41;"/><path d="M65.796,71.208l0,-35.995" style="fill:none;stroke:#122f41;stroke-width:5px;"/><path d="M81.197,30.446l-9.226,0" style="fill:none;stroke:#122f41;stroke-width:3px;"/><path d="M81.197,23.025l-9.226,-0" style="fill:none;stroke:#122f41;stroke-width:3px;"/><path d="M81.197,37.868l-9.226,0" style="fill:none;stroke:#122f41;stroke-width:3px;"/><path d="M81.197,52.712l-9.226,-0" style="fill:none;stroke:#122f41;stroke-width:3px;"/><path d="M81.197,60.133l-9.226,0" style="fill:none;stroke:#122f41;stroke-width:3px;"/><path d="M81.197,45.29l-9.226,-0" style="fill:none;stroke:#122f41;stroke-width:3px;"/><path d="M58.855,22.339l0,38.688c-4.096,2.177 -6.855,6.244 -6.855,10.899c0,6.945 6.143,12.584 13.71,12.584c7.568,-0 13.711,-5.639 13.711,-12.584c-0,-4.655 -2.759,-8.722 -6.855,-10.899l-0,-38.688c-0.541,-2.978 -3.458,-5.252 -6.856,-5.252c-3.397,0 -6.314,2.274 -6.855,5.252Zm3.001,0.317c0.405,-1.534 2.052,-2.569 3.854,-2.569c1.803,0 3.449,1.034 3.855,2.568c0.001,0.003 0.001,40.175 0.001,40.175l1.592,0.846c3.113,1.655 5.263,4.712 5.263,8.25c-0,5.363 -4.867,9.584 -10.711,9.584c-5.843,-0 -10.71,-4.221 -10.71,-9.584c-0,-3.538 2.15,-6.595 5.263,-8.25l1.592,-0.846l0,-40.172l0.001,-0.002Z" style="fill:#122f41;"/></g><path d="M31.448,27.769c-2.195,-0.746 -3.785,-2.927 -3.785,-5.497c0,-3.186 2.442,-5.772 5.449,-5.772c3.008,0 5.449,2.586 5.449,5.772c0,2.613 -1.643,4.823 -3.893,5.532l4.801,1.731l14.531,19.066l-2.934,2.246l-11.796,-12.724l-0.16,6.846l0.359,7.264l4.541,32.267l-4.541,-0l-7.258,-27.079l-0.014,-0l-7.258,27.079l-5.449,-0l6.357,-33.175l0.148,-5.836l-0.081,-8.751l-13.567,12.572l-2.847,-2.525l16.347,-17.25l5.601,-1.766Z" style="fill:#122f41;"/></g></svg>