<?xml version="1.0" encoding="UTF-8" standalone="no"?><!DOCTYPE svg PUBLIC "-//W3C//DTD SVG 1.1//EN" "http://www.w3.org/Graphics/SVG/1.1/DTD/svg11.dtd"><svg width="100%" height="100%" viewBox="0 0 100 100" version="1.1" xmlns="http://www.w3.org/2000/svg" xmlns:xlink="http://www.w3.org/1999/xlink" xml:space="preserve" xmlns:serif="http://www.serif.com/" style="fill-rule:evenodd;clip-rule:evenodd;stroke-linejoin:round;stroke-miterlimit:2;"><path d="M98.5,50c0,-26.768 -21.732,-48.5 -48.5,-48.5c-26.768,-0 -48.5,21.732 -48.5,48.5c-0,26.768 21.732,48.5 48.5,48.5c26.768,0 48.5,-21.732 48.5,-48.5Zm-48.5,-46.007l-4.978,13.587c-2.387,0.364 -4.727,0.99 -6.976,1.867l-11.114,-9.281l2.492,14.252c-1.884,1.507 -3.597,3.218 -5.107,5.1l-14.271,-2.489l9.293,11.099c-0.878,2.246 -1.504,4.583 -1.869,6.966l-13.605,4.972l13.605,4.971c0.365,2.384 0.991,4.72 1.869,6.967l-9.293,11.098l14.271,-2.488c1.51,1.882 3.223,3.592 5.107,5.1l-2.492,14.252l11.114,-9.281c2.249,0.877 4.589,1.502 6.976,1.867l4.978,13.586l4.978,-13.586c2.387,-0.365 4.727,-0.99 6.976,-1.867l11.114,9.281l-2.492,-14.252c1.884,-1.508 3.597,-3.218 5.107,-5.1l14.271,2.488l-9.293,-11.098c0.878,-2.247 1.504,-4.583 1.869,-6.967l13.606,-4.971l-13.606,-4.972c-0.365,-2.383 -0.991,-4.72 -1.869,-6.966l9.293,-11.099l-14.271,2.489c-1.51,-1.882 -3.223,-3.593 -5.107,-5.1l2.492,-14.252l-11.114,9.281c-2.249,-0.877 -4.589,-1.503 -6.976,-1.867l-4.978,-13.588l0,0.001Z"/><text x="24.995px" y="62.885px" style="font-family:'Arial-BoldMT', 'Arial', sans-serif;font-weight:700;font-size:36px;">UV</text></svg>