<?xml version="1.0" encoding="UTF-8" standalone="no"?><!DOCTYPE svg PUBLIC "-//W3C//DTD SVG 1.1//EN" "http://www.w3.org/Graphics/SVG/1.1/DTD/svg11.dtd"><svg width="100%" height="100%" viewBox="0 0 100 100" version="1.1" xmlns="http://www.w3.org/2000/svg" xmlns:xlink="http://www.w3.org/1999/xlink" xml:space="preserve" xmlns:serif="http://www.serif.com/" style="fill-rule:evenodd;clip-rule:evenodd;stroke-linejoin:round;stroke-miterlimit:2;"><g id="SVGRepo_iconCarrier"><g><g><g><path d="M59.558,82.806c0.074,-0.173 0.176,-0.332 0.308,-0.461c0.41,-0.403 1.068,-0.533 1.595,-0.316c0.175,0.071 0.337,0.173 0.483,0.316c0.132,0.129 0.234,0.288 0.307,0.461c0.073,0.173 0.117,0.359 0.117,0.546c-0,0.201 -0.044,0.388 -0.117,0.561c-0.073,0.173 -0.175,0.331 -0.307,0.461c-0.146,0.143 -0.308,0.244 -0.483,0.316c-0.176,0.071 -0.366,0.115 -0.557,0.115c-0.19,-0 -0.38,-0.044 -0.555,-0.115c-0.176,-0.072 -0.337,-0.173 -0.483,-0.316c-0.132,-0.13 -0.234,-0.288 -0.308,-0.461c-0.087,-0.173 -0.117,-0.36 -0.117,-0.561c0,-0.187 0.03,-0.373 0.117,-0.546Z" style="fill-rule:nonzero;"/></g></g><g><g><path d="M56.296,69.424c0.345,-0.339 0.886,-0.448 1.341,-0.266c0.147,0.06 0.282,0.145 0.405,0.266c0.222,0.217 0.357,0.532 0.357,0.846c-0,0.169 -0.025,0.326 -0.098,0.471c-0.062,0.145 -0.148,0.279 -0.259,0.388c-0.234,0.229 -0.541,0.35 -0.873,0.35c-0.332,0 -0.639,-0.121 -0.873,-0.35c-0.111,-0.109 -0.196,-0.243 -0.258,-0.388c-0.074,-0.145 -0.099,-0.302 -0.099,-0.471c-0,-0.314 0.136,-0.629 0.357,-0.846Z" style="fill-rule:nonzero;"/></g></g><g><g><path d="M77.974,62.854c0.586,-0.577 1.508,-0.761 2.282,-0.452c0.251,0.103 0.482,0.247 0.69,0.452c0.377,0.37 0.608,0.907 0.608,1.442c-0,0.287 -0.042,0.554 -0.167,0.802c-0.105,0.247 -0.251,0.474 -0.441,0.659c-0.397,0.39 -0.921,0.597 -1.486,0.597c-0.565,-0 -1.089,-0.207 -1.486,-0.597c-0.188,-0.185 -0.334,-0.412 -0.44,-0.659c-0.125,-0.248 -0.167,-0.515 -0.167,-0.802c-0.001,-0.535 0.23,-1.072 0.607,-1.442Z" style="fill-rule:nonzero;"/></g></g><g><g><path d="M43.124,37.212c0.05,-0.116 0.118,-0.223 0.207,-0.31c0.374,-0.367 1.024,-0.367 1.398,0c0.177,0.175 0.285,0.426 0.285,0.678c0,0.262 -0.108,0.503 -0.285,0.687c-0.187,0.184 -0.443,0.281 -0.699,0.281c-0.256,0 -0.512,-0.097 -0.699,-0.281c-0.089,-0.087 -0.157,-0.193 -0.207,-0.31c-0.059,-0.125 -0.079,-0.251 -0.079,-0.377c0,-0.126 0.02,-0.252 0.079,-0.368Z" style="fill-rule:nonzero;"/></g></g><g><g><path d="M71.105,45.413c0.05,-0.116 0.118,-0.223 0.207,-0.31c0.374,-0.368 1.024,-0.368 1.398,0c0.177,0.174 0.285,0.426 0.285,0.678c0,0.261 -0.108,0.503 -0.285,0.687c-0.187,0.184 -0.443,0.281 -0.699,0.281c-0.256,-0 -0.512,-0.097 -0.699,-0.281c-0.089,-0.088 -0.157,-0.194 -0.207,-0.31c-0.059,-0.126 -0.079,-0.252 -0.079,-0.377c0,-0.127 0.02,-0.252 0.079,-0.368Z" style="fill-rule:nonzero;"/></g></g><g><g><path d="M35.062,25.46c0.026,-0.175 0.077,-0.325 0.152,-0.475c0.051,-0.148 0.128,-0.298 0.229,-0.423c0.1,-0.15 0.202,-0.274 0.304,-0.374c0.127,-0.124 0.253,-0.224 0.38,-0.324c0.152,-0.076 0.304,-0.175 0.457,-0.225c0.152,-0.075 0.304,-0.099 0.456,-0.149c0.837,-0.149 1.699,0.1 2.307,0.698c0.457,0.449 0.735,1.097 0.735,1.745c0,0.348 -0.075,0.648 -0.202,0.972c-0.127,0.299 -0.304,0.573 -0.533,0.798c-0.253,0.224 -0.532,0.424 -0.836,0.548c-0.304,0.125 -0.634,0.175 -0.964,0.175c-0.152,0 -0.33,0 -0.507,-0.05c-0.152,-0.025 -0.304,-0.075 -0.456,-0.125c-0.153,-0.075 -0.305,-0.15 -0.457,-0.224c-0.127,-0.1 -0.253,-0.2 -0.38,-0.324c-0.456,-0.473 -0.736,-1.097 -0.736,-1.77c0,-0.15 0.026,-0.325 0.051,-0.473Z" style="fill-rule:nonzero;"/></g></g><g><g><path d="M26.261,19.961c0.01,-0.066 0.029,-0.123 0.058,-0.18c0.019,-0.056 0.048,-0.113 0.086,-0.16c0.029,-0.057 0.077,-0.104 0.115,-0.142c0.097,-0.094 0.202,-0.16 0.317,-0.208c0.231,-0.094 0.5,-0.094 0.731,0c0.125,0.048 0.221,0.114 0.317,0.208c0.038,0.038 0.076,0.085 0.115,0.142c0.038,0.047 0.068,0.104 0.087,0.16c0.028,0.057 0.048,0.114 0.057,0.18c0.01,0.056 0.019,0.123 0.019,0.18c0,0.065 -0.009,0.122 -0.019,0.188c-0.009,0.057 -0.029,0.123 -0.057,0.18c-0.02,0.056 -0.049,0.104 -0.087,0.161c-0.039,0.046 -0.077,0.094 -0.115,0.141c-0.096,0.085 -0.192,0.161 -0.317,0.208c-0.116,0.047 -0.24,0.066 -0.366,0.066c-0.124,0 -0.249,-0.019 -0.365,-0.066c-0.115,-0.047 -0.22,-0.123 -0.317,-0.208c-0.172,-0.179 -0.278,-0.415 -0.278,-0.67c-0,-0.057 0.01,-0.124 0.019,-0.18Z" style="fill-rule:nonzero;"/></g></g><g><g><path d="M47.464,14.58c0.095,-0.223 0.228,-0.428 0.398,-0.596c0.435,-0.446 1.099,-0.632 1.724,-0.52c0.113,0.037 0.227,0.055 0.341,0.11c0.113,0.038 0.227,0.112 0.34,0.169c0.095,0.074 0.19,0.149 0.284,0.241c0.171,0.168 0.304,0.373 0.399,0.596c0.094,0.224 0.15,0.466 0.15,0.708c0,0.26 -0.056,0.484 -0.15,0.726c-0.096,0.223 -0.228,0.428 -0.399,0.596c-0.094,0.093 -0.189,0.167 -0.284,0.242c-0.113,0.055 -0.227,0.112 -0.34,0.167c-0.114,0.038 -0.227,0.075 -0.341,0.094c-0.133,0.037 -0.266,0.037 -0.379,0.037c-0.493,0 -0.985,-0.186 -1.345,-0.54c-0.17,-0.168 -0.302,-0.372 -0.398,-0.596c-0.094,-0.242 -0.151,-0.466 -0.151,-0.725c-0,-0.243 0.057,-0.485 0.151,-0.709Z" style="fill-rule:nonzero;"/></g></g><g><g><path d="M23.601,32.253c0.015,-0.101 0.045,-0.187 0.088,-0.274c0.029,-0.086 0.074,-0.172 0.132,-0.244c0.058,-0.087 0.117,-0.158 0.175,-0.216c0.147,-0.144 0.308,-0.244 0.483,-0.317c0.264,-0.114 0.556,-0.143 0.849,-0.086c0.088,0.029 0.176,0.043 0.264,0.086c0.087,0.029 0.175,0.086 0.263,0.13c0.074,0.058 0.146,0.115 0.219,0.187c0.264,0.259 0.425,0.633 0.425,1.007c-0,0.201 -0.044,0.374 -0.117,0.561c-0.073,0.173 -0.176,0.331 -0.308,0.461c-0.073,0.071 -0.146,0.129 -0.219,0.172c-0.088,0.058 -0.176,0.101 -0.263,0.144c-0.088,0.029 -0.176,0.058 -0.264,0.073c-0.102,0.028 -0.205,0.028 -0.293,0.028c-0.38,0 -0.761,-0.144 -1.039,-0.417c-0.262,-0.273 -0.424,-0.648 -0.424,-1.021c0,-0.087 0.015,-0.188 0.029,-0.274Z" style="fill-rule:nonzero;"/></g></g><g><g><path d="M10.669,45.579c0.015,-0.101 0.044,-0.188 0.088,-0.274c0.029,-0.086 0.074,-0.172 0.132,-0.244c0.058,-0.087 0.117,-0.158 0.175,-0.216c0.147,-0.144 0.307,-0.245 0.483,-0.317c0.264,-0.115 0.556,-0.143 0.849,-0.086c0.088,0.029 0.176,0.043 0.264,0.086c0.087,0.029 0.175,0.086 0.263,0.13c0.073,0.058 0.146,0.115 0.219,0.187c0.264,0.259 0.425,0.633 0.425,1.007c-0,0.201 -0.044,0.374 -0.117,0.561c-0.073,0.173 -0.176,0.331 -0.308,0.461c-0.073,0.071 -0.146,0.129 -0.219,0.172c-0.088,0.058 -0.176,0.101 -0.263,0.144c-0.088,0.029 -0.176,0.058 -0.264,0.072c-0.102,0.029 -0.205,0.029 -0.293,0.029c-0.38,0 -0.761,-0.144 -1.039,-0.417c-0.263,-0.273 -0.424,-0.648 -0.424,-1.022c0,-0.086 0.015,-0.187 0.029,-0.273Z" style="fill-rule:nonzero;"/></g></g><g><g><path d="M57.743,21.316c1.052,-2.094 2.99,-3.426 5.761,-3.959c9.248,-1.781 12.178,-5.772 12.2,-5.803c0.299,-0.437 0.843,-0.644 1.366,-0.517c0.52,0.128 0.903,0.563 0.958,1.086c0.158,1.504 1.347,14.765 -5.342,17.475l-12.008,4.864c-0.008,0.003 -0.017,0.004 -0.025,0.007c-0.07,0.027 -0.142,0.05 -0.217,0.064c-0.06,0.012 -0.122,0.018 -0.185,0.021c-0.016,0 -0.032,0 -0.049,0.001c-0.051,-0 -0.103,-0.003 -0.156,-0.009c-0.01,-0.001 -0.02,-0.001 -0.03,-0.003c-0.055,-0.007 -0.109,-0.017 -0.163,-0.032c-0.005,-0.001 -0.009,-0.004 -0.014,-0.005c-0.074,-0.021 -0.146,-0.049 -0.215,-0.082c-0.02,-0.011 -0.039,-0.023 -0.059,-0.035c-0.047,-0.026 -0.093,-0.054 -0.136,-0.086c-0.024,-0.017 -0.045,-0.036 -0.068,-0.055c-0.036,-0.031 -0.07,-0.063 -0.102,-0.098c-0.021,-0.022 -0.041,-0.044 -0.06,-0.067c-0.028,-0.036 -0.055,-0.074 -0.08,-0.113c-0.017,-0.026 -0.033,-0.051 -0.048,-0.078c-0.006,-0.011 -0.014,-0.021 -0.02,-0.032c-0.155,-0.309 -3.781,-7.623 -1.308,-12.544Zm2.408,8.37c3.744,-8.331 10.47,-8.631 10.79,-8.641c0.702,-0.019 1.288,0.525 1.308,1.217c0.02,0.69 -0.53,1.264 -1.237,1.286c-0.058,0.001 -5.605,0.249 -8.703,7.545l9.406,-3.81c3.376,-1.368 4.007,-7.87 3.931,-12.218c-2.029,1.557 -5.661,3.595 -11.652,4.749c-1.977,0.381 -3.274,1.233 -3.966,2.607c-1.068,2.122 -0.55,5.063 0.123,7.265Z" style="fill-rule:nonzero;"/></g></g><g><g><path d="M64.386,77.434c0.785,1.655 2.276,2.73 4.432,3.195c7.197,1.554 9.415,4.725 9.432,4.75c0.225,0.346 0.647,0.518 1.057,0.427c0.41,-0.091 0.717,-0.424 0.769,-0.832c0.15,-1.173 1.32,-11.517 -3.86,-13.753l-9.298,-4.012c-0.006,-0.002 -0.013,-0.003 -0.019,-0.006c-0.055,-0.022 -0.11,-0.041 -0.168,-0.054c-0.047,-0.01 -0.096,-0.015 -0.145,-0.019c-0.012,-0.001 -0.025,-0.001 -0.038,-0.002c-0.04,-0.001 -0.081,0 -0.122,0.004c-0.008,0.001 -0.016,0.001 -0.024,0.002c-0.043,0.005 -0.085,0.012 -0.128,0.022c-0.004,0.001 -0.007,0.003 -0.011,0.004c-0.058,0.016 -0.115,0.036 -0.169,0.061c-0.017,0.007 -0.031,0.017 -0.047,0.026c-0.037,0.019 -0.073,0.04 -0.108,0.064c-0.019,0.014 -0.036,0.028 -0.054,0.043c-0.029,0.023 -0.056,0.047 -0.082,0.074c-0.017,0.017 -0.032,0.034 -0.047,0.052c-0.024,0.027 -0.045,0.056 -0.065,0.086c-0.014,0.02 -0.027,0.04 -0.039,0.061c-0.005,0.008 -0.012,0.016 -0.016,0.024c-0.127,0.239 -3.093,5.893 -1.25,9.783Zm2.034,-6.501c2.776,6.578 8.028,6.93 8.277,6.943c0.549,0.027 1.017,-0.388 1.045,-0.928c0.028,-0.539 -0.391,-0.998 -0.943,-1.027c-0.045,-0.002 -4.377,-0.293 -6.667,-6.05l7.284,3.143c2.614,1.128 2.989,6.221 2.851,9.619c-1.557,-1.253 -4.359,-2.909 -9.022,-3.916c-1.538,-0.332 -2.536,-1.021 -3.052,-2.107c-0.797,-1.678 -0.339,-3.968 0.227,-5.677Z" style="fill-rule:nonzero;"/></g></g><g><g><path d="M9.333,35.972c4.895,-3.059 13.476,-1.393 25.505,4.955c11.386,6.007 15.521,4.764 16.972,3.486c2.439,-2.146 1.468,-7.57 0.888,-9.48c-0.241,-0.792 0.189,-1.654 0.963,-1.924c0.772,-0.273 1.596,0.151 1.838,0.943c0.11,0.358 2.639,8.819 -1.813,12.746c-3.637,3.206 -10.255,2.208 -20.235,-3.062c-14.45,-7.625 -20.364,-6.472 -22.601,-5.105c-2.162,1.32 -2.293,3.588 -2.297,3.669c-0.023,0.838 -0.699,1.515 -1.51,1.513c-0.109,-0.001 -0.216,-0.014 -0.318,-0.038c-0.653,-0.153 -1.127,-0.761 -1.107,-1.485c0.004,-0.162 0.15,-3.99 3.715,-6.218Z" style="fill-rule:nonzero;"/></g></g><g><g><path d="M12.875,68.005c0.626,-0.432 15.517,-10.474 30.761,-2.986c10.328,5.078 10.618,11.02 10.263,13.34c-0.616,4.025 -4.318,7.268 -9.213,8.07c-0.653,0.107 -1.263,0.16 -1.832,0.16c-1.896,0 -3.327,-0.591 -4.268,-1.77c-2.391,-2.994 -0.141,-8.402 0.124,-9.008c0.318,-0.729 1.176,-1.069 1.919,-0.756c0.743,0.312 1.088,1.157 0.771,1.887c-0.617,1.428 -1.554,4.797 -0.511,6.103c0.639,0.795 2.155,0.736 3.315,0.546c3.642,-0.597 6.374,-2.872 6.801,-5.661c0.549,-3.588 -2.614,-7.357 -8.678,-10.337c-13.657,-6.715 -27.635,2.674 -27.775,2.771c-0.665,0.454 -1.576,0.293 -2.037,-0.357c-0.462,-0.651 -0.302,-1.547 0.36,-2.002Z" style="fill-rule:nonzero;"/></g></g><g><g><path d="M4.906,54.149c1.04,-0.42 25.764,-10.177 50.936,1.467c8.211,3.802 16.111,3.518 21.669,-0.77c3.814,-2.941 5.862,-7.415 5.098,-11.13c-0.568,-2.763 -2.582,-4.683 -5.824,-5.553c-4.054,-1.088 -7.061,-0.793 -8.94,0.873c-3.571,3.164 -2.414,10.381 -2.402,10.454c0.13,0.784 -0.408,1.523 -1.205,1.653c-0.799,0.131 -1.55,-0.399 -1.682,-1.183c-0.061,-0.358 -1.434,-8.829 3.321,-13.054c2.668,-2.371 6.596,-2.88 11.678,-1.519c4.318,1.159 7.132,3.914 7.923,7.759c0.978,4.756 -1.497,10.368 -6.16,13.963c-3.496,2.696 -7.736,4.052 -12.357,4.052c-3.923,0 -8.12,-0.976 -12.365,-2.94c-23.976,-11.093 -48.334,-1.508 -48.576,-1.411c-0.75,0.302 -1.602,-0.049 -1.91,-0.784c-0.306,-0.735 0.049,-1.575 0.796,-1.877Z" style="fill-rule:nonzero;"/></g></g></g></g></svg>