<?xml version="1.0" encoding="UTF-8" standalone="no"?><!DOCTYPE svg PUBLIC "-//W3C//DTD SVG 1.1//EN" "http://www.w3.org/Graphics/SVG/1.1/DTD/svg11.dtd"><svg width="100%" height="100%" viewBox="0 0 100 100" version="1.1" xmlns="http://www.w3.org/2000/svg" xmlns:xlink="http://www.w3.org/1999/xlink" xml:space="preserve" xmlns:serif="http://www.serif.com/" style="fill-rule:evenodd;clip-rule:evenodd;stroke-linejoin:round;stroke-miterlimit:2;"><g id="SVGRepo_iconCarrier"><g><g><g><path d="M10.245,45.048c4.446,-5.178 14.959,-8.397 31.25,-9.565c16.633,-1.395 19.694,-4.362 20.868,-6.207c2.204,-3.464 -5.671,-7.62 -7.077,-8.9c-0.584,-0.532 -0.422,-1.481 0.363,-2.121c0.782,-0.642 1.894,-0.731 2.479,-0.201c0.265,0.24 10.878,6.456 7.277,12.119c-2.942,4.625 -10.94,7.346 -24.458,8.314c-19.568,1.403 -25.925,5.539 -27.968,7.879c-1.975,2.261 -1.249,4.221 -1.222,4.292c0.298,0.71 -0.218,1.638 -1.151,2.071c-0.126,0.058 -0.254,0.105 -0.381,0.14c-0.81,0.222 -1.59,-0.03 -1.847,-0.644c-0.058,-0.137 -1.372,-3.406 1.867,-7.177Z" style="fill-rule:nonzero;stroke:#000;stroke-width:2.5px;"/></g></g><g><g><path d="M18.224,63.127c0.66,-0.397 16.361,-9.629 32.435,-2.745c10.889,4.668 11.195,10.13 10.821,12.263c-0.649,3.701 -4.553,6.682 -9.714,7.42c-0.688,0.098 -1.332,0.147 -1.932,0.147c-1.999,-0 -3.508,-0.544 -4.5,-1.628c-2.521,-2.752 -0.149,-7.724 0.131,-8.281c0.335,-0.67 1.239,-0.983 2.023,-0.694c0.783,0.286 1.147,1.063 0.813,1.734c-0.651,1.313 -1.639,4.41 -0.538,5.61c0.672,0.731 2.271,0.677 3.495,0.503c3.839,-0.549 6.72,-2.641 7.17,-5.205c0.579,-3.299 -2.756,-6.763 -9.149,-9.503c-14.401,-6.173 -29.139,2.458 -29.286,2.547c-0.702,0.418 -1.663,0.27 -2.149,-0.328c-0.487,-0.598 -0.317,-1.422 0.38,-1.84Z" style="fill-rule:nonzero;stroke:#000;stroke-width:2.5px;"/></g></g><g><g><path d="M17.119,55.95c1.096,-0.386 19.869,-14.917 46.409,-4.213c8.658,3.495 16.988,3.235 22.849,-0.708c4.02,-2.703 6.18,-6.816 5.375,-10.231c-0.599,-2.54 -2.723,-4.306 -6.142,-5.105c-4.274,-1.001 -7.444,-0.729 -9.426,0.802c-3.765,2.909 -2.545,9.543 -2.532,9.61c0.137,0.721 -0.431,1.4 -1.271,1.521c-0.842,0.12 -1.634,-0.367 -1.773,-1.088c-0.065,-0.329 -1.513,-8.117 3.501,-12.001c2.814,-2.18 6.955,-2.648 12.314,-1.397c4.553,1.066 7.52,3.598 8.354,7.133c1.031,4.373 -1.579,9.532 -6.496,12.837c-3.685,2.479 -8.156,3.725 -13.029,3.725c-4.136,0 -8.561,-0.897 -13.038,-2.703c-25.279,-10.198 -43.666,4.175 -43.921,4.265c-0.791,0.277 -1.174,1.296 -2.014,-0.721c-0.287,-0.692 0.052,-1.448 0.84,-1.726Z" style="fill-rule:nonzero;stroke:#000;stroke-width:2.5px;"/></g></g></g></g></svg>