<?xml version="1.0" encoding="UTF-8" standalone="no"?><!DOCTYPE svg PUBLIC "-//W3C//DTD SVG 1.1//EN" "http://www.w3.org/Graphics/SVG/1.1/DTD/svg11.dtd"><svg width="100%" height="100%" viewBox="0 0 100 100" version="1.1" xmlns="http://www.w3.org/2000/svg" xmlns:xlink="http://www.w3.org/1999/xlink" xml:space="preserve" xmlns:serif="http://www.serif.com/" style="fill-rule:evenodd;clip-rule:evenodd;stroke-linecap:round;stroke-linejoin:round;stroke-miterlimit:1.5;"><path d="M14.197,21.207c7.509,1.163 13.433,7.087 14.596,14.596c0.04,0.263 0.372,0.263 0.414,0c1.163,-7.509 7.087,-13.433 14.596,-14.596c0.263,-0.04 0.263,-0.372 0,-0.414c-7.511,-1.163 -13.436,-7.087 -14.598,-14.596c-0.04,-0.263 -0.372,-0.263 -0.415,-0c-1.16,7.509 -7.084,13.433 -14.593,14.596c-0.263,0.04 -0.263,0.372 -0,0.414Z" style="fill:#ffffe0;fill-rule:nonzero;"/><path d="M14.197,21.207c7.509,1.163 13.433,7.087 14.596,14.596c0.04,0.263 0.372,0.263 0.414,0c1.163,-7.509 7.087,-13.433 14.596,-14.596c0.263,-0.04 0.263,-0.372 0,-0.414c-7.511,-1.163 -13.436,-7.087 -14.598,-14.596c-0.04,-0.263 -0.372,-0.263 -0.415,-0c-1.16,7.509 -7.084,13.433 -14.593,14.596c-0.263,0.04 -0.263,0.372 -0,0.414Zm14.802,-7.027c1.699,2.779 4.042,5.122 6.822,6.821c-2.78,1.699 -5.123,4.041 -6.821,6.821c-1.7,-2.781 -4.042,-5.124 -6.822,-6.822c2.78,-1.699 5.122,-4.041 6.821,-6.82Z" style="fill:#ffd700;"/><path d="M72.577,26.572c-3.336,-0.516 -5.968,-3.148 -6.485,-6.485c-0.017,-0.116 -0.167,-0.116 -0.184,-0c-0.516,3.336 -3.148,5.968 -6.485,6.485c-0.116,0.017 -0.116,0.166 0,0.184c3.336,0.515 5.968,3.147 6.485,6.484c0.017,0.116 0.167,0.116 0.184,0c0.516,-3.335 3.148,-5.967 6.485,-6.484c0.116,-0.018 0.116,-0.166 -0,-0.184Z" style="fill:#ffffe0;fill-rule:nonzero;"/><path d="M72.577,26.572c-3.336,-0.516 -5.968,-3.148 -6.485,-6.485c-0.017,-0.116 -0.167,-0.116 -0.184,-0c-0.516,3.336 -3.148,5.968 -6.485,6.485c-0.116,0.017 -0.116,0.166 0,0.184c3.336,0.515 5.968,3.147 6.485,6.484c0.017,0.116 0.167,0.116 0.184,0c0.516,-3.335 3.148,-5.967 6.485,-6.484c0.116,-0.018 0.116,-0.166 -0,-0.184Zm-6.576,-2.758c0.727,1.148 1.702,2.122 2.849,2.85c-1.148,0.728 -2.123,1.702 -2.851,2.849c-0.727,-1.148 -1.702,-2.122 -2.849,-2.85c1.148,-0.728 2.123,-1.702 2.851,-2.849Z" style="fill:#ffd700;"/><path d="M89.935,14.931c-2.484,-0.387 -4.444,-2.363 -4.827,-4.865c-0.014,-0.088 -0.124,-0.088 -0.137,-0c-0.384,2.504 -2.344,4.479 -4.827,4.865c-0.087,0.014 -0.087,0.125 0,0.138c2.484,0.387 4.444,2.363 4.827,4.865c0.014,0.088 0.124,0.088 0.137,0c0.384,-2.504 2.344,-4.479 4.827,-4.865c0.087,-0.013 0.087,-0.124 -0,-0.138Z" style="fill:#ffffe0;fill-rule:nonzero;"/><path d="M89.935,14.931c-2.484,-0.387 -4.444,-2.363 -4.827,-4.865c-0.014,-0.088 -0.124,-0.088 -0.137,-0c-0.384,2.504 -2.344,4.479 -4.827,4.865c-0.087,0.014 -0.087,0.125 0,0.138c2.484,0.387 4.444,2.363 4.827,4.865c0.014,0.088 0.124,0.088 0.137,0c0.384,-2.504 2.344,-4.479 4.827,-4.865c0.087,-0.013 0.087,-0.124 -0,-0.138Zm-4.896,-2.192c0.562,0.922 1.336,1.698 2.252,2.262c-0.917,0.564 -1.689,1.34 -2.251,2.26c-0.562,-0.921 -1.335,-1.697 -2.251,-2.261c0.916,-0.563 1.689,-1.34 2.25,-2.261Z" style="fill:#ffd700;"/><g><path d="M42.067,87.373c-7.956,3.958 -16.234,3.818 -20.567,-1.003c-0.815,-0.906 -1.448,-1.932 -1.904,-3.047c-1.003,0.208 -2.044,0.312 -3.111,0.312c-8.548,-0 -15.485,-6.841 -15.485,-15.272c-0,-8.431 6.937,-15.272 15.485,-15.272l0.211,0c1.463,-7.396 10.226,-13.091 20.808,-13.091c9.848,0 18.118,4.932 20.4,11.574c7.096,-7.121 16.344,-3.83 20.685,1.042c0.811,0.907 1.437,1.937 1.881,3.051c1.008,-0.2 2.052,-0.299 3.115,-0.295c8.552,0.044 15.452,6.921 15.415,15.347c-0.041,8.431 -7.015,15.24 -15.563,15.196l-0.211,0c-1.496,7.388 -10.289,13.044 -20.874,12.992c-9.771,-0.048 -17.974,-4.949 -20.285,-11.534Z" style="fill:#d3d3d3;"/><path d="M82.126,89.015c-2.991,5.812 -10.728,9.936 -19.774,9.892c-9.771,-0.048 -17.974,-4.949 -20.285,-11.534c-7.956,3.958 -16.234,3.818 -20.567,-1.003c-0.815,-0.906 -1.448,-1.932 -1.904,-3.047c-1.003,0.208 -2.044,0.312 -3.111,0.312c-8.548,-0 -15.485,-6.841 -15.485,-15.272c-0,-8.431 6.937,-15.272 15.485,-15.272l0.211,0c1.463,-7.396 10.226,-13.091 20.808,-13.091c9.848,0 18.118,4.932 20.4,11.574c7.096,-7.121 16.344,-3.83 20.685,1.042c0.811,0.907 1.437,1.937 1.881,3.051c1.008,-0.2 2.052,-0.299 3.115,-0.295c8.552,0.044 15.452,6.921 15.415,15.347c-0.041,8.431 -7.015,15.24 -15.563,15.196l-0.211,0c-0.134,0.66 -0.326,1.306 -0.573,1.935c-0.735,-1.926 -1.651,-5.225 0.678,-5.225l0.123,0.004l-0,-0.004c6.719,0.035 12.224,-5.294 12.256,-11.921c0.029,-6.624 -5.417,-12.007 -12.14,-12.043c-0.839,-0.003 -1.664,0.075 -2.46,0.233c-1.555,0.308 -3.108,-0.536 -3.695,-2.008c-0.303,-0.758 -0.726,-1.46 -1.278,-2.076c-0.002,-0.002 -0.003,-0.004 -0.005,-0.006c-3.337,-3.746 -10.442,-6.383 -15.898,-0.908c-0.802,0.805 -1.962,1.139 -3.069,0.884c-1.107,-0.255 -2.004,-1.063 -2.373,-2.138c-1.912,-5.565 -9.035,-9.352 -17.288,-9.352c-8.801,-0 -16.364,4.288 -17.58,10.44c-0.305,1.541 -1.657,2.651 -3.228,2.651l-0.211,0c-6.719,0 -12.195,5.355 -12.195,11.982c-0,6.627 5.476,11.982 12.195,11.982c0.838,-0 1.656,-0.08 2.445,-0.243c1.552,-0.321 3.112,0.509 3.711,1.976c0.313,0.765 0.746,1.471 1.306,2.093c3.505,3.899 10.219,3.458 16.654,0.256c0.845,-0.42 1.83,-0.457 2.704,-0.102c0.874,0.355 1.553,1.068 1.866,1.959c1.938,5.522 9.004,9.293 17.197,9.333c8.804,0.043 16.389,-4.21 17.633,-10.355c-0.196,0.968 0.053,1.972 0.678,2.736c0.385,0.47 0.887,0.819 1.447,1.017Z" style="fill:#808080;"/><path d="M54.999,66.41c5.351,-12.493 27.714,-4.924 21.658,10.05" style="fill:#d3d3d3;stroke:#808080;stroke-width:3px;"/><path d="M17.031,66.453c-4.441,-7.137 4.14,-15.335 10.969,-12.24" style="fill:#d3d3d3;stroke:#808080;stroke-width:3px;"/><path d="M43.29,72.453c1.984,-8.168 13.846,-7.784 16.42,-0.743" style="fill:#d3d3d3;stroke:#808080;stroke-width:3px;"/><path d="M25.044,87.083c-7.659,-5.101 -3.483,-16.277 4.488,-15.971" style="fill:#d3d3d3;stroke:#808080;stroke-width:3px;"/></g></svg>