<?xml version="1.0" encoding="UTF-8" standalone="no"?><!DOCTYPE svg PUBLIC "-//W3C//DTD SVG 1.1//EN" "http://www.w3.org/Graphics/SVG/1.1/DTD/svg11.dtd"><svg width="100%" height="100%" viewBox="0 0 100 100" version="1.1" xmlns="http://www.w3.org/2000/svg" xmlns:xlink="http://www.w3.org/1999/xlink" xml:space="preserve" xmlns:serif="http://www.serif.com/" style="fill-rule:evenodd;clip-rule:evenodd;stroke-linecap:round;stroke-linejoin:round;stroke-miterlimit:1.5;"><path d="M62.688,82.359c-0.475,-0.447 -2.501,-6.286 -2.282,-6.359c0.123,0.037 -2.625,7.445 -2.625,7.445l-2.281,-0.703l1.65,2.342l-0.986,0.058l0.06,1.304l-0.539,0.369l0.569,0.302l0.074,1.599l0.797,-0.046l-1.255,2.216l2.299,-1.011l-0.255,1.094l1.269,0.389l0.116,0.585l0.354,-0.439l1.272,0.39l0.255,-1.094l1.548,2.2l-0.12,-2.642l0.669,0.499l0.76,-1.345l0.625,0.067l-0.305,-0.629l0.618,-1.096l-0.827,-0.616l2.448,-1.08l-2.284,-0.702l0.529,-0.494l-0.795,-1.13l0.315,-0.843l-0.785,0.178l-0.695,-0.987l-0.193,0.179Zm-3.13,7.699l0.031,0.648l0.316,-0.56c-0.117,-0.022 -0.232,-0.052 -0.347,-0.088Zm3.999,-1.103l-0.427,-0.604c-0.068,0.14 -0.144,0.275 -0.227,0.403l0.654,0.201Zm-6.267,-2.21l-0.377,0.166l0.397,0.122c-0.01,-0.095 -0.016,-0.191 -0.02,-0.288Zm5.914,-2.437l0.128,-0.229l-0.164,0.072c0.012,0.053 0.024,0.105 0.036,0.157Z" style="fill:#d7e0f5;stroke:#b7c3c6;stroke-width:0.66px;"/><path d="M19.372,81.609c0.92,-2.254 1.838,-4.109 1.838,-4.109c-0,0 1.644,3.32 2.734,6.471l0.652,0.244l-0.288,0.73l2.692,-0.703l-1.948,2.342l1.165,0.058l-0.072,1.304l0.637,0.369l-0.672,0.302l-0.087,1.599l-0.941,-0.046l1.481,2.216l-2.713,-1.011l0.301,1.094l-1.498,0.389l-0.136,0.585l-0.418,-0.439l-1.502,0.39l-0.3,-1.094l-1.827,2.2l0.141,-2.642l-0.79,0.499l-0.896,-1.345l-0.739,0.067l0.361,-0.629l-0.729,-1.096l0.975,-0.616l-2.889,-1.08l2.696,-0.702l-0.624,-0.494l0.938,-1.13l-0.372,-0.843l0.926,0.178l0.821,-0.987l0.227,0.179c0.192,-0.552 0.401,-1.107 0.615,-1.647l0.046,-0.894l0.195,0.291Zm2.838,9.949l-0.036,0.648l-0.373,-0.56c0.138,-0.022 0.274,-0.052 0.409,-0.088Zm-4.719,-1.103l0.503,-0.604c0.081,0.14 0.171,0.275 0.268,0.403l-0.771,0.201Zm7.396,-2.21l0.446,0.166l-0.469,0.122c0.012,-0.095 0.018,-0.191 0.023,-0.288Zm-6.979,-2.437l-0.152,-0.229l0.194,0.072c-0.014,0.053 -0.028,0.105 -0.042,0.157Z" style="fill:#d7e0f5;stroke:#b7c3c6;stroke-width:0.73px;"/><path d="M41.326,63c0,0 1.443,5.963 2.353,11.478l0.271,-0.388l0.039,2.403c0.07,0.497 0.134,0.982 0.188,1.453l0.93,-0.702l1.172,1.564l1.073,-0.175l-0.466,0.987l1.206,1.613l-1.056,0.798l3.714,1.146l-3.73,1.286l1.139,0.805l-1.136,1.626l0.478,0.934l-1.038,-0.132l-1.157,1.656l-1.118,-0.791l0.062,3.922l-2.341,-3.131l-0.402,1.31l-1.925,-0.594l-0.74,0.746l-0.194,-1.035l-1.886,-0.583l0.406,-1.338l-3.734,1.289l2.236,-3.197l-1.325,0.019l-0.033,-2.013l-0.972,-0.493l0.956,-0.525l-0.031,-1.954l1.363,-0.023l-2.378,-3.181l3.75,1.156l-0.429,-1.258l1.859,-0.642l0.169,-1.104l0.129,0.122c0.867,-5.886 2.598,-13.054 2.598,-13.054Zm-0.702,24.183c-0.142,-0.068 -0.28,-0.153 -0.416,-0.258l-0.329,0.343l-0.106,-0.556l-0.356,-0.116l0.036,2.262l1.171,-1.675Zm1.363,0.019l0.09,0.12l-1.002,0.347l-0.126,-0.372c0.124,0.031 0.25,0.046 0.377,0.046c0.227,0 0.449,-0.049 0.661,-0.141Zm3.342,-3.713l-1.211,0.419l0.597,0.435l-0.584,0.866l0.255,0.503l-0.542,-0.077l-0.596,0.882l-0.238,-0.172c-0.108,0.139 -0.219,0.267 -0.336,0.38l0.026,0.938l0.09,-0.587l1.121,-0.387l-0.258,-0.759l2.268,0.698l-1.437,-1.921l0.822,-0.013l-0.019,-1.182l0.042,-0.023Zm-6.044,3.064l-0.505,-0.166l0.208,-0.713l-0.989,0.34l0.049,-0.007l0.706,0.946l0.531,-0.4Zm-2.332,-2.008l0.687,0.918l0.553,-0.822l-0.689,0.007l-0.013,-0.513l-0.538,0.41Zm-1.606,-1.176l2.141,0.659l-0.013,-0.461l-0.509,-0.27l0.497,-0.276l-0.009,-0.38l-2.107,0.728Zm2.665,-0.11l0.388,-0.134c0.016,0.093 0.033,0.185 0.051,0.277l-0.439,-0.143Zm6.369,-3.007c0.016,0.336 0.026,0.655 0.026,0.95c-0,0.206 -0.005,0.411 -0.015,0.613l0.268,0.365l-0.313,0.243c-0.01,0.082 -0.018,0.166 -0.028,0.248l1.424,0.46l-0.465,-0.232l-0.019,-1.219l-0.801,0.013l1.349,-1.934l-1.426,0.493Zm-7.471,1.851l0.54,0.379l-0.016,-0.508l0.713,-0.003l-0.584,-0.799l-0.653,0.931Zm1.05,-1.503l0.318,-0.454c-0.01,0.19 -0.018,0.374 -0.023,0.551l-0.295,-0.097Z" style="fill:#d7e0f5;stroke:#b7c3c6;stroke-width:0.82px;"/><path d="M16.616,57c0,0 -0.686,2.847 -2.151,6.59l-0.248,-0.3l-0.036,1.857c-0.064,0.383 -0.122,0.758 -0.171,1.122l-0.851,-0.542l-1.071,1.208l-0.982,-0.135l0.427,0.762l-1.103,1.246l0.966,0.617l-3.396,0.886l3.411,0.993l-1.042,0.622l1.039,1.256l-0.437,0.722l0.948,-0.103l1.058,1.28l1.022,-0.611l-0.056,3.03l2.141,-2.419l0.367,1.012l1.76,-0.459l0.676,0.577l0.178,-0.8l1.724,-0.451l-0.371,-1.033l3.413,0.995l-2.044,-2.47l1.212,0.016l0.03,-1.556l0.889,-0.381l-0.874,-0.405l0.028,-1.51l-1.246,-0.018l2.174,-2.457l-3.429,0.893l0.393,-0.972l-1.7,-0.496l-0.155,-0.853l-0.118,0.094c-1.353,-3.821 -2.375,-7.807 -2.375,-7.807Zm0.642,16.405c0.13,-0.052 0.256,-0.118 0.38,-0.199l0.302,0.265l0.097,-0.43l0.325,-0.089l-0.033,1.747l-1.071,-1.294Zm-1.246,0.015l-0.082,0.093l0.916,0.268l0.115,-0.287c-0.114,0.024 -0.228,0.035 -0.345,0.035c-0.207,0 -0.41,-0.038 -0.604,-0.109Zm-3.056,-2.869l1.107,0.325l-0.546,0.335l0.534,0.669l-0.232,0.389l0.495,-0.06l0.545,0.682l0.217,-0.133c0.099,0.107 0.2,0.206 0.308,0.294l-0.024,0.724l-0.082,-0.453l-1.025,-0.299l0.236,-0.587l-2.074,0.54l1.314,-1.485l-0.752,-0.01l0.018,-0.913l-0.039,-0.018Zm5.527,2.368l0.461,-0.128l-0.19,-0.551l0.904,0.262l-0.044,-0.005l-0.646,0.731l-0.485,-0.309Zm2.132,-1.552l-0.628,0.709l-0.506,-0.634l0.629,0.005l0.012,-0.397l0.493,0.317Zm1.468,-0.908l-1.958,0.509l0.012,-0.356l0.466,-0.209l-0.455,-0.213l0.009,-0.294l1.926,0.563Zm-2.437,-0.085l-0.355,-0.104c-0.015,0.072 -0.03,0.143 -0.046,0.214l0.401,-0.11Zm-5.823,-2.323c-0.015,0.26 -0.024,0.505 -0.024,0.733c0,0.16 0.005,0.318 0.014,0.474l-0.245,0.283l0.287,0.187c0.008,0.063 0.016,0.128 0.025,0.191l-1.303,0.356l0.426,-0.18l0.018,-0.941l0.732,0.01l-1.234,-1.494l1.304,0.381Zm6.83,1.43l-0.493,0.293l0.015,-0.393l-0.652,-0.003l0.534,-0.616l0.596,0.719Zm-0.959,-1.162l-0.291,-0.35c0.009,0.147 0.017,0.288 0.021,0.425l0.27,-0.075Z" style="fill:#d7e0f5;stroke:#b7c3c6;stroke-width:0.69px;"/><g><path d="M42.067,57.373c-7.956,3.958 -16.234,3.818 -20.567,-1.003c-0.815,-0.906 -1.448,-1.932 -1.904,-3.047c-1.003,0.208 -2.044,0.312 -3.111,0.312c-8.548,-0 -15.485,-6.841 -15.485,-15.272c-0,-8.431 6.937,-15.272 15.485,-15.272l0.211,0c1.463,-7.396 10.226,-13.091 20.808,-13.091c9.848,-0 18.118,4.932 20.4,11.574c7.096,-7.121 16.344,-3.83 20.685,1.042c0.811,0.907 1.437,1.937 1.881,3.051c1.008,-0.2 2.052,-0.299 3.115,-0.295c8.552,0.044 15.452,6.921 15.415,15.347c-0.041,8.431 -7.015,15.24 -15.563,15.196l-0.211,0c-1.496,7.388 -10.289,13.044 -20.874,12.992c-9.771,-0.048 -17.974,-4.949 -20.285,-11.534Z" style="fill:#d3d3d3;"/><path d="M82.257,58.754c-2.893,5.95 -10.725,10.198 -19.905,10.153c-9.771,-0.048 -17.974,-4.949 -20.285,-11.534c-7.956,3.958 -16.234,3.818 -20.567,-1.003c-0.815,-0.906 -1.448,-1.932 -1.904,-3.047c-1.003,0.208 -2.044,0.312 -3.111,0.312c-8.548,-0 -15.485,-6.841 -15.485,-15.272c-0,-8.431 6.937,-15.272 15.485,-15.272l0.211,0c1.463,-7.396 10.226,-13.091 20.808,-13.091c9.848,0 18.118,4.932 20.4,11.574c7.096,-7.121 16.344,-3.83 20.685,1.042c0.811,0.907 1.437,1.937 1.881,3.051c1.008,-0.2 2.052,-0.299 3.115,-0.295c8.552,0.044 15.452,6.921 15.415,15.347c-0.041,8.431 -7.015,15.24 -15.563,15.196l-0.211,0c-0.134,0.662 -0.327,1.31 -0.575,1.942c-0.862,-1.722 -2.108,-4.942 0.597,-4.942c0.074,0 0.142,0.011 0.204,0.034l0,-0.034c6.881,0.036 12.515,-5.424 12.548,-12.21c0.029,-6.782 -5.545,-12.297 -12.428,-12.333c-0.86,-0.003 -1.704,0.076 -2.518,0.238c-1.418,0.281 -2.835,-0.489 -3.37,-1.831c-0.315,-0.79 -0.756,-1.521 -1.331,-2.163c-0.001,-0.001 -0.003,-0.003 -0.004,-0.004c-3.426,-3.846 -10.72,-6.54 -16.321,-0.921c-0.731,0.734 -1.789,1.039 -2.798,0.806c-1.009,-0.232 -1.827,-0.969 -2.164,-1.949c-1.944,-5.66 -9.169,-9.548 -17.562,-9.548c-8.958,0 -16.626,4.412 -17.865,10.673c-0.278,1.406 -1.51,2.418 -2.943,2.418l-0.211,0c-6.881,0 -12.485,5.486 -12.485,12.272c-0,6.786 5.604,12.272 12.485,12.272c0.858,-0 1.696,-0.082 2.503,-0.249c1.416,-0.293 2.838,0.464 3.385,1.802c0.325,0.796 0.776,1.53 1.358,2.177c3.578,3.98 10.43,3.59 16.999,0.322c0.771,-0.383 1.668,-0.417 2.466,-0.094c0.797,0.324 1.416,0.975 1.701,1.786c1.971,5.616 9.138,9.487 17.469,9.528c8.961,0.044 16.653,-4.333 17.919,-10.587c-0.178,0.882 0.049,1.798 0.618,2.494c0.359,0.439 0.83,0.761 1.354,0.94Z" style="fill:#808080;"/><path d="M54.999,36.41c5.351,-12.493 27.714,-4.924 21.658,10.05" style="fill:#d3d3d3;stroke:#808080;stroke-width:3px;"/><path d="M17.031,36.453c-4.441,-7.137 4.14,-15.335 10.969,-12.24" style="fill:#d3d3d3;stroke:#808080;stroke-width:3px;"/><path d="M43.29,42.453c1.984,-8.168 13.846,-7.784 16.42,-0.743" style="fill:#d3d3d3;stroke:#808080;stroke-width:3px;"/><path d="M25.002,57.143c-7.661,-5.1 -3.452,-16.32 4.53,-16.031" style="fill:#d3d3d3;stroke:#808080;stroke-width:3px;"/></g><path d="M80.82,68.5l1.968,5.695c0.045,0.321 0.087,0.633 0.121,0.937l0.603,-0.453l0.758,1.008l0.695,-0.113l-0.302,0.636l0.781,1.04l-0.683,0.514l2.404,0.739l-2.415,0.828l0.737,0.519l-0.735,1.048l0.31,0.602l-0.672,-0.085l-0.749,1.067l-0.724,-0.509l0.04,2.527l-1.516,-2.018l-0.26,0.844l-1.247,-0.382l-0.478,0.48l-0.126,-0.666l-1.222,-0.376l0.264,-0.863l-2.418,0.831l1.448,-2.06l-0.858,0.012l-0.021,-1.297l-0.63,-0.318l0.619,-0.338l-0.02,-1.26l0.882,-0.014l-1.539,-2.05l2.428,0.745l-0.278,-0.811l1.203,-0.414l0.11,-0.711l0.084,0.078c1.227,-3.412 1.438,-5.412 1.438,-5.412Zm-0.211,12.584c-0.092,-0.043 -0.181,-0.098 -0.269,-0.166l-0.214,0.221l-0.068,-0.358l-0.231,-0.075l0.024,1.458l0.758,-1.08Zm0.883,0.013l0.058,0.077l-0.649,0.224l-0.081,-0.24c0.08,0.02 0.161,0.03 0.244,0.03c0.147,-0 0.29,-0.032 0.428,-0.091Zm2.163,-2.393l-0.784,0.27l0.387,0.28l-0.378,0.558l0.165,0.324l-0.351,-0.049l-0.386,0.568l-0.154,-0.111c-0.07,0.09 -0.142,0.172 -0.218,0.245l0.017,0.605l0.058,-0.379l0.726,-0.249l-0.167,-0.489l1.469,0.45l-0.931,-1.238l0.533,-0.009l-0.013,-0.761l0.027,-0.015Zm-3.913,1.974l-0.327,-0.106l0.135,-0.46l-0.641,0.219l0.032,-0.004l0.458,0.609l0.343,-0.258Zm-1.51,-1.294l0.445,0.592l0.358,-0.529l-0.446,0.004l-0.008,-0.331l-0.349,0.264Zm-1.04,-0.757l1.387,0.424l-0.009,-0.297l-0.329,-0.174l0.322,-0.177l-0.007,-0.245l-1.364,0.469Zm1.726,-0.071l0.251,-0.087c0.011,0.06 0.021,0.12 0.033,0.179l-0.284,-0.092Zm4.124,-1.938c0.01,0.217 0.016,0.422 0.016,0.612c0,0.133 -0.003,0.265 -0.009,0.395l0.173,0.236l-0.203,0.156c-0.006,0.053 -0.011,0.107 -0.018,0.16l0.923,0.296l-0.301,-0.15l-0.013,-0.785l-0.519,0.009l0.874,-1.247l-0.923,0.318Zm-4.837,1.193l0.349,0.244l-0.01,-0.328l0.461,-0.002l-0.378,-0.514l-0.422,0.6Zm0.679,-0.969l0.206,-0.293c-0.006,0.123 -0.012,0.241 -0.015,0.355l-0.191,-0.062Z" style="fill:#d7e0f5;stroke:#b7c3c6;stroke-width:0.53px;"/></svg>