<?xml version="1.0" encoding="UTF-8" standalone="no"?><!DOCTYPE svg PUBLIC "-//W3C//DTD SVG 1.1//EN" "http://www.w3.org/Graphics/SVG/1.1/DTD/svg11.dtd"><svg width="100%" height="100%" viewBox="0 0 100 100" version="1.1" xmlns="http://www.w3.org/2000/svg" xmlns:xlink="http://www.w3.org/1999/xlink" xml:space="preserve" xmlns:serif="http://www.serif.com/" style="fill-rule:evenodd;clip-rule:evenodd;stroke-linejoin:round;stroke-miterlimit:2;"><g id="Layer_2_18_"></g><g id="SVGRepo_iconCarrier"><g><path d="M58.43,46.117l11.65,-17.989c1.007,-1.553 1.554,-3.404 1.554,-5.301l-0,-5.619l3.366,-0l-0,-7.208l-50,0l0,7.208l3.366,-0l0,5.619c0,1.897 0.547,3.748 1.554,5.301l11.65,17.989c0.417,0.646 0.63,1.384 0.631,2.135l0,3.494c-0.001,0.751 -0.214,1.489 -0.631,2.135l-11.65,17.991c-1.007,1.553 -1.554,3.404 -1.554,5.3l0,5.62l-3.366,0l0,7.208l50,-0l-0,-7.208l-3.366,0l-0,-5.62c-0,-1.896 -0.547,-3.746 -1.554,-5.3l-11.65,-17.991c-0.417,-0.646 -0.631,-1.384 -0.631,-2.135l0,-3.494c0,-0.751 0.214,-1.489 0.631,-2.135Zm9.957,35.954l-36.774,0l0,-4.899c0,-1.13 0.323,-2.237 0.943,-3.197l11.65,-17.991c0.803,-1.239 1.242,-2.72 1.242,-4.238l0,-3.494c0,-1.517 -0.438,-3 -1.242,-4.238l-11.648,-17.989c-0.622,-0.962 -0.945,-2.067 -0.945,-3.198l0,-4.898l36.774,-0l-0,4.898c-0.002,1.131 -0.323,2.236 -0.945,3.198l-11.649,17.989c-0.803,1.238 -1.241,2.721 -1.241,4.238l-0,3.494c-0,1.518 0.438,2.999 1.241,4.238l11.651,17.991c0.62,0.96 0.941,2.067 0.943,3.197l-0,4.899l-0,0Z" style="fill-rule:nonzero;"/><path d="M45.789,42.752c0.716,1.106 3.285,5.259 4.211,5.248c0.926,-0.011 3.495,-4.142 4.211,-5.248l8.375,-12.933l-25.172,-0l8.375,12.933Z" style="fill-rule:nonzero;"/><path d="M48.698,69.623l-9.266,10.286l21.136,0l-9.266,-10.286c-0.72,-0.797 -1.884,-0.797 -2.604,0Z" style="fill-rule:nonzero;"/></g></g></svg>