<?xml version="1.0" encoding="UTF-8" standalone="no"?><!DOCTYPE svg PUBLIC "-//W3C//DTD SVG 1.1//EN" "http://www.w3.org/Graphics/SVG/1.1/DTD/svg11.dtd"><svg width="100%" height="100%" viewBox="0 0 100 100" version="1.1" xmlns="http://www.w3.org/2000/svg" xmlns:xlink="http://www.w3.org/1999/xlink" xml:space="preserve" xmlns:serif="http://www.serif.com/" style="fill-rule:evenodd;clip-rule:evenodd;stroke-linejoin:round;stroke-miterlimit:2;"><g><g><path d="M79.095,19.443l-2.513,-0c0.065,-0.182 0.132,-0.364 0.132,-0.565c-0,-1.038 -0.967,-1.878 -2.155,-1.878c-1.189,0 -2.151,0.842 -2.151,1.878c-0,0.201 0.062,0.383 0.132,0.565l-8.236,-0c0.065,-0.182 0.132,-0.364 0.132,-0.565c-0.003,-1.038 -0.967,-1.878 -2.158,-1.878c-1.184,0 -2.151,0.842 -2.151,1.878c0,0.201 0.065,0.383 0.135,0.565l-8.239,-0c0.065,-0.182 0.13,-0.364 0.13,-0.565c0,-1.038 -0.962,-1.878 -2.151,-1.878c-1.188,0 -2.151,0.842 -2.151,1.878c0,0.201 0.063,0.383 0.13,0.565l-8.238,-0c0.065,-0.182 0.132,-0.364 0.132,-0.565c-0,-1.038 -0.965,-1.878 -2.151,-1.878c-1.188,0 -2.153,0.842 -2.153,1.878c0,0.201 0.063,0.383 0.13,0.565l-8.236,-0c0.067,-0.182 0.132,-0.364 0.132,-0.565c-0,-1.038 -0.963,-1.878 -2.151,-1.878c-1.189,0 -2.153,0.842 -2.153,1.878c-0,0.201 0.062,0.383 0.13,0.565l-2.518,-0c-3.398,-0 -6.155,2.409 -6.155,5.374l0,50.809c0,2.966 2.757,5.374 6.155,5.374l51.241,0l13.104,-11.442l0,-44.741c0,-2.963 -2.757,-5.374 -6.155,-5.374Zm2.798,48.9l-0.696,0.607l-5.271,0c-2.466,0 -4.476,1.759 -4.476,3.909l-0,4.602l-0.696,0.608l-49.849,-0c-1.542,-0 -2.798,-1.097 -2.798,-2.443l0,-48.855l63.786,-0l-0,41.572Z" style="fill:#161716;fill-rule:nonzero;"/><rect x="35.49" y="31.725" width="7.914" height="6.91" style="fill:#161716;"/><rect x="46.043" y="31.725" width="7.914" height="6.91" style="fill:#161716;"/><rect x="56.596" y="31.725" width="7.912" height="6.91" style="fill:#161716;"/><rect x="67.148" y="31.725" width="7.916" height="6.91" style="fill:#161716;"/><rect x="24.936" y="40.939" width="7.916" height="6.912" style="fill:#161716;"/><rect x="35.49" y="40.939" width="7.914" height="6.912" style="fill:#161716;"/><rect x="46.043" y="40.939" width="7.914" height="6.912" style="fill:#161716;"/><rect x="56.596" y="40.939" width="7.912" height="6.912" style="fill:#161716;"/><rect x="67.148" y="40.939" width="7.916" height="6.912" style="fill:#161716;"/><rect x="24.936" y="50.153" width="7.916" height="6.912" style="fill:#161716;"/><rect x="35.49" y="50.153" width="7.914" height="6.912" style="fill:#161716;"/><rect x="46.043" y="50.153" width="7.914" height="6.912" style="fill:#161716;"/><rect x="56.596" y="50.153" width="7.912" height="6.912" style="fill:#161716;"/><rect x="67.148" y="50.153" width="7.916" height="6.912" style="fill:#161716;"/><rect x="24.936" y="59.367" width="7.916" height="6.91" style="fill:#161716;"/><rect x="35.49" y="59.367" width="7.914" height="6.91" style="fill:#161716;"/><rect x="46.043" y="59.367" width="7.914" height="6.91" style="fill:#161716;"/><rect x="56.596" y="59.367" width="7.912" height="6.91" style="fill:#161716;"/><rect x="67.148" y="59.367" width="7.916" height="6.91" style="fill:#161716;"/><rect x="24.936" y="69.732" width="18.467" height="3.455" style="fill:#161716;"/></g><path d="M50,0c27.596,0 50,22.404 50,50c0,27.596 -22.404,50 -50,50c-27.596,0 -50,-22.404 -50,-50c-0,-27.596 22.404,-50 50,-50Zm-0,3c25.94,0 47,21.06 47,47c-0,25.94 -21.06,47 -47,47c-25.94,0 -47,-21.06 -47,-47c-0,-25.94 21.06,-47 47,-47Z" style="fill:#161716;"/></g></svg>