<?xml version="1.0" encoding="UTF-8" standalone="no"?><!DOCTYPE svg PUBLIC "-//W3C//DTD SVG 1.1//EN" "http://www.w3.org/Graphics/SVG/1.1/DTD/svg11.dtd"><svg width="100%" height="100%" viewBox="0 0 100 80" version="1.1" xmlns="http://www.w3.org/2000/svg" xmlns:xlink="http://www.w3.org/1999/xlink" xml:space="preserve" xmlns:serif="http://www.serif.com/" style="fill-rule:evenodd;clip-rule:evenodd;stroke-linecap:round;stroke-linejoin:round;stroke-miterlimit:1.5;"><path d="M100,11.739c-0,-6.479 -5.26,-11.739 -11.739,-11.739l-76.522,0c-6.479,0 -11.739,5.26 -11.739,11.739l0,56.522c0,6.479 5.26,11.739 11.739,11.739l76.522,0c6.479,0 11.739,-5.26 11.739,-11.739l-0,-56.522Z" style="fill:#808080;"/><path d="M56.424,60.794c-0.302,0.151 -0.538,0.426 -0.626,0.779c-0.16,0.638 0.229,1.288 0.868,1.448c0.639,0.16 1.287,-0.229 1.447,-0.869c0.152,-0.604 -0.187,-1.216 -0.765,-1.417l-0.946,-29.573l0.022,29.632Z" style="fill:#ebebeb;stroke:#bbc7e2;stroke-width:0.46px;"/><path d="M56.935,61.69c-0.013,0.036 0.003,0.076 0.037,0.089c0.035,0.013 0.075,-0.006 0.088,-0.043c0.015,-0.036 -0.003,-0.077 -0.037,-0.09c-0.035,-0.013 -0.074,0.006 -0.088,0.044Z" style="fill:#808080;"/><path d="M57.665,61.557c-0.013,0.035 -0.003,0.071 0.022,0.079c0.024,0.01 0.055,-0.011 0.069,-0.046c0.013,-0.034 0.003,-0.07 -0.021,-0.079c-0.026,-0.01 -0.057,0.012 -0.07,0.046Z" style="fill:#808080;"/><path d="M56.883,61.142c-0.009,0.023 0.002,0.048 0.022,0.056c0.02,0.008 0.044,-0.004 0.053,-0.028c0.009,-0.023 -0.001,-0.048 -0.022,-0.055c-0.02,-0.009 -0.044,0.004 -0.053,0.027Z" style="fill:#808080;"/><path d="M56.931,62.55c-0.009,0.023 0.001,0.047 0.021,0.054c0.02,0.009 0.045,-0.004 0.054,-0.027c0.008,-0.023 -0.002,-0.047 -0.022,-0.056c-0.02,-0.007 -0.045,0.006 -0.053,0.029Z" style="fill:#808080;"/><path d="M57.033,62.123c-0.009,0.023 0.001,0.048 0.022,0.055c0.02,0.009 0.044,-0.004 0.053,-0.027c0.008,-0.023 -0.002,-0.048 -0.022,-0.057c-0.02,-0.007 -0.044,0.006 -0.053,0.029Z" style="fill:#808080;"/><path d="M56.112,62.038c-0.008,0.023 0,0.048 0.021,0.056c0.021,0.008 0.044,-0.005 0.053,-0.028c0.009,-0.023 -0,-0.048 -0.022,-0.057c-0.02,-0.007 -0.043,0.006 -0.052,0.029Z" style="fill:#808080;"/><path d="M57.353,61.306c-0.012,0.029 -0,0.061 0.024,0.071c0.026,0.009 0.055,-0.007 0.065,-0.036c0.012,-0.029 0,-0.06 -0.024,-0.069c-0.026,-0.01 -0.055,0.006 -0.065,0.034Z" style="fill:#808080;"/><path d="M57.406,62.125c-0.022,0.056 0.009,0.121 0.066,0.142c0.058,0.022 0.121,-0.007 0.143,-0.063c0.022,-0.058 -0.007,-0.121 -0.065,-0.143c-0.058,-0.021 -0.122,0.008 -0.144,0.064Z" style="fill:#808080;"/><path d="M56.559,61.394c-0.013,0.035 -0.001,0.072 0.026,0.082c0.026,0.011 0.059,-0.01 0.072,-0.044c0.013,-0.035 0.001,-0.072 -0.026,-0.082c-0.026,-0.01 -0.059,0.01 -0.072,0.044Z" style="fill:#808080;"/><path d="M56.408,61.665c-0.022,0.056 0.008,0.12 0.066,0.141c0.058,0.022 0.121,-0.005 0.143,-0.063c0.021,-0.056 -0.008,-0.12 -0.065,-0.141c-0.059,-0.023 -0.123,0.006 -0.144,0.063Z" style="fill:#808080;"/><path d="M56.55,62.279c-0.03,0.082 0.005,0.173 0.08,0.202c0.074,0.027 0.161,-0.018 0.193,-0.1c0.03,-0.083 -0.005,-0.174 -0.08,-0.202c-0.075,-0.028 -0.161,0.016 -0.193,0.1Z" style="fill:#808080;"/><path d="M68.457,53.46c-0.149,0.132 -0.249,0.318 -0.275,0.53c-0.054,0.464 0.279,0.883 0.742,0.936c0.462,0.055 0.883,-0.278 0.936,-0.74c0.049,-0.414 -0.21,-0.791 -0.595,-0.907l-4.245,-26.05l3.437,26.231Z" style="fill:#ebebeb;stroke:#bbc7e2;stroke-width:0.46px;"/><path d="M69.14,54.052c-0.028,-0.003 -0.052,0.015 -0.055,0.043c-0.004,0.027 0.016,0.052 0.043,0.055c0.026,0.004 0.051,-0.016 0.053,-0.044c0.005,-0.027 -0.015,-0.051 -0.041,-0.054Z" style="fill:#808080;"/><path d="M69.346,54.55c-0.025,-0.003 -0.048,0.012 -0.051,0.03c-0.001,0.021 0.018,0.039 0.042,0.042c0.026,0.003 0.049,-0.011 0.05,-0.03c0.003,-0.02 -0.015,-0.039 -0.041,-0.042Z" style="fill:#808080;"/><path d="M69.498,53.913c-0.017,-0.003 -0.033,0.009 -0.034,0.025c-0.002,0.017 0.01,0.032 0.027,0.033c0.017,0.003 0.032,-0.009 0.035,-0.026c0.001,-0.016 -0.012,-0.03 -0.028,-0.032Z" style="fill:#808080;"/><path d="M68.561,54.207c-0.018,-0.001 -0.034,0.01 -0.035,0.026c-0.001,0.016 0.01,0.03 0.027,0.033c0.018,0.002 0.032,-0.01 0.035,-0.026c0.001,-0.015 -0.01,-0.03 -0.027,-0.033Z" style="fill:#808080;"/><path d="M68.863,54.201c-0.017,-0.001 -0.032,0.011 -0.035,0.026c-0.001,0.016 0.012,0.032 0.028,0.034c0.017,0.001 0.033,-0.011 0.034,-0.026c0.002,-0.016 -0.01,-0.031 -0.027,-0.034Z" style="fill:#808080;"/><path d="M68.771,53.524c-0.016,-0.001 -0.032,0.01 -0.033,0.026c-0.003,0.016 0.01,0.032 0.027,0.033c0.016,0.002 0.032,-0.01 0.033,-0.025c0.003,-0.016 -0.01,-0.031 -0.027,-0.034Z" style="fill:#808080;"/><path d="M69.462,54.279c-0.02,-0.001 -0.039,0.012 -0.041,0.032c-0.003,0.02 0.013,0.037 0.034,0.04c0.02,0.002 0.04,-0.011 0.042,-0.031c0.003,-0.019 -0.013,-0.038 -0.035,-0.041Z" style="fill:#808080;"/><path d="M68.922,54.469c-0.042,-0.004 -0.079,0.029 -0.085,0.074c-0.006,0.046 0.025,0.086 0.066,0.092c0.042,0.004 0.08,-0.029 0.085,-0.073c0.006,-0.046 -0.024,-0.087 -0.066,-0.093Z" style="fill:#808080;"/><path d="M69.277,53.728c-0.026,-0.003 -0.049,0.011 -0.052,0.033c-0.002,0.02 0.017,0.04 0.041,0.043c0.026,0.003 0.049,-0.012 0.051,-0.033c0.003,-0.022 -0.016,-0.041 -0.04,-0.043Z" style="fill:#808080;"/><path d="M69.07,53.668c-0.041,-0.005 -0.08,0.028 -0.084,0.074c-0.006,0.045 0.024,0.086 0.064,0.091c0.042,0.005 0.081,-0.028 0.085,-0.074c0.006,-0.044 -0.023,-0.086 -0.065,-0.091Z" style="fill:#808080;"/><path d="M68.68,53.885c-0.06,-0.008 -0.115,0.034 -0.122,0.093c-0.006,0.059 0.037,0.113 0.098,0.12c0.062,0.007 0.116,-0.035 0.122,-0.094c0.007,-0.059 -0.036,-0.112 -0.098,-0.119Z" style="fill:#808080;"/><path d="M42.747,53.013c-0.205,0.14 -0.361,0.351 -0.425,0.611c-0.142,0.562 0.2,1.135 0.763,1.276c0.563,0.141 1.135,-0.2 1.277,-0.763c0.126,-0.503 -0.132,-1.012 -0.588,-1.216l-1.02,-32.857l-0.007,32.949Z" style="fill:#ebebeb;stroke:#bbc7e2;stroke-width:0.46px;"/><path d="M43.507,53.782c-0.037,-0.008 -0.076,0.015 -0.085,0.052c-0.01,0.039 0.013,0.078 0.051,0.087c0.037,0.01 0.075,-0.013 0.085,-0.052c0.01,-0.038 -0.013,-0.077 -0.051,-0.087Z" style="fill:#808080;"/><path d="M43.705,54.534c-0.035,-0.008 -0.07,0.006 -0.077,0.033c-0.007,0.028 0.016,0.058 0.052,0.067c0.035,0.008 0.069,-0.006 0.076,-0.033c0.008,-0.029 -0.015,-0.058 -0.051,-0.067Z" style="fill:#808080;"/><path d="M44.04,53.65c-0.023,-0.006 -0.047,0.008 -0.053,0.03c-0.006,0.023 0.01,0.046 0.033,0.052c0.023,0.006 0.048,-0.007 0.053,-0.03c0.006,-0.023 -0.008,-0.047 -0.033,-0.052Z" style="fill:#808080;"/><path d="M42.66,53.899c-0.023,-0.006 -0.047,0.009 -0.053,0.03c-0.006,0.023 0.009,0.046 0.033,0.052c0.023,0.006 0.046,-0.007 0.052,-0.03c0.006,-0.023 -0.009,-0.046 -0.032,-0.052Z" style="fill:#808080;"/><path d="M43.089,53.946c-0.023,-0.005 -0.047,0.009 -0.053,0.031c-0.006,0.023 0.009,0.046 0.033,0.052c0.023,0.007 0.046,-0.008 0.052,-0.031c0.006,-0.021 -0.008,-0.046 -0.032,-0.052Z" style="fill:#808080;"/><path d="M43.088,52.963c-0.023,-0.006 -0.047,0.007 -0.053,0.03c-0.006,0.023 0.008,0.046 0.033,0.052c0.023,0.005 0.046,-0.008 0.052,-0.031c0.006,-0.023 -0.009,-0.046 -0.032,-0.051Z" style="fill:#808080;"/><path d="M43.922,54.168c-0.03,-0.007 -0.059,0.009 -0.066,0.036c-0.007,0.028 0.011,0.057 0.04,0.064c0.03,0.007 0.059,-0.009 0.066,-0.036c0.008,-0.028 -0.011,-0.056 -0.04,-0.064Z" style="fill:#808080;"/><path d="M43.123,54.341c-0.059,-0.014 -0.118,0.025 -0.134,0.09c-0.018,0.063 0.017,0.126 0.075,0.142c0.057,0.015 0.118,-0.026 0.134,-0.091c0.015,-0.063 -0.018,-0.126 -0.075,-0.141Z" style="fill:#808080;"/><path d="M43.762,53.344c-0.036,-0.01 -0.07,0.008 -0.078,0.038c-0.007,0.03 0.016,0.06 0.051,0.07c0.036,0.009 0.07,-0.008 0.078,-0.039c0.007,-0.028 -0.015,-0.06 -0.051,-0.069Z" style="fill:#808080;"/><path d="M43.483,53.222c-0.058,-0.015 -0.118,0.026 -0.134,0.089c-0.016,0.065 0.017,0.128 0.076,0.143c0.058,0.014 0.117,-0.026 0.134,-0.09c0.016,-0.064 -0.019,-0.128 -0.076,-0.142Z" style="fill:#808080;"/><path d="M42.892,53.46c-0.085,-0.022 -0.17,0.028 -0.191,0.112c-0.021,0.082 0.031,0.167 0.115,0.189c0.085,0.02 0.171,-0.029 0.191,-0.113c0.022,-0.082 -0.03,-0.167 -0.115,-0.188Z" style="fill:#808080;"/><path d="M66.32,73.802c0.398,0.193 0.719,0.539 0.869,0.99c0.294,0.887 -0.187,1.848 -1.075,2.143c-0.887,0.294 -1.848,-0.187 -2.142,-1.074c-0.252,-0.757 0.061,-1.565 0.708,-1.971l-2.279,-52.573l3.919,52.485Z" style="fill:#ebebeb;stroke:#bbc7e2;stroke-width:0.46px;"/><path d="M65.815,75.282c-0.045,0.031 -0.107,0.02 -0.137,-0.025c-0.032,-0.045 -0.022,-0.106 0.023,-0.138c0.045,-0.032 0.107,-0.02 0.138,0.024c0.032,0.046 0.02,0.108 -0.024,0.139Z" style="fill:#808080;"/><path d="M65.707,74.203c-0.042,0.03 -0.095,0.027 -0.118,-0.006c-0.022,-0.032 -0.006,-0.082 0.036,-0.111c0.041,-0.03 0.095,-0.027 0.116,0.006c0.023,0.031 0.008,0.082 -0.034,0.111Z" style="fill:#808080;"/><path d="M66.581,75.187c-0.027,0.018 -0.066,0.012 -0.085,-0.013c-0.019,-0.028 -0.01,-0.065 0.017,-0.085c0.029,-0.019 0.067,-0.013 0.085,0.013c0.019,0.027 0.012,0.064 -0.017,0.085Z" style="fill:#808080;"/><path d="M64.644,75.557c-0.028,0.018 -0.067,0.013 -0.085,-0.013c-0.018,-0.028 -0.011,-0.065 0.017,-0.085c0.029,-0.019 0.066,-0.013 0.085,0.013c0.019,0.027 0.011,0.065 -0.017,0.085Z" style="fill:#808080;"/><path d="M65.185,75.279c-0.029,0.018 -0.066,0.013 -0.085,-0.013c-0.018,-0.028 -0.011,-0.065 0.018,-0.085c0.027,-0.019 0.066,-0.013 0.085,0.013c0.018,0.027 0.01,0.065 -0.018,0.085Z" style="fill:#808080;"/><path d="M65.666,76.562c-0.028,0.019 -0.066,0.013 -0.085,-0.013c-0.018,-0.027 -0.011,-0.065 0.018,-0.083c0.027,-0.02 0.066,-0.015 0.083,0.011c0.019,0.028 0.012,0.065 -0.016,0.085Z" style="fill:#808080;"/><path d="M66.171,74.57c-0.035,0.024 -0.083,0.019 -0.104,-0.014c-0.023,-0.032 -0.013,-0.078 0.021,-0.103c0.036,-0.024 0.083,-0.018 0.106,0.015c0.023,0.031 0.013,0.077 -0.023,0.102Z" style="fill:#808080;"/><path d="M65.034,74.749c-0.068,0.047 -0.167,0.026 -0.219,-0.049c-0.053,-0.077 -0.04,-0.176 0.029,-0.225c0.069,-0.048 0.168,-0.026 0.22,0.05c0.054,0.075 0.039,0.175 -0.03,0.224Z" style="fill:#808080;"/><path d="M66.365,75.725c-0.042,0.031 -0.095,0.025 -0.119,-0.01c-0.025,-0.034 -0.011,-0.088 0.031,-0.116c0.042,-0.031 0.097,-0.025 0.121,0.01c0.025,0.034 0.01,0.087 -0.033,0.116Z" style="fill:#808080;"/><path d="M66.058,76.025c-0.069,0.047 -0.168,0.026 -0.22,-0.049c-0.053,-0.075 -0.039,-0.176 0.03,-0.223c0.068,-0.049 0.167,-0.028 0.219,0.049c0.053,0.075 0.04,0.175 -0.029,0.223Z" style="fill:#808080;"/><path d="M65.164,76.012c-0.101,0.071 -0.238,0.049 -0.306,-0.049c-0.067,-0.098 -0.042,-0.233 0.059,-0.304c0.101,-0.071 0.238,-0.049 0.307,0.049c0.068,0.098 0.04,0.235 -0.06,0.304Z" style="fill:#808080;"/><path d="M38.482,73.732c0.479,0.239 0.853,0.675 0.993,1.234c0.254,1.011 -0.363,2.04 -1.374,2.294c-1.013,0.253 -2.042,-0.364 -2.295,-1.375c-0.239,-0.958 0.298,-1.929 1.213,-2.246l1.5,-46.853l-0.037,46.946Z" style="fill:#ebebeb;stroke:#bbc7e2;stroke-width:0.46px;"/><path d="M37.778,75.384c0.022,0.049 -0.004,0.104 -0.059,0.122c-0.055,0.019 -0.117,-0.008 -0.14,-0.059c-0.021,-0.05 0.006,-0.106 0.061,-0.124c0.054,-0.017 0.116,0.009 0.138,0.061Z" style="fill:#808080;"/><path d="M36.621,75.201c0.022,0.047 0.006,0.096 -0.033,0.111c-0.039,0.011 -0.088,-0.017 -0.109,-0.065c-0.021,-0.046 -0.006,-0.095 0.034,-0.108c0.039,-0.013 0.088,0.016 0.108,0.062Z" style="fill:#808080;"/><path d="M37.86,74.633c0.015,0.032 -0.001,0.067 -0.033,0.078c-0.033,0.01 -0.071,-0.007 -0.084,-0.039c-0.014,-0.031 0.002,-0.066 0.034,-0.076c0.033,-0.012 0.07,0.006 0.083,0.037Z" style="fill:#808080;"/><path d="M37.785,76.562c0.015,0.032 -0.001,0.067 -0.033,0.077c-0.033,0.011 -0.07,-0.006 -0.085,-0.039c-0.013,-0.031 0.002,-0.067 0.035,-0.077c0.031,-0.01 0.069,0.008 0.083,0.039Z" style="fill:#808080;"/><path d="M37.622,75.977c0.015,0.032 0,0.067 -0.033,0.077c-0.033,0.011 -0.07,-0.006 -0.083,-0.039c-0.015,-0.03 0.001,-0.065 0.033,-0.075c0.033,-0.012 0.07,0.006 0.083,0.037Z" style="fill:#808080;"/><path d="M38.81,74.669c0.012,0.033 -0.002,0.067 -0.035,0.078c-0.032,0.01 -0.069,-0.006 -0.084,-0.039c-0.013,-0.03 0.002,-0.066 0.035,-0.076c0.032,-0.01 0.069,0.007 0.084,0.037Z" style="fill:#808080;"/><path d="M37.118,74.86c0.018,0.038 -0.001,0.082 -0.04,0.095c-0.04,0.013 -0.085,-0.009 -0.102,-0.049c-0.018,-0.039 -0,-0.083 0.039,-0.094c0.04,-0.014 0.086,0.009 0.103,0.048Z" style="fill:#808080;"/><path d="M37.032,75.98c0.034,0.078 -0.013,0.165 -0.104,0.195c-0.091,0.03 -0.193,-0.009 -0.228,-0.087c-0.033,-0.077 0.013,-0.165 0.106,-0.194c0.09,-0.03 0.193,0.008 0.226,0.086Z" style="fill:#808080;"/><path d="M38.374,74.979c0.021,0.048 0.003,0.098 -0.04,0.111c-0.042,0.016 -0.094,-0.012 -0.114,-0.061c-0.021,-0.047 -0.003,-0.096 0.039,-0.11c0.043,-0.013 0.094,0.014 0.115,0.06Z" style="fill:#808080;"/><path d="M38.34,74.159c0.034,0.077 -0.012,0.165 -0.104,0.195c-0.091,0.029 -0.193,-0.009 -0.227,-0.088c-0.034,-0.078 0.013,-0.164 0.105,-0.194c0.09,-0.031 0.193,0.008 0.226,0.087Z" style="fill:#808080;"/><path d="M38.387,76.191c0.049,0.113 -0.005,0.237 -0.125,0.276c-0.118,0.038 -0.255,-0.023 -0.304,-0.137c-0.049,-0.112 0.006,-0.237 0.125,-0.276c0.119,-0.039 0.255,0.023 0.304,0.137Z" style="fill:#808080;"/><path d="M70.087,38.788c-0.004,0.038 -0.01,0.077 -0.016,0.116c-0.343,2.19 -2.666,3.725 -5.185,3.426c-0.021,-0.002 -0.041,-0.004 -0.063,-0.007c-0.731,1.869 -3.545,3.044 -6.664,2.674c-2.88,-0.342 -5.105,-1.89 -5.53,-3.68c-2.501,0.762 -4.934,0.446 -6.024,-0.953c-0.205,-0.263 -0.351,-0.55 -0.442,-0.855c-0.304,0.019 -0.615,0.013 -0.929,-0.024c-2.521,-0.287 -4.298,-2.299 -3.967,-4.49c0.008,-0.058 0.019,-0.117 0.031,-0.174c-0.106,-0.041 -0.208,-0.086 -0.305,-0.132c-0.172,0.093 -0.368,0.161 -0.586,0.193c-0.945,0.137 -1.928,-0.436 -2.193,-1.28c-0.124,-0.393 -0.07,-0.778 0.12,-1.089c-2.452,-0.925 -3.883,-3.485 -3.217,-5.876c0.694,-2.499 3.415,-3.87 6.073,-3.061c0.611,0.186 1.167,0.472 1.651,0.831c2.353,-0.922 5.567,-0.99 8.866,0.013c1.067,0.325 2.067,0.739 2.986,1.221c0.384,-0.14 0.796,-0.258 1.229,-0.351c1.81,-0.383 3.63,-0.227 5.007,0.329c0.255,-0.164 0.553,-0.288 0.89,-0.359c1.457,-0.31 3.067,0.489 3.591,1.78c0.421,1.036 0.017,2.077 -0.911,2.609c0.812,0.273 1.564,0.609 2.234,1c0.492,-0.223 1.046,-0.366 1.649,-0.409c2.617,-0.189 5.148,1.571 5.648,3.928c0.501,2.357 -1.218,4.425 -3.834,4.614c-0.037,0.002 -0.072,0.004 -0.109,0.006Z" style="fill:#a5abaf;stroke:#4c545d;stroke-width:2px;stroke-linecap:butt;stroke-miterlimit:2;"/><path d="M96.291,27.601c0.023,0.043 0.045,0.085 0.067,0.128c1.201,2.423 0.091,5.309 -2.478,6.441c-0.022,0.011 -0.044,0.019 -0.063,0.029c0.614,2.318 -1.209,5.118 -4.389,6.519c-2.938,1.296 -6.101,0.987 -7.742,-0.591c-1.815,2.201 -4.315,3.269 -6.311,2.465c-0.374,-0.151 -0.711,-0.359 -1.007,-0.618c-0.271,0.194 -0.569,0.362 -0.889,0.505c-2.563,1.145 -5.628,0.112 -6.841,-2.304c-0.032,-0.066 -0.062,-0.131 -0.092,-0.197c-0.128,0.019 -0.253,0.031 -0.378,0.04c-0.095,0.193 -0.232,0.374 -0.415,0.529c-0.789,0.681 -2.11,0.657 -2.945,-0.05c-0.389,-0.332 -0.606,-0.752 -0.646,-1.177c-2.941,0.457 -6.063,-1.333 -7.102,-4.144c-1.086,-2.938 0.512,-5.884 3.566,-6.577c0.702,-0.159 1.421,-0.184 2.126,-0.095c1.563,-2.28 4.527,-4.183 8.317,-5.044c1.226,-0.276 2.453,-0.426 3.65,-0.457c0.263,-0.364 0.566,-0.717 0.908,-1.059c1.429,-1.423 3.243,-2.301 4.922,-2.521c0.124,-0.311 0.318,-0.607 0.583,-0.871c1.152,-1.147 3.216,-1.253 4.606,-0.237c1.115,0.813 1.459,2.104 0.959,3.172c0.952,-0.185 1.891,-0.269 2.79,-0.255c0.306,-0.506 0.727,-0.968 1.261,-1.356c2.322,-1.683 5.918,-1.336 8.027,0.777c2.109,2.113 1.935,5.196 -0.386,6.88c-0.032,0.023 -0.066,0.046 -0.098,0.068Z" style="fill:#a5abaf;stroke:#4c545d;stroke-width:2px;stroke-linecap:butt;stroke-miterlimit:2;"/><path d="M64.233,9.523c0.751,-2.182 2.39,-4.16 4.751,-5.434c4.829,-2.606 10.868,-1.292 13.477,2.933c0.369,0.595 0.649,1.218 0.846,1.855c4.572,1.699 7.805,4.687 8.448,8.172c0.435,0.226 0.848,0.516 1.231,0.869c2.124,1.96 2.822,5.414 2.09,8.913c0.51,0.197 0.955,0.547 1.289,1.048c1.11,1.671 0.558,4.399 -1.234,6.088c-1.524,1.436 -3.456,1.662 -4.684,0.669c-0.746,0.606 -1.533,1.08 -2.33,1.415c-0.108,0.128 -0.218,0.255 -0.332,0.378c-3.067,3.341 -7.593,3.869 -10.254,1.259c-0.032,0.011 -0.065,0.02 -0.097,0.03c-1.737,0.507 -3.463,0.138 -4.622,-0.833c-2.231,2.173 -6.037,3.605 -10.354,3.605c-3.893,0 -7.372,-1.165 -9.652,-2.987c-0.636,0.236 -1.327,0.366 -2.05,0.366c-2.146,0 -4.019,-1.146 -4.985,-2.836c-2.876,0.434 -5.901,0.294 -8.503,-0.531c-5.688,-1.8 -7.231,-6.181 -3.441,-9.778c0.181,-0.173 0.37,-0.339 0.568,-0.501c-0.497,-0.107 -0.954,-0.351 -1.326,-0.735c-1.264,-1.309 -1.075,-3.762 0.421,-5.476c1.27,-1.458 3.082,-1.914 4.373,-1.213c2.519,-2.489 5.868,-3.266 8.44,-1.648c0.452,0.284 0.859,0.63 1.216,1.023c0.51,-0.102 1.031,-0.193 1.564,-0.272c0.301,-2.199 2.298,-4.317 5.07,-5.126c0.88,-0.257 1.753,-0.357 2.575,-0.318c0.374,-0.48 0.868,-0.839 1.452,-1.01c1.31,-0.382 2.673,0.307 3.418,1.597c0.794,-0.563 1.677,-1.073 2.635,-1.522Z" style="fill:#c3c8cb;stroke:#4c545d;stroke-width:2px;stroke-linecap:butt;stroke-miterlimit:2;"/><path d="M50.635,23.808c0.684,-2.529 4.796,-4.475 9.76,-4.475c5.442,-0 9.858,2.339 9.858,5.221c0,0.377 -0.075,0.745 -0.22,1.101c1.445,2.264 -0.199,5.712 -4.152,8.231c-4.511,2.873 -10.334,3.456 -12.994,1.299c-0.383,-0.31 -0.678,-0.661 -0.893,-1.041c-0.472,0.07 -0.959,0.105 -1.46,0.105c-4.01,0 -7.264,-2.338 -7.264,-5.22c-0,-2.882 3.254,-5.221 7.264,-5.221l0.101,-0Z" style="fill:#efeff0;stroke:#4c545d;stroke-width:2px;stroke-linecap:butt;stroke-miterlimit:2;"/><path d="M67.53,8.009c3.463,-1.551 7.065,-1.497 8.951,0.391c0.355,0.356 0.63,0.759 0.828,1.194c0.437,-0.08 0.89,-0.121 1.354,-0.121c3.721,0 6.741,2.68 6.741,5.982c0,3.303 -3.02,5.982 -6.741,5.982l-0.092,0c-0.635,2.898 -4.45,5.128 -9.056,5.128c-4.285,0 -7.886,-1.931 -8.877,-4.533c-3.488,1.561 -7.116,1.499 -9.005,-0.409c-0.352,-0.355 -0.624,-0.758 -0.82,-1.195c-0.438,0.077 -0.891,0.117 -1.355,0.115c-3.721,-0.017 -6.726,-2.71 -6.708,-6.011c0.017,-3.302 3.052,-5.97 6.773,-5.953l0.092,0c0.652,-2.893 4.479,-5.108 9.085,-5.089c4.254,0.02 7.822,1.939 8.83,4.519Z" style="fill:#aeaeb7;stroke:#4c545d;stroke-width:2px;stroke-linecap:butt;stroke-miterlimit:2;"/><path d="M87.884,61.539c0.483,0.137 0.905,0.478 1.128,0.971c0.404,0.89 0.007,1.94 -0.881,2.342c-0.891,0.404 -1.941,0.009 -2.344,-0.881c-0.375,-0.827 -0.059,-1.794 0.703,-2.249l-6.503,-43.722l7.897,43.539Z" style="fill:#ebebeb;stroke:#bbc7e2;stroke-width:0.46px;"/><path d="M87.181,63.132c0.058,-0.026 0.123,-0.003 0.147,0.051c0.025,0.053 -0.001,0.118 -0.059,0.144c-0.058,0.026 -0.124,0.003 -0.148,-0.051c-0.023,-0.053 0.003,-0.118 0.06,-0.144Z" style="fill:#808080;"/><path d="M87.043,64.305c0.055,-0.025 0.112,-0.013 0.13,0.026c0.017,0.039 -0.012,0.089 -0.067,0.114c-0.053,0.024 -0.111,0.013 -0.128,-0.026c-0.019,-0.038 0.012,-0.09 0.065,-0.114Z" style="fill:#808080;"/><path d="M86.305,63.108c0.036,-0.016 0.077,-0.005 0.091,0.027c0.015,0.032 -0.003,0.071 -0.039,0.088c-0.036,0.016 -0.078,0.003 -0.092,-0.029c-0.014,-0.032 0.004,-0.07 0.04,-0.086Z" style="fill:#808080;"/><path d="M88.551,63.034c0.036,-0.017 0.077,-0.004 0.091,0.028c0.014,0.031 -0.003,0.07 -0.039,0.087c-0.036,0.016 -0.076,0.003 -0.091,-0.028c-0.014,-0.032 0.003,-0.071 0.039,-0.087Z" style="fill:#808080;"/><path d="M87.881,63.242c0.036,-0.016 0.078,-0.005 0.093,0.027c0.014,0.032 -0.005,0.071 -0.041,0.088c-0.034,0.016 -0.076,0.003 -0.091,-0.029c-0.014,-0.032 0.003,-0.07 0.039,-0.086Z" style="fill:#808080;"/><path d="M87.654,61.788c0.036,-0.017 0.078,-0.004 0.092,0.027c0.013,0.032 -0.004,0.071 -0.04,0.087c-0.036,0.017 -0.077,0.004 -0.091,-0.027c-0.015,-0.032 0.003,-0.071 0.039,-0.087Z" style="fill:#808080;"/><path d="M86.615,63.835c0.045,-0.021 0.095,-0.006 0.112,0.032c0.018,0.039 -0.004,0.086 -0.05,0.106c-0.045,0.021 -0.095,0.006 -0.112,-0.031c-0.018,-0.039 0.004,-0.087 0.05,-0.107Z" style="fill:#808080;"/><path d="M87.922,63.834c0.089,-0.041 0.193,-0 0.233,0.089c0.04,0.089 0.001,0.195 -0.086,0.233c-0.088,0.041 -0.193,0 -0.234,-0.089c-0.04,-0.089 -0.001,-0.193 0.087,-0.233Z" style="fill:#808080;"/><path d="M86.674,62.566c0.055,-0.024 0.114,-0.01 0.133,0.032c0.018,0.041 -0.01,0.095 -0.064,0.119c-0.054,0.025 -0.114,0.01 -0.132,-0.031c-0.019,-0.042 0.01,-0.095 0.063,-0.12Z" style="fill:#808080;"/><path d="M87.089,62.297c0.088,-0.039 0.193,-0 0.233,0.089c0.041,0.089 0.002,0.194 -0.086,0.235c-0.089,0.04 -0.193,-0 -0.233,-0.09c-0.041,-0.089 -0.002,-0.194 0.086,-0.234Z" style="fill:#808080;"/><path d="M88.082,62.459c0.128,-0.059 0.276,-0.013 0.328,0.104c0.052,0.115 -0.01,0.257 -0.138,0.316c-0.13,0.059 -0.278,0.011 -0.33,-0.104c-0.052,-0.115 0.01,-0.258 0.14,-0.316Z" style="fill:#808080;"/><path d="M71.587,31.885c-2.777,1.383 -5.666,1.335 -7.18,-0.351c-0.284,-0.316 -0.504,-0.674 -0.665,-1.063c-0.35,0.071 -0.713,0.107 -1.085,0.107c-2.985,0 -5.407,-2.39 -5.407,-5.336c-0,-2.946 2.422,-5.337 5.407,-5.337l0.074,-0c0.509,-2.585 3.57,-4.575 7.264,-4.575c3.436,0 6.325,1.724 7.121,4.044c2.798,-1.392 5.708,-1.337 7.221,0.365c0.284,0.317 0.502,0.677 0.659,1.067c0.352,-0.07 0.715,-0.105 1.087,-0.104c2.984,0.016 5.395,2.419 5.38,5.363c-0.014,2.947 -2.447,5.326 -5.432,5.312l-0.074,-0c-0.522,2.581 -3.591,4.557 -7.287,4.539c-3.412,-0.017 -6.275,-1.73 -7.083,-4.031Z" style="fill:#b0b3b6;stroke:#4c545d;stroke-width:2px;stroke-linecap:butt;stroke-miterlimit:2;"/><path d="M24.264,8.405c2.618,-1.172 5.34,-1.131 6.766,0.297c0.267,0.268 0.475,0.573 0.625,0.902c0.331,-0.061 0.673,-0.092 1.024,-0.092c2.812,0 5.095,2.026 5.095,4.521c-0,2.497 -2.283,4.522 -5.095,4.522l-0.07,0c-0.48,2.19 -3.363,3.876 -6.845,3.876c-3.238,-0 -5.96,-1.459 -6.709,-3.426c-2.637,1.18 -5.379,1.133 -6.806,-0.309c-0.267,-0.269 -0.473,-0.573 -0.62,-0.904c-0.332,0.059 -0.674,0.088 -1.025,0.087c-2.812,-0.012 -5.083,-2.048 -5.07,-4.543c0.013,-2.496 2.307,-4.512 5.119,-4.499l0.07,-0c0.493,-2.187 3.385,-3.861 6.867,-3.847c3.215,0.015 5.912,1.465 6.674,3.415Z" style="fill:#aeaeb7;stroke:#4c545d;stroke-width:2px;stroke-linecap:butt;stroke-miterlimit:2;"/><path d="M36.883,39.288c-0.004,0.038 -0.01,0.077 -0.016,0.116c-0.343,2.19 -2.665,3.725 -5.185,3.426c-0.021,-0.002 -0.041,-0.004 -0.063,-0.007c-0.731,1.869 -3.545,3.044 -6.664,2.674c-2.88,-0.342 -5.105,-1.89 -5.529,-3.68c-2.501,0.762 -4.935,0.446 -6.025,-0.953c-0.205,-0.263 -0.351,-0.55 -0.441,-0.855c-0.305,0.019 -0.616,0.013 -0.93,-0.024c-2.521,-0.287 -4.298,-2.299 -3.966,-4.49c0.008,-0.058 0.018,-0.117 0.03,-0.174c-0.106,-0.041 -0.208,-0.086 -0.305,-0.132c-0.171,0.093 -0.368,0.161 -0.585,0.193c-0.946,0.137 -1.929,-0.436 -2.194,-1.28c-0.123,-0.393 -0.07,-0.778 0.12,-1.089c-2.452,-0.925 -3.883,-3.485 -3.217,-5.876c0.694,-2.499 3.415,-3.87 6.073,-3.061c0.612,0.186 1.167,0.472 1.651,0.831c2.353,-0.922 5.567,-0.99 8.866,0.013c1.067,0.325 2.067,0.739 2.986,1.221c0.384,-0.14 0.796,-0.258 1.229,-0.351c1.811,-0.383 3.63,-0.227 5.007,0.329c0.255,-0.164 0.554,-0.288 0.89,-0.359c1.457,-0.31 3.067,0.489 3.591,1.78c0.421,1.036 0.017,2.077 -0.91,2.609c0.812,0.273 1.563,0.609 2.233,1c0.492,-0.223 1.046,-0.366 1.649,-0.409c2.617,-0.189 5.148,1.571 5.649,3.928c0.501,2.357 -1.218,4.425 -3.835,4.614c-0.037,0.002 -0.072,0.004 -0.109,0.006Z" style="fill:#a5abaf;stroke:#4c545d;stroke-width:2px;stroke-linecap:butt;stroke-miterlimit:2;"/><path d="M63.088,28.101c0.022,0.043 0.044,0.085 0.066,0.128c1.201,2.423 0.091,5.309 -2.478,6.441c-0.022,0.011 -0.044,0.019 -0.063,0.029c0.614,2.318 -1.209,5.118 -4.388,6.519c-2.938,1.296 -6.102,0.987 -7.743,-0.591c-1.815,2.201 -4.315,3.269 -6.31,2.465c-0.374,-0.151 -0.712,-0.359 -1.008,-0.618c-0.271,0.194 -0.568,0.362 -0.889,0.505c-2.562,1.145 -5.627,0.112 -6.841,-2.304c-0.032,-0.066 -0.062,-0.131 -0.091,-0.197c-0.128,0.019 -0.254,0.031 -0.379,0.04c-0.095,0.193 -0.232,0.374 -0.415,0.529c-0.789,0.681 -2.11,0.657 -2.945,-0.05c-0.389,-0.332 -0.606,-0.752 -0.646,-1.177c-2.94,0.457 -6.063,-1.333 -7.102,-4.144c-1.085,-2.938 0.512,-5.884 3.566,-6.577c0.702,-0.159 1.421,-0.184 2.126,-0.095c1.563,-2.28 4.527,-4.183 8.318,-5.044c1.226,-0.276 2.453,-0.426 3.649,-0.457c0.263,-0.364 0.566,-0.717 0.908,-1.059c1.429,-1.423 3.243,-2.301 4.922,-2.521c0.124,-0.311 0.318,-0.607 0.583,-0.871c1.152,-1.147 3.216,-1.253 4.606,-0.237c1.115,0.813 1.459,2.104 0.959,3.172c0.952,-0.185 1.891,-0.269 2.79,-0.255c0.306,-0.506 0.727,-0.968 1.261,-1.356c2.322,-1.683 5.919,-1.336 8.027,0.777c2.109,2.113 1.935,5.196 -0.386,6.88c-0.032,0.023 -0.065,0.046 -0.097,0.068Z" style="fill:#a5abaf;stroke:#4c545d;stroke-width:2px;stroke-linecap:butt;stroke-miterlimit:2;"/><path d="M37.983,9.523c0.751,-2.182 2.39,-4.16 4.751,-5.434c4.829,-2.606 10.868,-1.292 13.477,2.933c0.369,0.595 0.649,1.218 0.846,1.855c4.572,1.699 7.805,4.687 8.448,8.172c0.435,0.226 0.848,0.516 1.231,0.869c2.124,1.96 2.822,5.414 2.09,8.913c0.51,0.197 0.955,0.547 1.289,1.048c1.11,1.671 0.558,4.399 -1.234,6.088c-1.524,1.436 -3.456,1.662 -4.684,0.669c-0.746,0.606 -1.533,1.08 -2.33,1.415c-0.108,0.128 -0.218,0.255 -0.332,0.378c-3.067,3.341 -7.593,3.869 -10.254,1.259c-0.032,0.011 -0.065,0.02 -0.097,0.03c-1.737,0.507 -3.463,0.138 -4.622,-0.833c-2.231,2.173 -5.995,-5.82 -10.312,-5.82c-3.893,0 -7.414,8.26 -9.694,6.438c-0.636,0.236 -1.327,0.366 -2.05,0.366c-2.146,0 -4.019,-1.146 -4.985,-2.836c-2.876,0.434 -5.901,0.294 -8.503,-0.531c-5.688,-1.8 -7.231,-6.181 -3.441,-9.778c0.181,-0.173 0.37,-0.339 0.568,-0.501c-0.497,-0.107 -0.954,-0.351 -1.326,-0.735c-1.264,-1.309 -1.075,-3.762 0.421,-5.476c1.27,-1.458 3.082,-1.914 4.373,-1.213c2.519,-2.489 5.868,-3.266 8.44,-1.648c0.452,0.284 0.859,0.63 1.216,1.023c0.51,-0.102 1.031,-0.193 1.564,-0.272c0.301,-2.199 2.298,-4.317 5.07,-5.126c0.88,-0.257 1.753,-0.357 2.575,-0.318c0.374,-0.48 0.868,-0.839 1.452,-1.01c1.31,-0.382 2.673,0.307 3.418,1.597c0.794,-0.563 1.677,-1.073 2.635,-1.522Z" style="fill:#c3c8cb;stroke:#4c545d;stroke-width:2px;stroke-linecap:butt;stroke-miterlimit:2;"/><path d="M39.757,18.83c2.266,-2.119 5.048,-2.899 6.981,-1.716c0.362,0.222 0.676,0.502 0.941,0.829c0.315,-0.168 0.653,-0.307 1.009,-0.413c2.86,-0.853 5.865,0.745 6.707,3.568c0.842,2.823 -0.795,5.807 -3.656,6.66l-0.071,0.021c0.251,2.623 -2.113,5.404 -5.652,6.46c-3.294,0.983 -6.555,0.157 -7.981,-1.839c-2.282,2.133 -5.087,2.913 -7.024,1.715c-0.362,-0.223 -0.674,-0.506 -0.936,-0.835c-0.317,0.168 -0.655,0.306 -1.012,0.411c-2.864,0.838 -5.861,-0.776 -6.689,-3.602c-0.829,-2.827 0.823,-5.803 3.688,-6.642l0.071,-0.022c-0.238,-2.622 2.138,-5.393 5.684,-6.432c3.275,-0.959 6.508,-0.137 7.94,1.837Z" style="fill:#959da7;stroke:#4c545d;stroke-width:2px;stroke-linecap:butt;stroke-miterlimit:2;"/><path d="M28.626,60.989c-0.232,0.114 -0.421,0.316 -0.507,0.579c-0.173,0.52 0.108,1.082 0.628,1.255c0.52,0.173 1.082,-0.11 1.255,-0.628c0.146,-0.444 -0.036,-0.916 -0.415,-1.154l1.334,-30.774l-2.295,30.722Z" style="fill:#ebebeb;stroke:#bbc7e2;stroke-width:0.46px;"/><path d="M28.914,61.987c0.026,0.019 0.062,0.013 0.081,-0.014c0.018,-0.026 0.011,-0.062 -0.015,-0.081c-0.026,-0.018 -0.062,-0.011 -0.081,0.015c-0.018,0.027 -0.011,0.063 0.015,0.08Z" style="fill:#808080;"/><path d="M28.977,61.356c0.025,0.018 0.055,0.016 0.069,-0.002c0.013,-0.019 0.003,-0.049 -0.021,-0.067c-0.025,-0.017 -0.055,-0.016 -0.068,0.005c-0.014,0.018 -0.004,0.047 0.02,0.064Z" style="fill:#808080;"/><path d="M28.464,61.931c0.018,0.012 0.039,0.009 0.051,-0.007c0.01,-0.016 0.006,-0.037 -0.01,-0.049c-0.018,-0.012 -0.039,-0.009 -0.051,0.007c-0.01,0.016 -0.005,0.038 0.01,0.049Z" style="fill:#808080;"/><path d="M29.6,62.149c0.015,0.011 0.037,0.008 0.049,-0.007c0.011,-0.016 0.007,-0.038 -0.01,-0.049c-0.016,-0.012 -0.039,-0.009 -0.049,0.007c-0.012,0.016 -0.008,0.037 0.01,0.049Z" style="fill:#808080;"/><path d="M29.283,61.986c0.016,0.011 0.039,0.007 0.049,-0.007c0.011,-0.016 0.007,-0.039 -0.01,-0.051c-0.016,-0.01 -0.039,-0.007 -0.049,0.009c-0.012,0.016 -0.008,0.037 0.01,0.049Z" style="fill:#808080;"/><path d="M29,62.738c0.018,0.01 0.039,0.007 0.051,-0.009c0.01,-0.016 0.006,-0.037 -0.01,-0.049c-0.018,-0.011 -0.039,-0.007 -0.051,0.007c-0.01,0.016 -0.006,0.039 0.01,0.051Z" style="fill:#808080;"/><path d="M28.705,61.571c0.02,0.014 0.048,0.012 0.062,-0.009c0.013,-0.018 0.007,-0.044 -0.014,-0.059c-0.021,-0.014 -0.048,-0.011 -0.061,0.008c-0.013,0.02 -0.007,0.046 0.013,0.06Z" style="fill:#808080;"/><path d="M29.371,61.676c0.04,0.028 0.098,0.015 0.128,-0.029c0.031,-0.044 0.023,-0.103 -0.018,-0.131c-0.04,-0.029 -0.097,-0.016 -0.128,0.029c-0.031,0.043 -0.023,0.102 0.018,0.131Z" style="fill:#808080;"/><path d="M28.591,62.248c0.025,0.017 0.056,0.015 0.071,-0.007c0.014,-0.02 0.006,-0.051 -0.019,-0.068c-0.024,-0.017 -0.056,-0.014 -0.071,0.006c-0.014,0.02 -0.005,0.052 0.019,0.069Z" style="fill:#808080;"/><path d="M28.771,62.422c0.041,0.029 0.098,0.016 0.13,-0.028c0.03,-0.044 0.022,-0.103 -0.019,-0.131c-0.04,-0.028 -0.098,-0.015 -0.128,0.028c-0.03,0.045 -0.023,0.104 0.017,0.131Z" style="fill:#808080;"/><path d="M29.294,62.415c0.059,0.042 0.14,0.029 0.18,-0.029c0.039,-0.056 0.023,-0.136 -0.034,-0.177c-0.059,-0.042 -0.14,-0.029 -0.18,0.029c-0.041,0.056 -0.025,0.137 0.034,0.177Z" style="fill:#808080;"/><path d="M14.144,61.019c-0.458,0.133 -0.858,0.451 -1.08,0.915c-0.415,0.863 -0.051,1.899 0.812,2.312c0.862,0.415 1.899,0.051 2.314,-0.812c0.354,-0.738 0.138,-1.605 -0.473,-2.099l5.783,-35.097l-7.356,34.781Z" style="fill:#ebebeb;stroke:#bbc7e2;stroke-width:0.46px;"/><path d="M14.811,62.437c-0.034,0.053 -0.021,0.124 0.028,0.154c0.049,0.032 0.116,0.011 0.151,-0.043c0.035,-0.054 0.022,-0.124 -0.027,-0.154c-0.049,-0.032 -0.117,-0.012 -0.152,0.043Z" style="fill:#808080;"/><path d="M14.918,61.549c-0.022,0.035 -0.016,0.078 0.014,0.095c0.029,0.019 0.07,0.006 0.091,-0.028c0.022,-0.035 0.016,-0.077 -0.013,-0.095c-0.03,-0.019 -0.07,-0.006 -0.092,0.028Z" style="fill:#808080;"/><path d="M14.51,63.805c-0.021,0.035 -0.016,0.078 0.013,0.097c0.03,0.017 0.071,0.004 0.092,-0.03c0.022,-0.034 0.016,-0.077 -0.014,-0.096c-0.029,-0.017 -0.071,-0.004 -0.091,0.029Z" style="fill:#808080;"/><path d="M14.816,63.156c-0.022,0.034 -0.016,0.077 0.013,0.096c0.03,0.017 0.07,0.004 0.092,-0.029c0.021,-0.034 0.016,-0.078 -0.015,-0.096c-0.028,-0.018 -0.069,-0.005 -0.09,0.029Z" style="fill:#808080;"/><path d="M13.41,62.749c-0.022,0.035 -0.016,0.077 0.013,0.095c0.03,0.019 0.07,0.006 0.092,-0.028c0.021,-0.035 0.016,-0.077 -0.015,-0.095c-0.028,-0.019 -0.07,-0.006 -0.09,0.028Z" style="fill:#808080;"/><path d="M15.592,61.95c-0.027,0.043 -0.02,0.096 0.015,0.118c0.036,0.023 0.086,0.006 0.113,-0.038c0.028,-0.041 0.021,-0.095 -0.015,-0.116c-0.036,-0.023 -0.087,-0.006 -0.113,0.036Z" style="fill:#808080;"/><path d="M15.395,63.269c-0.052,0.084 -0.029,0.195 0.055,0.247c0.082,0.052 0.191,0.024 0.244,-0.059c0.052,-0.084 0.029,-0.195 -0.054,-0.247c-0.082,-0.052 -0.192,-0.026 -0.245,0.059Z" style="fill:#808080;"/><path d="M14.326,61.856c-0.032,0.052 -0.027,0.113 0.011,0.137c0.039,0.025 0.095,0.001 0.129,-0.049c0.031,-0.052 0.027,-0.114 -0.012,-0.137c-0.039,-0.024 -0.095,-0.003 -0.128,0.049Z" style="fill:#808080;"/><path d="M13.997,62.241c-0.051,0.085 -0.028,0.194 0.055,0.246c0.082,0.052 0.192,0.026 0.245,-0.059c0.052,-0.083 0.029,-0.194 -0.055,-0.245c-0.082,-0.052 -0.191,-0.026 -0.245,0.058Z" style="fill:#808080;"/><path d="M14.01,63.262c-0.077,0.123 -0.053,0.277 0.054,0.344c0.106,0.067 0.256,0.022 0.334,-0.102c0.076,-0.122 0.053,-0.276 -0.053,-0.344c-0.108,-0.066 -0.257,-0.022 -0.335,0.102Z" style="fill:#808080;"/><path d="M25.254,63.819c0.236,0.199 0.4,0.472 0.439,0.786c0.086,0.686 -0.445,1.306 -1.186,1.386c-0.74,0.081 -1.411,-0.411 -1.498,-1.097c-0.076,-0.61 0.337,-1.17 0.952,-1.341l6.79,-38.553l-5.497,38.819Z" style="fill:#ebebeb;stroke:#bbc7e2;stroke-width:0.45px;"/><path d="M30.593,41.204c-3.165,1.576 -6.458,1.521 -8.184,-0.4c-0.324,-0.362 -0.575,-0.77 -0.758,-1.213c-0.399,0.081 -0.813,0.123 -1.237,0.123c-3.402,-0 -6.163,-2.725 -6.163,-6.083c-0,-3.358 2.761,-6.084 6.163,-6.084l0.085,-0c0.58,-2.946 4.069,-5.215 8.279,-5.215c3.918,0 7.211,1.965 8.118,4.61c3.189,-1.586 6.506,-1.524 8.231,0.416c0.323,0.361 0.572,0.772 0.751,1.216c0.401,-0.079 0.815,-0.12 1.24,-0.118c3.401,0.018 6.149,2.757 6.132,6.114c-0.016,3.358 -2.79,6.071 -6.192,6.054l-0.085,-0c-0.594,2.942 -4.093,5.195 -8.305,5.174c-3.89,-0.02 -7.153,-1.971 -8.075,-4.594Z" style="fill:#babdbf;stroke:#4c545d;stroke-width:2px;stroke-linecap:butt;stroke-miterlimit:2;"/><path d="M51.618,67.064c0.253,0.175 0.448,0.44 0.53,0.763c0.176,0.701 -0.251,1.414 -0.952,1.59c-0.702,0.177 -1.415,-0.249 -1.592,-0.951c-0.157,-0.626 0.166,-1.26 0.733,-1.515l1.271,-40.95l0.01,41.063Z" style="fill:#ebebeb;stroke:#bbc7e2;stroke-width:0.46px;"/><path d="M50.67,68.024c0.046,-0.012 0.094,0.017 0.105,0.066c0.013,0.048 -0.016,0.095 -0.062,0.107c-0.047,0.013 -0.095,-0.018 -0.107,-0.065c-0.011,-0.048 0.016,-0.097 0.064,-0.108Z" style="fill:#808080;"/><path d="M50.424,68.96c0.043,-0.01 0.086,0.009 0.095,0.044c0.008,0.034 -0.021,0.07 -0.065,0.082c-0.043,0.011 -0.087,-0.009 -0.095,-0.042c-0.009,-0.035 0.02,-0.072 0.065,-0.084Z" style="fill:#808080;"/><path d="M50.004,67.86c0.031,-0.008 0.059,0.008 0.067,0.037c0.007,0.029 -0.011,0.058 -0.041,0.065c-0.029,0.007 -0.059,-0.01 -0.066,-0.037c-0.007,-0.029 0.012,-0.058 0.04,-0.065Z" style="fill:#808080;"/><path d="M51.726,68.169c0.029,-0.007 0.057,0.01 0.065,0.039c0.007,0.028 -0.01,0.058 -0.041,0.065c-0.029,0.007 -0.059,-0.01 -0.065,-0.039c-0.007,-0.027 0.011,-0.056 0.041,-0.065Z" style="fill:#808080;"/><path d="M51.19,68.23c0.03,-0.007 0.059,0.009 0.066,0.037c0.007,0.029 -0.011,0.058 -0.04,0.065c-0.029,0.007 -0.059,-0.01 -0.066,-0.037c-0.008,-0.029 0.011,-0.058 0.04,-0.065Z" style="fill:#808080;"/><path d="M51.191,67.003c0.031,-0.008 0.059,0.01 0.067,0.037c0.007,0.029 -0.01,0.058 -0.041,0.065c-0.029,0.007 -0.059,-0.009 -0.066,-0.038c-0.007,-0.028 0.012,-0.057 0.04,-0.064Z" style="fill:#808080;"/><path d="M50.153,68.505c0.037,-0.009 0.073,0.012 0.082,0.046c0.008,0.035 -0.015,0.069 -0.051,0.079c-0.037,0.009 -0.073,-0.011 -0.082,-0.046c-0.008,-0.034 0.015,-0.069 0.051,-0.079Z" style="fill:#808080;"/><path d="M51.15,68.72c0.072,-0.018 0.147,0.033 0.167,0.112c0.02,0.079 -0.022,0.159 -0.095,0.177c-0.072,0.019 -0.147,-0.031 -0.166,-0.112c-0.02,-0.079 0.022,-0.159 0.094,-0.177Z" style="fill:#808080;"/><path d="M50.351,67.478c0.045,-0.012 0.088,0.01 0.097,0.047c0.01,0.036 -0.019,0.077 -0.062,0.087c-0.045,0.011 -0.088,-0.01 -0.098,-0.048c-0.009,-0.036 0.019,-0.076 0.063,-0.086Z" style="fill:#808080;"/><path d="M50.7,67.327c0.072,-0.019 0.147,0.031 0.167,0.111c0.02,0.079 -0.023,0.158 -0.095,0.177c-0.072,0.019 -0.147,-0.032 -0.167,-0.111c-0.02,-0.081 0.023,-0.16 0.095,-0.177Z" style="fill:#808080;"/><path d="M51.436,67.622c0.105,-0.026 0.212,0.036 0.238,0.14c0.027,0.103 -0.037,0.209 -0.144,0.235c-0.105,0.027 -0.212,-0.036 -0.238,-0.139c-0.026,-0.103 0.039,-0.209 0.144,-0.236Z" style="fill:#808080;"/><path d="M76.732,65.189c0.439,0.181 0.802,0.543 0.972,1.027c0.318,0.902 -0.156,1.893 -1.059,2.21c-0.902,0.318 -1.893,-0.157 -2.211,-1.059c-0.272,-0.774 0.037,-1.611 0.698,-2.034l-1.927,-35.519l3.527,35.375Z" style="fill:#ebebeb;stroke:#bbc7e2;stroke-width:0.46px;"/><path d="M57.682,37.731c-3.224,1.487 -6.578,1.435 -8.334,-0.377c-0.33,-0.34 -0.586,-0.726 -0.771,-1.145c-0.407,0.078 -0.828,0.117 -1.261,0.117c-3.463,0 -6.274,-2.57 -6.274,-5.738c0,-3.168 2.811,-5.739 6.274,-5.739l0.086,0c0.593,-2.779 4.143,-4.919 8.431,-4.919c3.99,0 7.341,1.853 8.265,4.349c3.246,-1.498 6.623,-1.439 8.382,0.392c0.328,0.34 0.582,0.728 0.762,1.146c0.408,-0.075 0.831,-0.112 1.262,-0.111c3.465,0.017 6.261,2.601 6.246,5.767c-0.017,3.168 -2.842,5.727 -6.306,5.71l-0.085,0c-0.607,2.777 -4.169,4.902 -8.458,4.882c-3.959,-0.018 -7.283,-1.859 -8.219,-4.334Z" style="fill:#bdbdc1;stroke:#4c545d;stroke-width:2px;stroke-linecap:butt;stroke-miterlimit:2;"/><path d="M24.319,64.566c0.043,-0.004 0.082,0.027 0.088,0.07c0.004,0.044 -0.026,0.083 -0.069,0.088c-0.043,0.005 -0.082,-0.026 -0.088,-0.07c-0.004,-0.043 0.026,-0.082 0.069,-0.088Z" style="fill:#808080;"/><path d="M23.988,65.365c0.041,-0.005 0.078,0.016 0.08,0.048c0.005,0.032 -0.026,0.06 -0.066,0.065c-0.042,0.006 -0.078,-0.016 -0.081,-0.048c-0.004,-0.031 0.026,-0.06 0.067,-0.065Z" style="fill:#808080;"/><path d="M23.746,64.344c0.026,-0.003 0.05,0.016 0.054,0.042c0.003,0.026 -0.017,0.049 -0.044,0.052c-0.028,0.004 -0.052,-0.015 -0.055,-0.041c-0.003,-0.026 0.017,-0.049 0.045,-0.053Z" style="fill:#808080;"/><path d="M25.245,64.817c0.026,-0.005 0.051,0.014 0.054,0.04c0.004,0.026 -0.016,0.049 -0.044,0.052c-0.027,0.004 -0.051,-0.015 -0.054,-0.041c-0.003,-0.026 0.017,-0.049 0.044,-0.051Z" style="fill:#808080;"/><path d="M24.76,64.806c0.027,-0.002 0.052,0.016 0.055,0.042c0.002,0.026 -0.016,0.049 -0.044,0.052c-0.027,0.004 -0.051,-0.014 -0.054,-0.04c-0.003,-0.026 0.015,-0.049 0.043,-0.054Z" style="fill:#808080;"/><path d="M24.907,63.725c0.027,-0.003 0.052,0.015 0.055,0.04c0.002,0.026 -0.016,0.05 -0.044,0.053c-0.027,0.003 -0.052,-0.016 -0.054,-0.042c-0.003,-0.024 0.015,-0.049 0.043,-0.051Z" style="fill:#808080;"/><path d="M23.8,64.932c0.035,-0.005 0.065,0.018 0.07,0.049c0.002,0.031 -0.022,0.06 -0.055,0.065c-0.035,0.002 -0.065,-0.019 -0.069,-0.051c-0.003,-0.032 0.021,-0.059 0.054,-0.063Z" style="fill:#808080;"/><path d="M24.666,65.236c0.066,-0.007 0.127,0.044 0.136,0.118c0.008,0.072 -0.039,0.137 -0.106,0.145c-0.066,0.008 -0.128,-0.046 -0.135,-0.118c-0.009,-0.072 0.038,-0.138 0.105,-0.145Z" style="fill:#808080;"/><path d="M24.1,64.047c0.04,-0.004 0.078,0.019 0.081,0.054c0.004,0.033 -0.026,0.064 -0.067,0.069c-0.04,0.005 -0.076,-0.019 -0.08,-0.052c-0.005,-0.035 0.026,-0.066 0.066,-0.071Z" style="fill:#808080;"/><path d="M24.43,63.954c0.066,-0.008 0.127,0.044 0.135,0.118c0.009,0.072 -0.039,0.137 -0.105,0.145c-0.066,0.007 -0.128,-0.044 -0.135,-0.118c-0.009,-0.072 0.037,-0.138 0.105,-0.145Z" style="fill:#808080;"/><path d="M25.052,64.299c0.097,-0.011 0.185,0.057 0.196,0.15c0.012,0.095 -0.059,0.18 -0.157,0.192c-0.096,0.011 -0.184,-0.056 -0.196,-0.15c-0.011,-0.095 0.059,-0.18 0.157,-0.192Z" style="fill:#808080;"/><path d="M76.22,66.508c0.019,0.061 -0.01,0.125 -0.066,0.143c-0.057,0.017 -0.117,-0.019 -0.136,-0.081c-0.019,-0.06 0.01,-0.125 0.066,-0.143c0.055,-0.017 0.116,0.019 0.136,0.081Z" style="fill:#808080;"/><path d="M75.075,66.211c0.018,0.058 0.001,0.116 -0.039,0.127c-0.041,0.013 -0.088,-0.023 -0.105,-0.082c-0.019,-0.058 -0,-0.115 0.038,-0.127c0.041,-0.013 0.088,0.025 0.106,0.082Z" style="fill:#808080;"/><path d="M76.342,65.624c0.012,0.037 -0.004,0.077 -0.037,0.087c-0.033,0.011 -0.069,-0.013 -0.082,-0.05c-0.012,-0.039 0.006,-0.079 0.037,-0.089c0.033,-0.01 0.071,0.013 0.082,0.052Z" style="fill:#808080;"/><path d="M76.164,67.908c0.011,0.039 -0.006,0.08 -0.039,0.09c-0.033,0.01 -0.069,-0.013 -0.081,-0.052c-0.013,-0.039 0.004,-0.078 0.038,-0.088c0.033,-0.01 0.069,0.013 0.082,0.05Z" style="fill:#808080;"/><path d="M76.033,67.202c0.013,0.039 -0.005,0.08 -0.038,0.09c-0.033,0.01 -0.069,-0.013 -0.082,-0.052c-0.011,-0.038 0.006,-0.078 0.039,-0.088c0.032,-0.01 0.069,0.013 0.081,0.05Z" style="fill:#808080;"/><path d="M77.496,67.166c0.012,0.039 -0.004,0.08 -0.037,0.09c-0.033,0.01 -0.071,-0.013 -0.082,-0.052c-0.012,-0.038 0.004,-0.078 0.037,-0.088c0.033,-0.01 0.071,0.013 0.082,0.05Z" style="fill:#808080;"/><path d="M75.589,65.84c0.014,0.047 -0.006,0.098 -0.045,0.109c-0.04,0.013 -0.085,-0.016 -0.101,-0.065c-0.014,-0.047 0.006,-0.096 0.047,-0.109c0.038,-0.013 0.083,0.016 0.099,0.065Z" style="fill:#808080;"/><path d="M75.443,67.165c0.029,0.095 -0.021,0.194 -0.115,0.225c-0.092,0.029 -0.191,-0.025 -0.222,-0.12c-0.028,-0.095 0.022,-0.196 0.116,-0.225c0.092,-0.028 0.191,0.025 0.221,0.12Z" style="fill:#808080;"/><path d="M76.836,66.07c0.018,0.058 -0.002,0.117 -0.046,0.13c-0.043,0.013 -0.092,-0.023 -0.111,-0.081c-0.018,-0.058 0.003,-0.115 0.047,-0.13c0.043,-0.013 0.092,0.024 0.11,0.081Z" style="fill:#808080;"/><path d="M77.055,66.527c0.031,0.093 -0.021,0.194 -0.113,0.223c-0.094,0.03 -0.193,-0.024 -0.222,-0.118c-0.03,-0.095 0.021,-0.196 0.114,-0.225c0.093,-0.029 0.193,0.025 0.221,0.12Z" style="fill:#808080;"/><path d="M76.785,67.509c0.043,0.14 -0.021,0.283 -0.14,0.32c-0.121,0.038 -0.254,-0.045 -0.297,-0.183c-0.043,-0.138 0.019,-0.282 0.14,-0.32c0.119,-0.037 0.253,0.045 0.297,0.183Z" style="fill:#808080;"/></svg>