<?xml version="1.0" encoding="UTF-8" standalone="no"?><!DOCTYPE svg PUBLIC "-//W3C//DTD SVG 1.1//EN" "http://www.w3.org/Graphics/SVG/1.1/DTD/svg11.dtd"><svg width="100%" height="100%" viewBox="0 0 100 100" version="1.1" xmlns="http://www.w3.org/2000/svg" xmlns:xlink="http://www.w3.org/1999/xlink" xml:space="preserve" xmlns:serif="http://www.serif.com/" style="fill-rule:evenodd;clip-rule:evenodd;stroke-linejoin:round;stroke-miterlimit:2;"><path d="M69.702,49.477c-0.261,-2.759 -0.051,-9.063 4.227,-12.92c2.972,-2.68 7.347,-3.256 13.009,-1.716c4.81,1.309 7.945,4.424 8.827,8.771c1.089,5.376 -1.669,11.72 -6.863,15.784c-3.895,3.048 -8.618,4.581 -13.766,4.581c-4.37,0 -9.044,-1.104 -13.774,-3.324c-26.707,-12.54 -55.897,-1.65 -56.239,-2.481c-0.342,-0.832 29.587,-13.626 57.627,-0.464c9.147,4.299 17.948,3.978 24.14,-0.871c4.247,-3.324 6.529,-8.381 5.678,-12.581c-0.633,-3.124 -2.876,-5.294 -6.488,-6.277c-4.515,-1.229 -7.865,-0.896 -9.959,0.986c-3.977,3.577 -2.689,11.736 -2.675,11.818c0.144,0.886 0.839,4.57 4.464,3.924c5.305,-0.945 8.676,-3.183 9.247,-6.138c0.444,-2.297 -0.961,-4.722 -3.497,-6.035c-0.808,-0.419 -1.915,-0.816 -2.604,-0.337c-1.13,0.787 -1.353,3.659 -1.285,4.927c0.035,0.65 -0.451,1.235 -1.086,1.309c-0.636,0.075 -1.179,-0.392 -1.216,-1.04c-0.031,-0.538 -0.225,-5.322 2.364,-7.128c1.018,-0.711 2.239,-0.846 3.644,-0.407c0.421,0.132 0.86,0.315 1.314,0.55c3.408,1.766 5.268,5.179 4.627,8.494c-0.369,1.91 -2.203,6.526 -11.24,8.137c-7.071,1.258 -8.05,-3.062 -8.476,-7.562Z" style="fill:#d3d3d3;"/><path d="M6.252,42.866c-0.474,0.869 26.537,6.65 46.255,-7.394c13.357,-9.52 12.016,-15.874 10.82,-18.164c-2.078,-3.976 -8.366,-5.877 -15.646,-4.733c-0.971,0.153 -1.866,0.345 -2.684,0.576c-2.728,0.769 -4.612,1.97 -5.616,3.589c-2.555,4.113 2.359,8.833 2.843,9.404c2.007,2.363 3.59,2.777 3.59,2.777c6.065,3.301 10.447,-4.696 10.187,-7.682c-0.034,-0.398 -0.099,-0.762 -0.191,-1.09c-0.31,-1.098 -0.941,-1.814 -1.887,-2.135c-2.404,-0.817 -4.727,2.237 -4.983,2.849c-0.21,0.502 -0.527,0.883 -0.195,1.254c0.331,0.371 0.955,0.41 1.395,0.088c0.859,-0.627 1.917,-2.878 2.966,-2.521c0.638,0.218 0.846,1.107 0.908,1.815c0.193,2.221 -0.891,4.234 -2.696,5.01c-1.594,0.684 -2.358,-0.201 -4.382,-1.413c0,0 -0.658,-0.739 -1.176,-1.231c-1.31,-1.248 -3.656,-4.403 -2.54,-6.197c0.683,-1.093 2.882,-1.647 4.608,-1.918c5.415,-0.851 10.02,0.427 11.46,3.181c1.852,3.544 -1.584,8.782 -9.426,14.37c-17.663,12.59 -43.14,8.695 -43.61,9.565Z" style="fill:#d3d3d3;fill-rule:nonzero;"/><g><path d="M57.367,79.278c0.035,-0.07 0.083,-0.133 0.144,-0.186c0.192,-0.163 0.501,-0.217 0.748,-0.132c0.082,0.029 0.158,0.068 0.227,0.126c0.062,0.052 0.11,0.115 0.145,0.185c0.034,0.07 0.055,0.145 0.055,0.22c0,0.081 -0.02,0.156 -0.054,0.226c-0.034,0.07 -0.082,0.133 -0.143,0.186c-0.069,0.058 -0.144,0.1 -0.227,0.128c-0.081,0.03 -0.171,0.048 -0.26,0.049c-0.089,0 -0.179,-0.016 -0.26,-0.045c-0.083,-0.029 -0.159,-0.069 -0.228,-0.126c-0.062,-0.051 -0.11,-0.115 -0.145,-0.185c-0.042,-0.069 -0.055,-0.145 -0.055,-0.225c-0.001,-0.076 0.013,-0.151 0.053,-0.221Z" style="fill:#808080;fill-rule:nonzero;"/></g><g><path d="M53.145,67.442c0.166,-0.141 0.427,-0.188 0.647,-0.113c0.071,0.023 0.136,0.058 0.195,0.108c0.108,0.089 0.173,0.22 0.174,0.35c-0,0.07 -0.012,0.135 -0.047,0.195c-0.03,0.061 -0.071,0.116 -0.124,0.161c-0.113,0.096 -0.261,0.147 -0.421,0.149c-0.16,-0 -0.308,-0.049 -0.422,-0.144c-0.053,-0.044 -0.094,-0.099 -0.124,-0.159c-0.036,-0.06 -0.049,-0.126 -0.049,-0.196c-0.001,-0.13 0.064,-0.261 0.171,-0.351Z" style="fill:#808080;fill-rule:nonzero;"/></g><g><path d="M77.148,61.902c0.187,-0.159 0.48,-0.211 0.726,-0.128c0.08,0.028 0.154,0.067 0.22,0.123c0.121,0.1 0.194,0.246 0.194,0.392c0.001,0.079 -0.012,0.151 -0.051,0.22c-0.034,0.067 -0.08,0.13 -0.14,0.181c-0.126,0.107 -0.293,0.165 -0.472,0.165c-0.18,0.001 -0.346,-0.054 -0.474,-0.16c-0.06,-0.05 -0.107,-0.112 -0.14,-0.18c-0.04,-0.066 -0.054,-0.14 -0.054,-0.219c-0.001,-0.146 0.072,-0.292 0.191,-0.394Z" style="fill:#808080;fill-rule:nonzero;"/></g><g><path d="M36.838,33.694c0.029,-0.059 0.068,-0.113 0.12,-0.157c0.218,-0.184 0.597,-0.187 0.815,-0.005c0.104,0.088 0.167,0.213 0.168,0.339c0,0.131 -0.062,0.253 -0.165,0.346c-0.109,0.092 -0.257,0.142 -0.407,0.144c-0.15,-0 -0.299,-0.048 -0.408,-0.139c-0.053,-0.044 -0.092,-0.098 -0.122,-0.155c-0.035,-0.062 -0.046,-0.126 -0.046,-0.189c-0,-0.063 0.01,-0.126 0.045,-0.184Z" style="fill:#808080;fill-rule:nonzero;"/></g><g><path d="M70.608,42.021c0.026,-0.054 0.063,-0.104 0.111,-0.144c0.201,-0.172 0.552,-0.174 0.754,-0.005c0.096,0.08 0.154,0.196 0.154,0.313c0.001,0.122 -0.057,0.234 -0.152,0.319c-0.1,0.086 -0.238,0.132 -0.376,0.132c-0.138,0.002 -0.276,-0.042 -0.377,-0.127c-0.049,-0.04 -0.086,-0.09 -0.113,-0.144c-0.032,-0.057 -0.043,-0.116 -0.043,-0.173c0,-0.059 0.011,-0.118 0.042,-0.171Z" style="fill:#808080;fill-rule:nonzero;"/></g><g><path d="M30.16,23.025c0.008,-0.055 0.027,-0.101 0.053,-0.149c0.019,-0.046 0.046,-0.092 0.083,-0.131c0.036,-0.046 0.073,-0.085 0.109,-0.116c0.045,-0.039 0.091,-0.07 0.137,-0.101c0.054,-0.024 0.11,-0.055 0.164,-0.071c0.055,-0.024 0.11,-0.032 0.165,-0.048c0.301,-0.047 0.612,0.028 0.833,0.212c0.165,0.138 0.266,0.339 0.267,0.54c0,0.107 -0.026,0.2 -0.072,0.301c-0.045,0.092 -0.108,0.179 -0.191,0.248c-0.091,0.07 -0.192,0.133 -0.301,0.172c-0.11,0.04 -0.229,0.056 -0.348,0.056c-0.055,0.001 -0.119,0.001 -0.183,-0.014c-0.054,-0.007 -0.11,-0.022 -0.164,-0.039c-0.056,-0.022 -0.111,-0.045 -0.165,-0.067c-0.046,-0.031 -0.092,-0.061 -0.138,-0.1c-0.166,-0.146 -0.267,-0.338 -0.268,-0.547c0,-0.046 0.009,-0.101 0.019,-0.146Z" style="fill:#808080;fill-rule:nonzero;"/></g><g><path d="M48.336,31.278c0.005,-0.034 0.016,-0.062 0.033,-0.09c0.011,-0.029 0.028,-0.057 0.05,-0.081c0.017,-0.029 0.044,-0.053 0.066,-0.071c0.057,-0.048 0.118,-0.081 0.185,-0.105c0.134,-0.048 0.29,-0.049 0.425,-0.003c0.072,0.024 0.129,0.057 0.185,0.103c0.023,0.018 0.045,0.042 0.067,0.071c0.023,0.024 0.04,0.051 0.051,0.08c0.016,0.027 0.028,0.056 0.034,0.09c0.006,0.027 0.011,0.061 0.011,0.088c0,0.034 -0.005,0.063 -0.011,0.095c-0.005,0.029 -0.016,0.062 -0.033,0.09c-0.011,0.029 -0.027,0.053 -0.05,0.082c-0.022,0.023 -0.044,0.047 -0.067,0.071c-0.055,0.042 -0.112,0.081 -0.184,0.105c-0.067,0.023 -0.139,0.033 -0.212,0.033c-0.073,0.002 -0.146,-0.008 -0.213,-0.031c-0.067,-0.024 -0.128,-0.061 -0.185,-0.104c-0.101,-0.088 -0.163,-0.206 -0.163,-0.333c-0,-0.029 0.005,-0.062 0.011,-0.09Z" style="fill:#808080;fill-rule:nonzero;"/></g><g><path d="M75.482,26.684c0.04,-0.081 0.095,-0.156 0.167,-0.217c0.184,-0.162 0.462,-0.232 0.727,-0.192c0.048,0.012 0.096,0.018 0.144,0.038c0.048,0.014 0.096,0.04 0.144,0.06c0.04,0.028 0.08,0.054 0.12,0.088c0.073,0.06 0.128,0.133 0.169,0.215c0.04,0.081 0.064,0.168 0.064,0.256c0.001,0.095 -0.022,0.176 -0.062,0.263c-0.04,0.081 -0.095,0.156 -0.167,0.217c-0.04,0.034 -0.08,0.062 -0.12,0.089c-0.048,0.02 -0.096,0.041 -0.143,0.061c-0.048,0.014 -0.097,0.028 -0.144,0.035c-0.056,0.014 -0.112,0.014 -0.161,0.015c-0.207,0.002 -0.416,-0.066 -0.567,-0.193c-0.072,-0.06 -0.129,-0.134 -0.169,-0.215c-0.04,-0.088 -0.064,-0.169 -0.065,-0.262c-0,-0.089 0.024,-0.177 0.063,-0.258Z" style="fill:#808080;fill-rule:nonzero;"/></g><g><path d="M49.583,45.6c0.008,-0.046 0.023,-0.086 0.046,-0.125c0.016,-0.04 0.039,-0.078 0.07,-0.112c0.03,-0.04 0.061,-0.073 0.092,-0.099c0.078,-0.066 0.163,-0.112 0.256,-0.146c0.14,-0.052 0.294,-0.066 0.45,-0.041c0.047,0.012 0.093,0.019 0.14,0.037c0.047,0.014 0.093,0.04 0.14,0.059c0.039,0.026 0.078,0.052 0.117,0.085c0.14,0.117 0.226,0.287 0.227,0.457c-0,0.092 -0.023,0.171 -0.061,0.256c-0.039,0.079 -0.093,0.151 -0.163,0.211c-0.038,0.033 -0.077,0.06 -0.116,0.079c-0.047,0.027 -0.094,0.047 -0.139,0.067c-0.047,0.013 -0.093,0.027 -0.14,0.034c-0.055,0.014 -0.109,0.014 -0.156,0.014c-0.201,0.001 -0.403,-0.064 -0.552,-0.188c-0.14,-0.123 -0.225,-0.293 -0.226,-0.463c-0,-0.04 0.008,-0.086 0.015,-0.125Z" style="fill:#808080;fill-rule:nonzero;"/></g><g><path d="M30.141,49.974c0.006,-0.034 0.017,-0.061 0.033,-0.09c0.012,-0.027 0.029,-0.056 0.051,-0.08c0.021,-0.029 0.044,-0.052 0.066,-0.071c0.055,-0.047 0.117,-0.081 0.184,-0.105c0.1,-0.037 0.211,-0.047 0.322,-0.03c0.034,0.01 0.067,0.014 0.101,0.028c0.033,0.01 0.067,0.028 0.1,0.042c0.029,0.019 0.056,0.038 0.084,0.06c0.101,0.085 0.162,0.206 0.163,0.328c0,0.067 -0.016,0.123 -0.043,0.184c-0.029,0.058 -0.067,0.109 -0.118,0.152c-0.027,0.023 -0.054,0.043 -0.083,0.057c-0.034,0.018 -0.067,0.033 -0.1,0.047c-0.033,0.01 -0.067,0.02 -0.1,0.025c-0.039,0.009 -0.079,0.01 -0.112,0.01c-0.144,0 -0.289,-0.046 -0.395,-0.135c-0.101,-0.088 -0.163,-0.21 -0.163,-0.332c-0,-0.029 0.005,-0.062 0.01,-0.09Z" style="fill:#808080;fill-rule:nonzero;"/></g><g><g><path d="M32.096,72.19c-0.676,-0.513 -1.548,-0.625 -2.593,-0.331c-3.491,0.982 -5.102,0.16 -5.114,0.154c-0.169,-0.093 -0.389,-0.071 -0.552,0.062c-0.164,0.129 -0.233,0.337 -0.175,0.52c0.167,0.524 1.708,5.112 4.442,4.871l4.906,-0.43c0.004,-0.001 0.006,-0.003 0.01,-0.004c0.029,-0.003 0.057,-0.006 0.085,-0.015c0.023,-0.006 0.046,-0.013 0.068,-0.025c0.005,-0.001 0.011,-0.004 0.018,-0.007c0.017,-0.008 0.035,-0.019 0.053,-0.029c0.002,-0.002 0.006,-0.003 0.01,-0.007c0.018,-0.01 0.035,-0.023 0.052,-0.038c0.001,-0.001 0.002,-0.003 0.003,-0.004c0.024,-0.019 0.044,-0.04 0.064,-0.064c0.005,-0.007 0.01,-0.014 0.015,-0.022c0.013,-0.015 0.024,-0.031 0.035,-0.049c0.005,-0.011 0.01,-0.021 0.015,-0.031c0.008,-0.016 0.015,-0.034 0.021,-0.051c0.005,-0.01 0.007,-0.02 0.011,-0.032c0.004,-0.016 0.008,-0.033 0.011,-0.05c0.003,-0.012 0.006,-0.022 0.007,-0.034c-0.001,-0.006 0.001,-0.01 0.002,-0.014c0.007,-0.129 0.195,-3.163 -1.394,-4.37Z" style="fill:#d3d3d3;fill-rule:nonzero;"/></g><g><path d="M32.096,72.19c-0.676,-0.513 -1.548,-0.625 -2.593,-0.331c-3.491,0.982 -5.102,0.16 -5.114,0.154c-0.169,-0.093 -0.389,-0.071 -0.552,0.062c-0.164,0.129 -0.233,0.337 -0.175,0.52c0.167,0.524 1.708,5.112 4.442,4.871l4.906,-0.43c0.004,-0.001 0.006,-0.003 0.01,-0.004c0.029,-0.003 0.057,-0.006 0.085,-0.015c0.023,-0.006 0.046,-0.013 0.068,-0.025c0.005,-0.001 0.011,-0.004 0.018,-0.007c0.017,-0.008 0.035,-0.019 0.053,-0.029c0.002,-0.002 0.006,-0.003 0.01,-0.007c0.018,-0.01 0.035,-0.023 0.052,-0.038c0.001,-0.001 0.002,-0.003 0.003,-0.004c0.024,-0.019 0.044,-0.04 0.064,-0.064c0.005,-0.007 0.01,-0.014 0.015,-0.022c0.013,-0.015 0.024,-0.031 0.035,-0.049c0.005,-0.011 0.01,-0.021 0.015,-0.031c0.008,-0.016 0.015,-0.034 0.021,-0.051c0.005,-0.01 0.007,-0.02 0.011,-0.032c0.004,-0.016 0.008,-0.033 0.011,-0.05c0.003,-0.012 0.006,-0.022 0.007,-0.034c-0.001,-0.006 0.001,-0.01 0.002,-0.014c0.007,-0.129 0.195,-3.163 -1.394,-4.37Zm0.393,3.176c-2.533,-2.119 -4.925,-1.076 -5.038,-1.024c-0.248,0.113 -0.373,0.392 -0.278,0.624c0.097,0.232 0.372,0.328 0.622,0.215c0.021,-0.01 1.994,-0.868 4.15,1.016l-3.844,0.339c-1.38,0.123 -2.559,-1.922 -3.173,-3.373c0.937,0.171 2.505,0.229 4.765,-0.409c0.747,-0.209 1.324,-0.148 1.769,0.189c0.685,0.52 0.939,1.581 1.027,2.423Z" style="fill:#808080;fill-rule:nonzero;"/></g></g><g><g><path d="M29.466,82.738c-0.436,0.492 -0.596,1.177 -0.476,2.036c0.401,2.87 -0.344,4.079 -0.35,4.088c-0.083,0.126 -0.086,0.303 -0.005,0.446c0.08,0.141 0.226,0.215 0.364,0.185c0.398,-0.085 3.883,-0.898 3.954,-3.098l0.13,-3.947c-0,-0.003 -0.002,-0.006 -0.002,-0.009c0,-0.022 0.001,-0.045 -0.003,-0.069c-0.003,-0.018 -0.006,-0.037 -0.012,-0.056c-0.001,-0.004 -0.003,-0.009 -0.004,-0.015c-0.004,-0.014 -0.01,-0.03 -0.016,-0.045c-0.002,-0.002 -0.002,-0.005 -0.004,-0.008c-0.006,-0.015 -0.014,-0.031 -0.024,-0.045c-0.001,-0.001 -0.001,-0.002 -0.002,-0.003c-0.012,-0.021 -0.025,-0.039 -0.041,-0.057c-0.005,-0.004 -0.01,-0.009 -0.015,-0.013c-0.01,-0.013 -0.02,-0.023 -0.033,-0.033c-0.007,-0.005 -0.014,-0.01 -0.02,-0.015c-0.012,-0.008 -0.024,-0.015 -0.036,-0.021c-0.007,-0.005 -0.014,-0.008 -0.022,-0.012c-0.011,-0.005 -0.024,-0.009 -0.036,-0.013c-0.008,-0.004 -0.015,-0.007 -0.024,-0.008c-0.004,-0.001 -0.007,-0.002 -0.01,-0.003c-0.093,-0.018 -2.289,-0.441 -3.313,0.715Z" style="fill:#d3d3d3;fill-rule:nonzero;"/></g><g><path d="M29.466,82.738c-0.436,0.492 -0.596,1.177 -0.476,2.036c0.401,2.87 -0.344,4.079 -0.35,4.088c-0.083,0.126 -0.086,0.303 -0.005,0.446c0.08,0.141 0.226,0.215 0.364,0.185c0.398,-0.085 3.883,-0.898 3.954,-3.098l0.13,-3.947c-0,-0.003 -0.002,-0.006 -0.002,-0.009c0,-0.022 0.001,-0.045 -0.003,-0.069c-0.003,-0.018 -0.006,-0.037 -0.012,-0.056c-0.001,-0.004 -0.003,-0.009 -0.004,-0.015c-0.004,-0.014 -0.01,-0.03 -0.016,-0.045c-0.002,-0.002 -0.002,-0.005 -0.004,-0.008c-0.006,-0.015 -0.014,-0.031 -0.024,-0.045c-0.001,-0.001 -0.001,-0.002 -0.002,-0.003c-0.012,-0.021 -0.025,-0.039 -0.041,-0.057c-0.005,-0.004 -0.01,-0.009 -0.015,-0.013c-0.01,-0.013 -0.02,-0.023 -0.033,-0.033c-0.007,-0.005 -0.014,-0.01 -0.02,-0.015c-0.012,-0.008 -0.024,-0.015 -0.036,-0.021c-0.007,-0.005 -0.014,-0.008 -0.022,-0.012c-0.011,-0.005 -0.024,-0.009 -0.036,-0.013c-0.008,-0.004 -0.015,-0.007 -0.024,-0.008c-0.004,-0.001 -0.007,-0.002 -0.01,-0.003c-0.093,-0.018 -2.289,-0.441 -3.313,0.715Zm2.352,-0.026c-1.775,1.827 -1.23,3.826 -1.202,3.921c0.06,0.208 0.252,0.333 0.43,0.278c0.178,-0.056 0.273,-0.267 0.213,-0.476c-0.006,-0.017 -0.454,-1.667 1.116,-3.214l-0.1,3.093c-0.036,1.11 -1.633,1.865 -2.747,2.223c0.209,-0.732 0.393,-1.976 0.132,-3.833c-0.085,-0.615 0.011,-1.069 0.298,-1.393c0.44,-0.498 1.237,-0.605 1.86,-0.599Z" style="fill:#808080;fill-rule:nonzero;"/></g></g><g><g><path d="M51.823,3.04c-0.788,-0.144 -1.554,0.101 -2.278,0.728c-2.418,2.092 -4.115,2.064 -4.127,2.064c-0.181,-0.009 -0.352,0.092 -0.425,0.258c-0.075,0.163 -0.037,0.351 0.094,0.472c0.375,0.345 3.73,3.336 5.863,2.109l3.831,-2.201c0.003,-0.002 0.004,-0.005 0.007,-0.007c0.022,-0.013 0.044,-0.026 0.063,-0.043c0.015,-0.015 0.031,-0.029 0.044,-0.046c0.003,-0.003 0.007,-0.008 0.011,-0.012c0.011,-0.013 0.021,-0.028 0.031,-0.043c0.001,-0.003 0.003,-0.005 0.005,-0.009c0.01,-0.015 0.018,-0.032 0.025,-0.05c0,-0.001 0.001,-0.003 0.001,-0.004c0.011,-0.024 0.018,-0.048 0.023,-0.074c0.001,-0.008 0.002,-0.015 0.002,-0.023c0.005,-0.017 0.006,-0.033 0.007,-0.052c-0.001,-0.01 -0.001,-0.019 -0.002,-0.029c-0,-0.016 -0.003,-0.033 -0.006,-0.048c-0,-0.01 -0.003,-0.019 -0.006,-0.029c-0.003,-0.014 -0.008,-0.029 -0.013,-0.044c-0.003,-0.01 -0.006,-0.019 -0.011,-0.029c-0.002,-0.004 -0.003,-0.008 -0.004,-0.011c-0.053,-0.103 -1.281,-2.54 -3.135,-2.877Z" style="fill:#d3d3d3;fill-rule:nonzero;"/></g><g><path d="M51.823,3.04c-0.788,-0.144 -1.554,0.101 -2.278,0.728c-2.418,2.092 -4.115,2.064 -4.127,2.064c-0.181,-0.009 -0.352,0.092 -0.425,0.258c-0.075,0.163 -0.037,0.351 0.094,0.472c0.375,0.345 3.73,3.336 5.863,2.109l3.831,-2.201c0.003,-0.002 0.004,-0.005 0.007,-0.007c0.022,-0.013 0.044,-0.026 0.063,-0.043c0.015,-0.015 0.031,-0.029 0.044,-0.046c0.003,-0.003 0.007,-0.008 0.011,-0.012c0.011,-0.013 0.021,-0.028 0.031,-0.043c0.001,-0.003 0.003,-0.005 0.005,-0.009c0.01,-0.015 0.018,-0.032 0.025,-0.05c0,-0.001 0.001,-0.003 0.001,-0.004c0.011,-0.024 0.018,-0.048 0.023,-0.074c0.001,-0.008 0.002,-0.015 0.002,-0.023c0.005,-0.017 0.006,-0.033 0.007,-0.052c-0.001,-0.01 -0.001,-0.019 -0.002,-0.029c-0,-0.016 -0.003,-0.033 -0.006,-0.048c-0,-0.01 -0.003,-0.019 -0.006,-0.029c-0.003,-0.014 -0.008,-0.029 -0.013,-0.044c-0.003,-0.01 -0.006,-0.019 -0.011,-0.029c-0.002,-0.004 -0.003,-0.008 -0.004,-0.011c-0.053,-0.103 -1.281,-2.54 -3.135,-2.877Zm1.77,2.326c-3.045,-0.688 -4.532,1.034 -4.601,1.118c-0.152,0.182 -0.127,0.447 0.056,0.592c0.185,0.144 0.454,0.114 0.609,-0.069c0.012,-0.016 1.24,-1.435 3.868,-0.786l-3,1.726c-1.077,0.62 -2.976,-0.526 -4.141,-1.424c0.847,-0.223 2.16,-0.774 3.724,-2.13c0.518,-0.447 1.019,-0.619 1.538,-0.525c0.799,0.145 1.491,0.875 1.947,1.498Z" style="fill:#808080;fill-rule:nonzero;"/></g></g><g><g><path d="M77.996,17.474c0.814,-1.217 2.033,-1.928 3.624,-2.113c5.312,-0.616 7.377,-2.891 7.392,-2.908c0.214,-0.249 0.537,-0.35 0.812,-0.244c0.274,0.102 0.436,0.384 0.409,0.705c-0.081,0.92 -0.899,9.024 -4.898,10.331l-7.179,2.349c-0.005,0.002 -0.01,-0 -0.015,0.001c-0.042,0.013 -0.084,0.025 -0.127,0.029c-0.035,0.003 -0.07,0.007 -0.104,0.003c-0.008,-0 -0.018,-0.001 -0.028,-0.002c-0.028,-0.001 -0.057,-0.006 -0.086,-0.012c-0.004,-0.002 -0.01,-0.001 -0.016,-0.004c-0.029,-0.005 -0.058,-0.015 -0.086,-0.028c-0.002,-0.001 -0.004,-0.002 -0.007,-0.003c-0.04,-0.015 -0.075,-0.036 -0.11,-0.061c-0.01,-0.008 -0.019,-0.017 -0.028,-0.025c-0.025,-0.016 -0.045,-0.033 -0.067,-0.056c-0.01,-0.012 -0.02,-0.025 -0.03,-0.038c-0.017,-0.02 -0.033,-0.044 -0.046,-0.066c-0.01,-0.013 -0.017,-0.028 -0.025,-0.044c-0.011,-0.022 -0.021,-0.046 -0.031,-0.071c-0.009,-0.016 -0.015,-0.031 -0.02,-0.05c-0.002,-0.009 -0.004,-0.014 -0.007,-0.019c-0.05,-0.197 -1.242,-4.814 0.673,-7.674Z" style="fill:#d3d3d3;fill-rule:nonzero;"/></g><g><path d="M77.996,17.474c0.814,-1.217 2.033,-1.928 3.624,-2.113c5.312,-0.616 7.377,-2.891 7.392,-2.908c0.214,-0.249 0.537,-0.35 0.812,-0.244c0.274,0.102 0.436,0.384 0.409,0.705c-0.081,0.92 -0.899,9.024 -4.898,10.331l-7.179,2.349c-0.005,0.002 -0.01,-0 -0.015,0.001c-0.042,0.013 -0.084,0.025 -0.127,0.029c-0.035,0.003 -0.07,0.007 -0.104,0.003c-0.008,-0 -0.018,-0.001 -0.028,-0.002c-0.028,-0.001 -0.057,-0.006 -0.086,-0.012c-0.004,-0.002 -0.01,-0.001 -0.016,-0.004c-0.029,-0.005 -0.058,-0.015 -0.086,-0.028c-0.002,-0.001 -0.004,-0.002 -0.007,-0.003c-0.04,-0.015 -0.075,-0.036 -0.11,-0.061c-0.01,-0.008 -0.019,-0.017 -0.028,-0.025c-0.025,-0.016 -0.045,-0.033 -0.067,-0.056c-0.01,-0.012 -0.02,-0.025 -0.03,-0.038c-0.017,-0.02 -0.033,-0.044 -0.046,-0.066c-0.01,-0.013 -0.017,-0.028 -0.025,-0.044c-0.011,-0.022 -0.021,-0.046 -0.031,-0.071c-0.009,-0.016 -0.015,-0.031 -0.02,-0.05c-0.002,-0.009 -0.004,-0.014 -0.007,-0.019c-0.05,-0.197 -1.242,-4.814 0.673,-7.674Zm0.4,5.196c2.996,-4.865 6.748,-4.711 6.926,-4.699c0.391,0.024 0.655,0.382 0.589,0.802c-0.069,0.422 -0.434,0.74 -0.828,0.718c-0.033,-0.003 -3.127,-0.127 -5.651,4.139l5.624,-1.837c2.019,-0.659 3.091,-4.574 3.532,-7.215c-1.295,0.844 -3.53,1.9 -6.969,2.296c-1.137,0.134 -1.948,0.584 -2.483,1.385c-0.826,1.231 -0.868,3.042 -0.74,4.411Z" style="fill:#808080;fill-rule:nonzero;"/></g></g><g><g><path d="M94.384,25.967c0.846,0.494 1.38,1.461 1.588,2.874c0.691,4.719 2.303,6.138 2.315,6.149c0.175,0.144 0.259,0.418 0.204,0.691c-0.052,0.27 -0.23,0.476 -0.443,0.516c-0.611,0.114 -6.001,1.021 -7.078,-2.36l-1.935,-6.068c-0.001,-0.005 0,-0.009 -0.001,-0.014c-0.01,-0.036 -0.021,-0.071 -0.026,-0.109c-0.004,-0.032 -0.008,-0.063 -0.007,-0.095c-0.001,-0.008 -0.001,-0.017 -0.001,-0.026c-0.001,-0.026 0.002,-0.053 0.004,-0.08c0.001,-0.005 -0,-0.01 0.001,-0.016c0.002,-0.027 0.007,-0.056 0.014,-0.084c0.001,-0.003 0.002,-0.005 0.002,-0.007c0.008,-0.039 0.02,-0.076 0.034,-0.113c0.005,-0.011 0.01,-0.021 0.015,-0.031c0.009,-0.025 0.02,-0.048 0.033,-0.072c0.008,-0.012 0.016,-0.023 0.024,-0.035c0.012,-0.02 0.027,-0.039 0.041,-0.056c0.008,-0.011 0.018,-0.02 0.028,-0.031c0.014,-0.015 0.029,-0.029 0.045,-0.044c0.01,-0.011 0.02,-0.019 0.032,-0.028c0.006,-0.003 0.009,-0.007 0.012,-0.01c0.127,-0.085 3.109,-2.114 5.099,-0.951Z" style="fill:#d3d3d3;fill-rule:nonzero;"/></g><g><path d="M94.384,25.967c0.846,0.494 1.38,1.461 1.588,2.874c0.691,4.719 2.303,6.138 2.315,6.149c0.175,0.144 0.259,0.418 0.204,0.691c-0.052,0.27 -0.23,0.476 -0.443,0.516c-0.611,0.114 -6.001,1.021 -7.078,-2.36l-1.935,-6.068c-0.001,-0.005 0,-0.009 -0.001,-0.014c-0.01,-0.036 -0.021,-0.071 -0.026,-0.109c-0.004,-0.032 -0.008,-0.063 -0.007,-0.095c-0.001,-0.008 -0.001,-0.017 -0.001,-0.026c-0.001,-0.026 0.002,-0.053 0.004,-0.08c0.001,-0.005 -0,-0.01 0.001,-0.016c0.002,-0.027 0.007,-0.056 0.014,-0.084c0.001,-0.003 0.002,-0.005 0.002,-0.007c0.008,-0.039 0.02,-0.076 0.034,-0.113c0.005,-0.011 0.01,-0.021 0.015,-0.031c0.009,-0.025 0.02,-0.048 0.033,-0.072c0.008,-0.012 0.016,-0.023 0.024,-0.035c0.012,-0.02 0.027,-0.039 0.041,-0.056c0.008,-0.011 0.018,-0.02 0.028,-0.031c0.014,-0.015 0.029,-0.029 0.045,-0.044c0.01,-0.011 0.02,-0.019 0.032,-0.028c0.006,-0.003 0.009,-0.007 0.012,-0.01c0.127,-0.085 3.109,-2.114 5.099,-0.951Zm-3.406,1.425c3.369,1.739 3.469,5.193 3.471,5.358c0.005,0.361 -0.217,0.675 -0.498,0.701c-0.282,0.023 -0.511,-0.246 -0.518,-0.61c0,-0.03 -0.084,-2.877 -3.034,-4.309l1.514,4.754c0.543,1.707 3.183,1.887 4.949,1.75c-0.626,-1.008 -1.442,-2.831 -1.888,-5.887c-0.15,-1.01 -0.49,-1.657 -1.047,-1.983c-0.856,-0.502 -2.053,-0.171 -2.949,0.226Z" style="fill:#808080;fill-rule:nonzero;"/></g></g><g><g><path d="M65.406,46.693c-0.293,-0.641 -0.921,-1.065 -1.866,-1.26c-3.156,-0.648 -4.038,-1.884 -4.044,-1.893c-0.089,-0.134 -0.271,-0.204 -0.457,-0.171c-0.186,0.031 -0.333,0.156 -0.37,0.313c-0.107,0.45 -0.977,4.419 1.257,5.314l4.007,1.609c0.003,0.001 0.006,0.001 0.01,0.002c0.023,0.008 0.047,0.017 0.072,0.022c0.021,0.004 0.042,0.008 0.064,0.008c0.005,0.001 0.011,0.001 0.018,0.001c0.017,0.002 0.035,0.001 0.054,0c0.003,-0 0.006,0.001 0.011,-0.001c0.018,-0 0.038,-0.003 0.057,-0.008c0.002,-0 0.003,-0 0.005,-0.001c0.027,-0.004 0.052,-0.012 0.078,-0.022c0.007,-0.003 0.014,-0.007 0.021,-0.01c0.018,-0.006 0.034,-0.013 0.051,-0.022c0.008,-0.006 0.016,-0.011 0.025,-0.017c0.013,-0.009 0.027,-0.019 0.039,-0.029c0.008,-0.005 0.015,-0.012 0.023,-0.02c0.011,-0.009 0.021,-0.02 0.031,-0.032c0.008,-0.007 0.015,-0.014 0.021,-0.023c0.002,-0.004 0.005,-0.006 0.007,-0.008c0.064,-0.092 1.577,-2.244 0.886,-3.752Z" style="fill:#d3d3d3;fill-rule:nonzero;"/></g><g><path d="M65.406,46.693c-0.293,-0.641 -0.921,-1.065 -1.866,-1.26c-3.156,-0.648 -4.038,-1.884 -4.044,-1.893c-0.089,-0.134 -0.271,-0.204 -0.457,-0.171c-0.186,0.031 -0.333,0.156 -0.37,0.313c-0.107,0.45 -0.977,4.419 1.257,5.314l4.007,1.609c0.003,0.001 0.006,0.001 0.01,0.002c0.023,0.008 0.047,0.017 0.072,0.022c0.021,0.004 0.042,0.008 0.064,0.008c0.005,0.001 0.011,0.001 0.018,0.001c0.017,0.002 0.035,0.001 0.054,0c0.003,-0 0.006,0.001 0.011,-0.001c0.018,-0 0.038,-0.003 0.057,-0.008c0.002,-0 0.003,-0 0.005,-0.001c0.027,-0.004 0.052,-0.012 0.078,-0.022c0.007,-0.003 0.014,-0.007 0.021,-0.01c0.018,-0.006 0.034,-0.013 0.051,-0.022c0.008,-0.006 0.016,-0.011 0.025,-0.017c0.013,-0.009 0.027,-0.019 0.039,-0.029c0.008,-0.005 0.015,-0.012 0.023,-0.02c0.011,-0.009 0.021,-0.02 0.031,-0.032c0.008,-0.007 0.015,-0.014 0.021,-0.023c0.002,-0.004 0.005,-0.006 0.007,-0.008c0.064,-0.092 1.577,-2.244 0.886,-3.752Zm-1.125,2.484c-1.015,-2.548 -3.343,-2.722 -3.455,-2.728c-0.244,-0.014 -0.466,0.142 -0.497,0.349c-0.029,0.208 0.141,0.386 0.387,0.402c0.02,0 1.94,0.145 2.767,2.372l-3.14,-1.259c-1.128,-0.451 -1.124,-2.413 -0.947,-3.718c0.652,0.493 1.845,1.151 3.888,1.569c0.675,0.14 1.097,0.411 1.29,0.833c0.298,0.649 0.018,1.527 -0.293,2.18Z" style="fill:#808080;fill-rule:nonzero;"/></g></g><g><g><path d="M48.555,59.757c-0.375,0.48 -0.977,0.716 -1.792,0.702c-2.721,-0.049 -3.701,0.816 -3.709,0.823c-0.101,0.095 -0.264,0.12 -0.41,0.057c-0.145,-0.06 -0.24,-0.193 -0.238,-0.33c0.007,-0.395 0.122,-3.87 2.139,-4.199l3.619,-0.593c0.003,-0.001 0.005,0.001 0.008,0c0.021,-0.003 0.042,-0.005 0.064,-0.005c0.018,0.001 0.036,0.002 0.054,0.005c0.004,0.001 0.009,0.002 0.014,0.003c0.015,0.002 0.03,0.006 0.045,0.01c0.002,0.001 0.005,0.001 0.009,0.003c0.015,0.004 0.03,0.01 0.045,0.017c0.001,0.001 0.002,0.001 0.004,0.002c0.021,0.009 0.04,0.02 0.059,0.033c0.005,0.004 0.01,0.008 0.016,0.013c0.013,0.008 0.024,0.017 0.036,0.028c0.006,0.006 0.011,0.012 0.017,0.018c0.01,0.01 0.018,0.021 0.026,0.032c0.006,0.006 0.01,0.013 0.015,0.02c0.007,0.01 0.013,0.022 0.019,0.033c0.005,0.008 0.009,0.015 0.012,0.023c0.001,0.004 0.003,0.006 0.004,0.009c0.033,0.088 0.824,2.166 -0.056,3.296Z" style="fill:#d3d3d3;fill-rule:nonzero;"/></g><g><path d="M48.555,59.757c-0.375,0.48 -0.977,0.716 -1.792,0.702c-2.721,-0.049 -3.701,0.816 -3.709,0.823c-0.101,0.095 -0.264,0.12 -0.41,0.057c-0.145,-0.06 -0.24,-0.193 -0.238,-0.33c0.007,-0.395 0.122,-3.87 2.139,-4.199l3.619,-0.593c0.003,-0.001 0.005,0.001 0.008,0c0.021,-0.003 0.042,-0.005 0.064,-0.005c0.018,0.001 0.036,0.002 0.054,0.005c0.004,0.001 0.009,0.002 0.014,0.003c0.015,0.002 0.03,0.006 0.045,0.01c0.002,0.001 0.005,0.001 0.009,0.003c0.015,0.004 0.03,0.01 0.045,0.017c0.001,0.001 0.002,0.001 0.004,0.002c0.021,0.009 0.04,0.02 0.059,0.033c0.005,0.004 0.01,0.008 0.016,0.013c0.013,0.008 0.024,0.017 0.036,0.028c0.006,0.006 0.011,0.012 0.017,0.018c0.01,0.01 0.018,0.021 0.026,0.032c0.006,0.006 0.01,0.013 0.015,0.02c0.007,0.01 0.013,0.022 0.019,0.033c0.005,0.008 0.009,0.015 0.012,0.023c0.001,0.004 0.003,0.006 0.004,0.009c0.033,0.088 0.824,2.166 -0.056,3.296Zm-0.404,-2.283c-1.363,1.936 -3.307,1.645 -3.4,1.629c-0.203,-0.033 -0.353,-0.205 -0.335,-0.384c0.02,-0.179 0.197,-0.295 0.401,-0.262c0.017,0.003 1.62,0.242 2.762,-1.463l-2.835,0.464c-1.018,0.165 -1.424,1.803 -1.551,2.925c0.637,-0.29 1.751,-0.615 3.513,-0.582c0.582,0.01 0.984,-0.137 1.23,-0.453c0.38,-0.486 0.333,-1.271 0.215,-1.874Z" style="fill:#808080;fill-rule:nonzero;"/></g></g><g><g><path d="M82.206,68.019c0.261,-1.373 1.201,-2.517 2.797,-3.403c5.328,-2.957 6.39,-5.774 6.398,-5.794c0.103,-0.303 0.396,-0.535 0.74,-0.575c0.341,-0.043 0.653,0.113 0.782,0.389c0.371,0.79 3.519,7.806 -0.075,10.722l-6.448,5.238c-0.005,0.004 -0.011,0.004 -0.016,0.008c-0.038,0.029 -0.076,0.059 -0.12,0.082c-0.036,0.019 -0.071,0.038 -0.11,0.05c-0.008,0.004 -0.019,0.008 -0.03,0.012c-0.03,0.012 -0.063,0.021 -0.096,0.03c-0.006,-0 -0.011,0.004 -0.02,0.004c-0.033,0.009 -0.069,0.014 -0.105,0.016c-0.003,0.001 -0.006,0.001 -0.008,0.001c-0.05,0.006 -0.098,0.005 -0.148,0.002c-0.014,-0.003 -0.028,-0.006 -0.042,-0.008c-0.033,-0.002 -0.064,-0.007 -0.098,-0.015c-0.017,-0.006 -0.034,-0.012 -0.051,-0.018c-0.028,-0.008 -0.056,-0.02 -0.082,-0.033c-0.017,-0.005 -0.031,-0.015 -0.048,-0.024c-0.023,-0.012 -0.045,-0.028 -0.068,-0.044c-0.017,-0.009 -0.032,-0.019 -0.046,-0.031c-0.006,-0.007 -0.011,-0.01 -0.017,-0.013c-0.15,-0.138 -3.702,-3.369 -3.089,-6.596Z" style="fill:#d3d3d3;fill-rule:nonzero;"/></g><g><path d="M82.206,68.019c0.261,-1.373 1.201,-2.517 2.797,-3.403c5.328,-2.957 6.39,-5.774 6.398,-5.794c0.103,-0.303 0.396,-0.535 0.74,-0.575c0.341,-0.043 0.653,0.113 0.782,0.389c0.371,0.79 3.519,7.806 -0.075,10.722l-6.448,5.238c-0.005,0.004 -0.011,0.004 -0.016,0.008c-0.038,0.029 -0.076,0.059 -0.12,0.082c-0.036,0.019 -0.071,0.038 -0.11,0.05c-0.008,0.004 -0.019,0.008 -0.03,0.012c-0.03,0.012 -0.063,0.021 -0.096,0.03c-0.006,-0 -0.011,0.004 -0.02,0.004c-0.033,0.009 -0.069,0.014 -0.105,0.016c-0.003,0.001 -0.006,0.001 -0.008,0.001c-0.05,0.006 -0.098,0.005 -0.148,0.002c-0.014,-0.003 -0.028,-0.006 -0.042,-0.008c-0.033,-0.002 -0.064,-0.007 -0.098,-0.015c-0.017,-0.006 -0.034,-0.012 -0.051,-0.018c-0.028,-0.008 -0.056,-0.02 -0.082,-0.033c-0.017,-0.005 -0.031,-0.015 -0.048,-0.024c-0.023,-0.012 -0.045,-0.028 -0.068,-0.044c-0.017,-0.009 -0.032,-0.019 -0.046,-0.031c-0.006,-0.007 -0.011,-0.01 -0.017,-0.013c-0.15,-0.138 -3.702,-3.369 -3.089,-6.596Zm3,4.071c0.766,-5.367 4.821,-6.973 5.016,-7.046c0.426,-0.161 0.883,0.011 1.022,0.385c0.136,0.378 -0.094,0.807 -0.523,0.971c-0.036,0.013 -3.379,1.339 -3.942,5.999l5.054,-4.101c1.814,-1.471 1.012,-5.173 0.171,-7.54c-0.955,1.289 -2.802,3.185 -6.252,5.097c-1.14,0.635 -1.776,1.377 -1.948,2.28c-0.266,1.39 0.587,2.893 1.402,3.955Z" style="fill:#808080;fill-rule:nonzero;"/></g></g><g><g><path d="M58.596,84.348c0.118,1.353 0.788,2.499 1.992,3.406c4.018,3.03 4.678,5.819 4.683,5.839c0.063,0.3 0.279,0.534 0.548,0.582c0.267,0.05 0.523,-0.096 0.643,-0.363c0.342,-0.767 3.273,-7.576 0.62,-10.524l-4.758,-5.294c-0.004,-0.004 -0.009,-0.004 -0.013,-0.008c-0.028,-0.03 -0.056,-0.06 -0.089,-0.083c-0.027,-0.02 -0.054,-0.039 -0.083,-0.053c-0.007,-0.004 -0.015,-0.008 -0.023,-0.012c-0.024,-0.012 -0.049,-0.022 -0.075,-0.031c-0.004,-0.001 -0.008,-0.004 -0.015,-0.005c-0.025,-0.009 -0.053,-0.016 -0.082,-0.018c-0.002,-0.001 -0.004,-0.001 -0.006,-0.001c-0.039,-0.007 -0.077,-0.008 -0.117,-0.005c-0.011,0.002 -0.022,0.004 -0.033,0.006c-0.027,0.001 -0.052,0.005 -0.079,0.013c-0.014,0.005 -0.027,0.01 -0.041,0.016c-0.023,0.007 -0.046,0.019 -0.067,0.03c-0.014,0.005 -0.025,0.014 -0.039,0.023c-0.019,0.011 -0.038,0.026 -0.057,0.041c-0.014,0.009 -0.026,0.018 -0.038,0.03c-0.005,0.006 -0.01,0.009 -0.015,0.012c-0.127,0.132 -3.136,3.218 -2.856,6.399Z" style="fill:#d3d3d3;fill-rule:nonzero;"/></g><g><path d="M58.596,84.348c0.118,1.353 0.788,2.499 1.992,3.406c4.018,3.03 4.678,5.819 4.683,5.839c0.063,0.3 0.279,0.534 0.548,0.582c0.267,0.05 0.523,-0.096 0.643,-0.363c0.342,-0.767 3.273,-7.576 0.62,-10.524l-4.758,-5.294c-0.004,-0.004 -0.009,-0.004 -0.013,-0.008c-0.028,-0.03 -0.056,-0.06 -0.089,-0.083c-0.027,-0.02 -0.054,-0.039 -0.083,-0.053c-0.007,-0.004 -0.015,-0.008 -0.023,-0.012c-0.024,-0.012 -0.049,-0.022 -0.075,-0.031c-0.004,-0.001 -0.008,-0.004 -0.015,-0.005c-0.025,-0.009 -0.053,-0.016 -0.082,-0.018c-0.002,-0.001 -0.004,-0.001 -0.006,-0.001c-0.039,-0.007 -0.077,-0.008 -0.117,-0.005c-0.011,0.002 -0.022,0.004 -0.033,0.006c-0.027,0.001 -0.052,0.005 -0.079,0.013c-0.014,0.005 -0.027,0.01 -0.041,0.016c-0.023,0.007 -0.046,0.019 -0.067,0.03c-0.014,0.005 -0.025,0.014 -0.039,0.023c-0.019,0.011 -0.038,0.026 -0.057,0.041c-0.014,0.009 -0.026,0.018 -0.038,0.03c-0.005,0.006 -0.01,0.009 -0.015,0.012c-0.127,0.132 -3.136,3.218 -2.856,6.399Zm2.626,-3.923c0.264,5.285 3.364,6.958 3.513,7.034c0.326,0.168 0.698,0.01 0.832,-0.354c0.131,-0.367 -0.023,-0.794 -0.352,-0.965c-0.027,-0.013 -2.583,-1.395 -2.731,-5.981l3.729,4.146c1.34,1.487 0.472,5.1 -0.343,7.402c-0.672,-1.287 -2.009,-3.192 -4.613,-5.151c-0.859,-0.65 -1.315,-1.394 -1.393,-2.284c-0.121,-1.37 0.647,-2.825 1.358,-3.847Z" style="fill:#808080;fill-rule:nonzero;"/></g></g><g><path d="M62.926,29c0.061,0.011 0.122,0.035 0.177,0.072c0.234,0.161 0.353,0.542 0.257,0.82c-0.046,0.132 -0.138,0.234 -0.251,0.274c-0.118,0.043 -0.246,0.018 -0.362,-0.057c-0.116,-0.081 -0.207,-0.215 -0.254,-0.366c-0.047,-0.15 -0.051,-0.315 -0.002,-0.453c0.022,-0.067 0.057,-0.124 0.101,-0.171c0.046,-0.055 0.098,-0.087 0.154,-0.107c0.057,-0.02 0.117,-0.028 0.18,-0.012Z" style="fill:#808080;fill-rule:nonzero;"/></g><g><path d="M70.42,18.931c0.052,-0.008 0.099,-0.004 0.149,0.008c0.048,0.004 0.098,0.017 0.144,0.042c0.053,0.021 0.099,0.046 0.138,0.073c0.049,0.034 0.091,0.07 0.133,0.105c0.039,0.049 0.083,0.094 0.115,0.144c0.038,0.049 0.062,0.101 0.093,0.151c0.137,0.29 0.165,0.626 0.069,0.905c-0.073,0.21 -0.221,0.375 -0.401,0.439c-0.097,0.034 -0.188,0.036 -0.292,0.022c-0.098,-0.017 -0.194,-0.055 -0.283,-0.115c-0.09,-0.07 -0.178,-0.152 -0.247,-0.249c-0.07,-0.099 -0.12,-0.213 -0.158,-0.333c-0.018,-0.056 -0.038,-0.119 -0.044,-0.188c-0.011,-0.059 -0.013,-0.119 -0.017,-0.179c0.004,-0.062 0.006,-0.125 0.01,-0.187c0.013,-0.056 0.027,-0.111 0.047,-0.17c0.08,-0.211 0.221,-0.375 0.407,-0.441c0.042,-0.014 0.094,-0.022 0.137,-0.027Z" style="fill:#808080;fill-rule:nonzero;"/></g><g><path d="M72.593,2.936c0.032,-0.005 0.061,-0.002 0.092,0.005c0.028,0.003 0.059,0.011 0.087,0.026c0.031,0.008 0.06,0.028 0.085,0.045c0.06,0.042 0.109,0.093 0.151,0.153c0.085,0.12 0.134,0.277 0.134,0.427c0.002,0.08 -0.01,0.147 -0.035,0.218c-0.009,0.028 -0.024,0.058 -0.042,0.09c-0.014,0.03 -0.034,0.057 -0.056,0.077c-0.02,0.025 -0.042,0.046 -0.07,0.061c-0.023,0.015 -0.051,0.031 -0.076,0.04c-0.031,0.01 -0.058,0.013 -0.089,0.018c-0.027,0.004 -0.06,0.003 -0.09,-0.005c-0.029,-0.002 -0.056,-0.011 -0.089,-0.024c-0.028,-0.015 -0.056,-0.03 -0.084,-0.045c-0.056,-0.043 -0.107,-0.088 -0.151,-0.153c-0.043,-0.06 -0.074,-0.13 -0.097,-0.203c-0.023,-0.074 -0.037,-0.149 -0.037,-0.225c-0,-0.075 0.015,-0.149 0.034,-0.218c0.05,-0.129 0.135,-0.229 0.25,-0.269c0.025,-0.009 0.056,-0.014 0.083,-0.018Z" style="fill:#808080;fill-rule:nonzero;"/></g><g><path d="M85.13,28.833c0.085,0.015 0.169,0.047 0.246,0.099c0.203,0.134 0.352,0.394 0.399,0.672c0.003,0.053 0.012,0.103 0.009,0.158c0.003,0.052 -0.005,0.108 -0.009,0.163c-0.011,0.049 -0.023,0.098 -0.041,0.149c-0.031,0.091 -0.08,0.171 -0.14,0.237c-0.06,0.067 -0.131,0.118 -0.21,0.145c-0.085,0.03 -0.164,0.033 -0.256,0.02c-0.085,-0.015 -0.169,-0.047 -0.246,-0.101c-0.043,-0.029 -0.079,-0.06 -0.116,-0.092c-0.033,-0.042 -0.067,-0.084 -0.1,-0.125c-0.027,-0.044 -0.055,-0.088 -0.076,-0.134c-0.029,-0.052 -0.048,-0.109 -0.062,-0.157c-0.066,-0.209 -0.071,-0.439 -0.004,-0.632c0.032,-0.091 0.081,-0.171 0.141,-0.238c0.066,-0.067 0.131,-0.117 0.215,-0.147c0.078,-0.029 0.165,-0.031 0.25,-0.017Z" style="fill:#808080;fill-rule:nonzero;"/></g><g><path d="M60.106,4.641c0.044,-0.006 0.083,-0.002 0.126,0.008c0.04,0.003 0.083,0.015 0.122,0.035c0.044,0.018 0.083,0.039 0.117,0.062c0.083,0.057 0.151,0.129 0.21,0.212c0.091,0.124 0.152,0.275 0.177,0.44c0.003,0.051 0.012,0.1 0.009,0.154c0.003,0.05 -0.006,0.106 -0.009,0.158c-0.011,0.048 -0.022,0.095 -0.04,0.144c-0.061,0.178 -0.186,0.318 -0.339,0.372c-0.083,0.029 -0.16,0.031 -0.249,0.019c-0.082,-0.014 -0.164,-0.046 -0.239,-0.098c-0.042,-0.028 -0.078,-0.058 -0.107,-0.092c-0.039,-0.039 -0.071,-0.079 -0.103,-0.119c-0.026,-0.042 -0.053,-0.086 -0.074,-0.131c-0.029,-0.05 -0.045,-0.105 -0.061,-0.151c-0.063,-0.204 -0.068,-0.427 -0.003,-0.615c0.067,-0.179 0.194,-0.319 0.346,-0.373c0.035,-0.012 0.079,-0.02 0.117,-0.025Z" style="fill:#808080;fill-rule:nonzero;"/></g><g><path d="M67.486,38.197c0.031,-0.005 0.06,-0.002 0.091,0.005c0.029,0.003 0.059,0.01 0.087,0.025c0.033,0.014 0.06,0.029 0.085,0.045c0.059,0.042 0.108,0.093 0.15,0.153c0.065,0.088 0.109,0.197 0.128,0.316c0.001,0.036 0.008,0.071 0.006,0.11c0.002,0.036 -0.005,0.076 -0.006,0.113c-0.008,0.034 -0.017,0.069 -0.029,0.104c-0.044,0.127 -0.135,0.227 -0.244,0.266c-0.059,0.021 -0.114,0.022 -0.178,0.014c-0.06,-0.01 -0.118,-0.033 -0.172,-0.07c-0.03,-0.02 -0.056,-0.043 -0.077,-0.066c-0.027,-0.028 -0.051,-0.057 -0.074,-0.085c-0.019,-0.032 -0.038,-0.062 -0.053,-0.094c-0.02,-0.036 -0.033,-0.076 -0.043,-0.109c-0.046,-0.146 -0.049,-0.307 -0.002,-0.441c0.047,-0.129 0.138,-0.229 0.248,-0.268c0.025,-0.009 0.056,-0.014 0.083,-0.018Z" style="fill:#808080;fill-rule:nonzero;"/></g><path d="M9.28,70.509c-0.49,-0.734 16.811,-14.102 32.952,-5.638c10.935,5.74 11.242,12.458 10.867,15.079c-0.652,4.551 -4.572,8.217 -9.755,9.124c-0.691,0.121 -1.339,0.181 -1.94,0.181c-2.008,0 -3.523,-0.668 -4.518,-2.001c-2.533,-3.385 -0.091,-9.477 0.13,-10.183c0.913,-2.922 1.913,-3.78 1.913,-3.78c3.5,-5 8.024,1.745 8.421,4.797c0.053,0.407 0.079,0.788 0.079,1.143c-0,1.182 -0.293,2.074 -0.876,2.66c-1.481,1.491 -4.158,0.088 -4.457,-0.077c-0.361,-0.198 -0.529,-0.733 -0.374,-1.196c0.154,-0.463 0.572,-0.678 0.934,-0.481c0.706,0.385 2.373,0.969 3.019,0.318c0.393,-0.398 0.364,-1.343 0.27,-2.066c-0.295,-2.27 -1.421,-3.974 -2.801,-4.24c-1.217,-0.235 -1.568,0.863 -2.715,2.642c-0,-0 -0.307,0.923 -0.565,1.559c-0.653,1.614 -1.646,5.422 -0.54,6.898c0.675,0.898 2.281,0.832 3.509,0.617c3.856,-0.674 6.749,-3.246 7.201,-6.398c0.581,-4.057 -2.768,-8.317 -9.188,-11.686c-14.461,-7.591 -31.078,3.464 -31.566,2.728Z" style="fill:#d3d3d3;fill-rule:nonzero;"/><g><g><path d="M81.937,7.744c-0.193,-0.994 -0.805,-1.794 -1.82,-2.376c-3.39,-1.943 -4.115,-3.962 -4.12,-3.977c-0.071,-0.217 -0.259,-0.374 -0.474,-0.389c-0.214,-0.018 -0.406,0.11 -0.48,0.317c-0.214,0.594 -2.024,5.865 0.283,7.851l4.139,3.567c0.004,0.003 0.007,0.003 0.011,0.005c0.024,0.02 0.048,0.04 0.076,0.055c0.023,0.013 0.045,0.025 0.07,0.033c0.005,0.002 0.012,0.005 0.019,0.007c0.019,0.008 0.04,0.013 0.061,0.018c0.003,-0 0.006,0.002 0.012,0.002c0.021,0.005 0.043,0.008 0.066,0.008l0.005,-0c0.031,0.002 0.061,-0 0.092,-0.005c0.009,-0.003 0.017,-0.005 0.026,-0.008c0.021,-0.002 0.04,-0.007 0.061,-0.015c0.01,-0.005 0.021,-0.01 0.031,-0.015c0.018,-0.007 0.035,-0.017 0.051,-0.027c0.01,-0.005 0.019,-0.013 0.029,-0.02c0.014,-0.01 0.028,-0.023 0.042,-0.035c0.01,-0.008 0.019,-0.015 0.028,-0.025c0.003,-0.005 0.007,-0.008 0.01,-0.01c0.091,-0.108 2.236,-2.623 1.782,-4.961Z" style="fill:#d3d3d3;fill-rule:nonzero;"/></g><g><path d="M81.937,7.744c-0.193,-0.994 -0.805,-1.794 -1.82,-2.376c-3.39,-1.943 -4.115,-3.962 -4.12,-3.977c-0.071,-0.217 -0.259,-0.374 -0.474,-0.389c-0.214,-0.018 -0.406,0.11 -0.48,0.317c-0.214,0.594 -2.024,5.865 0.283,7.851l4.139,3.567c0.004,0.003 0.007,0.003 0.011,0.005c0.024,0.02 0.048,0.04 0.076,0.055c0.023,0.013 0.045,0.025 0.07,0.033c0.005,0.002 0.012,0.005 0.019,0.007c0.019,0.008 0.04,0.013 0.061,0.018c0.003,-0 0.006,0.002 0.012,0.002c0.021,0.005 0.043,0.008 0.066,0.008l0.005,-0c0.031,0.002 0.061,-0 0.092,-0.005c0.009,-0.003 0.017,-0.005 0.026,-0.008c0.021,-0.002 0.04,-0.007 0.061,-0.015c0.01,-0.005 0.021,-0.01 0.031,-0.015c0.018,-0.007 0.035,-0.017 0.051,-0.027c0.01,-0.005 0.019,-0.013 0.029,-0.02c0.014,-0.01 0.028,-0.023 0.042,-0.035c0.01,-0.008 0.019,-0.015 0.028,-0.025c0.003,-0.005 0.007,-0.008 0.01,-0.01c0.091,-0.108 2.236,-2.623 1.782,-4.961Zm-1.782,3.107c-0.596,-3.899 -3.162,-4.906 -3.285,-4.951c-0.27,-0.1 -0.551,0.045 -0.63,0.325c-0.076,0.282 0.077,0.587 0.348,0.689c0.023,0.008 2.138,0.84 2.592,4.23l-3.244,-2.793c-1.164,-1.002 -0.746,-3.747 -0.273,-5.516c0.624,0.904 1.819,2.216 4.014,3.472c0.725,0.418 1.139,0.935 1.266,1.589c0.196,1.007 -0.303,2.143 -0.788,2.955Z" style="fill:#808080;fill-rule:nonzero;"/></g></g><g><g><path d="M74.308,38.822c0.803,-1.318 0.908,-2.944 0.309,-4.833c-1.999,-6.309 -0.762,-9.398 -0.753,-9.421c0.141,-0.324 0.082,-0.728 -0.158,-1.011c-0.235,-0.284 -0.594,-0.382 -0.898,-0.25c-0.871,0.38 -8.49,3.86 -7.819,8.873l1.202,9c0.001,0.007 0.006,0.012 0.007,0.019c0.008,0.051 0.016,0.103 0.034,0.154c0.013,0.042 0.027,0.083 0.048,0.121c0.004,0.01 0.01,0.021 0.015,0.032c0.015,0.032 0.035,0.063 0.054,0.095c0.004,0.004 0.006,0.011 0.012,0.017c0.02,0.032 0.044,0.062 0.071,0.09c0.002,0.003 0.004,0.005 0.006,0.007c0.034,0.041 0.072,0.075 0.114,0.109c0.013,0.008 0.026,0.016 0.039,0.024c0.027,0.023 0.055,0.041 0.088,0.059c0.017,0.007 0.035,0.015 0.052,0.022c0.029,0.014 0.06,0.024 0.088,0.033c0.018,0.007 0.036,0.01 0.056,0.015c0.027,0.006 0.057,0.01 0.086,0.014c0.02,0.004 0.038,0.007 0.059,0.007c0.009,-0.001 0.016,0 0.023,0.002c0.218,-0.005 5.374,-0.078 7.265,-3.178Z" style="fill:#d3d3d3;fill-rule:nonzero;"/></g><g><path d="M74.308,38.822c0.803,-1.318 0.908,-2.944 0.309,-4.833c-1.999,-6.309 -0.762,-9.398 -0.753,-9.421c0.141,-0.324 0.082,-0.728 -0.158,-1.011c-0.235,-0.284 -0.594,-0.382 -0.898,-0.25c-0.871,0.38 -8.49,3.86 -7.819,8.873l1.202,9c0.001,0.007 0.006,0.012 0.007,0.019c0.008,0.051 0.016,0.103 0.034,0.154c0.013,0.042 0.027,0.083 0.048,0.121c0.004,0.01 0.01,0.021 0.015,0.032c0.015,0.032 0.035,0.063 0.054,0.095c0.004,0.004 0.006,0.011 0.012,0.017c0.02,0.032 0.044,0.062 0.071,0.09c0.002,0.003 0.004,0.005 0.006,0.007c0.034,0.041 0.072,0.075 0.114,0.109c0.013,0.008 0.026,0.016 0.039,0.024c0.027,0.023 0.055,0.041 0.088,0.059c0.017,0.007 0.035,0.015 0.052,0.022c0.029,0.014 0.06,0.024 0.088,0.033c0.018,0.007 0.036,0.01 0.056,0.015c0.027,0.006 0.057,0.01 0.086,0.014c0.02,0.004 0.038,0.007 0.059,0.007c0.009,-0.001 0.016,0 0.023,0.002c0.218,-0.005 5.374,-0.078 7.265,-3.178Zm-5.34,1.166c3.343,-4.971 1.347,-9.243 1.247,-9.445c-0.215,-0.442 -0.699,-0.633 -1.083,-0.427c-0.384,0.212 -0.519,0.732 -0.304,1.179c0.019,0.037 1.663,3.56 -1.32,7.802l-0.944,-7.05c-0.341,-2.53 3.007,-4.991 5.405,-6.325c-0.2,1.755 -0.146,4.658 1.152,8.742c0.426,1.35 0.379,2.424 -0.15,3.292c-0.813,1.336 -2.585,1.952 -4.003,2.232Z" style="fill:#808080;fill-rule:nonzero;"/></g></g></svg>