<?xml version="1.0" encoding="UTF-8" standalone="no"?><!DOCTYPE svg PUBLIC "-//W3C//DTD SVG 1.1//EN" "http://www.w3.org/Graphics/SVG/1.1/DTD/svg11.dtd"><svg width="100%" height="100%" viewBox="0 0 64 64" version="1.1" xmlns="http://www.w3.org/2000/svg" xmlns:xlink="http://www.w3.org/1999/xlink" xml:space="preserve" xmlns:serif="http://www.serif.com/" style="fill-rule:evenodd;clip-rule:evenodd;stroke-linejoin:round;stroke-miterlimit:2;"><circle cx="32" cy="32" r="32" style="fill:#8caaaf;"/><path d="M27.507,11.361c2.289,-1.025 4.669,-0.989 5.916,0.259c0.234,0.235 0.416,0.501 0.547,0.789c0.289,-0.053 0.588,-0.08 0.895,-0.08c2.459,0 4.455,1.771 4.455,3.953c0,2.183 -1.996,3.954 -4.455,3.954l-0.061,0c-0.42,1.915 -2.941,3.389 -5.985,3.389c-2.832,0 -5.212,-1.276 -5.867,-2.996c-2.305,1.032 -4.703,0.991 -5.951,-0.27c-0.233,-0.235 -0.413,-0.501 -0.542,-0.79c-0.29,0.051 -0.589,0.077 -0.896,0.076c-2.459,-0.011 -4.445,-1.791 -4.433,-3.973c0.011,-2.182 2.017,-3.945 4.476,-3.934l0.061,0c0.431,-1.912 2.96,-3.376 6.004,-3.363c2.812,0.013 5.17,1.281 5.836,2.986Z" style="fill:#cacacf;stroke:#6a737d;stroke-width:1px;"/><path d="M35.522,37.512c-0.004,0.033 -0.009,0.067 -0.014,0.101c-0.3,1.915 -2.331,3.257 -4.534,2.996c-0.018,-0.002 -0.036,-0.004 -0.055,-0.006c-0.639,1.634 -3.1,2.661 -5.827,2.338c-2.518,-0.299 -4.464,-1.653 -4.835,-3.218c-2.187,0.666 -4.315,0.39 -5.268,-0.833c-0.179,-0.23 -0.307,-0.481 -0.386,-0.748c-0.266,0.017 -0.538,0.011 -0.813,-0.021c-2.204,-0.251 -3.758,-2.01 -3.468,-3.926c0.007,-0.051 0.016,-0.102 0.027,-0.152c-0.093,-0.036 -0.182,-0.075 -0.267,-0.116c-0.15,0.082 -0.322,0.141 -0.512,0.169c-0.827,0.12 -1.686,-0.381 -1.918,-1.119c-0.108,-0.344 -0.061,-0.68 0.105,-0.952c-2.144,-0.809 -3.395,-3.048 -2.813,-5.138c0.607,-2.185 2.986,-3.384 5.31,-2.677c0.535,0.163 1.021,0.413 1.444,0.727c2.057,-0.806 4.868,-0.866 7.752,0.011c0.933,0.284 1.808,0.646 2.611,1.068c0.336,-0.123 0.696,-0.226 1.075,-0.307c1.583,-0.335 3.174,-0.199 4.378,0.288c0.223,-0.144 0.484,-0.252 0.778,-0.314c1.274,-0.271 2.682,0.427 3.14,1.556c0.368,0.906 0.015,1.816 -0.796,2.281c0.71,0.239 1.367,0.533 1.953,0.875c0.43,-0.195 0.915,-0.32 1.442,-0.358c2.288,-0.165 4.501,1.374 4.939,3.435c0.438,2.061 -1.065,3.869 -3.353,4.034c-0.032,0.002 -0.063,0.004 -0.095,0.006Z" style="fill:#a5abaf;stroke:#6a737d;stroke-width:1px;"/><path d="M58.435,27.73c0.02,0.037 0.039,0.074 0.058,0.112c1.05,2.118 0.08,4.642 -2.167,5.632c-0.019,0.009 -0.038,0.016 -0.055,0.025c0.537,2.027 -1.057,4.475 -3.837,5.7c-2.569,1.133 -5.335,0.863 -6.77,-0.517c-1.587,1.925 -3.773,2.859 -5.518,2.156c-0.327,-0.132 -0.622,-0.314 -0.881,-0.541c-0.237,0.17 -0.497,0.317 -0.777,0.442c-2.241,1.001 -4.921,0.098 -5.982,-2.015c-0.028,-0.057 -0.054,-0.114 -0.08,-0.172c-0.112,0.017 -0.222,0.027 -0.331,0.035c-0.083,0.169 -0.203,0.327 -0.363,0.463c-0.69,0.595 -1.845,0.574 -2.575,-0.044c-0.34,-0.29 -0.53,-0.658 -0.565,-1.029c-2.571,0.399 -5.301,-1.166 -6.21,-3.624c-0.949,-2.569 0.448,-5.145 3.118,-5.751c0.614,-0.139 1.243,-0.161 1.859,-0.083c1.367,-1.993 3.959,-3.657 7.273,-4.41c1.072,-0.242 2.145,-0.373 3.191,-0.4c0.23,-0.318 0.495,-0.627 0.794,-0.926c1.25,-1.244 2.836,-2.012 4.304,-2.204c0.108,-0.272 0.278,-0.531 0.51,-0.762c1.007,-1.003 2.812,-1.095 4.027,-0.207c0.975,0.711 1.276,1.84 0.839,2.774c0.832,-0.162 1.653,-0.236 2.439,-0.223c0.268,-0.443 0.636,-0.847 1.103,-1.186c2.03,-1.472 5.175,-1.168 7.019,0.679c1.844,1.848 1.692,4.544 -0.338,6.016c-0.028,0.02 -0.057,0.04 -0.085,0.06Z" style="fill:#a5abaf;stroke:#6a737d;stroke-width:1px;"/><path d="M30.403,11.922c0.657,-1.908 2.09,-3.637 4.154,-4.751c4.223,-2.279 9.503,-1.13 11.785,2.564c0.322,0.521 0.567,1.065 0.739,1.622c3.998,1.486 6.825,4.099 7.387,7.146c0.381,0.198 0.742,0.451 1.077,0.76c1.857,1.714 2.467,4.734 1.827,7.793c0.446,0.173 0.835,0.479 1.127,0.917c0.971,1.461 0.488,3.846 -1.079,5.323c-1.332,1.256 -3.022,1.453 -4.095,0.585c-0.653,0.53 -1.341,0.944 -2.038,1.237c-0.094,0.112 -0.19,0.223 -0.29,0.331c-2.682,2.921 -6.639,3.383 -8.966,1.101c-0.028,0.009 -0.057,0.017 -0.085,0.026c-1.519,0.443 -3.028,0.121 -4.041,-0.728c-1.951,1.9 -5.279,3.152 -9.054,3.152c-3.404,0 -6.446,-1.019 -8.44,-2.612c-0.556,0.206 -1.16,0.32 -1.792,0.32c-1.877,0 -3.514,-1.002 -4.359,-2.48c-2.515,0.38 -5.16,0.257 -7.435,-0.464c-4.974,-1.574 -6.323,-5.405 -3.009,-8.55c0.158,-0.151 0.324,-0.296 0.497,-0.438c-0.435,-0.094 -0.834,-0.307 -1.16,-0.643c-1.105,-1.144 -0.94,-3.289 0.368,-4.788c1.111,-1.275 2.695,-1.674 3.824,-1.061c2.203,-2.176 5.131,-2.855 7.38,-1.441c0.395,0.249 0.751,0.551 1.063,0.895c0.446,-0.089 0.902,-0.169 1.368,-0.238c0.263,-1.923 2.009,-3.775 4.433,-4.482c0.77,-0.225 1.533,-0.312 2.252,-0.278c0.327,-0.42 0.759,-0.734 1.269,-0.883c1.146,-0.334 2.338,0.268 2.989,1.396c0.694,-0.492 1.466,-0.938 2.304,-1.331Z" style="fill:#dfe2e4;stroke:#6a737d;stroke-width:1px;"/><path d="M18.513,24.413c0.598,-2.211 4.194,-3.913 8.534,-3.913c4.759,0 8.62,2.045 8.62,4.565c0,0.33 -0.066,0.652 -0.192,0.963c1.263,1.98 -0.174,4.995 -3.631,7.197c-3.944,2.512 -9.036,3.022 -11.362,1.136c-0.335,-0.271 -0.593,-0.578 -0.781,-0.91c-0.412,0.061 -0.838,0.092 -1.276,0.092c-3.507,0 -6.352,-2.045 -6.352,-4.565c-0,-2.52 2.845,-4.565 6.352,-4.565l0.088,0Z" style="fill:#efeff0;stroke:#6a737d;stroke-width:1px;"/><path d="M28.268,31.476c-2.428,1.209 -4.954,1.167 -6.278,-0.307c-0.248,-0.277 -0.441,-0.59 -0.581,-0.93c-0.306,0.062 -0.624,0.094 -0.949,0.094c-2.61,0 -4.728,-2.09 -4.728,-4.666c0,-2.576 2.118,-4.667 4.728,-4.667l0.065,0c0.445,-2.26 3.121,-4 6.351,-4c3.005,0 5.531,1.507 6.227,3.536c2.446,-1.217 4.991,-1.169 6.314,0.319c0.248,0.277 0.439,0.592 0.576,0.933c0.308,-0.061 0.625,-0.092 0.951,-0.091c2.609,0.014 4.717,2.115 4.704,4.69c-0.012,2.576 -2.14,4.657 -4.75,4.644l-0.065,0c-0.456,2.257 -3.14,3.985 -6.371,3.969c-2.984,-0.015 -5.487,-1.512 -6.194,-3.524Z" style="fill:#fafafa;stroke:#6a737d;stroke-width:1px;"/><path d="M40.628,32.112c-2.148,0.991 -4.383,0.956 -5.553,-0.251c-0.22,-0.227 -0.391,-0.484 -0.514,-0.763c-0.271,0.052 -0.552,0.078 -0.84,0.078c-2.308,-0 -4.181,-1.713 -4.181,-3.824c0,-2.111 1.873,-3.824 4.181,-3.824l0.057,-0c0.395,-1.852 2.761,-3.278 5.618,-3.278c2.659,0 4.892,1.235 5.508,2.898c2.163,-0.998 4.413,-0.959 5.585,0.261c0.219,0.227 0.388,0.485 0.508,0.764c0.272,-0.05 0.554,-0.075 0.841,-0.074c2.309,0.011 4.172,1.733 4.162,3.843c-0.011,2.111 -1.894,3.816 -4.202,3.805l-0.057,0c-0.404,1.85 -2.778,3.266 -5.636,3.253c-2.638,-0.012 -4.853,-1.239 -5.477,-2.888Z" style="fill:#bdbdc1;stroke:#6a737d;stroke-width:1px;"/></svg>