<?xml version="1.0" encoding="UTF-8" standalone="no"?><!DOCTYPE svg PUBLIC "-//W3C//DTD SVG 1.1//EN" "http://www.w3.org/Graphics/SVG/1.1/DTD/svg11.dtd"><svg width="100%" height="100%" viewBox="0 0 100 100" version="1.1" xmlns="http://www.w3.org/2000/svg" xmlns:xlink="http://www.w3.org/1999/xlink" xml:space="preserve" xmlns:serif="http://www.serif.com/" style="fill-rule:evenodd;clip-rule:evenodd;stroke-linecap:round;stroke-linejoin:round;stroke-miterlimit:1.5;"><path d="M49,71c-8.264,5.098 -47,1.628 -47,1.628c6.695,-15.338 40.946,-15.055 47,-1.628Z" style="fill:#d3d3d3;"/><path d="M1,89c24.555,16.226 79.669,0.816 79.669,0.816c-16.03,-33.586 -55.393,-19.263 -79.669,-0.816Z" style="fill:#d3d3d3;"/><path d="M44.147,79.745c9.369,27.746 53.853,9.42 53.853,9.42c2.5,-19.165 -20.5,-24.165 -28,-20.165c-1.603,0.855 -6.867,4.571 -8.5,5.5c-0.845,0.48 -7,-4.5 -9.5,-1.748c-2.276,2.505 -5.458,4.218 -7.853,6.993Z" style="fill:#d3d3d3;"/><path d="M35.904,85.492c13.01,3.382 32.422,-1.03 32.422,-1.03c-7.772,-8.517 -18.479,-5.089 -32.422,1.03Z" style="fill:#fff;"/><path d="M54.754,75.868c-19.167,-5.301 -53.754,0.953 -53.754,0.953c11.521,12.667 36.359,6.552 53.754,-0.953Z" style="fill:#fff;"/><path d="M97.858,90.849c-9.795,-7.742 -29.261,-3.735 -29.261,-3.735c4.815,15.425 18.978,10.704 29.261,3.735Z" style="fill:#fff;"/><path d="M34.885,14.457c19.071,-12.359 61.615,-4.82 61.615,-4.82c-12.567,23.718 -42.935,16.076 -61.615,4.82Z" style="fill:#d3d3d3;"/><path d="M1.5,15.884c16.79,9.838 54.5,0.102 54.5,0.102c-10.95,-20.539 -37.885,-11.549 -54.5,-0.102Z" style="fill:#d3d3d3;"/><path d="M98.25,19.586c-6.595,-4.505 -21.25,-2.586 -21.25,-2.586c4.371,8.278 14.828,6.138 21.25,2.586Z" style="fill:#fff;"/><path d="M70.545,80.413c8.886,6.199 29.455,3.13 29.455,3.13c-5.522,-11.578 -20.253,-8.3 -29.455,-3.13Z" style="fill:#fff;"/><g><path d="M42.067,56.966c-7.956,3.958 -16.234,3.818 -20.567,-1.002c-0.815,-0.907 -1.448,-1.933 -1.904,-3.048c-1.003,0.208 -2.044,0.312 -3.111,0.312c-8.548,-0 -15.485,-6.841 -15.485,-15.272c0,-8.431 6.937,-15.272 15.485,-15.272l0.211,0c1.463,-7.396 10.226,-13.091 20.808,-13.091c9.848,0 18.118,4.932 20.4,11.574c7.096,-7.12 16.344,-3.83 20.685,1.042c0.811,0.907 1.437,1.937 1.881,3.051c1.008,-0.199 2.052,-0.299 3.115,-0.295c8.552,0.044 15.415,6.921 15.415,15.347c-0,13.781 -15.774,15.196 -15.774,15.196c-1.496,7.389 -10.289,13.044 -20.874,12.992c-9.771,-0.048 -17.974,-4.949 -20.285,-11.534Z" style="fill:#d3d3d3;"/><path d="M42.067,56.966c-7.956,3.958 -16.234,3.818 -20.567,-1.002c-0.815,-0.907 -1.448,-1.933 -1.904,-3.048c-1.003,0.208 -2.044,0.312 -3.111,0.312c-8.548,-0 -15.485,-6.841 -15.485,-15.272c0,-8.431 6.937,-15.272 15.485,-15.272l0.211,0c1.463,-7.396 10.226,-13.091 20.808,-13.091c9.848,0 18.118,4.932 20.4,11.574c7.096,-7.12 16.344,-3.83 20.685,1.042c0.811,0.907 1.437,1.937 1.881,3.051c1.008,-0.199 2.052,-0.299 3.115,-0.295c8.552,0.044 15.415,6.921 15.415,15.347c-0,13.781 -15.774,15.196 -15.774,15.196c-1.496,7.389 -10.289,13.044 -20.874,12.992c-9.771,-0.048 -17.974,-4.949 -20.285,-11.534Zm2.83,-0.993c-0.284,-0.812 -0.904,-1.463 -1.701,-1.787c-0.797,-0.323 -1.695,-0.289 -2.466,0.094c-6.569,3.268 -13.421,3.658 -16.999,-0.322c-0.582,-0.647 -1.032,-1.381 -1.358,-2.177c-0.547,-1.338 -1.969,-2.095 -3.384,-1.802c-0.808,0.167 -1.646,0.249 -2.504,0.249c-6.88,-0 -12.485,-5.486 -12.485,-12.272c0,-6.786 5.605,-12.272 12.485,-12.272l0.211,0c1.433,0 2.665,-1.012 2.943,-2.418c1.239,-6.261 8.907,-10.673 17.865,-10.673c8.393,0 15.618,3.888 17.562,9.548c0.337,0.98 1.155,1.717 2.164,1.949c1.01,0.233 2.067,-0.072 2.799,-0.806c5.6,-5.619 12.894,-2.925 16.32,0.921c0.001,0.001 0.003,0.003 0.004,0.004c0.575,0.642 1.016,1.373 1.331,2.163c0.535,1.342 1.952,2.112 3.37,1.831c0.814,-0.161 1.658,-0.241 2.518,-0.238c6.887,0.036 12.428,5.561 12.428,12.347c-0,5.467 -3.156,8.464 -6.285,10.112c-3.381,1.78 -6.757,2.096 -6.757,2.096c-1.322,0.119 -2.409,1.092 -2.672,2.393c-1.267,6.254 -8.959,10.631 -17.919,10.587c-8.332,-0.041 -15.499,-3.912 -17.47,-9.527Z" style="fill:#808080;"/><path d="M54.999,36.003c5.351,-12.493 27.714,-4.924 21.658,10.05" style="fill:#d3d3d3;stroke:#808080;stroke-width:3px;"/><path d="M17.031,36.047c-4.441,-7.138 4.14,-15.335 10.969,-12.241" style="fill:#d3d3d3;stroke:#808080;stroke-width:3px;"/><path d="M43.29,42.047c1.984,-8.169 13.846,-7.785 16.42,-0.744" style="fill:#d3d3d3;stroke:#808080;stroke-width:3px;"/><path d="M24.917,56.856c-7.662,-5.099 -3.391,-16.407 4.615,-16.151" style="fill:#d3d3d3;stroke:#808080;stroke-width:3px;"/></g></svg>