<?xml version="1.0" encoding="UTF-8" standalone="no"?><!DOCTYPE svg PUBLIC "-//W3C//DTD SVG 1.1//EN" "http://www.w3.org/Graphics/SVG/1.1/DTD/svg11.dtd"><svg width="100%" height="100%" viewBox="0 0 100 100" version="1.1" xmlns="http://www.w3.org/2000/svg" xmlns:xlink="http://www.w3.org/1999/xlink" xml:space="preserve" xmlns:serif="http://www.serif.com/" style="fill-rule:evenodd;clip-rule:evenodd;stroke-linejoin:round;stroke-miterlimit:2;"><g><g><g><path d="M68.012,92.347c0.09,-0.215 0.215,-0.413 0.376,-0.574c0.502,-0.502 1.307,-0.663 1.953,-0.394c0.214,0.089 0.412,0.215 0.59,0.394c0.162,0.161 0.287,0.358 0.377,0.574c0.09,0.215 0.143,0.448 0.143,0.68c-0,0.25 -0.054,0.483 -0.143,0.698c-0.09,0.215 -0.215,0.413 -0.377,0.574c-0.178,0.178 -0.376,0.304 -0.59,0.394c-0.215,0.089 -0.448,0.143 -0.682,0.143c-0.232,-0 -0.465,-0.054 -0.68,-0.143c-0.215,-0.09 -0.412,-0.216 -0.591,-0.394c-0.161,-0.161 -0.286,-0.359 -0.376,-0.574c-0.108,-0.215 -0.144,-0.448 -0.144,-0.698c0,-0.232 0.036,-0.465 0.144,-0.68Z" style="fill:#161716;fill-rule:nonzero;"/></g></g><g><g><path d="M64.018,75.685c0.422,-0.422 1.084,-0.558 1.641,-0.331c0.18,0.075 0.346,0.181 0.496,0.331c0.271,0.27 0.437,0.663 0.437,1.054c-0,0.21 -0.03,0.405 -0.12,0.586c-0.076,0.181 -0.181,0.347 -0.317,0.482c-0.286,0.286 -0.662,0.437 -1.069,0.437c-0.406,-0 -0.782,-0.151 -1.068,-0.437c-0.135,-0.135 -0.24,-0.301 -0.316,-0.482c-0.091,-0.181 -0.121,-0.376 -0.121,-0.586c-0,-0.391 0.166,-0.784 0.437,-1.054Z" style="fill:#161716;fill-rule:nonzero;"/></g></g><g><g><path d="M90.554,67.506c0.719,-0.719 1.846,-0.949 2.795,-0.564c0.306,0.128 0.589,0.308 0.844,0.564c0.462,0.46 0.744,1.128 0.744,1.794c-0,0.358 -0.052,0.691 -0.204,0.999c-0.129,0.307 -0.308,0.59 -0.539,0.82c-0.487,0.486 -1.128,0.743 -1.82,0.743c-0.692,0 -1.333,-0.257 -1.819,-0.743c-0.23,-0.23 -0.409,-0.513 -0.538,-0.82c-0.154,-0.308 -0.205,-0.641 -0.205,-0.999c-0.001,-0.666 0.282,-1.334 0.742,-1.794Z" style="fill:#161716;fill-rule:nonzero;"/></g></g><g><g><path d="M47.894,35.579c0.06,-0.145 0.144,-0.278 0.253,-0.386c0.458,-0.458 1.253,-0.458 1.711,0c0.217,0.217 0.349,0.53 0.349,0.844c0,0.325 -0.132,0.627 -0.349,0.856c-0.229,0.228 -0.542,0.349 -0.856,0.349c-0.313,0 -0.626,-0.121 -0.855,-0.349c-0.109,-0.109 -0.193,-0.242 -0.253,-0.387c-0.073,-0.156 -0.097,-0.313 -0.097,-0.469c-0,-0.157 0.024,-0.314 0.097,-0.458Z" style="fill:#161716;fill-rule:nonzero;"/></g></g><g><g><path d="M82.146,45.789c0.061,-0.144 0.145,-0.277 0.253,-0.385c0.459,-0.458 1.254,-0.458 1.712,-0c0.217,0.217 0.349,0.53 0.349,0.843c0,0.326 -0.132,0.627 -0.349,0.856c-0.229,0.229 -0.543,0.349 -0.856,0.349c-0.313,0 -0.627,-0.12 -0.856,-0.349c-0.108,-0.109 -0.192,-0.241 -0.253,-0.386c-0.072,-0.157 -0.096,-0.313 -0.096,-0.47c-0,-0.157 0.024,-0.313 0.096,-0.458Z" style="fill:#161716;fill-rule:nonzero;"/></g></g><g><g><path d="M38.024,20.946c0.032,-0.218 0.094,-0.404 0.187,-0.591c0.062,-0.185 0.156,-0.372 0.28,-0.527c0.123,-0.187 0.247,-0.341 0.371,-0.466c0.156,-0.154 0.311,-0.279 0.466,-0.403c0.186,-0.094 0.373,-0.218 0.559,-0.28c0.186,-0.093 0.373,-0.123 0.559,-0.185c1.025,-0.186 2.08,0.124 2.823,0.868c0.56,0.56 0.901,1.366 0.901,2.174c-0,0.433 -0.092,0.806 -0.247,1.209c-0.156,0.373 -0.373,0.714 -0.653,0.994c-0.309,0.279 -0.652,0.528 -1.023,0.682c-0.373,0.156 -0.776,0.218 -1.181,0.218c-0.186,0 -0.403,0 -0.62,-0.062c-0.186,-0.032 -0.373,-0.094 -0.559,-0.156c-0.186,-0.093 -0.373,-0.187 -0.559,-0.279c-0.155,-0.124 -0.31,-0.248 -0.466,-0.403c-0.557,-0.589 -0.9,-1.366 -0.9,-2.204c0,-0.186 0.032,-0.404 0.062,-0.589Z" style="fill:#161716;fill-rule:nonzero;"/></g></g><g><g><path d="M27.251,14.1c0.012,-0.083 0.035,-0.154 0.07,-0.224c0.024,-0.07 0.06,-0.141 0.106,-0.2c0.036,-0.071 0.094,-0.129 0.141,-0.176c0.118,-0.118 0.247,-0.2 0.388,-0.259c0.283,-0.118 0.612,-0.118 0.894,-0c0.153,0.059 0.271,0.141 0.388,0.259c0.047,0.047 0.094,0.105 0.141,0.176c0.048,0.059 0.083,0.13 0.107,0.2c0.035,0.07 0.058,0.141 0.07,0.224c0.012,0.07 0.023,0.152 0.023,0.223c0,0.082 -0.011,0.153 -0.023,0.235c-0.012,0.071 -0.035,0.153 -0.07,0.223c-0.024,0.071 -0.06,0.13 -0.107,0.201c-0.047,0.058 -0.094,0.117 -0.141,0.176c-0.117,0.106 -0.235,0.2 -0.388,0.258c-0.141,0.06 -0.294,0.083 -0.447,0.083c-0.153,0 -0.305,-0.023 -0.447,-0.083c-0.141,-0.058 -0.27,-0.152 -0.388,-0.258c-0.211,-0.223 -0.341,-0.517 -0.341,-0.835c0,-0.071 0.012,-0.153 0.024,-0.223Z" style="fill:#161716;fill-rule:nonzero;"/></g></g><g><g><path d="M53.206,7.4c0.117,-0.278 0.279,-0.533 0.487,-0.742c0.533,-0.555 1.345,-0.788 2.11,-0.648c0.14,0.046 0.279,0.069 0.418,0.138c0.138,0.046 0.278,0.139 0.417,0.209c0.116,0.093 0.232,0.186 0.347,0.301c0.21,0.209 0.372,0.464 0.488,0.742c0.116,0.278 0.185,0.579 0.185,0.882c-0,0.323 -0.069,0.602 -0.185,0.903c-0.116,0.278 -0.278,0.533 -0.488,0.742c-0.115,0.116 -0.231,0.209 -0.347,0.302c-0.139,0.069 -0.279,0.139 -0.417,0.208c-0.139,0.046 -0.278,0.093 -0.418,0.117c-0.161,0.046 -0.324,0.046 -0.464,0.046c-0.602,0 -1.205,-0.232 -1.646,-0.672c-0.208,-0.21 -0.37,-0.464 -0.486,-0.743c-0.116,-0.301 -0.186,-0.58 -0.186,-0.903c-0,-0.303 0.07,-0.604 0.185,-0.882Z" style="fill:#161716;fill-rule:nonzero;"/></g></g><g><g><path d="M23.995,29.404c0.018,-0.126 0.054,-0.233 0.107,-0.341c0.036,-0.107 0.09,-0.214 0.162,-0.304c0.071,-0.108 0.143,-0.197 0.214,-0.269c0.18,-0.179 0.376,-0.304 0.592,-0.394c0.323,-0.143 0.68,-0.179 1.039,-0.107c0.107,0.036 0.215,0.053 0.323,0.107c0.106,0.036 0.214,0.107 0.322,0.161c0.09,0.072 0.179,0.144 0.268,0.233c0.323,0.323 0.52,0.788 0.52,1.254c-0,0.251 -0.054,0.466 -0.143,0.698c-0.09,0.216 -0.215,0.412 -0.377,0.574c-0.089,0.09 -0.178,0.161 -0.268,0.215c-0.108,0.072 -0.216,0.126 -0.322,0.179c-0.108,0.036 -0.215,0.072 -0.323,0.09c-0.125,0.036 -0.251,0.036 -0.359,0.036c-0.465,0 -0.931,-0.179 -1.271,-0.519c-0.322,-0.341 -0.52,-0.807 -0.52,-1.272c0,-0.108 0.018,-0.234 0.036,-0.341Z" style="fill:#161716;fill-rule:nonzero;"/></g></g><g><g><path d="M8.164,45.996c0.018,-0.126 0.054,-0.233 0.108,-0.341c0.035,-0.107 0.09,-0.214 0.161,-0.304c0.071,-0.108 0.143,-0.197 0.215,-0.269c0.179,-0.179 0.376,-0.304 0.591,-0.394c0.323,-0.143 0.68,-0.179 1.039,-0.107c0.108,0.036 0.215,0.053 0.323,0.107c0.107,0.035 0.214,0.107 0.322,0.161c0.09,0.072 0.179,0.144 0.268,0.233c0.323,0.323 0.52,0.788 0.52,1.254c-0,0.251 -0.053,0.466 -0.143,0.698c-0.09,0.216 -0.215,0.412 -0.377,0.574c-0.089,0.089 -0.178,0.161 -0.268,0.215c-0.108,0.071 -0.215,0.126 -0.322,0.179c-0.107,0.036 -0.215,0.072 -0.323,0.09c-0.125,0.036 -0.251,0.036 -0.358,0.036c-0.466,0 -0.932,-0.179 -1.272,-0.519c-0.322,-0.341 -0.52,-0.807 -0.52,-1.272c0,-0.108 0.019,-0.234 0.036,-0.341Z" style="fill:#161716;fill-rule:nonzero;"/></g></g><g><g><path d="M65.789,15.786c1.288,-2.606 3.661,-4.265 7.053,-4.929c11.321,-2.218 14.907,-7.187 14.935,-7.225c0.365,-0.544 1.031,-0.802 1.671,-0.643c0.637,0.159 1.106,0.7 1.173,1.352c0.193,1.872 1.649,18.383 -6.54,21.757l-14.699,6.056c-0.01,0.004 -0.021,0.006 -0.031,0.01c-0.086,0.033 -0.173,0.061 -0.265,0.079c-0.074,0.015 -0.15,0.022 -0.226,0.025c-0.02,0.001 -0.04,0.001 -0.06,0.002c-0.063,0 -0.127,-0.003 -0.191,-0.01c-0.013,-0.002 -0.025,-0.002 -0.038,-0.004c-0.066,-0.009 -0.133,-0.022 -0.199,-0.041c-0.006,-0.001 -0.011,-0.004 -0.017,-0.006c-0.09,-0.026 -0.178,-0.06 -0.263,-0.102c-0.025,-0.013 -0.048,-0.029 -0.072,-0.043c-0.057,-0.033 -0.114,-0.067 -0.167,-0.107c-0.029,-0.022 -0.056,-0.046 -0.083,-0.069c-0.044,-0.039 -0.086,-0.078 -0.126,-0.122c-0.025,-0.027 -0.049,-0.055 -0.072,-0.084c-0.035,-0.044 -0.068,-0.091 -0.098,-0.14c-0.021,-0.032 -0.041,-0.064 -0.059,-0.098c-0.007,-0.013 -0.017,-0.025 -0.024,-0.039c-0.19,-0.385 -4.629,-9.491 -1.602,-15.619Zm2.948,10.422c4.583,-10.373 12.817,-10.747 13.208,-10.758c0.86,-0.024 1.578,0.653 1.602,1.514c0.024,0.859 -0.649,1.574 -1.514,1.602c-0.071,0.001 -6.861,0.31 -10.655,9.393l11.515,-4.743c4.133,-1.703 4.905,-9.799 4.812,-15.213c-2.484,1.939 -6.929,4.477 -14.264,5.913c-2.419,0.474 -4.007,1.536 -4.854,3.246c-1.308,2.643 -0.674,6.305 0.15,9.046Z" style="fill:#161716;fill-rule:nonzero;"/></g></g><g><g><path d="M73.922,85.658c0.96,2.061 2.785,3.399 5.424,3.979c8.81,1.934 11.526,5.882 11.546,5.913c0.277,0.432 0.792,0.645 1.295,0.532c0.501,-0.113 0.877,-0.527 0.941,-1.036c0.184,-1.46 1.616,-14.34 -4.725,-17.123l-11.382,-4.995c-0.008,-0.004 -0.016,-0.005 -0.024,-0.008c-0.067,-0.028 -0.135,-0.052 -0.206,-0.067c-0.057,-0.013 -0.117,-0.02 -0.176,-0.024c-0.016,-0.001 -0.031,-0.001 -0.047,-0.002c-0.049,-0.001 -0.099,-0 -0.149,0.005c-0.01,0.001 -0.02,0 -0.03,0.002c-0.052,0.006 -0.104,0.015 -0.156,0.028c-0.005,0.001 -0.009,0.004 -0.014,0.005c-0.071,0.019 -0.14,0.044 -0.207,0.075c-0.02,0.009 -0.038,0.022 -0.057,0.032c-0.046,0.025 -0.09,0.051 -0.133,0.081c-0.023,0.017 -0.044,0.035 -0.066,0.053c-0.035,0.029 -0.068,0.059 -0.1,0.092c-0.02,0.021 -0.04,0.042 -0.058,0.065c-0.029,0.034 -0.055,0.07 -0.08,0.107c-0.016,0.025 -0.033,0.05 -0.047,0.076c-0.006,0.01 -0.014,0.019 -0.02,0.03c-0.155,0.298 -3.786,7.337 -1.529,12.18Zm2.489,-8.094c3.398,8.19 9.827,8.629 10.133,8.645c0.672,0.034 1.245,-0.483 1.279,-1.156c0.034,-0.671 -0.479,-1.242 -1.155,-1.279c-0.055,-0.002 -5.358,-0.364 -8.161,-7.532l8.916,3.913c3.2,1.405 3.66,7.746 3.491,11.977c-1.907,-1.56 -5.337,-3.623 -11.045,-4.876c-1.882,-0.414 -3.104,-1.272 -3.736,-2.624c-0.976,-2.089 -0.415,-4.94 0.278,-7.068Z" style="fill:#161716;fill-rule:nonzero;"/></g></g><g><g><path d="M6.529,34.035c5.992,-3.809 16.496,-1.735 31.221,6.169c13.938,7.479 19,5.932 20.776,4.34c2.986,-2.672 1.798,-9.425 1.087,-11.803c-0.294,-0.987 0.232,-2.06 1.179,-2.396c0.945,-0.339 1.954,0.188 2.251,1.175c0.134,0.446 3.23,10.981 -2.22,15.869c-4.452,3.993 -12.553,2.749 -24.771,-3.812c-17.688,-9.493 -24.929,-8.058 -27.667,-6.356c-2.646,1.644 -2.807,4.467 -2.812,4.568c-0.028,1.044 -0.855,1.887 -1.848,1.884c-0.133,-0.001 -0.264,-0.017 -0.389,-0.047c-0.799,-0.191 -1.38,-0.947 -1.355,-1.849c0.005,-0.202 0.183,-4.969 4.548,-7.742Z" style="fill:#161716;fill-rule:nonzero;"/></g></g><g><g><path d="M10.864,73.918c0.767,-0.537 18.995,-13.04 37.657,-3.718c12.642,6.323 12.997,13.721 12.563,16.61c-0.754,5.012 -5.287,9.049 -11.279,10.048c-0.798,0.133 -1.546,0.2 -2.242,0.2c-2.321,-0 -4.073,-0.737 -5.224,-2.204c-2.928,-3.729 -0.173,-10.462 0.151,-11.216c0.39,-0.908 1.439,-1.331 2.35,-0.941c0.908,0.388 1.331,1.44 0.943,2.349c-0.755,1.778 -1.903,5.973 -0.625,7.598c0.781,0.99 2.637,0.917 4.058,0.68c4.457,-0.743 7.802,-3.575 8.325,-7.048c0.671,-4.468 -3.2,-9.16 -10.623,-12.87c-16.718,-8.361 -33.83,3.329 -34.001,3.449c-0.814,0.565 -1.929,0.366 -2.493,-0.444c-0.566,-0.81 -0.37,-1.926 0.44,-2.493Z" style="fill:#161716;fill-rule:nonzero;"/></g></g><g><g><path d="M1.109,56.666c1.273,-0.523 31.539,-12.671 62.353,1.827c10.051,4.734 19.722,4.38 26.526,-0.959c4.668,-3.661 7.176,-9.232 6.241,-13.857c-0.695,-3.44 -3.161,-5.832 -7.13,-6.914c-4.962,-1.355 -8.643,-0.987 -10.944,1.087c-4.371,3.939 -2.954,12.924 -2.94,13.015c0.16,0.976 -0.5,1.897 -1.475,2.059c-0.978,0.163 -1.898,-0.497 -2.059,-1.473c-0.075,-0.446 -1.756,-10.993 4.065,-16.254c3.266,-2.952 8.075,-3.586 14.296,-1.891c5.286,1.443 8.731,4.873 9.699,9.661c1.197,5.921 -1.833,12.909 -7.541,17.385c-4.279,3.357 -9.47,5.046 -15.127,5.046c-4.802,-0 -9.939,-1.216 -15.137,-3.662c-29.349,-13.812 -59.167,-1.877 -59.463,-1.756c-0.919,0.376 -1.961,-0.062 -2.338,-0.976c-0.376,-0.915 0.06,-1.962 0.974,-2.338Z" style="fill:#161716;fill-rule:nonzero;"/></g></g></g></svg>