<svg fill="#161716" width="100%" height="100%" viewBox="0 0 800 800" version="1.1" xmlns="http://www.w3.org/2000/svg" xmlns:xlink="http://www.w3.org/1999/xlink" xml:space="preserve" xmlns:serif="http://www.serif.com/" style="fill-rule:evenodd;clip-rule:evenodd;stroke-linejoin:round;stroke-miterlimit:2;"><g id="SVGRepo_iconCarrier"><path d="M793.846,219.277l-16.052,-11.477l-8.065,-24.551l-20.409,-1.744l-5.086,35.449l-6.465,10.243l-3.994,6.828l-23.898,6.535l-19.831,4.723l-15.981,20.702l4.504,9.587l-33.486,21.213l-10.243,13l-9.588,7.12l-25.932,15.4l-14.311,-4.36l11.043,-26.077l-16.344,-22.736l-4.794,-19.03l-12.203,-6.539l-20.92,19.105l-4.286,16.344l6.32,20.628l-6.247,23.462l-9.516,1.526l-5.302,-13.948l-2.689,-14.452l5.157,-29.711l-4.139,-5.302l6.465,-15.981l39.08,-5.594l-14.092,-13.945l-30.656,8.499l-15.034,-10.317l-25.135,12.058l-22.443,-2.252l7.698,-24.551l-15.907,-8.861l-14.093,0.8l-18.16,-8.791l-25.784,-0.071l-85.933,-4.36l-106.126,-14.455l-43.292,-8.862l-12.129,-2.76l-69.588,-18.741l-4.938,15.544l-23.828,-8.135l-0.582,38.498l8.354,3.779l-12.566,8.425l-24.188,46.2l-0.437,16.633l-11.621,27.093l0.726,30.363l23.535,94.72l27.24,15.255l12.637,16.852l2.471,16.2l38.28,5.01l-2.397,3.634l56.514,33.193l31.526,4.942l14.526,-6.612l27.459,3.633l22.08,23.244l6.031,19.83l21.864,14.963l8.862,-13.8l21.209,0.727l29.855,43.655l6.465,22.591l30.652,6.246l-3.92,-17.142l9.296,-19.612l24.117,-13.729l29.707,-23.754l25.569,7.772l6.902,-5.954l16.708,12.493l18.594,-6.102l2.689,-15.471l18.16,-5.16l15.978,-3.193l22.591,1.015l19.542,11.043l14.381,-11.332l26.222,20.046l-0.29,20.704l16.271,24.407l31.016,17.867l1.744,-33.994l-12.495,-27.021l-23.025,-39.443l5.739,-26.296l23.172,-26.221l6.972,-14.819l35.809,-45.036l-7.553,-12.204l0.218,-0.073l0.726,-0.145l1.308,-0.289l0.363,-0.074l-12.277,-11.04l0.945,-12.566l-4.166,-4.166l12.664,1.043l3.705,-1.819l2.326,-9.006l0.437,-0.071l0.144,-0.074l-11.187,-23.535l4.794,-5.157l14.166,2.108l-2.908,-23.754l3.634,-1.089l23.243,-12.133l6.394,-9.513l0.726,0.433l1.815,2.69l6.465,-7.773l-9.298,-18.233l-0.145,-3.994l12.277,-18.379l27.892,-28.692Z" style="fill-rule:nonzero;"/></g></svg>