<?xml version="1.0" encoding="UTF-8" standalone="no"?><!DOCTYPE svg PUBLIC "-//W3C//DTD SVG 1.1//EN" "http://www.w3.org/Graphics/SVG/1.1/DTD/svg11.dtd"><svg width="100%" height="100%" viewBox="0 0 100 100" version="1.1" xmlns="http://www.w3.org/2000/svg" xmlns:xlink="http://www.w3.org/1999/xlink" xml:space="preserve" xmlns:serif="http://www.serif.com/" style="fill-rule:evenodd;clip-rule:evenodd;stroke-linejoin:round;stroke-miterlimit:2;"><path d="M70.009,43.876c-0.272,-3.329 -0.053,-10.937 4.419,-15.591c3.107,-3.234 7.68,-3.93 13.599,-2.071c5.028,1.58 8.305,5.339 9.227,10.584c1.138,6.488 -1.745,14.144 -7.174,19.048c-4.072,3.678 -9.009,5.528 -14.39,5.528c-4.568,0 -9.454,-1.332 -14.399,-4.011c-27.917,-15.133 -58.43,-1.991 -58.788,-2.994c-0.357,-1.004 30.928,-16.444 60.239,-0.56c9.562,5.188 18.762,4.8 25.235,-1.051c4.439,-4.011 6.825,-10.114 5.935,-15.182c-0.662,-3.77 -3.006,-6.389 -6.782,-7.575c-4.72,-1.483 -8.222,-1.082 -10.411,1.19c-4.157,4.316 -2.81,14.162 -2.796,14.261c0.151,1.069 0.877,5.515 4.667,4.735c5.545,-1.14 9.069,-3.841 9.666,-7.407c0.464,-2.772 -1.005,-5.698 -3.656,-7.283c-0.844,-0.505 -2.002,-0.984 -2.722,-0.406c-1.181,0.95 -1.414,4.415 -1.343,5.946c0.037,0.784 -0.472,1.49 -1.135,1.579c-0.665,0.091 -1.233,-0.473 -1.271,-1.255c-0.033,-0.649 -0.236,-6.422 2.471,-8.602c1.064,-0.858 2.34,-1.021 3.809,-0.491c0.44,0.159 0.899,0.38 1.373,0.664c3.563,2.131 5.507,6.25 4.837,10.25c-0.385,2.305 -2.303,7.875 -11.749,9.82c-7.392,1.518 -8.415,-3.696 -8.861,-9.126Z" style="fill:#d3d3d3;"/><path d="M4.851,35.742c-0.726,0.952 25.658,14.214 49.868,1.592c16.401,-8.559 16.736,-16.627 16.119,-19.698c-1.073,-5.332 -7.065,-9.098 -14.908,-9.372c-1.047,-0.036 -2.025,-0.007 -2.934,0.087c-3.031,0.313 -5.306,1.347 -6.784,3.093c-3.758,4.436 0.048,11.329 0.394,12.137c1.436,3.347 2.962,4.216 2.962,4.216c5.382,5.423 12.083,-3.336 12.623,-7.042c0.073,-0.494 0.104,-0.954 0.098,-1.375c-0.023,-1.412 -0.482,-2.432 -1.374,-3.041c-2.266,-1.55 -5.498,1.647 -5.928,2.335c-0.354,0.565 -0.785,0.957 -0.542,1.487c0.242,0.529 0.877,0.72 1.42,0.427c1.058,-0.568 2.763,-3.074 3.752,-2.397c0.601,0.413 0.575,1.546 0.448,2.425c-0.402,2.756 -2.07,4.966 -4.148,5.499c-1.834,0.469 -2.385,-0.787 -4.151,-2.732c-0,0 -0.481,-1.053 -0.884,-1.773c-1.017,-1.825 -2.59,-6.216 -0.949,-8.151c1.003,-1.178 3.429,-1.35 5.288,-1.284c5.834,0.204 10.253,2.822 10.997,6.516c0.956,4.753 -4.019,10.361 -13.648,15.384c-21.689,11.319 -46.997,0.712 -47.719,1.667Z" style="fill:#d3d3d3;fill-rule:nonzero;"/><path d="M8.495,69.247c-0.758,-0.857 18.949,-21.124 41.079,-13.106c14.994,5.44 16.588,14.026 16.578,17.464c-0.019,5.969 -4.37,11.381 -10.828,13.468c-0.861,0.278 -1.678,0.471 -2.445,0.577c-2.565,0.357 -4.619,-0.233 -6.129,-1.771c-3.841,-3.903 -1.811,-12.172 -1.656,-13.12c0.644,-3.92 1.768,-5.201 1.768,-5.201c3.575,-7.053 10.56,0.819 11.614,4.673c0.14,0.514 0.241,1 0.305,1.456c0.211,1.521 -0.003,2.72 -0.643,3.577c-1.625,2.181 -5.295,0.852 -5.707,0.693c-0.496,-0.19 -0.806,-0.849 -0.691,-1.472c0.114,-0.623 0.609,-0.973 1.107,-0.784c0.97,0.369 3.204,0.824 3.913,-0.128c0.43,-0.581 0.224,-1.792 -0.025,-2.705c-0.783,-2.867 -2.526,-4.859 -4.336,-4.956c-1.597,-0.086 -1.849,1.389 -2.995,3.881c-0,-0 -0.227,1.242 -0.443,2.105c-0.545,2.192 -1.132,7.266 0.544,8.968c1.023,1.035 3.063,0.665 4.593,0.17c4.804,-1.552 8.039,-5.374 8.052,-9.508c0.017,-5.321 -5.023,-10.205 -13.826,-13.398c-19.828,-7.194 -39.074,9.977 -39.829,9.117Z" style="fill:#d3d3d3;fill-rule:nonzero;"/></svg>