<?xml version="1.0" encoding="UTF-8" standalone="no"?><!DOCTYPE svg PUBLIC "-//W3C//DTD SVG 1.1//EN" "http://www.w3.org/Graphics/SVG/1.1/DTD/svg11.dtd"><svg width="100%" height="100%" viewBox="0 0 64 64" version="1.1" xmlns="http://www.w3.org/2000/svg" xmlns:xlink="http://www.w3.org/1999/xlink" xml:space="preserve" xmlns:serif="http://www.serif.com/" style="fill-rule:evenodd;clip-rule:evenodd;stroke-linejoin:round;stroke-miterlimit:2;"><circle cx="32" cy="32" r="32" style="fill:#8caaaf;"/><path d="M28.504,9.873c2.243,-0.836 4.576,-0.806 5.799,0.212c0.229,0.191 0.408,0.408 0.536,0.643c0.283,-0.043 0.576,-0.065 0.877,-0.065c2.411,0 4.367,1.445 4.367,3.225c0,1.781 -1.956,3.226 -4.367,3.226l-0.059,0c-0.412,1.562 -2.883,2.764 -5.867,2.764c-2.776,0 -5.109,-1.041 -5.751,-2.444c-2.26,0.842 -4.611,0.809 -5.834,-0.22c-0.228,-0.192 -0.405,-0.409 -0.531,-0.645c-0.285,0.042 -0.578,0.063 -0.879,0.062c-2.41,-0.008 -4.357,-1.461 -4.345,-3.241c0.011,-1.78 1.977,-3.218 4.388,-3.209l0.059,0c0.423,-1.56 2.902,-2.754 5.886,-2.743c2.756,0.01 5.068,1.045 5.721,2.435Z" style="fill:#cacacf;stroke:#6a737d;stroke-width:0.9px;"/><path d="M36.36,31.207c-0.003,0.027 -0.008,0.055 -0.013,0.083c-0.294,1.562 -2.285,2.657 -4.445,2.444c-0.017,-0.002 -0.035,-0.004 -0.054,-0.005c-0.626,1.333 -3.039,2.171 -5.712,1.907c-2.468,-0.244 -4.376,-1.348 -4.739,-2.625c-2.144,0.543 -4.23,0.318 -5.164,-0.68c-0.176,-0.187 -0.301,-0.392 -0.379,-0.61c-0.26,0.014 -0.527,0.009 -0.797,-0.017c-2.16,-0.205 -3.683,-1.64 -3.399,-3.203c0.007,-0.041 0.015,-0.083 0.026,-0.124c-0.091,-0.029 -0.178,-0.061 -0.261,-0.094c-0.148,0.066 -0.316,0.115 -0.502,0.137c-0.811,0.098 -1.653,-0.31 -1.881,-0.912c-0.105,-0.281 -0.059,-0.555 0.103,-0.777c-2.101,-0.66 -3.328,-2.487 -2.757,-4.192c0.595,-1.782 2.927,-2.76 5.205,-2.183c0.525,0.133 1.001,0.336 1.416,0.593c2.016,-0.658 4.772,-0.707 7.599,0.009c0.914,0.231 1.772,0.527 2.559,0.871c0.329,-0.1 0.682,-0.185 1.054,-0.251c1.552,-0.273 3.111,-0.162 4.291,0.235c0.219,-0.117 0.475,-0.205 0.763,-0.256c1.249,-0.221 2.629,0.349 3.078,1.27c0.361,0.739 0.015,1.481 -0.78,1.86c0.696,0.195 1.34,0.435 1.914,0.714c0.422,-0.159 0.897,-0.261 1.414,-0.292c2.243,-0.134 4.412,1.121 4.841,2.802c0.43,1.682 -1.044,3.157 -3.286,3.291c-0.032,0.002 -0.062,0.004 -0.094,0.005Z" style="fill:#a5abaf;stroke:#6a737d;stroke-width:0.9px;"/><path d="M58.821,23.227c0.02,0.03 0.038,0.06 0.057,0.091c1.029,1.728 0.079,3.787 -2.124,4.595c-0.019,0.007 -0.037,0.013 -0.054,0.02c0.526,1.654 -1.036,3.651 -3.761,4.65c-2.519,0.925 -5.23,0.704 -6.637,-0.421c-1.555,1.57 -3.698,2.332 -5.409,1.758c-0.32,-0.107 -0.61,-0.256 -0.863,-0.441c-0.233,0.139 -0.488,0.259 -0.762,0.361c-2.197,0.816 -4.824,0.08 -5.864,-1.644c-0.027,-0.047 -0.053,-0.093 -0.078,-0.14c-0.11,0.013 -0.218,0.022 -0.325,0.028c-0.081,0.138 -0.199,0.267 -0.356,0.378c-0.676,0.485 -1.808,0.468 -2.524,-0.036c-0.333,-0.237 -0.519,-0.537 -0.554,-0.839c-2.52,0.325 -5.196,-0.952 -6.087,-2.957c-0.93,-2.096 0.439,-4.197 3.056,-4.692c0.602,-0.113 1.219,-0.131 1.823,-0.067c1.34,-1.626 3.88,-2.984 7.129,-3.598c1.051,-0.197 2.103,-0.304 3.128,-0.326c0.225,-0.26 0.485,-0.512 0.778,-0.756c1.226,-1.014 2.78,-1.641 4.219,-1.798c0.106,-0.221 0.273,-0.433 0.5,-0.621c0.987,-0.818 2.757,-0.893 3.948,-0.169c0.956,0.58 1.251,1.501 0.822,2.263c0.816,-0.132 1.621,-0.193 2.391,-0.182c0.263,-0.361 0.624,-0.691 1.081,-0.968c1.99,-1.2 5.073,-0.952 6.881,0.554c1.808,1.508 1.659,3.707 -0.331,4.908c-0.028,0.016 -0.056,0.033 -0.084,0.049Z" style="fill:#a5abaf;stroke:#6a737d;stroke-width:0.9px;"/><path d="M31.342,10.331c0.645,-1.556 2.049,-2.967 4.072,-3.876c4.14,-1.859 9.316,-0.922 11.553,2.092c0.316,0.425 0.556,0.869 0.724,1.323c3.919,1.212 6.691,3.344 7.242,5.83c0.373,0.161 0.727,0.368 1.055,0.62c1.821,1.398 2.419,3.862 1.791,6.357c0.437,0.141 0.819,0.391 1.105,0.748c0.952,1.192 0.478,3.138 -1.058,4.343c-1.305,1.024 -2.962,1.185 -4.014,0.477c-0.64,0.432 -1.314,0.77 -1.998,1.009c-0.092,0.092 -0.186,0.182 -0.284,0.27c-2.629,2.383 -6.508,2.76 -8.789,0.898c-0.027,0.008 -0.056,0.014 -0.083,0.022c-1.489,0.361 -2.969,0.098 -3.962,-0.594c-1.912,1.55 -5.174,2.571 -8.875,2.571c-3.337,0 -6.319,-0.831 -8.273,-2.131c-0.545,0.168 -1.137,0.261 -1.757,0.261c-1.84,0 -3.445,-0.817 -4.273,-2.023c-2.465,0.31 -5.058,0.21 -7.288,-0.378c-4.876,-1.284 -6.198,-4.41 -2.95,-6.975c0.155,-0.124 0.318,-0.242 0.487,-0.358c-0.426,-0.076 -0.817,-0.25 -1.137,-0.524c-1.083,-0.934 -0.921,-2.683 0.361,-3.906c1.089,-1.04 2.642,-1.366 3.749,-0.866c2.159,-1.775 5.029,-2.329 7.234,-1.175c0.387,0.203 0.736,0.449 1.042,0.73c0.437,-0.073 0.884,-0.138 1.341,-0.194c0.258,-1.569 1.969,-3.08 4.345,-3.657c0.755,-0.183 1.503,-0.254 2.208,-0.227c0.321,-0.342 0.744,-0.598 1.244,-0.72c1.123,-0.272 2.292,0.219 2.93,1.139c0.68,-0.401 1.437,-0.765 2.258,-1.086Z" style="fill:#dfe2e4;stroke:#6a737d;stroke-width:0.9px;"/><path d="M19.687,20.521c0.586,-1.804 4.111,-3.192 8.366,-3.192c4.665,0 8.45,1.668 8.45,3.724c0,0.269 -0.065,0.532 -0.189,0.786c1.238,1.615 -0.17,4.075 -3.559,5.871c-3.866,2.049 -8.858,2.465 -11.138,0.927c-0.328,-0.221 -0.581,-0.472 -0.765,-0.743c-0.404,0.05 -0.822,0.075 -1.251,0.075c-3.438,0 -6.227,-1.668 -6.227,-3.724c0,-2.056 2.789,-3.724 6.227,-3.724l0.086,0Z" style="fill:#efeff0;stroke:#6a737d;stroke-width:0.9px;"/><path d="M29.25,26.283c-2.38,0.986 -4.857,0.952 -6.154,-0.25c-0.244,-0.226 -0.433,-0.482 -0.57,-0.759c-0.3,0.051 -0.612,0.077 -0.93,0.077c-2.559,0 -4.635,-1.705 -4.635,-3.807c0,-2.101 2.076,-3.807 4.635,-3.807l0.063,0c0.437,-1.844 3.06,-3.263 6.226,-3.263c2.946,0 5.422,1.229 6.104,2.884c2.398,-0.992 4.893,-0.953 6.19,0.261c0.243,0.226 0.43,0.483 0.564,0.761c0.302,-0.05 0.613,-0.075 0.932,-0.075c2.558,0.012 4.624,1.726 4.612,3.827c-0.012,2.101 -2.098,3.799 -4.657,3.788l-0.063,0c-0.447,1.841 -3.078,3.251 -6.246,3.238c-2.925,-0.012 -5.378,-1.234 -6.071,-2.875Z" style="fill:#fafafa;stroke:#6a737d;stroke-width:0.9px;"/><path d="M41.366,26.802c-2.106,0.808 -4.297,0.78 -5.444,-0.205c-0.215,-0.185 -0.383,-0.395 -0.504,-0.622c-0.265,0.042 -0.541,0.063 -0.823,0.063c-2.262,0 -4.098,-1.397 -4.098,-3.119c0,-1.722 1.836,-3.12 4.098,-3.12l0.056,0c0.387,-1.511 2.706,-2.674 5.507,-2.674c2.607,0 4.795,1.008 5.399,2.364c2.121,-0.814 4.326,-0.782 5.475,0.213c0.215,0.185 0.38,0.396 0.498,0.623c0.267,-0.04 0.543,-0.061 0.824,-0.06c2.264,0.009 4.09,1.414 4.08,3.135c-0.01,1.722 -1.856,3.113 -4.119,3.104l-0.056,0c-0.396,1.509 -2.723,2.665 -5.524,2.654c-2.586,-0.01 -4.758,-1.011 -5.369,-2.356Z" style="fill:#bdbdc1;stroke:#6a737d;stroke-width:0.9px;"/><path d="M17.045,38.043l-0.028,-0.043l-0.007,0.138c-0.101,0.28 -0.196,0.564 -0.276,0.837l-0.057,-0.046l-0.314,0.387l-0.354,-0.071l0.142,0.332l-0.359,0.444l0.239,0.194l-1.031,0.276l1.105,0.424l-0.373,0.242l0.279,0.431l-0.138,0.247l0.282,-0.026l0.343,0.528l0.302,-0.196l-0.054,1.038l0.699,-0.864l0.115,0.43l0.574,-0.154l0.16,0.173l0.052,-0.23l0.573,-0.153l-0.115,-0.43l1.038,0.398l-0.567,-0.872l0.36,0.019l0.033,-0.628l0.257,-0.119l-0.243,-0.145l0.027,-0.512l-0.422,-0.022c-0,-0.009 -0.001,-0.018 -0.001,-0.028l0.723,-0.893l-0.836,0.224c-0.337,-1.402 -1.273,-3.373 -1.273,-3.373c-0,-0 -0.463,0.976 -0.855,2.043Zm0.747,3.663l0.371,0.573l0.036,-0.682l-0.127,0.034l-0.037,0.168l-0.117,-0.126l-0.126,0.033Zm-0.525,0.225l0.001,0.004l0.162,-0.143l0.279,0.107l0.073,-0.19l-0.157,0.042l-0.053,-0.197l-0.305,0.377Zm1.247,-0.498c-0.052,0.026 -0.107,0.049 -0.163,0.068l0.014,0.052l-0.157,0.042l0.159,0.128l0.188,-0.232l0.212,0.042l-0.002,-0.004l-0.251,-0.096Zm-1.528,0.002l-0.063,0.163l0.285,0.109l0.015,-0.293l-0.176,0.115l-0.061,-0.094Zm-0.217,-0.334l-0.397,0.49l0.609,-0.163l-0.098,-0.151l-0.167,0.015l0.082,-0.146l-0.029,-0.045Zm-0.343,-0.469l-0.004,0.002l0.146,0.087l-0.016,0.306l0.174,0.01l-0.097,-0.15l0.051,-0.033c-0.027,-0.049 -0.051,-0.1 -0.072,-0.152l-0.182,-0.07Zm2.76,0.085c-0.02,0.047 -0.042,0.094 -0.067,0.138l0.252,-0.067l-0.185,-0.071Zm-2.642,-0.932c0.004,-0.025 0.009,-0.051 0.013,-0.078l-0.084,-0.032l0.071,0.11Z" style="fill:#abb7d5;stroke:#41464d;stroke-width:0.13px;stroke-linecap:round;stroke-miterlimit:1.5;"/><path d="M50.138,32.746l0.008,-0.021l0.002,0.067c0.03,0.137 0.059,0.275 0.083,0.408l0.017,-0.022l0.094,0.189l0.106,-0.035l-0.043,0.162l0.108,0.216l-0.072,0.095l0.309,0.135l-0.331,0.206l0.112,0.118l-0.084,0.21l0.042,0.121l-0.085,-0.013l-0.103,0.257l-0.09,-0.095l0.016,0.506l-0.209,-0.421l-0.035,0.209l-0.172,-0.075l-0.047,0.085l-0.016,-0.112l-0.172,-0.075l0.035,-0.21l-0.311,0.194l0.17,-0.425l-0.108,0.009l-0.01,-0.306l-0.077,-0.058l0.073,-0.07l-0.008,-0.25l0.126,-0.011c0,-0.004 0,-0.009 0.001,-0.013l-0.217,-0.436l0.25,0.11c0.101,-0.684 0.382,-1.645 0.382,-1.645c-0,-0 0.138,0.476 0.256,0.996Zm-0.224,1.786l-0.111,0.279l-0.011,-0.332l0.038,0.016l0.011,0.082l0.035,-0.061l0.038,0.016Zm0.157,0.11l-0,0.002l-0.049,-0.07l-0.083,0.052l-0.022,-0.093l0.047,0.021l0.016,-0.096l0.091,0.184Zm-0.373,-0.243c0.015,0.013 0.032,0.024 0.048,0.033l-0.004,0.025l0.047,0.021l-0.047,0.062l-0.057,-0.113l-0.063,0.021l0.001,-0.002l0.075,-0.047Zm0.457,0.001l0.019,0.079l-0.085,0.053l-0.005,-0.142l0.053,0.056l0.018,-0.046Zm0.065,-0.163l0.119,0.239l-0.182,-0.08l0.029,-0.073l0.05,0.007l-0.024,-0.071l0.008,-0.022Zm0.103,-0.229l0.001,0.001l-0.044,0.043l0.005,0.149l-0.052,0.005l0.029,-0.073l-0.015,-0.017c0.008,-0.023 0.015,-0.048 0.021,-0.074l0.055,-0.034Zm-0.826,0.042c0.005,0.023 0.012,0.045 0.02,0.067l-0.076,-0.033l0.056,-0.034Zm0.791,-0.455c-0.002,-0.012 -0.003,-0.025 -0.004,-0.038l0.025,-0.015l-0.021,0.053Z" style="fill:#abb7d5;stroke:#41464d;stroke-width:0.05px;stroke-linecap:round;stroke-miterlimit:1.5;"/><path d="M38.753,48.079c0.21,-0.729 0.421,-1.329 0.421,-1.329c-0,0 0.376,1.074 0.626,2.094l0.149,0.078l-0.066,0.237l0.617,-0.228l-0.446,0.758l0.266,0.019l-0.016,0.422l0.146,0.119l-0.154,0.098l-0.02,0.517l-0.216,-0.015l0.34,0.718l-0.622,-0.328l0.069,0.354l-0.343,0.126l-0.031,0.189l-0.096,-0.142l-0.344,0.127l-0.069,-0.354l-0.418,0.711l0.032,-0.855l-0.181,0.162l-0.205,-0.435l-0.169,0.021l0.083,-0.203l-0.168,-0.355l0.224,-0.199l-0.662,-0.35l0.617,-0.227l-0.143,-0.16l0.215,-0.365l-0.085,-0.273l0.212,0.058l0.188,-0.32l0.052,0.058c0.044,-0.178 0.092,-0.358 0.141,-0.533l0.011,-0.289l0.045,0.094Zm0.649,3.219l-0.008,0.21l-0.085,-0.181c0.032,-0.007 0.063,-0.017 0.093,-0.029Zm-1.08,-0.357l0.115,-0.195c0.018,0.045 0.039,0.089 0.061,0.13l-0.176,0.065Zm1.694,-0.715l0.102,0.054l-0.108,0.04c0.003,-0.031 0.005,-0.062 0.006,-0.094Zm-1.599,-0.788l-0.035,-0.074l0.045,0.023c-0.003,0.017 -0.007,0.034 -0.01,0.051Z" style="fill:#abb7d5;stroke:#41464d;stroke-width:0.08px;stroke-linecap:round;stroke-miterlimit:1.5;"/><path d="M31.67,42.435c0.281,-0.885 0.561,-1.614 0.561,-1.614c0,-0 0.503,1.304 0.835,2.542l0.199,0.096l-0.088,0.287l0.823,-0.276l-0.595,0.92l0.355,0.023l-0.021,0.512l0.194,0.145l-0.205,0.119l-0.027,0.628l-0.287,-0.018l0.453,0.871l-0.829,-0.398l0.092,0.43l-0.458,0.153l-0.042,0.23l-0.127,-0.173l-0.459,0.154l-0.092,-0.43l-0.558,0.864l0.043,-1.038l-0.241,0.196l-0.274,-0.528l-0.225,0.026l0.11,-0.247l-0.222,-0.431l0.297,-0.242l-0.882,-0.424l0.823,-0.276l-0.191,-0.194l0.287,-0.444l-0.113,-0.331l0.282,0.07l0.251,-0.388l0.069,0.07c0.059,-0.216 0.123,-0.435 0.188,-0.647l0.015,-0.351l0.059,0.114Zm0.867,3.909l-0.011,0.255l-0.114,-0.22c0.042,-0.009 0.084,-0.02 0.125,-0.035Zm-1.441,-0.433l0.153,-0.237c0.025,0.055 0.052,0.108 0.082,0.158l-0.235,0.079Zm2.258,-0.868l0.137,0.065l-0.144,0.048c0.004,-0.037 0.006,-0.075 0.007,-0.113Zm-2.131,-0.958l-0.047,-0.09l0.06,0.029c-0.005,0.02 -0.009,0.041 -0.013,0.061Z" style="fill:#abb7d5;stroke:#41464d;stroke-width:0.11px;stroke-linecap:round;stroke-miterlimit:1.5;"/><path d="M44.365,43c0,-0 0.289,1.112 0.471,2.141l0.054,-0.072l0.008,0.448c0.014,0.093 0.026,0.183 0.037,0.271l0.186,-0.131l0.235,0.292l0.214,-0.033l-0.093,0.184l0.241,0.301l-0.211,0.149l0.743,0.214l-0.746,0.24l0.228,0.15l-0.228,0.303l0.096,0.175l-0.207,-0.025l-0.232,0.309l-0.223,-0.147l0.012,0.731l-0.468,-0.584l-0.081,0.244l-0.385,-0.11l-0.148,0.139l-0.038,-0.193l-0.378,-0.109l0.082,-0.25l-0.747,0.241l0.447,-0.597l-0.265,0.004l-0.006,-0.376l-0.195,-0.092l0.191,-0.098l-0.006,-0.364l0.273,-0.005l-0.476,-0.593l0.75,0.216l-0.086,-0.235l0.372,-0.12l0.034,-0.205l0.025,0.022c0.174,-1.098 0.52,-2.435 0.52,-2.435Zm-0.14,4.511c-0.029,-0.012 -0.056,-0.028 -0.083,-0.048l-0.066,0.064l-0.021,-0.104l-0.072,-0.021l0.008,0.422l0.234,-0.313Zm0.272,0.004l0.018,0.022l-0.2,0.065l-0.025,-0.069c0.024,0.005 0.05,0.008 0.075,0.008c0.046,0 0.09,-0.009 0.132,-0.026Zm0.669,-0.693l-0.242,0.078l0.119,0.081l-0.117,0.162l0.051,0.094l-0.108,-0.015l-0.119,0.165l-0.048,-0.032c-0.021,0.026 -0.044,0.05 -0.067,0.071l0.005,0.175l0.018,-0.11l0.224,-0.072l-0.052,-0.141l0.454,0.13l-0.287,-0.359l0.164,-0.002l-0.004,-0.221l0.009,-0.004Zm-1.209,0.572l-0.101,-0.031l0.041,-0.133l-0.197,0.063l0.009,-0.001l0.142,0.176l0.106,-0.074Zm-0.467,-0.375l0.138,0.171l0.111,-0.153l-0.138,0.001l-0.003,-0.095l-0.108,0.076Zm-0.321,-0.219l0.429,0.123l-0.003,-0.086l-0.102,-0.051l0.1,-0.051l-0.002,-0.071l-0.422,0.136Zm0.533,-0.021l0.078,-0.025c0.003,0.018 0.007,0.035 0.01,0.052l-0.088,-0.027Zm1.274,-0.561c0.004,0.063 0.005,0.122 0.005,0.178c0,0.038 -0.001,0.076 -0.003,0.114l0.054,0.068l-0.063,0.045c-0.002,0.016 -0.003,0.031 -0.005,0.046l0.285,0.087l-0.094,-0.044l-0.003,-0.227l-0.161,0.002l0.27,-0.361l-0.285,0.092Zm-1.494,0.346l0.108,0.07l-0.003,-0.095l0.143,-0l-0.117,-0.149l-0.131,0.174Zm0.21,-0.281l0.064,-0.084c-0.003,0.035 -0.004,0.069 -0.005,0.102l-0.059,-0.018Z" style="fill:#abb7d5;stroke:#41464d;stroke-width:0.07px;stroke-linecap:round;stroke-miterlimit:1.5;"/><path d="M36.403,40.06c0.203,-1.074 0.611,-2.384 0.611,-2.384c-0,0 0.487,1.563 0.661,2.674l0.122,0.02l-0.046,0.266l0.691,-0.355l-0.356,0.689l0.254,-0.04l0.053,0.383l0.203,0.07l-0.175,0.131l0.054,0.383l-0.255,0.041l0.53,0.548l-0.757,-0.122l0.116,0.24l-0.339,0.174l-0.006,0.215l-0.171,-0.124l-0.349,0.18l-0.113,-0.233l-0.354,0.684l-0.107,-0.769l-0.194,0.194l-0.267,-0.276l-0.195,0.062l0.064,-0.198l-0.272,-0.281l0.19,-0.19l-0.746,-0.12l0.681,-0.35l-0.235,-0.122l0.183,-0.354l-0.115,-0.169l0.204,-0.002l0.18,-0.348l0.163,0.085c0.008,-0.083 0.02,-0.17 0.033,-0.26l-0.065,-0.47l0.124,0.128Zm1.201,2.575l-0.303,-0.313l0.08,-0.04l0.092,0.064l0.003,-0.112l0.067,-0.033l0.061,0.434Zm-0.344,-0.172l-0.219,-0.035l0.092,-0.172l0.06,0.12l0.089,-0.044l-0.022,0.131Zm-0.571,-0.241l-0.393,0.202l0.203,-0.392l0.069,0.069l-0.035,0.103l0.105,-0.033l0.051,0.051Zm0.019,0.019l0.073,0.073l0.104,-0.101l0.029,0.203l-0.003,-0.009l-0.225,-0.036l0.022,-0.13Zm0.975,0.004l-0.112,-0.058l0.088,-0.045l-0.062,-0.125l0.189,0.029l-0.103,0.199Zm-0.313,-0.211c-0.019,0.018 -0.039,0.035 -0.059,0.05l0.077,0.076l-0.018,-0.126Zm-0.858,-0.18l-0.182,-0.028l0.029,0.206l0.121,-0.019l-0.058,-0.058l0.095,-0.092c-0.002,-0.003 -0.004,-0.006 -0.005,-0.009Zm1.337,0.07l-0.129,-0.129l0.137,-0.022l-0.016,-0.115l0.115,0.06l-0.107,0.206Zm-0.312,-0.105c-0.005,0.009 -0.011,0.019 -0.016,0.028l0.035,-0.001l-0.019,-0.027Zm-1.195,-0.382l-0.065,0.011l0.032,0.231l-0.093,0.07l0.194,-0.098c-0.013,-0.032 -0.025,-0.065 -0.036,-0.099l-0.009,-0.004l0.005,-0.009c-0.01,-0.033 -0.02,-0.067 -0.028,-0.102Zm1.458,-0.073l0.425,0.068l-0.388,0.2l-0.008,-0.058l0.095,-0.069l-0.109,-0.036l-0.015,-0.105Zm-0.137,0.158c-0.005,0.017 -0.01,0.033 -0.015,0.049l0.077,-0.039l-0.062,-0.01Zm0.069,-0.383c-0.004,0.048 -0.009,0.096 -0.016,0.142l0.071,-0.012l0.009,0.069l0.093,-0.093l-0.137,-0.143l-0.02,0.037Zm-1.417,0.165c-0.01,-0.059 -0.016,-0.12 -0.02,-0.182l-0.184,-0.03l0.204,0.212Zm1.422,-0.34c0,0.007 0,0.014 0,0.02l0.021,-0.01l0.006,-0.018l-0.027,0.008Z" style="fill:#abb7d5;stroke:#41464d;stroke-width:0.11px;"/><path d="M25.5,48.458c-0,0 0.446,1.837 0.728,3.536l0.084,-0.119l0.012,0.74c0.022,0.153 0.041,0.303 0.058,0.448l0.288,-0.216l0.363,0.482l0.332,-0.054l-0.144,0.304l0.373,0.497l-0.327,0.246l1.15,0.353l-1.155,0.396l0.353,0.248l-0.352,0.501l0.148,0.288l-0.321,-0.041l-0.358,0.51l-0.346,-0.243l0.019,1.208l-0.725,-0.965l-0.124,0.404l-0.596,-0.183l-0.229,0.23l-0.06,-0.319l-0.584,-0.18l0.126,-0.412l-1.156,0.397l0.692,-0.985l-0.41,0.006l-0.01,-0.62l-0.301,-0.152l0.296,-0.162l-0.01,-0.602l0.422,-0.007l-0.736,-0.98l1.161,0.356l-0.133,-0.387l0.575,-0.198l0.053,-0.34l0.039,0.037c0.269,-1.814 0.805,-4.022 0.805,-4.022Zm-0.217,7.451c-0.045,-0.021 -0.087,-0.047 -0.129,-0.08l-0.102,0.106l-0.033,-0.171l-0.11,-0.036l0.011,0.697l0.363,-0.516Zm0.422,0.006l0.027,0.037l-0.31,0.107l-0.039,-0.115c0.038,0.009 0.077,0.014 0.117,0.014c0.07,0 0.139,-0.015 0.205,-0.043Zm1.034,-1.144l-0.375,0.129l0.185,0.134l-0.181,0.267l0.079,0.155l-0.168,-0.024l-0.184,0.272l-0.074,-0.054c-0.033,0.044 -0.068,0.083 -0.104,0.118l0.008,0.289l0.028,-0.181l0.347,-0.119l-0.08,-0.234l0.702,0.215l-0.445,-0.592l0.255,-0.004l-0.006,-0.364l0.013,-0.007Zm-1.871,0.944l-0.156,-0.051l0.064,-0.22l-0.306,0.105l0.015,-0.002l0.219,0.291l0.164,-0.123Zm-0.722,-0.619l0.213,0.283l0.171,-0.253l-0.213,0.002l-0.004,-0.158l-0.167,0.126Zm-0.497,-0.362l0.663,0.203l-0.004,-0.142l-0.158,-0.083l0.154,-0.085l-0.003,-0.117l-0.652,0.224Zm0.825,-0.034l0.12,-0.042c0.005,0.029 0.01,0.058 0.016,0.086l-0.136,-0.044Zm1.971,-0.926c0.006,0.103 0.008,0.201 0.008,0.292c0,0.064 -0.001,0.127 -0.004,0.189l0.083,0.113l-0.097,0.074c-0.003,0.026 -0.006,0.051 -0.009,0.076l0.441,0.143l-0.144,-0.072l-0.006,-0.375l-0.248,0.004l0.418,-0.596l-0.442,0.152Zm-2.312,0.57l0.167,0.117l-0.005,-0.157l0.221,-0.001l-0.181,-0.246l-0.202,0.287Zm0.325,-0.463l0.098,-0.14c-0.003,0.058 -0.005,0.115 -0.007,0.169l-0.091,-0.029Z" style="fill:#abb7d5;stroke:#41464d;stroke-width:0.11px;stroke-linecap:round;stroke-miterlimit:1.5;"/><path d="M31.992,57.065c0.351,-1.904 1.056,-4.227 1.056,-4.227c0,0 0.841,2.771 1.143,4.74l0.211,0.035l-0.08,0.472l1.194,-0.63l-0.616,1.223l0.439,-0.072l0.092,0.679l0.351,0.125l-0.302,0.232l0.092,0.679l-0.439,0.072l0.915,0.971l-1.308,-0.216l0.201,0.425l-0.586,0.309l-0.011,0.381l-0.295,-0.22l-0.604,0.319l-0.195,-0.412l-0.611,1.212l-0.185,-1.364l-0.336,0.345l-0.461,-0.489l-0.337,0.109l0.11,-0.35l-0.47,-0.498l0.329,-0.337l-1.289,-0.213l1.176,-0.62l-0.405,-0.217l0.316,-0.628l-0.198,-0.299l0.351,-0.004l0.311,-0.617l0.282,0.151c0.015,-0.146 0.034,-0.301 0.058,-0.461l-0.113,-0.832l0.214,0.227Zm2.075,4.563l-0.523,-0.554l0.139,-0.071l0.158,0.113l0.006,-0.198l0.115,-0.059l0.105,0.769Zm-0.594,-0.304l-0.378,-0.063l0.159,-0.305l0.104,0.214l0.154,-0.079l-0.039,0.233Zm-0.986,-0.427l-0.679,0.358l0.351,-0.695l0.118,0.122l-0.06,0.182l0.182,-0.057l0.088,0.09Zm0.033,0.034l0.125,0.129l0.181,-0.18l0.049,0.361l-0.005,-0.017l-0.388,-0.064l0.038,-0.229Zm1.684,0.007l-0.194,-0.104l0.153,-0.079l-0.107,-0.221l0.326,0.051l-0.178,0.353Zm-0.541,-0.374c-0.033,0.031 -0.067,0.061 -0.101,0.087l0.132,0.136l-0.031,-0.223Zm-1.483,-0.321l-0.314,-0.049l0.05,0.366l0.209,-0.034l-0.099,-0.102l0.164,-0.164c-0.003,-0.006 -0.007,-0.011 -0.01,-0.017Zm2.311,0.126l-0.222,-0.229l0.236,-0.039l-0.027,-0.204l0.198,0.106l-0.185,0.366Zm-0.539,-0.187c-0.009,0.017 -0.019,0.033 -0.028,0.049l0.061,-0.001l-0.033,-0.048Zm-2.065,-0.677l-0.113,0.019l0.056,0.41l-0.161,0.124l0.335,-0.173c-0.022,-0.057 -0.043,-0.115 -0.062,-0.176l-0.015,-0.008l0.008,-0.016c-0.018,-0.058 -0.034,-0.118 -0.048,-0.18Zm2.52,-0.129l0.734,0.121l-0.67,0.354l-0.014,-0.103l0.163,-0.122l-0.188,-0.064l-0.025,-0.186Zm-0.238,0.28c-0.008,0.029 -0.017,0.058 -0.026,0.086l0.133,-0.069l-0.107,-0.017Zm0.12,-0.679c-0.006,0.086 -0.015,0.169 -0.027,0.251l0.122,-0.02l0.016,0.122l0.161,-0.165l-0.238,-0.253l-0.034,0.065Zm-2.449,0.291c-0.016,-0.104 -0.028,-0.212 -0.035,-0.322l-0.318,-0.052l0.353,0.374Zm2.458,-0.601c-0,0.012 -0,0.024 -0,0.036l0.036,-0.019l0.01,-0.032l-0.046,0.015Z" style="fill:#abb7d5;stroke:#41464d;stroke-width:0.11px;"/><path d="M43.563,32.392c-0,0 -0.257,0.831 -0.419,1.599l-0.048,-0.054l-0.007,0.335c-0.012,0.069 -0.024,0.137 -0.033,0.203l-0.166,-0.098l-0.208,0.218l-0.191,-0.025l0.083,0.138l-0.215,0.225l0.188,0.111l-0.661,0.159l0.664,0.18l-0.203,0.112l0.202,0.226l-0.085,0.131l0.185,-0.019l0.206,0.231l0.199,-0.11l-0.011,0.546l0.416,-0.436l0.072,0.182l0.342,-0.082l0.132,0.104l0.034,-0.145l0.336,-0.081l-0.072,-0.186l0.664,0.179l-0.398,-0.445l0.236,0.002l0.006,-0.28l0.173,-0.069l-0.17,-0.073l0.006,-0.272l-0.243,-0.003l0.423,-0.444l-0.667,0.161l0.076,-0.175l-0.33,-0.089l-0.031,-0.154l-0.023,0.017c-0.154,-0.82 -0.462,-1.819 -0.462,-1.819Zm0.125,3.369c0.025,-0.009 0.05,-0.021 0.074,-0.035l0.058,0.047l0.019,-0.077l0.064,-0.016l-0.007,0.315l-0.208,-0.234Zm-0.243,0.003l-0.015,0.017l0.178,0.048l0.022,-0.052c-0.022,0.005 -0.044,0.007 -0.067,0.007c-0.04,-0 -0.08,-0.007 -0.118,-0.02Zm-0.594,-0.517l0.215,0.058l-0.106,0.061l0.104,0.121l-0.045,0.07l0.096,-0.011l0.106,0.123l0.042,-0.024c0.019,0.019 0.039,0.037 0.06,0.053l-0.004,0.13l-0.016,-0.081l-0.2,-0.054l0.046,-0.106l-0.404,0.097l0.256,-0.268l-0.146,-0.001l0.003,-0.165l-0.007,-0.003Zm1.075,0.427l0.09,-0.023l-0.037,-0.1l0.176,0.048l-0.009,-0.001l-0.126,0.131l-0.094,-0.055Zm0.415,-0.28l-0.122,0.128l-0.098,-0.115l0.122,0.001l0.002,-0.071l0.096,0.057Zm0.286,-0.164l-0.381,0.092l0.002,-0.064l0.091,-0.038l-0.089,-0.038l0.002,-0.053l0.375,0.101Zm-0.474,-0.015l-0.069,-0.019c-0.003,0.013 -0.006,0.026 -0.009,0.039l0.078,-0.02Zm-1.134,-0.419c-0.003,0.047 -0.004,0.091 -0.004,0.132c-0,0.029 0.001,0.058 0.003,0.086l-0.048,0.051l0.056,0.033c0.001,0.012 0.003,0.023 0.005,0.035l-0.254,0.064l0.083,-0.032l0.003,-0.17l0.143,0.002l-0.24,-0.27l0.253,0.069Zm1.33,0.258l-0.096,0.053l0.003,-0.071l-0.127,-0.001l0.104,-0.111l0.116,0.13Zm-0.187,-0.21l-0.057,-0.063c0.002,0.027 0.004,0.052 0.005,0.077l0.052,-0.014Z" style="fill:#abb7d5;stroke:#41464d;stroke-width:0.06px;stroke-linecap:round;stroke-miterlimit:1.5;"/><path d="M14.653,34.589c0.203,-1.166 0.611,-2.589 0.611,-2.589c-0,0 0.487,1.697 0.661,2.904l0.122,0.021l-0.046,0.289l0.691,-0.386l-0.356,0.749l0.254,-0.044l0.053,0.416l0.203,0.077l-0.175,0.142l0.054,0.416l-0.255,0.044l0.53,0.595l-0.757,-0.133l0.116,0.261l-0.339,0.189l-0.006,0.233l-0.171,-0.134l-0.349,0.195l-0.113,-0.252l-0.354,0.742l-0.107,-0.836l-0.194,0.212l-0.267,-0.3l-0.195,0.067l0.064,-0.214l-0.272,-0.305l0.19,-0.207l-0.746,-0.13l0.681,-0.38l-0.235,-0.133l0.183,-0.385l-0.115,-0.183l0.204,-0.002l0.18,-0.378l0.163,0.092c0.008,-0.089 0.02,-0.184 0.033,-0.282l-0.065,-0.51l0.124,0.139Zm1.201,2.795l-0.303,-0.339l0.08,-0.044l0.092,0.07l0.003,-0.122l0.067,-0.036l0.061,0.471Zm-0.344,-0.186l-0.219,-0.038l0.092,-0.187l0.06,0.131l0.089,-0.049l-0.022,0.143Zm-0.571,-0.261l-0.393,0.219l0.203,-0.426l0.069,0.075l-0.035,0.111l0.105,-0.035l0.051,0.056Zm0.019,0.02l0.073,0.079l0.104,-0.11l0.029,0.221l-0.003,-0.01l-0.225,-0.039l0.022,-0.141Zm0.975,0.005l-0.112,-0.064l0.088,-0.048l-0.062,-0.136l0.189,0.031l-0.103,0.217Zm-0.313,-0.23c-0.019,0.02 -0.039,0.038 -0.059,0.054l0.077,0.083l-0.018,-0.137Zm-0.858,-0.196l-0.182,-0.03l0.029,0.224l0.121,-0.021l-0.058,-0.062l0.095,-0.101c-0.002,-0.003 -0.004,-0.006 -0.005,-0.01Zm1.337,0.077l-0.129,-0.14l0.137,-0.024l-0.016,-0.125l0.115,0.065l-0.107,0.224Zm-0.312,-0.115c-0.005,0.011 -0.011,0.021 -0.016,0.031l0.035,-0.001l-0.019,-0.03Zm-1.195,-0.414l-0.065,0.012l0.032,0.251l-0.093,0.076l0.194,-0.106c-0.013,-0.035 -0.025,-0.071 -0.036,-0.108l-0.009,-0.005l0.005,-0.01c-0.01,-0.035 -0.02,-0.072 -0.028,-0.11Zm1.458,-0.079l0.425,0.074l-0.388,0.217l-0.008,-0.063l0.095,-0.075l-0.109,-0.039l-0.015,-0.114Zm-0.137,0.172c-0.005,0.017 -0.01,0.035 -0.015,0.052l0.077,-0.042l-0.062,-0.01Zm0.069,-0.416c-0.004,0.052 -0.009,0.103 -0.016,0.153l0.071,-0.012l0.009,0.075l0.093,-0.101l-0.137,-0.155l-0.02,0.04Zm-1.417,0.178c-0.01,-0.064 -0.016,-0.13 -0.02,-0.197l-0.184,-0.032l0.204,0.229Zm1.422,-0.368c0,0.007 0,0.014 0,0.021l0.021,-0.011l0.006,-0.02l-0.027,0.01Z" style="fill:#abb7d5;stroke:#41464d;stroke-width:0.11px;"/><path d="M23.081,39.121l0.014,-0.021l0.004,0.069c0.055,0.141 0.106,0.285 0.148,0.422l0.031,-0.023l0.169,0.195l0.19,-0.035l-0.077,0.167l0.193,0.224l-0.128,0.098l0.554,0.139l-0.594,0.214l0.2,0.122l-0.149,0.218l0.074,0.124l-0.152,-0.013l-0.184,0.266l-0.162,-0.099l0.029,0.524l-0.375,-0.436l-0.062,0.217l-0.308,-0.077l-0.086,0.087l-0.028,-0.116l-0.308,-0.077l0.062,-0.217l-0.558,0.2l0.305,-0.439l-0.194,0.009l-0.017,-0.317l-0.138,-0.06l0.13,-0.073l-0.014,-0.258l0.226,-0.011c0,-0.005 0.001,-0.009 0.001,-0.014l-0.388,-0.451l0.449,0.113c0.18,-0.707 0.683,-1.701 0.683,-1.701c0,-0 0.249,0.492 0.46,1.03Zm-0.402,1.848l-0.199,0.289l-0.019,-0.344l0.068,0.017l0.02,0.085l0.063,-0.064l0.067,0.017Zm0.282,0.114l-0,0.002l-0.087,-0.073l-0.15,0.054l-0.039,-0.095l0.084,0.021l0.028,-0.1l0.164,0.191Zm-0.67,-0.252c0.029,0.014 0.058,0.025 0.088,0.035l-0.008,0.026l0.085,0.021l-0.086,0.065l-0.101,-0.117l-0.113,0.021l0.001,-0.002l0.134,-0.049Zm0.821,0.001l0.034,0.083l-0.153,0.055l-0.008,-0.148l0.094,0.058l0.033,-0.048Zm0.117,-0.168l0.213,0.247l-0.327,-0.082l0.052,-0.076l0.09,0.007l-0.044,-0.073l0.016,-0.023Zm0.184,-0.237l0.002,0.001l-0.079,0.044l0.009,0.155l-0.093,0.005l0.052,-0.076l-0.028,-0.017c0.015,-0.024 0.028,-0.05 0.039,-0.076l0.098,-0.036Zm-1.482,0.043c0.01,0.024 0.022,0.047 0.036,0.07l-0.136,-0.034l0.1,-0.036Zm1.418,-0.47c-0.002,-0.013 -0.004,-0.026 -0.007,-0.039l0.045,-0.016l-0.038,0.055Z" style="fill:#abb7d5;stroke:#41464d;stroke-width:0.07px;stroke-linecap:round;stroke-miterlimit:1.5;"/><path d="M21.127,44.21c-0.151,-0.313 -0.302,-0.57 -0.302,-0.57c-0,-0 -0.271,0.46 -0.45,0.898l-0.107,0.034l0.047,0.101l-0.442,-0.097l0.32,0.325l-0.191,0.008l0.011,0.181l-0.104,0.051l0.11,0.042l0.014,0.222l0.155,-0.006l-0.243,0.308l0.446,-0.141l-0.05,0.152l0.247,0.054l0.022,0.081l0.069,-0.061l0.246,0.055l0.05,-0.152l0.3,0.305l-0.023,-0.367l0.13,0.069l0.147,-0.186l0.121,0.009l-0.059,-0.087l0.12,-0.153l-0.16,-0.085l0.475,-0.15l-0.443,-0.097l0.102,-0.069l-0.154,-0.157l0.061,-0.117l-0.152,0.025l-0.135,-0.137l-0.037,0.025c-0.032,-0.077 -0.066,-0.154 -0.101,-0.229l-0.008,-0.124l-0.032,0.04Zm-0.467,1.382l0.006,0.09l0.062,-0.078c-0.023,-0.003 -0.046,-0.007 -0.068,-0.012Zm0.776,-0.154l-0.083,-0.083c-0.013,0.019 -0.028,0.038 -0.044,0.056l0.127,0.027Zm-1.216,-0.306l-0.073,0.023l0.077,0.017c-0.002,-0.014 -0.003,-0.027 -0.004,-0.04Zm1.147,-0.339l0.026,-0.032l-0.032,0.01c0.002,0.008 0.004,0.015 0.006,0.022Z" style="fill:#abb7d5;stroke:#41464d;stroke-width:0.04px;stroke-linecap:round;stroke-miterlimit:1.5;"/><path d="M26.508,38.306c-0.109,-0.588 -0.328,-1.306 -0.328,-1.306c0,0 -0.261,0.856 -0.355,1.465l-0.066,0.011l0.025,0.145l-0.371,-0.194l0.191,0.378l-0.136,-0.023l-0.029,0.21l-0.109,0.039l0.094,0.071l-0.028,0.21l0.136,0.023l-0.284,0.3l0.406,-0.067l-0.062,0.131l0.182,0.096l0.003,0.117l0.092,-0.068l0.188,0.099l0.06,-0.127l0.19,0.374l0.058,-0.421l0.104,0.106l0.143,-0.151l0.105,0.034l-0.034,-0.108l0.146,-0.154l-0.102,-0.104l0.4,-0.066l-0.365,-0.192l0.126,-0.067l-0.099,-0.194l0.062,-0.092l-0.109,-0.001l-0.097,-0.191l-0.087,0.047c-0.005,-0.046 -0.011,-0.093 -0.018,-0.143l0.035,-0.257l-0.067,0.07Zm-0.645,1.41l0.163,-0.171l-0.043,-0.022l-0.049,0.035l-0.002,-0.061l-0.036,-0.018l-0.033,0.237Zm0.185,-0.094l0.117,-0.019l-0.049,-0.094l-0.032,0.066l-0.048,-0.025l0.012,0.072Zm0.306,-0.132l0.211,0.111l-0.109,-0.215l-0.036,0.038l0.018,0.056l-0.056,-0.018l-0.028,0.028Zm-0.01,0.011l-0.039,0.04l-0.056,-0.056l-0.015,0.112l0.001,-0.006l0.121,-0.019l-0.012,-0.071Zm-0.523,0.002l0.06,-0.032l-0.047,-0.025l0.033,-0.068l-0.102,0.016l0.056,0.109Zm0.168,-0.116c0.01,0.01 0.021,0.019 0.031,0.027l-0.041,0.042l0.01,-0.069Zm0.461,-0.099l0.097,-0.015l-0.015,0.113l-0.065,-0.01l0.031,-0.032l-0.051,-0.051c0.001,-0.001 0.002,-0.003 0.003,-0.005Zm-0.718,0.039l0.069,-0.071l-0.074,-0.012l0.009,-0.063l-0.062,0.033l0.058,0.113Zm0.167,-0.058c0.003,0.005 0.006,0.011 0.009,0.016l-0.019,-0.001l0.01,-0.015Zm0.642,-0.209l0.035,0.006l-0.017,0.127l0.05,0.038l-0.105,-0.053c0.007,-0.018 0.014,-0.036 0.02,-0.055l0.004,-0.002l-0.002,-0.005c0.005,-0.018 0.01,-0.037 0.015,-0.056Zm-0.783,-0.04l-0.228,0.038l0.208,0.109l0.004,-0.032l-0.051,-0.037l0.059,-0.02l0.008,-0.058Zm0.074,0.087c0.002,0.009 0.005,0.018 0.008,0.026l-0.042,-0.021l0.034,-0.005Zm-0.038,-0.21c0.002,0.026 0.005,0.052 0.009,0.078l-0.038,-0.007l-0.005,0.038l-0.05,-0.051l0.074,-0.078l0.01,0.02Zm0.761,0.09c0.005,-0.032 0.009,-0.065 0.011,-0.099l0.099,-0.017l-0.11,0.116Zm-0.763,-0.186c-0,0.004 -0,0.008 -0,0.011l-0.012,-0.006l-0.003,-0.009l0.015,0.004Z" style="fill:#abb7d5;stroke:#41464d;stroke-width:0.11px;"/><path d="M50.727,38.5c0,-0 0.283,0.682 0.525,1.434l0.008,-0.013l-0.002,0.034c0.077,0.239 0.149,0.484 0.207,0.716l0.1,0.198l0.165,-0.02l-0.081,0.187l0.167,0.328l-0.17,0.142l0.555,0.273l-0.582,0.2l0.165,0.171l-0.19,0.301l0.063,0.188l-0.157,-0.04l-0.194,0.307l-0.162,-0.169l-0.031,0.763l-0.324,-0.641l-0.075,0.25l-0.287,-0.141l-0.12,0.135l-0.019,-0.204l-0.282,-0.138l0.076,-0.255l-0.582,0.2l0.374,-0.592l-0.202,-0.013l0.016,-0.392l-0.143,-0.109l0.151,-0.089l0.016,-0.381l0.181,0.012c0.002,-0.012 0.004,-0.025 0.006,-0.038l-0.309,-0.61l0.396,0.194c0.238,-0.972 0.741,-2.188 0.741,-2.188Zm-0.322,4.236l0.013,-0.32c0.05,0.023 0.103,0.04 0.157,0.051l-0.17,0.269Zm0.456,-0.265l0.04,0.08l-0.056,-0.077c0.006,-0.001 0.011,-0.002 0.016,-0.003Zm-0.058,0.008l-0.138,0.047l-0.01,-0.047c0.024,0.003 0.048,0.004 0.072,0.004c0.026,-0 0.051,-0.001 0.076,-0.004Zm0.518,-0.272l0.093,0.183l-0.188,-0.092c0.034,-0.028 0.066,-0.058 0.095,-0.091Zm-1.485,-0.593l0.034,-0.012c0.001,0.01 0.003,0.02 0.004,0.03l-0.038,-0.018Z" style="fill:#abb7d5;stroke:#41464d;stroke-width:0.16px;"/><path d="M27.349,35.193c0.255,-0.708 0.629,-1.443 0.629,-1.443c0,0 0.381,0.748 0.636,1.461l0.133,-0.058l-0.024,0.154l0.263,0.173l-0.133,0.168l0.647,0.002l-0.513,0.338l0.207,0.062l-0.1,0.283l0.125,0.117l-0.175,0.027l-0.098,0.275l-0.213,-0.064l0.205,0.562l-0.523,-0.346l0.001,0.197l-0.322,-0.001l-0.083,0.146l-0.086,-0.147l-0.322,-0.001l-0.002,-0.196l-0.517,0.341l0.196,-0.56l-0.212,0.062l-0.1,-0.276l-0.176,-0.029l0.123,-0.115l-0.104,-0.285l0.207,-0.059l-0.518,-0.343l0.647,0.003l-0.136,-0.168l0.261,-0.172l-0.025,-0.154l0.102,0.046Zm0.7,1.627l-0.049,0.14l-0.05,-0.138c0.01,0 0.019,0.001 0.028,0.001c0.024,-0 0.048,-0.001 0.071,-0.003Zm0.769,-0.511l0.085,0.057l-0.105,-0.001c0.008,-0.018 0.014,-0.037 0.02,-0.056Zm-1.728,0.049l0.052,-0.034c0.004,0.011 0.008,0.023 0.013,0.034l-0.065,-0Z" style="fill:#abb7d5;stroke:#41464d;stroke-width:0.13px;"/><path d="M45.358,50.168l-0.016,-0.036l-0.004,0.117c-0.056,0.236 -0.108,0.475 -0.152,0.706l-0.032,-0.039l-0.174,0.326l-0.196,-0.06l0.079,0.28l-0.199,0.375l0.132,0.163l-0.571,0.233l0.612,0.358l-0.206,0.204l0.154,0.363l-0.076,0.209l0.156,-0.022l0.19,0.445l0.167,-0.165l-0.03,0.875l0.388,-0.729l0.063,0.363l0.318,-0.13l0.089,0.146l0.029,-0.194l0.317,-0.129l-0.064,-0.363l0.575,0.336l-0.314,-0.735l0.2,0.016l0.018,-0.53l0.142,-0.1l-0.134,-0.123l0.015,-0.431l-0.234,-0.019c-0,-0.008 -0,-0.016 -0.001,-0.023l0.401,-0.754l-0.463,0.189c-0.187,-1.182 -0.705,-2.845 -0.705,-2.845c-0,0 -0.257,0.823 -0.474,1.723Zm0.414,3.09l0.205,0.483l0.02,-0.575l-0.07,0.028l-0.021,0.142l-0.064,-0.106l-0.07,0.028Zm-0.291,0.189l0,0.004l0.09,-0.121l0.155,0.09l0.04,-0.16l-0.087,0.036l-0.029,-0.166l-0.169,0.317Zm0.691,-0.419c-0.029,0.022 -0.059,0.041 -0.091,0.057l0.008,0.044l-0.087,0.035l0.088,0.108l0.104,-0.196l0.118,0.036l-0.001,-0.004l-0.139,-0.08Zm-0.847,0.001l-0.035,0.138l0.158,0.092l0.009,-0.248l-0.098,0.097l-0.034,-0.079Zm-0.12,-0.282l-0.22,0.414l0.337,-0.138l-0.054,-0.127l-0.092,0.013l0.045,-0.124l-0.016,-0.038Zm-0.19,-0.395l-0.002,0.002l0.081,0.073l-0.009,0.258l0.096,0.008l-0.054,-0.126l0.029,-0.028c-0.015,-0.041 -0.028,-0.084 -0.04,-0.128l-0.101,-0.059Zm1.529,0.072c-0.011,0.04 -0.023,0.079 -0.037,0.116l0.14,-0.057l-0.103,-0.059Zm-1.463,-0.786c0.002,-0.022 0.004,-0.044 0.007,-0.066l-0.047,-0.027l0.04,0.093Z" style="fill:#abb7d5;stroke:#41464d;stroke-width:0.15px;stroke-linecap:round;stroke-miterlimit:1.5;"/><path d="M17.344,52.723l0.022,-0.036l0.006,0.116c0.08,0.236 0.155,0.476 0.218,0.706l0.045,-0.039l0.248,0.327l0.28,-0.06l-0.112,0.28l0.284,0.374l-0.189,0.164l0.815,0.233l-0.874,0.357l0.295,0.204l-0.22,0.364l0.109,0.208l-0.223,-0.022l-0.271,0.445l-0.239,-0.165l0.042,0.876l-0.552,-0.729l-0.091,0.363l-0.454,-0.13l-0.127,0.146l-0.041,-0.194l-0.453,-0.129l0.091,-0.363l-0.821,0.336l0.448,-0.736l-0.284,0.016l-0.026,-0.529l-0.204,-0.101l0.193,-0.122l-0.022,-0.432l0.334,-0.018c0,-0.008 0.001,-0.016 0.001,-0.024l-0.572,-0.753l0.661,0.189c0.266,-1.182 1.007,-2.845 1.007,-2.845c-0,0 0.366,0.823 0.676,1.723Zm-0.591,3.089l-0.293,0.484l-0.029,-0.576l0.101,0.029l0.029,0.142l0.093,-0.107l0.099,0.028Zm0.415,0.19l-0,0.003l-0.128,-0.12l-0.221,0.09l-0.058,-0.16l0.124,0.035l0.042,-0.166l0.241,0.318Zm-0.986,-0.42c0.042,0.022 0.085,0.041 0.129,0.058l-0.011,0.043l0.124,0.036l-0.125,0.108l-0.149,-0.196l-0.168,0.035l0.002,-0.003l0.198,-0.081Zm1.209,0.002l0.049,0.137l-0.225,0.092l-0.012,-0.247l0.139,0.097l0.049,-0.079Zm0.171,-0.282l0.314,0.413l-0.481,-0.137l0.077,-0.128l0.132,0.013l-0.065,-0.123l0.023,-0.038Zm0.272,-0.395l0.003,0.001l-0.116,0.074l0.013,0.258l-0.138,0.008l0.077,-0.126l-0.041,-0.028c0.022,-0.042 0.041,-0.084 0.057,-0.128l0.145,-0.059Zm-2.183,0.071c0.016,0.04 0.033,0.079 0.053,0.117l-0.199,-0.057l0.146,-0.06Zm2.089,-0.786c-0.003,-0.021 -0.007,-0.043 -0.01,-0.065l0.066,-0.028l-0.056,0.093Z" style="fill:#abb7d5;stroke:#41464d;stroke-width:0.1px;stroke-linecap:round;stroke-miterlimit:1.5;"/><path d="M35.984,33.84l-0.006,-0.018l-0.002,0.057c-0.024,0.115 -0.047,0.232 -0.065,0.344l-0.014,-0.019l-0.074,0.159l-0.084,-0.029l0.034,0.137l-0.085,0.182l0.056,0.08l-0.244,0.114l0.262,0.174l-0.089,0.099l0.066,0.178l-0.032,0.101l0.067,-0.01l0.081,0.217l0.071,-0.081l-0.013,0.427l0.166,-0.355l0.027,0.176l0.136,-0.063l0.038,0.071l0.012,-0.094l0.136,-0.063l-0.027,-0.177l0.246,0.164l-0.135,-0.359l0.086,0.008l0.007,-0.258l0.061,-0.049l-0.057,-0.06l0.006,-0.21l-0.1,-0.009c0,-0.004 0,-0.008 -0,-0.012l0.171,-0.367l-0.198,0.092c-0.08,-0.576 -0.301,-1.387 -0.301,-1.387c-0,0 -0.11,0.401 -0.203,0.84Zm0.177,1.506l0.088,0.236l0.009,-0.281l-0.03,0.014l-0.009,0.069l-0.028,-0.051l-0.03,0.013Zm-0.124,0.093l0,0.001l0.038,-0.058l0.067,0.044l0.017,-0.079l-0.037,0.018l-0.013,-0.081l-0.072,0.155Zm0.295,-0.205c-0.012,0.011 -0.025,0.02 -0.038,0.028l0.003,0.021l-0.037,0.018l0.037,0.052l0.045,-0.095l0.05,0.017l-0,-0.002l-0.06,-0.039Zm-0.362,0.001l-0.015,0.067l0.068,0.045l0.003,-0.121l-0.041,0.047l-0.015,-0.038Zm-0.051,-0.138l-0.094,0.202l0.144,-0.067l-0.023,-0.062l-0.04,0.006l0.02,-0.06l-0.007,-0.019Zm-0.081,-0.192l-0.001,0l0.034,0.036l-0.003,0.126l0.041,0.004l-0.023,-0.062l0.012,-0.013c-0.006,-0.02 -0.012,-0.041 -0.017,-0.063l-0.043,-0.028Zm0.653,0.034c-0.004,0.02 -0.01,0.039 -0.016,0.057l0.06,-0.027l-0.044,-0.03Zm-0.625,-0.383c0.001,-0.01 0.002,-0.021 0.003,-0.032l-0.02,-0.013l0.017,0.045Z" style="fill:#abb7d5;stroke:#41464d;stroke-width:0.04px;stroke-linecap:round;stroke-miterlimit:1.5;"/><path d="M26.176,44.008c-0.222,-0.523 -0.445,-0.954 -0.445,-0.954c0,-0 -0.398,0.77 -0.662,1.502l-0.157,0.056l0.07,0.17l-0.652,-0.163l0.471,0.544l-0.282,0.013l0.018,0.303l-0.154,0.085l0.162,0.071l0.021,0.371l0.228,-0.011l-0.359,0.515l0.657,-0.236l-0.072,0.255l0.362,0.09l0.033,0.136l0.101,-0.102l0.364,0.091l0.072,-0.254l0.443,0.51l-0.034,-0.613l0.191,0.116l0.217,-0.312l0.178,0.015l-0.087,-0.146l0.177,-0.255l-0.236,-0.143l0.699,-0.25l-0.653,-0.163l0.152,-0.115l-0.228,-0.262l0.09,-0.196l-0.224,0.042l-0.198,-0.23l-0.055,0.042c-0.047,-0.128 -0.098,-0.257 -0.149,-0.382l-0.012,-0.208l-0.047,0.068Zm-0.686,2.309l0.008,0.151l0.09,-0.13c-0.033,-0.005 -0.066,-0.012 -0.098,-0.021Zm1.142,-0.256l-0.122,-0.14c-0.02,0.033 -0.041,0.064 -0.065,0.094l0.187,0.046Zm-1.791,-0.513l-0.108,0.039l0.114,0.028c-0.003,-0.022 -0.005,-0.044 -0.006,-0.067Zm1.69,-0.566l0.037,-0.053l-0.047,0.017c0.003,0.012 0.006,0.024 0.01,0.036Z" style="fill:#abb7d5;stroke:#41464d;stroke-width:0.07px;stroke-linecap:round;stroke-miterlimit:1.5;"/><path d="M30.509,50.121c-0.166,-0.615 -0.333,-1.121 -0.333,-1.121c0,0 -0.297,0.906 -0.495,1.766l-0.118,0.066l0.052,0.199l-0.487,-0.191l0.352,0.639l-0.21,0.016l0.012,0.355l-0.115,0.101l0.122,0.083l0.016,0.436l0.17,-0.013l-0.268,0.605l0.491,-0.276l-0.054,0.298l0.271,0.107l0.025,0.159l0.076,-0.12l0.271,0.107l0.055,-0.298l0.331,0.6l-0.026,-0.721l0.143,0.136l0.163,-0.367l0.134,0.018l-0.066,-0.171l0.132,-0.3l-0.176,-0.168l0.523,-0.294l-0.488,-0.192l0.113,-0.135l-0.17,-0.308l0.067,-0.23l-0.168,0.049l-0.148,-0.27l-0.041,0.049c-0.035,-0.15 -0.073,-0.302 -0.112,-0.449l-0.008,-0.244l-0.036,0.079Zm-0.513,2.715l0.006,0.177l0.067,-0.153c-0.025,-0.006 -0.049,-0.014 -0.073,-0.024Zm0.854,-0.301l-0.091,-0.165c-0.014,0.038 -0.031,0.075 -0.049,0.11l0.14,0.055Zm-1.339,-0.603l-0.081,0.045l0.085,0.034c-0.002,-0.026 -0.004,-0.053 -0.004,-0.079Zm1.264,-0.665l0.027,-0.063l-0.035,0.02c0.003,0.015 0.005,0.029 0.008,0.043Z" style="fill:#abb7d5;stroke:#41464d;stroke-width:0.06px;stroke-linecap:round;stroke-miterlimit:1.5;"/><path d="M13.179,46.045c-0.222,-0.747 -0.444,-1.361 -0.444,-1.361c0,-0 -0.397,1.099 -0.66,2.144l-0.157,0.08l0.069,0.242l-0.65,-0.232l0.47,0.776l-0.281,0.019l0.017,0.432l-0.153,0.122l0.162,0.1l0.021,0.53l0.227,-0.015l-0.358,0.734l0.656,-0.335l-0.073,0.362l0.362,0.129l0.033,0.194l0.101,-0.145l0.362,0.129l0.073,-0.362l0.441,0.728l-0.034,-0.875l0.191,0.165l0.217,-0.445l0.178,0.022l-0.087,-0.208l0.176,-0.364l-0.236,-0.204l0.698,-0.358l-0.651,-0.232l0.151,-0.164l-0.227,-0.374l0.09,-0.28l-0.224,0.059l-0.198,-0.327l-0.055,0.06c-0.046,-0.183 -0.097,-0.367 -0.148,-0.546l-0.012,-0.296l-0.047,0.096Zm-0.685,3.297l0.009,0.215l0.09,-0.186c-0.034,-0.007 -0.067,-0.017 -0.099,-0.029Zm1.14,-0.366l-0.122,-0.2c-0.019,0.047 -0.041,0.091 -0.065,0.134l0.187,0.066Zm-1.787,-0.732l-0.107,0.055l0.113,0.041c-0.003,-0.032 -0.005,-0.064 -0.006,-0.096Zm1.686,-0.808l0.037,-0.076l-0.047,0.025c0.003,0.017 0.007,0.034 0.01,0.051Z" style="fill:#abb7d5;stroke:#41464d;stroke-width:0.09px;stroke-linecap:round;stroke-miterlimit:1.5;"/><path d="M39.277,34.361c0,0 0.228,0.939 0.372,1.806l0.043,-0.061l0.006,0.378c0.012,0.078 0.022,0.155 0.03,0.229l0.147,-0.111l0.186,0.247l0.169,-0.028l-0.073,0.155l0.19,0.254l-0.167,0.126l0.588,0.18l-0.59,0.202l0.18,0.127l-0.18,0.256l0.076,0.147l-0.164,-0.021l-0.183,0.26l-0.177,-0.124l0.01,0.617l-0.371,-0.493l-0.063,0.207l-0.305,-0.094l-0.117,0.118l-0.03,-0.163l-0.299,-0.092l0.065,-0.211l-0.591,0.203l0.354,-0.503l-0.21,0.003l-0.005,-0.316l-0.154,-0.078l0.152,-0.083l-0.006,-0.307l0.216,-0.004l-0.376,-0.5l0.593,0.182l-0.068,-0.198l0.294,-0.101l0.027,-0.174l0.02,0.019c0.137,-0.926 0.411,-2.054 0.411,-2.054Zm-0.111,3.805c-0.022,-0.01 -0.044,-0.024 -0.065,-0.04l-0.053,0.053l-0.016,-0.087l-0.057,-0.018l0.006,0.356l0.185,-0.264Zm0.216,0.003l0.014,0.019l-0.158,0.055l-0.02,-0.059c0.019,0.005 0.039,0.007 0.059,0.007c0.036,0 0.071,-0.007 0.105,-0.022Zm0.528,-0.584l-0.191,0.066l0.094,0.068l-0.092,0.137l0.04,0.079l-0.086,-0.012l-0.094,0.138l-0.037,-0.027c-0.017,0.022 -0.035,0.042 -0.053,0.06l0.004,0.148l0.014,-0.093l0.177,-0.061l-0.041,-0.119l0.359,0.11l-0.227,-0.303l0.13,-0.002l-0.003,-0.185l0.006,-0.004Zm-0.956,0.482l-0.079,-0.026l0.032,-0.112l-0.156,0.053l0.008,-0.001l0.112,0.149l0.083,-0.063Zm-0.368,-0.316l0.108,0.144l0.088,-0.129l-0.109,0.001l-0.002,-0.08l-0.085,0.064Zm-0.254,-0.185l0.338,0.104l-0.002,-0.073l-0.08,-0.042l0.078,-0.044l-0.001,-0.059l-0.333,0.114Zm0.421,-0.017l0.062,-0.021c0.002,0.014 0.005,0.029 0.007,0.043l-0.069,-0.022Zm1.007,-0.473c0.003,0.053 0.005,0.103 0.005,0.149c-0,0.033 -0.001,0.065 -0.003,0.097l0.043,0.057l-0.05,0.038c-0.001,0.013 -0.003,0.026 -0.004,0.039l0.225,0.073l-0.074,-0.037l-0.003,-0.191l-0.126,0.002l0.213,-0.305l-0.226,0.078Zm-1.181,0.291l0.085,0.06l-0.002,-0.081l0.113,-0l-0.093,-0.126l-0.103,0.147Zm0.166,-0.237l0.05,-0.071c-0.001,0.03 -0.003,0.059 -0.004,0.087l-0.046,-0.016Z" style="fill:#abb7d5;stroke:#41464d;stroke-width:0.06px;stroke-linecap:round;stroke-miterlimit:1.5;"/><path d="M12.674,30.5c-0,-0 0.203,0.701 0.331,1.349l0.038,-0.046l0.006,0.282c0.009,0.059 0.018,0.116 0.026,0.171l0.131,-0.082l0.165,0.184l0.151,-0.021l-0.066,0.116l0.17,0.189l-0.149,0.094l0.523,0.135l-0.525,0.151l0.16,0.095l-0.16,0.191l0.068,0.109l-0.146,-0.015l-0.163,0.194l-0.157,-0.092l0.008,0.46l-0.329,-0.368l-0.057,0.154l-0.271,-0.069l-0.104,0.087l-0.027,-0.121l-0.265,-0.069l0.057,-0.157l-0.526,0.151l0.315,-0.375l-0.186,0.002l-0.005,-0.237l-0.137,-0.057l0.135,-0.062l-0.005,-0.23l0.192,-0.003l-0.335,-0.373l0.528,0.135l-0.06,-0.147l0.261,-0.076l0.024,-0.129l0.018,0.014c0.122,-0.692 0.366,-1.534 0.366,-1.534Zm-0.099,2.842c-0.02,-0.008 -0.039,-0.018 -0.058,-0.031l-0.047,0.041l-0.015,-0.066l-0.05,-0.013l0.005,0.265l0.165,-0.196Zm0.192,0.002l0.012,0.014l-0.141,0.041l-0.017,-0.044c0.017,0.004 0.035,0.005 0.053,0.005c0.032,0 0.063,-0.005 0.093,-0.016Zm0.47,-0.436l-0.17,0.049l0.084,0.051l-0.082,0.102l0.035,0.059l-0.076,-0.009l-0.084,0.103l-0.033,-0.02c-0.015,0.017 -0.031,0.032 -0.047,0.045l0.003,0.11l0.013,-0.069l0.158,-0.045l-0.037,-0.09l0.319,0.082l-0.202,-0.225l0.116,-0.002l-0.003,-0.139l0.006,-0.002Zm-0.85,0.36l-0.071,-0.02l0.029,-0.084l-0.139,0.04l0.007,-0l0.099,0.111l0.075,-0.047Zm-0.329,-0.236l0.097,0.107l0.078,-0.096l-0.097,0.001l-0.002,-0.061l-0.076,0.049Zm-0.225,-0.139l0.301,0.078l-0.002,-0.054l-0.072,-0.032l0.07,-0.032l-0.001,-0.045l-0.296,0.085Zm0.375,-0.013l0.054,-0.015c0.002,0.011 0.005,0.022 0.007,0.032l-0.061,-0.017Zm0.896,-0.353c0.002,0.04 0.003,0.077 0.003,0.112c0,0.024 -0,0.048 -0.002,0.072l0.038,0.043l-0.044,0.028c-0.001,0.01 -0.003,0.02 -0.004,0.029l0.2,0.055l-0.065,-0.028l-0.003,-0.143l-0.113,0.002l0.19,-0.228l-0.2,0.058Zm-1.051,0.218l0.075,0.044l-0.002,-0.06l0.101,0l-0.083,-0.094l-0.091,0.11Zm0.147,-0.177l0.045,-0.053c-0.001,0.022 -0.003,0.044 -0.003,0.064l-0.042,-0.011Z" style="fill:#abb7d5;stroke:#41464d;stroke-width:0.05px;stroke-linecap:round;stroke-miterlimit:1.5;"/><path d="M43.156,55.675c0.16,-0.727 0.48,-1.613 0.48,-1.613c0,0 0.382,1.057 0.52,1.808l0.096,0.014l-0.037,0.18l0.543,-0.241l-0.28,0.467l0.2,-0.028l0.042,0.259l0.159,0.048l-0.137,0.088l0.042,0.259l-0.2,0.028l0.416,0.37l-0.595,-0.082l0.092,0.162l-0.267,0.118l-0.005,0.145l-0.134,-0.084l-0.274,0.122l-0.089,-0.157l-0.278,0.462l-0.084,-0.52l-0.153,0.131l-0.209,-0.186l-0.153,0.041l0.05,-0.133l-0.214,-0.19l0.15,-0.129l-0.586,-0.081l0.534,-0.236l-0.184,-0.083l0.144,-0.24l-0.09,-0.114l0.159,-0.001l0.142,-0.235l0.128,0.057c0.007,-0.056 0.016,-0.114 0.026,-0.176l-0.051,-0.317l0.097,0.087Zm0.943,1.74l-0.237,-0.211l0.063,-0.027l0.072,0.043l0.002,-0.076l0.053,-0.022l0.047,0.293Zm-0.27,-0.116l-0.171,-0.024l0.072,-0.116l0.047,0.081l0.07,-0.03l-0.018,0.089Zm-0.448,-0.163l-0.308,0.137l0.159,-0.265l0.054,0.046l-0.028,0.07l0.083,-0.022l0.04,0.034Zm0.015,0.013l0.057,0.049l0.082,-0.068l0.023,0.137l-0.003,-0.006l-0.176,-0.025l0.017,-0.087Zm0.766,0.003l-0.088,-0.04l0.069,-0.03l-0.049,-0.084l0.149,0.019l-0.081,0.135Zm-0.246,-0.143c-0.015,0.012 -0.03,0.023 -0.046,0.033l0.06,0.052l-0.014,-0.085Zm-0.674,-0.122l-0.143,-0.019l0.023,0.14l0.095,-0.013l-0.045,-0.039l0.074,-0.063c-0.001,-0.002 -0.003,-0.004 -0.004,-0.006Zm1.05,0.048l-0.101,-0.088l0.108,-0.014l-0.013,-0.078l0.09,0.04l-0.084,0.14Zm-0.245,-0.072c-0.004,0.007 -0.008,0.013 -0.013,0.019l0.028,-0l-0.015,-0.019Zm-0.939,-0.258l-0.051,0.007l0.026,0.157l-0.074,0.047l0.153,-0.066c-0.01,-0.021 -0.02,-0.044 -0.028,-0.067l-0.007,-0.003l0.003,-0.006c-0.008,-0.022 -0.015,-0.045 -0.022,-0.069Zm1.146,-0.049l0.334,0.046l-0.305,0.135l-0.006,-0.039l0.074,-0.047l-0.086,-0.024l-0.011,-0.071Zm-0.108,0.107c-0.004,0.011 -0.008,0.022 -0.012,0.033l0.06,-0.027l-0.048,-0.006Zm0.054,-0.259c-0.002,0.032 -0.007,0.064 -0.012,0.096l0.056,-0.008l0.007,0.046l0.073,-0.062l-0.108,-0.097l-0.016,0.025Zm-1.113,0.111c-0.007,-0.04 -0.013,-0.081 -0.016,-0.123l-0.144,-0.02l0.16,0.143Zm1.117,-0.229c0,0.004 0,0.009 0,0.013l0.017,-0.007l0.004,-0.012l-0.021,0.006Z" style="fill:#abb7d5;stroke:#41464d;stroke-width:0.11px;"/><path d="M29.972,38.85c-0.16,-0.983 -0.483,-2.183 -0.483,-2.183c0,-0 -0.385,1.431 -0.523,2.448l-0.097,0.018l0.037,0.244l-0.546,-0.325l0.281,0.632l-0.2,-0.038l-0.043,0.351l-0.16,0.065l0.138,0.12l-0.042,0.35l0.201,0.038l-0.419,0.501l0.599,-0.111l-0.092,0.219l0.268,0.16l0.005,0.197l0.135,-0.114l0.276,0.165l0.09,-0.213l0.279,0.626l0.085,-0.705l0.154,0.179l0.211,-0.253l0.154,0.056l-0.051,-0.181l0.216,-0.257l-0.151,-0.174l0.59,-0.11l-0.538,-0.32l0.185,-0.112l-0.145,-0.325l0.091,-0.154l-0.161,-0.002l-0.142,-0.319l-0.129,0.078c-0.007,-0.076 -0.016,-0.155 -0.026,-0.238l0.051,-0.43l-0.098,0.117Zm-0.949,2.358l0.239,-0.287l-0.064,-0.036l-0.072,0.058l-0.003,-0.102l-0.052,-0.031l-0.048,0.398Zm0.272,-0.158l0.173,-0.032l-0.073,-0.158l-0.048,0.111l-0.07,-0.041l0.018,0.12Zm0.451,-0.22l0.311,0.185l-0.161,-0.359l-0.054,0.063l0.027,0.094l-0.083,-0.03l-0.04,0.047Zm-0.015,0.017l-0.058,0.067l-0.082,-0.093l-0.023,0.187l0.002,-0.009l0.178,-0.033l-0.017,-0.119Zm-0.771,0.004l0.089,-0.054l-0.07,-0.04l0.049,-0.115l-0.149,0.027l0.081,0.182Zm0.247,-0.193c0.016,0.016 0.031,0.031 0.047,0.045l-0.061,0.07l0.014,-0.115Zm0.679,-0.166l0.144,-0.025l-0.023,0.189l-0.096,-0.018l0.046,-0.052l-0.075,-0.085c0.001,-0.003 0.003,-0.006 0.004,-0.009Zm-1.057,0.065l0.101,-0.118l-0.108,-0.02l0.013,-0.106l-0.091,0.055l0.085,0.189Zm0.246,-0.097c0.005,0.009 0.009,0.018 0.013,0.026l-0.028,-0.001l0.015,-0.025Zm0.945,-0.349l0.052,0.01l-0.026,0.211l0.074,0.064l-0.153,-0.089c0.01,-0.029 0.019,-0.06 0.028,-0.091l0.007,-0.004l-0.004,-0.008c0.008,-0.03 0.016,-0.061 0.022,-0.093Zm-1.153,-0.067l-0.336,0.063l0.307,0.183l0.006,-0.054l-0.074,-0.063l0.086,-0.033l0.011,-0.096Zm0.109,0.145c0.004,0.015 0.008,0.03 0.012,0.044l-0.061,-0.035l0.049,-0.009Zm-0.055,-0.351c0.003,0.044 0.007,0.087 0.013,0.13l-0.056,-0.011l-0.008,0.063l-0.073,-0.085l0.109,-0.131l0.015,0.034Zm1.121,0.151c0.007,-0.054 0.013,-0.11 0.016,-0.167l0.145,-0.027l-0.161,0.194Zm-1.125,-0.311c0,0.006 -0,0.012 -0,0.018l-0.017,-0.009l-0.004,-0.017l0.021,0.008Z" style="fill:#abb7d5;stroke:#41464d;stroke-width:0.11px;"/><path d="M32.241,35.869l-0.012,-0.018l-0.003,0.059c-0.043,0.119 -0.083,0.24 -0.117,0.356l-0.024,-0.02l-0.133,0.165l-0.151,-0.03l0.061,0.141l-0.153,0.189l0.102,0.082l-0.438,0.118l0.469,0.18l-0.158,0.103l0.118,0.183l-0.058,0.105l0.119,-0.011l0.146,0.225l0.128,-0.083l-0.023,0.441l0.297,-0.367l0.049,0.183l0.244,-0.066l0.068,0.074l0.022,-0.098l0.243,-0.065l-0.049,-0.183l0.441,0.169l-0.241,-0.371l0.153,0.008l0.014,-0.267l0.109,-0.051l-0.103,-0.061l0.012,-0.218l-0.179,-0.009c-0.001,-0.004 -0.001,-0.008 -0.001,-0.012l0.307,-0.38l-0.355,0.095c-0.143,-0.596 -0.541,-1.435 -0.541,-1.435c0,0 -0.196,0.415 -0.363,0.869Zm0.317,1.559l0.158,0.243l0.015,-0.29l-0.054,0.015l-0.015,0.071l-0.05,-0.053l-0.054,0.014Zm-0.222,0.095l-0,0.002l0.069,-0.061l0.118,0.046l0.031,-0.081l-0.066,0.018l-0.023,-0.084l-0.129,0.16Zm0.529,-0.211c-0.022,0.011 -0.045,0.02 -0.069,0.028l0.006,0.022l-0.067,0.018l0.068,0.055l0.08,-0.099l0.09,0.018l-0.001,-0.002l-0.107,-0.04Zm-0.649,0l-0.027,0.07l0.121,0.046l0.007,-0.125l-0.075,0.049l-0.026,-0.04Zm-0.092,-0.142l-0.169,0.209l0.259,-0.07l-0.042,-0.064l-0.07,0.006l0.034,-0.062l-0.012,-0.019Zm-0.146,-0.199l-0.001,0.001l0.062,0.037l-0.007,0.13l0.074,0.004l-0.041,-0.064l0.021,-0.014c-0.011,-0.021 -0.021,-0.042 -0.03,-0.065l-0.078,-0.029Zm1.172,0.036c-0.008,0.02 -0.018,0.04 -0.028,0.059l0.107,-0.029l-0.079,-0.03Zm-1.121,-0.397c0.001,-0.01 0.003,-0.022 0.005,-0.033l-0.036,-0.013l0.031,0.046Z" style="fill:#abb7d5;stroke:#41464d;stroke-width:0.05px;stroke-linecap:round;stroke-miterlimit:1.5;"/><path d="M19.211,33.49c0.119,-0.263 0.239,-0.481 0.239,-0.481c-0,0 0.214,0.389 0.355,0.758l0.085,0.029l-0.038,0.085l0.351,-0.082l-0.254,0.274l0.152,0.007l-0.01,0.153l0.083,0.043l-0.087,0.035l-0.012,0.187l-0.122,-0.005l0.193,0.26l-0.353,-0.119l0.039,0.128l-0.195,0.046l-0.017,0.068l-0.055,-0.051l-0.195,0.046l-0.039,-0.129l-0.238,0.258l0.019,-0.309l-0.103,0.058l-0.116,-0.157l-0.096,0.007l0.047,-0.073l-0.095,-0.129l0.127,-0.072l-0.376,-0.126l0.35,-0.082l-0.081,-0.058l0.122,-0.133l-0.048,-0.098l0.12,0.021l0.107,-0.116l0.029,0.021c0.026,-0.065 0.053,-0.13 0.08,-0.193l0.007,-0.105l0.025,0.034Zm0.369,1.166l-0.005,0.075l-0.048,-0.065c0.018,-0.003 0.035,-0.006 0.053,-0.01Zm-0.614,-0.13l0.066,-0.07c0.01,0.016 0.022,0.032 0.035,0.047l-0.101,0.023Zm0.962,-0.258l0.058,0.019l-0.061,0.014c0.001,-0.011 0.002,-0.022 0.003,-0.033Zm-0.908,-0.286l-0.019,-0.027l0.025,0.009c-0.002,0.006 -0.004,0.012 -0.006,0.018Z" style="fill:#abb7d5;stroke:#41464d;stroke-width:0.03px;stroke-linecap:round;stroke-miterlimit:1.5;"/><path d="M46.746,37.256c0.087,-0.496 0.26,-1.101 0.26,-1.101c-0,-0 0.207,0.722 0.281,1.235l0.052,0.009l-0.02,0.123l0.293,-0.164l-0.151,0.319l0.108,-0.019l0.023,0.177l0.086,0.032l-0.074,0.061l0.022,0.177l-0.108,0.019l0.225,0.253l-0.321,-0.057l0.049,0.111l-0.144,0.081l-0.003,0.099l-0.072,-0.057l-0.149,0.083l-0.047,-0.108l-0.151,0.316l-0.045,-0.355l-0.083,0.09l-0.113,-0.128l-0.083,0.029l0.027,-0.092l-0.115,-0.129l0.081,-0.088l-0.317,-0.056l0.289,-0.161l-0.1,-0.057l0.078,-0.163l-0.049,-0.078l0.087,-0.001l0.076,-0.161l0.069,0.039c0.004,-0.038 0.009,-0.078 0.015,-0.12l-0.028,-0.217l0.052,0.059Zm0.51,1.189l-0.128,-0.144l0.034,-0.018l0.039,0.029l0.001,-0.052l0.029,-0.015l0.025,0.2Zm-0.146,-0.079l-0.093,-0.016l0.04,-0.08l0.025,0.056l0.038,-0.02l-0.01,0.06Zm-0.242,-0.111l-0.167,0.093l0.086,-0.181l0.029,0.032l-0.014,0.047l0.044,-0.014l0.022,0.023Zm0.008,0.009l0.031,0.033l0.044,-0.046l0.012,0.094l-0.001,-0.005l-0.095,-0.016l0.009,-0.06Zm0.414,0.002l-0.048,-0.027l0.038,-0.021l-0.026,-0.058l0.08,0.014l-0.044,0.092Zm-0.133,-0.098c-0.008,0.008 -0.016,0.016 -0.025,0.023l0.033,0.035l-0.008,-0.058Zm-0.364,-0.083l-0.078,-0.013l0.013,0.095l0.051,-0.009l-0.024,-0.026l0.04,-0.043c-0.001,-0.001 -0.002,-0.003 -0.002,-0.004Zm0.568,0.032l-0.055,-0.059l0.058,-0.01l-0.007,-0.054l0.049,0.028l-0.045,0.095Zm-0.133,-0.048c-0.002,0.004 -0.005,0.008 -0.007,0.012l0.015,0l-0.008,-0.012Zm-0.507,-0.177l-0.028,0.005l0.014,0.107l-0.04,0.032l0.082,-0.045c-0.005,-0.015 -0.01,-0.03 -0.015,-0.046l-0.004,-0.002l0.002,-0.004c-0.004,-0.015 -0.008,-0.031 -0.011,-0.047Zm0.619,-0.033l0.18,0.031l-0.164,0.092l-0.004,-0.026l0.04,-0.032l-0.046,-0.017l-0.006,-0.048Zm-0.059,0.073c-0.002,0.007 -0.004,0.015 -0.006,0.022l0.033,-0.018l-0.027,-0.004Zm0.03,-0.177c-0.002,0.022 -0.004,0.044 -0.007,0.065l0.03,-0.005l0.004,0.032l0.04,-0.043l-0.059,-0.066l-0.008,0.017Zm-0.602,0.076c-0.004,-0.028 -0.007,-0.056 -0.009,-0.084l-0.078,-0.014l0.087,0.098Zm0.604,-0.157c0,0.003 0,0.006 0,0.009l0.009,-0.005l0.002,-0.008l-0.011,0.004Z" style="fill:#abb7d5;stroke:#41464d;stroke-width:0.11px;"/><path d="M22.468,32.783c0,0 -0.282,0.576 -0.522,1.209l-0.008,-0.011l0.001,0.029c-0.076,0.202 -0.148,0.409 -0.205,0.604l-0.1,0.167l-0.165,-0.017l0.08,0.158l-0.165,0.277l0.168,0.119l-0.552,0.23l0.58,0.169l-0.164,0.144l0.188,0.254l-0.063,0.159l0.157,-0.034l0.193,0.259l0.161,-0.142l0.032,0.643l0.323,-0.54l0.074,0.21l0.286,-0.119l0.12,0.114l0.019,-0.172l0.28,-0.116l-0.076,-0.215l0.58,0.169l-0.372,-0.5l0.201,-0.011l-0.016,-0.331l0.142,-0.091l-0.15,-0.076l-0.015,-0.321l-0.181,0.011c-0.002,-0.011 -0.004,-0.022 -0.006,-0.033l0.308,-0.515l-0.394,0.165c-0.237,-0.82 -0.739,-1.846 -0.739,-1.846Zm0.321,3.573l-0.013,-0.27c-0.05,0.019 -0.102,0.034 -0.156,0.043l0.169,0.227Zm-0.455,-0.224l-0.04,0.068l0.056,-0.066c-0.005,-0 -0.01,-0.001 -0.016,-0.002Zm0.058,0.007l0.138,0.04l0.01,-0.04c-0.024,0.002 -0.048,0.003 -0.072,0.003c-0.026,0 -0.051,-0.001 -0.076,-0.003Zm-0.516,-0.229l-0.092,0.154l0.187,-0.078c-0.034,-0.023 -0.065,-0.049 -0.095,-0.076Zm1.479,-0.501l-0.034,-0.01c-0.001,0.009 -0.002,0.017 -0.003,0.026l0.037,-0.016Z" style="fill:#abb7d5;stroke:#41464d;stroke-width:0.16px;"/><path d="M50.015,50.241c-0.202,-0.597 -0.498,-1.217 -0.498,-1.217c0,0 -0.301,0.631 -0.502,1.233l-0.106,-0.05l0.019,0.13l-0.208,0.146l0.105,0.142l-0.511,0.002l0.406,0.285l-0.164,0.052l0.079,0.239l-0.099,0.098l0.139,0.023l0.077,0.232l0.168,-0.054l-0.162,0.474l0.414,-0.292l-0.001,0.166l0.254,-0.001l0.066,0.124l0.068,-0.124l0.255,-0.001l0.001,-0.166l0.41,0.288l-0.156,-0.473l0.168,0.053l0.08,-0.233l0.138,-0.024l-0.097,-0.097l0.082,-0.24l-0.163,-0.05l0.409,-0.289l-0.511,0.002l0.107,-0.142l-0.207,-0.145l0.021,-0.13l-0.081,0.039Zm-0.554,1.373l0.039,0.118l0.039,-0.117c-0.007,0 -0.014,0 -0.022,0c-0.019,0 -0.037,-0 -0.056,-0.001Zm-0.608,-0.431l-0.067,0.047l0.083,-0c-0.006,-0.016 -0.011,-0.031 -0.016,-0.047Zm1.367,0.041l-0.042,-0.029c-0.003,0.009 -0.006,0.019 -0.01,0.029l0.052,-0Z" style="fill:#abb7d5;stroke:#41464d;stroke-width:0.13px;"/><path d="M19.169,44.952c0.282,-0.62 0.563,-1.131 0.563,-1.131c-0,0 0.503,0.914 0.837,1.781l0.199,0.067l-0.088,0.201l0.824,-0.193l-0.596,0.644l0.356,0.016l-0.021,0.359l0.194,0.102l-0.205,0.083l-0.027,0.44l-0.288,-0.013l0.454,0.611l-0.831,-0.279l0.092,0.301l-0.458,0.107l-0.042,0.161l-0.128,-0.121l-0.46,0.108l-0.092,-0.301l-0.559,0.605l0.043,-0.727l-0.242,0.137l-0.274,-0.37l-0.226,0.018l0.111,-0.173l-0.224,-0.302l0.299,-0.169l-0.884,-0.297l0.825,-0.193l-0.192,-0.136l0.288,-0.311l-0.114,-0.232l0.283,0.049l0.252,-0.272l0.069,0.049c0.059,-0.152 0.123,-0.304 0.188,-0.453l0.015,-0.246l0.059,0.08Zm0.869,2.738l-0.011,0.179l-0.114,-0.154c0.042,-0.006 0.084,-0.014 0.125,-0.025Zm-1.444,-0.303l0.154,-0.166c0.024,0.038 0.052,0.075 0.082,0.11l-0.236,0.056Zm2.263,-0.609l0.137,0.046l-0.144,0.034c0.004,-0.026 0.006,-0.053 0.007,-0.08Zm-2.136,-0.67l-0.047,-0.063l0.06,0.02c-0.004,0.014 -0.009,0.028 -0.013,0.043Z" style="fill:#abb7d5;stroke:#41464d;stroke-width:0.08px;stroke-linecap:round;stroke-miterlimit:1.5;"/></svg>