<?xml version="1.0" encoding="UTF-8" standalone="no"?><!DOCTYPE svg PUBLIC "-//W3C//DTD SVG 1.1//EN" "http://www.w3.org/Graphics/SVG/1.1/DTD/svg11.dtd"><svg width="100%" height="100%" viewBox="0 0 100 100" version="1.1" xmlns="http://www.w3.org/2000/svg" xmlns:xlink="http://www.w3.org/1999/xlink" xml:space="preserve" xmlns:serif="http://www.serif.com/" style="fill-rule:evenodd;clip-rule:evenodd;stroke-linejoin:round;stroke-miterlimit:2;"><g id="Layer_2_18_"></g><g id="SVGRepo_iconCarrier"><g><path d="M57.268,48.933l12.494,-10.62c1.08,-0.917 1.862,-2.144 2.23,-3.519l1.091,-4.071l2.601,0.697l1.399,-5.221l-38.637,-10.353l-1.399,5.222l2.601,0.697l-1.091,4.07c-0.368,1.375 -0.304,2.829 0.172,4.162l5.51,15.445c0.197,0.554 0.218,1.133 0.074,1.677l-0.679,2.531c-0.147,0.544 -0.454,1.035 -0.902,1.416l-12.494,10.621c-1.08,0.917 -1.862,2.144 -2.23,3.518l-1.091,4.072l-2.601,-0.697l-1.399,5.221l38.637,10.353l1.399,-5.221l-2.601,-0.697l1.091,-4.072c0.368,-1.374 0.304,-2.827 -0.172,-4.161l-5.51,-15.446c-0.197,-0.554 -0.219,-1.133 -0.073,-1.677l0.678,-2.531c0.146,-0.544 0.454,-1.035 0.902,-1.416Zm0.715,28.108l-28.417,-7.614l0.952,-3.55c0.219,-0.818 0.683,-1.553 1.348,-2.12l12.495,-10.621c0.862,-0.732 1.488,-1.714 1.783,-2.814l0.678,-2.531c0.294,-1.099 0.243,-2.264 -0.137,-3.327l-5.51,-15.444c-0.293,-0.825 -0.328,-1.693 -0.108,-2.513l0.95,-3.548l28.417,7.614l-0.951,3.548c-0.221,0.82 -0.684,1.554 -1.351,2.122l-12.494,10.62c-0.86,0.731 -1.487,1.714 -1.781,2.813l-0.678,2.531c-0.295,1.1 -0.244,2.263 0.136,3.328l5.511,15.445c0.293,0.824 0.326,1.693 0.108,2.512l-0.951,3.549l-0,0Z" style="fill-rule:nonzero;"/><path d="M48.153,43.878c0.339,0.949 1.518,4.49 2.235,4.673c0.718,0.184 3.505,-2.277 4.273,-2.93l8.982,-7.635l-19.451,-5.212l3.961,11.104Z" style="fill-rule:nonzero;"/><path d="M45.185,63.946l-9.157,5.533l16.332,4.377l-5.163,-9.371c-0.401,-0.726 -1.301,-0.967 -2.012,-0.539Z" style="fill-rule:nonzero;"/></g><path d="M15.246,67.265c-1.125,-2.269 -2.043,-4.683 -2.724,-7.223c-0.681,-2.54 -1.092,-5.089 -1.252,-7.617l-9.717,0c0.169,3.356 0.694,6.748 1.6,10.128c0.905,3.379 2.147,6.579 3.678,9.571l8.415,-4.859Zm0.012,-34.523l-8.412,-4.857c-3.101,6.046 -4.946,12.748 -5.295,19.69l9.718,0c0.327,-5.215 1.711,-10.253 3.989,-14.833Zm13.284,49.575c-4.263,-2.827 -7.98,-6.498 -10.872,-10.851l-8.415,4.858c3.773,5.839 8.722,10.72 14.43,14.405l4.857,-8.412Zm-0.008,-64.647l-4.858,-8.415c-5.839,3.773 -10.72,8.722 -14.405,14.43l8.412,4.857c2.827,-4.263 6.498,-7.98 10.851,-10.872Zm19.041,71.061c-5.215,-0.327 -10.253,-1.711 -14.833,-3.989l-4.857,8.412c6.046,3.101 12.748,4.946 19.69,5.295l-0,-9.718Zm-0,-87.178c-3.356,0.169 -6.748,0.694 -10.128,1.6c-3.379,0.905 -6.579,2.147 -9.571,3.678l4.859,8.415c2.269,-1.125 4.683,-2.043 7.223,-2.724c2.54,-0.681 5.089,-1.092 7.617,-1.252l-0,-9.717Zm24.549,91.616l-4.859,-8.415c-2.269,1.125 -4.683,2.043 -7.223,2.724c-2.54,0.681 -5.089,1.092 -7.617,1.252l0,9.717c3.356,-0.169 6.748,-0.694 10.128,-1.6c3.379,-0.905 6.579,-2.147 9.571,-3.678Zm-0.009,-86.323c-6.046,-3.101 -12.748,-4.946 -19.69,-5.295l-0,9.718c5.215,0.327 10.253,1.711 14.833,3.989l4.691,-3.274l0.166,-5.138Zm18.614,69.469l-8.412,-4.857c-2.827,4.263 -6.498,7.98 -10.851,10.872l4.858,8.415c5.839,-3.773 10.72,-8.722 14.405,-14.43Zm-24.416,-57.253l8.482,-5.824l0.568,-10.705l10.373,17.807l-19.423,-1.278Zm32.136,33.363l-9.718,-0c-0.327,5.215 -1.711,10.253 -3.989,14.833l8.412,4.857c3.101,-6.046 4.946,-12.748 5.295,-19.69Zm-5.28,-24.549l-3.463,3.532l-4.952,1.327c1.125,2.269 2.043,4.683 2.724,7.223c0.681,2.54 1.092,5.089 1.252,7.617l9.717,-0c-0.169,-3.356 -0.694,-6.748 -1.6,-10.128c-0.905,-3.379 -2.147,-6.579 -3.678,-9.571Z"/></g></svg>