<svg fill="#161716" width="100%" height="100%" viewBox="0 0 100 100" version="1.1" xmlns="http://www.w3.org/2000/svg" xmlns:xlink="http://www.w3.org/1999/xlink" xml:space="preserve" xmlns:serif="http://www.serif.com/" style="fill-rule:evenodd;clip-rule:evenodd;stroke-linejoin:round;stroke-miterlimit:2;"><g><path d="M83.016,13.053l-2.852,0c0.073,-0.227 0.15,-0.454 0.15,-0.706c-0,-1.297 -1.097,-2.347 -2.446,-2.347c-1.349,-0 -2.441,1.053 -2.441,2.347c0,0.252 0.071,0.479 0.15,0.706l-9.346,0c0.074,-0.227 0.15,-0.454 0.15,-0.706c-0.003,-1.297 -1.097,-2.347 -2.448,-2.347c-1.344,-0 -2.441,1.053 -2.441,2.347c0,0.252 0.074,0.479 0.152,0.706l-9.348,0c0.074,-0.227 0.147,-0.454 0.147,-0.706c0,-1.297 -1.092,-2.347 -2.44,-2.347c-1.349,-0 -2.441,1.053 -2.441,2.347c-0,0.252 0.071,0.479 0.147,0.706l-9.348,0c0.073,-0.227 0.149,-0.454 0.149,-0.706c0,-1.297 -1.094,-2.347 -2.44,-2.347c-1.349,-0 -2.443,1.053 -2.443,2.347c-0,0.252 0.071,0.479 0.147,0.706l-9.346,0c0.076,-0.227 0.15,-0.454 0.15,-0.706c-0,-1.297 -1.092,-2.347 -2.441,-2.347c-1.348,-0 -2.443,1.053 -2.443,2.347c-0,0.252 0.071,0.479 0.147,0.706l-2.857,0c-3.855,0 -6.984,3.012 -6.984,6.718l0,63.511c0,3.709 3.129,6.718 6.984,6.718l58.146,0l14.87,-14.302l-0,-55.927c-0,-3.703 -3.129,-6.718 -6.984,-6.718Zm3.174,61.125l-0.789,0.76l-5.981,0c-2.799,0 -5.08,2.198 -5.08,4.886l0,5.752l-0.79,0.76l-56.566,-0c-1.75,-0 -3.174,-1.371 -3.174,-3.054l-0,-61.068l72.38,-0l0,51.964Z" style="fill-rule:nonzero;"/><rect x="33.535" y="28.406" width="8.98" height="8.638"/><rect x="45.51" y="28.406" width="8.98" height="8.638"/><rect x="57.484" y="28.406" width="8.978" height="8.638"/><rect x="69.459" y="28.406" width="8.983" height="8.638"/><rect x="21.558" y="39.924" width="8.983" height="8.64"/><rect x="33.535" y="39.924" width="8.98" height="8.64"/><rect x="45.51" y="39.924" width="8.98" height="8.64"/><rect x="57.484" y="39.924" width="8.978" height="8.64"/><rect x="69.459" y="39.924" width="8.983" height="8.64"/><rect x="21.558" y="51.441" width="8.983" height="8.64"/><rect x="33.535" y="51.441" width="8.98" height="8.64"/><rect x="45.51" y="51.441" width="8.98" height="8.64"/><rect x="57.484" y="51.441" width="8.978" height="8.64"/><rect x="69.459" y="51.441" width="8.983" height="8.64"/><rect x="21.558" y="62.959" width="8.983" height="8.638"/><rect x="33.535" y="62.959" width="8.98" height="8.638"/><rect x="45.51" y="62.959" width="8.98" height="8.638"/><rect x="57.484" y="62.959" width="8.978" height="8.638"/><rect x="69.459" y="62.959" width="8.983" height="8.638"/><rect x="21.558" y="75.915" width="20.955" height="4.319"/></g><path d="M15.246,-37.286c-1.125,-2.27 -2.043,-4.683 -2.724,-7.223c-0.681,-2.54 -1.092,-5.09 -1.252,-7.617l-9.717,-0c0.169,3.356 0.694,6.748 1.6,10.127c0.905,3.38 2.147,6.58 3.678,9.571l8.415,-4.858Zm0.012,-34.524l-8.412,-4.856c-3.101,6.045 -4.946,12.748 -5.295,19.69l9.718,-0c0.327,-5.216 1.711,-10.254 3.989,-14.834Zm13.284,49.576c-4.263,-2.828 -7.98,-6.498 -10.872,-10.852l-8.415,4.859c3.773,5.838 8.722,10.72 14.43,14.405l4.857,-8.412Zm-0.008,-64.647l-4.858,-8.416c-5.839,3.774 -10.72,8.723 -14.405,14.43l8.412,4.857c2.827,-4.263 6.498,-7.979 10.851,-10.871Zm19.041,71.061c-5.215,-0.328 -10.253,-1.711 -14.833,-3.989l-4.857,8.412c6.046,3.101 12.748,4.946 19.69,5.294l0,-9.717Zm-0,-87.179c-3.356,0.17 -6.748,0.695 -10.128,1.6c-3.379,0.906 -6.579,2.147 -9.571,3.679l4.859,8.415c2.269,-1.126 4.683,-2.044 7.223,-2.724c2.54,-0.681 5.089,-1.093 7.617,-1.253l-0,-9.717Zm24.549,91.617l-4.859,-8.416c-2.269,1.126 -4.683,2.044 -7.223,2.724c-2.54,0.681 -5.089,1.093 -7.617,1.253l0,9.717c3.356,-0.17 6.748,-0.695 10.128,-1.6c3.379,-0.906 6.579,-2.147 9.571,-3.678Zm-0.009,-86.324c-6.046,-3.101 -12.748,-4.946 -19.69,-5.294l-0,9.717c5.215,0.328 10.253,1.711 14.833,3.989l4.691,-3.274l0.166,-5.138Zm18.614,69.47l-8.412,-4.857c-2.827,4.263 -6.498,7.979 -10.851,10.871l4.858,8.416c5.839,-3.774 10.72,-8.723 14.405,-14.43Zm-24.416,-57.254l8.482,-5.823l0.568,-10.705l10.373,17.807l-19.423,-1.279Zm32.136,33.364l-9.718,-0c-0.327,5.215 -1.711,10.253 -3.989,14.833l8.412,4.857c3.101,-6.046 4.946,-12.748 5.295,-19.69Zm-5.28,-24.549l-3.463,3.532l-4.952,1.327c1.125,2.269 2.043,4.682 2.724,7.222c0.681,2.54 1.092,5.09 1.252,7.618l9.717,-0c-0.169,-3.356 -0.694,-6.749 -1.6,-10.128c-0.905,-3.379 -2.147,-6.58 -3.678,-9.571Z"/><g id="Layer_2_18_"></g></svg>