<?xml version="1.0" encoding="UTF-8" standalone="no"?><!DOCTYPE svg PUBLIC "-//W3C//DTD SVG 1.1//EN" "http://www.w3.org/Graphics/SVG/1.1/DTD/svg11.dtd"><svg width="100%" height="100%" viewBox="0 0 64 64" version="1.1" xmlns="http://www.w3.org/2000/svg" xmlns:xlink="http://www.w3.org/1999/xlink" xml:space="preserve" xmlns:serif="http://www.serif.com/" style="fill-rule:evenodd;clip-rule:evenodd;stroke-linejoin:round;stroke-miterlimit:2;"><circle cx="32" cy="32" r="32" style="fill:#8caaaf;"/><g id="SVGRepo_iconCarrier"><g><g><path d="M52.616,25.72c0.225,-0.402 0.64,-0.657 1.234,-0.76c1.981,-0.341 2.609,-1.107 2.614,-1.113c0.064,-0.084 0.18,-0.124 0.292,-0.099c0.112,0.024 0.194,0.108 0.205,0.208c0.034,0.289 0.289,2.832 -1.144,3.352l-2.572,0.933c-0.002,0.001 -0.004,0.001 -0.006,0.002c-0.015,0.005 -0.03,0.009 -0.046,0.012c-0.013,0.002 -0.026,0.003 -0.04,0.004c-0.003,0 -0.007,0 -0.01,0c-0.011,0 -0.022,-0 -0.034,-0.001c-0.002,-0.001 -0.004,-0.001 -0.006,-0.001c-0.012,-0.001 -0.024,-0.003 -0.035,-0.006c-0.001,-0 -0.002,-0.001 -0.003,-0.001c-0.016,-0.004 -0.031,-0.009 -0.046,-0.016c-0.005,-0.002 -0.008,-0.004 -0.013,-0.007c-0.01,-0.005 -0.02,-0.01 -0.029,-0.016c-0.005,-0.003 -0.01,-0.007 -0.015,-0.011c-0.007,-0.006 -0.015,-0.012 -0.021,-0.018c-0.005,-0.005 -0.009,-0.009 -0.013,-0.013c-0.006,-0.007 -0.012,-0.014 -0.017,-0.022c-0.004,-0.005 -0.008,-0.01 -0.011,-0.015c-0.001,-0.002 -0.003,-0.004 -0.004,-0.006c-0.033,-0.059 -0.81,-1.462 -0.28,-2.406Zm0.516,1.605c0.802,-1.598 2.243,-1.655 2.311,-1.657c0.151,-0.004 0.276,0.1 0.28,0.233c0.005,0.132 -0.113,0.243 -0.265,0.247c-0.012,0 -1.2,0.048 -1.864,1.447l2.015,-0.731c0.723,-0.262 0.858,-1.509 0.842,-2.344c-0.435,0.299 -1.213,0.69 -2.496,0.912c-0.424,0.073 -0.701,0.236 -0.85,0.5c-0.229,0.407 -0.118,0.971 0.027,1.393Z" style="fill:#6a737d;fill-rule:nonzero;"/></g></g><g><g><path d="M61.234,31.255c0.267,0.189 0.416,0.501 0.444,0.928c0.093,1.426 0.587,1.926 0.591,1.93c0.054,0.052 0.074,0.137 0.048,0.214c-0.026,0.077 -0.091,0.129 -0.162,0.13c-0.207,0.002 -2.023,-0.009 -2.283,-1.06l-0.466,-1.887c-0.001,-0.001 -0.001,-0.003 -0.001,-0.004c-0.003,-0.011 -0.005,-0.022 -0.005,-0.034c-0.001,-0.009 -0.001,-0.018 -0,-0.028c0,-0.002 0,-0.005 0.001,-0.007c0,-0.008 0.002,-0.016 0.003,-0.024c0.001,-0.001 0.001,-0.003 0.001,-0.004c0.002,-0.009 0.004,-0.017 0.007,-0.025c0,-0 0.001,-0.001 0.001,-0.002c0.004,-0.011 0.009,-0.021 0.015,-0.031c0.001,-0.003 0.003,-0.006 0.005,-0.008c0.005,-0.007 0.009,-0.014 0.014,-0.02c0.003,-0.003 0.006,-0.006 0.009,-0.009c0.004,-0.005 0.009,-0.01 0.015,-0.014c0.003,-0.003 0.006,-0.006 0.01,-0.008c0.005,-0.004 0.011,-0.008 0.016,-0.011c0.004,-0.002 0.008,-0.004 0.012,-0.006c0.001,-0.001 0.003,-0.002 0.004,-0.003c0.045,-0.019 1.094,-0.462 1.721,-0.017Zm-1.173,0.244c1.069,0.686 1.002,1.708 0.998,1.757c-0.009,0.106 -0.092,0.187 -0.186,0.18c-0.094,-0.007 -0.163,-0.098 -0.154,-0.205c0.001,-0.009 0.056,-0.852 -0.883,-1.426l0.365,1.478c0.132,0.531 1.003,0.72 1.593,0.771c-0.178,-0.33 -0.396,-0.908 -0.457,-1.832c-0.019,-0.304 -0.114,-0.513 -0.289,-0.637c-0.271,-0.193 -0.678,-0.156 -0.987,-0.086Z" style="fill:#6a737d;fill-rule:nonzero;"/></g></g><g><g><path d="M38.592,58.389c0.168,0.318 0.488,0.524 0.95,0.613c1.541,0.298 2.017,0.907 2.02,0.911c0.049,0.067 0.139,0.1 0.227,0.082c0.087,-0.017 0.153,-0.081 0.164,-0.159c0.033,-0.225 0.283,-2.21 -0.826,-2.638l-1.992,-0.77c-0.002,-0 -0.003,-0.001 -0.005,-0.001c-0.011,-0.004 -0.023,-0.008 -0.035,-0.01c-0.011,-0.002 -0.021,-0.003 -0.031,-0.004c-0.003,-0 -0.006,-0 -0.009,-0c-0.008,-0.001 -0.017,-0 -0.026,0c-0.001,0 -0.003,0 -0.005,0.001c-0.009,0.001 -0.018,0.002 -0.027,0.004c-0.001,0 -0.002,0 -0.003,0.001c-0.012,0.003 -0.024,0.006 -0.036,0.011c-0.003,0.002 -0.007,0.004 -0.01,0.005c-0.008,0.004 -0.016,0.008 -0.023,0.013c-0.004,0.002 -0.008,0.005 -0.012,0.008c-0.006,0.004 -0.012,0.009 -0.017,0.014c-0.004,0.003 -0.007,0.006 -0.01,0.01c-0.005,0.005 -0.01,0.011 -0.014,0.017c-0.003,0.003 -0.006,0.007 -0.009,0.011c-0.001,0.002 -0.002,0.003 -0.003,0.005c-0.027,0.046 -0.663,1.13 -0.268,1.876Zm0.436,-1.247c0.595,1.262 1.72,1.33 1.773,1.332c0.118,0.005 0.218,-0.074 0.224,-0.178c0.006,-0.103 -0.084,-0.191 -0.202,-0.197c-0.01,-0 -0.938,-0.056 -1.428,-1.16l1.56,0.603c0.56,0.216 0.641,1.193 0.611,1.845c-0.334,-0.241 -0.934,-0.558 -1.933,-0.751c-0.329,-0.064 -0.543,-0.196 -0.654,-0.405c-0.17,-0.321 -0.072,-0.761 0.049,-1.089Z" style="fill:#6a737d;fill-rule:nonzero;"/></g></g><g><g><path d="M27.977,58.54c-0.216,0.135 -0.345,0.372 -0.385,0.704c-0.131,1.106 -0.536,1.474 -0.54,1.476c-0.044,0.038 -0.063,0.104 -0.046,0.165c0.017,0.061 0.066,0.104 0.122,0.108c0.16,0.011 1.578,0.086 1.823,-0.722l0.442,-1.449c0,-0.001 0,-0.002 0,-0.003c0.003,-0.008 0.005,-0.017 0.006,-0.026c0.001,-0.007 0.001,-0.014 0.001,-0.022c-0,-0.002 -0,-0.004 -0,-0.006c-0.001,-0.006 -0.001,-0.012 -0.002,-0.018c-0,-0.001 -0,-0.003 -0.001,-0.004c-0.001,-0.006 -0.002,-0.013 -0.004,-0.019c-0,-0.001 -0.001,-0.001 -0.001,-0.002c-0.002,-0.008 -0.006,-0.017 -0.01,-0.025c-0.001,-0.002 -0.003,-0.004 -0.004,-0.006c-0.003,-0.006 -0.006,-0.011 -0.01,-0.016c-0.002,-0.003 -0.004,-0.005 -0.006,-0.008c-0.004,-0.004 -0.007,-0.008 -0.011,-0.012c-0.003,-0.002 -0.005,-0.004 -0.008,-0.006c-0.004,-0.004 -0.008,-0.007 -0.012,-0.009c-0.003,-0.002 -0.006,-0.004 -0.009,-0.006c-0.001,-0 -0.002,-0.001 -0.003,-0.002c-0.034,-0.017 -0.835,-0.41 -1.342,-0.092Zm0.905,0.244c-0.862,0.486 -0.852,1.285 -0.851,1.323c0.003,0.084 0.064,0.151 0.138,0.15c0.073,-0.002 0.131,-0.07 0.129,-0.154c-0,-0.007 -0.009,-0.666 0.747,-1.07l-0.346,1.135c-0.124,0.407 -0.811,0.515 -1.274,0.528c0.153,-0.249 0.347,-0.69 0.432,-1.407c0.028,-0.236 0.11,-0.394 0.252,-0.483c0.219,-0.138 0.535,-0.091 0.773,-0.022Z" style="fill:#6a737d;fill-rule:nonzero;"/></g></g><g><g><path d="M49.478,22.503c-0.253,-0.024 -0.5,0.085 -0.733,0.324c-0.778,0.798 -1.324,0.843 -1.329,0.843c-0.058,0.003 -0.113,0.043 -0.137,0.102c-0.024,0.059 -0.011,0.123 0.031,0.16c0.121,0.107 1.199,1.03 1.887,0.539l1.233,-0.881c0.001,-0.001 0.001,-0.001 0.002,-0.002c0.007,-0.005 0.014,-0.011 0.02,-0.017c0.005,-0.006 0.01,-0.011 0.015,-0.017c0.001,-0.002 0.002,-0.003 0.003,-0.005c0.003,-0.005 0.007,-0.01 0.01,-0.016c0,-0.001 0.001,-0.002 0.002,-0.003c0.003,-0.006 0.005,-0.012 0.008,-0.018c-0,-0.001 -0,-0.001 0,-0.002c0.003,-0.008 0.006,-0.017 0.007,-0.026c0.001,-0.002 0.001,-0.005 0.001,-0.008c0.001,-0.006 0.002,-0.012 0.002,-0.018c0,-0.004 -0,-0.007 -0,-0.01c-0.001,-0.006 -0.001,-0.011 -0.002,-0.016c-0,-0.003 -0.001,-0.007 -0.002,-0.01c-0.001,-0.005 -0.003,-0.01 -0.004,-0.015c-0.001,-0.003 -0.003,-0.006 -0.004,-0.009c-0,-0.001 -0.001,-0.003 -0.001,-0.004c-0.017,-0.034 -0.412,-0.834 -1.009,-0.891Zm0.57,0.745c-0.98,-0.14 -1.459,0.501 -1.481,0.532c-0.049,0.068 -0.041,0.158 0.018,0.202c0.059,0.044 0.146,0.025 0.195,-0.043c0.004,-0.005 0.399,-0.534 1.246,-0.394l-0.966,0.69c-0.347,0.248 -0.958,-0.086 -1.333,-0.357c0.273,-0.105 0.695,-0.337 1.199,-0.854c0.167,-0.17 0.329,-0.245 0.495,-0.23c0.258,0.025 0.48,0.254 0.627,0.454Z" style="fill:#6a737d;fill-rule:nonzero;"/></g></g><g><g><path d="M44.845,27.962c0.189,-0.305 0.205,-0.685 0.048,-1.128c-0.523,-1.481 -0.238,-2.199 -0.236,-2.204c0.033,-0.076 0.016,-0.17 -0.044,-0.237c-0.059,-0.067 -0.148,-0.091 -0.221,-0.061c-0.21,0.086 -2.049,0.873 -1.857,2.048l0.344,2.107c0,0.002 0.001,0.003 0.001,0.004c0.002,0.012 0.005,0.025 0.009,0.037c0.004,0.009 0.008,0.019 0.013,0.028c0.001,0.002 0.002,0.005 0.004,0.007c0.004,0.008 0.008,0.015 0.014,0.022c0.001,0.002 0.001,0.003 0.002,0.005c0.006,0.007 0.012,0.014 0.018,0.021c0.001,0.001 0.001,0.001 0.002,0.002c0.009,0.009 0.018,0.018 0.028,0.025c0.003,0.003 0.006,0.004 0.01,0.006c0.007,0.005 0.014,0.01 0.022,0.014c0.004,0.002 0.009,0.004 0.013,0.006c0.007,0.003 0.014,0.006 0.021,0.008c0.005,0.001 0.009,0.003 0.014,0.004c0.007,0.001 0.014,0.002 0.021,0.003c0.005,0.001 0.01,0.001 0.014,0.002c0.002,-0 0.004,0 0.006,0c0.053,0 1.31,-0 1.754,-0.719Zm-1.296,0.256c0.788,-1.152 0.277,-2.156 0.252,-2.204c-0.055,-0.104 -0.175,-0.15 -0.267,-0.103c-0.092,0.047 -0.123,0.169 -0.068,0.274c0.005,0.009 0.426,0.837 -0.278,1.819l-0.27,-1.65c-0.096,-0.593 0.706,-1.157 1.283,-1.461c-0.039,0.409 -0.009,1.088 0.33,2.047c0.112,0.317 0.106,0.568 -0.018,0.769c-0.191,0.31 -0.62,0.447 -0.964,0.509Z" style="fill:#6a737d;fill-rule:nonzero;"/></g></g><g><g><path d="M42.321,56.177c0.018,-0.035 0.043,-0.066 0.076,-0.093c0.102,-0.081 0.265,-0.107 0.396,-0.063c0.043,0.014 0.083,0.035 0.119,0.063c0.033,0.026 0.059,0.058 0.077,0.093c0.018,0.035 0.029,0.073 0.029,0.11c-0,0.041 -0.011,0.078 -0.029,0.113c-0.018,0.035 -0.044,0.067 -0.077,0.093c-0.036,0.028 -0.076,0.049 -0.119,0.063c-0.044,0.015 -0.091,0.023 -0.138,0.023c-0.048,0 -0.095,-0.008 -0.138,-0.023c-0.044,-0.014 -0.084,-0.035 -0.12,-0.063c-0.033,-0.026 -0.058,-0.058 -0.076,-0.093c-0.022,-0.035 -0.03,-0.072 -0.03,-0.113c0,-0.037 0.008,-0.075 0.03,-0.11Z" style="fill:#6a737d;fill-rule:nonzero;"/></g></g><g><g><path d="M41.091,49.279c0.088,-0.071 0.226,-0.093 0.342,-0.055c0.038,0.012 0.072,0.03 0.104,0.055c0.056,0.045 0.091,0.11 0.091,0.175c-0,0.035 -0.006,0.067 -0.025,0.097c-0.016,0.03 -0.038,0.058 -0.066,0.08c-0.06,0.048 -0.138,0.073 -0.223,0.073c-0.085,-0 -0.163,-0.025 -0.223,-0.073c-0.028,-0.022 -0.05,-0.05 -0.066,-0.08c-0.019,-0.03 -0.025,-0.062 -0.025,-0.097c-0,-0.065 0.035,-0.13 0.091,-0.175Z" style="fill:#6a737d;fill-rule:nonzero;"/></g></g><g><g><path d="M53.804,46.582c0.099,-0.079 0.254,-0.104 0.384,-0.062c0.043,0.014 0.082,0.034 0.117,0.062c0.063,0.05 0.102,0.124 0.102,0.197c-0,0.039 -0.007,0.075 -0.028,0.109c-0.018,0.034 -0.043,0.065 -0.074,0.09c-0.067,0.053 -0.155,0.081 -0.251,0.081c-0.095,0 -0.183,-0.028 -0.25,-0.081c-0.031,-0.025 -0.056,-0.056 -0.074,-0.09c-0.021,-0.034 -0.028,-0.07 -0.028,-0.109c-0,-0.073 0.039,-0.147 0.102,-0.197Z" style="fill:#6a737d;fill-rule:nonzero;"/></g></g><g><g><path d="M32.524,32.379c0.016,-0.029 0.037,-0.056 0.064,-0.077c0.116,-0.092 0.316,-0.092 0.432,-0c0.054,0.043 0.088,0.106 0.088,0.169c-0,0.066 -0.034,0.126 -0.088,0.172c-0.058,0.046 -0.137,0.07 -0.216,0.07c-0.079,0 -0.158,-0.024 -0.216,-0.07c-0.027,-0.022 -0.048,-0.048 -0.064,-0.078c-0.018,-0.031 -0.024,-0.062 -0.024,-0.094c-0,-0.031 0.006,-0.063 0.024,-0.092Z" style="fill:#6a737d;fill-rule:nonzero;"/></g></g><g><g><path d="M50.38,36.635c0.014,-0.026 0.034,-0.051 0.059,-0.071c0.107,-0.085 0.292,-0.085 0.399,-0c0.05,0.04 0.081,0.098 0.081,0.156c0,0.061 -0.031,0.117 -0.081,0.159c-0.054,0.043 -0.127,0.065 -0.2,0.065c-0.073,0 -0.146,-0.022 -0.199,-0.065c-0.025,-0.02 -0.045,-0.044 -0.059,-0.071c-0.017,-0.029 -0.023,-0.058 -0.023,-0.088c0,-0.029 0.006,-0.058 0.023,-0.085Z" style="fill:#6a737d;fill-rule:nonzero;"/></g></g><g><g><path d="M29.01,27.032c0.005,-0.027 0.014,-0.05 0.029,-0.074c0.009,-0.023 0.024,-0.046 0.044,-0.065c0.019,-0.023 0.038,-0.043 0.057,-0.058c0.025,-0.019 0.049,-0.035 0.073,-0.05c0.029,-0.012 0.058,-0.027 0.087,-0.035c0.029,-0.011 0.058,-0.015 0.088,-0.023c0.159,-0.023 0.324,0.016 0.44,0.108c0.087,0.07 0.14,0.17 0.14,0.27c0,0.054 -0.014,0.1 -0.038,0.15c-0.025,0.047 -0.058,0.089 -0.102,0.124c-0.048,0.035 -0.102,0.066 -0.16,0.085c-0.058,0.019 -0.121,0.027 -0.184,0.027c-0.029,-0 -0.063,-0 -0.096,-0.008c-0.03,-0.004 -0.059,-0.011 -0.088,-0.019c-0.029,-0.012 -0.058,-0.023 -0.087,-0.035c-0.024,-0.015 -0.048,-0.031 -0.073,-0.05c-0.087,-0.073 -0.14,-0.17 -0.14,-0.274c0,-0.023 0.005,-0.05 0.01,-0.073Z" style="fill:#6a737d;fill-rule:nonzero;"/></g></g><g><g><path d="M38.613,31.206c0.003,-0.016 0.009,-0.031 0.018,-0.045c0.006,-0.014 0.015,-0.028 0.027,-0.04c0.009,-0.014 0.023,-0.026 0.035,-0.035c0.03,-0.024 0.062,-0.04 0.098,-0.052c0.071,-0.024 0.154,-0.024 0.225,-0c0.038,0.012 0.068,0.028 0.097,0.052c0.012,0.009 0.024,0.021 0.036,0.035c0.012,0.012 0.021,0.026 0.027,0.04c0.009,0.014 0.014,0.029 0.017,0.045c0.003,0.014 0.006,0.031 0.006,0.045c0,0.016 -0.003,0.031 -0.006,0.047c-0.003,0.014 -0.008,0.031 -0.017,0.045c-0.006,0.014 -0.015,0.026 -0.027,0.04c-0.012,0.012 -0.024,0.024 -0.036,0.035c-0.029,0.022 -0.059,0.041 -0.097,0.052c-0.036,0.012 -0.074,0.017 -0.113,0.017c-0.038,-0 -0.077,-0.005 -0.112,-0.017c-0.036,-0.011 -0.068,-0.03 -0.098,-0.052c-0.053,-0.044 -0.086,-0.103 -0.086,-0.167c0,-0.014 0.003,-0.031 0.006,-0.045Z" style="fill:#6a737d;fill-rule:nonzero;"/></g></g><g><g><path d="M52.988,28.991c0.021,-0.04 0.051,-0.077 0.089,-0.107c0.097,-0.081 0.245,-0.115 0.385,-0.095c0.025,0.007 0.051,0.01 0.076,0.02c0.025,0.007 0.051,0.021 0.076,0.031c0.021,0.013 0.042,0.027 0.063,0.044c0.039,0.03 0.068,0.067 0.089,0.107c0.022,0.041 0.034,0.085 0.034,0.129c0,0.047 -0.012,0.087 -0.034,0.131c-0.021,0.04 -0.05,0.077 -0.089,0.108c-0.021,0.017 -0.042,0.03 -0.063,0.044c-0.025,0.01 -0.051,0.02 -0.076,0.03c-0.025,0.007 -0.051,0.013 -0.076,0.017c-0.03,0.007 -0.059,0.007 -0.085,0.007c-0.11,-0 -0.22,-0.034 -0.3,-0.098c-0.038,-0.031 -0.068,-0.068 -0.089,-0.108c-0.021,-0.044 -0.034,-0.084 -0.034,-0.131c0,-0.044 0.013,-0.088 0.034,-0.129Z" style="fill:#6a737d;fill-rule:nonzero;"/></g></g><g><g><path d="M20.508,29.959c0.004,-0.023 0.013,-0.042 0.025,-0.062c0.008,-0.02 0.021,-0.039 0.037,-0.056c0.016,-0.019 0.033,-0.036 0.049,-0.049c0.041,-0.033 0.086,-0.055 0.136,-0.072c0.074,-0.026 0.156,-0.033 0.238,-0.019c0.025,0.006 0.049,0.009 0.074,0.019c0.025,0.007 0.049,0.02 0.074,0.03c0.021,0.013 0.041,0.026 0.061,0.042c0.075,0.059 0.12,0.144 0.12,0.229c-0,0.046 -0.013,0.085 -0.033,0.128c-0.021,0.039 -0.049,0.075 -0.087,0.105c-0.02,0.016 -0.04,0.029 -0.061,0.039c-0.025,0.013 -0.049,0.023 -0.074,0.033c-0.025,0.006 -0.049,0.013 -0.074,0.016c-0.029,0.007 -0.058,0.007 -0.082,0.007c-0.107,-0 -0.214,-0.033 -0.292,-0.095c-0.074,-0.062 -0.119,-0.147 -0.119,-0.233c0,-0.019 0.004,-0.042 0.008,-0.062Z" style="fill:#6a737d;fill-rule:nonzero;"/></g></g><g><g><path d="M12.506,36.945c0.003,-0.017 0.009,-0.031 0.018,-0.045c0.006,-0.014 0.014,-0.028 0.026,-0.04c0.012,-0.014 0.024,-0.026 0.035,-0.035c0.03,-0.024 0.062,-0.04 0.098,-0.052c0.053,-0.019 0.112,-0.023 0.171,-0.014c0.018,0.005 0.035,0.007 0.053,0.014c0.018,0.005 0.035,0.014 0.053,0.021c0.015,0.01 0.03,0.019 0.044,0.031c0.053,0.042 0.086,0.103 0.086,0.164c-0,0.033 -0.009,0.061 -0.024,0.092c-0.015,0.028 -0.035,0.054 -0.062,0.075c-0.014,0.012 -0.029,0.021 -0.044,0.028c-0.018,0.01 -0.035,0.017 -0.053,0.024c-0.018,0.004 -0.035,0.009 -0.053,0.012c-0.021,0.004 -0.041,0.004 -0.059,0.004c-0.077,0 -0.153,-0.023 -0.209,-0.068c-0.053,-0.044 -0.086,-0.106 -0.086,-0.167c0,-0.014 0.003,-0.03 0.006,-0.044Z" style="fill:#6a737d;fill-rule:nonzero;"/></g></g><g><g><path d="M10.446,29.926c3.184,-1.934 8.764,-0.881 16.587,3.131c7.405,3.798 10.094,3.012 11.038,2.204c1.587,-1.356 0.955,-4.785 0.577,-5.992c-0.156,-0.501 0.124,-1.046 0.627,-1.217c0.502,-0.172 1.038,0.096 1.195,0.597c0.072,0.226 1.717,5.575 -1.179,8.056c-2.365,2.027 -6.669,1.396 -13.16,-1.935c-9.397,-4.82 -13.244,-4.091 -14.698,-3.227c-1.406,0.835 -1.492,2.268 -1.495,2.319c-0.014,0.53 -0.454,0.958 -0.981,0.957c-0.071,-0.001 -0.141,-0.009 -0.207,-0.024c-0.425,-0.097 -0.733,-0.481 -0.72,-0.939c0.003,-0.102 0.097,-2.522 2.416,-3.93Z" style="fill-rule:nonzero;"/></g></g><g><g><path d="M55.55,43.39c0.451,0.089 0.824,0.403 1.106,0.936c0.942,1.775 1.865,2.133 1.872,2.136c0.1,0.034 0.174,0.133 0.186,0.247c0.011,0.113 -0.042,0.217 -0.134,0.26c-0.264,0.122 -2.601,1.157 -3.542,-0.043l-1.689,-2.153c-0.001,-0.001 -0.001,-0.003 -0.003,-0.004c-0.009,-0.013 -0.018,-0.026 -0.026,-0.041c-0.006,-0.011 -0.011,-0.024 -0.016,-0.036c-0.001,-0.003 -0.002,-0.007 -0.003,-0.01c-0.004,-0.01 -0.007,-0.021 -0.009,-0.032c-0.001,-0.002 -0.001,-0.004 -0.002,-0.007c-0.002,-0.011 -0.004,-0.023 -0.005,-0.035c0,-0.001 0.001,-0.002 0,-0.003c-0.001,-0.016 -0.001,-0.032 0.001,-0.048c0.001,-0.005 0.002,-0.01 0.002,-0.015c0.002,-0.011 0.004,-0.022 0.007,-0.032c0.002,-0.006 0.004,-0.012 0.006,-0.018c0.003,-0.009 0.006,-0.018 0.01,-0.026c0.003,-0.006 0.006,-0.011 0.009,-0.016c0.004,-0.008 0.01,-0.016 0.015,-0.023c0.004,-0.005 0.007,-0.01 0.011,-0.015c0.002,-0.002 0.003,-0.004 0.005,-0.006c0.046,-0.05 1.136,-1.225 2.199,-1.016Zm-1.365,0.99c1.768,0.264 2.272,1.615 2.295,1.68c0.051,0.142 -0.009,0.294 -0.134,0.339c-0.125,0.045 -0.266,-0.032 -0.317,-0.175c-0.004,-0.012 -0.42,-1.126 -1.957,-1.32l1.323,1.686c0.475,0.606 1.702,0.345 2.49,0.07c-0.42,-0.32 -1.034,-0.937 -1.644,-2.088c-0.202,-0.379 -0.444,-0.592 -0.74,-0.651c-0.459,-0.091 -0.96,0.191 -1.316,0.459Z" style="fill:#6a737d;fill-rule:nonzero;"/></g></g><g><g><path d="M37.957,44.013c-0.097,0.313 -0.347,0.552 -0.744,0.712c-1.325,0.532 -1.647,1.158 -1.649,1.163c-0.032,0.067 -0.107,0.112 -0.189,0.112c-0.081,-0 -0.15,-0.046 -0.173,-0.114c-0.067,-0.195 -0.623,-1.924 0.295,-2.499l1.647,-1.032c0.002,-0 0.003,-0.001 0.004,-0.002c0.01,-0.005 0.02,-0.011 0.03,-0.015c0.009,-0.003 0.018,-0.006 0.027,-0.009c0.003,-0 0.005,-0.001 0.007,-0.001c0.008,-0.002 0.016,-0.003 0.024,-0.004c0.002,-0 0.003,-0.001 0.005,-0.001c0.008,-0.001 0.016,-0.001 0.025,-0.001c0.001,0 0.001,0.001 0.002,0.001c0.012,0 0.023,0.001 0.034,0.004c0.004,0 0.007,0.001 0.01,0.002c0.008,0.002 0.015,0.005 0.023,0.007c0.004,0.002 0.008,0.004 0.011,0.006c0.007,0.003 0.013,0.006 0.019,0.009c0.003,0.003 0.007,0.005 0.01,0.008c0.006,0.003 0.011,0.008 0.015,0.012c0.004,0.003 0.007,0.006 0.01,0.009c0.001,0.001 0.002,0.002 0.004,0.003c0.032,0.037 0.78,0.895 0.553,1.63Zm-0.598,-1.038c-0.318,1.229 -1.311,1.484 -1.358,1.496c-0.104,0.025 -0.207,-0.029 -0.229,-0.121c-0.023,-0.091 0.042,-0.185 0.147,-0.211c0.008,-0.001 0.827,-0.212 1.079,-1.283l-1.291,0.808c-0.463,0.29 -0.371,1.177 -0.235,1.754c0.257,-0.272 0.739,-0.66 1.598,-1.005c0.283,-0.114 0.452,-0.269 0.516,-0.474c0.098,-0.317 -0.063,-0.692 -0.227,-0.964Z" style="fill:#6a737d;fill-rule:nonzero;"/></g></g><g><g><path d="M35.982,29.694c-0.056,-0.248 -0.237,-0.449 -0.536,-0.596c-1.001,-0.49 -1.214,-0.995 -1.215,-0.999c-0.021,-0.055 -0.077,-0.094 -0.14,-0.099c-0.064,-0.004 -0.121,0.028 -0.143,0.079c-0.064,0.148 -0.604,1.461 0.077,1.961l1.221,0.897c0.001,0.001 0.002,0.001 0.003,0.002c0.007,0.005 0.015,0.009 0.023,0.013c0.006,0.004 0.013,0.006 0.02,0.009c0.002,0 0.004,0.001 0.006,0.001c0.006,0.002 0.012,0.004 0.018,0.005c0.001,-0 0.002,0 0.003,0c0.007,0.001 0.013,0.002 0.02,0.003c0,-0 0.001,-0.001 0.002,-0.001c0.009,0.001 0.018,0 0.027,-0.001c0.002,-0 0.005,-0.001 0.007,-0.001c0.007,-0.001 0.013,-0.003 0.019,-0.004c0.003,-0.001 0.006,-0.003 0.009,-0.004c0.005,-0.002 0.01,-0.004 0.015,-0.006c0.003,-0.002 0.006,-0.004 0.008,-0.005c0.005,-0.003 0.009,-0.006 0.013,-0.009c0.003,-0.002 0.005,-0.004 0.008,-0.006c0.001,-0.001 0.002,-0.002 0.003,-0.003c0.027,-0.026 0.664,-0.651 0.532,-1.236Zm-0.53,0.773c-0.173,-0.974 -0.931,-1.23 -0.967,-1.241c-0.08,-0.026 -0.163,0.01 -0.187,0.08c-0.023,0.07 0.022,0.147 0.102,0.173c0.007,0.002 0.632,0.212 0.763,1.06l-0.957,-0.703c-0.343,-0.252 -0.217,-0.936 -0.076,-1.377c0.184,0.226 0.536,0.555 1.185,0.873c0.214,0.105 0.336,0.235 0.373,0.399c0.057,0.252 -0.092,0.534 -0.236,0.736Z" style="fill:#6a737d;fill-rule:nonzero;"/></g></g><g><g><path d="M52.65,37.308c0.349,0.084 0.715,-0.019 1.087,-0.306c1.244,-0.958 2.015,-0.912 2.021,-0.912c0.081,0.008 0.166,-0.038 0.211,-0.115c0.045,-0.077 0.041,-0.169 -0.011,-0.229c-0.147,-0.173 -1.469,-1.674 -2.525,-1.126l-1.895,0.984c-0.001,0 -0.002,0.001 -0.003,0.002c-0.011,0.006 -0.022,0.012 -0.032,0.02c-0.008,0.006 -0.016,0.014 -0.023,0.021c-0.002,0.002 -0.004,0.004 -0.006,0.006c-0.006,0.006 -0.011,0.013 -0.017,0.02c-0.001,0.001 -0.002,0.003 -0.003,0.004c-0.005,0.007 -0.01,0.015 -0.015,0.023c-0,0.001 -0,0.002 -0.001,0.003c-0.006,0.011 -0.011,0.023 -0.015,0.035c-0.001,0.003 -0.002,0.007 -0.003,0.01c-0.002,0.009 -0.005,0.017 -0.006,0.026c-0.001,0.005 -0.001,0.009 -0.002,0.014c-0,0.008 -0.001,0.015 -0,0.023c-0,0.004 -0,0.009 0,0.014c0.001,0.007 0.002,0.014 0.004,0.021c0.001,0.005 0.001,0.01 0.003,0.014c0,0.002 0,0.004 0.001,0.006c0.016,0.05 0.409,1.245 1.23,1.442Zm-0.647,-1.152c1.34,0.39 2.135,-0.409 2.172,-0.448c0.082,-0.084 0.088,-0.212 0.015,-0.285c-0.074,-0.073 -0.199,-0.064 -0.282,0.021c-0.006,0.007 -0.662,0.666 -1.815,0.303l1.485,-0.771c0.533,-0.277 1.318,0.31 1.787,0.763c-0.401,0.091 -1.036,0.331 -1.842,0.952c-0.266,0.205 -0.506,0.278 -0.736,0.223c-0.354,-0.085 -0.618,-0.45 -0.784,-0.758Z" style="fill:#6a737d;fill-rule:nonzero;"/></g></g><g><g><path d="M46.339,30.111c0.032,0.006 0.064,0.018 0.093,0.037c0.124,0.081 0.186,0.272 0.135,0.41c-0.024,0.066 -0.074,0.117 -0.134,0.137c-0.062,0.02 -0.13,0.007 -0.191,-0.031c-0.061,-0.04 -0.109,-0.108 -0.134,-0.183c-0.024,-0.075 -0.026,-0.157 -0,-0.227c0.012,-0.032 0.031,-0.061 0.054,-0.084c0.024,-0.028 0.052,-0.043 0.082,-0.053c0.03,-0.01 0.062,-0.014 0.095,-0.006Z" style="fill:#6a737d;fill-rule:nonzero;"/></g></g><g><g><path d="M50.324,25.105c0.027,-0.004 0.052,-0.002 0.079,0.005c0.025,0.002 0.051,0.008 0.076,0.021c0.028,0.011 0.052,0.023 0.073,0.037c0.025,0.017 0.048,0.035 0.07,0.053c0.02,0.024 0.044,0.047 0.06,0.072c0.02,0.024 0.033,0.051 0.049,0.076c0.072,0.144 0.087,0.313 0.035,0.452c-0.039,0.104 -0.118,0.186 -0.213,0.218c-0.051,0.016 -0.1,0.017 -0.155,0.01c-0.051,-0.009 -0.102,-0.028 -0.149,-0.058c-0.048,-0.036 -0.094,-0.077 -0.13,-0.126c-0.037,-0.049 -0.064,-0.106 -0.083,-0.166c-0.01,-0.028 -0.02,-0.06 -0.023,-0.094c-0.006,-0.029 -0.007,-0.059 -0.009,-0.089c0.002,-0.032 0.004,-0.063 0.006,-0.094c0.007,-0.028 0.014,-0.056 0.025,-0.085c0.042,-0.105 0.117,-0.186 0.216,-0.219c0.022,-0.007 0.049,-0.01 0.073,-0.013Z" style="fill:#6a737d;fill-rule:nonzero;"/></g></g><g><g><path d="M51.504,17.125c0.016,-0.003 0.032,-0.001 0.048,0.003c0.015,0.001 0.031,0.005 0.046,0.012c0.017,0.004 0.032,0.015 0.045,0.023c0.032,0.021 0.057,0.047 0.08,0.077c0.044,0.06 0.07,0.139 0.07,0.213c0.001,0.041 -0.006,0.074 -0.019,0.109c-0.005,0.015 -0.013,0.03 -0.023,0.045c-0.007,0.015 -0.018,0.028 -0.029,0.038c-0.011,0.013 -0.023,0.023 -0.037,0.031c-0.013,0.007 -0.028,0.015 -0.041,0.019c-0.016,0.006 -0.03,0.007 -0.047,0.009c-0.014,0.002 -0.032,0.002 -0.048,-0.002c-0.015,-0.002 -0.029,-0.006 -0.046,-0.013c-0.015,-0.008 -0.03,-0.015 -0.045,-0.023c-0.029,-0.021 -0.057,-0.044 -0.08,-0.076c-0.022,-0.031 -0.039,-0.066 -0.051,-0.102c-0.012,-0.037 -0.019,-0.075 -0.019,-0.112c0,-0.038 0.008,-0.074 0.019,-0.109c0.026,-0.065 0.072,-0.114 0.132,-0.134c0.014,-0.004 0.03,-0.007 0.045,-0.008Z" style="fill:#6a737d;fill-rule:nonzero;"/></g></g><g><g><path d="M58.09,30.092c0.045,0.008 0.089,0.024 0.13,0.051c0.107,0.067 0.185,0.197 0.21,0.336c0.001,0.027 0.006,0.052 0.004,0.079c0.002,0.026 -0.003,0.055 -0.005,0.082c-0.006,0.024 -0.012,0.049 -0.022,0.074c-0.017,0.046 -0.043,0.085 -0.074,0.118c-0.032,0.033 -0.07,0.058 -0.112,0.072c-0.045,0.015 -0.087,0.015 -0.135,0.009c-0.045,-0.008 -0.09,-0.024 -0.13,-0.051c-0.023,-0.015 -0.042,-0.031 -0.062,-0.047c-0.017,-0.021 -0.035,-0.042 -0.052,-0.062c-0.015,-0.022 -0.029,-0.044 -0.04,-0.068c-0.016,-0.025 -0.025,-0.054 -0.033,-0.078c-0.034,-0.104 -0.037,-0.219 -0.001,-0.316c0.017,-0.045 0.043,-0.085 0.075,-0.118c0.035,-0.033 0.07,-0.058 0.114,-0.073c0.042,-0.014 0.088,-0.015 0.133,-0.008Z" style="fill:#6a737d;fill-rule:nonzero;"/></g></g><g><g><path d="M44.892,17.94c0.023,-0.003 0.044,-0.002 0.067,0.004c0.021,0.002 0.043,0.007 0.064,0.018c0.024,0.009 0.044,0.02 0.062,0.031c0.044,0.029 0.08,0.065 0.111,0.106c0.048,0.063 0.079,0.139 0.093,0.221c0.001,0.025 0.006,0.05 0.004,0.076c0.002,0.026 -0.003,0.053 -0.005,0.08c-0.006,0.023 -0.012,0.047 -0.021,0.071c-0.033,0.089 -0.1,0.159 -0.181,0.185c-0.043,0.014 -0.084,0.015 -0.131,0.009c-0.044,-0.008 -0.087,-0.024 -0.127,-0.05c-0.022,-0.014 -0.04,-0.029 -0.056,-0.046c-0.02,-0.019 -0.037,-0.04 -0.054,-0.06c-0.014,-0.021 -0.028,-0.043 -0.039,-0.065c-0.015,-0.025 -0.024,-0.053 -0.032,-0.076c-0.033,-0.102 -0.035,-0.213 -0.001,-0.307c0.036,-0.089 0.103,-0.159 0.184,-0.186c0.019,-0.006 0.042,-0.009 0.062,-0.011Z" style="fill:#6a737d;fill-rule:nonzero;"/></g></g><g><g><path d="M35.76,12.514c0.016,-0.002 0.031,-0.001 0.048,0.003c0.015,0.001 0.031,0.005 0.046,0.013c0.017,0.007 0.032,0.014 0.044,0.023c0.032,0.02 0.058,0.046 0.08,0.076c0.034,0.045 0.057,0.099 0.066,0.158c0.001,0.018 0.005,0.036 0.004,0.055c0.001,0.018 -0.003,0.038 -0.004,0.057c-0.004,0.017 -0.009,0.034 -0.015,0.051c-0.024,0.064 -0.072,0.114 -0.13,0.133c-0.031,0.01 -0.061,0.011 -0.094,0.006c-0.032,-0.005 -0.063,-0.017 -0.091,-0.035c-0.016,-0.011 -0.029,-0.022 -0.041,-0.034c-0.014,-0.013 -0.026,-0.028 -0.038,-0.043c-0.01,-0.015 -0.02,-0.03 -0.028,-0.046c-0.011,-0.018 -0.018,-0.038 -0.023,-0.055c-0.024,-0.073 -0.026,-0.153 -0.001,-0.22c0.026,-0.064 0.074,-0.114 0.132,-0.133c0.014,-0.005 0.03,-0.007 0.045,-0.009Z" style="fill:#6a737d;fill-rule:nonzero;"/></g></g><g><g><path d="M12.649,47.911c0.399,-0.222 9.878,-5.403 19.582,-1.54c6.574,2.62 6.758,5.685 6.533,6.882c-0.392,2.077 -2.749,3.75 -5.865,4.164c-0.415,0.055 -0.804,0.083 -1.166,0.083c-1.207,0 -2.118,-0.305 -2.717,-0.913c-1.522,-1.545 -0.09,-4.335 0.079,-4.648c0.202,-0.376 0.748,-0.552 1.222,-0.39c0.472,0.161 0.692,0.597 0.49,0.974c-0.393,0.736 -0.989,2.475 -0.325,3.148c0.406,0.41 1.372,0.38 2.11,0.282c2.318,-0.308 4.058,-1.482 4.329,-2.921c0.349,-1.851 -1.664,-3.795 -5.524,-5.333c-8.693,-3.465 -17.591,1.379 -17.68,1.43c-0.423,0.234 -1.003,0.151 -1.297,-0.185c-0.294,-0.335 -0.192,-0.798 0.229,-1.033Z" style="fill-rule:nonzero;"/></g></g><g><g><path d="M7.919,40.223c0.662,-0.217 16.401,-5.251 32.424,0.757c5.226,1.961 10.255,1.815 13.793,-0.398c2.428,-1.517 3.732,-3.825 3.246,-5.742c-0.362,-1.425 -1.644,-2.416 -3.708,-2.865c-2.581,-0.561 -4.495,-0.409 -5.691,0.45c-2.273,1.633 -1.536,5.356 -1.529,5.394c0.083,0.404 -0.26,0.786 -0.767,0.853c-0.508,0.068 -0.987,-0.206 -1.071,-0.61c-0.038,-0.185 -0.912,-4.556 2.114,-6.736c1.699,-1.223 4.199,-1.486 7.434,-0.783c2.749,0.597 4.54,2.019 5.044,4.003c0.622,2.454 -0.953,5.349 -3.922,7.204c-2.225,1.391 -4.924,2.091 -7.866,2.091c-2.497,-0 -5.168,-0.504 -7.871,-1.517c-15.261,-5.724 -30.767,-0.778 -30.921,-0.728c-0.477,0.156 -1.02,-0.026 -1.216,-0.405c-0.195,-0.379 0.032,-0.812 0.507,-0.968Z" style="fill-rule:nonzero;"/></g></g></g></svg>