<?xml version="1.0" encoding="UTF-8" standalone="no"?><!DOCTYPE svg PUBLIC "-//W3C//DTD SVG 1.1//EN" "http://www.w3.org/Graphics/SVG/1.1/DTD/svg11.dtd"><svg width="100%" height="100%" viewBox="0 0 100 100" version="1.1" xmlns="http://www.w3.org/2000/svg" xmlns:xlink="http://www.w3.org/1999/xlink" xml:space="preserve" xmlns:serif="http://www.serif.com/" style="fill-rule:evenodd;clip-rule:evenodd;stroke-linejoin:round;stroke-miterlimit:2;"><path d="M40.131,50.138c5.008,0.775 8.959,4.725 9.731,9.731c0.028,0.175 0.251,0.175 0.276,-0c0.775,-5.008 4.725,-8.959 9.731,-9.731c0.175,-0.028 0.175,-0.251 -0,-0.276c-5.008,-0.775 -8.959,-4.725 -9.731,-9.731c-0.028,-0.175 -0.251,-0.175 -0.276,0c-0.775,5.008 -4.725,8.959 -9.731,9.731c-0.175,0.025 -0.175,0.248 0,0.276Z" style="fill:#ffffe0;fill-rule:nonzero;"/><path d="M40.131,50.138c5.008,0.775 8.959,4.725 9.731,9.731c0.028,0.175 0.251,0.175 0.276,-0c0.775,-5.008 4.725,-8.959 9.731,-9.731c0.175,-0.028 0.175,-0.251 -0,-0.276c-5.008,-0.775 -8.959,-4.725 -9.731,-9.731c-0.028,-0.175 -0.251,-0.175 -0.276,0c-0.775,5.008 -4.725,8.959 -9.731,9.731c-0.175,0.025 -0.175,0.248 0,0.276Zm9.864,-3.761c0.977,1.413 2.207,2.642 3.626,3.62c-1.412,0.976 -2.64,2.206 -3.618,3.624c-0.978,-1.416 -2.211,-2.645 -3.632,-3.624c1.417,-0.977 2.647,-2.205 3.624,-3.62Z" style="fill:#ffd700;"/><path d="M14.197,21.207c7.509,1.163 13.433,7.087 14.596,14.596c0.04,0.263 0.372,0.263 0.414,0c1.163,-7.509 7.087,-13.433 14.596,-14.596c0.263,-0.04 0.263,-0.372 0,-0.414c-7.511,-1.163 -13.436,-7.087 -14.598,-14.596c-0.04,-0.263 -0.372,-0.263 -0.415,-0c-1.16,7.509 -7.084,13.433 -14.593,14.596c-0.263,0.04 -0.263,0.372 -0,0.414Z" style="fill:#ffffe0;fill-rule:nonzero;"/><path d="M14.197,21.207c7.509,1.163 13.433,7.087 14.596,14.596c0.04,0.263 0.372,0.263 0.414,0c1.163,-7.509 7.087,-13.433 14.596,-14.596c0.263,-0.04 0.263,-0.372 0,-0.414c-7.511,-1.163 -13.436,-7.087 -14.598,-14.596c-0.04,-0.263 -0.372,-0.263 -0.415,-0c-1.16,7.509 -7.084,13.433 -14.593,14.596c-0.263,0.04 -0.263,0.372 -0,0.414Zm14.802,-7.027c1.699,2.779 4.042,5.122 6.822,6.821c-2.78,1.699 -5.123,4.041 -6.821,6.821c-1.7,-2.781 -4.042,-5.124 -6.822,-6.822c2.78,-1.699 5.122,-4.041 6.821,-6.82Z" style="fill:#ffd700;"/><path d="M72.577,26.572c-3.336,-0.516 -5.968,-3.148 -6.485,-6.485c-0.017,-0.116 -0.167,-0.116 -0.184,-0c-0.516,3.336 -3.148,5.968 -6.485,6.485c-0.116,0.017 -0.116,0.166 0,0.184c3.336,0.515 5.968,3.147 6.485,6.484c0.017,0.116 0.167,0.116 0.184,0c0.516,-3.335 3.148,-5.967 6.485,-6.484c0.116,-0.018 0.116,-0.166 -0,-0.184Z" style="fill:#ffffe0;fill-rule:nonzero;"/><path d="M72.577,26.572c-3.336,-0.516 -5.968,-3.148 -6.485,-6.485c-0.017,-0.116 -0.167,-0.116 -0.184,-0c-0.516,3.336 -3.148,5.968 -6.485,6.485c-0.116,0.017 -0.116,0.166 0,0.184c3.336,0.515 5.968,3.147 6.485,6.484c0.017,0.116 0.167,0.116 0.184,0c0.516,-3.335 3.148,-5.967 6.485,-6.484c0.116,-0.018 0.116,-0.166 -0,-0.184Zm-6.576,-2.758c0.727,1.148 1.702,2.122 2.849,2.85c-1.148,0.728 -2.123,1.702 -2.851,2.849c-0.727,-1.148 -1.702,-2.122 -2.849,-2.85c1.148,-0.728 2.123,-1.702 2.851,-2.849Z" style="fill:#ffd700;"/><path d="M89.935,14.931c-2.484,-0.387 -4.444,-2.363 -4.827,-4.865c-0.014,-0.088 -0.124,-0.088 -0.137,-0c-0.384,2.504 -2.344,4.479 -4.827,4.865c-0.087,0.014 -0.087,0.125 0,0.138c2.484,0.387 4.444,2.363 4.827,4.865c0.014,0.088 0.124,0.088 0.137,0c0.384,-2.504 2.344,-4.479 4.827,-4.865c0.087,-0.013 0.087,-0.124 -0,-0.138Z" style="fill:#ffffe0;fill-rule:nonzero;"/><path d="M89.935,14.931c-2.484,-0.387 -4.444,-2.363 -4.827,-4.865c-0.014,-0.088 -0.124,-0.088 -0.137,-0c-0.384,2.504 -2.344,4.479 -4.827,4.865c-0.087,0.014 -0.087,0.125 0,0.138c2.484,0.387 4.444,2.363 4.827,4.865c0.014,0.088 0.124,0.088 0.137,0c0.384,-2.504 2.344,-4.479 4.827,-4.865c0.087,-0.013 0.087,-0.124 -0,-0.138Zm-4.896,-2.192c0.562,0.922 1.336,1.698 2.252,2.262c-0.917,0.564 -1.689,1.34 -2.251,2.26c-0.562,-0.921 -1.335,-1.697 -2.251,-2.261c0.916,-0.563 1.689,-1.34 2.25,-2.261Z" style="fill:#ffd700;"/><path d="M35.79,70.866c-7.993,-1.247 -14.298,-7.602 -15.531,-15.655c-0.044,-0.281 -0.399,-0.281 -0.439,0c-1.237,8.057 -7.542,14.412 -15.531,15.655c-0.28,0.045 -0.28,0.403 -0,0.443c7.993,1.247 14.298,7.602 15.531,15.655c0.044,0.282 0.399,0.282 0.439,0c1.237,-8.057 7.542,-14.412 15.531,-15.655c0.28,-0.04 0.28,-0.398 0,-0.443Z" style="fill:#ffffe0;fill-rule:nonzero;"/><path d="M35.79,70.866c-7.993,-1.247 -14.298,-7.602 -15.531,-15.655c-0.044,-0.281 -0.399,-0.281 -0.439,0c-1.237,8.057 -7.542,14.412 -15.531,15.655c-0.28,0.045 -0.28,0.403 -0,0.443c7.993,1.247 14.298,7.602 15.531,15.655c0.044,0.282 0.399,0.282 0.439,0c1.237,-8.057 7.542,-14.412 15.531,-15.655c0.28,-0.04 0.28,-0.398 0,-0.443Zm-15.751,-8.499c1.972,3.701 5.001,6.744 8.68,8.722c-3.681,1.98 -6.707,5.021 -8.679,8.72c-1.971,-3.7 -4.998,-6.742 -8.676,-8.721c3.676,-1.978 6.703,-5.02 8.675,-8.721Z" style="fill:#ffd700;"/><path d="M93.061,60.108c-5.054,-0.794 -9.042,-4.842 -9.825,-9.973c-0.027,-0.18 -0.25,-0.18 -0.279,-0c-0.782,5.131 -4.77,9.179 -9.824,9.973c-0.177,0.028 -0.177,0.255 -0,0.284c5.056,0.794 9.043,4.842 9.826,9.973c0.027,0.18 0.25,0.18 0.279,0c0.781,-5.131 4.769,-9.179 9.823,-9.973c0.177,-0.028 0.177,-0.255 0,-0.284Z" style="fill:#ffffe0;fill-rule:nonzero;"/><path d="M93.061,60.108c-5.054,-0.794 -9.042,-4.842 -9.825,-9.973c-0.027,-0.18 -0.25,-0.18 -0.279,-0c-0.782,5.131 -4.77,9.179 -9.824,9.973c-0.177,0.028 -0.177,0.255 -0,0.284c5.056,0.794 9.043,4.842 9.826,9.973c0.027,0.18 0.25,0.18 0.279,0c0.781,-5.131 4.769,-9.179 9.823,-9.973c0.177,-0.028 0.177,-0.255 0,-0.284Zm-9.964,-4.007c1.072,1.656 2.474,3.071 4.112,4.149c-1.638,1.079 -3.04,2.493 -4.111,4.148c-1.072,-1.656 -2.475,-3.07 -4.113,-4.149c1.638,-1.078 3.04,-2.493 4.112,-4.148Z" style="fill:#ffd700;"/></svg>