<?xml version="1.0" encoding="UTF-8" standalone="no"?><!DOCTYPE svg PUBLIC "-//W3C//DTD SVG 1.1//EN" "http://www.w3.org/Graphics/SVG/1.1/DTD/svg11.dtd"><svg width="100%" height="100%" viewBox="0 0 100 100" version="1.1" xmlns="http://www.w3.org/2000/svg" xmlns:xlink="http://www.w3.org/1999/xlink" xml:space="preserve" xmlns:serif="http://www.serif.com/" style="fill-rule:evenodd;clip-rule:evenodd;stroke-linejoin:round;stroke-miterlimit:2;"><g><path d="M88.906,9.134c-0.266,-0.036 -0.525,-0.066 -0.779,-0.097c-0.229,-0.026 -0.45,-0.055 -0.666,-0.084c-2.051,-0.279 -4.061,0.069 -5.913,0.831c-1.393,-2.221 -1.977,-4.162 -1.791,-5.528c0.23,-1.696 1.792,-2.885 3.489,-2.654c0.925,0.125 1.699,0.65 2.174,1.376c0.004,-0.099 0.01,-0.196 0.024,-0.295c0.231,-1.698 1.795,-2.885 3.491,-2.654c1.695,0.23 2.885,1.791 2.654,3.489c-0.006,0.046 -0.017,0.092 -0.025,0.136c0.541,-0.338 1.203,-0.498 1.886,-0.405c1.555,0.211 2.644,1.645 2.433,3.198c-0.142,1.05 -0.919,2.354 -2.49,3.99c-1.521,-0.754 -3.022,-1.103 -4.487,-1.303Z" style="fill:#e8f0e9;fill-rule:nonzero;"/><path d="M88.906,9.134l-1.445,-0.181c-2.051,-0.279 -4.061,0.069 -5.913,0.831c-1.393,-2.221 -1.977,-4.162 -1.791,-5.528c0.23,-1.696 1.792,-2.885 3.489,-2.654c0.925,0.125 1.699,0.65 2.174,1.376c0.004,-0.099 0.01,-0.196 0.024,-0.295c0.231,-1.698 1.795,-2.885 3.491,-2.654c1.695,0.23 2.885,1.791 2.654,3.489c-0.006,0.046 -0.017,0.092 -0.025,0.136c0.541,-0.338 1.203,-0.498 1.886,-0.405c1.555,0.211 2.644,1.645 2.433,3.198c-0.142,1.05 -0.919,2.354 -2.49,3.99c-1.521,-0.754 -3.022,-1.103 -4.487,-1.303Zm0.135,-0.99l-1.446,-0.182c-1.933,-0.263 -3.834,-0.018 -5.617,0.592c-0.943,-1.665 -1.374,-3.102 -1.23,-4.163c0.156,-1.149 1.214,-1.954 2.363,-1.798c0.627,0.085 1.151,0.44 1.472,0.932c0.239,0.364 0.685,0.533 1.105,0.416c0.42,-0.117 0.715,-0.491 0.732,-0.927l0.015,-0.197c0.156,-1.15 1.216,-1.954 2.365,-1.797c1.148,0.156 1.954,1.212 1.798,2.362c-0.004,0.034 -0.014,0.068 -0.019,0.101c-0.068,0.389 0.099,0.781 0.427,1.001c0.327,0.221 0.754,0.228 1.088,0.018c0.351,-0.219 0.779,-0.322 1.222,-0.262c1.007,0.137 1.713,1.066 1.576,2.073c0,-0 0,-0 0,-0c-0.108,0.798 -0.682,1.738 -1.738,2.913c-1.392,-0.594 -2.766,-0.899 -4.113,-1.082Z" style="fill:#e8f0e9;"/><path d="M19.617,10.597c6.427,-5.183 17.781,-4.725 24.012,3.739c6.683,9.082 9.545,17.246 16.07,18.342c9.302,1.56 12.604,-5.274 14.798,-11.442c0.46,-1.084 0.852,-2.483 1.328,-3.463c1.943,-4.029 6.711,-7.671 11.381,-7.037c2.353,0.32 5.473,0.361 8.868,4.412c0.907,1.278 2.82,4.144 3.75,6.109c1.043,2.211 -2.826,1.327 -4.464,1.297c-2.266,-0.042 -3.741,0.836 -4.759,2.192c-3.277,4.126 -3.1,7.786 -4.572,15.229c-1.997,10.087 -6.477,15.291 -11.905,18.542c-4.24,2.54 -10.225,3.794 -16.302,3.324l-1.377,10.135l23.448,3.186l-0.139,-3.473c-0.016,-0.423 0.206,-0.82 0.574,-1.025c0.371,-0.208 0.824,-0.19 1.175,0.047l10.318,6.92c0.355,0.239 0.545,0.661 0.487,1.085c-0.057,0.424 -0.353,0.78 -0.759,0.915l-11.79,3.917c-0.401,0.134 -0.843,0.03 -1.145,-0.268c-0.3,-0.297 -0.408,-0.738 -0.28,-1.141l1.061,-3.311l-23.449,-3.186l-1.494,10.998c6.971,1.845 11.733,8.957 11.733,13.36l-31.252,0c1.302,-9.115 8.174,-13.781 15.211,-13.887l1.502,-11.055l-18.256,-2.48l-4.034,3.921l-12.279,-1.668l4.938,-5.666l-3.247,-6.778l12.279,1.668l2.841,4.856l18.256,2.481l1.384,-10.183c-8.689,-1.888 -16.756,-7.573 -19.245,-18.386c-5.019,0.607 -8.033,-7.797 -4.459,-10.298c-6.828,2.092 -12.268,-7.246 -5.824,-10.381c-8.372,0.289 -8.929,-7.881 -4.383,-11.547Zm68.277,9.1c1.064,0.145 2.047,-0.601 2.192,-1.667c0.145,-1.066 -0.604,-2.045 -1.668,-2.19c-1.065,-0.145 -2.046,0.6 -2.191,1.666c-0.145,1.065 0.602,2.046 1.667,2.191Z" style="fill:#e8f0e9;fill-rule:nonzero;"/><path d="M19.617,10.597c6.427,-5.183 17.781,-4.725 24.012,3.739c6.683,9.082 9.545,17.246 16.07,18.342c9.302,1.56 12.604,-5.274 14.798,-11.442c0.46,-1.084 0.852,-2.483 1.328,-3.463c1.943,-4.029 6.711,-7.671 11.381,-7.037c2.353,0.32 5.473,0.361 8.868,4.412c0.907,1.278 2.82,4.144 3.75,6.109c1.043,2.211 -2.826,1.327 -4.464,1.297c-2.266,-0.042 -3.741,0.836 -4.759,2.192c-3.277,4.126 -3.1,7.786 -4.572,15.229c-1.997,10.087 -6.477,15.291 -11.905,18.542c-4.24,2.54 -10.225,3.794 -16.302,3.324l-1.377,10.135l23.448,3.186l-0.139,-3.473c-0.016,-0.423 0.206,-0.82 0.574,-1.025c0.371,-0.208 0.824,-0.19 1.175,0.047l10.318,6.92c0.355,0.239 0.545,0.661 0.487,1.085c-0.057,0.424 -0.353,0.78 -0.759,0.915l-11.79,3.917c-0.401,0.134 -0.843,0.03 -1.145,-0.268c-0.3,-0.297 -0.408,-0.738 -0.28,-1.141l1.061,-3.311l-23.449,-3.186l-1.494,10.998c6.971,1.845 11.733,8.957 11.733,13.36l-31.252,0c1.302,-9.115 8.174,-13.781 15.211,-13.887l1.502,-11.055l-18.256,-2.48l-4.034,3.921l-12.279,-1.668l4.938,-5.666l-3.247,-6.778l12.279,1.668l2.841,4.856l18.256,2.481l1.384,-10.183c-8.689,-1.888 -16.756,-7.573 -19.245,-18.386c-5.019,0.607 -8.033,-7.797 -4.459,-10.298c-6.828,2.092 -12.268,-7.246 -5.824,-10.381c-8.372,0.289 -8.929,-7.881 -4.383,-11.547Zm79.301,11.083c-0.244,0.033 -0.641,0.079 -0.943,0.068c-0.918,-0.033 -1.937,-0.182 -2.597,-0.194c-2.658,-0.049 -4.38,0.999 -5.575,2.589c-3.358,4.234 -3.241,7.982 -4.755,15.638c-1.923,9.715 -6.21,14.747 -11.438,17.879c-0,-0 -0,-0 -0,-0c-4.085,2.446 -9.856,3.637 -15.711,3.184c-0.528,-0.041 -0.997,0.337 -1.068,0.862l-1.377,10.135c-0.075,0.547 0.309,1.051 0.856,1.126l23.449,3.186c0.293,0.04 0.588,-0.052 0.807,-0.251c0.219,-0.199 0.338,-0.485 0.327,-0.78l-0.14,-3.471c-0.001,-0.047 0.022,-0.092 0.063,-0.114c0,-0.001 0,-0.001 0.001,-0.001c0.04,-0.022 0.089,-0.022 0.127,0.004l10.318,6.921c0.04,0.026 0.062,0.073 0.055,0.12c0,0 0,0 0,0.001c-0.006,0.047 -0.04,0.086 -0.085,0.101l-11.791,3.917c-0.043,0.014 -0.091,0.001 -0.124,-0.031c0,-0 0,-0 0,-0c-0.033,-0.033 -0.044,-0.082 -0.03,-0.127c0,0 1.06,-3.308 1.06,-3.308c0.091,-0.282 0.052,-0.589 -0.106,-0.839c-0.158,-0.25 -0.418,-0.418 -0.711,-0.457l-23.449,-3.187c-0.547,-0.074 -1.051,0.309 -1.126,0.857l-1.494,10.997c-0.068,0.5 0.247,0.972 0.735,1.101c3.931,1.041 7.107,3.875 9.025,6.861c0.995,1.549 1.657,3.136 1.881,4.533c-0.001,0 -28.981,0 -28.981,0c1.607,-7.79 7.745,-11.792 14.038,-11.887c0.494,-0.008 0.909,-0.375 0.975,-0.865l1.503,-11.055c0.074,-0.547 -0.309,-1.051 -0.857,-1.125l-18.255,-2.481c-0.305,-0.042 -0.612,0.059 -0.832,0.274l-3.685,3.582c-0,-0 -9.959,-1.354 -9.959,-1.354c0,0 3.72,-4.267 3.72,-4.267c0.262,-0.301 0.32,-0.729 0.148,-1.089l-2.446,-5.106c-0,0 9.958,1.354 9.958,1.354c0,-0 2.596,4.435 2.596,4.435c0.155,0.265 0.424,0.445 0.728,0.486l18.256,2.481c0.263,0.035 0.529,-0.035 0.74,-0.195c0.212,-0.161 0.35,-0.399 0.386,-0.662l1.384,-10.183c0.07,-0.517 -0.269,-1.001 -0.779,-1.112c-8.339,-1.811 -16.094,-7.254 -18.482,-17.632c-0.115,-0.499 -0.587,-0.83 -1.095,-0.769c-2.059,0.249 -3.637,-1.444 -4.403,-3.362c-0.403,-1.006 -0.583,-2.096 -0.461,-3.069c0.105,-0.838 0.435,-1.591 1.098,-2.054c0.403,-0.282 0.541,-0.816 0.325,-1.258c-0.215,-0.442 -0.721,-0.662 -1.191,-0.518c-2.914,0.893 -5.526,-0.667 -6.728,-2.77c-0.684,-1.198 -0.921,-2.583 -0.408,-3.776c0.339,-0.789 1.007,-1.476 2.042,-1.98c0.425,-0.207 0.647,-0.682 0.533,-1.141c-0.114,-0.458 -0.533,-0.774 -1.005,-0.758c-2.864,0.099 -4.695,-0.879 -5.569,-2.385c-1.308,-2.257 -0.481,-5.505 1.849,-7.384l-0,0c6.044,-4.875 16.718,-4.407 22.579,3.553c4.024,5.469 6.67,10.603 9.555,14.075c2.087,2.511 4.313,4.184 7.154,4.661c0,-0 0,-0 0,-0c9.925,1.665 13.555,-5.489 15.898,-12.071c0.447,-1.06 0.829,-2.425 1.293,-3.383c0.001,-0.001 0.001,-0.001 0.001,-0.002c1.774,-3.676 6.085,-7.06 10.346,-6.481c-0,0 0,0 0,0c2.175,0.296 5.069,0.307 8.206,4.026c0.898,1.268 2.74,4.026 3.641,5.927Zm-11.158,-0.992c-0,0 -0,0 -0,0c1.61,0.219 3.097,-0.91 3.317,-2.523c0.219,-1.613 -0.913,-3.097 -2.524,-3.316c-1.613,-0.219 -3.098,0.909 -3.317,2.522c-0.219,1.613 0.911,3.098 2.524,3.317Zm0.134,-0.991c1.064,0.145 2.047,-0.601 2.192,-1.667c0.145,-1.066 -0.604,-2.045 -1.668,-2.19c-1.065,-0.145 -2.046,0.6 -2.191,1.666c-0.145,1.065 0.602,2.046 1.667,2.191Z" style="fill:#e8f0e9;"/></g></svg>