<?xml version="1.0" encoding="UTF-8" standalone="no"?><!DOCTYPE svg PUBLIC "-//W3C//DTD SVG 1.1//EN" "http://www.w3.org/Graphics/SVG/1.1/DTD/svg11.dtd"><svg width="100%" height="100%" viewBox="0 0 64 64" version="1.1" xmlns="http://www.w3.org/2000/svg" xmlns:xlink="http://www.w3.org/1999/xlink" xml:space="preserve" xmlns:serif="http://www.serif.com/" style="fill-rule:evenodd;clip-rule:evenodd;stroke-linejoin:round;stroke-miterlimit:2;"><circle cx="32" cy="32" r="32" style="fill:#8caaaf;"/><path d="M28.504,9.873c2.243,-0.836 4.576,-0.806 5.799,0.212c0.229,0.191 0.408,0.408 0.536,0.643c0.283,-0.043 0.576,-0.065 0.877,-0.065c2.411,0 4.367,1.445 4.367,3.225c0,1.781 -1.956,3.226 -4.367,3.226l-0.059,0c-0.412,1.562 -2.883,2.764 -5.867,2.764c-2.776,0 -5.109,-1.041 -5.751,-2.444c-2.26,0.842 -4.611,0.809 -5.834,-0.22c-0.228,-0.192 -0.405,-0.409 -0.531,-0.645c-0.285,0.042 -0.578,0.063 -0.879,0.062c-2.41,-0.008 -4.357,-1.461 -4.345,-3.241c0.011,-1.78 1.977,-3.218 4.388,-3.209l0.059,0c0.423,-1.56 2.902,-2.754 5.886,-2.743c2.756,0.01 5.068,1.045 5.721,2.435Z" style="fill:#cacacf;stroke:#6a737d;stroke-width:0.9px;"/><g><path d="M16.922,52.282c-0.161,0.079 -0.292,0.219 -0.352,0.402c-0.12,0.361 0.075,0.751 0.436,0.871c0.361,0.12 0.751,-0.076 0.871,-0.436c0.102,-0.308 -0.025,-0.636 -0.288,-0.801l0.926,-21.362l-1.593,21.326Z" style="fill:#ebebeb;stroke:#bbc7e2;stroke-width:0.32px;stroke-linecap:round;stroke-miterlimit:1.5;"/><path d="M17.122,52.975c0.018,0.013 0.043,0.009 0.056,-0.01c0.013,-0.018 0.008,-0.043 -0.01,-0.056c-0.018,-0.013 -0.043,-0.008 -0.056,0.01c-0.013,0.019 -0.008,0.044 0.01,0.056Z" style="fill:#808080;"/><path d="M17.166,52.537c0.017,0.012 0.038,0.011 0.048,-0.002c0.009,-0.013 0.002,-0.034 -0.015,-0.046c-0.017,-0.012 -0.038,-0.011 -0.047,0.003c-0.01,0.013 -0.003,0.033 0.014,0.045Z" style="fill:#808080;"/><path d="M16.81,52.936c0.012,0.008 0.027,0.006 0.035,-0.005c0.007,-0.011 0.004,-0.026 -0.007,-0.034c-0.012,-0.008 -0.027,-0.006 -0.035,0.005c-0.007,0.011 -0.004,0.026 0.007,0.034Z" style="fill:#808080;"/><path d="M17.598,53.087c0.011,0.008 0.026,0.006 0.034,-0.005c0.008,-0.011 0.005,-0.026 -0.007,-0.034c-0.011,-0.008 -0.027,-0.006 -0.034,0.005c-0.008,0.011 -0.005,0.026 0.007,0.034Z" style="fill:#808080;"/><path d="M17.378,52.974c0.011,0.008 0.027,0.005 0.034,-0.005c0.008,-0.011 0.005,-0.027 -0.007,-0.035c-0.011,-0.007 -0.027,-0.005 -0.034,0.006c-0.008,0.011 -0.005,0.026 0.007,0.034Z" style="fill:#808080;"/><path d="M17.182,53.496c0.012,0.007 0.027,0.005 0.035,-0.006c0.007,-0.011 0.004,-0.026 -0.007,-0.034c-0.012,-0.008 -0.027,-0.005 -0.035,0.005c-0.007,0.011 -0.004,0.027 0.007,0.035Z" style="fill:#808080;"/><path d="M16.977,52.686c0.014,0.01 0.033,0.008 0.043,-0.006c0.009,-0.013 0.005,-0.031 -0.01,-0.041c-0.014,-0.01 -0.033,-0.008 -0.042,0.005c-0.009,0.014 -0.005,0.032 0.009,0.042Z" style="fill:#808080;"/><path d="M17.439,52.759c0.028,0.019 0.068,0.01 0.089,-0.02c0.022,-0.031 0.016,-0.072 -0.012,-0.091c-0.028,-0.02 -0.068,-0.011 -0.089,0.02c-0.022,0.03 -0.016,0.071 0.012,0.091Z" style="fill:#808080;"/><path d="M16.898,53.156c0.017,0.012 0.039,0.01 0.049,-0.005c0.01,-0.014 0.004,-0.035 -0.013,-0.047c-0.017,-0.012 -0.039,-0.01 -0.049,0.004c-0.01,0.014 -0.004,0.036 0.013,0.048Z" style="fill:#808080;"/><path d="M17.023,53.277c0.028,0.02 0.068,0.011 0.09,-0.02c0.021,-0.03 0.015,-0.071 -0.013,-0.091c-0.028,-0.019 -0.068,-0.01 -0.089,0.02c-0.021,0.031 -0.016,0.072 0.012,0.091Z" style="fill:#808080;"/><path d="M17.386,53.272c0.041,0.029 0.097,0.02 0.125,-0.02c0.027,-0.039 0.016,-0.095 -0.024,-0.123c-0.041,-0.029 -0.097,-0.02 -0.125,0.02c-0.028,0.039 -0.017,0.095 0.024,0.123Z" style="fill:#808080;"/></g><g><path d="M35.351,48.069c-0.209,0.105 -0.373,0.296 -0.434,0.541c-0.111,0.443 0.159,0.894 0.602,1.005c0.444,0.111 0.894,-0.159 1.005,-0.603c0.105,-0.419 -0.13,-0.844 -0.531,-0.984l-0.657,-20.528l0.015,20.569Z" style="fill:#ebebeb;stroke:#bbc7e2;stroke-width:0.32px;stroke-linecap:round;stroke-miterlimit:1.5;"/><path d="M35.706,48.691c-0.009,0.025 0.002,0.053 0.026,0.062c0.024,0.009 0.052,-0.004 0.061,-0.03c0.01,-0.025 -0.002,-0.053 -0.026,-0.062c-0.024,-0.009 -0.051,0.004 -0.061,0.03Z" style="fill:#808080;"/><path d="M36.213,48.599c-0.009,0.024 -0.002,0.049 0.015,0.055c0.017,0.007 0.038,-0.008 0.048,-0.032c0.009,-0.024 0.002,-0.049 -0.015,-0.055c-0.018,-0.007 -0.039,0.008 -0.048,0.032Z" style="fill:#808080;"/><path d="M35.67,48.311c-0.006,0.016 0.001,0.033 0.015,0.039c0.014,0.005 0.031,-0.003 0.037,-0.02c0.006,-0.016 -0.001,-0.033 -0.015,-0.038c-0.014,-0.006 -0.031,0.003 -0.037,0.019Z" style="fill:#808080;"/><path d="M35.703,49.288c-0.006,0.016 0.001,0.033 0.015,0.038c0.014,0.006 0.031,-0.003 0.037,-0.019c0.006,-0.016 -0.001,-0.033 -0.015,-0.039c-0.014,-0.005 -0.031,0.004 -0.037,0.02Z" style="fill:#808080;"/><path d="M35.774,48.992c-0.006,0.016 0.001,0.033 0.015,0.038c0.014,0.006 0.031,-0.003 0.037,-0.019c0.006,-0.016 -0.001,-0.033 -0.015,-0.039c-0.014,-0.005 -0.031,0.004 -0.037,0.02Z" style="fill:#808080;"/><path d="M35.135,48.933c-0.006,0.016 0,0.033 0.014,0.039c0.015,0.005 0.031,-0.004 0.037,-0.02c0.006,-0.016 0,-0.033 -0.015,-0.039c-0.014,-0.005 -0.03,0.004 -0.036,0.02Z" style="fill:#808080;"/><path d="M35.996,48.425c-0.008,0.02 0,0.042 0.017,0.049c0.018,0.006 0.038,-0.005 0.045,-0.025c0.008,-0.02 0,-0.042 -0.017,-0.048c-0.018,-0.007 -0.038,0.004 -0.045,0.024Z" style="fill:#808080;"/><path d="M36.033,48.993c-0.015,0.039 0.006,0.084 0.046,0.099c0.04,0.015 0.084,-0.005 0.099,-0.044c0.015,-0.04 -0.005,-0.084 -0.045,-0.099c-0.04,-0.015 -0.085,0.005 -0.1,0.044Z" style="fill:#808080;"/><path d="M35.445,48.486c-0.009,0.024 -0.001,0.05 0.018,0.057c0.018,0.007 0.041,-0.007 0.05,-0.031c0.009,-0.024 0.001,-0.05 -0.018,-0.057c-0.018,-0.007 -0.041,0.007 -0.05,0.031Z" style="fill:#808080;"/><path d="M35.34,48.674c-0.015,0.039 0.006,0.083 0.046,0.098c0.04,0.015 0.084,-0.004 0.099,-0.044c0.015,-0.039 -0.005,-0.083 -0.045,-0.098c-0.041,-0.016 -0.085,0.004 -0.1,0.044Z" style="fill:#808080;"/><path d="M35.439,49.1c-0.021,0.057 0.003,0.12 0.055,0.14c0.052,0.019 0.112,-0.012 0.134,-0.069c0.021,-0.058 -0.003,-0.121 -0.055,-0.14c-0.052,-0.02 -0.112,0.011 -0.134,0.069Z" style="fill:#808080;"/></g><g><path d="M43.704,42.978c-0.103,0.092 -0.173,0.221 -0.191,0.368c-0.037,0.322 0.194,0.613 0.515,0.65c0.321,0.038 0.613,-0.193 0.65,-0.514c0.034,-0.287 -0.146,-0.549 -0.413,-0.629l-2.947,-18.083l2.386,18.208Z" style="fill:#ebebeb;stroke:#bbc7e2;stroke-width:0.32px;stroke-linecap:round;stroke-miterlimit:1.5;"/><path d="M44.178,43.389c-0.019,-0.002 -0.036,0.011 -0.038,0.03c-0.003,0.019 0.011,0.036 0.03,0.038c0.018,0.003 0.035,-0.011 0.037,-0.03c0.003,-0.019 -0.011,-0.036 -0.029,-0.038Z" style="fill:#808080;"/><path d="M44.321,43.735c-0.017,-0.002 -0.033,0.008 -0.035,0.021c-0.001,0.014 0.012,0.027 0.029,0.029c0.018,0.002 0.034,-0.008 0.035,-0.021c0.002,-0.014 -0.011,-0.027 -0.029,-0.029Z" style="fill:#808080;"/><path d="M44.427,43.293c-0.012,-0.002 -0.023,0.006 -0.024,0.017c-0.001,0.012 0.007,0.022 0.019,0.023c0.012,0.002 0.022,-0.006 0.024,-0.018c0.001,-0.011 -0.008,-0.021 -0.019,-0.022Z" style="fill:#808080;"/><path d="M43.776,43.497c-0.012,-0.001 -0.023,0.007 -0.024,0.018c-0.001,0.011 0.007,0.021 0.019,0.023c0.012,0.001 0.022,-0.007 0.024,-0.018c0.001,-0.011 -0.007,-0.021 -0.019,-0.023Z" style="fill:#808080;"/><path d="M43.986,43.493c-0.012,-0.001 -0.022,0.007 -0.024,0.018c-0.001,0.011 0.008,0.022 0.019,0.023c0.012,0.001 0.023,-0.007 0.024,-0.018c0.001,-0.011 -0.007,-0.021 -0.019,-0.023Z" style="fill:#808080;"/><path d="M43.922,43.023c-0.011,-0.001 -0.022,0.007 -0.023,0.018c-0.002,0.011 0.007,0.022 0.019,0.023c0.011,0.001 0.022,-0.007 0.023,-0.018c0.002,-0.011 -0.007,-0.021 -0.019,-0.023Z" style="fill:#808080;"/><path d="M44.402,43.547c-0.014,-0.001 -0.027,0.008 -0.029,0.022c-0.002,0.014 0.009,0.026 0.024,0.028c0.014,0.001 0.028,-0.008 0.029,-0.022c0.002,-0.013 -0.009,-0.026 -0.024,-0.028Z" style="fill:#808080;"/><path d="M44.027,43.679c-0.029,-0.003 -0.055,0.02 -0.059,0.051c-0.004,0.032 0.017,0.06 0.046,0.064c0.029,0.003 0.055,-0.02 0.059,-0.051c0.004,-0.032 -0.017,-0.06 -0.046,-0.064Z" style="fill:#808080;"/><path d="M44.273,43.164c-0.018,-0.002 -0.034,0.008 -0.036,0.023c-0.001,0.014 0.012,0.028 0.029,0.03c0.018,0.002 0.034,-0.008 0.035,-0.023c0.002,-0.015 -0.011,-0.028 -0.028,-0.03Z" style="fill:#808080;"/><path d="M44.13,43.123c-0.029,-0.004 -0.056,0.019 -0.059,0.051c-0.004,0.031 0.017,0.06 0.045,0.063c0.029,0.004 0.056,-0.019 0.059,-0.051c0.004,-0.031 -0.016,-0.06 -0.045,-0.063Z" style="fill:#808080;"/><path d="M43.859,43.273c-0.042,-0.005 -0.08,0.024 -0.085,0.065c-0.004,0.041 0.026,0.078 0.068,0.083c0.043,0.005 0.081,-0.024 0.085,-0.065c0.005,-0.041 -0.025,-0.078 -0.068,-0.083Z" style="fill:#808080;"/></g><g><path d="M25.857,42.668c-0.142,0.097 -0.25,0.244 -0.295,0.424c-0.098,0.39 0.139,0.788 0.53,0.886c0.391,0.098 0.788,-0.139 0.886,-0.53c0.088,-0.349 -0.091,-0.702 -0.408,-0.844l-0.708,-22.808l-0.005,22.872Z" style="fill:#ebebeb;stroke:#bbc7e2;stroke-width:0.32px;stroke-linecap:round;stroke-miterlimit:1.5;"/><path d="M26.385,43.202c-0.026,-0.006 -0.053,0.01 -0.059,0.036c-0.007,0.027 0.009,0.054 0.035,0.06c0.026,0.007 0.052,-0.009 0.059,-0.036c0.007,-0.026 -0.009,-0.053 -0.035,-0.06Z" style="fill:#808080;"/><path d="M26.522,43.724c-0.024,-0.006 -0.048,0.004 -0.053,0.023c-0.005,0.019 0.011,0.04 0.036,0.046c0.024,0.006 0.048,-0.004 0.053,-0.023c0.005,-0.02 -0.011,-0.04 -0.036,-0.046Z" style="fill:#808080;"/><path d="M26.755,43.11c-0.016,-0.004 -0.033,0.006 -0.037,0.021c-0.004,0.016 0.007,0.032 0.023,0.036c0.016,0.004 0.033,-0.005 0.037,-0.021c0.004,-0.016 -0.006,-0.032 -0.023,-0.036Z" style="fill:#808080;"/><path d="M25.797,43.283c-0.016,-0.004 -0.033,0.006 -0.037,0.021c-0.004,0.016 0.006,0.032 0.023,0.036c0.016,0.004 0.032,-0.005 0.036,-0.021c0.004,-0.016 -0.006,-0.032 -0.022,-0.036Z" style="fill:#808080;"/><path d="M26.095,43.316c-0.016,-0.004 -0.033,0.006 -0.037,0.021c-0.004,0.016 0.006,0.032 0.023,0.036c0.016,0.005 0.032,-0.005 0.036,-0.021c0.004,-0.015 -0.006,-0.032 -0.022,-0.036Z" style="fill:#808080;"/><path d="M26.094,42.633c-0.016,-0.004 -0.033,0.005 -0.037,0.021c-0.004,0.016 0.006,0.032 0.023,0.036c0.016,0.004 0.032,-0.005 0.036,-0.021c0.004,-0.016 -0.006,-0.032 -0.022,-0.036Z" style="fill:#808080;"/><path d="M26.673,43.47c-0.021,-0.005 -0.041,0.006 -0.046,0.025c-0.005,0.019 0.008,0.039 0.028,0.044c0.021,0.005 0.041,-0.006 0.046,-0.025c0.005,-0.019 -0.008,-0.039 -0.028,-0.044Z" style="fill:#808080;"/><path d="M26.118,43.59c-0.041,-0.01 -0.082,0.017 -0.093,0.062c-0.012,0.044 0.012,0.088 0.052,0.099c0.04,0.01 0.082,-0.018 0.093,-0.063c0.011,-0.044 -0.012,-0.088 -0.052,-0.098Z" style="fill:#808080;"/><path d="M26.562,42.898c-0.025,-0.007 -0.049,0.005 -0.054,0.026c-0.005,0.021 0.011,0.042 0.035,0.049c0.025,0.006 0.049,-0.006 0.054,-0.027c0.005,-0.02 -0.01,-0.042 -0.035,-0.048Z" style="fill:#808080;"/><path d="M26.368,42.813c-0.04,-0.01 -0.082,0.018 -0.093,0.062c-0.011,0.045 0.012,0.089 0.053,0.099c0.04,0.01 0.081,-0.018 0.093,-0.062c0.011,-0.045 -0.013,-0.089 -0.053,-0.099Z" style="fill:#808080;"/><path d="M25.958,42.978c-0.059,-0.015 -0.118,0.02 -0.133,0.078c-0.014,0.057 0.022,0.116 0.08,0.131c0.059,0.014 0.119,-0.02 0.133,-0.078c0.015,-0.057 -0.021,-0.116 -0.08,-0.131Z" style="fill:#808080;"/></g><g><path d="M8.207,42.494c-0.318,0.092 -0.596,0.313 -0.75,0.635c-0.288,0.599 -0.035,1.318 0.564,1.605c0.598,0.288 1.318,0.035 1.606,-0.564c0.246,-0.512 0.096,-1.114 -0.328,-1.457l4.014,-24.363l-5.106,24.144Z" style="fill:#ebebeb;stroke:#bbc7e2;stroke-width:0.32px;stroke-linecap:round;stroke-miterlimit:1.5;"/><path d="M8.67,43.478c-0.024,0.037 -0.015,0.086 0.019,0.107c0.034,0.022 0.081,0.008 0.105,-0.03c0.024,-0.037 0.015,-0.086 -0.019,-0.107c-0.034,-0.022 -0.081,-0.008 -0.105,0.03Z" style="fill:#808080;"/><path d="M8.744,42.862c-0.015,0.024 -0.011,0.054 0.01,0.066c0.02,0.013 0.048,0.004 0.063,-0.02c0.015,-0.024 0.011,-0.053 -0.009,-0.066c-0.021,-0.013 -0.049,-0.004 -0.064,0.02Z" style="fill:#808080;"/><path d="M8.461,44.428c-0.015,0.024 -0.011,0.054 0.009,0.067c0.021,0.012 0.049,0.003 0.064,-0.021c0.015,-0.023 0.011,-0.053 -0.01,-0.066c-0.02,-0.012 -0.049,-0.003 -0.063,0.02Z" style="fill:#808080;"/><path d="M8.673,43.977c-0.015,0.024 -0.011,0.054 0.009,0.067c0.021,0.012 0.049,0.003 0.064,-0.02c0.015,-0.024 0.011,-0.054 -0.01,-0.067c-0.02,-0.012 -0.048,-0.003 -0.063,0.02Z" style="fill:#808080;"/><path d="M7.697,43.695c-0.015,0.024 -0.011,0.053 0.009,0.066c0.021,0.013 0.049,0.004 0.064,-0.02c0.015,-0.024 0.011,-0.053 -0.01,-0.066c-0.02,-0.013 -0.049,-0.004 -0.063,0.02Z" style="fill:#808080;"/><path d="M9.212,43.14c-0.019,0.03 -0.014,0.067 0.01,0.082c0.025,0.016 0.06,0.004 0.079,-0.026c0.019,-0.029 0.014,-0.066 -0.011,-0.081c-0.025,-0.016 -0.06,-0.004 -0.078,0.025Z" style="fill:#808080;"/><path d="M9.075,44.056c-0.036,0.058 -0.02,0.135 0.038,0.171c0.057,0.036 0.133,0.017 0.17,-0.041c0.036,-0.058 0.02,-0.135 -0.038,-0.171c-0.057,-0.036 -0.133,-0.018 -0.17,0.041Z" style="fill:#808080;"/><path d="M8.333,43.075c-0.022,0.036 -0.019,0.078 0.008,0.095c0.027,0.017 0.066,0.001 0.089,-0.034c0.022,-0.036 0.019,-0.079 -0.008,-0.095c-0.027,-0.017 -0.066,-0.002 -0.089,0.034Z" style="fill:#808080;"/><path d="M8.105,43.342c-0.036,0.059 -0.02,0.135 0.038,0.171c0.057,0.036 0.133,0.018 0.17,-0.041c0.036,-0.058 0.02,-0.135 -0.038,-0.17c-0.057,-0.036 -0.133,-0.018 -0.17,0.04Z" style="fill:#808080;"/><path d="M8.114,44.051c-0.054,0.085 -0.037,0.192 0.037,0.239c0.074,0.046 0.178,0.015 0.232,-0.071c0.053,-0.085 0.037,-0.192 -0.037,-0.239c-0.075,-0.046 -0.178,-0.015 -0.232,0.071Z" style="fill:#808080;"/></g><path d="M36.36,31.207c-0.003,0.027 -0.008,0.055 -0.013,0.083c-0.294,1.562 -2.285,2.657 -4.445,2.444c-0.017,-0.002 -0.035,-0.004 -0.054,-0.005c-0.626,1.333 -3.039,2.171 -5.712,1.907c-2.468,-0.244 -4.376,-1.348 -4.739,-2.625c-2.144,0.543 -4.23,0.318 -5.164,-0.68c-0.176,-0.187 -0.301,-0.392 -0.379,-0.61c-0.26,0.014 -0.527,0.009 -0.797,-0.017c-2.16,-0.205 -3.683,-1.64 -3.399,-3.203c0.007,-0.041 0.015,-0.083 0.026,-0.124c-0.091,-0.029 -0.178,-0.061 -0.261,-0.094c-0.148,0.066 -0.316,0.115 -0.502,0.137c-0.811,0.098 -1.653,-0.31 -1.881,-0.912c-0.105,-0.281 -0.059,-0.555 0.103,-0.777c-2.101,-0.66 -3.328,-2.487 -2.757,-4.192c0.595,-1.782 2.927,-2.76 5.205,-2.183c0.525,0.133 1.001,0.336 1.416,0.593c2.016,-0.658 4.772,-0.707 7.599,0.009c0.914,0.231 1.772,0.527 2.559,0.871c0.329,-0.1 0.682,-0.185 1.054,-0.251c1.552,-0.273 3.111,-0.162 4.291,0.235c0.219,-0.117 0.475,-0.205 0.763,-0.256c1.249,-0.221 2.629,0.349 3.078,1.27c0.361,0.739 0.015,1.481 -0.78,1.86c0.696,0.195 1.34,0.435 1.914,0.714c0.422,-0.159 0.897,-0.261 1.414,-0.292c2.243,-0.134 4.412,1.121 4.841,2.802c0.43,1.682 -1.044,3.157 -3.286,3.291c-0.032,0.002 -0.062,0.004 -0.094,0.005Z" style="fill:#a5abaf;stroke:#6a737d;stroke-width:0.9px;"/><path d="M58.821,23.227c0.02,0.03 0.038,0.06 0.057,0.091c1.029,1.728 0.079,3.787 -2.124,4.595c-0.019,0.007 -0.037,0.013 -0.054,0.02c0.526,1.654 -1.036,3.651 -3.761,4.65c-2.519,0.925 -5.23,0.704 -6.637,-0.421c-1.555,1.57 -3.698,2.332 -5.409,1.758c-0.32,-0.107 -0.61,-0.256 -0.863,-0.441c-0.233,0.139 -0.488,0.259 -0.762,0.361c-2.197,0.816 -4.824,0.08 -5.864,-1.644c-0.027,-0.047 -0.053,-0.093 -0.078,-0.14c-0.11,0.013 -0.218,0.022 -0.325,0.028c-0.081,0.138 -0.199,0.267 -0.356,0.378c-0.676,0.485 -1.808,0.468 -2.524,-0.036c-0.333,-0.237 -0.519,-0.537 -0.554,-0.839c-2.52,0.325 -5.196,-0.952 -6.087,-2.957c-0.93,-2.096 0.439,-4.197 3.056,-4.692c0.602,-0.113 1.219,-0.131 1.823,-0.067c1.34,-1.626 3.88,-2.984 7.129,-3.598c1.051,-0.197 2.103,-0.304 3.128,-0.326c0.225,-0.26 0.485,-0.512 0.778,-0.756c1.226,-1.014 2.78,-1.641 4.219,-1.798c0.106,-0.221 0.273,-0.433 0.5,-0.621c0.987,-0.818 2.757,-0.893 3.948,-0.169c0.956,0.58 1.251,1.501 0.822,2.263c0.816,-0.132 1.621,-0.193 2.391,-0.182c0.263,-0.361 0.624,-0.691 1.081,-0.968c1.99,-1.2 5.073,-0.952 6.881,0.554c1.808,1.508 1.659,3.707 -0.331,4.908c-0.028,0.016 -0.056,0.033 -0.084,0.049Z" style="fill:#a5abaf;stroke:#6a737d;stroke-width:0.9px;"/><g><path d="M42.221,57.099c0.276,0.134 0.499,0.374 0.603,0.687c0.204,0.616 -0.13,1.283 -0.746,1.488c-0.616,0.204 -1.283,-0.13 -1.487,-0.746c-0.175,-0.525 0.042,-1.086 0.491,-1.368l-1.582,-36.494l2.721,36.433Z" style="fill:#ebebeb;stroke:#bbc7e2;stroke-width:0.32px;stroke-linecap:round;stroke-miterlimit:1.5;"/><path d="M41.87,58.126c-0.031,0.022 -0.074,0.014 -0.095,-0.017c-0.022,-0.031 -0.015,-0.074 0.016,-0.096c0.031,-0.022 0.074,-0.014 0.096,0.017c0.022,0.032 0.014,0.075 -0.017,0.096Z" style="fill:#808080;"/><path d="M41.795,57.377c-0.029,0.021 -0.066,0.019 -0.082,-0.004c-0.015,-0.022 -0.004,-0.057 0.025,-0.077c0.029,-0.021 0.066,-0.019 0.081,0.004c0.016,0.022 0.005,0.057 -0.024,0.077Z" style="fill:#808080;"/><path d="M42.402,58.06c-0.019,0.013 -0.046,0.009 -0.059,-0.009c-0.013,-0.019 -0.007,-0.045 0.012,-0.059c0.02,-0.013 0.046,-0.009 0.059,0.009c0.013,0.019 0.008,0.045 -0.012,0.059Z" style="fill:#808080;"/><path d="M41.057,58.317c-0.019,0.013 -0.046,0.009 -0.059,-0.009c-0.012,-0.019 -0.007,-0.045 0.012,-0.059c0.02,-0.013 0.046,-0.009 0.059,0.009c0.013,0.019 0.008,0.045 -0.012,0.059Z" style="fill:#808080;"/><path d="M41.433,58.124c-0.02,0.013 -0.046,0.009 -0.059,-0.009c-0.013,-0.019 -0.008,-0.045 0.012,-0.059c0.019,-0.013 0.046,-0.009 0.059,0.009c0.013,0.019 0.007,0.045 -0.012,0.059Z" style="fill:#808080;"/><path d="M41.767,59.015c-0.02,0.013 -0.046,0.009 -0.059,-0.009c-0.013,-0.019 -0.008,-0.045 0.012,-0.058c0.019,-0.014 0.046,-0.01 0.058,0.008c0.013,0.019 0.008,0.045 -0.011,0.059Z" style="fill:#808080;"/><path d="M42.117,57.632c-0.024,0.017 -0.057,0.013 -0.072,-0.01c-0.016,-0.022 -0.009,-0.054 0.015,-0.071c0.025,-0.017 0.057,-0.013 0.073,0.01c0.016,0.022 0.009,0.054 -0.016,0.071Z" style="fill:#808080;"/><path d="M41.328,57.756c-0.047,0.033 -0.116,0.018 -0.152,-0.034c-0.037,-0.053 -0.028,-0.122 0.02,-0.156c0.048,-0.033 0.117,-0.018 0.153,0.035c0.037,0.052 0.027,0.121 -0.021,0.155Z" style="fill:#808080;"/><path d="M42.252,58.434c-0.029,0.021 -0.066,0.017 -0.083,-0.007c-0.017,-0.024 -0.007,-0.061 0.022,-0.081c0.029,-0.021 0.067,-0.017 0.084,0.007c0.017,0.024 0.007,0.061 -0.023,0.081Z" style="fill:#808080;"/><path d="M42.039,58.642c-0.048,0.033 -0.117,0.018 -0.153,-0.034c-0.037,-0.052 -0.027,-0.122 0.021,-0.155c0.047,-0.034 0.116,-0.019 0.152,0.034c0.037,0.052 0.028,0.122 -0.02,0.155Z" style="fill:#808080;"/><path d="M41.418,58.633c-0.07,0.049 -0.165,0.034 -0.212,-0.034c-0.047,-0.068 -0.029,-0.162 0.041,-0.211c0.07,-0.049 0.165,-0.034 0.213,0.034c0.047,0.068 0.028,0.163 -0.042,0.211Z" style="fill:#808080;"/></g><g><path d="M54.295,45.59c0.335,0.095 0.628,0.332 0.783,0.674c0.28,0.618 0.005,1.347 -0.612,1.626c-0.618,0.28 -1.347,0.006 -1.627,-0.612c-0.26,-0.574 -0.041,-1.245 0.488,-1.561l-4.514,-30.35l5.482,30.223Z" style="fill:#ebebeb;stroke:#bbc7e2;stroke-width:0.32px;stroke-linecap:round;stroke-miterlimit:1.5;"/><path d="M53.807,46.696c0.04,-0.018 0.085,-0.002 0.102,0.035c0.017,0.037 -0.001,0.082 -0.041,0.1c-0.04,0.018 -0.086,0.002 -0.103,-0.035c-0.016,-0.037 0.002,-0.082 0.042,-0.1Z" style="fill:#808080;"/><path d="M53.711,47.51c0.038,-0.017 0.078,-0.009 0.09,0.018c0.012,0.027 -0.008,0.062 -0.046,0.079c-0.037,0.017 -0.077,0.009 -0.089,-0.018c-0.013,-0.026 0.008,-0.062 0.045,-0.079Z" style="fill:#808080;"/><path d="M53.199,46.679c0.025,-0.011 0.053,-0.003 0.063,0.019c0.01,0.022 -0.002,0.049 -0.027,0.061c-0.025,0.011 -0.054,0.002 -0.064,-0.02c-0.01,-0.022 0.003,-0.049 0.028,-0.06Z" style="fill:#808080;"/><path d="M54.758,46.628c0.025,-0.012 0.053,-0.003 0.063,0.019c0.01,0.022 -0.002,0.049 -0.027,0.061c-0.025,0.011 -0.053,0.002 -0.063,-0.02c-0.01,-0.022 0.002,-0.049 0.027,-0.06Z" style="fill:#808080;"/><path d="M54.293,46.772c0.025,-0.011 0.054,-0.003 0.064,0.019c0.01,0.022 -0.003,0.049 -0.028,0.061c-0.024,0.011 -0.053,0.002 -0.063,-0.02c-0.01,-0.022 0.002,-0.049 0.027,-0.06Z" style="fill:#808080;"/><path d="M54.135,45.763c0.025,-0.012 0.054,-0.003 0.064,0.019c0.009,0.022 -0.003,0.049 -0.028,0.06c-0.025,0.012 -0.053,0.003 -0.063,-0.019c-0.01,-0.022 0.002,-0.049 0.027,-0.06Z" style="fill:#808080;"/><path d="M53.414,47.184c0.031,-0.015 0.066,-0.004 0.078,0.022c0.012,0.027 -0.003,0.06 -0.035,0.074c-0.031,0.014 -0.066,0.004 -0.078,-0.022c-0.012,-0.027 0.003,-0.06 0.035,-0.074Z" style="fill:#808080;"/><path d="M54.321,47.183c0.062,-0.028 0.134,0 0.162,0.062c0.028,0.062 0.001,0.135 -0.06,0.162c-0.061,0.028 -0.134,0 -0.162,-0.062c-0.028,-0.062 -0.001,-0.134 0.06,-0.162Z" style="fill:#808080;"/><path d="M53.455,46.303c0.038,-0.017 0.079,-0.007 0.092,0.022c0.013,0.029 -0.007,0.066 -0.044,0.083c-0.038,0.017 -0.079,0.007 -0.092,-0.022c-0.013,-0.029 0.007,-0.066 0.044,-0.083Z" style="fill:#808080;"/><path d="M53.743,46.116c0.061,-0.027 0.134,0 0.162,0.062c0.028,0.062 0.001,0.135 -0.06,0.163c-0.062,0.028 -0.134,0 -0.162,-0.062c-0.028,-0.062 -0.001,-0.135 0.06,-0.163Z" style="fill:#808080;"/><path d="M54.432,46.229c0.089,-0.041 0.192,-0.009 0.228,0.072c0.036,0.08 -0.007,0.178 -0.096,0.219c-0.09,0.041 -0.193,0.008 -0.229,-0.072c-0.036,-0.08 0.007,-0.179 0.097,-0.219Z" style="fill:#808080;"/></g><path d="M31.342,10.331c0.645,-1.556 2.049,-2.967 4.072,-3.876c4.14,-1.859 9.316,-0.922 11.553,2.092c0.316,0.425 0.556,0.869 0.724,1.323c3.919,1.212 6.691,3.344 7.242,5.83c0.373,0.161 0.727,0.368 1.055,0.62c1.821,1.398 2.419,3.862 1.791,6.357c0.437,0.141 0.819,0.391 1.105,0.748c0.952,1.192 0.478,3.138 -1.058,4.343c-1.305,1.024 -2.962,1.185 -4.014,0.477c-0.64,0.432 -1.314,0.77 -1.998,1.009c-0.092,0.092 -0.186,0.182 -0.284,0.27c-2.629,2.383 -6.508,2.76 -8.789,0.898c-0.027,0.008 -0.056,0.014 -0.083,0.022c-1.489,0.361 -2.969,0.098 -3.962,-0.594c-1.912,1.55 -5.174,2.571 -8.875,2.571c-3.337,0 -6.319,-0.831 -8.273,-2.131c-0.545,0.168 -1.137,0.261 -1.757,0.261c-1.84,0 -3.445,-0.817 -4.273,-2.023c-2.465,0.31 -5.058,0.21 -7.288,-0.378c-4.876,-1.284 -6.198,-4.41 -2.95,-6.975c0.155,-0.124 0.318,-0.242 0.487,-0.358c-0.426,-0.076 -0.817,-0.25 -1.137,-0.524c-1.083,-0.934 -0.921,-2.683 0.361,-3.906c1.089,-1.04 2.642,-1.366 3.749,-0.866c2.159,-1.775 5.029,-2.329 7.234,-1.175c0.387,0.203 0.736,0.449 1.042,0.73c0.437,-0.073 0.884,-0.138 1.341,-0.194c0.258,-1.569 1.969,-3.08 4.345,-3.657c0.755,-0.183 1.503,-0.254 2.208,-0.227c0.321,-0.342 0.744,-0.598 1.244,-0.72c1.123,-0.272 2.292,0.219 2.93,1.139c0.68,-0.401 1.437,-0.765 2.258,-1.086Z" style="fill:#dfe2e4;stroke:#6a737d;stroke-width:0.9px;"/><g><path d="M22.897,57.05c0.332,0.166 0.592,0.469 0.689,0.857c0.176,0.702 -0.252,1.416 -0.954,1.592c-0.703,0.176 -1.417,-0.252 -1.593,-0.954c-0.166,-0.665 0.207,-1.339 0.842,-1.559l1.041,-32.524l-0.025,32.588Z" style="fill:#ebebeb;stroke:#bbc7e2;stroke-width:0.32px;stroke-linecap:round;stroke-miterlimit:1.5;"/><path d="M22.408,58.197c0.015,0.034 -0.003,0.072 -0.041,0.085c-0.038,0.013 -0.081,-0.006 -0.097,-0.041c-0.015,-0.035 0.004,-0.074 0.042,-0.086c0.038,-0.012 0.081,0.006 0.096,0.042Z" style="fill:#808080;"/><path d="M21.605,58.07c0.015,0.033 0.004,0.067 -0.023,0.077c-0.027,0.008 -0.061,-0.012 -0.076,-0.045c-0.014,-0.032 -0.004,-0.066 0.024,-0.075c0.027,-0.009 0.061,0.011 0.075,0.043Z" style="fill:#808080;"/><path d="M22.465,57.676c0.01,0.022 -0.001,0.046 -0.023,0.054c-0.023,0.007 -0.049,-0.005 -0.058,-0.027c-0.01,-0.022 0.001,-0.046 0.023,-0.053c0.023,-0.008 0.049,0.004 0.058,0.026Z" style="fill:#808080;"/><path d="M22.413,59.015c0.01,0.022 -0.001,0.046 -0.023,0.053c-0.023,0.008 -0.049,-0.004 -0.059,-0.027c-0.009,-0.021 0.001,-0.046 0.024,-0.053c0.022,-0.007 0.048,0.005 0.058,0.027Z" style="fill:#808080;"/><path d="M22.3,58.609c0.01,0.022 0,0.046 -0.023,0.053c-0.023,0.008 -0.049,-0.004 -0.058,-0.027c-0.01,-0.021 0.001,-0.045 0.023,-0.052c0.023,-0.008 0.049,0.004 0.058,0.026Z" style="fill:#808080;"/><path d="M23.124,57.701c0.009,0.023 -0.001,0.046 -0.024,0.054c-0.022,0.007 -0.048,-0.004 -0.058,-0.027c-0.009,-0.021 0.001,-0.046 0.024,-0.053c0.022,-0.007 0.048,0.005 0.058,0.026Z" style="fill:#808080;"/><path d="M21.95,57.833c0.012,0.027 -0.001,0.057 -0.028,0.066c-0.028,0.009 -0.059,-0.006 -0.071,-0.034c-0.012,-0.027 0,-0.057 0.027,-0.065c0.028,-0.01 0.06,0.006 0.072,0.033Z" style="fill:#808080;"/><path d="M21.89,58.611c0.024,0.054 -0.009,0.114 -0.072,0.135c-0.063,0.021 -0.134,-0.006 -0.158,-0.06c-0.023,-0.054 0.009,-0.115 0.073,-0.135c0.063,-0.021 0.134,0.006 0.157,0.06Z" style="fill:#808080;"/><path d="M22.822,57.916c0.014,0.033 0.002,0.068 -0.028,0.077c-0.029,0.011 -0.065,-0.008 -0.079,-0.042c-0.015,-0.033 -0.002,-0.067 0.027,-0.077c0.03,-0.009 0.065,0.01 0.08,0.042Z" style="fill:#808080;"/><path d="M22.798,57.347c0.024,0.053 -0.008,0.114 -0.072,0.135c-0.063,0.02 -0.134,-0.006 -0.158,-0.061c-0.023,-0.054 0.009,-0.114 0.073,-0.135c0.063,-0.021 0.134,0.006 0.157,0.061Z" style="fill:#808080;"/><path d="M22.831,58.757c0.034,0.079 -0.004,0.165 -0.087,0.192c-0.082,0.026 -0.177,-0.016 -0.211,-0.095c-0.034,-0.078 0.004,-0.165 0.087,-0.192c0.082,-0.027 0.177,0.016 0.211,0.095Z" style="fill:#808080;"/></g><g><path d="M12.953,48.984c0.164,0.138 0.278,0.328 0.305,0.546c0.06,0.477 -0.309,0.908 -0.823,0.964c-0.514,0.056 -0.98,-0.286 -1.04,-0.763c-0.053,-0.424 0.234,-0.813 0.661,-0.932l4.713,-26.799l-3.816,26.984Z" style="fill:#ebebeb;stroke:#bbc7e2;stroke-width:0.31px;stroke-linecap:round;stroke-miterlimit:1.5;"/><path d="M12.32,49.468c0.03,-0.003 0.057,0.019 0.061,0.049c0.003,0.03 -0.018,0.057 -0.048,0.061c-0.03,0.003 -0.057,-0.018 -0.061,-0.049c-0.003,-0.03 0.018,-0.057 0.048,-0.061Z" style="fill:#808080;"/><path d="M12.09,50.023c0.029,-0.004 0.054,0.011 0.056,0.033c0.003,0.022 -0.018,0.042 -0.046,0.045c-0.029,0.004 -0.054,-0.011 -0.056,-0.033c-0.003,-0.022 0.018,-0.042 0.046,-0.045Z" style="fill:#808080;"/><path d="M11.922,49.314c0.018,-0.002 0.035,0.011 0.038,0.029c0.002,0.018 -0.012,0.034 -0.031,0.036c-0.019,0.003 -0.036,-0.01 -0.038,-0.028c-0.002,-0.018 0.012,-0.034 0.031,-0.037Z" style="fill:#808080;"/><path d="M12.963,49.642c0.018,-0.003 0.035,0.01 0.037,0.028c0.003,0.018 -0.011,0.034 -0.03,0.036c-0.019,0.003 -0.036,-0.01 -0.038,-0.028c-0.002,-0.018 0.012,-0.034 0.031,-0.036Z" style="fill:#808080;"/><path d="M12.626,49.635c0.019,-0.002 0.036,0.011 0.038,0.029c0.002,0.018 -0.011,0.034 -0.03,0.036c-0.019,0.003 -0.036,-0.01 -0.038,-0.028c-0.002,-0.018 0.011,-0.034 0.03,-0.037Z" style="fill:#808080;"/><path d="M12.728,48.884c0.019,-0.002 0.036,0.011 0.038,0.028c0.002,0.018 -0.011,0.035 -0.03,0.037c-0.019,0.002 -0.036,-0.011 -0.038,-0.029c-0.002,-0.017 0.011,-0.034 0.03,-0.036Z" style="fill:#808080;"/><path d="M11.96,49.722c0.024,-0.003 0.045,0.013 0.048,0.034c0.002,0.022 -0.015,0.042 -0.038,0.045c-0.024,0.002 -0.045,-0.013 -0.048,-0.035c-0.002,-0.022 0.015,-0.041 0.038,-0.044Z" style="fill:#808080;"/><path d="M12.561,49.933c0.046,-0.005 0.088,0.031 0.094,0.082c0.006,0.05 -0.027,0.095 -0.073,0.101c-0.046,0.005 -0.089,-0.032 -0.094,-0.082c-0.006,-0.05 0.026,-0.096 0.073,-0.101Z" style="fill:#808080;"/><path d="M12.168,49.108c0.028,-0.003 0.054,0.013 0.056,0.037c0.003,0.023 -0.018,0.045 -0.046,0.048c-0.028,0.004 -0.053,-0.013 -0.056,-0.036c-0.003,-0.024 0.018,-0.046 0.046,-0.049Z" style="fill:#808080;"/><path d="M12.397,49.043c0.046,-0.005 0.088,0.031 0.094,0.082c0.006,0.05 -0.027,0.095 -0.073,0.101c-0.046,0.005 -0.089,-0.031 -0.094,-0.082c-0.006,-0.05 0.026,-0.096 0.073,-0.101Z" style="fill:#808080;"/><path d="M12.829,49.283c0.067,-0.008 0.128,0.039 0.136,0.104c0.008,0.066 -0.041,0.125 -0.109,0.133c-0.067,0.008 -0.128,-0.039 -0.136,-0.104c-0.008,-0.066 0.041,-0.125 0.109,-0.133Z" style="fill:#808080;"/></g><path d="M19.687,20.521c0.586,-1.804 4.111,-3.192 8.366,-3.192c4.665,0 8.45,1.668 8.45,3.724c0,0.269 -0.065,0.532 -0.189,0.786c1.238,1.615 -0.17,4.075 -3.559,5.871c-3.866,2.049 -8.858,2.465 -11.138,0.927c-0.328,-0.221 -0.581,-0.472 -0.765,-0.743c-0.404,0.05 -0.822,0.075 -1.251,0.075c-3.438,0 -6.227,-1.668 -6.227,-3.724c0,-2.056 2.789,-3.724 6.227,-3.724l0.086,0Z" style="fill:#efeff0;stroke:#6a737d;stroke-width:0.9px;"/><g><path d="M32.015,52.422c0.176,0.121 0.311,0.305 0.368,0.529c0.122,0.487 -0.174,0.982 -0.661,1.104c-0.487,0.123 -0.982,-0.173 -1.105,-0.66c-0.109,-0.435 0.115,-0.875 0.509,-1.052l0.882,-28.426l0.007,28.505Z" style="fill:#ebebeb;stroke:#bbc7e2;stroke-width:0.32px;stroke-linecap:round;stroke-miterlimit:1.5;"/><path d="M31.357,53.088c0.032,-0.008 0.065,0.012 0.073,0.046c0.009,0.033 -0.011,0.066 -0.043,0.074c-0.033,0.009 -0.066,-0.012 -0.074,-0.045c-0.008,-0.033 0.011,-0.067 0.044,-0.075Z" style="fill:#808080;"/><path d="M31.186,53.738c0.03,-0.007 0.06,0.006 0.066,0.03c0.006,0.024 -0.014,0.049 -0.045,0.057c-0.03,0.008 -0.06,-0.006 -0.066,-0.029c-0.006,-0.024 0.014,-0.05 0.045,-0.058Z" style="fill:#808080;"/><path d="M30.895,52.974c0.021,-0.005 0.041,0.006 0.046,0.026c0.005,0.02 -0.007,0.04 -0.028,0.045c-0.02,0.005 -0.041,-0.007 -0.046,-0.026c-0.005,-0.02 0.008,-0.04 0.028,-0.045Z" style="fill:#808080;"/><path d="M32.09,53.189c0.02,-0.005 0.04,0.007 0.045,0.027c0.005,0.019 -0.007,0.04 -0.028,0.045c-0.02,0.005 -0.041,-0.007 -0.045,-0.027c-0.005,-0.019 0.007,-0.039 0.028,-0.045Z" style="fill:#808080;"/><path d="M31.718,53.231c0.021,-0.005 0.041,0.006 0.046,0.026c0.005,0.02 -0.008,0.04 -0.028,0.045c-0.02,0.005 -0.041,-0.007 -0.046,-0.026c-0.005,-0.02 0.008,-0.04 0.028,-0.045Z" style="fill:#808080;"/><path d="M31.719,52.379c0.021,-0.005 0.041,0.007 0.046,0.026c0.005,0.02 -0.007,0.04 -0.028,0.045c-0.02,0.005 -0.041,-0.006 -0.046,-0.026c-0.005,-0.02 0.008,-0.04 0.028,-0.045Z" style="fill:#808080;"/><path d="M30.998,53.422c0.026,-0.006 0.051,0.008 0.057,0.032c0.006,0.024 -0.01,0.048 -0.035,0.055c-0.026,0.006 -0.051,-0.008 -0.057,-0.032c-0.006,-0.024 0.01,-0.048 0.035,-0.055Z" style="fill:#808080;"/><path d="M31.69,53.571c0.05,-0.012 0.102,0.023 0.116,0.078c0.014,0.055 -0.015,0.11 -0.066,0.123c-0.05,0.013 -0.102,-0.022 -0.115,-0.078c-0.014,-0.055 0.015,-0.11 0.065,-0.123Z" style="fill:#808080;"/><path d="M31.136,52.709c0.031,-0.008 0.061,0.007 0.067,0.033c0.007,0.025 -0.013,0.053 -0.043,0.06c-0.031,0.008 -0.061,-0.007 -0.068,-0.033c-0.006,-0.025 0.013,-0.053 0.044,-0.06Z" style="fill:#808080;"/><path d="M31.378,52.604c0.05,-0.013 0.102,0.022 0.116,0.077c0.014,0.055 -0.016,0.11 -0.066,0.123c-0.05,0.013 -0.102,-0.022 -0.116,-0.077c-0.014,-0.056 0.016,-0.111 0.066,-0.123Z" style="fill:#808080;"/><path d="M31.889,52.809c0.073,-0.018 0.147,0.025 0.165,0.097c0.019,0.072 -0.026,0.145 -0.1,0.163c-0.073,0.019 -0.147,-0.025 -0.165,-0.096c-0.018,-0.072 0.027,-0.145 0.1,-0.164Z" style="fill:#808080;"/></g><g><path d="M49.448,51.12c0.305,0.126 0.557,0.377 0.675,0.713c0.221,0.626 -0.108,1.314 -0.735,1.534c-0.626,0.221 -1.314,-0.109 -1.535,-0.735c-0.189,-0.537 0.026,-1.118 0.485,-1.412l-1.338,-24.656l2.448,24.556Z" style="fill:#ebebeb;stroke:#bbc7e2;stroke-width:0.32px;stroke-linecap:round;stroke-miterlimit:1.5;"/><path d="M49.028,52.047c0.013,0.042 -0.007,0.087 -0.046,0.099c-0.039,0.012 -0.081,-0.013 -0.094,-0.056c-0.013,-0.042 0.007,-0.087 0.046,-0.099c0.038,-0.012 0.08,0.013 0.094,0.056Z" style="fill:#808080;"/><path d="M48.233,51.841c0.013,0.04 0.001,0.08 -0.027,0.088c-0.028,0.009 -0.061,-0.016 -0.073,-0.057c-0.013,-0.04 -0,-0.08 0.027,-0.088c0.028,-0.009 0.061,0.017 0.073,0.057Z" style="fill:#808080;"/><path d="M49.113,51.433c0.008,0.026 -0.003,0.054 -0.026,0.061c-0.023,0.007 -0.048,-0.009 -0.057,-0.035c-0.008,-0.027 0.004,-0.055 0.026,-0.062c0.023,-0.007 0.049,0.009 0.057,0.036Z" style="fill:#808080;"/><path d="M48.989,53.019c0.008,0.027 -0.004,0.055 -0.027,0.062c-0.023,0.007 -0.048,-0.009 -0.056,-0.036c-0.009,-0.027 0.003,-0.054 0.026,-0.061c0.023,-0.007 0.048,0.009 0.057,0.035Z" style="fill:#808080;"/><path d="M48.898,52.529c0.009,0.027 -0.003,0.055 -0.026,0.062c-0.023,0.007 -0.048,-0.009 -0.057,-0.036c-0.008,-0.026 0.004,-0.054 0.027,-0.061c0.022,-0.007 0.048,0.009 0.056,0.035Z" style="fill:#808080;"/><path d="M49.914,52.504c0.008,0.027 -0.003,0.055 -0.026,0.062c-0.023,0.007 -0.049,-0.009 -0.057,-0.036c-0.008,-0.026 0.003,-0.054 0.026,-0.061c0.023,-0.007 0.049,0.009 0.057,0.035Z" style="fill:#808080;"/><path d="M48.59,51.583c0.01,0.033 -0.004,0.068 -0.031,0.076c-0.028,0.009 -0.059,-0.011 -0.07,-0.045c-0.01,-0.033 0.004,-0.067 0.032,-0.076c0.027,-0.009 0.058,0.011 0.069,0.045Z" style="fill:#808080;"/><path d="M48.489,52.503c0.02,0.066 -0.015,0.135 -0.08,0.156c-0.064,0.02 -0.133,-0.017 -0.154,-0.083c-0.02,-0.066 0.015,-0.136 0.08,-0.156c0.064,-0.02 0.133,0.017 0.154,0.083Z" style="fill:#808080;"/><path d="M49.456,51.743c0.012,0.04 -0.002,0.081 -0.032,0.09c-0.03,0.009 -0.064,-0.016 -0.077,-0.056c-0.013,-0.04 0.002,-0.08 0.032,-0.09c0.03,-0.009 0.064,0.016 0.077,0.056Z" style="fill:#808080;"/><path d="M49.608,52.06c0.021,0.065 -0.015,0.135 -0.079,0.155c-0.065,0.021 -0.134,-0.017 -0.154,-0.082c-0.021,-0.066 0.015,-0.136 0.079,-0.156c0.065,-0.02 0.134,0.017 0.154,0.083Z" style="fill:#808080;"/><path d="M49.42,52.742c0.03,0.097 -0.014,0.196 -0.097,0.222c-0.084,0.026 -0.176,-0.031 -0.206,-0.127c-0.03,-0.096 0.013,-0.196 0.097,-0.222c0.083,-0.026 0.176,0.031 0.206,0.127Z" style="fill:#808080;"/></g><path d="M29.25,26.283c-2.38,0.986 -4.857,0.952 -6.154,-0.25c-0.244,-0.226 -0.433,-0.482 -0.57,-0.759c-0.3,0.051 -0.612,0.077 -0.93,0.077c-2.559,0 -4.635,-1.705 -4.635,-3.807c0,-2.101 2.076,-3.807 4.635,-3.807l0.063,0c0.437,-1.844 3.06,-3.263 6.226,-3.263c2.946,0 5.422,1.229 6.104,2.884c2.398,-0.992 4.893,-0.953 6.19,0.261c0.243,0.226 0.43,0.483 0.564,0.761c0.302,-0.05 0.613,-0.075 0.932,-0.075c2.558,0.012 4.624,1.726 4.612,3.827c-0.012,2.101 -2.098,3.799 -4.657,3.788l-0.063,0c-0.447,1.841 -3.078,3.251 -6.246,3.238c-2.925,-0.012 -5.378,-1.234 -6.071,-2.875Z" style="fill:#fafafa;stroke:#6a737d;stroke-width:0.9px;"/><path d="M41.366,26.802c-2.106,0.808 -4.297,0.78 -5.444,-0.205c-0.215,-0.185 -0.383,-0.395 -0.504,-0.622c-0.265,0.042 -0.541,0.063 -0.823,0.063c-2.262,0 -4.098,-1.397 -4.098,-3.119c0,-1.722 1.836,-3.12 4.098,-3.12l0.056,0c0.387,-1.511 2.706,-2.674 5.507,-2.674c2.607,0 4.795,1.008 5.399,2.364c2.121,-0.814 4.326,-0.782 5.475,0.213c0.215,0.185 0.38,0.396 0.498,0.623c0.267,-0.04 0.543,-0.061 0.824,-0.06c2.264,0.009 4.09,1.414 4.08,3.135c-0.01,1.722 -1.856,3.113 -4.119,3.104l-0.056,0c-0.396,1.509 -2.723,2.665 -5.524,2.654c-2.586,-0.01 -4.758,-1.011 -5.369,-2.356Z" style="fill:#bdbdc1;stroke:#6a737d;stroke-width:0.9px;"/></svg>