<?xml version="1.0" encoding="UTF-8" standalone="no"?><!DOCTYPE svg PUBLIC "-//W3C//DTD SVG 1.1//EN" "http://www.w3.org/Graphics/SVG/1.1/DTD/svg11.dtd"><svg width="100%" height="100%" viewBox="0 0 100 100" version="1.1" xmlns="http://www.w3.org/2000/svg" xmlns:xlink="http://www.w3.org/1999/xlink" xml:space="preserve" xmlns:serif="http://www.serif.com/" style="fill-rule:evenodd;clip-rule:evenodd;stroke-linejoin:round;stroke-miterlimit:2;"><text x="8px" y="67.896px" style="font-family:'Arial-BoldMT', 'Arial', sans-serif;font-weight:700;font-size:50px;">%</text><path d="M71.357,59.245c-3.653,2.318 -7.454,2.236 -9.444,-0.587c-0.374,-0.531 -0.665,-1.132 -0.874,-1.785c-0.461,0.122 -0.939,0.183 -1.428,0.183c-3.926,-0 -7.111,-4.007 -7.111,-8.945c0,-4.937 3.185,-8.944 7.111,-8.944l0.096,0c0.672,-4.332 4.696,-7.667 9.555,-7.667c4.522,-0 8.32,2.889 9.367,6.778c3.679,-2.334 8.431,-0.918 10.362,2.398c0.463,-0.117 0.943,-0.176 1.431,-0.173c3.927,0.025 7.095,4.053 7.078,8.988c-0.019,4.938 -3.221,8.926 -7.146,8.9l-0.097,0c-0.687,4.327 -4.725,7.639 -9.585,7.609c-4.487,-0.028 -8.254,-2.898 -9.315,-6.755Zm8.143,-16.245c-6,-0 -10,6 -8.143,11c1.727,-10.056 15.469,-10.31 18.143,-4c-0.818,-2.237 -3.5,-7 -10,-7Zm-8.5,4c-5,-3.5 -12,-1.5 -10.5,7c0,0 -4,-4.5 0,-9.5c1.767,-2.209 8,-2 10.5,2.5Z"/></svg>