<?xml version="1.0" encoding="UTF-8" standalone="no"?><!DOCTYPE svg PUBLIC "-//W3C//DTD SVG 1.1//EN" "http://www.w3.org/Graphics/SVG/1.1/DTD/svg11.dtd"><svg width="100%" height="100%" viewBox="0 0 100 100" version="1.1" xmlns="http://www.w3.org/2000/svg" xmlns:xlink="http://www.w3.org/1999/xlink" xml:space="preserve" xmlns:serif="http://www.serif.com/" style="fill-rule:evenodd;clip-rule:evenodd;stroke-linejoin:round;stroke-miterlimit:2;"><path d="M37,53l-1,11.545l3.648,5.724l-4.527,7.467l0.973,8.3l-2.552,10.013l4.521,-10.557l0.1,-6.724l3.973,-6.915l6.135,2.869l6.187,12.521l-2.393,-13.819l-10.775,-7.238l-1.29,-3.186l3,-9l-6,-1Z" style="fill:#ff3;stroke:#f8d514;stroke-width:1px;"/><path d="M62.125,75c0,0 5.875,8.385 5.875,11.979c0,3.242 -2.632,5.875 -5.875,5.875c-3.243,-0 -5.875,-2.633 -5.875,-5.875c0,-3.594 5.875,-11.979 5.875,-11.979Z" style="fill:#ebeded;"/><path d="M62.125,75c0,0 5.875,8.385 5.875,11.979c0,3.242 -2.632,5.875 -5.875,5.875c-3.243,-0 -5.875,-2.633 -5.875,-5.875c0,-3.594 5.875,-11.979 5.875,-11.979Zm0,3.638c0.892,1.423 1.977,3.267 2.794,5.015c0.594,1.271 1.081,2.461 1.081,3.326c0,2.139 -1.736,3.875 -3.875,3.875c-2.139,-0 -3.875,-1.736 -3.875,-3.875c0,-0.865 0.487,-2.055 1.081,-3.326c0.817,-1.748 1.902,-3.592 2.794,-5.015Z" style="fill:#5c70d0;"/><path d="M23.307,75c0,-0 6.307,8.535 6.307,12.193c0,3.481 -2.826,6.307 -6.307,6.307c-3.481,-0 -6.307,-2.826 -6.307,-6.307c0,-3.658 6.307,-12.193 6.307,-12.193Z" style="fill:#ebeded;"/><path d="M23.307,75c0,-0 6.307,8.535 6.307,12.193c0,3.481 -2.826,6.307 -6.307,6.307c-3.481,-0 -6.307,-2.826 -6.307,-6.307c0,-3.658 6.307,-12.193 6.307,-12.193Zm0,3.498c0.984,1.476 2.227,3.457 3.151,5.332c0.634,1.286 1.156,2.488 1.156,3.363c0,2.377 -1.93,4.307 -4.307,4.307c-2.377,-0 -4.307,-1.93 -4.307,-4.307c0,-0.875 0.523,-2.077 1.156,-3.363c0.924,-1.875 2.167,-3.857 3.151,-5.332Z" style="fill:#5c70d0;"/><g><path d="M42.067,57.373c-7.956,3.958 -16.234,3.818 -20.567,-1.003c-0.815,-0.906 -1.448,-1.932 -1.904,-3.047c-1.003,0.208 -2.044,0.312 -3.111,0.312c-8.548,-0 -15.485,-6.841 -15.485,-15.272c-0,-8.431 6.937,-15.272 15.485,-15.272l0.211,0c1.463,-7.396 10.226,-13.091 20.808,-13.091c9.848,-0 18.118,4.932 20.4,11.574c7.096,-7.121 16.344,-3.83 20.685,1.042c0.811,0.907 1.437,1.937 1.881,3.051c1.008,-0.2 2.052,-0.299 3.115,-0.295c8.552,0.044 15.452,6.921 15.415,15.347c-0.041,8.431 -7.015,15.24 -15.563,15.196l-0.211,0c-1.496,7.388 -10.289,13.044 -20.874,12.992c-9.771,-0.048 -17.974,-4.949 -20.285,-11.534Z" style="fill:#d3d3d3;"/><path d="M82.257,58.754c-2.893,5.95 -10.725,10.198 -19.905,10.153c-9.771,-0.048 -17.974,-4.949 -20.285,-11.534c-7.956,3.958 -16.234,3.818 -20.567,-1.003c-0.815,-0.906 -1.448,-1.932 -1.904,-3.047c-1.003,0.208 -2.044,0.312 -3.111,0.312c-8.548,-0 -15.485,-6.841 -15.485,-15.272c-0,-8.431 6.937,-15.272 15.485,-15.272l0.211,0c1.463,-7.396 10.226,-13.091 20.808,-13.091c9.848,0 18.118,4.932 20.4,11.574c7.096,-7.121 16.344,-3.83 20.685,1.042c0.811,0.907 1.437,1.937 1.881,3.051c1.008,-0.2 2.052,-0.299 3.115,-0.295c8.552,0.044 15.452,6.921 15.415,15.347c-0.041,8.431 -7.015,15.24 -15.563,15.196l-0.211,0c-0.134,0.662 -0.327,1.31 -0.575,1.942c-0.862,-1.722 -2.108,-4.942 0.597,-4.942c0.074,0 0.142,0.011 0.204,0.034l0,-0.034c6.881,0.036 12.515,-5.424 12.548,-12.21c0.029,-6.782 -5.545,-12.297 -12.428,-12.333c-0.86,-0.003 -1.704,0.076 -2.518,0.238c-1.418,0.281 -2.835,-0.489 -3.37,-1.831c-0.315,-0.79 -0.756,-1.521 -1.331,-2.163c-0.001,-0.001 -0.003,-0.003 -0.004,-0.004c-3.426,-3.846 -10.72,-6.54 -16.321,-0.921c-0.731,0.734 -1.789,1.039 -2.798,0.806c-1.009,-0.232 -1.827,-0.969 -2.164,-1.949c-1.944,-5.66 -9.169,-9.548 -17.562,-9.548c-8.958,0 -16.626,4.412 -17.865,10.673c-0.278,1.406 -1.51,2.418 -2.943,2.418l-0.211,0c-6.881,0 -12.485,5.486 -12.485,12.272c-0,6.786 5.604,12.272 12.485,12.272c0.858,-0 1.696,-0.082 2.503,-0.249c1.416,-0.293 2.838,0.464 3.385,1.802c0.325,0.796 0.776,1.53 1.358,2.177c3.578,3.98 10.43,3.59 16.999,0.322c0.771,-0.383 1.668,-0.417 2.466,-0.094c0.797,0.324 1.416,0.975 1.701,1.786c1.971,5.616 9.138,9.487 17.469,9.528c8.961,0.044 16.653,-4.333 17.919,-10.587c-0.178,0.882 0.049,1.798 0.618,2.494c0.359,0.439 0.83,0.761 1.354,0.94Z" style="fill:#808080;"/><path d="M54.999,36.41c5.351,-12.493 27.714,-4.924 21.658,10.05" style="fill:#d3d3d3;stroke:#808080;stroke-width:3px;stroke-linecap:round;stroke-miterlimit:1.5;"/><path d="M17.031,36.453c-4.441,-7.137 4.14,-15.335 10.969,-12.24" style="fill:#d3d3d3;stroke:#808080;stroke-width:3px;stroke-linecap:round;stroke-miterlimit:1.5;"/><path d="M43.29,42.453c1.984,-8.168 13.846,-7.784 16.42,-0.743" style="fill:#d3d3d3;stroke:#808080;stroke-width:3px;stroke-linecap:round;stroke-miterlimit:1.5;"/><path d="M25.011,57.13c-7.66,-5.1 -3.459,-16.311 4.521,-16.018" style="fill:#d3d3d3;stroke:#808080;stroke-width:3px;stroke-linecap:round;stroke-miterlimit:1.5;"/></g><path d="M79.057,65.573c0,0 6.557,9.359 6.557,13.37c0,3.619 -2.938,6.557 -6.557,6.557c-3.619,-0 -6.557,-2.938 -6.557,-6.557c0,-4.011 6.557,-13.37 6.557,-13.37Z" style="fill:#ebeded;"/><path d="M79.057,65.573c0,0 6.557,9.359 6.557,13.37c0,3.619 -2.938,6.557 -6.557,6.557c-3.619,-0 -6.557,-2.938 -6.557,-6.557c0,-4.011 6.557,-13.37 6.557,-13.37Zm0,3.626c1.033,1.63 2.352,3.843 3.329,5.934c0.679,1.454 1.228,2.82 1.228,3.81c0,2.515 -2.042,4.557 -4.557,4.557c-2.515,-0 -4.557,-2.042 -4.557,-4.557c0,-0.99 0.549,-2.356 1.228,-3.81c0.977,-2.091 2.296,-4.303 3.329,-5.934Z" style="fill:#5c70d0;"/><path d="M15,54c0,0 7.5,10.15 7.5,14.5c0,4.139 -3.36,7.5 -7.5,7.5c-4.14,0 -7.5,-3.361 -7.5,-7.5c-0,-4.35 7.5,-14.5 7.5,-14.5Z" style="fill:#ebeded;"/><path d="M15,54c0,-0 7.5,10.15 7.5,14.5c0,4.139 -3.36,7.5 -7.5,7.5c-4.14,0 -7.5,-3.361 -7.5,-7.5c-0,-4.35 7.5,-14.5 7.5,-14.5Zm-0,3.482c1.217,1.8 2.88,4.402 4.086,6.851c0.784,1.592 1.414,3.084 1.414,4.167c0,3.035 -2.464,5.5 -5.5,5.5c-3.036,0 -5.5,-2.465 -5.5,-5.5c-0,-1.083 0.63,-2.575 1.414,-4.167c1.206,-2.449 2.869,-5.052 4.086,-6.851Z" style="fill:#5c70d0;"/></svg>