<?xml version="1.0" encoding="UTF-8" standalone="no"?><!DOCTYPE svg PUBLIC "-//W3C//DTD SVG 1.1//EN" "http://www.w3.org/Graphics/SVG/1.1/DTD/svg11.dtd"><svg width="100%" height="100%" viewBox="0 0 100 100" version="1.1" xmlns="http://www.w3.org/2000/svg" xmlns:xlink="http://www.w3.org/1999/xlink" xml:space="preserve" xmlns:serif="http://www.serif.com/" style="fill-rule:evenodd;clip-rule:evenodd;stroke-linejoin:round;stroke-miterlimit:2;"><path d="M100,49.932c0,-27.633 -22.404,-50.068 -50,-50.068c-27.596,0 -50,22.435 -50,50.068c0,27.633 22.404,50.068 50,50.068c27.596,-0 50,-22.435 50,-50.068Z" style="fill:#122f41;"/><path d="M100,49.932l-100,0c0,27.633 22.404,50.068 50,50.068c27.596,-0 50,-22.435 50,-50.068Z" style="fill:#e0e0d5;"/><path d="M6.8,34.712l17.745,0.681c-2.247,3.573 -3.845,7.641 -4.62,12.012l-13.125,-12.693Zm25.173,-27.012l12.092,13.802c-4.114,0.87 -7.927,2.61 -11.264,5.031l-0.828,-18.833Zm35.788,-0.2l-0.641,18.842c-3.366,-2.386 -7.197,-4.083 -11.313,-4.906l11.954,-13.936Zm25.439,26.729l-12.999,12.84c-0.819,-4.369 -2.458,-8.418 -4.737,-11.961l17.736,-0.879Zm-36.749,-5.948c9.987,2.842 16.88,11.827 18.037,22.101l23.512,0l-0,4.118l-96,-0l-0,-4.118l23.704,0c0.138,-1.218 0.36,-2.441 0.667,-3.661c3.511,-13.912 16.978,-22.167 30.08,-18.44Z" style="fill:#e0e0d5;fill-rule:nonzero;"/><path d="M39.5,97l21,-0l-0,-27.853l19.5,0l-30,-32.147l-30,32.147l19.5,0l0,27.853Z" style="fill:#122f41;"/><path d="M100,49.932c0,-27.633 -22.404,-50.068 -50,-50.068c-27.596,0 -50,22.435 -50,50.068c0,27.633 22.404,50.068 50,50.068c27.596,-0 50,-22.435 50,-50.068Zm-3,0c0,25.976 -21.059,47.068 -47,47.068c-25.941,-0 -47,-21.092 -47,-47.068c0,-25.976 21.059,-47.068 47,-47.068c25.941,0 47,21.092 47,47.068Z" style="fill:#122f41;"/></svg>