<?xml version="1.0" encoding="UTF-8" standalone="no"?><!DOCTYPE svg PUBLIC "-//W3C//DTD SVG 1.1//EN" "http://www.w3.org/Graphics/SVG/1.1/DTD/svg11.dtd"><svg width="100%" height="100%" viewBox="0 0 800 800" version="1.1" xmlns="http://www.w3.org/2000/svg" xmlns:xlink="http://www.w3.org/1999/xlink" xml:space="preserve" xmlns:serif="http://www.serif.com/" style="fill-rule:evenodd;clip-rule:evenodd;stroke-linejoin:round;stroke-miterlimit:2;"><g id="SVGRepo_bgCarrier"><path d="M800,400c0,-220.766 -179.234,-400 -400,-400c-220.766,0 -400,179.234 -400,400c0,220.766 179.234,400 400,400c220.766,0 400,-179.234 400,-400Z" style="fill:#e0e0d5;"/></g><g id="SVGRepo_iconCarrier"><path d="M60,520.96l139.659,5.174c-17.683,27.147 -30.263,58.055 -36.363,91.26l-103.296,-96.434Zm198.119,-205.217l95.17,104.862c-32.381,6.607 -62.389,19.83 -88.654,38.218l-6.516,-143.08Zm281.665,-1.519l-5.046,143.149c-26.487,-18.125 -56.64,-31.021 -89.036,-37.273l94.082,-105.876Zm200.216,203.07l-102.306,97.547c-6.446,-33.189 -19.347,-63.948 -37.286,-90.868l139.592,-6.679Zm-289.232,-45.186c78.609,21.588 132.854,89.854 141.958,167.909l127.734,0l-0,31.283l-640.92,-0l0,-31.283l129.243,0c1.088,-9.256 2.828,-18.547 5.251,-27.816c27.63,-105.692 133.62,-168.414 236.734,-140.093Zm-50.768,-129.667l114.45,-117.31l-83.93,-0l-0,-125.131l-61.04,-0l0,125.131l-83.93,-0l114.45,117.31Z" style="fill:#122f41;fill-rule:nonzero;"/></g></svg>