<?xml version="1.0" encoding="UTF-8" standalone="no"?><!DOCTYPE svg PUBLIC "-//W3C//DTD SVG 1.1//EN" "http://www.w3.org/Graphics/SVG/1.1/DTD/svg11.dtd"><svg width="100%" height="100%" viewBox="0 0 100 100" version="1.1" xmlns="http://www.w3.org/2000/svg" xmlns:xlink="http://www.w3.org/1999/xlink" xml:space="preserve" xmlns:serif="http://www.serif.com/" style="fill-rule:evenodd;clip-rule:evenodd;stroke-linejoin:round;stroke-miterlimit:2;"><g id="SVGRepo_iconCarrier"><path d="M23.066,92.123l-0.369,-0.239c0.24,0.157 0.369,0.239 0.369,0.239Zm55.187,-44.314c-0.751,0.623 4.676,11.227 5.595,11.88c0.915,0.654 3.672,0.094 5.006,-0.558c1.337,-0.653 -2.754,7.278 -4.505,8.212c-1.752,0.931 -3.17,3.825 -2.422,5.13c0.752,1.306 0.835,6.252 -0.748,6.907c-1.589,0.651 -2.172,1.677 -1.672,2.892c0.498,1.21 -1.167,3.262 -1.919,4.569c-0.753,1.305 -3.672,4.011 -3.924,4.759c-0.248,0.747 -3.838,0.559 -5.259,0.559c-1.417,0 -0.334,-1.96 -0.502,-3.637c-0.164,-1.681 -1.415,-3.267 -1.415,-4.106c-0,-0.841 -0.42,-2.801 -1.002,-3.732c-0.584,-0.936 -0.754,-2.708 -0.169,-3.733c0.587,-1.028 1.002,-4.011 -0.163,-5.318c-1.17,-1.306 -2.507,-3.546 -1.587,-5.319c0.918,-1.772 -1.002,-1.584 -2.587,-2.426c-1.587,-0.841 -4.843,0.28 -6.512,0.561c-1.67,0.279 -3.337,-0.467 -3.839,-1.402c-0.5,-0.932 -1.585,-3.264 -2.697,-3.825c-1.109,-0.558 -0.473,-2.985 0.193,-3.917c0.67,-0.931 -0.666,-2.705 0,-3.455c0.67,-0.745 1.086,-3.449 2.421,-4.041c1.337,-0.589 1.085,-0.995 1.126,-2.395c0.043,-1.4 1.502,-1.4 1.751,-2.146c0.251,-0.747 1.001,-1.119 2.508,-1.119c1.502,-0 4.045,-0.981 5.256,-1.307c1.211,-0.327 3.298,-0.794 3.13,0.514c-0.167,1.305 -0.124,2.797 0.667,2.797c0.794,-0 1.879,0.514 3.131,1.384c1.252,0.869 1.293,0.158 1.461,-0.823c0.169,-0.981 1.919,-0.607 3.731,0.326c1.812,0.934 4.283,0.279 5.072,0.188l-0.126,2.581Zm-62.018,-34.673l-0.308,0.284c0.077,0.475 0.016,1.217 -0.229,2.331c-0.979,4.452 -4.579,4.551 -7.219,7.451c-2.598,2.856 5.142,3.633 5.341,6.213c0.573,7.427 4.532,-0.606 3.472,-3.246c-2.05,-5.115 2.334,-3.711 4.099,-0.461c0.98,1.804 1.725,0.285 2.925,-0.344c0.972,-0.507 1.232,2.24 1.441,2.718c0.69,1.589 2.955,2.064 2.572,4.11c-0.426,2.255 -2.029,1.578 -3.596,1.96c-1.75,0.424 0.283,1.897 0.029,2.434c-0.276,0.588 -2.386,0.831 -2.948,1.165c-1.655,0.974 -0.643,2.875 -1.938,3.896c-0.888,0.702 -1.783,0.246 -1.955,1.561c-0.203,1.549 -3.057,2.047 -2.686,3.529c0.102,0.407 0.924,3.445 0.406,3.606c-0.238,0.077 -2.12,-2.642 -2.634,-2.915c-1.017,-0.539 -5.641,-0.098 -6.236,2.964c-0.385,1.979 2.799,5.105 3.61,2.379c1.005,-3.356 1.483,1.954 1.241,2.162c0.48,0.419 3.288,-0.69 2.456,1.254c-0.353,0.822 0.345,2.967 1.592,2.306c0.521,-0.276 1.864,0.555 2.099,0.109c0.337,-0.514 0.792,-0.939 1.328,-1.24c1.256,-0.734 3.134,-0.045 4.51,0.036c0.84,0.048 7.724,3.805 7.761,4.559c0.151,2.822 5.355,2.455 6.153,3.463c2.148,2.734 1.487,1.346 -0.08,4.848c-0.79,1.763 -0.102,3.925 -2.015,5.203c-0.92,0.612 -2.043,0.306 -2.862,1.173c-0.737,0.783 -0.447,1.718 -0.895,2.623c-0.539,1.077 -7.783,7.589 -8.261,9.163c-0.238,0.79 -2.4,1.478 -0.577,2.236c0.376,0.111 0.19,0.588 -0.134,1.218c-1.322,-0.864 -2.599,-1.788 -3.829,-2.768l0.063,-0.155c0.609,-1.493 -0.21,-3.216 0.195,-4.778c0.79,-3.04 1.742,-6.335 1.449,-9.601c-0.183,-2.005 -0.627,-2.096 -2.11,-3.253c-1.563,-1.227 -1.563,-2.963 -2.609,-4.515c-0.947,-1.41 1.603,-6.766 0.892,-7.092c-0.797,-0.368 -2.609,0.113 -3.183,-0.649c-0.616,-0.82 -1.045,-1.79 -1.892,-2.426c-0.547,-0.41 -2.963,-1.782 -3.607,-1.685c-2.869,0.429 -5.949,-1.994 -8.057,-3.99c0,0 -0.009,-0.533 -0.009,-0.972c0,-14.584 6.258,-27.719 16.235,-36.864Zm69.84,71.47c-0.407,0.425 -1.033,1.046 -1.033,1.046c-0.241,-0.05 -0.492,-0.361 -0.823,-0.866c-0.798,-1.211 -0.54,-3.172 -0,-4.104c0.538,-0.935 -0.458,-2.053 0.712,-2.334c1.169,-0.279 0.944,-2.76 2.004,-2.892c2.254,-0.279 0.083,6.717 -0.75,8.677c-0.113,0.266 -0.217,0.493 -0.314,0.685l0.204,-0.212Zm13.925,-34.606l-0.002,-0.404c-1.66,-1.009 -4.017,0.226 -5.97,-0.699c-2.27,-1.076 -4.811,-2.535 -6.083,-2.994c-1.268,-0.462 2.269,4.3 2.724,3.686c0.456,-0.614 2.269,0.461 2.815,0.461c0.545,0 1.996,1.075 1.089,2.074c-0.906,1 -8.983,5.151 -9.801,4.071c-0.821,-1.081 -5.277,-9.742 -6.096,-9.229l0,-1.831c0.864,-0.08 1.015,-2.267 0.788,-2.996c-0.229,-0.73 -1.589,0.345 -2.451,-0.116c-0.862,-0.459 -2.043,0.116 -2.904,-0.538c-0.863,-0.652 -1,-2.189 0,-2.226c0.997,-0.039 1.498,-0.308 2.087,-0.883c0.591,-0.576 2.815,-0.921 3.677,-0.347c0.86,0.577 2.134,0.961 2.902,0.308c0.771,-0.651 -1.539,-1.918 -2.042,-2.265c-0.5,-0.345 -0.091,-1.459 -0.589,-1.459c-0.501,0 -0.909,0.191 -0.636,0.73c0.272,0.537 -1.452,1.496 -1.727,0.96c-0.27,-0.538 -0.723,-1.574 -1.404,-1.574c-0.679,-0 -1.587,2.612 -1.633,3.033c-0.046,0.423 -1.226,1.114 -2.177,1.114c-0.951,-0 -0.951,0.923 -0.453,1.346c0.499,0.422 0.135,2.112 -0.772,2.209c-0.908,0.098 -1.226,-0.174 -1.361,-0.828c-0.135,-0.651 -1.043,-0.575 -1.089,-1.92c-0.047,-1.344 -1.045,-1.996 -1.68,-2.611c-0.634,-0.615 -2.269,-2.42 -2.904,-1.612c-0.634,0.807 2.27,2.535 3.039,2.994c0.775,0.461 0.638,1.459 0.229,1.69c-0.408,0.231 -1.18,2.113 -1.633,2.265c-0.456,0.153 -0.889,-0.572 -0.889,-0.572c-0.681,-0.23 0.951,-0.922 1.224,-1.267c0.271,-0.345 -2.857,-2.764 -3.422,-3.456c-0.564,-0.692 -2.975,0.575 -4.063,0.115c-1.089,-0.459 -2.724,1.728 -2.858,2.995c-0.138,1.268 -1.908,1.612 -3.541,1.612c-1.632,-0 -2.723,-1.036 -2.176,-2.073c0.544,-1.037 -0.273,-2.765 0.681,-2.88c0.952,-0.114 3.672,-0 4.217,-1.267c0.544,-1.267 -2.587,-2.42 -1.359,-2.649c1.222,-0.231 3.131,-1.842 4.492,-2.765c1.358,-0.921 1.495,-2.073 2.719,-2.154c1.228,-0.079 -0.27,-1.994 0.82,-2.569c1.091,-0.576 1.361,2.074 2.178,2.074c0.818,0 2.448,-0.231 3.811,0.345c1.363,0.577 1.77,-0.576 2.315,-2.075c0.544,-1.497 1.905,-2.304 4.626,-3.455c2.723,-1.153 -3.128,0.345 -4.219,-0.808c-1.089,-1.153 0.409,-3.688 1.091,-5.477c0.681,-1.791 -2.179,1.789 -3.677,3.634c-1.499,1.843 0.409,2.649 0.271,3.916c-0.136,1.268 -2.583,2.765 -2.583,2.765c-1.089,0.115 -0.954,-1.728 -1.498,-2.534c-0.545,-0.806 -1.5,-0.461 -2.998,0.461c-1.498,0.921 -1.633,-2.189 -2.04,-3.457c-0.405,-1.265 2.451,-2.88 3.793,-3.741c1.341,-0.864 3.556,-5.013 6.008,-8.237c2.452,-3.226 5.991,-1.614 6.943,-0.346c0.956,1.266 3.402,0.46 5.719,2.765c2.316,2.304 -0.546,3.34 -3.128,2.404c-2.591,-0.936 0.542,2.319 2.037,3.241c1.498,0.92 2.315,-2.074 2.861,-2.765c0.195,-0.248 0.583,-0.363 1.069,-0.492l-0.205,-0.193c9.745,9.126 15.838,22.105 15.838,36.496Zm-77.828,3.665c-1.155,1.193 -3.145,-0.832 -4.518,-0.76c-1.374,0.072 -2.063,-1.37 -3.256,-1.225c-1.196,0.141 0.326,-1.518 1.99,-0.649c1.66,0.865 6.726,1.657 5.784,2.634Zm30.608,-23.097c-0.451,-0.395 0.457,-1.948 0.864,-2.408c0.41,-0.461 -1.136,-0.308 -1.042,0.346c0.091,0.652 -0.591,1.651 -1.544,1.92c-0.953,0.269 -2.039,0.191 -1.496,-0.539c0.542,-0.729 0.044,-1.382 -0.365,-2.074c-0.407,-0.692 2.268,-1.114 2.815,-1.535c0.544,-0.422 -0.86,-0.692 -0.817,-1.344c0.046,-0.654 0.364,-1.229 0.904,-1.305c0.546,-0.077 1.056,-0.372 1.545,-0.346c1.5,0.078 1.041,2.957 1.588,3.88c0.544,0.92 2.089,2.035 1.952,2.84c-0.137,0.807 -0.428,1.268 -1.539,1.037c-1.117,-0.231 -2.904,1.19 -3.588,0.921c-0.683,-0.27 1.18,-0.999 0.723,-1.393Zm-29.376,-8.068c0.434,0.865 -2.605,-1.011 -3.329,-1.876c-0.72,-0.864 -1.809,-2.814 -0.936,-3.68c0.866,-0.863 2.811,1.801 3.834,2.383c2.022,1.155 -0.002,2.309 0.431,3.173Zm14.117,-20.927c-0.447,2.671 -1.153,5.915 -0.936,7.66c-0.234,0.388 -0.5,0.659 -0.755,0.945c-0.753,0.847 -2.16,0.783 -2.361,1.368c-0.202,0.585 -0.704,2.406 -2.463,2.415c-1.759,0.006 -1.257,3.444 -1.407,4.425c-0.151,0.981 -0.551,2.141 -1.055,1.295c-0.503,-0.846 -0.704,-0.523 -2.259,-2.995c-1.555,-2.473 -0.958,-3.839 -0.454,-4.555c0.502,-0.714 0.704,-2.408 -0,-2.148c-0.704,0.26 -1.106,-0.327 -0.955,-1.136c0.143,-0.772 0.834,-1.345 0.117,-2.145c3.878,-2.246 8.085,-3.986 12.528,-5.129Zm5.48,12.844c1.363,0.575 2.449,-0.468 3.4,-0.691c1.127,-0.263 1.77,3.111 0.683,2.995c-1.09,-0.115 -2.314,1.843 -3.888,1.728c-1.575,-0.116 -0.877,-1.036 -2.647,-2.418c-0.38,-0.298 -0.535,-0.566 -0.549,-0.802c0.378,-0.307 0.754,-0.617 1.146,-0.913c0.612,-0.137 1.339,-0.117 1.855,0.101Zm-23.019,-4.395c0.496,0.543 1.026,0.972 1.538,1.189c1.451,0.613 -0.071,2.623 1.016,2.917c1.083,0.294 2.965,1.664 2.965,2.313c0,0.65 -0.854,1.463 -1.232,1.37c-2.727,-0.664 -5.027,-3.357 -6.293,-4.831c-0.274,-0.319 -0.511,-0.564 -0.724,-0.751c0.884,-0.767 1.795,-1.504 2.73,-2.207Zm-3.401,2.799l-0.301,0.273l0.108,-0.098l0.193,-0.175Zm0.32,-0.285c-0.105,0.093 -0.211,0.187 -0.316,0.282l0.316,-0.282Zm0.351,-0.307l-0.314,0.274l0.122,-0.107l0.192,-0.167Zm7.741,-5.527c-1.739,1.007 -3.412,2.117 -5.011,3.32c1.599,-1.203 3.272,-2.313 5.011,-3.32Z" style="fill:#161716;"/></g></svg>