<?xml version="1.0" encoding="UTF-8" standalone="no"?><!DOCTYPE svg PUBLIC "-//W3C//DTD SVG 1.1//EN" "http://www.w3.org/Graphics/SVG/1.1/DTD/svg11.dtd"><svg width="100%" height="100%" viewBox="0 0 100 100" version="1.1" xmlns="http://www.w3.org/2000/svg" xmlns:xlink="http://www.w3.org/1999/xlink" xml:space="preserve" xmlns:serif="http://www.serif.com/" style="fill-rule:evenodd;clip-rule:evenodd;stroke-linecap:round;stroke-linejoin:round;stroke-miterlimit:1.5;"><g><path d="M42.067,57.373c-7.956,3.958 -16.234,3.818 -20.567,-1.003c-0.815,-0.906 -1.448,-1.932 -1.904,-3.047c-1.003,0.208 -2.044,0.312 -3.111,0.312c-8.548,-0 -15.485,-6.841 -15.485,-15.272c-0,-8.431 6.937,-15.272 15.485,-15.272l0.211,0c1.463,-7.396 10.226,-13.091 20.808,-13.091c9.848,-0 18.118,4.932 20.4,11.574c7.096,-7.121 16.344,-3.83 20.685,1.042c0.811,0.907 1.437,1.937 1.881,3.051c1.008,-0.2 2.052,-0.299 3.115,-0.295c8.552,0.044 15.452,6.921 15.415,15.347c-0.041,8.431 -7.015,15.24 -15.563,15.196l-0.211,0c-1.496,7.388 -10.289,13.044 -20.874,12.992c-9.771,-0.048 -17.974,-4.949 -20.285,-11.534Z" style="fill:#d3d3d3;"/><path d="M82.126,59.015c-2.991,5.812 -10.728,9.936 -19.774,9.892c-9.771,-0.048 -17.974,-4.949 -20.285,-11.534c-7.956,3.958 -16.234,3.818 -20.567,-1.003c-0.815,-0.906 -1.448,-1.932 -1.904,-3.047c-1.003,0.208 -2.044,0.312 -3.111,0.312c-8.548,-0 -15.485,-6.841 -15.485,-15.272c-0,-8.431 6.937,-15.272 15.485,-15.272l0.211,0c1.463,-7.396 10.226,-13.091 20.808,-13.091c9.848,0 18.118,4.932 20.4,11.574c7.096,-7.121 16.344,-3.83 20.685,1.042c0.811,0.907 1.437,1.937 1.881,3.051c1.008,-0.2 2.052,-0.299 3.115,-0.295c8.552,0.044 15.452,6.921 15.415,15.347c-0.041,8.431 -7.015,15.24 -15.563,15.196l-0.211,0c-0.134,0.66 -0.326,1.306 -0.573,1.935c-0.735,-1.926 -1.651,-5.225 0.678,-5.225l0.123,0.004l-0,-0.004c6.719,0.035 12.224,-5.294 12.256,-11.921c0.029,-6.624 -5.417,-12.007 -12.14,-12.043c-0.839,-0.003 -1.664,0.075 -2.46,0.233c-1.555,0.308 -3.108,-0.536 -3.695,-2.008c-0.303,-0.758 -0.726,-1.46 -1.278,-2.076c-0.002,-0.002 -0.003,-0.004 -0.005,-0.006c-3.337,-3.746 -10.442,-6.383 -15.898,-0.908c-0.802,0.805 -1.962,1.139 -3.069,0.884c-1.107,-0.255 -2.004,-1.063 -2.373,-2.138c-1.912,-5.565 -9.035,-9.352 -17.288,-9.352c-8.801,-0 -16.364,4.288 -17.58,10.44c-0.305,1.541 -1.657,2.651 -3.228,2.651l-0.211,0c-6.719,0 -12.195,5.355 -12.195,11.982c-0,6.627 5.476,11.982 12.195,11.982c0.838,-0 1.656,-0.08 2.445,-0.243c1.552,-0.321 3.112,0.509 3.711,1.976c0.313,0.765 0.746,1.471 1.306,2.093c3.505,3.899 10.219,3.458 16.654,0.256c0.845,-0.42 1.83,-0.457 2.704,-0.102c0.874,0.355 1.553,1.068 1.866,1.959c1.938,5.522 9.004,9.293 17.197,9.333c8.804,0.043 16.389,-4.21 17.633,-10.355c-0.196,0.968 0.053,1.972 0.678,2.736c0.385,0.47 0.887,0.819 1.447,1.017Z" style="fill:#808080;"/><path d="M54.999,36.41c5.351,-12.493 27.714,-4.924 21.658,10.05" style="fill:#d3d3d3;stroke:#808080;stroke-width:3px;"/><path d="M17.031,36.453c-4.441,-7.137 4.14,-15.335 10.969,-12.24" style="fill:#d3d3d3;stroke:#808080;stroke-width:3px;"/><path d="M43.29,42.453c1.984,-8.168 13.846,-7.784 16.42,-0.743" style="fill:#d3d3d3;stroke:#808080;stroke-width:3px;"/><path d="M25.105,56.998c-7.659,-5.102 -3.527,-16.215 4.427,-15.886" style="fill:#d3d3d3;stroke:#808080;stroke-width:3px;"/></g><g><circle cx="17.5" cy="66.5" r="7" style="fill:#ebebeb;stroke:#bbc7e2;stroke-width:2px;"/><g><path d="M18.175,65.779c-0.123,0.189 -0.077,0.439 0.097,0.546c0.174,0.113 0.414,0.041 0.536,-0.153c0.123,-0.189 0.077,-0.439 -0.097,-0.546c-0.173,-0.113 -0.413,-0.041 -0.536,0.153Z" style="fill:#808080;"/><path d="M18.553,62.633c-0.077,0.122 -0.056,0.275 0.051,0.337c0.102,0.066 0.245,0.02 0.322,-0.102c0.076,-0.123 0.056,-0.271 -0.046,-0.338c-0.107,-0.066 -0.25,-0.02 -0.327,0.103Z" style="fill:#808080;"/><path d="M17.108,70.631c-0.077,0.122 -0.057,0.276 0.046,0.342c0.107,0.061 0.25,0.015 0.326,-0.107c0.077,-0.118 0.057,-0.271 -0.051,-0.337c-0.102,-0.062 -0.25,-0.016 -0.321,0.102Z" style="fill:#808080;"/><path d="M18.19,68.327c-0.076,0.123 -0.056,0.276 0.046,0.343c0.108,0.061 0.251,0.015 0.327,-0.103c0.077,-0.122 0.056,-0.275 -0.051,-0.342c-0.102,-0.061 -0.245,-0.015 -0.322,0.102Z" style="fill:#808080;"/><path d="M13.206,66.887c-0.077,0.123 -0.057,0.271 0.045,0.337c0.108,0.067 0.251,0.021 0.327,-0.102c0.077,-0.123 0.057,-0.271 -0.051,-0.337c-0.102,-0.067 -0.25,-0.021 -0.321,0.102Z" style="fill:#808080;"/><path d="M20.943,64.052c-0.097,0.154 -0.071,0.343 0.051,0.419c0.128,0.082 0.307,0.021 0.404,-0.133c0.097,-0.148 0.071,-0.337 -0.056,-0.413c-0.128,-0.082 -0.307,-0.021 -0.399,0.127Z" style="fill:#808080;"/><path d="M20.244,68.731c-0.184,0.296 -0.103,0.689 0.194,0.873c0.291,0.184 0.679,0.087 0.868,-0.209c0.184,-0.296 0.102,-0.69 -0.194,-0.874c-0.291,-0.183 -0.679,-0.092 -0.868,0.21Z" style="fill:#808080;"/><path d="M16.454,63.72c-0.113,0.184 -0.097,0.399 0.041,0.486c0.138,0.086 0.337,0.005 0.454,-0.174c0.113,-0.184 0.097,-0.403 -0.041,-0.485c-0.137,-0.087 -0.337,-0.01 -0.454,0.173Z" style="fill:#808080;"/><path d="M15.289,65.084c-0.184,0.301 -0.102,0.69 0.194,0.873c0.292,0.184 0.68,0.092 0.869,-0.209c0.184,-0.296 0.102,-0.689 -0.194,-0.868c-0.292,-0.184 -0.68,-0.092 -0.869,0.204Z" style="fill:#808080;"/><path d="M15.335,68.705c-0.275,0.434 -0.189,0.981 0.189,1.221c0.378,0.235 0.909,0.077 1.185,-0.363c0.271,-0.434 0.189,-0.98 -0.189,-1.22c-0.383,-0.235 -0.909,-0.077 -1.185,0.362Z" style="fill:#808080;"/></g></g><g><circle cx="22" cy="85.5" r="6" style="fill:#ebebeb;stroke:#bbc7e2;stroke-width:2px;"/><g><path d="M22.196,84.226c-0.063,0.216 0.053,0.443 0.25,0.496c0.199,0.057 0.408,-0.08 0.47,-0.301c0.063,-0.216 -0.053,-0.443 -0.25,-0.496c-0.199,-0.058 -0.408,0.08 -0.47,0.301Z" style="fill:#808080;"/><path d="M21.655,81.104c-0.039,0.139 0.025,0.28 0.145,0.308c0.117,0.034 0.241,-0.051 0.279,-0.19c0.038,-0.14 -0.024,-0.276 -0.141,-0.31c-0.121,-0.033 -0.245,0.052 -0.283,0.192Z" style="fill:#808080;"/><path d="M22.568,89.18c-0.038,0.14 0.025,0.28 0.142,0.315c0.12,0.028 0.244,-0.057 0.282,-0.197c0.04,-0.134 -0.024,-0.275 -0.145,-0.308c-0.116,-0.029 -0.245,0.057 -0.279,0.19Z" style="fill:#808080;"/><path d="M22.943,86.663c-0.038,0.139 0.026,0.28 0.142,0.314c0.121,0.028 0.245,-0.057 0.284,-0.191c0.038,-0.14 -0.025,-0.281 -0.147,-0.314c-0.115,-0.029 -0.239,0.056 -0.279,0.191Z" style="fill:#808080;"/><path d="M17.755,86.715c-0.039,0.14 0.024,0.276 0.141,0.31c0.121,0.033 0.245,-0.053 0.283,-0.192c0.038,-0.139 -0.024,-0.275 -0.145,-0.308c-0.117,-0.034 -0.246,0.052 -0.279,0.19Z" style="fill:#808080;"/><path d="M24.352,81.777c-0.049,0.175 0.03,0.349 0.169,0.387c0.146,0.041 0.3,-0.069 0.349,-0.243c0.05,-0.17 -0.029,-0.344 -0.173,-0.381c-0.146,-0.041 -0.3,0.069 -0.345,0.237Z" style="fill:#808080;"/><path d="M25.026,86.459c-0.091,0.337 0.1,0.69 0.436,0.781c0.332,0.093 0.676,-0.112 0.772,-0.45c0.091,-0.336 -0.1,-0.69 -0.437,-0.781c-0.331,-0.092 -0.677,0.108 -0.771,0.45Z" style="fill:#808080;"/><path d="M19.956,82.749c-0.054,0.208 0.022,0.409 0.179,0.453c0.157,0.043 0.324,-0.092 0.385,-0.297c0.055,-0.208 -0.023,-0.414 -0.178,-0.453c-0.157,-0.044 -0.326,0.087 -0.386,0.297Z" style="fill:#808080;"/><path d="M19.233,84.39c-0.09,0.341 0.1,0.689 0.437,0.78c0.331,0.093 0.677,-0.107 0.771,-0.45c0.091,-0.336 -0.1,-0.689 -0.435,-0.776c-0.332,-0.092 -0.677,0.108 -0.773,0.446Z" style="fill:#808080;"/><path d="M20.317,87.845c-0.139,0.495 0.101,0.994 0.532,1.115c0.429,0.116 0.892,-0.188 1.03,-0.688c0.135,-0.493 -0.1,-0.993 -0.531,-1.115c-0.435,-0.115 -0.893,0.188 -1.031,0.688Z" style="fill:#808080;"/></g></g><g><circle cx="41.5" cy="75" r="9" style="fill:#ebebeb;stroke:#bbc7e2;stroke-width:2px;"/><g><path d="M41.36,76.103c0.021,-0.287 -0.185,-0.539 -0.446,-0.553c-0.263,-0.018 -0.488,0.21 -0.506,0.503c-0.021,0.287 0.185,0.539 0.446,0.552c0.263,0.019 0.488,-0.209 0.506,-0.502Z" style="fill:#808080;"/><path d="M42.876,79.86c0.01,-0.184 -0.107,-0.343 -0.265,-0.346c-0.156,-0.011 -0.287,0.128 -0.298,0.313c-0.01,0.184 0.104,0.338 0.26,0.349c0.161,0.008 0.293,-0.131 0.303,-0.316Z" style="fill:#808080;"/><path d="M39.565,70.009c0.01,-0.184 -0.107,-0.343 -0.263,-0.355c-0.157,-0.002 -0.289,0.137 -0.3,0.322c-0.013,0.179 0.104,0.338 0.265,0.346c0.153,0.006 0.29,-0.137 0.298,-0.313Z" style="fill:#808080;"/><path d="M39.772,73.257c0.01,-0.184 -0.107,-0.343 -0.263,-0.355c-0.158,-0.002 -0.289,0.137 -0.303,0.316c-0.01,0.185 0.107,0.344 0.268,0.352c0.152,0.006 0.284,-0.134 0.298,-0.313Z" style="fill:#808080;"/><path d="M46.244,71.798c0.01,-0.185 -0.104,-0.338 -0.259,-0.349c-0.161,-0.009 -0.293,0.131 -0.304,0.316c-0.01,0.184 0.104,0.337 0.265,0.346c0.156,0.011 0.293,-0.132 0.298,-0.313Z" style="fill:#808080;"/><path d="M39.323,79.743c0.014,-0.231 -0.131,-0.427 -0.315,-0.438c-0.194,-0.012 -0.356,0.166 -0.371,0.398c-0.017,0.226 0.128,0.422 0.318,0.429c0.194,0.012 0.356,-0.166 0.368,-0.389Z" style="fill:#808080;"/><path d="M37.223,74.071c0.023,-0.445 -0.311,-0.836 -0.756,-0.859c-0.439,-0.027 -0.814,0.321 -0.843,0.77c-0.024,0.445 0.31,0.835 0.755,0.859c0.44,0.026 0.818,-0.316 0.844,-0.77Z" style="fill:#808080;"/><path d="M44.557,77.348c0.012,-0.276 -0.137,-0.506 -0.345,-0.519c-0.208,-0.012 -0.381,0.202 -0.402,0.475c-0.013,0.275 0.14,0.512 0.345,0.518c0.208,0.013 0.384,-0.196 0.402,-0.474Z" style="fill:#808080;"/><path d="M45.021,75.102c0.02,-0.451 -0.311,-0.835 -0.756,-0.859c-0.439,-0.026 -0.818,0.316 -0.844,0.77c-0.023,0.445 0.311,0.836 0.753,0.853c0.44,0.027 0.818,-0.315 0.847,-0.764Z" style="fill:#808080;"/><path d="M42.737,71.074c0.042,-0.656 -0.393,-1.215 -0.964,-1.251c-0.568,-0.03 -1.066,0.474 -1.104,1.137c-0.035,0.653 0.393,1.215 0.964,1.25c0.574,0.028 1.066,-0.474 1.104,-1.136Z" style="fill:#808080;"/></g></g><g><circle cx="79" cy="75" r="6" style="fill:#ebebeb;stroke:#bbc7e2;stroke-width:2px;"/><g><path d="M77.816,75.695c0.186,-0.054 0.296,-0.242 0.244,-0.409c-0.05,-0.17 -0.246,-0.258 -0.434,-0.201c-0.185,0.054 -0.296,0.242 -0.243,0.409c0.049,0.17 0.245,0.258 0.433,0.201Z" style="fill:#808080;"/><path d="M75.807,77.522c0.118,-0.036 0.191,-0.147 0.156,-0.247c-0.029,-0.1 -0.148,-0.15 -0.266,-0.114c-0.119,0.037 -0.188,0.144 -0.159,0.244c0.032,0.104 0.15,0.154 0.269,0.117Z" style="fill:#808080;"/><path d="M81.229,73.148c0.119,-0.036 0.191,-0.147 0.162,-0.247c-0.035,-0.1 -0.153,-0.15 -0.272,-0.114c-0.115,0.033 -0.188,0.144 -0.156,0.247c0.032,0.097 0.154,0.15 0.266,0.114Z" style="fill:#808080;"/><path d="M79.235,74.034c0.119,-0.036 0.192,-0.147 0.163,-0.247c-0.036,-0.1 -0.154,-0.151 -0.27,-0.117c-0.118,0.036 -0.191,0.147 -0.158,0.25c0.031,0.097 0.15,0.148 0.265,0.114Z" style="fill:#808080;"/><path d="M81.659,77.763c0.118,-0.036 0.188,-0.144 0.159,-0.244c-0.032,-0.103 -0.15,-0.153 -0.269,-0.117c-0.118,0.037 -0.188,0.144 -0.156,0.247c0.029,0.101 0.151,0.154 0.266,0.114Z" style="fill:#808080;"/><path d="M75.054,75.262c0.148,-0.045 0.238,-0.182 0.201,-0.301c-0.037,-0.124 -0.187,-0.185 -0.336,-0.14c-0.146,0.042 -0.235,0.179 -0.195,0.3c0.037,0.125 0.187,0.185 0.33,0.141Z" style="fill:#808080;"/><path d="M78.131,72.621c0.285,-0.089 0.453,-0.389 0.364,-0.675c-0.086,-0.282 -0.392,-0.437 -0.68,-0.351c-0.286,0.089 -0.453,0.39 -0.364,0.675c0.085,0.283 0.388,0.441 0.68,0.351Z" style="fill:#808080;"/><path d="M77.778,77.994c0.176,-0.056 0.286,-0.203 0.245,-0.337c-0.041,-0.134 -0.215,-0.192 -0.392,-0.142c-0.176,0.056 -0.289,0.207 -0.245,0.337c0.04,0.134 0.212,0.196 0.392,0.142Z" style="fill:#808080;"/><path d="M79.297,77.764c0.288,-0.093 0.453,-0.39 0.364,-0.675c-0.085,-0.283 -0.389,-0.441 -0.68,-0.352c-0.285,0.089 -0.453,0.39 -0.361,0.672c0.085,0.282 0.389,0.441 0.677,0.355Z" style="fill:#808080;"/><path d="M81.298,75.39c0.422,-0.126 0.673,-0.529 0.562,-0.897c-0.113,-0.364 -0.546,-0.559 -0.971,-0.429c-0.419,0.129 -0.673,0.529 -0.562,0.897c0.116,0.367 0.546,0.559 0.971,0.429Z" style="fill:#808080;"/></g></g><g><circle cx="62.359" cy="82.641" r="4.641" style="fill:#ebebeb;stroke:#bbc7e2;stroke-width:2px;"/><g><path d="M62.158,82.038c-0.005,0.174 0.125,0.321 0.283,0.323c0.16,0.005 0.29,-0.139 0.294,-0.316c0.006,-0.174 -0.125,-0.322 -0.283,-0.323c-0.16,-0.005 -0.29,0.138 -0.294,0.316Z" style="fill:#808080;"/><path d="M61.151,79.803c-0.002,0.112 0.073,0.206 0.168,0.203c0.095,0.003 0.171,-0.084 0.173,-0.196c0.001,-0.112 -0.071,-0.202 -0.166,-0.205c-0.097,-0.001 -0.173,0.087 -0.175,0.198Z" style="fill:#808080;"/><path d="M63.391,85.677c-0.001,0.112 0.073,0.205 0.168,0.208c0.095,-0.002 0.171,-0.09 0.173,-0.201c0.004,-0.109 -0.071,-0.202 -0.168,-0.203c-0.093,0 -0.172,0.09 -0.173,0.196Z" style="fill:#808080;"/><path d="M63.187,83.719c-0.001,0.112 0.073,0.205 0.168,0.208c0.095,-0.002 0.171,-0.09 0.175,-0.198c0.002,-0.112 -0.073,-0.205 -0.17,-0.206c-0.093,0 -0.169,0.088 -0.173,0.196Z" style="fill:#808080;"/><path d="M59.311,84.758c-0.002,0.112 0.071,0.202 0.165,0.205c0.098,0.001 0.174,-0.086 0.176,-0.198c0.002,-0.112 -0.071,-0.202 -0.169,-0.203c-0.094,-0.003 -0.174,0.086 -0.172,0.196Z" style="fill:#808080;"/><path d="M63.301,79.788c-0.003,0.14 0.09,0.255 0.201,0.257c0.118,0.003 0.211,-0.109 0.214,-0.249c0.005,-0.137 -0.087,-0.252 -0.202,-0.252c-0.117,-0.003 -0.211,0.109 -0.213,0.244Z" style="fill:#808080;"/><path d="M64.708,83.165c-0.003,0.27 0.208,0.498 0.478,0.501c0.266,0.005 0.484,-0.214 0.491,-0.486c0.003,-0.269 -0.208,-0.497 -0.478,-0.5c-0.266,-0.006 -0.486,0.21 -0.491,0.485Z" style="fill:#808080;"/><path d="M60.196,81.363c-0.001,0.167 0.095,0.303 0.221,0.305c0.126,0.002 0.225,-0.131 0.231,-0.297c0.001,-0.166 -0.097,-0.306 -0.221,-0.305c-0.126,-0.002 -0.227,0.128 -0.231,0.297Z" style="fill:#808080;"/><path d="M59.97,82.731c-0.001,0.273 0.208,0.498 0.478,0.501c0.266,0.005 0.486,-0.211 0.491,-0.486c0.003,-0.269 -0.208,-0.497 -0.476,-0.497c-0.266,-0.005 -0.486,0.211 -0.493,0.482Z" style="fill:#808080;"/><path d="M61.448,85.111c-0.009,0.397 0.267,0.724 0.613,0.732c0.344,0.005 0.633,-0.312 0.64,-0.713c0.006,-0.396 -0.267,-0.725 -0.613,-0.733c-0.348,-0.003 -0.633,0.313 -0.64,0.714Z" style="fill:#808080;"/></g></g></svg>