<?xml version="1.0" encoding="UTF-8" standalone="no"?><!DOCTYPE svg PUBLIC "-//W3C//DTD SVG 1.1//EN" "http://www.w3.org/Graphics/SVG/1.1/DTD/svg11.dtd"><svg width="100%" height="100%" viewBox="0 0 100 100" version="1.1" xmlns="http://www.w3.org/2000/svg" xmlns:xlink="http://www.w3.org/1999/xlink" xml:space="preserve" xmlns:serif="http://www.serif.com/" style="fill-rule:evenodd;clip-rule:evenodd;stroke-linecap:round;stroke-linejoin:round;stroke-miterlimit:1.5;"><g><path d="M35.867,14.161c7.387,-3.83 15.074,-3.695 19.097,0.97c0.757,0.877 1.345,1.87 1.768,2.948c0.932,-0.201 1.898,-0.301 2.889,-0.301c7.937,-0 14.379,6.619 14.379,14.777c0,8.158 -6.442,14.778 -14.379,14.778l-0.196,-0c-1.359,7.156 -9.496,12.667 -19.321,12.667c-9.145,0 -16.825,-4.773 -18.943,-11.199c-6.59,6.89 -15.177,3.706 -19.208,-1.009c-0.753,-0.877 -1.334,-1.874 -1.747,-2.952c-0.935,0.193 -1.905,0.29 -2.892,0.286c-7.941,-0.043 -14.348,-6.697 -14.314,-14.851c0.038,-8.158 6.514,-14.746 14.451,-14.704l0.196,0c1.39,-7.149 9.554,-12.621 19.384,-12.571c9.072,0.047 16.69,4.788 18.836,11.161Z" style="fill:#fff;"/><path d="M58.492,50.183c-2.697,5.719 -9.915,9.817 -18.388,9.817c-9.145,0 -16.825,-4.773 -18.943,-11.199c-6.59,6.89 -15.177,3.706 -19.208,-1.009c-0.753,-0.877 -1.334,-1.874 -1.747,-2.952c-0.935,0.193 -1.905,0.29 -2.892,0.286c-7.941,-0.043 -14.348,-6.697 -14.314,-14.851c0.038,-8.158 6.514,-14.746 14.451,-14.704l0.196,0c1.39,-7.149 9.554,-12.621 19.384,-12.571c9.072,0.047 16.69,4.788 18.836,11.161c7.387,-3.83 15.074,-3.695 19.097,0.97c0.757,0.877 1.345,1.87 1.768,2.948c0.932,-0.201 1.898,-0.301 2.889,-0.301c7.937,-0 14.379,6.619 14.379,14.777c0,8.158 -6.442,14.778 -14.379,14.778l-0.196,-0c-0.103,0.54 -0.244,1.071 -0.422,1.591c-0.467,-1.774 -0.967,-4.591 0.576,-4.591l0.042,0.001l-0,-0.001c6.304,-0 11.379,-5.299 11.379,-11.778c-0,-6.479 -5.075,-11.777 -11.379,-11.777c-0.774,-0 -1.529,0.077 -2.257,0.234c-1.437,0.31 -2.888,-0.468 -3.425,-1.837c-0.299,-0.762 -0.712,-1.465 -1.246,-2.085c-3.251,-3.768 -9.478,-3.36 -15.446,-0.266c-0.777,0.403 -1.692,0.446 -2.504,0.118c-0.812,-0.328 -1.44,-0.994 -1.719,-1.824c-1.806,-5.362 -8.375,-9.079 -16.009,-9.118c-8.212,-0.042 -15.262,4.17 -16.423,10.144c-0.274,1.409 -1.508,2.427 -2.945,2.427l-0.212,0c-6.303,-0.034 -11.405,5.239 -11.435,11.717c-0.027,6.477 5.02,11.803 11.328,11.838c0.775,0.003 1.537,-0.072 2.271,-0.224c1.44,-0.297 2.883,0.493 3.409,1.866c0.289,0.755 0.694,1.455 1.221,2.07c0.002,0.002 0.003,0.003 0.005,0.005c3.098,3.624 9.693,6.181 14.759,0.884c0.728,-0.761 1.802,-1.084 2.829,-0.852c1.028,0.232 1.858,0.986 2.188,1.987c1.782,5.405 8.403,9.138 16.094,9.138c8.21,0 15.238,-4.247 16.374,-10.227c-0.167,0.878 0.066,1.785 0.636,2.473c0.366,0.441 0.845,0.763 1.378,0.937Z" style="fill:#d3d3d3;"/><path d="M9.336,23.132c0.853,-6.444 6.917,-9.105 12.272,-8.076c4.885,0.938 9.179,4.946 8.391,11.952" style="fill:#fff;stroke:#d3d3d3;stroke-width:3px;"/><path d="M59.114,34.403c4.124,6.906 -3.844,14.838 -10.185,11.845" style="fill:#fff;stroke:#d3d3d3;stroke-width:3px;"/><path d="M1.911,32c-0.236,-8.119 10.498,-10.654 14.544,-4.7" style="fill:#fff;stroke:#d3d3d3;stroke-width:3px;"/><path d="M51.673,14.441c7.113,4.936 3.234,15.75 -4.167,15.455" style="fill:#fff;stroke:#d3d3d3;stroke-width:3px;"/></g><g><path d="M74.851,51.277c-8.411,4.063 -17.143,3.88 -21.692,-1.135c-0.855,-0.943 -1.519,-2.01 -1.994,-3.167c-1.06,0.211 -2.158,0.314 -3.284,0.309c-9.017,-0.041 -16.304,-7.162 -16.265,-15.897c0.039,-8.735 7.389,-15.79 16.407,-15.75l0.222,0.001c1.578,-7.657 10.849,-13.516 22.012,-13.466c10.389,0.046 19.091,5.196 21.467,12.088c7.52,-7.344 17.261,-3.892 21.817,1.177c0.852,0.943 1.507,2.014 1.971,3.17c1.064,-0.202 2.166,-0.3 3.287,-0.291c9.022,0.085 16.269,7.243 16.191,15.974c-0.082,8.735 -7.47,15.757 -16.488,15.672l-0.223,-0.001c-1.612,7.648 -10.914,13.466 -22.081,13.362c-10.307,-0.096 -18.939,-5.212 -21.347,-12.046Z" style="fill:#fff;"/><path d="M117.295,52.795c-3.036,6.204 -11.357,10.618 -21.097,10.528c-10.307,-0.096 -18.939,-5.212 -21.347,-12.046c-8.411,4.063 -17.143,3.88 -21.692,-1.135c-0.855,-0.943 -1.519,-2.01 -1.994,-3.167c-1.06,0.211 -2.158,0.314 -3.284,0.309c-9.017,-0.041 -16.304,-7.162 -16.265,-15.897c0.039,-8.735 7.389,-15.79 16.407,-15.75l0.222,0.001c1.578,-7.657 10.849,-13.516 22.012,-13.466c10.389,0.046 19.091,5.196 21.467,12.088c7.52,-7.344 17.261,-3.892 21.817,1.177c0.852,0.943 1.507,2.014 1.971,3.17c1.064,-0.202 2.166,-0.3 3.287,-0.291c9.022,0.085 16.269,7.243 16.191,15.974c-0.082,8.735 -7.47,15.757 -16.488,15.672l-0.223,-0.001c-0.14,0.666 -0.339,1.318 -0.594,1.953c-0.9,-1.721 -2.22,-4.966 0.614,-4.953l0.294,0.001c7.308,0.037 13.331,-5.614 13.398,-12.699c0.063,-7.102 -5.88,-12.877 -13.218,-12.947c-0.921,-0.008 -1.827,0.072 -2.701,0.238c-1.409,0.268 -2.811,-0.499 -3.344,-1.83c-0.333,-0.83 -0.802,-1.6 -1.413,-2.277c-0.002,-0.001 -0.003,-0.003 -0.005,-0.004c-3.654,-4.065 -11.46,-6.926 -17.49,-1.037c-0.735,0.718 -1.787,1.01 -2.787,0.773c-1.001,-0.237 -1.81,-0.97 -2.145,-1.942c-2.043,-5.927 -9.709,-10.025 -18.645,-10.065c-5.928,-0.027 -11.271,1.774 -14.885,4.727c-2.152,1.759 -3.675,3.922 -4.174,6.344c-0.288,1.395 -1.515,2.395 -2.939,2.395l-0.236,-0.001c-7.336,-0.033 -13.361,5.658 -13.393,12.764c-0.032,7.106 5.943,12.85 13.279,12.883c0.92,0.004 1.819,-0.079 2.686,-0.251c1.406,-0.279 2.814,0.476 3.359,1.802c0.344,0.837 0.822,1.609 1.441,2.291c3.806,4.195 11.129,3.849 18.165,0.45c0.769,-0.372 1.66,-0.398 2.449,-0.072c0.789,0.325 1.402,0.971 1.686,1.776c2.072,5.881 9.676,9.961 18.545,10.043c5.93,0.055 11.284,-1.721 14.913,-4.657c2.161,-1.749 3.695,-3.905 4.205,-6.324c-0.187,0.884 0.036,1.806 0.605,2.508c0.356,0.44 0.825,0.764 1.346,0.945Z" style="fill:#d3d3d3;"/><path d="M61.682,24.279c5.116,-10.983 21.775,-8.728 23.421,1.363" style="fill:#fff;stroke:#d3d3d3;stroke-width:3px;"/><path d="M81.286,26.183c7.463,-5.162 17.062,3.287 14.195,10.678" style="fill:#fff;stroke:#d3d3d3;stroke-width:3px;"/><path d="M56.895,50.897c-8.057,-5.321 -3.599,-16.882 4.809,-16.528" style="fill:#fff;stroke:#d3d3d3;stroke-width:3px;"/></g><g><path d="M42.067,67.919c-7.956,3.958 -16.234,3.818 -20.567,-1.002c-0.815,-0.907 -1.448,-1.933 -1.904,-3.047c-1.003,0.208 -2.044,0.311 -3.111,0.311c-8.548,0 -15.485,-6.841 -15.485,-15.271c-0,-8.431 6.937,-15.272 15.485,-15.272l0.211,-0c1.463,-7.397 10.226,-13.091 20.808,-13.091c9.848,-0 18.118,4.932 20.4,11.573c7.096,-7.12 16.344,-3.83 20.685,1.043c0.811,0.906 1.437,1.936 1.881,3.051c1.008,-0.2 2.052,-0.3 3.115,-0.296c8.552,0.044 15.452,6.921 15.415,15.348c-0.041,8.43 -7.015,15.24 -15.563,15.196l-0.211,-0c-1.496,7.388 -10.289,13.043 -20.874,12.991c-9.771,-0.048 -17.974,-4.948 -20.285,-11.534Z" style="fill:#fff;"/><path d="M82.257,69.301c-2.893,5.949 -10.725,10.197 -19.905,10.152c-9.771,-0.048 -17.974,-4.948 -20.285,-11.534c-7.956,3.958 -16.234,3.818 -20.567,-1.002c-0.815,-0.907 -1.448,-1.933 -1.904,-3.047c-1.003,0.208 -2.044,0.311 -3.111,0.311c-8.548,0 -15.485,-6.841 -15.485,-15.271c-0,-8.431 6.937,-15.272 15.485,-15.272l0.211,-0c1.463,-7.397 10.226,-13.091 20.808,-13.091c9.848,-0 18.118,4.932 20.4,11.573c7.096,-7.12 16.344,-3.83 20.685,1.043c0.811,0.906 1.437,1.936 1.881,3.051c1.008,-0.2 2.052,-0.3 3.115,-0.296c8.552,0.044 15.452,6.921 15.415,15.348c-0.041,8.43 -7.015,15.24 -15.563,15.196l-0.211,-0c-0.107,0.526 -0.25,1.043 -0.43,1.549c-0.461,-1.776 -0.935,-4.549 0.595,-4.549l0.061,0.001l0,-0.001c6.881,0.035 12.515,-5.424 12.548,-12.21c0.029,-6.783 -5.545,-12.297 -12.428,-12.334c-0.86,-0.003 -1.704,0.077 -2.518,0.238c-1.418,0.281 -2.835,-0.488 -3.37,-1.831c-0.315,-0.789 -0.756,-1.52 -1.331,-2.162c-0.001,-0.002 -0.003,-0.003 -0.004,-0.005c-3.426,-3.845 -10.72,-6.54 -16.321,-0.92c-0.731,0.734 -1.789,1.038 -2.798,0.806c-1.009,-0.233 -1.827,-0.97 -2.164,-1.949c-1.944,-5.661 -9.169,-9.548 -17.562,-9.548c-8.958,-0 -16.626,4.412 -17.865,10.673c-0.278,1.405 -1.51,2.418 -2.943,2.418l-0.211,-0c-6.881,-0 -12.485,5.485 -12.485,12.272c-0,6.786 5.604,12.271 12.485,12.271c0.858,0 1.696,-0.082 2.503,-0.249c1.416,-0.293 2.838,0.465 3.385,1.803c0.325,0.795 0.776,1.529 1.358,2.176c3.578,3.981 10.43,3.59 16.999,0.322c0.771,-0.383 1.668,-0.417 2.466,-0.093c0.797,0.324 1.416,0.974 1.701,1.786c1.971,5.616 9.138,9.486 17.469,9.527c8.961,0.044 16.653,-4.332 17.919,-10.587c-0.178,0.882 0.049,1.798 0.618,2.495c0.359,0.438 0.83,0.761 1.354,0.94Z" style="fill:#d3d3d3;"/><path d="M54.999,46.957c5.351,-12.493 27.714,-4.925 21.658,10.049" style="fill:#fff;stroke:#d3d3d3;stroke-width:3px;"/><path d="M17.031,47c-4.441,-7.137 4.14,-15.335 10.969,-12.241" style="fill:#fff;stroke:#d3d3d3;stroke-width:3px;"/><path d="M43.29,53c1.984,-8.169 13.846,-7.785 16.42,-0.743" style="fill:#fff;stroke:#d3d3d3;stroke-width:3px;"/><path d="M24.95,67.763c-7.661,-5.099 -3.415,-16.374 4.582,-16.105" style="fill:#fff;stroke:#d3d3d3;stroke-width:3px;"/></g></svg>