<?xml version="1.0" encoding="UTF-8" standalone="no"?><!DOCTYPE svg PUBLIC "-//W3C//DTD SVG 1.1//EN" "http://www.w3.org/Graphics/SVG/1.1/DTD/svg11.dtd"><svg width="100%" height="100%" viewBox="0 0 100 100" version="1.1" xmlns="http://www.w3.org/2000/svg" xmlns:xlink="http://www.w3.org/1999/xlink" xml:space="preserve" xmlns:serif="http://www.serif.com/" style="fill-rule:evenodd;clip-rule:evenodd;stroke-linejoin:round;stroke-miterlimit:2;"><path d="M50,0c-0,0 -33,34.873 -33,67c0,18.213 14.787,33 33,33c18.213,-0 33,-14.787 33,-33c-0,-32.127 -33,-67 -33,-67Zm5.318,59.863c0,-3.206 0.704,-5.582 2.112,-7.129c1.408,-1.546 3.333,-2.319 5.774,-2.319c2.458,0 4.391,0.773 5.798,2.319c1.408,1.547 2.112,3.923 2.112,7.129c0,3.223 -0.704,5.607 -2.112,7.154c-1.407,1.546 -3.316,2.319 -5.725,2.319c-2.49,-0 -4.439,-0.773 -5.847,-2.319c-1.408,-1.547 -2.112,-3.931 -2.112,-7.154Zm-11.084,9.4l-5.078,-0l19.068,-37.769l4.931,0l-18.921,37.769Zm16.431,-9.424c0,2.327 0.269,3.882 0.806,4.663c0.407,0.602 0.968,0.903 1.684,0.903c0.733,0 1.294,-0.293 1.685,-0.879c0.537,-0.797 0.806,-2.36 0.806,-4.687c-0,-2.328 -0.261,-3.89 -0.782,-4.688c-0.407,-0.586 -0.976,-0.879 -1.709,-0.879c-0.732,0 -1.294,0.293 -1.684,0.879c-0.537,0.798 -0.806,2.36 -0.806,4.688Zm-29.492,-18.897c-0,-3.206 0.704,-5.582 2.112,-7.129c1.408,-1.546 3.316,-2.319 5.725,-2.319c2.49,0 4.439,0.769 5.847,2.307c1.408,1.538 2.112,3.919 2.112,7.141c-0,3.207 -0.704,5.583 -2.112,7.129c-1.408,1.547 -3.316,2.32 -5.725,2.32c-2.49,-0 -4.439,-0.769 -5.847,-2.308c-1.408,-1.538 -2.112,-3.918 -2.112,-7.141Zm5.347,-0.048c-0,2.327 0.268,3.89 0.805,4.687c0.407,0.586 0.969,0.879 1.685,0.879c0.732,-0 1.302,-0.293 1.709,-0.879c0.521,-0.797 0.781,-2.36 0.781,-4.687c0,-2.328 -0.26,-3.882 -0.781,-4.664c-0.407,-0.602 -0.977,-0.903 -1.709,-0.903c-0.716,0 -1.278,0.293 -1.685,0.879c-0.537,0.798 -0.805,2.36 -0.805,4.688Z"/></svg>