<?xml version="1.0" encoding="UTF-8" standalone="no"?><!DOCTYPE svg PUBLIC "-//W3C//DTD SVG 1.1//EN" "http://www.w3.org/Graphics/SVG/1.1/DTD/svg11.dtd"><svg width="100%" height="100%" viewBox="0 0 100 100" version="1.1" xmlns="http://www.w3.org/2000/svg" xmlns:xlink="http://www.w3.org/1999/xlink" xml:space="preserve" xmlns:serif="http://www.serif.com/" style="fill-rule:evenodd;clip-rule:evenodd;stroke-linejoin:round;stroke-miterlimit:2;"><g id="Layer_2_18_"><g><path d="M72.426,87.074c-0.757,0.401 -1.537,0.785 -2.318,1.141c-0.126,0.058 -0.248,0.121 -0.366,0.189c-0.125,0.041 -0.25,0.088 -0.373,0.142c-3.389,1.479 -6.923,2.52 -10.563,3.124c-0.047,0.006 -0.094,0.009 -0.141,0.016c-0.858,0.142 -1.731,0.261 -2.595,0.353c-0.009,0.002 -0.019,0.004 -0.028,0.005c-1.587,0.164 -3.191,0.247 -4.812,0.247c-18.69,0 -34.629,-11.222 -40.534,-26.843c-0.089,-0.238 -0.179,-0.476 -0.263,-0.715c-1.416,-3.983 -2.185,-8.241 -2.185,-12.663c0,-4.432 0.772,-8.699 2.194,-12.69c0.031,-0.087 0.061,-0.174 0.092,-0.261c0.085,-0.233 0.173,-0.464 0.262,-0.695c0.042,-0.108 0.084,-0.216 0.127,-0.324c4.908,-12.36 16.133,-21.869 29.985,-25.077c0.008,-0.002 0.017,-0.002 0.026,-0.004c0.205,-0.048 0.411,-0.094 0.618,-0.139c0.023,-0.004 0.045,-0.012 0.067,-0.017c3.022,-0.649 6.387,-1.455 9.611,-1.471l0,3.798l13.516,-7.595l-13.516,-7.595l-0.011,3.797c-13.572,0.071 -26.601,5.393 -36.207,14.381c-0.946,0.886 -1.849,1.8 -2.711,2.741c-0.005,0.005 -0.01,0.01 -0.016,0.015c-0.032,0.035 -0.062,0.071 -0.093,0.106c-7.561,8.302 -11.823,18.65 -12.158,29.627c-0.008,0.085 -0.018,0.17 -0.02,0.257c-0.009,0.366 -0.014,0.739 -0.014,1.107c0,0.603 0.013,1.215 0.037,1.818c0.003,0.071 0.013,0.14 0.02,0.21c0.434,10.001 4.129,19.458 10.613,27.29c0.022,0.027 0.04,0.056 0.062,0.083c0.634,0.765 1.303,1.522 1.988,2.252c0.044,0.047 0.093,0.087 0.138,0.132c0.694,0.731 1.409,1.448 2.154,2.145c7.605,7.117 17.181,11.718 27.575,13.362c0.031,0.005 0.063,0.011 0.095,0.016c0.023,0.004 0.047,0.005 0.07,0.008c2.776,0.43 5.609,0.653 8.478,0.653c7.551,0 14.825,-1.503 21.619,-4.467c0.146,-0.064 0.286,-0.137 0.419,-0.215c0.153,-0.049 0.302,-0.107 0.45,-0.174c0.932,-0.426 1.863,-0.884 2.766,-1.362c1.979,-1.049 2.676,-3.4 1.555,-5.253c-1.121,-1.852 -3.634,-2.504 -5.613,-1.455Z" style="fill-rule:nonzero;"/><g><path d="M80.768,36.263l-1.918,-0.619c0.096,-0.129 0.194,-0.257 0.246,-0.418c0.267,-0.826 -0.255,-1.734 -1.162,-2.027c-0.907,-0.293 -1.859,0.141 -2.125,0.966c-0.052,0.16 -0.051,0.32 -0.044,0.482l-6.287,-2.03c0.096,-0.129 0.194,-0.257 0.246,-0.417c0.265,-0.827 -0.255,-1.735 -1.164,-2.028c-0.904,-0.292 -1.858,0.14 -2.125,0.965c-0.052,0.161 -0.049,0.321 -0.043,0.483l-6.288,-2.031c0.096,-0.128 0.193,-0.257 0.244,-0.417c0.267,-0.827 -0.251,-1.734 -1.158,-2.027c-0.907,-0.292 -1.859,0.141 -2.125,0.966c-0.052,0.16 -0.051,0.321 -0.046,0.482l-6.289,-2.031c0.096,-0.129 0.194,-0.257 0.246,-0.417c0.267,-0.827 -0.253,-1.734 -1.158,-2.026c-0.908,-0.293 -1.861,0.14 -2.127,0.965c-0.052,0.16 -0.051,0.32 -0.046,0.481l-6.287,-2.03c0.098,-0.128 0.194,-0.257 0.246,-0.417c0.267,-0.827 -0.251,-1.733 -1.159,-2.026c-0.907,-0.293 -1.86,0.14 -2.126,0.965c-0.052,0.16 -0.051,0.32 -0.046,0.481l-1.922,-0.62c-2.593,-0.838 -5.318,0.402 -6.081,2.763l-13.07,40.468c-0.763,2.363 0.722,4.96 3.316,5.798l39.113,12.632l12.946,-5.882l11.509,-35.636c0.762,-2.36 -0.722,-4.96 -3.316,-5.798Zm-10.443,39.638l-0.688,0.312l-4.023,-1.299c-1.883,-0.608 -3.869,0.297 -4.422,2.009l-1.184,3.666l-0.688,0.312l-38.05,-12.289c-1.177,-0.38 -1.854,-1.563 -1.507,-2.635l12.567,-38.912l48.689,15.725l-10.694,33.111Z" style="fill-rule:nonzero;"/><path d="M50.366,37.247l-6.041,-1.951l-1.778,5.504l6.041,1.951l1.778,-5.504Z"/><path d="M58.42,39.849l-6.04,-1.952l-1.778,5.504l6.041,1.951l1.777,-5.503Z"/><path d="M66.474,42.449l-6.039,-1.95l-1.778,5.504l6.039,1.95l1.778,-5.504Z"/><path d="M74.532,45.052l-6.042,-1.951l-1.778,5.503l6.043,1.952l1.777,-5.504Z"/><path d="M39.94,41.984l-6.042,-1.951l-1.778,5.505l6.042,1.952l1.778,-5.506Z"/><path d="M47.995,44.586l-6.04,-1.951l-1.779,5.505l6.041,1.951l1.778,-5.505Z"/><path d="M56.05,47.187l-6.041,-1.951l-1.778,5.506l6.041,1.951l1.778,-5.506Z"/><path d="M64.103,49.788l-6.039,-1.95l-1.778,5.505l6.039,1.951l1.778,-5.506Z"/><path d="M72.162,52.391l-6.043,-1.952l-1.778,5.506l6.043,1.951l1.778,-5.505Z"/><path d="M37.57,49.323l-6.042,-1.952l-1.778,5.506l6.042,1.951l1.778,-5.505Z"/><path d="M45.625,51.925l-6.041,-1.951l-1.778,5.505l6.041,1.951l1.778,-5.505Z"/><path d="M53.68,54.526l-6.041,-1.951l-1.778,5.505l6.041,1.951l1.778,-5.505Z"/><path d="M61.733,57.127l-6.039,-1.95l-1.778,5.505l6.039,1.95l1.778,-5.505Z"/><path d="M69.792,59.73l-6.043,-1.952l-1.778,5.505l6.043,1.952l1.778,-5.505Z"/><path d="M35.2,56.662l-6.043,-1.952l-1.777,5.504l6.042,1.952l1.778,-5.504Z"/><path d="M43.255,59.263l-6.041,-1.951l-1.777,5.504l6.04,1.951l1.778,-5.504Z"/><path d="M51.31,61.865l-6.041,-1.951l-1.778,5.504l6.041,1.951l1.778,-5.504Z"/><path d="M59.363,64.466l-6.039,-1.951l-1.778,5.504l6.039,1.951l1.778,-5.504Z"/><path d="M67.421,67.068l-6.042,-1.951l-1.778,5.504l6.043,1.951l1.777,-5.504Z"/><path d="M40.587,67.518l-14.096,-4.552l-0.889,2.752l14.096,4.552l0.889,-2.752Z"/></g><path d="M83.813,30.367c0.829,1.135 2.187,1.747 3.569,1.747c0.824,-0 1.658,-0.218 2.393,-0.672c1.969,-1.216 2.493,-3.67 1.169,-5.48c-0.604,-0.826 -1.242,-1.645 -1.9,-2.434c-1.442,-1.733 -4.138,-2.063 -6.023,-0.738c-1.884,1.326 -2.243,3.804 -0.801,5.536c0.552,0.663 1.087,1.35 1.593,2.041Z" style="fill-rule:nonzero;"/><path d="M89.269,40.739c0.276,0.793 0.53,1.606 0.755,2.417c0.496,1.786 2.243,2.975 4.161,2.975c0.35,-0 0.708,-0.04 1.064,-0.124c2.299,-0.538 3.688,-2.688 3.102,-4.802c-0.267,-0.964 -0.57,-1.932 -0.899,-2.875c-0.723,-2.077 -3.141,-3.223 -5.401,-2.557c-2.26,0.665 -3.505,2.889 -2.782,4.966Z" style="fill-rule:nonzero;"/><path d="M86.533,79.937c-1.796,-1.426 -4.508,-1.245 -6.06,0.405c-0.595,0.631 -1.217,1.254 -1.851,1.85c-1.658,1.56 -1.626,4.06 0.071,5.585c0.836,0.751 1.92,1.125 3.002,1.125c1.117,-0 2.232,-0.398 3.074,-1.19c0.754,-0.71 1.496,-1.451 2.203,-2.204c1.552,-1.65 1.355,-4.144 -0.439,-5.571Z" style="fill-rule:nonzero;"/><path d="M95.832,50.788c-2.376,-0.065 -4.353,1.65 -4.423,3.83c-0.027,0.835 -0.083,1.679 -0.166,2.51c-0.217,2.172 1.523,4.094 3.886,4.294c0.134,0.011 0.266,0.016 0.398,0.016c2.194,0 4.069,-1.539 4.273,-3.588c0.099,-0.991 0.166,-1.999 0.198,-2.996c0.07,-2.179 -1.794,-4 -4.166,-4.066Z" style="fill-rule:nonzero;"/><path d="M93.921,66.103c-2.21,-0.796 -4.702,0.206 -5.567,2.238c-0.331,0.777 -0.693,1.556 -1.075,2.314c-0.998,1.979 -0.061,4.326 2.092,5.243c0.585,0.249 1.199,0.367 1.804,0.367c1.622,-0 3.174,-0.849 3.901,-2.29c0.454,-0.903 0.885,-1.829 1.279,-2.755c0.865,-2.03 -0.225,-4.322 -2.434,-5.117Z" style="fill-rule:nonzero;"/><path d="M79.289,19.418c1.413,-1.753 1.012,-4.226 -0.896,-5.524c-0.868,-0.591 -1.768,-1.165 -2.675,-1.708c-1.99,-1.189 -4.651,-0.671 -5.944,1.158c-1.293,1.828 -0.73,4.274 1.259,5.464c0.762,0.455 1.518,0.938 2.248,1.434c0.768,0.523 1.664,0.776 2.553,0.776c1.315,-0 2.613,-0.554 3.455,-1.6Z" style="fill-rule:nonzero;"/></g></g><g id="Layer_2_18_1" serif:id="Layer_2_18_"></g></svg>