<?xml version="1.0" encoding="UTF-8" standalone="no"?><!DOCTYPE svg PUBLIC "-//W3C//DTD SVG 1.1//EN" "http://www.w3.org/Graphics/SVG/1.1/DTD/svg11.dtd"><svg width="100%" height="100%" viewBox="0 0 100 100" version="1.1" xmlns="http://www.w3.org/2000/svg" xmlns:xlink="http://www.w3.org/1999/xlink" xml:space="preserve" xmlns:serif="http://www.serif.com/" style="fill-rule:evenodd;clip-rule:evenodd;stroke-linejoin:round;stroke-miterlimit:2;"><path d="M7,35.088l18,0c-2.247,3.569 -4.225,7.688 -5,12.052l-13,-12.052Zm86,0l-13,11.984c-0.819,-4.363 -1.721,-8.445 -4,-11.984l17,0Zm-61.027,-27.263l13.027,13.282c-4.114,0.869 -9.663,2.576 -13,4.993l-0.027,-18.275Zm35.788,-0.2l0.239,18.475c-3.365,-2.382 -8.884,-4.171 -13,-4.993l12.761,-13.482Zm6.672,42.375c-1.433,-14.912 -11.433,-23.586 -24.433,-23.558c-13,0.028 -23.5,8.754 -24.241,23.558l-25.759,0c0,-27.596 22.404,-50 50,-50c27.596,0 50,22.404 50,50l-25.567,0Z"/><path d="M40,95l20,0l-0,-20l20,0l-30,-30l-30,30l20,0l-0,20Z"/></svg>