<?xml version="1.0" encoding="UTF-8" standalone="no"?><!DOCTYPE svg PUBLIC "-//W3C//DTD SVG 1.1//EN" "http://www.w3.org/Graphics/SVG/1.1/DTD/svg11.dtd"><svg width="100%" height="100%" viewBox="0 0 100 100" version="1.1" xmlns="http://www.w3.org/2000/svg" xmlns:xlink="http://www.w3.org/1999/xlink" xml:space="preserve" xmlns:serif="http://www.serif.com/" style="fill-rule:evenodd;clip-rule:evenodd;stroke-linejoin:round;stroke-miterlimit:2;"><g id="Layer_2_18_"></g><g id="SVGRepo_iconCarrier"><g><path d="M56.542,47.175l9.04,-13.087c0.781,-1.13 1.206,-2.476 1.206,-3.857l-0,-4.087l2.612,-0l-0,-5.244l-38.8,-0l0,5.244l2.612,-0l0,4.087c0,1.381 0.425,2.727 1.206,3.857l9.04,13.087c0.324,0.47 0.489,1.007 0.49,1.554l0,2.541c-0.001,0.547 -0.166,1.084 -0.49,1.554l-9.04,13.088c-0.781,1.13 -1.206,2.476 -1.206,3.855l0,4.089l-2.612,0l0,5.244l38.8,-0l-0,-5.244l-2.612,0l-0,-4.088c-0,-1.38 -0.425,-2.726 -1.206,-3.856l-9.04,-13.088c-0.324,-0.471 -0.49,-1.007 -0.49,-1.554l0,-2.541c0,-0.547 0.166,-1.084 0.49,-1.554Zm7.726,26.157l-28.536,-0l0,-3.564c0,-0.822 0.25,-1.628 0.732,-2.326l9.04,-13.088c0.623,-0.902 0.964,-1.98 0.964,-3.084l-0,-2.541c-0,-1.105 -0.341,-2.183 -0.964,-3.084l-9.039,-13.087c-0.483,-0.699 -0.733,-1.504 -0.733,-2.327l-0,-3.563l28.536,0l0,3.563c-0.001,0.823 -0.25,1.628 -0.733,2.327l-9.04,13.087c-0.622,0.901 -0.963,1.979 -0.963,3.084l0,2.541c0,1.104 0.34,2.182 0.963,3.084l9.041,13.088c0.482,0.698 0.731,1.504 0.732,2.326l0,3.564l0,-0Z" style="fill-rule:nonzero;"/><path d="M46.732,44.727c0.556,0.805 2.549,3.826 3.268,3.818c0.719,-0.008 2.712,-3.013 3.268,-3.818l6.499,-9.409l-19.534,0l6.499,9.409Z" style="fill-rule:nonzero;"/><path d="M48.99,64.276l-7.191,7.483l16.402,-0l-7.191,-7.483c-0.558,-0.58 -1.462,-0.58 -2.02,-0Z" style="fill-rule:nonzero;"/></g><path d="M11.962,57.682c-0.5,-2.483 -0.762,-5.052 -0.762,-7.682c0,-2.63 0.262,-5.199 0.762,-7.682l-9.386,-2.515c-0.705,3.286 -1.076,6.698 -1.076,10.197c0,3.499 0.371,6.911 1.076,10.197l9.386,-2.515Zm8.946,-33.344l-6.868,-6.869c-4.56,5.038 -8.077,11.034 -10.21,17.649l9.386,2.515c1.666,-4.953 4.307,-9.461 7.692,-13.295Zm0,51.324c-3.385,-3.834 -6.025,-8.342 -7.692,-13.295l-9.386,2.515c2.134,6.616 5.651,12.612 10.21,17.649l6.868,-6.869Zm16.725,-62.446l-2.515,-9.386c-6.616,2.134 -12.612,5.651 -17.649,10.21l6.869,6.868c3.834,-3.385 8.342,-6.025 13.295,-7.692Zm0,73.568c-4.953,-1.666 -9.461,-4.307 -13.295,-7.692l-6.869,6.868c5.038,4.56 11.034,8.077 17.649,10.21l2.515,-9.386Zm22.564,-84.208c-3.286,-0.705 -6.698,-1.076 -10.197,-1.076c-3.499,0 -6.911,0.371 -10.197,1.076l2.515,9.386c2.483,-0.5 5.052,-0.762 7.682,-0.762c2.63,-0 5.199,0.262 7.682,0.762l2.515,-9.386Zm-0,94.848l-2.515,-9.386c-2.483,0.5 -5.052,0.762 -7.682,0.762c-2.63,-0 -5.199,-0.262 -7.682,-0.762l-2.515,9.386c3.286,0.705 6.698,1.076 10.197,1.076c3.499,-0 6.911,-0.371 10.197,-1.076Zm22.334,-83.384c-5.038,-4.56 -11.034,-8.077 -17.649,-10.21l-2.515,9.386c4.953,1.666 9.461,4.307 13.295,7.692l5.378,-1.948l1.491,-4.92Zm-0,71.92l-6.869,-6.868c-3.834,3.385 -8.342,6.025 -13.295,7.692l2.515,9.386c6.616,-2.134 12.612,-5.651 17.649,-10.21Zm-8.766,-61.622l9.7,-3.43l3.319,-10.193l5.411,19.885l-18.43,-6.262Zm22.405,40.544l-9.386,-2.515c-1.666,4.953 -4.307,9.461 -7.692,13.295l6.868,6.869c4.56,-5.038 8.077,-11.034 10.21,-17.649Zm1.254,-25.079l-4.259,2.515l-5.127,0c0.5,2.483 0.762,5.052 0.762,7.682c-0,2.63 -0.262,5.199 -0.762,7.682l9.386,2.515c0.705,-3.286 1.076,-6.698 1.076,-10.197c-0,-3.499 -0.371,-6.911 -1.076,-10.197Z"/></g></svg>