<?xml version="1.0" encoding="UTF-8" standalone="no"?><!DOCTYPE svg PUBLIC "-//W3C//DTD SVG 1.1//EN" "http://www.w3.org/Graphics/SVG/1.1/DTD/svg11.dtd"><svg width="100%" height="100%" viewBox="0 0 100 100" version="1.1" xmlns="http://www.w3.org/2000/svg" xmlns:xlink="http://www.w3.org/1999/xlink" xml:space="preserve" xmlns:serif="http://www.serif.com/" style="fill-rule:evenodd;clip-rule:evenodd;stroke-linejoin:round;stroke-miterlimit:2;"><g><g><path d="M76.825,22.749l-2.317,-0c0.06,-0.168 0.122,-0.335 0.122,-0.521c-0,-0.957 -0.892,-1.732 -1.987,-1.732c-1.096,0 -1.983,0.777 -1.983,1.732c-0,0.186 0.057,0.353 0.121,0.521l-7.593,-0c0.06,-0.168 0.122,-0.335 0.122,-0.521c-0.003,-0.957 -0.892,-1.732 -1.99,-1.732c-1.091,0 -1.983,0.777 -1.983,1.732c0,0.186 0.06,0.353 0.124,0.521l-7.596,-0c0.06,-0.168 0.12,-0.335 0.12,-0.521c0,-0.957 -0.887,-1.732 -1.983,-1.732c-1.096,0 -1.983,0.777 -1.983,1.732c0,0.186 0.058,0.353 0.12,0.521l-7.596,-0c0.06,-0.168 0.122,-0.335 0.122,-0.521c-0,-0.957 -0.89,-1.732 -1.983,-1.732c-1.096,0 -1.985,0.777 -1.985,1.732c-0,0.186 0.057,0.353 0.119,0.521l-7.593,-0c0.062,-0.168 0.121,-0.335 0.121,-0.521c0,-0.957 -0.887,-1.732 -1.983,-1.732c-1.095,0 -1.985,0.777 -1.985,1.732c0,0.186 0.058,0.353 0.12,0.521l-2.321,-0c-3.133,-0 -5.675,2.221 -5.675,4.954l-0,46.846c-0,2.735 2.542,4.955 5.675,4.955l47.243,-0l12.082,-10.55l0,-41.251c0,-2.731 -2.542,-4.954 -5.675,-4.954Zm2.58,45.085l-0.642,0.56l-4.86,-0c-2.273,-0 -4.126,1.622 -4.126,3.603l-0,4.244l-0.642,0.56l-45.96,-0c-1.422,-0 -2.58,-1.011 -2.58,-2.252l0,-45.044l58.81,0l-0,38.329Z" style="fill:#161716;fill-rule:nonzero;"/><rect x="36.622" y="34.073" width="7.297" height="6.371" style="fill:#161716;"/><rect x="46.352" y="34.073" width="7.297" height="6.371" style="fill:#161716;"/><rect x="56.081" y="34.073" width="7.294" height="6.371" style="fill:#161716;"/><rect x="65.81" y="34.073" width="7.299" height="6.371" style="fill:#161716;"/><rect x="26.891" y="42.568" width="7.299" height="6.373" style="fill:#161716;"/><rect x="36.622" y="42.568" width="7.297" height="6.373" style="fill:#161716;"/><rect x="46.352" y="42.568" width="7.297" height="6.373" style="fill:#161716;"/><rect x="56.081" y="42.568" width="7.294" height="6.373" style="fill:#161716;"/><rect x="65.81" y="42.568" width="7.299" height="6.373" style="fill:#161716;"/><rect x="26.891" y="51.063" width="7.299" height="6.373" style="fill:#161716;"/><rect x="36.622" y="51.063" width="7.297" height="6.373" style="fill:#161716;"/><rect x="46.352" y="51.063" width="7.297" height="6.373" style="fill:#161716;"/><rect x="56.081" y="51.063" width="7.294" height="6.373" style="fill:#161716;"/><rect x="65.81" y="51.063" width="7.299" height="6.373" style="fill:#161716;"/><rect x="26.891" y="59.558" width="7.299" height="6.371" style="fill:#161716;"/><rect x="36.622" y="59.558" width="7.297" height="6.371" style="fill:#161716;"/><rect x="46.352" y="59.558" width="7.297" height="6.371" style="fill:#161716;"/><rect x="56.081" y="59.558" width="7.294" height="6.371" style="fill:#161716;"/><rect x="65.81" y="59.558" width="7.299" height="6.371" style="fill:#161716;"/><rect x="26.891" y="69.115" width="17.026" height="3.185" style="fill:#161716;"/></g><path d="M50,0c27.596,0 50,22.404 50,50c0,27.596 -22.404,50 -50,50c-27.596,0 -50,-22.404 -50,-50c-0,-27.596 22.404,-50 50,-50Zm-0,4c25.388,-0 46,20.612 46,46c-0,25.388 -20.612,46 -46,46c-25.388,0 -46,-20.612 -46,-46c-0,-25.388 20.612,-46 46,-46Z" style="fill:#161716;"/></g></svg>