<svg fill="#161716" width="100%" height="100%" viewBox="0 0 800 800" xmlns="http://www.w3.org/2000/svg">
  <g id="SVGRepo_iconCarrier">
    <path d="M664.478,102.218c-2.04,-0.277 -4.034,-0.51 -5.979,-0.749c-1.762,-0.202 -3.459,-0.42 -5.118,-0.645c-15.749,-2.14 -31.189,0.53 -45.41,6.379c-10.696,-17.055 -15.177,-31.955 -13.752,-42.447c1.77,-13.021 13.76,-22.154 26.795,-20.383c7.102,0.965 13.049,4.99 16.695,10.565c0.028,-0.76 0.078,-1.503 0.182,-2.265c1.771,-13.037 13.783,-22.151 26.807,-20.381c13.022,1.77 22.154,13.758 20.383,26.793c-0.049,0.356 -0.134,0.707 -0.194,1.051c4.157,-2.602 9.24,-3.825 14.486,-3.113c11.942,1.623 20.306,12.632 18.685,24.56c-1.095,8.061 -7.06,18.074 -19.127,30.635c-11.677,-5.79 -23.201,-8.471 -34.453,-10Z" />
    <path d="M132.387,113.45c49.353,-39.803 136.55,-36.288 184.398,28.709c51.32,69.748 73.294,132.443 123.402,140.854c71.431,11.983 96.794,-40.5 113.64,-87.862c3.535,-8.328 6.546,-19.067 10.195,-26.592c14.927,-30.941 51.535,-58.914 87.398,-54.04c18.071,2.455 42.028,2.77 68.105,33.878c6.964,9.816 21.653,31.821 28.798,46.917c8.003,16.978 -21.704,10.19 -34.285,9.956c-17.398,-0.324 -28.725,6.42 -36.546,16.831c-25.165,31.689 -23.802,59.79 -35.11,116.95c-15.33,77.458 -49.739,117.427 -91.421,142.393c-32.555,19.501 -78.52,29.132 -125.189,25.519l-10.575,77.83l180.07,24.468l-1.069,-26.672c-0.123,-3.245 1.581,-6.292 4.41,-7.872c2.845,-1.591 6.328,-1.455 9.022,0.362l79.229,53.145c2.727,1.836 4.189,5.075 3.746,8.331c-0.442,3.256 -2.715,5.987 -5.833,7.028l-90.537,30.077c-3.08,1.033 -6.475,0.234 -8.792,-2.058c-2.305,-2.278 -3.134,-5.669 -2.149,-8.763l8.147,-25.421l-180.07,-24.468l-11.476,84.452c53.53,14.168 90.105,68.785 90.105,102.598l-240,-0c10,-70 62.771,-105.829 116.81,-106.643l11.535,-84.89l-140.191,-19.05l-30.98,30.113l-94.292,-12.813l37.92,-43.509l-24.935,-52.05l94.292,12.812l21.821,37.289l140.192,19.05l10.625,-78.199c-66.722,-14.497 -128.671,-58.15 -147.782,-141.188c-38.544,4.66 -61.694,-59.873 -34.248,-79.079c-52.431,16.062 -94.204,-55.644 -44.722,-79.724c-64.289,2.225 -68.565,-60.517 -33.658,-88.669Zm524.322,69.882c8.17,1.11 15.716,-4.619 16.828,-12.802c1.112,-8.183 -4.633,-15.708 -12.804,-16.818c-8.182,-1.112 -15.716,4.609 -16.828,12.791c-1.112,8.182 4.621,15.717 12.804,16.829Z" />
  </g>
</svg>
