<?xml version="1.0" encoding="UTF-8" standalone="no"?><!DOCTYPE svg PUBLIC "-//W3C//DTD SVG 1.1//EN" "http://www.w3.org/Graphics/SVG/1.1/DTD/svg11.dtd"><svg width="100%" height="100%" viewBox="0 0 100 100" version="1.1" xmlns="http://www.w3.org/2000/svg" xmlns:xlink="http://www.w3.org/1999/xlink" xml:space="preserve" xmlns:serif="http://www.serif.com/" style="fill-rule:evenodd;clip-rule:evenodd;stroke-linejoin:round;stroke-miterlimit:2;"><g id="SVGRepo_iconCarrier"><path d="M55.727,62.424l-11.456,0l-4.603,-46.424l20.664,-0l-4.605,46.424Z" style="fill-rule:nonzero;"/><ellipse cx="50.004" cy="76.176" rx="8.797" ry="8.824"/><path d="M11.962,57.682c-0.5,-2.483 -0.762,-5.052 -0.762,-7.682c0,-2.63 0.262,-5.199 0.762,-7.682l-9.386,-2.515c-0.705,3.286 -1.076,6.698 -1.076,10.197c0,3.499 0.371,6.911 1.076,10.197l9.386,-2.515Zm8.946,-33.344l-6.868,-6.869c-4.56,5.038 -8.077,11.034 -10.21,17.649l9.386,2.515c1.666,-4.953 4.307,-9.461 7.692,-13.295Zm0,51.324c-3.385,-3.834 -6.025,-8.342 -7.692,-13.295l-9.386,2.515c2.134,6.616 5.651,12.612 10.21,17.649l6.868,-6.869Zm16.725,-62.446l-2.515,-9.386c-6.616,2.134 -12.612,5.651 -17.649,10.21l6.869,6.868c3.834,-3.385 8.342,-6.025 13.295,-7.692Zm0,73.568c-4.953,-1.666 -9.461,-4.307 -13.295,-7.692l-6.869,6.868c5.038,4.56 11.034,8.077 17.649,10.21l2.515,-9.386Zm22.564,-84.208c-3.286,-0.705 -6.698,-1.076 -10.197,-1.076c-3.499,-0 -6.911,0.371 -10.197,1.076l2.515,9.386c2.483,-0.5 5.052,-0.762 7.682,-0.762c2.63,-0 5.199,0.262 7.682,0.762l2.515,-9.386Zm-0,94.848l-2.515,-9.386c-2.483,0.5 -5.052,0.762 -7.682,0.762c-2.63,-0 -5.199,-0.262 -7.682,-0.762l-2.515,9.386c3.286,0.705 6.698,1.076 10.197,1.076c3.499,-0 6.911,-0.371 10.197,-1.076Zm22.334,-83.384c-5.038,-4.56 -11.034,-8.077 -17.649,-10.21l-2.515,9.386c4.953,1.666 9.461,4.307 13.295,7.692l5.378,-1.948l1.491,-4.92Zm-0,71.92l-6.869,-6.868c-3.834,3.385 -8.342,6.025 -13.295,7.692l2.515,9.386c6.616,-2.134 12.612,-5.651 17.649,-10.21Zm-8.766,-61.622l9.7,-3.43l3.319,-10.193l5.411,19.885l-18.43,-6.262Zm22.405,40.544l-9.386,-2.515c-1.666,4.953 -4.307,9.461 -7.692,13.295l6.868,6.869c4.56,-5.038 8.077,-11.034 10.21,-17.649Zm1.254,-25.079l-4.259,2.515l-5.127,0c0.5,2.483 0.762,5.052 0.762,7.682c-0,2.63 -0.262,5.199 -0.762,7.682l9.386,2.515c0.705,-3.286 1.076,-6.698 1.076,-10.197c-0,-3.499 -0.371,-6.911 -1.076,-10.197Z"/></g></svg>