<?xml version="1.0" encoding="UTF-8" standalone="no"?><!DOCTYPE svg PUBLIC "-//W3C//DTD SVG 1.1//EN" "http://www.w3.org/Graphics/SVG/1.1/DTD/svg11.dtd"><svg width="100%" height="100%" viewBox="0 0 100 80" version="1.1" xmlns="http://www.w3.org/2000/svg" xmlns:xlink="http://www.w3.org/1999/xlink" xml:space="preserve" xmlns:serif="http://www.serif.com/" style="fill-rule:evenodd;clip-rule:evenodd;stroke-linejoin:round;stroke-miterlimit:2;"><path d="M100,11.739c-0,-6.479 -5.26,-11.739 -11.739,-11.739l-76.522,0c-6.479,0 -11.739,5.26 -11.739,11.739l0,56.522c0,6.479 5.26,11.739 11.739,11.739l76.522,-0c6.479,-0 11.739,-5.26 11.739,-11.739l-0,-56.522Z" style="fill:#173f58;"/><path d="M61.421,3.878c0.726,0.058 1.268,0.693 1.212,1.419c-0.057,0.725 -0.692,1.267 -1.419,1.21c-0.725,-0.057 -1.267,-0.692 -1.21,-1.417c0.057,-0.725 0.692,-1.268 1.417,-1.212Z" style="fill:#decc7c;"/><path d="M54.802,11.503c0.46,0.037 0.805,0.438 0.768,0.899c-0.036,0.461 -0.439,0.805 -0.9,0.769c-0.459,-0.035 -0.803,-0.439 -0.768,-0.899c0.036,-0.461 0.439,-0.805 0.9,-0.769Z" style="fill:#deb87c;"/><path d="M50.518,21.503c0.529,0.041 0.924,0.504 0.883,1.032c-0.041,0.529 -0.504,0.924 -1.032,0.883c-0.529,-0.042 -0.924,-0.505 -0.883,-1.032c0.042,-0.529 0.505,-0.924 1.032,-0.883Z" style="fill:#e6dcce;"/><path d="M53.023,29.886c0.387,0.03 0.676,0.368 0.645,0.755c-0.03,0.387 -0.369,0.677 -0.756,0.647c-0.386,-0.032 -0.675,-0.37 -0.645,-0.756c0.03,-0.387 0.369,-0.676 0.756,-0.646Z" style="fill:#dfc8b8;"/><path d="M59.469,40.19c0.75,0.057 1.311,0.715 1.251,1.465c-0.059,0.748 -0.714,1.309 -1.464,1.249c-0.75,-0.057 -1.309,-0.714 -1.252,-1.464c0.059,-0.748 0.715,-1.309 1.465,-1.25Z" style="fill:#deb87c;"/><path d="M43.575,32.503c0.503,0.039 0.877,0.48 0.837,0.982c-0.038,0.501 -0.478,0.877 -0.981,0.837c-0.5,-0.037 -0.876,-0.478 -0.836,-0.98c0.037,-0.503 0.478,-0.877 0.98,-0.839Z" style="fill:#baa583;"/><path d="M32.409,28.352c0.149,0.012 0.26,0.141 0.248,0.289c-0.012,0.148 -0.141,0.258 -0.289,0.247c-0.148,-0.012 -0.258,-0.141 -0.247,-0.29c0.012,-0.147 0.141,-0.258 0.288,-0.246Z" style="fill:#deb87c;"/><path d="M32.862,28.353c0.382,0.031 0.666,0.362 0.636,0.743c-0.03,0.378 -0.362,0.663 -0.743,0.633c-0.378,-0.031 -0.662,-0.362 -0.632,-0.743c0.03,-0.378 0.361,-0.663 0.739,-0.633Z" style="fill:#e4971d;"/><path d="M31.129,21.052c0.148,0.012 0.258,0.141 0.247,0.288c-0.012,0.148 -0.142,0.258 -0.289,0.247c-0.147,-0.011 -0.258,-0.142 -0.246,-0.289c0.011,-0.147 0.14,-0.258 0.288,-0.246Z" style="fill:#7cc3de;"/><path d="M23.962,25.344c0.149,0.01 0.258,0.14 0.248,0.288c-0.012,0.148 -0.142,0.258 -0.289,0.246c-0.147,-0.011 -0.258,-0.141 -0.246,-0.288c0.011,-0.149 0.14,-0.258 0.287,-0.246Z" style="fill:#deb87c;"/><path d="M67.811,33.198c-0.084,0.121 -0.252,0.152 -0.374,0.069c-0.121,-0.084 -0.152,-0.252 -0.069,-0.374c0.085,-0.121 0.251,-0.153 0.374,-0.069c0.121,0.084 0.152,0.251 0.069,0.374Z" style="fill:#7cc0de;"/><path d="M26.361,38.74c-0.146,0.213 -0.442,0.268 -0.657,0.121c-0.213,-0.149 -0.268,-0.442 -0.122,-0.657c0.147,-0.213 0.442,-0.268 0.658,-0.122c0.213,0.147 0.268,0.442 0.121,0.658Z" style="fill:#f3f1ef;"/><path d="M36.656,10.78c-0.085,0.121 -0.252,0.152 -0.374,0.069c-0.122,-0.084 -0.153,-0.252 -0.069,-0.374c0.083,-0.121 0.251,-0.153 0.373,-0.069c0.122,0.083 0.153,0.251 0.07,0.374Z" style="fill:#deb87c;"/><path d="M13.74,34.884c-0.084,0.121 -0.252,0.152 -0.374,0.069c-0.121,-0.084 -0.153,-0.252 -0.069,-0.374c0.084,-0.121 0.251,-0.153 0.374,-0.069c0.121,0.083 0.152,0.251 0.069,0.374Z" style="fill:#deb87c;"/><path d="M86.703,50.25c-0.083,0.121 -0.251,0.153 -0.374,0.069c-0.121,-0.084 -0.152,-0.251 -0.069,-0.374c0.085,-0.121 0.252,-0.152 0.374,-0.069c0.121,0.084 0.153,0.252 0.069,0.374Z" style="fill:#deb87c;"/><path d="M38.206,43.033c-0.12,0.175 -0.362,0.22 -0.539,0.1c-0.175,-0.123 -0.22,-0.363 -0.1,-0.54c0.121,-0.174 0.363,-0.219 0.54,-0.099c0.174,0.12 0.219,0.362 0.099,0.539Z" style="fill:#7ccade;"/><path d="M42.136,17.946c-0.084,0.121 -0.252,0.152 -0.374,0.069c-0.122,-0.084 -0.153,-0.252 -0.069,-0.374c0.083,-0.121 0.251,-0.153 0.374,-0.069c0.121,0.083 0.152,0.251 0.069,0.374Z" style="fill:#c7beb0;"/><path d="M39.575,42.684c0.149,0.012 0.26,0.141 0.248,0.289c-0.012,0.148 -0.141,0.258 -0.289,0.247c-0.148,-0.012 -0.258,-0.141 -0.247,-0.29c0.012,-0.147 0.141,-0.258 0.288,-0.246Z" style="fill:#deb87c;"/><path d="M39.575,42.684c0.149,0.012 0.26,0.141 0.248,0.289c-0.012,0.148 -0.141,0.258 -0.289,0.247c-0.148,-0.012 -0.258,-0.141 -0.247,-0.29c0.012,-0.147 0.141,-0.258 0.288,-0.246Z" style="fill:#deb87c;"/><path d="M38.295,35.384c0.148,0.012 0.258,0.141 0.247,0.288c-0.012,0.148 -0.142,0.258 -0.289,0.247c-0.147,-0.011 -0.258,-0.142 -0.246,-0.289c0.011,-0.147 0.14,-0.258 0.288,-0.246Z" style="fill:#deb87c;"/><path d="M31.129,39.676c0.148,0.01 0.258,0.14 0.247,0.288c-0.012,0.148 -0.142,0.258 -0.289,0.246c-0.147,-0.01 -0.258,-0.141 -0.246,-0.288c0.011,-0.149 0.14,-0.258 0.288,-0.246Z" style="fill:#deb87c;"/><path d="M31.712,53.508c-0.083,0.121 -0.251,0.152 -0.374,0.069c-0.121,-0.085 -0.152,-0.252 -0.069,-0.374c0.084,-0.122 0.252,-0.153 0.374,-0.069c0.121,0.083 0.153,0.251 0.069,0.374Z" style="fill:#a37836;"/><path d="M43.822,25.112c-0.085,0.121 -0.252,0.152 -0.374,0.069c-0.122,-0.084 -0.153,-0.252 -0.069,-0.374c0.083,-0.121 0.251,-0.153 0.374,-0.069c0.121,0.083 0.152,0.251 0.069,0.374Z" style="fill:#deb87c;"/><path d="M21.406,49.645c-0.169,0.245 -0.508,0.308 -0.756,0.139c-0.245,-0.168 -0.308,-0.508 -0.139,-0.755c0.171,-0.245 0.508,-0.308 0.755,-0.14c0.245,0.169 0.308,0.509 0.14,0.756Z" style="fill:#c8c4bd;"/><path d="M81.158,30.647c0.296,0.023 0.517,0.282 0.494,0.578c-0.024,0.294 -0.283,0.516 -0.577,0.493c-0.296,-0.023 -0.518,-0.282 -0.494,-0.578c0.023,-0.295 0.281,-0.516 0.577,-0.493Z" style="fill:#d7592a;"/><path d="M69.648,25.746c0.147,0.012 0.258,0.141 0.246,0.29c-0.011,0.147 -0.14,0.257 -0.289,0.246c-0.147,-0.012 -0.258,-0.141 -0.246,-0.289c0.011,-0.148 0.14,-0.258 0.289,-0.247Z" style="fill:#deb87c;"/><path d="M69.648,25.746c0.147,0.012 0.258,0.141 0.246,0.29c-0.011,0.147 -0.14,0.257 -0.289,0.246c-0.147,-0.012 -0.258,-0.141 -0.246,-0.289c0.011,-0.148 0.14,-0.258 0.289,-0.247Z" style="fill:#e4971d;"/><path d="M68.366,18.446c0.148,0.012 0.259,0.141 0.247,0.288c-0.011,0.148 -0.14,0.258 -0.289,0.248c-0.147,-0.012 -0.258,-0.143 -0.246,-0.29c0.012,-0.147 0.141,-0.258 0.288,-0.246Z" style="fill:#7cc3de;"/><path d="M61.2,22.738c0.148,0.01 0.259,0.141 0.247,0.288c-0.011,0.148 -0.14,0.258 -0.289,0.246c-0.147,-0.01 -0.258,-0.141 -0.246,-0.288c0.012,-0.148 0.141,-0.258 0.288,-0.246Z" style="fill:#deb87c;"/><path d="M61.784,36.57c-0.084,0.121 -0.252,0.152 -0.373,0.069c-0.123,-0.085 -0.154,-0.252 -0.07,-0.374c0.084,-0.121 0.251,-0.153 0.374,-0.069c0.122,0.083 0.153,0.251 0.069,0.374Z" style="fill:#f3f1ef;"/><path d="M73.893,8.174c-0.083,0.121 -0.252,0.152 -0.373,0.069c-0.122,-0.084 -0.153,-0.252 -0.07,-0.374c0.085,-0.121 0.251,-0.153 0.374,-0.069c0.122,0.083 0.152,0.251 0.069,0.374Z" style="fill:#deb87c;"/><path d="M50.977,32.278c-0.083,0.121 -0.251,0.152 -0.372,0.069c-0.123,-0.084 -0.154,-0.252 -0.071,-0.374c0.085,-0.121 0.252,-0.153 0.374,-0.069c0.123,0.083 0.154,0.251 0.069,0.374Z" style="fill:#deb87c;"/><path d="M75.464,40.478c-0.083,0.122 -0.251,0.153 -0.372,0.069c-0.123,-0.084 -0.154,-0.251 -0.071,-0.374c0.085,-0.121 0.252,-0.152 0.374,-0.069c0.123,0.084 0.154,0.252 0.069,0.374Z" style="fill:#7ccade;"/><path d="M79.373,15.34c-0.083,0.121 -0.251,0.152 -0.373,0.069c-0.122,-0.083 -0.153,-0.252 -0.07,-0.374c0.085,-0.121 0.251,-0.152 0.374,-0.069c0.122,0.083 0.154,0.251 0.069,0.374Z" style="fill:#c7beb0;"/><path d="M76.814,40.078c0.147,0.012 0.258,0.141 0.246,0.29c-0.011,0.147 -0.14,0.258 -0.289,0.246c-0.147,-0.012 -0.258,-0.141 -0.246,-0.289c0.012,-0.148 0.141,-0.258 0.289,-0.247Z" style="fill:#deb87c;"/><path d="M76.814,40.078c0.147,0.012 0.258,0.141 0.246,0.29c-0.011,0.147 -0.14,0.258 -0.289,0.246c-0.147,-0.012 -0.258,-0.141 -0.246,-0.289c0.012,-0.148 0.141,-0.258 0.289,-0.247Z" style="fill:#deb87c;"/><path d="M75.532,32.778c0.149,0.012 0.259,0.141 0.248,0.288c-0.012,0.149 -0.141,0.258 -0.29,0.248c-0.147,-0.012 -0.258,-0.142 -0.246,-0.29c0.012,-0.147 0.141,-0.258 0.288,-0.246Z" style="fill:#deb87c;"/><path d="M68.366,37.07c0.148,0.01 0.259,0.141 0.247,0.288c-0.011,0.148 -0.14,0.258 -0.289,0.246c-0.147,-0.01 -0.258,-0.141 -0.246,-0.288c0.012,-0.148 0.141,-0.258 0.288,-0.246Z" style="fill:#deb87c;"/><path d="M68.95,50.902c-0.084,0.121 -0.252,0.152 -0.373,0.069c-0.122,-0.085 -0.154,-0.252 -0.07,-0.374c0.084,-0.121 0.251,-0.153 0.374,-0.069c0.122,0.083 0.153,0.251 0.069,0.374Z" style="fill:#a37836;"/><path d="M81.059,22.506c-0.083,0.121 -0.252,0.152 -0.373,0.069c-0.122,-0.083 -0.153,-0.252 -0.07,-0.374c0.085,-0.121 0.251,-0.152 0.374,-0.069c0.122,0.083 0.152,0.251 0.069,0.374Z" style="fill:#deb87c;"/><path d="M58.143,46.61c-0.083,0.121 -0.251,0.152 -0.372,0.069c-0.123,-0.083 -0.154,-0.252 -0.071,-0.374c0.085,-0.121 0.252,-0.152 0.374,-0.069c0.123,0.083 0.154,0.251 0.069,0.374Z" style="fill:#c8c4bd;"/><path d="M45.393,57.416c-0.084,0.121 -0.252,0.153 -0.374,0.069c-0.121,-0.084 -0.152,-0.251 -0.069,-0.374c0.083,-0.121 0.251,-0.152 0.374,-0.069c0.121,0.084 0.152,0.252 0.069,0.374Z" style="fill:#f5efe6;"/><path d="M49.302,32.278c-0.084,0.121 -0.252,0.152 -0.374,0.069c-0.121,-0.084 -0.153,-0.252 -0.069,-0.374c0.083,-0.121 0.251,-0.153 0.374,-0.069c0.121,0.083 0.152,0.251 0.069,0.374Z" style="fill:#deb87c;"/><path d="M63.927,54.665c0.034,0.144 -0.056,0.289 -0.199,0.323c-0.145,0.034 -0.29,-0.056 -0.324,-0.2c-0.033,-0.144 0.056,-0.289 0.2,-0.323c0.144,-0.034 0.289,0.056 0.323,0.2Z" style="fill:#deb87c;"/><path d="M63.927,54.665c0.034,0.144 -0.056,0.289 -0.199,0.323c-0.145,0.034 -0.29,-0.056 -0.324,-0.2c-0.033,-0.144 0.056,-0.289 0.2,-0.323c0.144,-0.034 0.289,0.056 0.323,0.2Z" style="fill:#deb87c;"/><path d="M70.492,51.225c0.034,0.143 -0.056,0.288 -0.2,0.322c-0.144,0.034 -0.288,-0.055 -0.322,-0.2c-0.034,-0.144 0.055,-0.289 0.199,-0.323c0.145,-0.034 0.289,0.056 0.323,0.201Z" style="fill:#deb87c;"/><path d="M64.224,45.703c0.034,0.145 -0.055,0.289 -0.199,0.323c-0.145,0.034 -0.29,-0.056 -0.324,-0.2c-0.033,-0.144 0.057,-0.288 0.201,-0.322c0.143,-0.035 0.288,0.054 0.322,0.199Z" style="fill:#deb87c;"/><path d="M51.225,50.465c-0.142,-0.043 -0.222,-0.193 -0.18,-0.335c0.043,-0.14 0.193,-0.221 0.335,-0.178c0.142,0.042 0.223,0.191 0.18,0.333c-0.043,0.142 -0.193,0.223 -0.335,0.18Z" style="fill:#deb87c;"/><path d="M81.958,53.366c-0.141,-0.043 -0.222,-0.193 -0.179,-0.335c0.042,-0.142 0.192,-0.223 0.334,-0.18c0.142,0.043 0.223,0.193 0.18,0.335c-0.043,0.142 -0.193,0.221 -0.335,0.18Z" style="fill:#deb87c;"/><path d="M52.027,38.865c-0.142,-0.041 -0.222,-0.191 -0.179,-0.333c0.043,-0.142 0.192,-0.223 0.334,-0.18c0.141,0.042 0.222,0.193 0.179,0.334c-0.042,0.142 -0.192,0.222 -0.334,0.179Z" style="fill:#de897c;"/><path d="M51.663,64.687c-0.142,-0.043 -0.223,-0.193 -0.18,-0.335c0.043,-0.141 0.193,-0.222 0.335,-0.179c0.142,0.042 0.221,0.192 0.179,0.334c-0.043,0.142 -0.192,0.223 -0.334,0.18Z" style="fill:#deb87c;"/><path d="M76.644,60.76c-0.205,-0.062 -0.322,-0.279 -0.26,-0.484c0.063,-0.205 0.279,-0.32 0.484,-0.26c0.206,0.062 0.322,0.279 0.26,0.484c-0.062,0.205 -0.279,0.322 -0.484,0.26Z" style="fill:#dfd8cc;"/><path d="M66.24,20.935c-0.084,0.121 -0.252,0.152 -0.374,0.069c-0.122,-0.085 -0.153,-0.252 -0.069,-0.374c0.083,-0.121 0.251,-0.153 0.374,-0.069c0.121,0.083 0.152,0.251 0.069,0.374Z" style="fill:#deb87c;"/><path d="M80.303,35.803c-0.084,0.122 -0.251,0.153 -0.374,0.07c-0.121,-0.084 -0.152,-0.252 -0.069,-0.374c0.084,-0.122 0.252,-0.153 0.374,-0.069c0.121,0.084 0.153,0.251 0.069,0.373Z" style="fill:#d7592a;"/><path d="M74.379,22.394c-0.219,0.317 -0.652,0.398 -0.969,0.179c-0.318,-0.216 -0.399,-0.649 -0.179,-0.966c0.216,-0.317 0.652,-0.398 0.966,-0.182c0.317,0.219 0.398,0.651 0.182,0.969Z" style="fill:#7cc5de;"/><path d="M50.345,5.369c-0.122,-0.085 -0.152,-0.252 -0.069,-0.374c0.084,-0.121 0.252,-0.153 0.373,-0.069c0.122,0.083 0.154,0.251 0.07,0.374c-0.084,0.121 -0.251,0.152 -0.374,0.069Z" style="fill:#7cc0de;"/><path d="M33.293,24.261c-0.121,-0.085 -0.153,-0.252 -0.069,-0.374c0.083,-0.121 0.251,-0.152 0.374,-0.069c0.121,0.083 0.152,0.251 0.069,0.374c-0.084,0.121 -0.252,0.152 -0.374,0.069Z" style="fill:#deb87c;"/><path d="M52.895,18.716c-0.022,0.295 -0.281,0.516 -0.577,0.494c-0.296,-0.024 -0.516,-0.283 -0.493,-0.579c0.023,-0.294 0.282,-0.516 0.578,-0.492c0.295,0.022 0.516,0.281 0.492,0.577Z" style="fill:#baa583;"/><path d="M57.797,7.206c-0.012,0.147 -0.141,0.258 -0.29,0.246c-0.147,-0.012 -0.258,-0.141 -0.246,-0.289c0.012,-0.147 0.141,-0.258 0.289,-0.247c0.148,0.012 0.258,0.141 0.247,0.29Z" style="fill:#deb87c;"/><path d="M57.797,7.206c-0.012,0.147 -0.141,0.258 -0.29,0.246c-0.147,-0.012 -0.258,-0.141 -0.246,-0.289c0.012,-0.147 0.141,-0.258 0.289,-0.247c0.148,0.012 0.258,0.141 0.247,0.29Z" style="fill:#e4971d;"/><path d="M65.097,5.924c-0.012,0.148 -0.141,0.259 -0.288,0.247c-0.149,-0.012 -0.259,-0.142 -0.248,-0.289c0.012,-0.147 0.142,-0.258 0.29,-0.246c0.147,0.011 0.258,0.14 0.246,0.288Z" style="fill:#7cc3de;"/><path d="M75.369,11.451c-0.121,-0.084 -0.152,-0.252 -0.069,-0.374c0.083,-0.121 0.252,-0.153 0.374,-0.069c0.121,0.083 0.152,0.251 0.069,0.374c-0.085,0.121 -0.251,0.152 -0.374,0.069Z" style="fill:#deb87c;"/><path d="M39.727,13.399c-0.222,-0.153 -0.28,-0.461 -0.126,-0.686c0.153,-0.223 0.461,-0.28 0.686,-0.127c0.223,0.155 0.28,0.462 0.127,0.687c-0.153,0.222 -0.462,0.28 -0.687,0.126Z" style="fill:#7ccade;"/><path d="M68.203,16.931c-0.121,-0.084 -0.152,-0.252 -0.069,-0.374c0.083,-0.121 0.251,-0.153 0.374,-0.069c0.121,0.084 0.152,0.251 0.069,0.374c-0.085,0.121 -0.251,0.152 -0.374,0.069Z" style="fill:#c7beb0;"/><path d="M43.465,14.372c-0.012,0.147 -0.141,0.258 -0.29,0.246c-0.147,-0.012 -0.258,-0.141 -0.246,-0.289c0.012,-0.147 0.141,-0.258 0.289,-0.246c0.148,0.011 0.258,0.14 0.247,0.289Z" style="fill:#deb87c;"/><path d="M43.465,14.372c-0.012,0.147 -0.141,0.258 -0.29,0.246c-0.147,-0.012 -0.258,-0.141 -0.246,-0.289c0.012,-0.147 0.141,-0.258 0.289,-0.246c0.148,0.011 0.258,0.14 0.247,0.289Z" style="fill:#deb87c;"/><path d="M50.765,13.09c-0.012,0.148 -0.141,0.259 -0.288,0.247c-0.149,-0.011 -0.259,-0.142 -0.248,-0.289c0.012,-0.147 0.142,-0.258 0.29,-0.246c0.147,0.011 0.258,0.14 0.246,0.288Z" style="fill:#deb87c;"/><path d="M46.473,5.924c-0.012,0.148 -0.141,0.259 -0.288,0.247c-0.148,-0.012 -0.258,-0.142 -0.247,-0.289c0.011,-0.147 0.142,-0.258 0.289,-0.246c0.147,0.011 0.258,0.14 0.246,0.288Z" style="fill:#deb87c;"/><path d="M32.641,6.507c-0.121,-0.083 -0.152,-0.251 -0.069,-0.374c0.084,-0.121 0.252,-0.152 0.374,-0.069c0.121,0.085 0.153,0.252 0.069,0.374c-0.083,0.121 -0.251,0.153 -0.374,0.069Z" style="fill:#a37836;"/><path d="M61.037,18.617c-0.121,-0.084 -0.152,-0.252 -0.069,-0.374c0.083,-0.121 0.251,-0.153 0.374,-0.069c0.121,0.083 0.152,0.251 0.069,0.374c-0.085,0.121 -0.252,0.152 -0.374,0.069Z" style="fill:#deb87c;"/><path d="M32.318,8.05c-0.143,0.034 -0.289,-0.056 -0.323,-0.201c-0.034,-0.144 0.056,-0.289 0.201,-0.323c0.144,-0.034 0.289,0.056 0.323,0.201c0.034,0.145 -0.056,0.289 -0.201,0.323Z" style="fill:#deb87c;"/><path d="M30.177,19.516c0.043,-0.142 0.193,-0.222 0.335,-0.18c0.142,0.043 0.223,0.193 0.18,0.335c-0.043,0.142 -0.193,0.223 -0.335,0.18c-0.142,-0.043 -0.221,-0.193 -0.18,-0.335Z" style="fill:#deb87c;"/><path d="M22.778,14.356c0.043,-0.142 0.193,-0.223 0.335,-0.18c0.141,0.043 0.221,0.193 0.178,0.335c-0.041,0.142 -0.191,0.223 -0.333,0.18c-0.142,-0.043 -0.223,-0.193 -0.18,-0.335Z" style="fill:#dfd8cc;"/><path d="M51.22,57.534c0.011,-0.149 0.14,-0.26 0.289,-0.248c0.147,0.012 0.258,0.141 0.246,0.289c-0.012,0.147 -0.141,0.258 -0.289,0.246c-0.147,-0.011 -0.258,-0.14 -0.246,-0.287Z" style="fill:#deb87c;"/><path d="M51.22,57.534c0.011,-0.149 0.14,-0.26 0.289,-0.248c0.147,0.012 0.258,0.141 0.246,0.289c-0.012,0.147 -0.141,0.258 -0.289,0.246c-0.147,-0.011 -0.258,-0.14 -0.246,-0.287Z" style="fill:#e4971d;"/><path d="M43.352,58.509c0.024,-0.306 0.289,-0.531 0.592,-0.507c0.306,0.021 0.532,0.289 0.51,0.592c-0.024,0.304 -0.292,0.531 -0.595,0.507c-0.303,-0.021 -0.531,-0.289 -0.507,-0.592Z" style="fill:#7cc3de;"/><path d="M18.489,33.957c0.149,-0 0.268,0.122 0.267,0.269c0,0.149 -0.121,0.268 -0.269,0.267c-0.148,0.001 -0.268,-0.121 -0.267,-0.269c-0.001,-0.149 0.121,-0.267 0.269,-0.267Z" style="fill:#deb87c;"/><path d="M20.095,47.708c-0.076,0.127 -0.24,0.171 -0.368,0.097c-0.127,-0.076 -0.171,-0.24 -0.096,-0.368c0.074,-0.127 0.239,-0.171 0.367,-0.097c0.127,0.074 0.171,0.24 0.097,0.368Z" style="fill:#f3f1ef;"/><path d="M9,44.228c-0.074,0.127 -0.239,0.17 -0.367,0.096c-0.127,-0.074 -0.171,-0.239 -0.097,-0.367c0.074,-0.127 0.24,-0.171 0.368,-0.097c0.127,0.074 0.171,0.24 0.096,0.368Z" style="fill:#deb87c;"/><path d="M62.543,58.814c0.011,-0.148 0.141,-0.258 0.288,-0.246c0.149,0.01 0.258,0.141 0.246,0.288c-0.01,0.147 -0.14,0.258 -0.288,0.246c-0.148,-0.01 -0.258,-0.14 -0.246,-0.288Z" style="fill:#deb87c;"/><path d="M76.375,58.231c0.121,0.084 0.152,0.251 0.069,0.374c-0.085,0.121 -0.251,0.152 -0.374,0.069c-0.121,-0.084 -0.152,-0.252 -0.069,-0.374c0.083,-0.122 0.251,-0.153 0.374,-0.069Z" style="fill:#a37836;"/><path d="M17.208,57.99c-0.074,0.127 -0.24,0.171 -0.368,0.097c-0.127,-0.074 -0.171,-0.24 -0.097,-0.368c0.075,-0.127 0.24,-0.171 0.368,-0.097c0.127,0.075 0.171,0.24 0.097,0.368Z" style="fill:#c8c4bd;"/><path d="M47.128,56.65c-0.084,0.121 -0.251,0.153 -0.374,0.069c-0.121,-0.083 -0.152,-0.251 -0.069,-0.374c0.084,-0.121 0.252,-0.152 0.374,-0.069c0.121,0.085 0.153,0.252 0.069,0.374Z" style="fill:#deb87c;"/><path d="M29.375,57.302c-0.084,0.121 -0.252,0.152 -0.374,0.069c-0.121,-0.084 -0.153,-0.252 -0.069,-0.374c0.085,-0.121 0.251,-0.153 0.374,-0.069c0.121,0.084 0.152,0.251 0.069,0.374Z" style="fill:#a37836;"/><path d="M31.485,57.847c0.07,0.299 -0.116,0.599 -0.415,0.669c-0.299,0.07 -0.599,-0.116 -0.669,-0.416c-0.07,-0.299 0.116,-0.598 0.416,-0.668c0.299,-0.07 0.598,0.116 0.668,0.415Z" style="fill:#deb87c;"/><path d="M42.383,59.765c-0.142,-0.043 -0.221,-0.192 -0.18,-0.334c0.043,-0.142 0.193,-0.223 0.335,-0.18c0.142,0.043 0.223,0.193 0.18,0.335c-0.043,0.142 -0.193,0.222 -0.335,0.179Z" style="fill:#deb87c;"/><path d="M16.495,23.088c0.031,-0.145 0.175,-0.237 0.319,-0.204c0.145,0.032 0.236,0.175 0.204,0.32c-0.031,0.145 -0.175,0.237 -0.319,0.204c-0.145,-0.032 -0.237,-0.176 -0.204,-0.32Z" style="fill:#dfd8cc;"/><path d="M61.924,41.513c-0.011,0.148 -0.14,0.259 -0.289,0.247c-0.147,-0.011 -0.258,-0.14 -0.246,-0.289c0.012,-0.147 0.141,-0.258 0.289,-0.246c0.147,0.012 0.258,0.141 0.246,0.288Z" style="fill:#deb87c;"/><path d="M61.924,41.513c-0.011,0.148 -0.14,0.259 -0.289,0.247c-0.147,-0.011 -0.258,-0.14 -0.246,-0.289c0.012,-0.147 0.141,-0.258 0.289,-0.246c0.147,0.012 0.258,0.141 0.246,0.288Z" style="fill:#e4971d;"/><path d="M69.225,40.232c-0.012,0.149 -0.141,0.258 -0.288,0.248c-0.149,-0.012 -0.258,-0.142 -0.248,-0.29c0.012,-0.147 0.142,-0.258 0.289,-0.246c0.148,0.012 0.258,0.141 0.247,0.288Z" style="fill:#7cc3de;"/><path d="M64.933,33.066c-0.011,0.149 -0.141,0.258 -0.288,0.248c-0.149,-0.012 -0.258,-0.142 -0.246,-0.29c0.01,-0.147 0.14,-0.258 0.287,-0.246c0.149,0.012 0.258,0.141 0.247,0.288Z" style="fill:#deb87c;"/><path d="M51.101,33.65c-0.121,-0.084 -0.152,-0.252 -0.069,-0.374c0.085,-0.121 0.251,-0.153 0.374,-0.069c0.121,0.083 0.152,0.251 0.069,0.374c-0.083,0.121 -0.252,0.152 -0.374,0.069Z" style="fill:#f3f1ef;"/><path d="M79.497,45.759c-0.121,-0.085 -0.153,-0.251 -0.069,-0.374c0.083,-0.121 0.251,-0.152 0.374,-0.069c0.121,0.083 0.152,0.252 0.069,0.374c-0.084,0.121 -0.252,0.152 -0.374,0.069Z" style="fill:#deb87c;"/><path d="M55.393,22.843c-0.121,-0.083 -0.153,-0.251 -0.069,-0.374c0.083,-0.121 0.251,-0.152 0.374,-0.069c0.121,0.085 0.152,0.252 0.069,0.374c-0.084,0.121 -0.252,0.153 -0.374,0.069Z" style="fill:#deb87c;"/><path d="M47.192,47.33c-0.121,-0.083 -0.152,-0.251 -0.069,-0.374c0.085,-0.121 0.252,-0.152 0.374,-0.069c0.121,0.084 0.153,0.252 0.069,0.374c-0.083,0.122 -0.251,0.153 -0.374,0.069Z" style="fill:#7ccade;"/><path d="M72.331,51.239c-0.121,-0.083 -0.153,-0.251 -0.069,-0.374c0.083,-0.121 0.251,-0.152 0.374,-0.069c0.121,0.084 0.152,0.252 0.069,0.374c-0.084,0.121 -0.252,0.153 -0.374,0.069Z" style="fill:#c7beb0;"/><path d="M47.592,48.679c-0.012,0.148 -0.141,0.259 -0.289,0.247c-0.147,-0.011 -0.258,-0.14 -0.246,-0.289c0.011,-0.147 0.14,-0.258 0.289,-0.246c0.147,0.012 0.258,0.141 0.246,0.288Z" style="fill:#deb87c;"/><path d="M47.592,48.679c-0.012,0.148 -0.141,0.259 -0.289,0.247c-0.147,-0.011 -0.258,-0.14 -0.246,-0.289c0.011,-0.147 0.14,-0.258 0.289,-0.246c0.147,0.012 0.258,0.141 0.246,0.288Z" style="fill:#deb87c;"/><path d="M54.892,47.398c-0.011,0.149 -0.14,0.258 -0.287,0.248c-0.149,-0.012 -0.258,-0.142 -0.248,-0.29c0.012,-0.147 0.142,-0.258 0.289,-0.246c0.147,0.012 0.258,0.141 0.246,0.288Z" style="fill:#deb87c;"/><path d="M50.601,40.232c-0.011,0.149 -0.141,0.258 -0.288,0.248c-0.149,-0.012 -0.258,-0.142 -0.247,-0.29c0.011,-0.147 0.141,-0.258 0.288,-0.246c0.149,0.012 0.258,0.141 0.247,0.288Z" style="fill:#deb87c;"/><path d="M36.769,40.816c-0.121,-0.084 -0.153,-0.252 -0.069,-0.374c0.085,-0.121 0.251,-0.153 0.374,-0.069c0.121,0.083 0.152,0.251 0.069,0.374c-0.084,0.121 -0.252,0.152 -0.374,0.069Z" style="fill:#a37836;"/><path d="M41.061,30.009c-0.121,-0.083 -0.153,-0.251 -0.069,-0.374c0.083,-0.121 0.251,-0.152 0.374,-0.069c0.121,0.085 0.152,0.252 0.069,0.374c-0.084,0.122 -0.252,0.153 -0.374,0.069Z" style="fill:#c8c4bd;"/><path d="M66.015,42.396c0.085,-0.121 0.252,-0.152 0.374,-0.069c0.122,0.084 0.153,0.252 0.069,0.374c-0.083,0.121 -0.251,0.153 -0.373,0.069c-0.122,-0.083 -0.153,-0.251 -0.07,-0.374Z" style="fill:#deb87c;"/><path d="M83.769,41.745c0.083,-0.121 0.251,-0.153 0.374,-0.069c0.121,0.083 0.152,0.251 0.069,0.374c-0.085,0.121 -0.251,0.152 -0.374,0.069c-0.121,-0.084 -0.152,-0.252 -0.069,-0.374Z" style="fill:#a37836;"/><path d="M82.226,41.422c-0.034,-0.144 0.056,-0.29 0.201,-0.323c0.145,-0.034 0.289,0.056 0.323,0.2c0.034,0.145 -0.056,0.289 -0.201,0.323c-0.144,0.034 -0.289,-0.056 -0.323,-0.2Z" style="fill:#deb87c;"/><path d="M70.761,39.281c0.142,0.043 0.221,0.193 0.179,0.335c-0.043,0.142 -0.192,0.223 -0.334,0.18c-0.142,-0.043 -0.223,-0.193 -0.18,-0.335c0.043,-0.142 0.193,-0.222 0.335,-0.18Z" style="fill:#deb87c;"/><path d="M75.92,31.882c0.142,0.043 0.223,0.193 0.18,0.335c-0.043,0.14 -0.193,0.221 -0.335,0.178c-0.142,-0.042 -0.223,-0.191 -0.18,-0.334c0.043,-0.142 0.193,-0.222 0.335,-0.179Z" style="fill:#dfd8cc;"/><path d="M54.046,27.789c-0.149,-0.011 -0.258,-0.142 -0.248,-0.289c0.012,-0.147 0.142,-0.258 0.289,-0.246c0.147,0.01 0.258,0.14 0.247,0.288c-0.011,0.147 -0.141,0.258 -0.288,0.247Z" style="fill:#7cc0de;"/><path d="M61.416,25.654c0.064,0.134 0.008,0.294 -0.126,0.358c-0.134,0.064 -0.295,0.007 -0.359,-0.128c-0.063,-0.133 -0.006,-0.293 0.128,-0.357c0.133,-0.063 0.293,-0.007 0.357,0.127Z" style="fill:#deb87c;"/><path d="M61.416,25.654c0.064,0.134 0.008,0.294 -0.126,0.358c-0.134,0.064 -0.295,0.007 -0.359,-0.128c-0.063,-0.133 -0.006,-0.293 0.128,-0.357c0.133,-0.063 0.293,-0.007 0.357,0.127Z" style="fill:#e4971d;"/><path d="M67.098,20.894c0.064,0.133 0.008,0.295 -0.126,0.358c-0.134,0.064 -0.295,0.007 -0.358,-0.127c-0.064,-0.133 -0.007,-0.293 0.127,-0.357c0.133,-0.064 0.293,-0.008 0.357,0.126Z" style="fill:#7cc3de;"/><path d="M78.758,20.544c-0.149,-0.012 -0.258,-0.141 -0.248,-0.288c0.012,-0.149 0.142,-0.26 0.29,-0.248c0.147,0.012 0.258,0.141 0.246,0.289c-0.01,0.148 -0.141,0.258 -0.288,0.247Z" style="fill:#deb87c;"/><path d="M51.567,38.058c-0.148,-0.012 -0.259,-0.142 -0.247,-0.29c0.012,-0.147 0.141,-0.258 0.289,-0.246c0.147,0.01 0.258,0.141 0.246,0.288c-0.011,0.149 -0.14,0.258 -0.288,0.248Z" style="fill:#7ccade;"/><path d="M52.588,39.026c0.063,0.134 0.006,0.294 -0.127,0.358c-0.134,0.064 -0.294,0.006 -0.358,-0.126c-0.064,-0.135 -0.007,-0.295 0.126,-0.359c0.134,-0.064 0.295,-0.008 0.359,0.127Z" style="fill:#deb87c;"/><path d="M52.588,39.026c0.063,0.134 0.006,0.294 -0.127,0.358c-0.134,0.064 -0.294,0.006 -0.358,-0.126c-0.064,-0.135 -0.007,-0.295 0.126,-0.359c0.134,-0.064 0.295,-0.008 0.359,0.127Z" style="fill:#deb87c;"/><path d="M58.27,34.266c0.063,0.134 0.006,0.294 -0.127,0.358c-0.134,0.064 -0.294,0.007 -0.358,-0.127c-0.064,-0.133 -0.007,-0.294 0.126,-0.357c0.135,-0.064 0.295,-0.008 0.359,0.126Z" style="fill:#deb87c;"/><path d="M50.969,30.206c0.064,0.133 0.008,0.295 -0.126,0.358c-0.133,0.064 -0.294,0.007 -0.358,-0.127c-0.064,-0.133 -0.007,-0.295 0.127,-0.357c0.133,-0.064 0.294,-0.008 0.357,0.126Z" style="fill:#deb87c;"/><path d="M39.284,37.626c-0.149,-0.01 -0.26,-0.14 -0.248,-0.288c0.012,-0.147 0.141,-0.258 0.289,-0.246c0.147,0.01 0.258,0.141 0.246,0.288c-0.011,0.147 -0.14,0.258 -0.287,0.246Z" style="fill:#a37836;"/><path d="M39.773,39.125c-0.106,0.101 -0.277,0.095 -0.379,-0.012c-0.101,-0.108 -0.096,-0.279 0.012,-0.381c0.108,-0.101 0.279,-0.096 0.38,0.012c0.101,0.108 0.096,0.279 -0.013,0.381Z" style="fill:#deb87c;"/><path d="M34.665,49.356c-0.034,-0.144 0.056,-0.289 0.2,-0.323c0.144,-0.034 0.288,0.056 0.322,0.2c0.035,0.144 -0.055,0.289 -0.199,0.323c-0.145,0.034 -0.289,-0.056 -0.323,-0.2Z" style="fill:#dfd8cc;"/><path d="M63.88,20.296c-0.147,-0.012 -0.258,-0.141 -0.246,-0.289c0.01,-0.147 0.14,-0.258 0.288,-0.246c0.147,0.011 0.258,0.14 0.247,0.288c-0.011,0.148 -0.142,0.259 -0.289,0.247Z" style="fill:#deb87c;"/><path d="M70.32,28.135c-0.147,-0.012 -0.258,-0.141 -0.247,-0.288c0.011,-0.149 0.142,-0.26 0.289,-0.248c0.147,0.012 0.258,0.141 0.246,0.289c-0.01,0.147 -0.14,0.258 -0.288,0.247Z" style="fill:#7cc5de;"/><path d="M76.658,23.461c0.011,-0.147 0.14,-0.258 0.289,-0.246c0.147,0.011 0.258,0.14 0.246,0.288c-0.012,0.148 -0.141,0.259 -0.288,0.247c-0.148,-0.012 -0.259,-0.141 -0.247,-0.289Z" style="fill:#deb87c;"/><path d="M68.329,19.995c0.011,-0.147 0.141,-0.258 0.288,-0.246c0.148,0.01 0.258,0.141 0.248,0.288c-0.012,0.148 -0.142,0.258 -0.289,0.247c-0.148,-0.011 -0.258,-0.142 -0.247,-0.289Z" style="fill:#c7beb0;"/><path d="M36.648,47.752c-0.01,0.13 -0.123,0.227 -0.253,0.217c-0.129,-0.01 -0.226,-0.123 -0.215,-0.253c0.01,-0.129 0.123,-0.226 0.251,-0.215c0.13,0.01 0.227,0.123 0.217,0.251Z" style="fill:#a37836;"/><path d="M25.143,49.409c-0.012,0.147 -0.141,0.258 -0.288,0.246c-0.149,-0.012 -0.259,-0.141 -0.248,-0.289c0.012,-0.148 0.141,-0.258 0.29,-0.247c0.147,0.012 0.258,0.141 0.246,0.29Z" style="fill:#c8c4bd;"/><path d="M48.659,32.531c-0.133,0.063 -0.293,0.007 -0.357,-0.127c-0.064,-0.134 -0.008,-0.294 0.127,-0.358c0.134,-0.064 0.294,-0.007 0.358,0.126c0.064,0.134 0.006,0.295 -0.128,0.359Z" style="fill:#7cc3de;"/><path d="M40.68,40.725c0.012,-0.149 0.142,-0.26 0.289,-0.248c0.148,0.012 0.258,0.141 0.247,0.289c-0.011,0.148 -0.141,0.258 -0.288,0.247c-0.147,-0.012 -0.258,-0.141 -0.248,-0.288Z" style="fill:#c7beb0;"/><path d="M45.181,30.834c0.148,0.011 0.259,0.141 0.247,0.288c-0.012,0.147 -0.141,0.258 -0.289,0.248c-0.147,-0.012 -0.258,-0.142 -0.246,-0.29c0.011,-0.147 0.14,-0.258 0.288,-0.246Z" style="fill:#deb87c;"/><path d="M50.251,33.385c0.034,0.144 -0.056,0.29 -0.2,0.323c-0.144,0.034 -0.288,-0.056 -0.323,-0.2c-0.034,-0.145 0.056,-0.29 0.2,-0.323c0.145,-0.034 0.29,0.056 0.323,0.2Z" style="fill:#deb87c;"/><path d="M59.239,34.154c0.035,0.143 -0.055,0.288 -0.199,0.322c-0.145,0.035 -0.29,-0.055 -0.323,-0.2c-0.034,-0.144 0.056,-0.289 0.2,-0.323c0.143,-0.034 0.288,0.056 0.322,0.201Z" style="fill:#dfd8cc;"/><path d="M32.975,38.478c-0.123,-0.083 -0.153,-0.251 -0.069,-0.374c0.083,-0.121 0.251,-0.152 0.374,-0.069c0.121,0.085 0.152,0.252 0.069,0.374c-0.085,0.121 -0.252,0.153 -0.374,0.069Z" style="fill:#a37836;"/><path d="M32.652,40.021c-0.145,0.034 -0.29,-0.056 -0.323,-0.201c-0.034,-0.144 0.056,-0.289 0.2,-0.323c0.145,-0.034 0.289,0.056 0.323,0.201c0.034,0.145 -0.056,0.289 -0.2,0.323Z" style="fill:#deb87c;"/><path d="M23.112,46.327c0.041,-0.142 0.193,-0.223 0.333,-0.18c0.142,0.043 0.223,0.193 0.18,0.335c-0.042,0.142 -0.191,0.223 -0.334,0.18c-0.142,-0.043 -0.222,-0.193 -0.179,-0.335Z" style="fill:#dfd8cc;"/><path d="M18.527,27.139c0.2,0.016 0.349,0.19 0.334,0.39c-0.016,0.198 -0.19,0.347 -0.39,0.332c-0.198,-0.016 -0.347,-0.19 -0.332,-0.39c0.016,-0.198 0.19,-0.347 0.388,-0.332Z" style="fill:#deb87c;"/><path d="M14.658,26.502c0.338,0.027 0.59,0.32 0.564,0.659c-0.027,0.335 -0.321,0.587 -0.659,0.561c-0.336,-0.027 -0.588,-0.321 -0.561,-0.659c0.027,-0.336 0.32,-0.588 0.656,-0.561Z" style="fill:#e4971d;"/><path d="M16.654,17.887c0.149,0.012 0.258,0.141 0.248,0.288c-0.012,0.149 -0.142,0.258 -0.29,0.248c-0.147,-0.012 -0.258,-0.142 -0.246,-0.29c0.012,-0.147 0.141,-0.258 0.288,-0.246Z" style="fill:#7cc3de;"/><path d="M9.488,22.179c0.149,0.01 0.258,0.141 0.248,0.288c-0.012,0.148 -0.142,0.258 -0.29,0.246c-0.147,-0.01 -0.258,-0.141 -0.246,-0.288c0.012,-0.148 0.141,-0.258 0.288,-0.246Z" style="fill:#deb87c;"/><path d="M77.83,11.002c-0.084,0.121 -0.252,0.152 -0.374,0.069c-0.121,-0.085 -0.153,-0.252 -0.069,-0.374c0.083,-0.121 0.251,-0.152 0.374,-0.069c0.121,0.083 0.152,0.251 0.069,0.374Z" style="fill:#f3f1ef;"/><path d="M17.99,7.652c-0.085,0.122 -0.252,0.153 -0.374,0.069c-0.121,-0.083 -0.153,-0.251 -0.069,-0.373c0.083,-0.122 0.251,-0.153 0.374,-0.069c0.121,0.083 0.152,0.251 0.069,0.373Z" style="fill:#deb87c;"/><path d="M67.023,6.71c-0.083,0.121 -0.251,0.153 -0.374,0.069c-0.121,-0.083 -0.152,-0.251 -0.069,-0.374c0.085,-0.121 0.252,-0.152 0.374,-0.069c0.121,0.084 0.153,0.252 0.069,0.374Z" style="fill:#deb87c;"/><path d="M88.894,18.789c-0.152,0.221 -0.459,0.278 -0.683,0.126c-0.221,-0.155 -0.278,-0.459 -0.126,-0.683c0.153,-0.221 0.459,-0.278 0.683,-0.126c0.221,0.152 0.278,0.459 0.126,0.683Z" style="fill:#7ccade;"/><path d="M27.661,14.781c-0.083,0.121 -0.251,0.152 -0.374,0.069c-0.121,-0.083 -0.152,-0.252 -0.069,-0.374c0.084,-0.121 0.252,-0.152 0.374,-0.069c0.121,0.083 0.153,0.251 0.069,0.374Z" style="fill:#c7beb0;"/><path d="M92.859,14.511c0.148,0.011 0.259,0.14 0.247,0.289c-0.011,0.147 -0.14,0.258 -0.289,0.246c-0.147,-0.012 -0.258,-0.141 -0.246,-0.289c0.012,-0.147 0.141,-0.258 0.288,-0.246Z" style="fill:#deb87c;"/><path d="M92.859,14.511c0.148,0.011 0.259,0.14 0.247,0.289c-0.011,0.147 -0.14,0.258 -0.289,0.246c-0.147,-0.012 -0.258,-0.141 -0.246,-0.289c0.012,-0.147 0.141,-0.258 0.288,-0.246Z" style="fill:#deb87c;"/><path d="M91.578,7.21c0.149,0.012 0.258,0.141 0.248,0.288c-0.012,0.149 -0.142,0.258 -0.29,0.248c-0.147,-0.012 -0.258,-0.142 -0.246,-0.289c0.012,-0.148 0.141,-0.258 0.288,-0.247Z" style="fill:#deb87c;"/><path d="M84.412,11.502c0.148,0.011 0.258,0.141 0.248,0.288c-0.012,0.149 -0.143,0.258 -0.29,0.246c-0.147,-0.01 -0.258,-0.14 -0.246,-0.288c0.012,-0.148 0.141,-0.258 0.288,-0.246Z" style="fill:#deb87c;"/><path d="M90.064,24.314c-0.084,0.121 -0.252,0.152 -0.374,0.069c-0.121,-0.085 -0.153,-0.252 -0.069,-0.374c0.083,-0.121 0.251,-0.153 0.374,-0.069c0.121,0.083 0.152,0.251 0.069,0.374Z" style="fill:#a37836;"/><path d="M79.257,20.022c-0.083,0.121 -0.251,0.152 -0.374,0.069c-0.121,-0.083 -0.152,-0.251 -0.069,-0.374c0.085,-0.121 0.252,-0.152 0.374,-0.069c0.121,0.083 0.153,0.251 0.069,0.374Z" style="fill:#c8c4bd;"/><path d="M18.818,21.096c-0.121,-0.085 -0.152,-0.251 -0.069,-0.374c0.084,-0.121 0.252,-0.152 0.374,-0.069c0.121,0.084 0.153,0.252 0.069,0.374c-0.083,0.121 -0.251,0.153 -0.374,0.069Z" style="fill:#deb87c;"/><path d="M15.703,16.351c0.043,-0.142 0.193,-0.222 0.335,-0.18c0.142,0.043 0.223,0.193 0.18,0.335c-0.043,0.142 -0.193,0.223 -0.335,0.18c-0.142,-0.043 -0.222,-0.193 -0.18,-0.335Z" style="fill:#deb87c;"/><path d="M8.304,11.191c0.043,-0.142 0.193,-0.222 0.335,-0.179c0.14,0.043 0.221,0.192 0.178,0.334c-0.042,0.142 -0.192,0.223 -0.334,0.18c-0.142,-0.043 -0.222,-0.193 -0.179,-0.335Z" style="fill:#dfd8cc;"/><path d="M87.726,28.108c-0.083,0.121 -0.251,0.152 -0.374,0.069c-0.121,-0.083 -0.152,-0.252 -0.069,-0.374c0.085,-0.121 0.252,-0.152 0.374,-0.069c0.121,0.085 0.153,0.251 0.069,0.374Z" style="fill:#a37836;"/><path d="M89.269,28.431c0.034,0.145 -0.056,0.289 -0.201,0.323c-0.144,0.034 -0.289,-0.056 -0.323,-0.201c-0.034,-0.144 0.056,-0.289 0.201,-0.323c0.144,-0.034 0.289,0.056 0.323,0.201Z" style="fill:#deb87c;"/><path d="M90.052,12.642c-0.121,-0.083 -0.152,-0.251 -0.069,-0.374c0.085,-0.121 0.252,-0.152 0.374,-0.069c0.121,0.084 0.153,0.252 0.069,0.374c-0.083,0.121 -0.251,0.153 -0.374,0.069Z" style="fill:#a37836;"/><path d="M26.586,26.845c-0.121,-0.084 -0.152,-0.252 -0.069,-0.374c0.084,-0.122 0.252,-0.153 0.374,-0.069c0.121,0.084 0.153,0.251 0.069,0.374c-0.083,0.121 -0.251,0.152 -0.374,0.069Z" style="fill:#c8c4bd;"/><path d="M92.567,9.453c-0.149,-0.011 -0.259,-0.141 -0.248,-0.288c0.012,-0.147 0.141,-0.258 0.29,-0.246c0.147,0.01 0.258,0.14 0.246,0.287c-0.012,0.148 -0.141,0.258 -0.288,0.247Z" style="fill:#a37836;"/><path d="M93.057,10.951c-0.107,0.102 -0.278,0.095 -0.379,-0.012c-0.102,-0.108 -0.097,-0.278 0.011,-0.38c0.109,-0.102 0.279,-0.097 0.381,0.012c0.1,0.108 0.095,0.278 -0.013,0.38Z" style="fill:#deb87c;"/><path d="M93.016,20.163c-0.034,-0.145 0.056,-0.29 0.201,-0.323c0.143,-0.034 0.288,0.056 0.322,0.199c0.035,0.145 -0.055,0.289 -0.2,0.323c-0.144,0.034 -0.289,-0.056 -0.323,-0.199Z" style="fill:#dfd8cc;"/><path d="M94.999,18.528c-0.012,0.148 -0.141,0.259 -0.289,0.247c-0.147,-0.012 -0.258,-0.141 -0.246,-0.289c0.011,-0.147 0.14,-0.258 0.288,-0.246c0.148,0.011 0.259,0.14 0.247,0.288Z" style="fill:#a37836;"/><path d="M83.494,20.215c-0.011,0.147 -0.14,0.258 -0.288,0.246c-0.148,-0.012 -0.259,-0.141 -0.247,-0.289c0.012,-0.147 0.141,-0.258 0.289,-0.246c0.147,0.011 0.258,0.14 0.246,0.289Z" style="fill:#c8c4bd;"/><path d="M93.964,12.551c0.011,-0.148 0.142,-0.259 0.289,-0.248c0.147,0.012 0.258,0.141 0.246,0.29c-0.01,0.147 -0.141,0.258 -0.288,0.246c-0.147,-0.012 -0.258,-0.141 -0.247,-0.288Z" style="fill:#c7beb0;"/><path d="M86.258,10.305c-0.122,-0.084 -0.152,-0.252 -0.069,-0.374c0.084,-0.121 0.252,-0.153 0.374,-0.069c0.121,0.085 0.153,0.251 0.069,0.374c-0.085,0.121 -0.251,0.152 -0.374,0.069Z" style="fill:#a37836;"/><path d="M86.154,12.2c-0.24,0.056 -0.481,-0.093 -0.537,-0.334c-0.057,-0.241 0.093,-0.481 0.334,-0.538c0.24,-0.056 0.481,0.094 0.537,0.334c0.056,0.241 -0.093,0.482 -0.334,0.538Z" style="fill:#deb87c;"/><path d="M76.395,18.154c0.042,-0.142 0.193,-0.223 0.334,-0.18c0.142,0.043 0.222,0.193 0.179,0.335c-0.041,0.142 -0.191,0.222 -0.333,0.179c-0.142,-0.043 -0.223,-0.192 -0.18,-0.334Z" style="fill:#dfd8cc;"/><path d="M62.608,3.797c-0.121,-0.084 -0.152,-0.251 -0.069,-0.374c0.084,-0.122 0.252,-0.152 0.374,-0.069c0.121,0.084 0.153,0.252 0.069,0.373c-0.083,0.122 -0.251,0.154 -0.374,0.07Z" style="fill:#deb87c;"/><path d="M47.739,17.861c-0.122,-0.085 -0.152,-0.251 -0.069,-0.374c0.084,-0.122 0.252,-0.154 0.373,-0.069c0.122,0.083 0.154,0.251 0.07,0.373c-0.084,0.122 -0.251,0.153 -0.374,0.07Z" style="fill:#d7592a;"/><path d="M45.079,36.953c-0.122,-0.084 -0.152,-0.251 -0.069,-0.374c0.084,-0.122 0.252,-0.153 0.373,-0.069c0.122,0.084 0.154,0.252 0.07,0.373c-0.084,0.122 -0.251,0.154 -0.374,0.07Z" style="fill:#d7592a;"/><path d="M14.824,11.62c-0.342,-0.237 -0.425,-0.702 -0.193,-1.044c0.233,-0.342 0.702,-0.429 1.041,-0.193c0.342,0.233 0.429,0.702 0.196,1.04c-0.236,0.342 -0.702,0.429 -1.044,0.197Z" style="fill:#d7592a;"/><path d="M86.575,38.37c-0.342,-0.237 -0.425,-0.702 -0.193,-1.044c0.233,-0.342 0.702,-0.429 1.04,-0.193c0.342,0.233 0.43,0.702 0.197,1.04c-0.237,0.342 -0.702,0.429 -1.044,0.197Z" style="fill:#7cc5de;"/><path d="M5.848,35.491c-0.123,-0.085 -0.153,-0.252 -0.069,-0.374c0.083,-0.123 0.251,-0.154 0.372,-0.069c0.123,0.083 0.154,0.251 0.071,0.372c-0.085,0.123 -0.252,0.154 -0.374,0.071Z" style="fill:#d7592a;"/><path d="M23.579,20.491c-0.122,-0.085 -0.152,-0.252 -0.069,-0.374c0.084,-0.123 0.252,-0.154 0.373,-0.069c0.122,0.083 0.154,0.251 0.07,0.372c-0.084,0.123 -0.251,0.154 -0.374,0.071Z" style="fill:#d7592a;"/><path d="M24.616,32.991c-0.122,-0.085 -0.152,-0.252 -0.069,-0.374c0.083,-0.123 0.252,-0.154 0.373,-0.069c0.122,0.083 0.153,0.251 0.07,0.372c-0.085,0.123 -0.251,0.154 -0.374,0.071Z" style="fill:#d7592a;"/><path d="M92.848,37.491c-0.123,-0.085 -0.153,-0.252 -0.069,-0.374c0.083,-0.123 0.251,-0.154 0.372,-0.069c0.123,0.083 0.154,0.251 0.071,0.372c-0.085,0.123 -0.252,0.154 -0.374,0.071Z" style="fill:#d7592a;"/><path d="M72.898,46.434c-0.175,-0.122 -0.218,-0.36 -0.099,-0.536c0.119,-0.175 0.36,-0.22 0.533,-0.098c0.176,0.119 0.221,0.36 0.101,0.533c-0.121,0.175 -0.36,0.22 -0.535,0.101Z" style="fill:#d7592a;"/><path d="M27.956,46.447c-0.236,-0.163 -0.294,-0.485 -0.133,-0.722c0.161,-0.236 0.486,-0.296 0.719,-0.133c0.237,0.161 0.297,0.485 0.136,0.719c-0.163,0.237 -0.485,0.297 -0.722,0.136Z" style="fill:#d7592a;"/><path d="M69.116,12.722c-0.122,-0.085 -0.152,-0.251 -0.069,-0.374c0.083,-0.122 0.252,-0.154 0.373,-0.069c0.122,0.083 0.153,0.251 0.07,0.373c-0.085,0.122 -0.251,0.153 -0.374,0.07Z" style="fill:#d7592a;"/><path d="M46.737,10.89c-0.289,-0.2 -0.359,-0.594 -0.163,-0.883c0.197,-0.289 0.594,-0.363 0.88,-0.163c0.289,0.197 0.363,0.594 0.166,0.88c-0.2,0.289 -0.593,0.363 -0.883,0.166Z" style="fill:#d7592a;"/><path d="M35.969,17.89c-0.289,-0.2 -0.36,-0.594 -0.163,-0.883c0.197,-0.289 0.593,-0.363 0.88,-0.163c0.289,0.197 0.363,0.594 0.166,0.88c-0.2,0.289 -0.594,0.363 -0.883,0.166Z" style="fill:#d7592a;"/><path d="M20.701,34.475c0.295,0.024 0.516,0.283 0.492,0.579c-0.022,0.294 -0.281,0.516 -0.577,0.492c-0.295,-0.022 -0.516,-0.281 -0.493,-0.577c0.023,-0.296 0.282,-0.516 0.578,-0.494Z" style="fill:#baa583;"/><path d="M9.189,29.575c0.149,0.012 0.26,0.141 0.248,0.289c-0.012,0.148 -0.141,0.258 -0.289,0.247c-0.148,-0.012 -0.258,-0.141 -0.247,-0.29c0.012,-0.147 0.141,-0.258 0.288,-0.246Z" style="fill:#deb87c;"/><path d="M9.189,29.575c0.149,0.012 0.26,0.141 0.248,0.289c-0.012,0.148 -0.141,0.258 -0.289,0.247c-0.148,-0.012 -0.258,-0.141 -0.247,-0.29c0.012,-0.147 0.141,-0.258 0.288,-0.246Z" style="fill:#e4971d;"/><path d="M7.909,22.275c0.148,0.012 0.258,0.141 0.247,0.288c-0.012,0.148 -0.142,0.258 -0.289,0.247c-0.147,-0.011 -0.258,-0.142 -0.246,-0.289c0.011,-0.147 0.14,-0.258 0.288,-0.246Z" style="fill:#7cc3de;"/><path d="M0.742,26.567c0.149,0.01 0.258,0.14 0.248,0.288c-0.012,0.148 -0.142,0.258 -0.289,0.246c-0.147,-0.011 -0.258,-0.141 -0.246,-0.288c0.011,-0.149 0.14,-0.258 0.287,-0.246Z" style="fill:#deb87c;"/><path d="M1.326,40.398c-0.083,0.122 -0.251,0.153 -0.374,0.069c-0.121,-0.084 -0.152,-0.251 -0.069,-0.373c0.084,-0.122 0.252,-0.153 0.374,-0.069c0.121,0.083 0.153,0.251 0.069,0.373Z" style="fill:#f3f1ef;"/><path d="M13.436,12.003c-0.085,0.121 -0.252,0.152 -0.374,0.069c-0.122,-0.084 -0.153,-0.252 -0.069,-0.374c0.083,-0.121 0.251,-0.153 0.373,-0.069c0.122,0.083 0.153,0.251 0.07,0.374Z" style="fill:#deb87c;"/><path d="M15.007,44.307c-0.084,0.121 -0.252,0.153 -0.374,0.069c-0.121,-0.084 -0.153,-0.251 -0.069,-0.374c0.083,-0.121 0.251,-0.152 0.374,-0.069c0.121,0.084 0.152,0.252 0.069,0.374Z" style="fill:#7ccade;"/><path d="M18.916,19.169c-0.084,0.121 -0.252,0.152 -0.374,0.069c-0.122,-0.084 -0.153,-0.252 -0.069,-0.374c0.083,-0.121 0.251,-0.153 0.374,-0.069c0.121,0.083 0.152,0.251 0.069,0.374Z" style="fill:#c7beb0;"/><path d="M16.355,43.907c0.149,0.012 0.26,0.141 0.248,0.289c-0.012,0.148 -0.141,0.258 -0.289,0.247c-0.148,-0.012 -0.258,-0.141 -0.247,-0.29c0.012,-0.147 0.141,-0.258 0.288,-0.246Z" style="fill:#deb87c;"/><path d="M16.355,43.907c0.149,0.012 0.26,0.141 0.248,0.289c-0.012,0.148 -0.141,0.258 -0.289,0.247c-0.148,-0.012 -0.258,-0.141 -0.247,-0.29c0.012,-0.147 0.141,-0.258 0.288,-0.246Z" style="fill:#deb87c;"/><path d="M15.075,36.607c0.148,0.012 0.258,0.141 0.247,0.288c-0.012,0.148 -0.142,0.258 -0.289,0.247c-0.147,-0.011 -0.258,-0.142 -0.246,-0.289c0.011,-0.147 0.14,-0.258 0.288,-0.246Z" style="fill:#deb87c;"/><path d="M7.909,40.899c0.148,0.01 0.258,0.14 0.247,0.288c-0.012,0.148 -0.142,0.258 -0.289,0.246c-0.147,-0.01 -0.258,-0.141 -0.246,-0.288c0.011,-0.149 0.14,-0.258 0.288,-0.246Z" style="fill:#deb87c;"/><path d="M8.492,54.731c-0.083,0.121 -0.251,0.152 -0.374,0.069c-0.121,-0.085 -0.152,-0.252 -0.069,-0.374c0.084,-0.122 0.252,-0.153 0.374,-0.069c0.121,0.083 0.153,0.251 0.069,0.374Z" style="fill:#a37836;"/><path d="M20.602,26.335c-0.085,0.121 -0.252,0.152 -0.374,0.069c-0.122,-0.084 -0.153,-0.252 -0.069,-0.374c0.083,-0.121 0.251,-0.153 0.373,-0.069c0.122,0.083 0.153,0.251 0.07,0.374Z" style="fill:#deb87c;"/><path d="M42.811,49.884c-0.083,0.121 -0.251,0.153 -0.374,0.069c-0.121,-0.083 -0.152,-0.251 -0.069,-0.374c0.085,-0.121 0.252,-0.152 0.374,-0.069c0.122,0.084 0.153,0.252 0.069,0.374Z" style="fill:#c8c4bd;"/><path d="M22.173,58.639c-0.084,0.121 -0.252,0.153 -0.374,0.069c-0.121,-0.084 -0.153,-0.251 -0.069,-0.374c0.083,-0.121 0.251,-0.152 0.374,-0.069c0.121,0.084 0.152,0.252 0.069,0.374Z" style="fill:#f5efe6;"/><path d="M10.073,25.484c-0.122,-0.085 -0.153,-0.252 -0.069,-0.374c0.083,-0.121 0.251,-0.152 0.374,-0.069c0.121,0.083 0.152,0.251 0.069,0.374c-0.084,0.121 -0.252,0.152 -0.374,0.069Z" style="fill:#deb87c;"/><path d="M19.845,14.245c-0.122,-0.083 -0.153,-0.251 -0.07,-0.374c0.084,-0.121 0.252,-0.152 0.374,-0.069c0.122,0.085 0.153,0.251 0.069,0.374c-0.083,0.121 -0.251,0.152 -0.373,0.069Z" style="fill:#7ccade;"/><path d="M20.245,15.595c-0.012,0.147 -0.141,0.258 -0.29,0.246c-0.147,-0.012 -0.258,-0.141 -0.246,-0.289c0.012,-0.147 0.141,-0.258 0.289,-0.246c0.148,0.011 0.258,0.14 0.247,0.289Z" style="fill:#deb87c;"/><path d="M20.245,15.595c-0.012,0.147 -0.141,0.258 -0.29,0.246c-0.147,-0.012 -0.258,-0.141 -0.246,-0.289c0.012,-0.147 0.141,-0.258 0.289,-0.246c0.148,0.011 0.258,0.14 0.247,0.289Z" style="fill:#deb87c;"/><path d="M9.421,7.73c-0.121,-0.083 -0.152,-0.251 -0.069,-0.374c0.084,-0.121 0.252,-0.152 0.374,-0.069c0.121,0.085 0.153,0.252 0.069,0.374c-0.083,0.122 -0.251,0.153 -0.374,0.069Z" style="fill:#a37836;"/><path d="M9.098,9.273c-0.143,0.034 -0.289,-0.056 -0.323,-0.201c-0.034,-0.144 0.056,-0.289 0.201,-0.323c0.144,-0.034 0.289,0.056 0.323,0.201c0.034,0.145 -0.056,0.289 -0.201,0.323Z" style="fill:#deb87c;"/><path d="M6.957,20.739c0.043,-0.142 0.193,-0.222 0.335,-0.18c0.142,0.043 0.223,0.193 0.18,0.335c-0.043,0.142 -0.193,0.223 -0.335,0.18c-0.142,-0.043 -0.221,-0.193 -0.18,-0.335Z" style="fill:#deb87c;"/><path d="M25.975,18.422c0.043,-0.142 0.193,-0.222 0.335,-0.179c0.141,0.043 0.221,0.193 0.178,0.335c-0.041,0.142 -0.191,0.222 -0.333,0.179c-0.142,-0.043 -0.223,-0.193 -0.18,-0.335Z" style="fill:#dfd8cc;"/><path d="M20.699,60.037c0.012,-0.148 0.141,-0.258 0.288,-0.246c0.149,0.01 0.258,0.141 0.248,0.288c-0.012,0.147 -0.142,0.258 -0.289,0.246c-0.148,-0.01 -0.258,-0.14 -0.247,-0.288Z" style="fill:#7cc3de;"/><path d="M30.501,33.232c0.149,-0.001 0.268,0.121 0.267,0.269c0.001,0.149 -0.121,0.268 -0.269,0.267c-0.148,0 -0.268,-0.121 -0.267,-0.269c-0.001,-0.149 0.121,-0.268 0.269,-0.267Z" style="fill:#deb87c;"/><path d="M42,48.376c-0.075,0.128 -0.239,0.171 -0.367,0.097c-0.127,-0.075 -0.171,-0.239 -0.097,-0.368c0.074,-0.127 0.24,-0.17 0.368,-0.096c0.127,0.074 0.171,0.239 0.096,0.367Z" style="fill:#f3f1ef;"/><path d="M6.155,58.525c-0.084,0.121 -0.252,0.152 -0.374,0.069c-0.121,-0.084 -0.153,-0.252 -0.069,-0.374c0.084,-0.121 0.251,-0.153 0.374,-0.069c0.121,0.084 0.152,0.251 0.069,0.374Z" style="fill:#a37836;"/><path d="M7.697,58.848c0.034,0.144 -0.056,0.289 -0.2,0.323c-0.145,0.034 -0.289,-0.056 -0.323,-0.201c-0.034,-0.144 0.056,-0.289 0.2,-0.323c0.145,-0.034 0.29,0.056 0.323,0.201Z" style="fill:#deb87c;"/><path d="M19.163,60.988c-0.142,-0.043 -0.221,-0.192 -0.18,-0.334c0.043,-0.142 0.193,-0.223 0.335,-0.18c0.142,0.043 0.223,0.193 0.18,0.335c-0.043,0.142 -0.193,0.222 -0.335,0.179Z" style="fill:#deb87c;"/><path d="M13.549,42.039c-0.121,-0.084 -0.153,-0.252 -0.069,-0.374c0.084,-0.121 0.251,-0.153 0.374,-0.069c0.121,0.083 0.152,0.251 0.069,0.374c-0.084,0.121 -0.252,0.152 -0.374,0.069Z" style="fill:#a37836;"/><path d="M17.841,31.232c-0.122,-0.083 -0.153,-0.251 -0.069,-0.374c0.083,-0.121 0.251,-0.152 0.374,-0.069c0.121,0.085 0.152,0.252 0.069,0.374c-0.084,0.122 -0.252,0.153 -0.374,0.069Z" style="fill:#c8c4bd;"/><path d="M16.063,38.849c-0.148,-0.01 -0.259,-0.14 -0.247,-0.288c0.012,-0.147 0.141,-0.258 0.289,-0.246c0.147,0.01 0.258,0.141 0.246,0.288c-0.011,0.147 -0.14,0.258 -0.288,0.246Z" style="fill:#a37836;"/><path d="M16.553,40.348c-0.106,0.101 -0.277,0.095 -0.379,-0.012c-0.101,-0.108 -0.096,-0.279 0.012,-0.381c0.108,-0.101 0.279,-0.096 0.38,0.012c0.101,0.108 0.096,0.279 -0.013,0.381Z" style="fill:#deb87c;"/><path d="M11.445,50.579c-0.034,-0.144 0.056,-0.289 0.2,-0.323c0.144,-0.034 0.288,0.056 0.322,0.2c0.035,0.144 -0.055,0.289 -0.199,0.323c-0.145,0.034 -0.289,-0.056 -0.323,-0.2Z" style="fill:#dfd8cc;"/><path d="M13.428,48.944c-0.012,0.149 -0.141,0.26 -0.29,0.248c-0.147,-0.012 -0.258,-0.141 -0.246,-0.289c0.012,-0.148 0.141,-0.258 0.288,-0.247c0.149,0.012 0.259,0.141 0.248,0.288Z" style="fill:#a37836;"/><path d="M1.923,50.632c-0.012,0.147 -0.141,0.258 -0.288,0.246c-0.149,-0.012 -0.259,-0.141 -0.248,-0.289c0.012,-0.148 0.141,-0.258 0.29,-0.247c0.147,0.012 0.258,0.141 0.246,0.29Z" style="fill:#c8c4bd;"/><path d="M17.46,41.948c0.012,-0.149 0.142,-0.26 0.289,-0.248c0.148,0.012 0.258,0.141 0.247,0.289c-0.011,0.148 -0.141,0.258 -0.288,0.247c-0.147,-0.012 -0.258,-0.141 -0.248,-0.288Z" style="fill:#c7beb0;"/><path d="M21.96,32.057c0.149,0.011 0.26,0.141 0.248,0.288c-0.012,0.147 -0.141,0.258 -0.289,0.248c-0.147,-0.012 -0.258,-0.142 -0.246,-0.29c0.011,-0.147 0.14,-0.258 0.287,-0.246Z" style="fill:#deb87c;"/><path d="M9.755,39.701c-0.123,-0.083 -0.153,-0.251 -0.069,-0.374c0.083,-0.121 0.251,-0.152 0.374,-0.069c0.121,0.085 0.152,0.252 0.069,0.374c-0.085,0.121 -0.252,0.153 -0.374,0.069Z" style="fill:#a37836;"/><path d="M9.432,41.244c-0.145,0.034 -0.29,-0.056 -0.323,-0.201c-0.034,-0.144 0.056,-0.289 0.2,-0.323c0.145,-0.034 0.289,0.056 0.323,0.201c0.034,0.145 -0.056,0.289 -0.2,0.323Z" style="fill:#deb87c;"/><path d="M46.243,42.922c0.042,-0.142 0.193,-0.222 0.334,-0.179c0.142,0.043 0.223,0.193 0.18,0.335c-0.042,0.142 -0.192,0.222 -0.334,0.179c-0.142,-0.043 -0.223,-0.193 -0.18,-0.335Z" style="fill:#dfd8cc;"/><path d="M4.441,16.004c-0.083,0.121 -0.251,0.152 -0.374,0.069c-0.121,-0.083 -0.152,-0.252 -0.069,-0.374c0.084,-0.121 0.252,-0.152 0.374,-0.069c0.121,0.083 0.152,0.251 0.069,0.374Z" style="fill:#c7beb0;"/><path d="M3.366,28.068c-0.121,-0.084 -0.152,-0.252 -0.069,-0.374c0.084,-0.121 0.252,-0.153 0.374,-0.069c0.121,0.084 0.153,0.251 0.069,0.374c-0.083,0.121 -0.251,0.152 -0.374,0.069Z" style="fill:#c8c4bd;"/><path d="M21.859,38.176c-0.122,-0.084 -0.152,-0.251 -0.069,-0.374c0.084,-0.122 0.252,-0.153 0.373,-0.069c0.122,0.084 0.154,0.252 0.07,0.373c-0.084,0.122 -0.251,0.154 -0.374,0.07Z" style="fill:#d7592a;"/><path d="M0.359,21.714c-0.122,-0.085 -0.152,-0.252 -0.069,-0.374c0.084,-0.123 0.252,-0.154 0.373,-0.069c0.122,0.083 0.154,0.251 0.07,0.372c-0.084,0.123 -0.251,0.154 -0.374,0.071Z" style="fill:#d7592a;"/><path d="M1.396,34.214c-0.122,-0.085 -0.152,-0.252 -0.069,-0.374c0.083,-0.123 0.252,-0.154 0.373,-0.069c0.122,0.083 0.153,0.251 0.07,0.372c-0.085,0.123 -0.251,0.154 -0.374,0.071Z" style="fill:#d7592a;"/><path d="M5.128,47.714c-0.123,-0.085 -0.153,-0.252 -0.069,-0.374c0.083,-0.123 0.251,-0.154 0.372,-0.069c0.123,0.083 0.154,0.251 0.071,0.372c-0.085,0.123 -0.252,0.154 -0.374,0.071Z" style="fill:#d7592a;"/><path d="M12.859,18.714c-0.122,-0.085 -0.152,-0.252 -0.069,-0.374c0.084,-0.123 0.252,-0.154 0.373,-0.069c0.122,0.083 0.154,0.251 0.07,0.372c-0.084,0.123 -0.251,0.154 -0.374,0.071Z" style="fill:#d7592a;"/><path d="M20.701,34.475c0.295,0.024 0.516,0.283 0.492,0.579c-0.022,0.294 -0.281,0.516 -0.577,0.492c-0.295,-0.022 -0.516,-0.281 -0.493,-0.577c0.023,-0.296 0.282,-0.516 0.578,-0.494Z" style="fill:#baa583;"/><path d="M9.189,29.575c0.149,0.012 0.26,0.141 0.248,0.289c-0.012,0.148 -0.141,0.258 -0.289,0.247c-0.148,-0.012 -0.258,-0.141 -0.247,-0.29c0.012,-0.147 0.141,-0.258 0.288,-0.246Z" style="fill:#deb87c;"/><path d="M9.189,29.575c0.149,0.012 0.26,0.141 0.248,0.289c-0.012,0.148 -0.141,0.258 -0.289,0.247c-0.148,-0.012 -0.258,-0.141 -0.247,-0.29c0.012,-0.147 0.141,-0.258 0.288,-0.246Z" style="fill:#e4971d;"/><path d="M7.909,22.275c0.148,0.012 0.258,0.141 0.247,0.288c-0.012,0.148 -0.142,0.258 -0.289,0.247c-0.147,-0.011 -0.258,-0.142 -0.246,-0.289c0.011,-0.147 0.14,-0.258 0.288,-0.246Z" style="fill:#7cc3de;"/><path d="M0.742,26.567c0.149,0.01 0.258,0.14 0.248,0.288c-0.012,0.148 -0.142,0.258 -0.289,0.246c-0.147,-0.011 -0.258,-0.141 -0.246,-0.288c0.011,-0.149 0.14,-0.258 0.287,-0.246Z" style="fill:#deb87c;"/><path d="M1.326,40.398c-0.083,0.122 -0.251,0.153 -0.374,0.069c-0.121,-0.084 -0.152,-0.251 -0.069,-0.373c0.084,-0.122 0.252,-0.153 0.374,-0.069c0.121,0.083 0.153,0.251 0.069,0.373Z" style="fill:#f3f1ef;"/><path d="M13.436,12.003c-0.085,0.121 -0.252,0.152 -0.374,0.069c-0.122,-0.084 -0.153,-0.252 -0.069,-0.374c0.083,-0.121 0.251,-0.153 0.373,-0.069c0.122,0.083 0.153,0.251 0.07,0.374Z" style="fill:#deb87c;"/><path d="M15.414,44.657c-0.152,0.222 -0.46,0.28 -0.685,0.127c-0.222,-0.155 -0.279,-0.461 -0.126,-0.685c0.153,-0.222 0.46,-0.28 0.685,-0.127c0.222,0.153 0.279,0.461 0.126,0.685Z" style="fill:#7ccade;"/><path d="M18.916,19.169c-0.084,0.121 -0.252,0.152 -0.374,0.069c-0.122,-0.084 -0.153,-0.252 -0.069,-0.374c0.083,-0.121 0.251,-0.153 0.374,-0.069c0.121,0.083 0.152,0.251 0.069,0.374Z" style="fill:#c7beb0;"/><path d="M16.355,43.907c0.149,0.012 0.26,0.141 0.248,0.289c-0.012,0.148 -0.141,0.258 -0.289,0.247c-0.148,-0.012 -0.258,-0.141 -0.247,-0.29c0.012,-0.147 0.141,-0.258 0.288,-0.246Z" style="fill:#deb87c;"/><path d="M16.355,43.907c0.149,0.012 0.26,0.141 0.248,0.289c-0.012,0.148 -0.141,0.258 -0.289,0.247c-0.148,-0.012 -0.258,-0.141 -0.247,-0.29c0.012,-0.147 0.141,-0.258 0.288,-0.246Z" style="fill:#deb87c;"/><path d="M15.075,36.607c0.148,0.012 0.258,0.141 0.247,0.288c-0.012,0.148 -0.142,0.258 -0.289,0.247c-0.147,-0.011 -0.258,-0.142 -0.246,-0.289c0.011,-0.147 0.14,-0.258 0.288,-0.246Z" style="fill:#deb87c;"/><path d="M7.909,40.899c0.148,0.01 0.258,0.14 0.247,0.288c-0.012,0.148 -0.142,0.258 -0.289,0.246c-0.147,-0.01 -0.258,-0.141 -0.246,-0.288c0.011,-0.149 0.14,-0.258 0.288,-0.246Z" style="fill:#deb87c;"/><path d="M8.492,54.731c-0.083,0.121 -0.251,0.152 -0.374,0.069c-0.121,-0.085 -0.152,-0.252 -0.069,-0.374c0.084,-0.122 0.252,-0.153 0.374,-0.069c0.121,0.083 0.153,0.251 0.069,0.374Z" style="fill:#a37836;"/><path d="M20.602,26.335c-0.085,0.121 -0.252,0.152 -0.374,0.069c-0.122,-0.084 -0.153,-0.252 -0.069,-0.374c0.083,-0.121 0.251,-0.153 0.373,-0.069c0.122,0.083 0.153,0.251 0.07,0.374Z" style="fill:#deb87c;"/><path d="M42.811,49.884c-0.083,0.121 -0.251,0.153 -0.374,0.069c-0.121,-0.083 -0.152,-0.251 -0.069,-0.374c0.085,-0.121 0.252,-0.152 0.374,-0.069c0.122,0.084 0.153,0.252 0.069,0.374Z" style="fill:#c8c4bd;"/><path d="M22.173,58.639c-0.084,0.121 -0.252,0.153 -0.374,0.069c-0.121,-0.084 -0.153,-0.251 -0.069,-0.374c0.083,-0.121 0.251,-0.152 0.374,-0.069c0.121,0.084 0.152,0.252 0.069,0.374Z" style="fill:#f5efe6;"/><path d="M10.073,25.484c-0.122,-0.085 -0.153,-0.252 -0.069,-0.374c0.083,-0.121 0.251,-0.152 0.374,-0.069c0.121,0.083 0.152,0.251 0.069,0.374c-0.084,0.121 -0.252,0.152 -0.374,0.069Z" style="fill:#deb87c;"/><path d="M19.845,14.245c-0.122,-0.083 -0.153,-0.251 -0.07,-0.374c0.084,-0.121 0.252,-0.152 0.374,-0.069c0.122,0.085 0.153,0.251 0.069,0.374c-0.083,0.121 -0.251,0.152 -0.373,0.069Z" style="fill:#7ccade;"/><path d="M20.245,15.595c-0.012,0.147 -0.141,0.258 -0.29,0.246c-0.147,-0.012 -0.258,-0.141 -0.246,-0.289c0.012,-0.147 0.141,-0.258 0.289,-0.246c0.148,0.011 0.258,0.14 0.247,0.289Z" style="fill:#deb87c;"/><path d="M20.245,15.595c-0.012,0.147 -0.141,0.258 -0.29,0.246c-0.147,-0.012 -0.258,-0.141 -0.246,-0.289c0.012,-0.147 0.141,-0.258 0.289,-0.246c0.148,0.011 0.258,0.14 0.247,0.289Z" style="fill:#deb87c;"/><path d="M10.079,16.453c-0.121,-0.083 -0.152,-0.251 -0.069,-0.374c0.084,-0.121 0.252,-0.152 0.374,-0.069c0.121,0.085 0.153,0.252 0.069,0.374c-0.083,0.121 -0.251,0.153 -0.374,0.069Z" style="fill:#a37836;"/><path d="M9.098,9.273c-0.143,0.034 -0.289,-0.056 -0.323,-0.201c-0.034,-0.144 0.056,-0.289 0.201,-0.323c0.144,-0.034 0.289,0.056 0.323,0.201c0.034,0.145 -0.056,0.289 -0.201,0.323Z" style="fill:#deb87c;"/><path d="M6.957,20.739c0.043,-0.142 0.193,-0.222 0.335,-0.18c0.142,0.043 0.223,0.193 0.18,0.335c-0.043,0.142 -0.193,0.223 -0.335,0.18c-0.142,-0.043 -0.221,-0.193 -0.18,-0.335Z" style="fill:#deb87c;"/><path d="M2.743,18.691c0.043,-0.142 0.193,-0.222 0.335,-0.179c0.141,0.043 0.222,0.192 0.179,0.334c-0.042,0.142 -0.192,0.223 -0.334,0.18c-0.142,-0.043 -0.223,-0.193 -0.18,-0.335Z" style="fill:#dfd8cc;"/><path d="M20.699,60.037c0.012,-0.148 0.141,-0.258 0.288,-0.246c0.149,0.01 0.258,0.141 0.248,0.288c-0.012,0.147 -0.142,0.258 -0.289,0.246c-0.148,-0.01 -0.258,-0.14 -0.247,-0.288Z" style="fill:#7cc3de;"/><path d="M4.501,37.5c0.149,-0.001 0.268,0.121 0.267,0.269c0.001,0.149 -0.121,0.268 -0.269,0.267c-0.148,0 -0.268,-0.121 -0.267,-0.269c-0.001,-0.149 0.121,-0.268 0.269,-0.267Z" style="fill:#deb87c;"/><path d="M42,48.376c-0.075,0.128 -0.239,0.171 -0.367,0.097c-0.127,-0.075 -0.171,-0.239 -0.097,-0.368c0.074,-0.127 0.24,-0.17 0.368,-0.096c0.127,0.074 0.171,0.239 0.096,0.367Z" style="fill:#f3f1ef;"/><path d="M6.155,58.525c-0.084,0.121 -0.252,0.152 -0.374,0.069c-0.121,-0.084 -0.153,-0.252 -0.069,-0.374c0.084,-0.121 0.251,-0.153 0.374,-0.069c0.121,0.084 0.152,0.251 0.069,0.374Z" style="fill:#a37836;"/><path d="M7.697,58.848c0.034,0.144 -0.056,0.289 -0.2,0.323c-0.145,0.034 -0.289,-0.056 -0.323,-0.201c-0.034,-0.144 0.056,-0.289 0.2,-0.323c0.145,-0.034 0.29,0.056 0.323,0.201Z" style="fill:#deb87c;"/><path d="M19.163,60.988c-0.142,-0.043 -0.221,-0.192 -0.18,-0.334c0.043,-0.142 0.193,-0.223 0.335,-0.18c0.142,0.043 0.223,0.193 0.18,0.335c-0.043,0.142 -0.193,0.222 -0.335,0.179Z" style="fill:#deb87c;"/><path d="M13.549,42.039c-0.121,-0.084 -0.153,-0.252 -0.069,-0.374c0.084,-0.121 0.251,-0.153 0.374,-0.069c0.121,0.083 0.152,0.251 0.069,0.374c-0.084,0.121 -0.252,0.152 -0.374,0.069Z" style="fill:#a37836;"/><path d="M17.841,31.232c-0.122,-0.083 -0.153,-0.251 -0.069,-0.374c0.083,-0.121 0.251,-0.152 0.374,-0.069c0.121,0.085 0.152,0.252 0.069,0.374c-0.084,0.122 -0.252,0.153 -0.374,0.069Z" style="fill:#c8c4bd;"/><path d="M16.063,38.849c-0.148,-0.01 -0.259,-0.14 -0.247,-0.288c0.012,-0.147 0.141,-0.258 0.289,-0.246c0.147,0.01 0.258,0.141 0.246,0.288c-0.011,0.147 -0.14,0.258 -0.288,0.246Z" style="fill:#a37836;"/><path d="M16.553,40.348c-0.106,0.101 -0.277,0.095 -0.379,-0.012c-0.101,-0.108 -0.096,-0.279 0.012,-0.381c0.108,-0.101 0.279,-0.096 0.38,0.012c0.101,0.108 0.096,0.279 -0.013,0.381Z" style="fill:#deb87c;"/><path d="M11.445,50.579c-0.034,-0.144 0.056,-0.289 0.2,-0.323c0.144,-0.034 0.288,0.056 0.322,0.2c0.035,0.144 -0.055,0.289 -0.199,0.323c-0.145,0.034 -0.289,-0.056 -0.323,-0.2Z" style="fill:#dfd8cc;"/><path d="M13.428,48.944c-0.012,0.149 -0.141,0.26 -0.29,0.248c-0.147,-0.012 -0.258,-0.141 -0.246,-0.289c0.012,-0.148 0.141,-0.258 0.288,-0.247c0.149,0.012 0.259,0.141 0.248,0.288Z" style="fill:#a37836;"/><path d="M1.923,50.632c-0.012,0.147 -0.141,0.258 -0.288,0.246c-0.149,-0.012 -0.259,-0.141 -0.248,-0.289c0.012,-0.148 0.141,-0.258 0.29,-0.247c0.147,0.012 0.258,0.141 0.246,0.29Z" style="fill:#c8c4bd;"/><path d="M17.46,41.948c0.012,-0.149 0.142,-0.26 0.289,-0.248c0.148,0.012 0.258,0.141 0.247,0.289c-0.011,0.148 -0.141,0.258 -0.288,0.247c-0.147,-0.012 -0.258,-0.141 -0.248,-0.288Z" style="fill:#c7beb0;"/><path d="M21.96,32.057c0.149,0.011 0.26,0.141 0.248,0.288c-0.012,0.147 -0.141,0.258 -0.289,0.248c-0.147,-0.012 -0.258,-0.142 -0.246,-0.29c0.011,-0.147 0.14,-0.258 0.287,-0.246Z" style="fill:#deb87c;"/><path d="M9.755,39.701c-0.123,-0.083 -0.153,-0.251 -0.069,-0.374c0.083,-0.121 0.251,-0.152 0.374,-0.069c0.121,0.085 0.152,0.252 0.069,0.374c-0.085,0.121 -0.252,0.153 -0.374,0.069Z" style="fill:#a37836;"/><path d="M9.432,41.244c-0.145,0.034 -0.29,-0.056 -0.323,-0.201c-0.034,-0.144 0.056,-0.289 0.2,-0.323c0.145,-0.034 0.289,0.056 0.323,0.201c0.034,0.145 -0.056,0.289 -0.2,0.323Z" style="fill:#deb87c;"/><path d="M1.975,46.191c0.042,-0.142 0.193,-0.222 0.334,-0.179c0.142,0.043 0.222,0.192 0.179,0.334c-0.041,0.142 -0.191,0.223 -0.333,0.18c-0.142,-0.043 -0.223,-0.193 -0.18,-0.335Z" style="fill:#dfd8cc;"/><path d="M4.441,16.004c-0.083,0.121 -0.251,0.152 -0.374,0.069c-0.121,-0.083 -0.152,-0.252 -0.069,-0.374c0.084,-0.121 0.252,-0.152 0.374,-0.069c0.121,0.083 0.152,0.251 0.069,0.374Z" style="fill:#c7beb0;"/><path d="M34.079,21.453c-0.121,-0.084 -0.152,-0.251 -0.069,-0.374c0.084,-0.121 0.252,-0.152 0.374,-0.069c0.121,0.084 0.153,0.252 0.069,0.374c-0.083,0.121 -0.251,0.153 -0.374,0.069Z" style="fill:#deb87c;"/><path d="M3.366,28.068c-0.121,-0.084 -0.152,-0.252 -0.069,-0.374c0.084,-0.121 0.252,-0.153 0.374,-0.069c0.121,0.084 0.153,0.251 0.069,0.374c-0.083,0.121 -0.251,0.152 -0.374,0.069Z" style="fill:#c8c4bd;"/><path d="M21.859,38.176c-0.122,-0.084 -0.152,-0.251 -0.069,-0.374c0.084,-0.122 0.252,-0.153 0.373,-0.069c0.122,0.084 0.154,0.252 0.07,0.373c-0.084,0.122 -0.251,0.154 -0.374,0.07Z" style="fill:#d7592a;"/><path d="M0.359,21.714c-0.122,-0.085 -0.152,-0.252 -0.069,-0.374c0.084,-0.123 0.252,-0.154 0.373,-0.069c0.122,0.083 0.154,0.251 0.07,0.372c-0.084,0.123 -0.251,0.154 -0.374,0.071Z" style="fill:#d7592a;"/><path d="M1.396,34.214c-0.122,-0.085 -0.152,-0.252 -0.069,-0.374c0.083,-0.123 0.252,-0.154 0.373,-0.069c0.122,0.083 0.153,0.251 0.07,0.372c-0.085,0.123 -0.251,0.154 -0.374,0.071Z" style="fill:#d7592a;"/><path d="M5.128,47.714c-0.123,-0.085 -0.153,-0.252 -0.069,-0.374c0.083,-0.123 0.251,-0.154 0.372,-0.069c0.123,0.083 0.154,0.251 0.071,0.372c-0.085,0.123 -0.252,0.154 -0.374,0.071Z" style="fill:#d7592a;"/><path d="M24.013,9.513c-0.127,-0.074 -0.171,-0.239 -0.097,-0.368c0.074,-0.127 0.24,-0.17 0.368,-0.096c0.127,0.074 0.171,0.239 0.097,0.368c-0.075,0.127 -0.24,0.17 -0.368,0.096Z" style="fill:#deb87c;"/><path d="M46.062,10.001c-0.011,0.148 -0.141,0.258 -0.288,0.247c-0.149,-0.012 -0.258,-0.142 -0.246,-0.289c0.01,-0.147 0.14,-0.258 0.288,-0.246c0.148,0.011 0.258,0.14 0.246,0.288Z" style="fill:#deb87c;"/><path d="M57.049,8.816c0.142,0.043 0.223,0.193 0.18,0.335c-0.043,0.141 -0.193,0.222 -0.335,0.179c-0.142,-0.042 -0.223,-0.192 -0.18,-0.334c0.043,-0.142 0.193,-0.223 0.335,-0.18Z" style="fill:#dfd8cc;"/><path d="M32.75,6.36c0.085,-0.122 0.251,-0.152 0.374,-0.069c0.122,0.084 0.154,0.252 0.069,0.373c-0.083,0.122 -0.251,0.154 -0.373,0.07c-0.122,-0.084 -0.153,-0.251 -0.07,-0.374Z" style="fill:#d7592a;"/><path d="M38.666,9.702c-0.012,0.148 -0.141,0.259 -0.29,0.247c-0.147,-0.011 -0.258,-0.14 -0.246,-0.289c0.012,-0.147 0.141,-0.258 0.289,-0.246c0.148,0.012 0.258,0.141 0.247,0.288Z" style="fill:#deb87c;"/><path d="M38.666,9.702c-0.012,0.148 -0.141,0.259 -0.29,0.247c-0.147,-0.011 -0.258,-0.14 -0.246,-0.289c0.012,-0.147 0.141,-0.258 0.289,-0.246c0.148,0.012 0.258,0.141 0.247,0.288Z" style="fill:#e4971d;"/><path d="M45.966,8.421c-0.012,0.149 -0.141,0.258 -0.288,0.248c-0.149,-0.012 -0.258,-0.142 -0.248,-0.29c0.012,-0.147 0.142,-0.258 0.29,-0.246c0.147,0.012 0.258,0.141 0.246,0.288Z" style="fill:#7cc3de;"/><path d="M41.674,1.255c-0.01,0.149 -0.141,0.258 -0.288,0.248c-0.149,-0.012 -0.258,-0.142 -0.246,-0.29c0.01,-0.147 0.14,-0.258 0.288,-0.246c0.148,0.012 0.258,0.141 0.246,0.288Z" style="fill:#deb87c;"/><path d="M27.842,1.839c-0.121,-0.084 -0.152,-0.252 -0.069,-0.374c0.085,-0.121 0.252,-0.153 0.374,-0.069c0.121,0.083 0.153,0.251 0.069,0.374c-0.083,0.121 -0.251,0.152 -0.374,0.069Z" style="fill:#f3f1ef;"/><path d="M27.342,8.421c-0.011,0.149 -0.141,0.258 -0.288,0.248c-0.149,-0.012 -0.258,-0.142 -0.246,-0.29c0.01,-0.147 0.14,-0.258 0.288,-0.246c0.148,0.012 0.258,0.141 0.246,0.288Z" style="fill:#deb87c;"/><path d="M13.51,9.005c-0.121,-0.084 -0.152,-0.252 -0.069,-0.374c0.085,-0.121 0.252,-0.153 0.374,-0.069c0.121,0.083 0.152,0.251 0.069,0.374c-0.083,0.121 -0.251,0.152 -0.374,0.069Z" style="fill:#a37836;"/><path d="M12.116,5.632c-0.121,-0.083 -0.153,-0.251 -0.069,-0.374c0.083,-0.121 0.251,-0.152 0.374,-0.069c0.121,0.085 0.152,0.252 0.069,0.374c-0.084,0.121 -0.252,0.153 -0.374,0.069Z" style="fill:#c8c4bd;"/><path d="M42.757,10.585c0.084,-0.121 0.251,-0.152 0.374,-0.069c0.121,0.084 0.152,0.252 0.069,0.374c-0.084,0.121 -0.252,0.153 -0.374,0.069c-0.121,-0.083 -0.153,-0.251 -0.069,-0.374Z" style="fill:#deb87c;"/><path d="M60.51,9.934c0.084,-0.121 0.252,-0.153 0.374,-0.069c0.121,0.083 0.153,0.251 0.069,0.374c-0.084,0.121 -0.251,0.152 -0.374,0.069c-0.121,-0.084 -0.152,-0.252 -0.069,-0.374Z" style="fill:#a37836;"/><path d="M58.968,9.611c-0.034,-0.144 0.056,-0.29 0.2,-0.323c0.145,-0.034 0.29,0.056 0.323,0.2c0.034,0.145 -0.056,0.289 -0.2,0.323c-0.145,0.034 -0.29,-0.056 -0.323,-0.2Z" style="fill:#deb87c;"/><path d="M47.502,7.47c0.142,0.043 0.221,0.193 0.18,0.335c-0.043,0.142 -0.193,0.223 -0.335,0.18c-0.142,-0.043 -0.223,-0.193 -0.18,-0.335c0.043,-0.142 0.193,-0.222 0.335,-0.18Z" style="fill:#deb87c;"/><path d="M55.078,1.975c0.142,0.043 0.222,0.193 0.179,0.335c-0.043,0.141 -0.193,0.221 -0.335,0.178c-0.142,-0.041 -0.222,-0.191 -0.179,-0.333c0.043,-0.142 0.193,-0.223 0.335,-0.18Z" style="fill:#dfd8cc;"/><path d="M48.268,25.733c0.001,0.149 -0.121,0.268 -0.269,0.267c-0.149,0.001 -0.268,-0.121 -0.267,-0.269c-0,-0.148 0.121,-0.268 0.269,-0.267c0.149,-0 0.268,0.121 0.267,0.269Z" style="fill:#deb87c;"/><path d="M13.624,4.821c-0.128,-0.075 -0.171,-0.239 -0.097,-0.367c0.075,-0.128 0.239,-0.171 0.368,-0.097c0.127,0.074 0.17,0.24 0.096,0.368c-0.074,0.127 -0.239,0.17 -0.367,0.096Z" style="fill:#f3f1ef;"/><path d="M9.579,3.721c-0.121,-0.083 -0.152,-0.251 -0.069,-0.373c0.084,-0.122 0.252,-0.153 0.374,-0.069c0.121,0.084 0.153,0.251 0.069,0.373c-0.084,0.122 -0.251,0.153 -0.374,0.069Z" style="fill:#a37836;"/><path d="M32.83,11.993c-0.144,0.034 -0.289,-0.056 -0.323,-0.201c-0.034,-0.144 0.056,-0.289 0.201,-0.323c0.144,-0.034 0.289,0.056 0.323,0.201c0.034,0.144 -0.056,0.289 -0.201,0.323Z" style="fill:#deb87c;"/><path d="M17.661,11.957c0.145,-0.034 0.289,0.056 0.323,0.201c0.034,0.143 -0.056,0.288 -0.199,0.322c-0.145,0.035 -0.289,-0.055 -0.323,-0.2c-0.034,-0.144 0.056,-0.289 0.199,-0.323Z" style="fill:#dfd8cc;"/><path d="M17.609,2.436c-0.147,-0.012 -0.258,-0.141 -0.246,-0.288c0.012,-0.149 0.141,-0.26 0.289,-0.248c0.147,0.012 0.258,0.141 0.246,0.289c-0.011,0.148 -0.14,0.258 -0.289,0.247Z" style="fill:#c8c4bd;"/><path d="M28.539,10.267c0.084,-0.122 0.252,-0.152 0.374,-0.069c0.121,0.084 0.153,0.252 0.069,0.374c-0.084,0.121 -0.251,0.153 -0.374,0.069c-0.121,-0.084 -0.152,-0.251 -0.069,-0.374Z" style="fill:#a37836;"/><path d="M26.997,9.944c-0.034,-0.144 0.056,-0.289 0.2,-0.323c0.145,-0.034 0.29,0.056 0.323,0.201c0.034,0.144 -0.056,0.289 -0.2,0.323c-0.145,0.034 -0.29,-0.056 -0.323,-0.201Z" style="fill:#deb87c;"/><path d="M20.69,0.404c0.143,0.042 0.223,0.193 0.18,0.334c-0.043,0.142 -0.193,0.223 -0.335,0.18c-0.142,-0.042 -0.222,-0.192 -0.179,-0.334c0.043,-0.142 0.192,-0.223 0.334,-0.18Z" style="fill:#dfd8cc;"/><path d="M52.237,4.954c-0.121,-0.084 -0.153,-0.252 -0.069,-0.374c0.083,-0.121 0.251,-0.153 0.374,-0.069c0.121,0.083 0.152,0.251 0.069,0.374c-0.084,0.121 -0.252,0.152 -0.374,0.069Z" style="fill:#c7beb0;"/><path d="M64.779,24.579c0.084,-0.121 0.251,-0.152 0.373,-0.069c0.122,0.084 0.153,0.252 0.069,0.374c-0.083,0.121 -0.251,0.153 -0.373,0.069c-0.122,-0.083 -0.153,-0.251 -0.069,-0.374Z" style="fill:#deb87c;"/><path d="M40.173,3.879c0.083,-0.121 0.251,-0.153 0.374,-0.069c0.121,0.083 0.152,0.251 0.069,0.374c-0.085,0.121 -0.251,0.152 -0.374,0.069c-0.121,-0.084 -0.152,-0.252 -0.069,-0.374Z" style="fill:#c8c4bd;"/><path d="M46.527,0.872c0.085,-0.122 0.251,-0.152 0.374,-0.069c0.122,0.083 0.154,0.251 0.069,0.373c-0.083,0.122 -0.252,0.153 -0.373,0.07c-0.122,-0.085 -0.153,-0.252 -0.07,-0.374Z" style="fill:#d7592a;"/><path d="M34.027,1.909c0.085,-0.123 0.251,-0.153 0.374,-0.069c0.122,0.083 0.154,0.251 0.069,0.372c-0.083,0.123 -0.252,0.154 -0.373,0.071c-0.122,-0.085 -0.153,-0.252 -0.07,-0.374Z" style="fill:#d7592a;"/><path d="M20.527,5.64c0.085,-0.122 0.251,-0.152 0.374,-0.069c0.122,0.084 0.154,0.252 0.069,0.373c-0.083,0.122 -0.252,0.154 -0.373,0.07c-0.122,-0.084 -0.153,-0.251 -0.07,-0.374Z" style="fill:#d7592a;"/><path d="M38.666,9.702c-0.012,0.148 -0.141,0.259 -0.29,0.247c-0.147,-0.011 -0.258,-0.14 -0.246,-0.289c0.012,-0.147 0.141,-0.258 0.289,-0.246c0.148,0.012 0.258,0.141 0.247,0.288Z" style="fill:#deb87c;"/><path d="M38.666,9.702c-0.012,0.148 -0.141,0.259 -0.29,0.247c-0.147,-0.011 -0.258,-0.14 -0.246,-0.289c0.012,-0.147 0.141,-0.258 0.289,-0.246c0.148,0.012 0.258,0.141 0.247,0.288Z" style="fill:#e4971d;"/><path d="M45.966,8.421c-0.012,0.149 -0.141,0.258 -0.288,0.248c-0.149,-0.012 -0.258,-0.142 -0.248,-0.29c0.012,-0.147 0.142,-0.258 0.29,-0.246c0.147,0.012 0.258,0.141 0.246,0.288Z" style="fill:#7cc3de;"/><path d="M41.674,1.255c-0.01,0.149 -0.141,0.258 -0.288,0.248c-0.149,-0.012 -0.258,-0.142 -0.246,-0.29c0.01,-0.147 0.14,-0.258 0.288,-0.246c0.148,0.012 0.258,0.141 0.246,0.288Z" style="fill:#deb87c;"/><path d="M27.842,1.839c-0.121,-0.084 -0.152,-0.252 -0.069,-0.374c0.085,-0.121 0.252,-0.153 0.374,-0.069c0.121,0.083 0.153,0.251 0.069,0.374c-0.083,0.121 -0.251,0.152 -0.374,0.069Z" style="fill:#f3f1ef;"/><path d="M27.342,8.421c-0.011,0.149 -0.141,0.258 -0.288,0.248c-0.149,-0.012 -0.258,-0.142 -0.246,-0.29c0.01,-0.147 0.14,-0.258 0.288,-0.246c0.148,0.012 0.258,0.141 0.246,0.288Z" style="fill:#deb87c;"/><path d="M13.51,9.005c-0.121,-0.084 -0.152,-0.252 -0.069,-0.374c0.085,-0.121 0.252,-0.153 0.374,-0.069c0.121,0.083 0.152,0.251 0.069,0.374c-0.083,0.121 -0.251,0.152 -0.374,0.069Z" style="fill:#a37836;"/><path d="M11.332,5.545c-0.347,-0.239 -0.437,-0.72 -0.198,-1.071c0.239,-0.347 0.72,-0.436 1.071,-0.198c0.347,0.243 0.436,0.721 0.198,1.071c-0.239,0.347 -0.721,0.437 -1.071,0.198Z" style="fill:#c8c4bd;"/><path d="M42.757,10.585c0.084,-0.121 0.251,-0.152 0.374,-0.069c0.121,0.084 0.152,0.252 0.069,0.374c-0.084,0.121 -0.252,0.153 -0.374,0.069c-0.121,-0.083 -0.153,-0.251 -0.069,-0.374Z" style="fill:#deb87c;"/><path d="M60.51,9.934c0.084,-0.121 0.252,-0.153 0.374,-0.069c0.121,0.083 0.153,0.251 0.069,0.374c-0.084,0.121 -0.251,0.152 -0.374,0.069c-0.121,-0.084 -0.152,-0.252 -0.069,-0.374Z" style="fill:#a37836;"/><path d="M58.968,9.611c-0.034,-0.144 0.056,-0.29 0.2,-0.323c0.145,-0.034 0.29,0.056 0.323,0.2c0.034,0.145 -0.056,0.289 -0.2,0.323c-0.145,0.034 -0.29,-0.056 -0.323,-0.2Z" style="fill:#deb87c;"/><path d="M47.502,7.47c0.142,0.043 0.221,0.193 0.18,0.335c-0.043,0.142 -0.193,0.223 -0.335,0.18c-0.142,-0.043 -0.223,-0.193 -0.18,-0.335c0.043,-0.142 0.193,-0.222 0.335,-0.18Z" style="fill:#deb87c;"/><path d="M52.846,1.475c0.142,0.043 0.223,0.193 0.18,0.335c-0.043,0.141 -0.193,0.221 -0.335,0.178c-0.142,-0.041 -0.222,-0.191 -0.179,-0.333c0.043,-0.142 0.192,-0.223 0.334,-0.18Z" style="fill:#dfd8cc;"/><path d="M34.268,14.733c0.001,0.149 -0.121,0.268 -0.269,0.267c-0.149,0.001 -0.268,-0.121 -0.267,-0.269c-0,-0.148 0.121,-0.268 0.269,-0.267c0.149,-0 0.268,0.121 0.267,0.269Z" style="fill:#deb87c;"/><path d="M13.624,4.821c-0.128,-0.075 -0.171,-0.239 -0.097,-0.367c0.075,-0.128 0.239,-0.171 0.368,-0.097c0.127,0.074 0.17,0.24 0.096,0.368c-0.074,0.127 -0.239,0.17 -0.367,0.096Z" style="fill:#f3f1ef;"/><path d="M6.348,5.721c-0.122,-0.083 -0.153,-0.251 -0.069,-0.373c0.083,-0.122 0.251,-0.153 0.373,-0.069c0.122,0.084 0.153,0.251 0.069,0.373c-0.084,0.122 -0.251,0.153 -0.373,0.069Z" style="fill:#a37836;"/><path d="M3.792,10.493c-0.144,0.034 -0.289,-0.056 -0.323,-0.201c-0.034,-0.144 0.056,-0.289 0.201,-0.323c0.144,-0.034 0.289,0.056 0.323,0.201c0.034,0.144 -0.056,0.289 -0.201,0.323Z" style="fill:#deb87c;"/><path d="M17.661,11.957c0.145,-0.034 0.289,0.056 0.323,0.201c0.034,0.143 -0.056,0.288 -0.199,0.322c-0.145,0.035 -0.289,-0.055 -0.323,-0.2c-0.034,-0.144 0.056,-0.289 0.199,-0.323Z" style="fill:#dfd8cc;"/><path d="M17.609,2.436c-0.147,-0.012 -0.258,-0.141 -0.246,-0.288c0.012,-0.149 0.141,-0.26 0.289,-0.248c0.147,0.012 0.258,0.141 0.246,0.289c-0.011,0.148 -0.14,0.258 -0.289,0.247Z" style="fill:#c8c4bd;"/><path d="M28.539,10.267c0.084,-0.122 0.252,-0.152 0.374,-0.069c0.121,0.084 0.153,0.252 0.069,0.374c-0.084,0.121 -0.251,0.153 -0.374,0.069c-0.121,-0.084 -0.152,-0.251 -0.069,-0.374Z" style="fill:#a37836;"/><path d="M26.997,9.944c-0.034,-0.144 0.056,-0.289 0.2,-0.323c0.145,-0.034 0.29,0.056 0.323,0.201c0.034,0.144 -0.056,0.289 -0.2,0.323c-0.145,0.034 -0.29,-0.056 -0.323,-0.201Z" style="fill:#deb87c;"/><path d="M20.69,0.404c0.143,0.042 0.223,0.193 0.18,0.334c-0.043,0.142 -0.193,0.223 -0.335,0.18c-0.142,-0.042 -0.222,-0.192 -0.179,-0.334c0.043,-0.142 0.192,-0.223 0.334,-0.18Z" style="fill:#dfd8cc;"/><path d="M52.237,4.954c-0.121,-0.084 -0.153,-0.252 -0.069,-0.374c0.083,-0.121 0.251,-0.153 0.374,-0.069c0.121,0.083 0.152,0.251 0.069,0.374c-0.084,0.121 -0.252,0.152 -0.374,0.069Z" style="fill:#c7beb0;"/><path d="M37.047,24.848c0.084,-0.122 0.251,-0.153 0.374,-0.069c0.121,0.083 0.152,0.251 0.069,0.373c-0.084,0.122 -0.252,0.153 -0.374,0.069c-0.121,-0.083 -0.153,-0.251 -0.069,-0.373Z" style="fill:#deb87c;"/><path d="M40.173,3.879c0.083,-0.121 0.251,-0.153 0.374,-0.069c0.121,0.083 0.152,0.251 0.069,0.374c-0.085,0.121 -0.251,0.152 -0.374,0.069c-0.121,-0.084 -0.152,-0.252 -0.069,-0.374Z" style="fill:#c8c4bd;"/><path d="M46.527,0.872c0.085,-0.122 0.251,-0.152 0.374,-0.069c0.122,0.083 0.154,0.251 0.069,0.373c-0.083,0.122 -0.252,0.153 -0.373,0.07c-0.122,-0.085 -0.153,-0.252 -0.07,-0.374Z" style="fill:#d7592a;"/><path d="M34.085,2.054c0.191,-0.276 0.566,-0.343 0.841,-0.155c0.276,0.187 0.346,0.565 0.156,0.838c-0.188,0.275 -0.566,0.346 -0.838,0.158c-0.276,-0.19 -0.346,-0.566 -0.159,-0.841Z" style="fill:#d7592a;"/><path d="M20.527,5.64c0.085,-0.122 0.251,-0.152 0.374,-0.069c0.122,0.084 0.154,0.252 0.069,0.373c-0.083,0.122 -0.252,0.154 -0.373,0.07c-0.122,-0.084 -0.153,-0.251 -0.07,-0.374Z" style="fill:#d7592a;"/><path d="M12.859,18.714c-0.122,-0.085 -0.152,-0.252 -0.069,-0.374c0.084,-0.123 0.252,-0.154 0.373,-0.069c0.122,0.083 0.154,0.251 0.07,0.372c-0.084,0.123 -0.251,0.154 -0.374,0.071Z" style="fill:#d7592a;"/><path d="M93.116,45.722c-0.122,-0.085 -0.152,-0.251 -0.069,-0.374c0.083,-0.122 0.252,-0.154 0.373,-0.069c0.122,0.083 0.153,0.251 0.07,0.373c-0.085,0.122 -0.251,0.153 -0.374,0.07Z" style="fill:#d7592a;"/><path d="M64.267,13.805c-0.123,-0.083 -0.154,-0.25 -0.069,-0.373c0.083,-0.122 0.25,-0.153 0.373,-0.069c0.122,0.084 0.153,0.25 0.069,0.373c-0.084,0.122 -0.251,0.154 -0.373,0.069Z" style="fill:#7cc5de;"/><path d="M50.276,46.05c0.649,0.051 1.138,0.621 1.085,1.272c-0.05,0.651 -0.62,1.138 -1.272,1.086c-0.651,-0.051 -1.138,-0.621 -1.085,-1.272c0.05,-0.649 0.62,-1.138 1.272,-1.086Z" style="fill:#deb87c;"/><path d="M80.987,2.487c0.127,0.074 0.171,0.239 0.097,0.368c-0.074,0.127 -0.24,0.17 -0.368,0.096c-0.127,-0.074 -0.171,-0.239 -0.097,-0.368c0.075,-0.127 0.24,-0.17 0.368,-0.096Z" style="fill:#deb87c;"/><path d="M58.938,1.999c0.011,-0.148 0.141,-0.258 0.288,-0.247c0.149,0.012 0.258,0.142 0.246,0.289c-0.01,0.147 -0.14,0.258 -0.288,0.246c-0.148,-0.011 -0.258,-0.14 -0.246,-0.288Z" style="fill:#deb87c;"/><path d="M47.951,3.184c-0.142,-0.043 -0.223,-0.193 -0.18,-0.335c0.043,-0.141 0.193,-0.222 0.335,-0.179c0.142,0.042 0.223,0.192 0.18,0.334c-0.043,0.142 -0.193,0.223 -0.335,0.18Z" style="fill:#dfd8cc;"/><path d="M72.25,5.64c-0.085,0.122 -0.251,0.152 -0.374,0.069c-0.122,-0.084 -0.154,-0.252 -0.069,-0.373c0.083,-0.122 0.251,-0.154 0.373,-0.07c0.122,0.084 0.153,0.251 0.07,0.374Z" style="fill:#d7592a;"/><path d="M66.334,2.298c0.012,-0.148 0.141,-0.259 0.29,-0.247c0.147,0.011 0.258,0.14 0.246,0.289c-0.012,0.147 -0.141,0.258 -0.289,0.246c-0.148,-0.012 -0.258,-0.141 -0.247,-0.288Z" style="fill:#deb87c;"/><path d="M66.334,2.298c0.012,-0.148 0.141,-0.259 0.29,-0.247c0.147,0.011 0.258,0.14 0.246,0.289c-0.012,0.147 -0.141,0.258 -0.289,0.246c-0.148,-0.012 -0.258,-0.141 -0.247,-0.288Z" style="fill:#e4971d;"/><path d="M59.034,3.579c0.012,-0.149 0.141,-0.258 0.288,-0.248c0.149,0.012 0.258,0.142 0.248,0.29c-0.012,0.147 -0.142,0.258 -0.29,0.246c-0.147,-0.012 -0.258,-0.141 -0.246,-0.288Z" style="fill:#7cc3de;"/><path d="M63.326,10.745c0.01,-0.149 0.141,-0.258 0.288,-0.248c0.149,0.012 0.258,0.142 0.246,0.29c-0.01,0.147 -0.14,0.258 -0.288,0.246c-0.148,-0.012 -0.258,-0.141 -0.246,-0.288Z" style="fill:#deb87c;"/><path d="M77.158,10.161c0.121,0.084 0.152,0.252 0.069,0.374c-0.085,0.121 -0.252,0.153 -0.374,0.069c-0.121,-0.083 -0.153,-0.251 -0.069,-0.374c0.083,-0.121 0.251,-0.152 0.374,-0.069Z" style="fill:#f3f1ef;"/><path d="M77.658,3.579c0.011,-0.149 0.141,-0.258 0.288,-0.248c0.149,0.012 0.258,0.142 0.246,0.29c-0.01,0.147 -0.14,0.258 -0.288,0.246c-0.148,-0.012 -0.258,-0.141 -0.246,-0.288Z" style="fill:#deb87c;"/><path d="M91.49,2.995c0.121,0.084 0.152,0.252 0.069,0.374c-0.085,0.121 -0.252,0.153 -0.374,0.069c-0.121,-0.083 -0.152,-0.251 -0.069,-0.374c0.083,-0.121 0.251,-0.152 0.374,-0.069Z" style="fill:#a37836;"/><path d="M87.198,13.802c0.121,0.083 0.153,0.251 0.069,0.373c-0.083,0.122 -0.251,0.153 -0.374,0.07c-0.121,-0.085 -0.152,-0.252 -0.069,-0.374c0.084,-0.122 0.252,-0.153 0.374,-0.069Z" style="fill:#c8c4bd;"/><path d="M62.243,1.415c-0.084,0.121 -0.251,0.152 -0.374,0.069c-0.121,-0.084 -0.152,-0.252 -0.069,-0.374c0.084,-0.121 0.252,-0.153 0.374,-0.069c0.121,0.083 0.153,0.251 0.069,0.374Z" style="fill:#deb87c;"/><path d="M44.49,2.066c-0.084,0.121 -0.252,0.153 -0.374,0.069c-0.121,-0.083 -0.153,-0.251 -0.069,-0.374c0.084,-0.121 0.251,-0.152 0.374,-0.069c0.121,0.084 0.152,0.252 0.069,0.374Z" style="fill:#a37836;"/><path d="M46.032,2.389c0.034,0.144 -0.056,0.29 -0.2,0.323c-0.145,0.034 -0.29,-0.056 -0.323,-0.2c-0.034,-0.145 0.056,-0.289 0.2,-0.323c0.145,-0.034 0.29,0.056 0.323,0.2Z" style="fill:#deb87c;"/><path d="M57.498,4.53c-0.142,-0.043 -0.221,-0.193 -0.18,-0.335c0.043,-0.142 0.193,-0.223 0.335,-0.18c0.142,0.043 0.223,0.193 0.18,0.335c-0.043,0.142 -0.193,0.222 -0.335,0.18Z" style="fill:#deb87c;"/><path d="M52.339,11.929c-0.142,-0.043 -0.223,-0.193 -0.18,-0.335c0.043,-0.14 0.193,-0.221 0.335,-0.178c0.142,0.042 0.222,0.191 0.179,0.333c-0.043,0.142 -0.192,0.223 -0.334,0.18Z" style="fill:#dfd8cc;"/><path d="M71.94,16.218c-0.001,-0.148 0.121,-0.267 0.269,-0.266c0.149,-0.001 0.267,0.121 0.267,0.268c0,0.148 -0.122,0.268 -0.269,0.267c-0.149,0.001 -0.268,-0.121 -0.267,-0.269Z" style="fill:#deb87c;"/><path d="M85.69,14.612c0.127,0.076 0.171,0.24 0.097,0.368c-0.076,0.127 -0.24,0.171 -0.368,0.097c-0.127,-0.074 -0.171,-0.24 -0.096,-0.368c0.074,-0.127 0.239,-0.171 0.367,-0.097Z" style="fill:#f3f1ef;"/><path d="M95.284,5.333c0.121,0.083 0.152,0.251 0.069,0.374c-0.083,0.121 -0.251,0.152 -0.374,0.069c-0.121,-0.085 -0.152,-0.252 -0.069,-0.374c0.085,-0.122 0.252,-0.153 0.374,-0.069Z" style="fill:#a37836;"/><path d="M95.607,3.79c0.145,-0.034 0.289,0.056 0.323,0.201c0.034,0.144 -0.056,0.289 -0.2,0.323c-0.145,0.034 -0.29,-0.056 -0.324,-0.201c-0.033,-0.145 0.056,-0.289 0.201,-0.323Z" style="fill:#deb87c;"/><path d="M84.794,2.761c-0.145,0.034 -0.29,-0.056 -0.324,-0.2c-0.033,-0.143 0.056,-0.288 0.2,-0.322c0.144,-0.035 0.289,0.055 0.323,0.199c0.034,0.145 -0.056,0.29 -0.199,0.323Z" style="fill:#dfd8cc;"/><path d="M87.391,9.564c0.147,0.012 0.258,0.141 0.246,0.288c-0.012,0.149 -0.141,0.26 -0.289,0.248c-0.147,-0.012 -0.258,-0.141 -0.246,-0.289c0.011,-0.148 0.14,-0.258 0.289,-0.247Z" style="fill:#c8c4bd;"/><path d="M76.461,1.733c-0.084,0.122 -0.252,0.152 -0.374,0.069c-0.121,-0.084 -0.153,-0.252 -0.069,-0.374c0.084,-0.121 0.251,-0.153 0.374,-0.069c0.121,0.084 0.152,0.251 0.069,0.374Z" style="fill:#a37836;"/><path d="M78.003,2.056c0.034,0.144 -0.056,0.289 -0.2,0.323c-0.145,0.034 -0.29,-0.056 -0.323,-0.201c-0.034,-0.144 0.056,-0.289 0.2,-0.323c0.145,-0.034 0.29,0.056 0.323,0.201Z" style="fill:#deb87c;"/><path d="M84.31,11.596c-0.143,-0.042 -0.223,-0.193 -0.18,-0.334c0.043,-0.142 0.193,-0.223 0.335,-0.18c0.142,0.042 0.222,0.192 0.179,0.334c-0.043,0.142 -0.192,0.223 -0.334,0.18Z" style="fill:#dfd8cc;"/><path d="M52.763,7.046c0.121,0.084 0.153,0.252 0.069,0.374c-0.083,0.121 -0.251,0.153 -0.374,0.069c-0.121,-0.083 -0.152,-0.251 -0.069,-0.374c0.084,-0.121 0.252,-0.152 0.374,-0.069Z" style="fill:#c7beb0;"/><path d="M59.079,15.889c-0.085,0.121 -0.252,0.153 -0.374,0.069c-0.122,-0.083 -0.153,-0.251 -0.069,-0.374c0.083,-0.121 0.251,-0.152 0.373,-0.069c0.122,0.084 0.153,0.252 0.07,0.374Z" style="fill:#deb87c;"/><path d="M64.827,8.121c-0.083,0.121 -0.251,0.153 -0.374,0.069c-0.121,-0.083 -0.152,-0.251 -0.069,-0.374c0.085,-0.121 0.251,-0.152 0.374,-0.069c0.121,0.084 0.152,0.252 0.069,0.374Z" style="fill:#c8c4bd;"/><path d="M58.473,11.128c-0.085,0.122 -0.251,0.152 -0.374,0.069c-0.122,-0.083 -0.154,-0.251 -0.069,-0.373c0.083,-0.122 0.252,-0.153 0.373,-0.07c0.122,0.085 0.153,0.252 0.07,0.374Z" style="fill:#d7592a;"/><path d="M70.973,10.091c-0.085,0.123 -0.251,0.153 -0.374,0.069c-0.122,-0.083 -0.154,-0.251 -0.069,-0.372c0.083,-0.123 0.252,-0.154 0.373,-0.071c0.122,0.085 0.153,0.252 0.07,0.374Z" style="fill:#d7592a;"/><path d="M84.473,6.36c-0.085,0.122 -0.251,0.152 -0.374,0.069c-0.122,-0.084 -0.154,-0.252 -0.069,-0.373c0.083,-0.122 0.252,-0.154 0.373,-0.07c0.122,0.084 0.153,0.251 0.07,0.374Z" style="fill:#d7592a;"/><path d="M66.334,2.298c0.012,-0.148 0.141,-0.259 0.29,-0.247c0.147,0.011 0.258,0.14 0.246,0.289c-0.012,0.147 -0.141,0.258 -0.289,0.246c-0.148,-0.012 -0.258,-0.141 -0.247,-0.288Z" style="fill:#deb87c;"/><path d="M66.334,2.298c0.012,-0.148 0.141,-0.259 0.29,-0.247c0.147,0.011 0.258,0.14 0.246,0.289c-0.012,0.147 -0.141,0.258 -0.289,0.246c-0.148,-0.012 -0.258,-0.141 -0.247,-0.288Z" style="fill:#e4971d;"/><path d="M59.034,3.579c0.012,-0.149 0.141,-0.258 0.288,-0.248c0.149,0.012 0.258,0.142 0.248,0.29c-0.012,0.147 -0.142,0.258 -0.29,0.246c-0.147,-0.012 -0.258,-0.141 -0.246,-0.288Z" style="fill:#7cc3de;"/><path d="M63.326,10.745c0.01,-0.149 0.141,-0.258 0.288,-0.248c0.149,0.012 0.258,0.142 0.246,0.29c-0.01,0.147 -0.14,0.258 -0.288,0.246c-0.148,-0.012 -0.258,-0.141 -0.246,-0.288Z" style="fill:#deb87c;"/><path d="M77.158,10.161c0.121,0.084 0.152,0.252 0.069,0.374c-0.085,0.121 -0.252,0.153 -0.374,0.069c-0.121,-0.083 -0.153,-0.251 -0.069,-0.374c0.083,-0.121 0.251,-0.152 0.374,-0.069Z" style="fill:#f3f1ef;"/><path d="M77.658,3.579c0.011,-0.149 0.141,-0.258 0.288,-0.248c0.149,0.012 0.258,0.142 0.246,0.29c-0.01,0.147 -0.14,0.258 -0.288,0.246c-0.148,-0.012 -0.258,-0.141 -0.246,-0.288Z" style="fill:#deb87c;"/><path d="M91.49,2.995c0.121,0.084 0.152,0.252 0.069,0.374c-0.085,0.121 -0.252,0.153 -0.374,0.069c-0.121,-0.083 -0.152,-0.251 -0.069,-0.374c0.083,-0.121 0.251,-0.152 0.374,-0.069Z" style="fill:#a37836;"/><path d="M87.198,13.802c0.121,0.083 0.153,0.251 0.069,0.373c-0.083,0.122 -0.251,0.153 -0.374,0.07c-0.121,-0.085 -0.152,-0.252 -0.069,-0.374c0.084,-0.122 0.252,-0.153 0.374,-0.069Z" style="fill:#c8c4bd;"/><path d="M62.243,1.415c-0.084,0.121 -0.251,0.152 -0.374,0.069c-0.121,-0.084 -0.152,-0.252 -0.069,-0.374c0.084,-0.121 0.252,-0.153 0.374,-0.069c0.121,0.083 0.153,0.251 0.069,0.374Z" style="fill:#deb87c;"/><path d="M44.49,2.066c-0.084,0.121 -0.252,0.153 -0.374,0.069c-0.121,-0.083 -0.153,-0.251 -0.069,-0.374c0.084,-0.121 0.251,-0.152 0.374,-0.069c0.121,0.084 0.152,0.252 0.069,0.374Z" style="fill:#a37836;"/><path d="M35.685,64.752c-0.011,0.148 -0.14,0.259 -0.289,0.247c-0.147,-0.012 -0.258,-0.141 -0.246,-0.289c0.011,-0.147 0.14,-0.258 0.289,-0.246c0.147,0.011 0.258,0.14 0.246,0.288Z" style="fill:#deb87c;"/><path d="M35.685,64.752c-0.011,0.148 -0.14,0.259 -0.289,0.247c-0.147,-0.012 -0.258,-0.141 -0.246,-0.289c0.011,-0.147 0.14,-0.258 0.289,-0.246c0.147,0.011 0.258,0.14 0.246,0.288Z" style="fill:#e4971d;"/><path d="M42.985,63.471c-0.011,0.148 -0.14,0.258 -0.287,0.247c-0.149,-0.011 -0.258,-0.142 -0.248,-0.289c0.012,-0.147 0.142,-0.258 0.289,-0.246c0.147,0.012 0.258,0.141 0.246,0.288Z" style="fill:#7cc3de;"/><path d="M38.694,56.305c-0.011,0.148 -0.141,0.258 -0.288,0.247c-0.149,-0.011 -0.258,-0.142 -0.247,-0.289c0.011,-0.147 0.141,-0.258 0.288,-0.246c0.149,0.012 0.258,0.141 0.247,0.288Z" style="fill:#deb87c;"/><path d="M67.732,28.479c-0.122,-0.085 -0.153,-0.252 -0.069,-0.374c0.083,-0.121 0.251,-0.153 0.373,-0.069c0.122,0.083 0.153,0.251 0.07,0.374c-0.084,0.121 -0.252,0.152 -0.374,0.069Z" style="fill:#deb87c;"/><path d="M60.566,33.959c-0.122,-0.084 -0.153,-0.252 -0.07,-0.374c0.084,-0.121 0.252,-0.153 0.374,-0.069c0.122,0.083 0.153,0.251 0.069,0.374c-0.083,0.121 -0.251,0.152 -0.373,0.069Z" style="fill:#c7beb0;"/><path d="M53.399,35.645c-0.121,-0.085 -0.152,-0.252 -0.069,-0.374c0.084,-0.121 0.252,-0.153 0.374,-0.069c0.122,0.083 0.153,0.251 0.069,0.374c-0.083,0.121 -0.251,0.152 -0.374,0.069Z" style="fill:#deb87c;"/><path d="M54.25,25.116c0.085,-0.121 0.252,-0.153 0.374,-0.069c0.121,0.083 0.153,0.251 0.069,0.374c-0.083,0.121 -0.251,0.152 -0.374,0.069c-0.121,-0.084 -0.152,-0.252 -0.069,-0.374Z" style="fill:#deb87c;"/><path d="M65.489,34.888c0.084,-0.121 0.252,-0.153 0.374,-0.069c0.121,0.083 0.153,0.251 0.069,0.374c-0.084,0.121 -0.251,0.152 -0.374,0.069c-0.121,-0.084 -0.152,-0.252 -0.069,-0.374Z" style="fill:#7ccade;"/><path d="M64.139,35.288c-0.147,-0.012 -0.258,-0.141 -0.246,-0.29c0.012,-0.147 0.141,-0.258 0.289,-0.246c0.148,0.012 0.258,0.141 0.247,0.289c-0.012,0.148 -0.141,0.258 -0.29,0.247Z" style="fill:#deb87c;"/><path d="M64.139,35.288c-0.147,-0.012 -0.258,-0.141 -0.246,-0.29c0.012,-0.147 0.141,-0.258 0.289,-0.246c0.148,0.012 0.258,0.141 0.247,0.289c-0.012,0.148 -0.141,0.258 -0.29,0.247Z" style="fill:#deb87c;"/><path d="M87.005,47.124c0.084,-0.122 0.252,-0.153 0.374,-0.069c0.121,0.083 0.153,0.251 0.069,0.373c-0.084,0.122 -0.251,0.153 -0.374,0.07c-0.121,-0.084 -0.152,-0.252 -0.069,-0.374Z" style="fill:#a37836;"/><path d="M85.463,46.8c-0.034,-0.143 0.056,-0.289 0.2,-0.323c0.145,-0.034 0.289,0.056 0.323,0.201c0.034,0.145 -0.056,0.289 -0.2,0.323c-0.145,0.034 -0.29,-0.056 -0.323,-0.201Z" style="fill:#deb87c;"/><path d="M44.522,62.52c0.142,0.043 0.221,0.193 0.179,0.335c-0.043,0.142 -0.192,0.222 -0.334,0.179c-0.142,-0.043 -0.223,-0.192 -0.18,-0.335c0.043,-0.142 0.193,-0.221 0.335,-0.179Z" style="fill:#deb87c;"/><path d="M79.156,37.261c0.142,0.043 0.223,0.192 0.18,0.334c-0.043,0.141 -0.193,0.222 -0.335,0.179c-0.142,-0.042 -0.222,-0.192 -0.179,-0.334c0.043,-0.142 0.192,-0.222 0.334,-0.179Z" style="fill:#dfd8cc;"/><path d="M48.502,32.884c0.083,-0.121 0.251,-0.153 0.374,-0.069c0.121,0.083 0.152,0.251 0.069,0.374c-0.085,0.121 -0.252,0.152 -0.374,0.069c-0.121,-0.084 -0.153,-0.252 -0.069,-0.374Z" style="fill:#c8c4bd;"/><path d="M38.85,50.277c-0.012,0.149 -0.141,0.259 -0.289,0.248c-0.147,-0.012 -0.258,-0.141 -0.246,-0.29c0.011,-0.147 0.14,-0.258 0.289,-0.246c0.147,0.012 0.258,0.141 0.246,0.288Z" style="fill:#deb87c;"/><path d="M38.85,50.277c-0.012,0.149 -0.141,0.259 -0.289,0.248c-0.147,-0.012 -0.258,-0.141 -0.246,-0.29c0.011,-0.147 0.14,-0.258 0.289,-0.246c0.147,0.012 0.258,0.141 0.246,0.288Z" style="fill:#e4971d;"/><path d="M85.86,32.472c-0.121,-0.085 -0.152,-0.251 -0.069,-0.374c0.084,-0.121 0.252,-0.152 0.374,-0.069c0.121,0.084 0.153,0.252 0.069,0.374c-0.083,0.121 -0.251,0.152 -0.374,0.069Z" style="fill:#deb87c;"/><path d="M78.732,42.143c-0.121,-0.083 -0.153,-0.251 -0.069,-0.373c0.083,-0.122 0.251,-0.153 0.374,-0.069c0.121,0.083 0.152,0.251 0.069,0.373c-0.084,0.122 -0.252,0.153 -0.374,0.069Z" style="fill:#c7beb0;"/><path d="M42.941,51.161c0.085,-0.122 0.252,-0.153 0.374,-0.07c0.121,0.084 0.153,0.252 0.069,0.374c-0.083,0.122 -0.251,0.153 -0.374,0.069c-0.121,-0.083 -0.152,-0.251 -0.069,-0.373Z" style="fill:#deb87c;"/><path d="M37.193,58.929c0.083,-0.122 0.251,-0.153 0.374,-0.07c0.121,0.084 0.152,0.252 0.069,0.374c-0.085,0.122 -0.252,0.153 -0.374,0.069c-0.121,-0.083 -0.153,-0.251 -0.069,-0.373Z" style="fill:#c8c4bd;"/><path d="M43.547,55.922c0.084,-0.123 0.251,-0.153 0.374,-0.069c0.122,0.083 0.153,0.251 0.069,0.372c-0.084,0.123 -0.252,0.154 -0.373,0.071c-0.122,-0.085 -0.154,-0.252 -0.07,-0.374Z" style="fill:#d7592a;"/><path d="M25.59,54.956c0.164,-0.236 0.486,-0.294 0.722,-0.133c0.236,0.161 0.297,0.486 0.133,0.719c-0.161,0.237 -0.485,0.297 -0.719,0.136c-0.236,-0.163 -0.297,-0.485 -0.136,-0.722Z" style="fill:#d7592a;"/><path d="M61.021,27.903c0.084,-0.123 0.251,-0.153 0.374,-0.07c0.122,0.084 0.153,0.252 0.069,0.373c-0.084,0.123 -0.252,0.154 -0.373,0.07c-0.123,-0.084 -0.154,-0.251 -0.07,-0.373Z" style="fill:#d7592a;"/><path d="M44.869,51.258c-0.122,-0.084 -0.153,-0.252 -0.069,-0.374c0.083,-0.121 0.251,-0.153 0.374,-0.069c0.121,0.083 0.152,0.251 0.069,0.374c-0.084,0.121 -0.252,0.152 -0.374,0.069Z" style="fill:#c7beb0;"/><path d="M37.703,52.944c-0.122,-0.085 -0.153,-0.252 -0.069,-0.374c0.083,-0.121 0.251,-0.153 0.373,-0.069c0.122,0.083 0.153,0.251 0.07,0.374c-0.084,0.121 -0.252,0.152 -0.374,0.069Z" style="fill:#deb87c;"/><path d="M79.268,34.327c0.083,-0.121 0.251,-0.153 0.374,-0.069c0.121,0.083 0.152,0.251 0.069,0.374c-0.085,0.121 -0.252,0.152 -0.374,0.069c-0.121,-0.084 -0.153,-0.252 -0.069,-0.374Z" style="fill:#7ccade;"/><path d="M77.918,34.727c-0.147,-0.012 -0.258,-0.141 -0.246,-0.289c0.011,-0.148 0.14,-0.258 0.289,-0.247c0.147,0.012 0.258,0.141 0.246,0.29c-0.012,0.147 -0.141,0.258 -0.289,0.246Z" style="fill:#deb87c;"/><path d="M77.918,34.727c-0.147,-0.012 -0.258,-0.141 -0.246,-0.289c0.011,-0.148 0.14,-0.258 0.289,-0.247c0.147,0.012 0.258,0.141 0.246,0.29c-0.012,0.147 -0.141,0.258 -0.289,0.246Z" style="fill:#deb87c;"/><path d="M32.805,50.183c0.083,-0.121 0.251,-0.152 0.374,-0.069c0.121,0.083 0.152,0.251 0.069,0.374c-0.085,0.121 -0.252,0.152 -0.374,0.069c-0.121,-0.083 -0.152,-0.252 -0.069,-0.374Z" style="fill:#c8c4bd;"/><path d="M31.98,54.303c-0.01,0.148 -0.141,0.259 -0.288,0.247c-0.147,-0.011 -0.258,-0.14 -0.247,-0.289c0.011,-0.147 0.142,-0.258 0.289,-0.246c0.147,0.012 0.258,0.141 0.246,0.288Z" style="fill:#deb87c;"/><path d="M44.869,51.258c-0.122,-0.084 -0.153,-0.252 -0.069,-0.374c0.083,-0.121 0.251,-0.153 0.374,-0.069c0.121,0.083 0.152,0.251 0.069,0.374c-0.084,0.121 -0.252,0.152 -0.374,0.069Z" style="fill:#c7beb0;"/><path d="M37.703,52.944c-0.122,-0.085 -0.153,-0.252 -0.069,-0.374c0.083,-0.121 0.251,-0.153 0.373,-0.069c0.122,0.083 0.153,0.251 0.07,0.374c-0.084,0.121 -0.252,0.152 -0.374,0.069Z" style="fill:#deb87c;"/><path d="M79.268,34.327c0.083,-0.121 0.251,-0.153 0.374,-0.069c0.121,0.083 0.152,0.251 0.069,0.374c-0.085,0.121 -0.252,0.152 -0.374,0.069c-0.121,-0.084 -0.153,-0.252 -0.069,-0.374Z" style="fill:#7ccade;"/><path d="M77.918,34.727c-0.147,-0.012 -0.258,-0.141 -0.246,-0.289c0.011,-0.148 0.14,-0.258 0.289,-0.247c0.147,0.012 0.258,0.141 0.246,0.29c-0.012,0.147 -0.141,0.258 -0.289,0.246Z" style="fill:#deb87c;"/><path d="M77.918,34.727c-0.147,-0.012 -0.258,-0.141 -0.246,-0.289c0.011,-0.148 0.14,-0.258 0.289,-0.247c0.147,0.012 0.258,0.141 0.246,0.29c-0.012,0.147 -0.141,0.258 -0.289,0.246Z" style="fill:#deb87c;"/><path d="M32.805,50.183c0.083,-0.121 0.251,-0.152 0.374,-0.069c0.121,0.083 0.152,0.251 0.069,0.374c-0.085,0.121 -0.252,0.152 -0.374,0.069c-0.121,-0.083 -0.152,-0.252 -0.069,-0.374Z" style="fill:#c8c4bd;"/><path d="M31.98,54.303c-0.01,0.148 -0.141,0.259 -0.288,0.247c-0.147,-0.011 -0.258,-0.14 -0.247,-0.289c0.011,-0.147 0.142,-0.258 0.289,-0.246c0.147,0.012 0.258,0.141 0.246,0.288Z" style="fill:#deb87c;"/><path d="M84,38.495c0.074,-0.127 0.239,-0.17 0.367,-0.096c0.127,0.074 0.171,0.239 0.097,0.367c-0.074,0.127 -0.24,0.171 -0.368,0.097c-0.127,-0.074 -0.171,-0.24 -0.096,-0.368Z" style="fill:#deb87c;"/><path d="M87.152,47.232c0.123,0.085 0.153,0.252 0.069,0.374c-0.083,0.123 -0.251,0.154 -0.372,0.069c-0.123,-0.083 -0.154,-0.251 -0.071,-0.372c0.085,-0.123 0.252,-0.154 0.374,-0.071Z" style="fill:#d7592a;"/><path d="M68.809,30.489c-0.148,-0.012 -0.259,-0.141 -0.247,-0.29c0.011,-0.147 0.14,-0.258 0.289,-0.246c0.147,0.012 0.258,0.141 0.246,0.289c-0.011,0.148 -0.14,0.258 -0.288,0.247Z" style="fill:#deb87c;"/><path d="M68.809,30.489c-0.148,-0.012 -0.259,-0.141 -0.247,-0.29c0.011,-0.147 0.14,-0.258 0.289,-0.246c0.147,0.012 0.258,0.141 0.246,0.289c-0.011,0.148 -0.14,0.258 -0.288,0.247Z" style="fill:#e4971d;"/><path d="M77.256,33.497c-0.148,-0.01 -0.258,-0.141 -0.247,-0.288c0.011,-0.148 0.142,-0.258 0.289,-0.246c0.147,0.01 0.258,0.141 0.246,0.288c-0.012,0.148 -0.141,0.258 -0.288,0.246Z" style="fill:#deb87c;"/><path d="M91.674,42.325c0.083,-0.122 0.251,-0.153 0.374,-0.069c0.121,0.084 0.152,0.251 0.069,0.373c-0.084,0.122 -0.252,0.153 -0.374,0.07c-0.121,-0.084 -0.153,-0.252 -0.069,-0.374Z" style="fill:#f3f1ef;"/><path d="M85.091,41.824c-0.148,-0.01 -0.258,-0.14 -0.247,-0.288c0.012,-0.148 0.142,-0.258 0.289,-0.246c0.147,0.01 0.258,0.141 0.246,0.288c-0.011,0.149 -0.14,0.258 -0.288,0.246Z" style="fill:#deb87c;"/><path d="M95.314,32.284c0.084,-0.121 0.252,-0.152 0.374,-0.069c0.121,0.084 0.153,0.252 0.069,0.374c-0.085,0.121 -0.251,0.153 -0.374,0.069c-0.121,-0.083 -0.152,-0.251 -0.069,-0.374Z" style="fill:#c8c4bd;"/><path d="M67.926,34.58c0.121,0.085 0.152,0.251 0.069,0.374c-0.083,0.121 -0.251,0.152 -0.374,0.069c-0.121,-0.084 -0.152,-0.252 -0.069,-0.374c0.083,-0.121 0.251,-0.153 0.374,-0.069Z" style="fill:#deb87c;"/><path d="M97.731,47.543c-0.149,0 -0.268,-0.122 -0.267,-0.269c-0,-0.149 0.121,-0.268 0.269,-0.267c0.148,-0.001 0.268,0.121 0.267,0.269c0.001,0.149 -0.121,0.267 -0.269,0.267Z" style="fill:#deb87c;"/><path d="M96.125,33.792c0.076,-0.127 0.24,-0.171 0.368,-0.097c0.127,0.076 0.171,0.24 0.096,0.368c-0.074,0.127 -0.239,0.171 -0.367,0.097c-0.127,-0.074 -0.171,-0.24 -0.097,-0.368Z" style="fill:#f3f1ef;"/><path d="M81.555,32.144c0.034,0.144 -0.056,0.289 -0.2,0.323c-0.144,0.034 -0.288,-0.056 -0.322,-0.2c-0.035,-0.144 0.055,-0.289 0.199,-0.323c0.145,-0.034 0.289,0.056 0.323,0.2Z" style="fill:#dfd8cc;"/><path d="M83.245,43.022c0.123,0.083 0.153,0.251 0.069,0.374c-0.083,0.121 -0.251,0.152 -0.374,0.069c-0.121,-0.085 -0.152,-0.252 -0.069,-0.374c0.085,-0.121 0.252,-0.153 0.374,-0.069Z" style="fill:#a37836;"/><path d="M83.568,41.479c0.145,-0.034 0.29,0.056 0.323,0.201c0.034,0.144 -0.056,0.289 -0.2,0.323c-0.145,0.034 -0.289,-0.056 -0.323,-0.201c-0.034,-0.145 0.056,-0.289 0.2,-0.323Z" style="fill:#deb87c;"/><path d="M93.108,35.173c-0.041,0.142 -0.193,0.223 -0.333,0.18c-0.142,-0.043 -0.223,-0.193 -0.18,-0.335c0.042,-0.142 0.192,-0.223 0.334,-0.18c0.142,0.043 0.222,0.193 0.179,0.335Z" style="fill:#dfd8cc;"/><path d="M74.632,31.996c0.122,0.084 0.153,0.252 0.069,0.374c-0.083,0.121 -0.251,0.153 -0.373,0.069c-0.122,-0.085 -0.153,-0.251 -0.07,-0.374c0.084,-0.121 0.252,-0.152 0.374,-0.069Z" style="fill:#c8c4bd;"/><path d="M91.604,48.509c0.122,0.085 0.152,0.252 0.069,0.374c-0.083,0.123 -0.252,0.154 -0.373,0.069c-0.122,-0.083 -0.153,-0.251 -0.07,-0.372c0.085,-0.123 0.251,-0.154 0.374,-0.071Z" style="fill:#d7592a;"/><path d="M87.872,35.009c0.123,0.085 0.153,0.252 0.069,0.374c-0.083,0.123 -0.251,0.154 -0.372,0.069c-0.123,-0.083 -0.154,-0.251 -0.071,-0.372c0.085,-0.123 0.252,-0.154 0.374,-0.071Z" style="fill:#d7592a;"/><path d="M68.809,30.489c-0.148,-0.012 -0.259,-0.141 -0.247,-0.29c0.011,-0.147 0.14,-0.258 0.289,-0.246c0.147,0.012 0.258,0.141 0.246,0.289c-0.011,0.148 -0.14,0.258 -0.288,0.247Z" style="fill:#deb87c;"/><path d="M68.809,30.489c-0.148,-0.012 -0.259,-0.141 -0.247,-0.29c0.011,-0.147 0.14,-0.258 0.289,-0.246c0.147,0.012 0.258,0.141 0.246,0.289c-0.011,0.148 -0.14,0.258 -0.288,0.247Z" style="fill:#e4971d;"/><path d="M77.256,33.497c-0.148,-0.01 -0.258,-0.141 -0.247,-0.288c0.011,-0.148 0.142,-0.258 0.289,-0.246c0.147,0.01 0.258,0.141 0.246,0.288c-0.012,0.148 -0.141,0.258 -0.288,0.246Z" style="fill:#deb87c;"/><path d="M91.674,42.325c0.083,-0.122 0.251,-0.153 0.374,-0.069c0.121,0.084 0.152,0.251 0.069,0.373c-0.084,0.122 -0.252,0.153 -0.374,0.07c-0.121,-0.084 -0.153,-0.252 -0.069,-0.374Z" style="fill:#f3f1ef;"/><path d="M85.091,41.824c-0.148,-0.01 -0.258,-0.14 -0.247,-0.288c0.012,-0.148 0.142,-0.258 0.289,-0.246c0.147,0.01 0.258,0.141 0.246,0.288c-0.011,0.149 -0.14,0.258 -0.288,0.246Z" style="fill:#deb87c;"/><path d="M95.314,32.284c0.084,-0.121 0.252,-0.152 0.374,-0.069c0.121,0.084 0.153,0.252 0.069,0.374c-0.085,0.121 -0.251,0.153 -0.374,0.069c-0.121,-0.083 -0.152,-0.251 -0.069,-0.374Z" style="fill:#c8c4bd;"/><path d="M67.926,34.58c0.121,0.085 0.152,0.251 0.069,0.374c-0.083,0.121 -0.251,0.152 -0.374,0.069c-0.121,-0.084 -0.152,-0.252 -0.069,-0.374c0.083,-0.121 0.251,-0.153 0.374,-0.069Z" style="fill:#deb87c;"/><path d="M97.731,47.543c-0.149,0 -0.268,-0.122 -0.267,-0.269c-0,-0.149 0.121,-0.268 0.269,-0.267c0.148,-0.001 0.268,0.121 0.267,0.269c0.001,0.149 -0.121,0.267 -0.269,0.267Z" style="fill:#deb87c;"/><path d="M96.125,33.792c0.076,-0.127 0.24,-0.171 0.368,-0.097c0.127,0.076 0.171,0.24 0.096,0.368c-0.074,0.127 -0.239,0.171 -0.367,0.097c-0.127,-0.074 -0.171,-0.24 -0.097,-0.368Z" style="fill:#f3f1ef;"/><path d="M81.555,32.144c0.034,0.144 -0.056,0.289 -0.2,0.323c-0.144,0.034 -0.288,-0.056 -0.322,-0.2c-0.035,-0.144 0.055,-0.289 0.199,-0.323c0.145,-0.034 0.289,0.056 0.323,0.2Z" style="fill:#dfd8cc;"/><path d="M83.245,43.022c0.123,0.083 0.153,0.251 0.069,0.374c-0.083,0.121 -0.251,0.152 -0.374,0.069c-0.121,-0.085 -0.152,-0.252 -0.069,-0.374c0.085,-0.121 0.252,-0.153 0.374,-0.069Z" style="fill:#a37836;"/><path d="M83.568,41.479c0.145,-0.034 0.29,0.056 0.323,0.201c0.034,0.144 -0.056,0.289 -0.2,0.323c-0.145,0.034 -0.289,-0.056 -0.323,-0.201c-0.034,-0.145 0.056,-0.289 0.2,-0.323Z" style="fill:#deb87c;"/><path d="M93.108,35.173c-0.041,0.142 -0.193,0.223 -0.333,0.18c-0.142,-0.043 -0.223,-0.193 -0.18,-0.335c0.042,-0.142 0.192,-0.223 0.334,-0.18c0.142,0.043 0.222,0.193 0.179,0.335Z" style="fill:#dfd8cc;"/><path d="M74.632,31.996c0.122,0.084 0.153,0.252 0.069,0.374c-0.083,0.121 -0.251,0.153 -0.373,0.069c-0.122,-0.085 -0.153,-0.251 -0.07,-0.374c0.084,-0.121 0.252,-0.152 0.374,-0.069Z" style="fill:#c8c4bd;"/><path d="M91.995,48.553c0.237,0.163 0.295,0.485 0.134,0.722c-0.161,0.236 -0.486,0.296 -0.72,0.133c-0.236,-0.161 -0.297,-0.485 -0.136,-0.719c0.164,-0.237 0.486,-0.297 0.722,-0.136Z" style="fill:#d7592a;"/><path d="M96.184,25.62c0.345,0.238 0.429,0.707 0.194,1.052c-0.234,0.344 -0.707,0.432 -1.049,0.194c-0.344,-0.235 -0.432,-0.707 -0.198,-1.048c0.239,-0.344 0.708,-0.432 1.053,-0.198Z" style="fill:#d7592a;"/><path d="M76.445,36.313c-0.121,-0.084 -0.152,-0.252 -0.069,-0.374c0.083,-0.121 0.251,-0.153 0.374,-0.069c0.121,0.085 0.152,0.251 0.069,0.374c-0.083,0.121 -0.251,0.152 -0.374,0.069Z" style="fill:#a37836;"/><path d="M76.445,36.313c-0.121,-0.084 -0.152,-0.252 -0.069,-0.374c0.083,-0.121 0.251,-0.153 0.374,-0.069c0.121,0.085 0.152,0.251 0.069,0.374c-0.083,0.121 -0.251,0.152 -0.374,0.069Z" style="fill:#a37836;"/><path d="M46.032,2.389c0.034,0.144 -0.056,0.29 -0.2,0.323c-0.145,0.034 -0.29,-0.056 -0.323,-0.2c-0.034,-0.145 0.056,-0.289 0.2,-0.323c0.145,-0.034 0.29,0.056 0.323,0.2Z" style="fill:#deb87c;"/><path d="M57.498,4.53c-0.142,-0.043 -0.221,-0.193 -0.18,-0.335c0.043,-0.142 0.193,-0.223 0.335,-0.18c0.142,0.043 0.223,0.193 0.18,0.335c-0.043,0.142 -0.193,0.222 -0.335,0.18Z" style="fill:#deb87c;"/><path d="M52.339,11.929c-0.142,-0.043 -0.223,-0.193 -0.18,-0.335c0.043,-0.14 0.193,-0.221 0.335,-0.178c0.142,0.042 0.222,0.191 0.179,0.333c-0.043,0.142 -0.192,0.223 -0.334,0.18Z" style="fill:#dfd8cc;"/><path d="M71.94,16.218c-0.001,-0.148 0.121,-0.267 0.269,-0.266c0.149,-0.001 0.267,0.121 0.267,0.268c0,0.148 -0.122,0.268 -0.269,0.267c-0.149,0.001 -0.268,-0.121 -0.267,-0.269Z" style="fill:#deb87c;"/><path d="M85.69,14.612c0.127,0.076 0.171,0.24 0.097,0.368c-0.076,0.127 -0.24,0.171 -0.368,0.097c-0.127,-0.074 -0.171,-0.24 -0.096,-0.368c0.074,-0.127 0.239,-0.171 0.367,-0.097Z" style="fill:#f3f1ef;"/><path d="M95.284,5.333c0.121,0.083 0.152,0.251 0.069,0.374c-0.083,0.121 -0.251,0.152 -0.374,0.069c-0.121,-0.085 -0.152,-0.252 -0.069,-0.374c0.085,-0.122 0.252,-0.153 0.374,-0.069Z" style="fill:#a37836;"/><path d="M95.607,3.79c0.145,-0.034 0.289,0.056 0.323,0.201c0.034,0.144 -0.056,0.289 -0.2,0.323c-0.145,0.034 -0.29,-0.056 -0.324,-0.201c-0.033,-0.145 0.056,-0.289 0.201,-0.323Z" style="fill:#deb87c;"/><path d="M87.33,5.761c-0.144,0.034 -0.289,-0.056 -0.323,-0.2c-0.034,-0.143 0.056,-0.288 0.199,-0.322c0.145,-0.035 0.29,0.055 0.324,0.199c0.033,0.145 -0.056,0.29 -0.2,0.323Z" style="fill:#dfd8cc;"/><path d="M87.391,9.564c0.147,0.012 0.258,0.141 0.246,0.288c-0.012,0.149 -0.141,0.26 -0.289,0.248c-0.147,-0.012 -0.258,-0.141 -0.246,-0.289c0.011,-0.148 0.14,-0.258 0.289,-0.247Z" style="fill:#c8c4bd;"/><path d="M76.461,1.733c-0.084,0.122 -0.252,0.152 -0.374,0.069c-0.121,-0.084 -0.153,-0.252 -0.069,-0.374c0.084,-0.121 0.251,-0.153 0.374,-0.069c0.121,0.084 0.152,0.251 0.069,0.374Z" style="fill:#a37836;"/><path d="M78.003,2.056c0.034,0.144 -0.056,0.289 -0.2,0.323c-0.145,0.034 -0.29,-0.056 -0.323,-0.201c-0.034,-0.144 0.056,-0.289 0.2,-0.323c0.145,-0.034 0.29,0.056 0.323,0.201Z" style="fill:#deb87c;"/><path d="M84.31,11.596c-0.143,-0.042 -0.223,-0.193 -0.18,-0.334c0.043,-0.142 0.193,-0.223 0.335,-0.18c0.142,0.042 0.222,0.192 0.179,0.334c-0.043,0.142 -0.192,0.223 -0.334,0.18Z" style="fill:#dfd8cc;"/><path d="M52.763,7.046c0.121,0.084 0.153,0.252 0.069,0.374c-0.083,0.121 -0.251,0.153 -0.374,0.069c-0.121,-0.083 -0.152,-0.251 -0.069,-0.374c0.084,-0.121 0.252,-0.152 0.374,-0.069Z" style="fill:#c7beb0;"/><path d="M59.079,15.889c-0.085,0.121 -0.252,0.153 -0.374,0.069c-0.122,-0.083 -0.153,-0.251 -0.069,-0.374c0.083,-0.121 0.251,-0.152 0.373,-0.069c0.122,0.084 0.153,0.252 0.07,0.374Z" style="fill:#deb87c;"/><path d="M64.827,8.121c-0.083,0.121 -0.251,0.153 -0.374,0.069c-0.121,-0.083 -0.152,-0.251 -0.069,-0.374c0.085,-0.121 0.251,-0.152 0.374,-0.069c0.121,0.084 0.152,0.252 0.069,0.374Z" style="fill:#c8c4bd;"/><path d="M58.473,11.128c-0.085,0.122 -0.251,0.152 -0.374,0.069c-0.122,-0.083 -0.154,-0.251 -0.069,-0.373c0.083,-0.122 0.252,-0.153 0.373,-0.07c0.122,0.085 0.153,0.252 0.07,0.374Z" style="fill:#d7592a;"/><path d="M70.973,10.091c-0.085,0.123 -0.251,0.153 -0.374,0.069c-0.122,-0.083 -0.154,-0.251 -0.069,-0.372c0.083,-0.123 0.252,-0.154 0.373,-0.071c0.122,0.085 0.153,0.252 0.07,0.374Z" style="fill:#d7592a;"/><path d="M84.473,6.36c-0.085,0.122 -0.251,0.152 -0.374,0.069c-0.122,-0.084 -0.154,-0.252 -0.069,-0.373c0.083,-0.122 0.252,-0.154 0.373,-0.07c0.122,0.084 0.153,0.251 0.07,0.374Z" style="fill:#d7592a;"/></svg>