<?xml version="1.0" encoding="UTF-8" standalone="no"?><!DOCTYPE svg PUBLIC "-//W3C//DTD SVG 1.1//EN" "http://www.w3.org/Graphics/SVG/1.1/DTD/svg11.dtd"><svg width="100%" height="100%" viewBox="0 0 100 100" version="1.1" xmlns="http://www.w3.org/2000/svg" xmlns:xlink="http://www.w3.org/1999/xlink" xml:space="preserve" xmlns:serif="http://www.serif.com/" style="fill-rule:evenodd;clip-rule:evenodd;stroke-linejoin:round;stroke-miterlimit:2;"><g><path d="M72.638,26.003l-1.955,0c0.05,-0.147 0.102,-0.295 0.102,-0.458c0,-0.843 -0.752,-1.525 -1.677,-1.525c-0.924,-0 -1.673,0.684 -1.673,1.525c-0,0.163 0.049,0.311 0.103,0.458l-6.409,0c0.051,-0.147 0.103,-0.295 0.103,-0.458c-0.002,-0.843 -0.752,-1.525 -1.679,-1.525c-0.921,-0 -1.673,0.684 -1.673,1.525c-0,0.163 0.05,0.311 0.104,0.458l-6.41,0c0.051,-0.147 0.101,-0.295 0.101,-0.458c0,-0.843 -0.749,-1.525 -1.673,-1.525c-0.925,-0 -1.674,0.684 -1.674,1.525c0,0.163 0.049,0.311 0.101,0.458l-6.41,0c0.051,-0.147 0.103,-0.295 0.103,-0.458c-0,-0.843 -0.751,-1.525 -1.674,-1.525c-0.924,-0 -1.675,0.684 -1.675,1.525c0,0.163 0.049,0.311 0.101,0.458l-6.408,0c0.052,-0.147 0.103,-0.295 0.103,-0.458c-0,-0.843 -0.749,-1.525 -1.674,-1.525c-0.925,-0 -1.675,0.684 -1.675,1.525c-0,0.163 0.049,0.311 0.101,0.458l-1.959,0c-2.644,0 -4.789,1.956 -4.789,4.363l-0,41.251c-0,2.408 2.145,4.363 4.789,4.363l39.869,0l10.196,-9.289l0,-36.325c0,-2.405 -2.145,-4.363 -4.789,-4.363Zm2.177,39.701l-0.542,0.493l-4.101,0c-1.919,0 -3.482,1.428 -3.482,3.173l-0,3.737l-0.542,0.493l-38.786,0c-1.2,0 -2.177,-0.89 -2.177,-1.983l0,-39.664l49.63,-0l-0,33.751Z" style="fill-rule:nonzero;"/><rect x="38.711" y="35.975" width="6.158" height="5.61"/><rect x="46.921" y="35.975" width="6.158" height="5.61"/><rect x="55.132" y="35.975" width="6.156" height="5.61"/><rect x="63.343" y="35.975" width="6.159" height="5.61"/><rect x="30.498" y="43.455" width="6.159" height="5.612"/><rect x="38.711" y="43.455" width="6.158" height="5.612"/><rect x="46.921" y="43.455" width="6.158" height="5.612"/><rect x="55.132" y="43.455" width="6.156" height="5.612"/><rect x="63.343" y="43.455" width="6.159" height="5.612"/><rect x="30.498" y="50.936" width="6.159" height="5.612"/><rect x="38.711" y="50.936" width="6.158" height="5.612"/><rect x="46.921" y="50.936" width="6.158" height="5.612"/><rect x="55.132" y="50.936" width="6.156" height="5.612"/><rect x="63.343" y="50.936" width="6.159" height="5.612"/><rect x="30.498" y="58.417" width="6.159" height="5.61"/><rect x="38.711" y="58.417" width="6.158" height="5.61"/><rect x="46.921" y="58.417" width="6.158" height="5.61"/><rect x="55.132" y="58.417" width="6.156" height="5.61"/><rect x="63.343" y="58.417" width="6.159" height="5.61"/><rect x="30.498" y="66.832" width="14.368" height="2.805"/></g><path d="M11.962,57.682c-0.5,-2.483 -0.762,-5.052 -0.762,-7.682c0,-2.63 0.262,-5.199 0.762,-7.682l-9.386,-2.515c-0.705,3.286 -1.076,6.698 -1.076,10.197c0,3.499 0.371,6.911 1.076,10.197l9.386,-2.515Zm8.946,-33.344l-6.868,-6.869c-4.56,5.038 -8.077,11.034 -10.21,17.649l9.386,2.515c1.666,-4.953 4.307,-9.461 7.692,-13.295Zm0,51.324c-3.385,-3.834 -6.025,-8.342 -7.692,-13.295l-9.386,2.515c2.134,6.616 5.651,12.612 10.21,17.649l6.868,-6.869Zm16.725,-62.446l-2.515,-9.386c-6.616,2.134 -12.612,5.651 -17.649,10.21l6.869,6.868c3.834,-3.385 8.342,-6.025 13.295,-7.692Zm0,73.568c-4.953,-1.666 -9.461,-4.307 -13.295,-7.692l-6.869,6.868c5.038,4.56 11.034,8.077 17.649,10.21l2.515,-9.386Zm22.564,-84.208c-3.286,-0.705 -6.698,-1.076 -10.197,-1.076c-3.499,-0 -6.911,0.371 -10.197,1.076l2.515,9.386c2.483,-0.5 5.052,-0.762 7.682,-0.762c2.63,-0 5.199,0.262 7.682,0.762l2.515,-9.386Zm-0,94.848l-2.515,-9.386c-2.483,0.5 -5.052,0.762 -7.682,0.762c-2.63,-0 -5.199,-0.262 -7.682,-0.762l-2.515,9.386c3.286,0.705 6.698,1.076 10.197,1.076c3.499,-0 6.911,-0.371 10.197,-1.076Zm22.334,-83.384c-5.038,-4.56 -11.034,-8.077 -17.649,-10.21l-2.515,9.386c4.953,1.666 9.461,4.307 13.295,7.692l5.378,-1.948l1.491,-4.92Zm-0,71.92l-6.869,-6.868c-3.834,3.385 -8.342,6.025 -13.295,7.692l2.515,9.386c6.616,-2.134 12.612,-5.651 17.649,-10.21Zm-8.766,-61.622l9.7,-3.43l3.319,-10.193l5.411,19.885l-18.43,-6.262Zm22.405,40.544l-9.386,-2.515c-1.666,4.953 -4.307,9.461 -7.692,13.295l6.868,6.869c4.56,-5.038 8.077,-11.034 10.21,-17.649Zm1.254,-25.079l-4.259,2.515l-5.127,0c0.5,2.483 0.762,5.052 0.762,7.682c-0,2.63 -0.262,5.199 -0.762,7.682l9.386,2.515c0.705,-3.286 1.076,-6.698 1.076,-10.197c-0,-3.499 -0.371,-6.911 -1.076,-10.197Z"/><g id="Layer_2_18_"></g></svg>