<?xml version="1.0" encoding="UTF-8" standalone="no"?><!DOCTYPE svg PUBLIC "-//W3C//DTD SVG 1.1//EN" "http://www.w3.org/Graphics/SVG/1.1/DTD/svg11.dtd"><svg width="100%" height="100%" viewBox="0 0 100 100" version="1.1" xmlns="http://www.w3.org/2000/svg" xmlns:xlink="http://www.w3.org/1999/xlink" xml:space="preserve" xmlns:serif="http://www.serif.com/" style="fill-rule:evenodd;clip-rule:evenodd;stroke-linejoin:round;stroke-miterlimit:2;"><g id="Layer_2_18_"><g><path d="M65.994,52.429c1.237,-0.328 4.133,-1.099 5.479,-4.739l2.774,-7.498l1.116,0.349c0.51,0.16 1.07,-0.094 1.244,-0.563l1.488,-4.023c0.174,-0.469 -0.102,-0.984 -0.613,-1.143l-35.957,-11.239c-0.511,-0.16 -1.071,0.094 -1.245,0.563l-1.488,4.023c-0.173,0.469 0.102,0.983 0.613,1.143l1.115,0.349l-2.823,7.634c-1.333,3.604 -0.451,4.821 1.222,6.663l7.276,8.009l-0.811,2.193c-2.784,0.555 -10.06,2.013 -11.039,2.273c-1.237,0.328 -4.134,1.099 -5.48,4.739l-2.388,6.455l-1.116,-0.348c-0.51,-0.16 -1.071,0.094 -1.245,0.563l-1.487,4.022c-0.174,0.47 0.102,0.984 0.613,1.144l35.958,11.239c0.51,0.16 1.07,-0.094 1.244,-0.563l1.487,-4.022c0.174,-0.47 -0.102,-0.985 -0.613,-1.144l-1.115,-0.349l2.438,-6.592c1.333,-3.604 0.452,-4.822 -1.222,-6.663l-7.276,-8.009l0.811,-2.193c2.784,-0.555 10.06,-2.012 11.04,-2.273Zm-15.196,5.846l7.912,8.709c0.607,0.668 0.929,1.033 1.016,1.367c0.105,0.401 -0.035,1.112 -0.427,2.17l-2.439,6.593l-27.041,-8.452l2.388,-6.455c0.754,-2.038 2.12,-2.401 3.118,-2.667c0.78,-0.207 7.473,-1.556 11.782,-2.413c0.605,-0.12 1.098,-0.524 1.298,-1.063l1.451,-3.925c0.198,-0.536 0.079,-1.128 -0.316,-1.562l-7.888,-8.683l-0.024,-0.026c-0.607,-0.669 -0.929,-1.033 -1.016,-1.368c-0.104,-0.401 0.035,-1.11 0.427,-2.17l2.824,-7.634l27.042,8.451l-2.774,7.498c-0.754,2.038 -2.12,2.402 -3.118,2.667c-0.78,0.208 -7.473,1.557 -11.781,2.413c-0.606,0.12 -1.099,0.524 -1.299,1.064l-1.451,3.924c-0.198,0.536 -0.078,1.127 0.316,1.562Z" style="fill-rule:nonzero;"/><path d="M72.426,87.074c-0.757,0.401 -1.537,0.785 -2.318,1.141c-0.126,0.058 -0.248,0.121 -0.366,0.189c-0.125,0.041 -0.25,0.088 -0.373,0.142c-3.389,1.479 -6.923,2.52 -10.563,3.124c-0.047,0.006 -0.094,0.009 -0.141,0.016c-0.858,0.142 -1.731,0.261 -2.595,0.353c-0.009,0.002 -0.019,0.004 -0.028,0.005c-1.587,0.164 -3.191,0.247 -4.812,0.247c-18.69,0 -34.629,-11.222 -40.534,-26.843c-0.089,-0.238 -0.179,-0.476 -0.263,-0.715c-1.416,-3.983 -2.185,-8.241 -2.185,-12.663c0,-4.432 0.772,-8.699 2.194,-12.69c0.031,-0.087 0.061,-0.174 0.092,-0.261c0.085,-0.233 0.173,-0.464 0.262,-0.695c0.042,-0.108 0.084,-0.216 0.127,-0.324c4.908,-12.36 16.133,-21.869 29.985,-25.077c0.008,-0.002 0.017,-0.002 0.026,-0.004c0.205,-0.048 0.411,-0.094 0.618,-0.139c0.023,-0.004 0.045,-0.012 0.067,-0.017c3.022,-0.649 6.387,-1.455 9.611,-1.471l0,3.798l13.516,-7.595l-13.516,-7.595l-0.011,3.797c-13.572,0.071 -26.601,5.393 -36.207,14.381c-0.946,0.886 -1.849,1.8 -2.711,2.741c-0.005,0.005 -0.01,0.01 -0.016,0.015c-0.032,0.035 -0.062,0.071 -0.093,0.106c-7.561,8.302 -11.823,18.65 -12.158,29.627c-0.008,0.085 -0.018,0.17 -0.02,0.257c-0.009,0.366 -0.014,0.739 -0.014,1.107c0,0.603 0.013,1.215 0.037,1.818c0.003,0.071 0.013,0.14 0.02,0.21c0.434,10.001 4.129,19.458 10.613,27.29c0.022,0.027 0.04,0.056 0.062,0.083c0.634,0.765 1.303,1.522 1.988,2.252c0.044,0.047 0.093,0.087 0.138,0.132c0.694,0.731 1.409,1.448 2.154,2.145c7.605,7.117 17.181,11.718 27.575,13.362c0.031,0.005 0.063,0.011 0.095,0.016c0.023,0.004 0.047,0.005 0.07,0.008c2.776,0.43 5.609,0.653 8.478,0.653c7.551,0 14.825,-1.503 21.619,-4.467c0.146,-0.064 0.286,-0.137 0.419,-0.215c0.153,-0.049 0.302,-0.107 0.45,-0.174c0.932,-0.426 1.863,-0.884 2.766,-1.362c1.979,-1.049 2.676,-3.4 1.555,-5.253c-1.121,-1.852 -3.634,-2.504 -5.613,-1.455Z" style="fill-rule:nonzero;"/><path d="M83.813,30.367c0.829,1.135 2.187,1.747 3.569,1.747c0.824,-0 1.658,-0.218 2.393,-0.672c1.969,-1.216 2.493,-3.67 1.169,-5.48c-0.604,-0.826 -1.242,-1.645 -1.9,-2.434c-1.442,-1.733 -4.138,-2.063 -6.023,-0.738c-1.884,1.326 -2.243,3.804 -0.801,5.536c0.552,0.663 1.087,1.35 1.593,2.041Z" style="fill-rule:nonzero;"/><path d="M89.269,40.739c0.276,0.793 0.53,1.606 0.755,2.417c0.496,1.786 2.243,2.975 4.161,2.975c0.35,-0 0.708,-0.04 1.064,-0.124c2.299,-0.538 3.688,-2.688 3.102,-4.802c-0.267,-0.964 -0.57,-1.932 -0.899,-2.875c-0.723,-2.077 -3.141,-3.223 -5.401,-2.557c-2.26,0.665 -3.505,2.889 -2.782,4.966Z" style="fill-rule:nonzero;"/><path d="M86.533,79.937c-1.796,-1.426 -4.508,-1.245 -6.06,0.405c-0.595,0.631 -1.217,1.254 -1.851,1.85c-1.658,1.56 -1.626,4.06 0.071,5.585c0.836,0.751 1.92,1.125 3.002,1.125c1.117,-0 2.232,-0.398 3.074,-1.19c0.754,-0.71 1.496,-1.451 2.203,-2.204c1.552,-1.65 1.355,-4.144 -0.439,-5.571Z" style="fill-rule:nonzero;"/><path d="M95.832,50.788c-2.376,-0.065 -4.353,1.65 -4.423,3.83c-0.027,0.835 -0.083,1.679 -0.166,2.51c-0.217,2.172 1.523,4.094 3.886,4.294c0.134,0.011 0.266,0.016 0.398,0.016c2.194,0 4.069,-1.539 4.273,-3.588c0.099,-0.991 0.166,-1.999 0.198,-2.996c0.07,-2.179 -1.794,-4 -4.166,-4.066Z" style="fill-rule:nonzero;"/><path d="M93.921,66.103c-2.21,-0.796 -4.702,0.206 -5.567,2.238c-0.331,0.777 -0.693,1.556 -1.075,2.314c-0.998,1.979 -0.061,4.326 2.092,5.243c0.585,0.249 1.199,0.367 1.804,0.367c1.622,-0 3.174,-0.849 3.901,-2.29c0.454,-0.903 0.885,-1.829 1.279,-2.755c0.865,-2.03 -0.225,-4.322 -2.434,-5.117Z" style="fill-rule:nonzero;"/><path d="M79.289,19.418c1.413,-1.753 1.012,-4.226 -0.896,-5.524c-0.868,-0.591 -1.768,-1.165 -2.675,-1.708c-1.99,-1.189 -4.651,-0.671 -5.944,1.158c-1.293,1.828 -0.73,4.274 1.259,5.464c0.762,0.455 1.518,0.938 2.248,1.434c0.768,0.523 1.664,0.776 2.553,0.776c1.315,-0 2.613,-0.554 3.455,-1.6Z" style="fill-rule:nonzero;"/></g></g></svg>