<?xml version="1.0" encoding="UTF-8" standalone="no"?><!DOCTYPE svg PUBLIC "-//W3C//DTD SVG 1.1//EN" "http://www.w3.org/Graphics/SVG/1.1/DTD/svg11.dtd"><svg width="100%" height="100%" viewBox="0 0 100 100" version="1.1" xmlns="http://www.w3.org/2000/svg" xmlns:xlink="http://www.w3.org/1999/xlink" xml:space="preserve" xmlns:serif="http://www.serif.com/" style="fill-rule:evenodd;clip-rule:evenodd;stroke-linejoin:round;stroke-miterlimit:2;"><g id="SVGRepo_iconCarrier"><g><path d="M57.376,46.602l10.194,-15.74c0.881,-1.359 1.36,-2.979 1.36,-4.638l-0,-4.917l2.945,-0l0,-6.307l-43.75,-0l0,6.307l2.945,-0l0,4.917c0,1.659 0.479,3.279 1.36,4.638l10.194,15.74c0.365,0.566 0.551,1.211 0.552,1.868l-0,3.058c-0.001,0.657 -0.187,1.303 -0.552,1.868l-10.194,15.742c-0.881,1.359 -1.36,2.978 -1.36,4.637l0,4.918l-2.945,-0l0,6.307l43.75,-0l0,-6.307l-2.945,-0l-0,-4.918c-0,-1.659 -0.479,-3.277 -1.36,-4.637l-10.194,-15.742c-0.365,-0.565 -0.552,-1.211 -0.552,-1.868l0,-3.057c0,-0.658 0.187,-1.303 0.552,-1.869Zm8.713,31.46l-32.178,0l0,-4.287c0,-0.988 0.283,-1.957 0.825,-2.797l10.194,-15.742c0.703,-1.084 1.087,-2.38 1.087,-3.708l-0,-3.057c-0,-1.328 -0.383,-2.625 -1.087,-3.709l-10.192,-15.74c-0.544,-0.842 -0.827,-1.809 -0.827,-2.798l0,-4.286l32.178,-0l-0,4.286c-0.002,0.989 -0.283,1.956 -0.827,2.798l-10.193,15.74c-0.703,1.084 -1.086,2.381 -1.086,3.709l0,3.057c0,1.328 0.383,2.624 1.086,3.708l10.195,15.742c0.542,0.84 0.823,1.809 0.825,2.797l-0,4.287Z" style="fill:#161716;fill-rule:nonzero;"/><path d="M46.315,43.658c0.627,0.968 2.875,4.602 3.685,4.592c0.81,-0.01 3.058,-3.624 3.685,-4.592l7.328,-11.316l-22.026,-0l7.328,11.316Z" style="fill:#161716;fill-rule:nonzero;"/><path d="M48.861,67.17l-8.108,9l18.494,0l-8.108,-9c-0.63,-0.697 -1.648,-0.697 -2.278,0Z" style="fill:#161716;fill-rule:nonzero;"/></g><path d="M50,0c27.596,0 50,22.404 50,50c0,27.596 -22.404,50 -50,50c-27.596,0 -50,-22.404 -50,-50c-0,-27.596 22.404,-50 50,-50Zm-0,4c25.388,-0 46,20.612 46,46c-0,25.388 -20.612,46 -46,46c-25.388,0 -46,-20.612 -46,-46c-0,-25.388 20.612,-46 46,-46Z" style="fill:#161716;"/></g></svg>