<?xml version="1.0" encoding="UTF-8" standalone="no"?><!DOCTYPE svg PUBLIC "-//W3C//DTD SVG 1.1//EN" "http://www.w3.org/Graphics/SVG/1.1/DTD/svg11.dtd"><svg width="100%" height="100%" viewBox="0 0 100 100" version="1.1" xmlns="http://www.w3.org/2000/svg" xmlns:xlink="http://www.w3.org/1999/xlink" xml:space="preserve" xmlns:serif="http://www.serif.com/" style="fill-rule:evenodd;clip-rule:evenodd;stroke-linejoin:round;stroke-miterlimit:2;"><g><path d="M30,12.095c-0,-0 -6.5,11.483 -6.5,16.405c0,3.587 2.913,6.5 6.5,6.5c3.587,0 6.5,-2.913 6.5,-6.5c-0,-4.922 -6.5,-16.405 -6.5,-16.405Z"/><path d="M70,12.095c0,-0 -6.5,11.483 -6.5,16.405c0,3.587 2.913,6.5 6.5,6.5c3.587,0 6.5,-2.913 6.5,-6.5c0,-4.922 -6.5,-16.405 -6.5,-16.405Z"/><path d="M50,7.095c-0,-0 -6.5,11.483 -6.5,16.405c-0,3.587 2.913,6.5 6.5,6.5c3.587,0 6.5,-2.913 6.5,-6.5c-0,-4.922 -6.5,-16.405 -6.5,-16.405Z"/><text x="21.547px" y="87.906px" style="font-family:'Arial-BoldMT', 'Arial', sans-serif;font-weight:700;font-size:64px;">%</text></g></svg>