<?xml version="1.0" encoding="UTF-8" standalone="no"?><!DOCTYPE svg PUBLIC "-//W3C//DTD SVG 1.1//EN" "http://www.w3.org/Graphics/SVG/1.1/DTD/svg11.dtd"><svg width="100%" height="100%" viewBox="0 0 100 100" version="1.1" xmlns="http://www.w3.org/2000/svg" xmlns:xlink="http://www.w3.org/1999/xlink" xml:space="preserve" xmlns:serif="http://www.serif.com/" style="fill-rule:evenodd;clip-rule:evenodd;stroke-linecap:square;stroke-miterlimit:1.5;"><g><path d="M57.488,78.422c0,-4.691 -3.803,-8.5 -8.488,-8.5c-4.685,0 -8.488,3.809 -8.488,8.5c-0,4.691 3.803,8.5 8.488,8.5c4.685,0 8.488,-3.809 8.488,-8.5Z"/><path d="M57.488,78.422c0,-4.691 -3.803,-8.5 -8.488,-8.5c-4.685,0 -8.488,3.809 -8.488,8.5c-0,4.691 3.803,8.5 8.488,8.5c4.685,0 8.488,-3.809 8.488,-8.5Zm-3,0c0,3.035 -2.458,5.5 -5.488,5.5c-3.03,0 -5.488,-2.465 -5.488,-5.5c-0,-3.034 2.458,-5.5 5.488,-5.5c3.03,0 5.488,2.466 5.488,5.5Z"/><path d="M49,77.5l0,-48.5" style="fill:none;stroke:#000;stroke-width:5px;"/><path d="M68.197,22.578l-11.5,-0" style="fill:none;stroke:#000;stroke-width:3px;"/><path d="M68.197,12.578l-11.5,-0" style="fill:none;stroke:#000;stroke-width:3px;"/><path d="M68.197,32.578l-11.5,-0" style="fill:none;stroke:#000;stroke-width:3px;"/><path d="M68.197,52.578l-11.5,-0" style="fill:none;stroke:#000;stroke-width:3px;"/><path d="M68.197,62.578l-11.5,-0" style="fill:none;stroke:#000;stroke-width:3px;"/><path d="M68.197,42.578l-11.5,-0" style="fill:none;stroke:#000;stroke-width:3px;"/><path d="M40.348,11.654l0,52.128c-5.106,2.933 -8.545,8.414 -8.545,14.684c0,9.359 7.658,16.956 17.09,16.956c9.432,0 17.09,-7.597 17.09,-16.956c0,-6.27 -3.438,-11.751 -8.545,-14.684l0,-52.128c-0.674,-4.013 -4.31,-7.076 -8.545,-7.076c-4.235,-0 -7.871,3.063 -8.545,7.076Zm3.001,0.275c0.533,-2.5 2.867,-4.351 5.544,-4.351c2.677,-0 5.011,1.851 5.544,4.35c0.001,0.005 0.001,53.591 0.001,53.591l1.506,0.865c4.203,2.414 7.039,6.921 7.039,12.082c0,7.709 -6.32,13.956 -14.09,13.956c-7.77,0 -14.09,-6.247 -14.09,-13.956c0,-5.161 2.836,-9.668 7.039,-12.082l1.506,-0.865l0,-53.586l0.001,-0.004Z"/></g></svg>