<?xml version="1.0" encoding="UTF-8" standalone="no"?><!DOCTYPE svg PUBLIC "-//W3C//DTD SVG 1.1//EN" "http://www.w3.org/Graphics/SVG/1.1/DTD/svg11.dtd"><svg width="100%" height="100%" viewBox="0 0 100 100" version="1.1" xmlns="http://www.w3.org/2000/svg" xmlns:xlink="http://www.w3.org/1999/xlink" xml:space="preserve" xmlns:serif="http://www.serif.com/" style="fill-rule:evenodd;clip-rule:evenodd;stroke-linejoin:round;stroke-miterlimit:2;"><path d="M57,30c0,0 -5,10.5 -5,15c0,2.76 2.24,5 5,5c2.76,0 5,-2.24 5,-5c0,-4.5 -5,-15 -5,-15Z"/><path d="M72,30c0,0 -5,10.5 -5,15c0,2.76 2.24,5 5,5c2.76,0 5,-2.24 5,-5c0,-4.5 -5,-15 -5,-15Z"/><path d="M65,50c0,0 -5,10.5 -5,15c0,2.76 2.24,5 5,5c2.76,0 5,-2.24 5,-5c0,-4.5 -5,-15 -5,-15Z"/><path d="M79,50c0,0 -5,10.5 -5,15c0,2.76 2.24,5 5,5c2.76,0 5,-2.24 5,-5c0,-4.5 -5,-15 -5,-15Z"/><path d="M87,30c0,0 -5,10.5 -5,15c0,2.76 2.24,5 5,5c2.76,0 5,-2.24 5,-5c0,-4.5 -5,-15 -5,-15Z"/><text x="8px" y="67.896px" style="font-family:'Arial-BoldMT', 'Arial', sans-serif;font-weight:700;font-size:50px;">%</text></svg>