<?xml version="1.0" encoding="UTF-8" standalone="no"?><!DOCTYPE svg PUBLIC "-//W3C//DTD SVG 1.1//EN" "http://www.w3.org/Graphics/SVG/1.1/DTD/svg11.dtd"><svg width="100%" height="100%" viewBox="0 0 64 64" version="1.1" xmlns="http://www.w3.org/2000/svg" xmlns:xlink="http://www.w3.org/1999/xlink" xml:space="preserve" xmlns:serif="http://www.serif.com/" style="fill-rule:evenodd;clip-rule:evenodd;stroke-linejoin:round;stroke-miterlimit:2;"><circle cx="32" cy="32" r="32" style="fill:#8caaaf;"/><path d="M28.504,9.873c2.243,-0.836 4.576,-0.806 5.799,0.212c0.229,0.191 0.408,0.408 0.536,0.643c0.283,-0.043 0.576,-0.065 0.877,-0.065c2.411,0 4.367,1.445 4.367,3.225c0,1.781 -1.956,3.226 -4.367,3.226l-0.059,0c-0.412,1.562 -2.883,2.764 -5.867,2.764c-2.776,0 -5.109,-1.041 -5.751,-2.444c-2.26,0.842 -4.611,0.809 -5.834,-0.22c-0.228,-0.192 -0.405,-0.409 -0.531,-0.645c-0.285,0.042 -0.578,0.063 -0.879,0.062c-2.41,-0.008 -4.357,-1.461 -4.345,-3.241c0.011,-1.78 1.977,-3.218 4.388,-3.209l0.059,0c0.423,-1.56 2.902,-2.754 5.886,-2.743c2.756,0.01 5.068,1.045 5.721,2.435Z" style="fill:#cacacf;stroke:#6a737d;stroke-width:0.9px;"/><path d="M36.36,31.207c-0.003,0.027 -0.008,0.055 -0.013,0.083c-0.294,1.562 -2.285,2.657 -4.445,2.444c-0.017,-0.002 -0.035,-0.004 -0.054,-0.005c-0.626,1.333 -3.039,2.171 -5.712,1.907c-2.468,-0.244 -4.376,-1.348 -4.739,-2.625c-2.144,0.543 -4.23,0.318 -5.164,-0.68c-0.176,-0.187 -0.301,-0.392 -0.379,-0.61c-0.26,0.014 -0.527,0.009 -0.797,-0.017c-2.16,-0.205 -3.683,-1.64 -3.399,-3.203c0.007,-0.041 0.015,-0.083 0.026,-0.124c-0.091,-0.029 -0.178,-0.061 -0.261,-0.094c-0.148,0.066 -0.316,0.115 -0.502,0.137c-0.811,0.098 -1.653,-0.31 -1.881,-0.912c-0.105,-0.281 -0.059,-0.555 0.103,-0.777c-2.101,-0.66 -3.328,-2.487 -2.757,-4.192c0.595,-1.782 2.927,-2.76 5.205,-2.183c0.525,0.133 1.001,0.336 1.416,0.593c2.016,-0.658 4.772,-0.707 7.599,0.009c0.914,0.231 1.772,0.527 2.559,0.871c0.329,-0.1 0.682,-0.185 1.054,-0.251c1.552,-0.273 3.111,-0.162 4.291,0.235c0.219,-0.117 0.475,-0.205 0.763,-0.256c1.249,-0.221 2.629,0.349 3.078,1.27c0.361,0.739 0.015,1.481 -0.78,1.86c0.696,0.195 1.34,0.435 1.914,0.714c0.422,-0.159 0.897,-0.261 1.414,-0.292c2.243,-0.134 4.412,1.121 4.841,2.802c0.43,1.682 -1.044,3.157 -3.286,3.291c-0.032,0.002 -0.062,0.004 -0.094,0.005Z" style="fill:#a5abaf;stroke:#6a737d;stroke-width:0.9px;"/><path d="M58.821,23.227c0.02,0.03 0.038,0.06 0.057,0.091c1.029,1.728 0.079,3.787 -2.124,4.595c-0.019,0.007 -0.037,0.013 -0.054,0.02c0.526,1.654 -1.036,3.651 -3.761,4.65c-2.519,0.925 -5.23,0.704 -6.637,-0.421c-1.555,1.57 -3.698,2.332 -5.409,1.758c-0.32,-0.107 -0.61,-0.256 -0.863,-0.441c-0.233,0.139 -0.488,0.259 -0.762,0.361c-2.197,0.816 -4.824,0.08 -5.864,-1.644c-0.027,-0.047 -0.053,-0.093 -0.078,-0.14c-0.11,0.013 -0.218,0.022 -0.325,0.028c-0.081,0.138 -0.199,0.267 -0.356,0.378c-0.676,0.485 -1.808,0.468 -2.524,-0.036c-0.333,-0.237 -0.519,-0.537 -0.554,-0.839c-2.52,0.325 -5.196,-0.952 -6.087,-2.957c-0.93,-2.096 0.439,-4.197 3.056,-4.692c0.602,-0.113 1.219,-0.131 1.823,-0.067c1.34,-1.626 3.88,-2.984 7.129,-3.598c1.051,-0.197 2.103,-0.304 3.128,-0.326c0.225,-0.26 0.485,-0.512 0.778,-0.756c1.226,-1.014 2.78,-1.641 4.219,-1.798c0.106,-0.221 0.273,-0.433 0.5,-0.621c0.987,-0.818 2.757,-0.893 3.948,-0.169c0.956,0.58 1.251,1.501 0.822,2.263c0.816,-0.132 1.621,-0.193 2.391,-0.182c0.263,-0.361 0.624,-0.691 1.081,-0.968c1.99,-1.2 5.073,-0.952 6.881,0.554c1.808,1.508 1.659,3.707 -0.331,4.908c-0.028,0.016 -0.056,0.033 -0.084,0.049Z" style="fill:#a5abaf;stroke:#6a737d;stroke-width:0.9px;"/><path d="M31.342,10.331c0.645,-1.556 2.049,-2.967 4.072,-3.876c4.14,-1.859 9.316,-0.922 11.553,2.092c0.316,0.425 0.556,0.869 0.724,1.323c3.919,1.212 6.691,3.344 7.242,5.83c0.373,0.161 0.727,0.368 1.055,0.62c1.821,1.398 2.419,3.862 1.791,6.357c0.437,0.141 0.819,0.391 1.105,0.748c0.952,1.192 0.478,3.138 -1.058,4.343c-1.305,1.024 -2.962,1.185 -4.014,0.477c-0.64,0.432 -1.314,0.77 -1.998,1.009c-0.092,0.092 -0.186,0.182 -0.284,0.27c-2.629,2.383 -6.508,2.76 -8.789,0.898c-0.027,0.008 -0.056,0.014 -0.083,0.022c-1.489,0.361 -2.969,0.098 -3.962,-0.594c-1.912,1.55 -5.174,2.571 -8.875,2.571c-3.337,0 -6.319,-0.831 -8.273,-2.131c-0.545,0.168 -1.137,0.261 -1.757,0.261c-1.84,0 -3.445,-0.817 -4.273,-2.023c-2.465,0.31 -5.058,0.21 -7.288,-0.378c-4.876,-1.284 -6.198,-4.41 -2.95,-6.975c0.155,-0.124 0.318,-0.242 0.487,-0.358c-0.426,-0.076 -0.817,-0.25 -1.137,-0.524c-1.083,-0.934 -0.921,-2.683 0.361,-3.906c1.089,-1.04 2.642,-1.366 3.749,-0.866c2.159,-1.775 5.029,-2.329 7.234,-1.175c0.387,0.203 0.736,0.449 1.042,0.73c0.437,-0.073 0.884,-0.138 1.341,-0.194c0.258,-1.569 1.969,-3.08 4.345,-3.657c0.755,-0.183 1.503,-0.254 2.208,-0.227c0.321,-0.342 0.744,-0.598 1.244,-0.72c1.123,-0.272 2.292,0.219 2.93,1.139c0.68,-0.401 1.437,-0.765 2.258,-1.086Z" style="fill:#dfe2e4;stroke:#6a737d;stroke-width:0.9px;"/><path d="M19.687,20.521c0.586,-1.804 4.111,-3.192 8.366,-3.192c4.665,0 8.45,1.668 8.45,3.724c0,0.269 -0.065,0.532 -0.189,0.786c1.238,1.615 -0.17,4.075 -3.559,5.871c-3.866,2.049 -8.858,2.465 -11.138,0.927c-0.328,-0.221 -0.581,-0.472 -0.765,-0.743c-0.404,0.05 -0.822,0.075 -1.251,0.075c-3.438,0 -6.227,-1.668 -6.227,-3.724c0,-2.056 2.789,-3.724 6.227,-3.724l0.086,0Z" style="fill:#efeff0;stroke:#6a737d;stroke-width:0.9px;"/><path d="M29.25,26.283c-2.38,0.986 -4.857,0.952 -6.154,-0.25c-0.244,-0.226 -0.433,-0.482 -0.57,-0.759c-0.3,0.051 -0.612,0.077 -0.93,0.077c-2.559,0 -4.635,-1.705 -4.635,-3.807c0,-2.101 2.076,-3.807 4.635,-3.807l0.063,0c0.437,-1.844 3.06,-3.263 6.226,-3.263c2.946,0 5.422,1.229 6.104,2.884c2.398,-0.992 4.893,-0.953 6.19,0.261c0.243,0.226 0.43,0.483 0.564,0.761c0.302,-0.05 0.613,-0.075 0.932,-0.075c2.558,0.012 4.624,1.726 4.612,3.827c-0.012,2.101 -2.098,3.799 -4.657,3.788l-0.063,0c-0.447,1.841 -3.078,3.251 -6.246,3.238c-2.925,-0.012 -5.378,-1.234 -6.071,-2.875Z" style="fill:#fafafa;stroke:#6a737d;stroke-width:0.9px;"/><path d="M41.366,26.802c-2.106,0.808 -4.297,0.78 -5.444,-0.205c-0.215,-0.185 -0.383,-0.395 -0.504,-0.622c-0.265,0.042 -0.541,0.063 -0.823,0.063c-2.262,0 -4.098,-1.397 -4.098,-3.119c0,-1.722 1.836,-3.12 4.098,-3.12l0.056,0c0.387,-1.511 2.706,-2.674 5.507,-2.674c2.607,0 4.795,1.008 5.399,2.364c2.121,-0.814 4.326,-0.782 5.475,0.213c0.215,0.185 0.38,0.396 0.498,0.623c0.267,-0.04 0.543,-0.061 0.824,-0.06c2.264,0.009 4.09,1.414 4.08,3.135c-0.01,1.722 -1.856,3.113 -4.119,3.104l-0.056,0c-0.396,1.509 -2.723,2.665 -5.524,2.654c-2.586,-0.01 -4.758,-1.011 -5.369,-2.356Z" style="fill:#bdbdc1;stroke:#6a737d;stroke-width:0.9px;"/><path d="M27.298,40.889c0,-0 -0.603,2.063 -0.603,2.947c-0,0.333 0.27,0.603 0.603,0.603c0.333,-0 0.603,-0.27 0.603,-0.603c0,-0.884 -0.603,-2.947 -0.603,-2.947Z" style="fill:#baccd3;"/><path d="M27.298,40.889c0,-0 -0.603,2.063 -0.603,2.947c-0,0.333 0.27,0.603 0.603,0.603c0.333,-0 0.603,-0.27 0.603,-0.603c0,-0.884 -0.603,-2.947 -0.603,-2.947Zm0,1.114c0.154,0.625 0.315,1.384 0.315,1.833c-0,0.173 -0.141,0.314 -0.315,0.314c-0.174,0 -0.315,-0.141 -0.315,-0.314c0,-0.449 0.161,-1.209 0.315,-1.833Z" style="fill:#4270e1;"/><path d="M42.509,48.211c-0,-0 -0.604,1.441 -0.604,2.059c0,0.333 0.271,0.603 0.604,0.603c0.332,0 0.603,-0.27 0.603,-0.603c-0,-0.618 -0.603,-2.059 -0.603,-2.059Z" style="fill:#baccd3;"/><path d="M42.509,48.211c-0,-0 -0.604,1.441 -0.604,2.059c0,0.333 0.271,0.603 0.604,0.603c0.332,0 0.603,-0.27 0.603,-0.603c-0,-0.618 -0.603,-2.059 -0.603,-2.059Zm-0,0.797c0.152,0.428 0.314,0.953 0.314,1.262c0,0.174 -0.141,0.315 -0.314,0.315c-0.174,-0 -0.315,-0.141 -0.315,-0.315c-0,-0.309 0.162,-0.834 0.315,-1.262Z" style="fill:#4270e1;"/><path d="M33.934,40.001c-0,0 -0.603,1.442 -0.603,2.06c-0,0.332 0.27,0.603 0.603,0.603c0.333,-0 0.603,-0.271 0.603,-0.603c0,-0.618 -0.603,-2.06 -0.603,-2.06Z" style="fill:#baccd3;"/><path d="M33.934,40.001c-0,0 -0.603,1.442 -0.603,2.06c-0,0.332 0.27,0.603 0.603,0.603c0.333,-0 0.603,-0.271 0.603,-0.603c0,-0.618 -0.603,-2.06 -0.603,-2.06Zm-0,0.798c0.153,0.427 0.315,0.953 0.315,1.262c-0,0.173 -0.141,0.314 -0.315,0.314c-0.174,0 -0.315,-0.141 -0.315,-0.314c0,-0.309 0.162,-0.835 0.315,-1.262Z" style="fill:#4270e1;"/><path d="M32.939,30.777c0,-0 -0.603,1.441 -0.603,2.059c-0,0.333 0.27,0.603 0.603,0.603c0.333,0 0.603,-0.27 0.603,-0.603c0,-0.618 -0.603,-2.059 -0.603,-2.059Z" style="fill:#baccd3;"/><path d="M32.939,30.777c0,-0 -0.603,1.441 -0.603,2.059c-0,0.333 0.27,0.603 0.603,0.603c0.333,0 0.603,-0.27 0.603,-0.603c0,-0.618 -0.603,-2.059 -0.603,-2.059Zm0,0.797c0.153,0.427 0.315,0.953 0.315,1.262c-0,0.174 -0.141,0.315 -0.315,0.315c-0.174,-0 -0.315,-0.141 -0.315,-0.315c0,-0.309 0.162,-0.835 0.315,-1.262Z" style="fill:#4270e1;"/><path d="M48.24,45.548c-0,0 -0.604,1.442 -0.604,2.06c0,0.332 0.271,0.603 0.604,0.603c0.333,-0 0.603,-0.271 0.603,-0.603c-0,-0.618 -0.603,-2.06 -0.603,-2.06Z" style="fill:#baccd3;"/><path d="M48.24,45.548c-0,0 -0.604,1.442 -0.604,2.06c0,0.332 0.271,0.603 0.604,0.603c0.333,-0 0.603,-0.271 0.603,-0.603c-0,-0.618 -0.603,-2.06 -0.603,-2.06Zm-0,0.798c0.152,0.427 0.314,0.953 0.314,1.262c0,0.173 -0.141,0.314 -0.314,0.314c-0.174,0 -0.315,-0.141 -0.315,-0.314c-0,-0.309 0.162,-0.835 0.315,-1.262Z" style="fill:#4270e1;"/><path d="M19.545,28.794c-0,-0 -0.755,3.2 -0.755,4.571c0,0.416 0.338,0.754 0.755,0.754c0.416,0 0.754,-0.338 0.754,-0.754c-0,-1.371 -0.754,-4.571 -0.754,-4.571Z" style="fill:#baccd3;"/><path d="M19.545,28.794c-0,-0 -0.755,3.2 -0.755,4.571c0,0.416 0.338,0.754 0.755,0.754c0.416,0 0.754,-0.338 0.754,-0.754c-0,-1.371 -0.754,-4.571 -0.754,-4.571Zm-0,1.35c0.211,1.031 0.465,2.433 0.465,3.221c0,0.257 -0.208,0.466 -0.465,0.466c-0.257,-0 -0.466,-0.209 -0.466,-0.466c0,-0.788 0.254,-2.19 0.466,-3.221Z" style="fill:#4270e1;"/><path d="M45.827,48.211c-0,-0 -0.905,2.473 -0.905,3.532c-0,0.5 0.405,0.905 0.905,0.905c0.499,0 0.904,-0.405 0.904,-0.905c0,-1.059 -0.904,-3.532 -0.904,-3.532Z" style="fill:#baccd3;"/><path d="M45.827,48.211c-0,-0 -0.905,2.473 -0.905,3.532c-0,0.5 0.405,0.905 0.905,0.905c0.499,0 0.904,-0.405 0.904,-0.905c0,-1.059 -0.904,-3.532 -0.904,-3.532Zm-0,0.884c0.26,0.794 0.616,1.996 0.616,2.648c-0,0.341 -0.276,0.617 -0.616,0.617c-0.341,-0 -0.617,-0.276 -0.617,-0.617c0,-0.652 0.356,-1.854 0.617,-2.648Z" style="fill:#4270e1;"/><path d="M36.347,40.001c0,0 -0.905,2.473 -0.905,3.533c0,0.499 0.406,0.905 0.905,0.905c0.499,-0 0.905,-0.406 0.905,-0.905c-0,-1.06 -0.905,-3.533 -0.905,-3.533Z" style="fill:#baccd3;"/><path d="M36.347,40.001c0,0 -0.905,2.473 -0.905,3.533c0,0.499 0.406,0.905 0.905,0.905c0.499,-0 0.905,-0.406 0.905,-0.905c-0,-1.06 -0.905,-3.533 -0.905,-3.533Zm0,0.884c0.261,0.795 0.616,1.997 0.616,2.649c0,0.34 -0.276,0.616 -0.616,0.616c-0.34,0 -0.616,-0.276 -0.616,-0.616c-0,-0.652 0.355,-1.854 0.616,-2.649Z" style="fill:#4270e1;"/><path d="M32.124,41.776c0,0 -1.206,2.883 -1.206,4.119c-0,0.666 0.54,1.206 1.206,1.206c0.666,0 1.207,-0.54 1.207,-1.206c-0,-1.236 -1.207,-4.119 -1.207,-4.119Z" style="fill:#baccd3;"/><path d="M32.124,41.776c0,0 -1.206,2.883 -1.206,4.119c-0,0.666 0.54,1.206 1.206,1.206c0.666,0 1.207,-0.54 1.207,-1.206c-0,-1.236 -1.207,-4.119 -1.207,-4.119Zm0,1.386c0.326,0.89 0.702,2.064 0.702,2.733c-0,0.387 -0.315,0.701 -0.702,0.701c-0.387,0 -0.701,-0.314 -0.701,-0.701c-0,-0.669 0.376,-1.843 0.701,-2.733Z" style="fill:#4270e1;"/><path d="M12.895,47.961c0,-0 -1.659,3.187 -1.659,4.553c0,0.916 0.744,1.659 1.659,1.659c0.916,0 1.659,-0.743 1.659,-1.659c0,-1.366 -1.659,-4.553 -1.659,-4.553Z" style="fill:#baccd3;"/><path d="M12.895,47.961c0,-0 -1.659,3.187 -1.659,4.553c0,0.916 0.744,1.659 1.659,1.659c0.916,0 1.659,-0.743 1.659,-1.659c0,-1.366 -1.659,-4.553 -1.659,-4.553Zm0,1.148c0.26,0.556 0.583,1.29 0.824,1.985c0.187,0.54 0.33,1.053 0.33,1.42c0,0.637 -0.517,1.154 -1.154,1.154c-0.637,0 -1.154,-0.517 -1.154,-1.154c0,-0.367 0.143,-0.88 0.331,-1.42c0.241,-0.695 0.563,-1.429 0.823,-1.985Z" style="fill:#4270e1;"/><path d="M45.237,53.583c0,0 -1.659,3.188 -1.659,4.554c0,0.915 0.744,1.659 1.659,1.659c0.916,-0 1.659,-0.744 1.659,-1.659c0,-1.366 -1.659,-4.554 -1.659,-4.554Z" style="fill:#baccd3;"/><path d="M45.237,53.583c0,0 -1.659,3.188 -1.659,4.554c0,0.915 0.744,1.659 1.659,1.659c0.916,-0 1.659,-0.744 1.659,-1.659c0,-1.366 -1.659,-4.554 -1.659,-4.554Zm0,1.149c0.26,0.555 0.583,1.289 0.824,1.984c0.187,0.541 0.33,1.053 0.33,1.421c0,0.637 -0.517,1.154 -1.154,1.154c-0.637,-0 -1.154,-0.517 -1.154,-1.154c0,-0.368 0.143,-0.88 0.331,-1.421c0.241,-0.695 0.563,-1.429 0.823,-1.984Z" style="fill:#4270e1;"/><path d="M28.24,45.26c0,0 -1.196,2.89 -1.196,4.129c-0,0.66 0.536,1.196 1.196,1.196c0.661,0 1.197,-0.536 1.197,-1.196c-0,-1.239 -1.197,-4.129 -1.197,-4.129Z" style="fill:#baccd3;"/><path d="M28.24,45.26c0,0 -1.196,2.89 -1.196,4.129c-0,0.66 0.536,1.196 1.196,1.196c0.661,0 1.197,-0.536 1.197,-1.196c-0,-1.239 -1.197,-4.129 -1.197,-4.129Zm0,1.4c0.322,0.891 0.692,2.061 0.692,2.729c0,0.382 -0.31,0.691 -0.692,0.691c-0.381,0 -0.691,-0.309 -0.691,-0.691c-0,-0.668 0.37,-1.838 0.691,-2.729Z" style="fill:#4270e1;"/><path d="M28.203,35.564c-0,-0 -0.905,2.473 -0.905,3.532c0,0.5 0.406,0.905 0.905,0.905c0.499,0 0.905,-0.405 0.905,-0.905c-0,-1.059 -0.905,-3.532 -0.905,-3.532Z" style="fill:#baccd3;"/><path d="M28.203,35.564c-0,-0 -0.905,2.473 -0.905,3.532c0,0.5 0.406,0.905 0.905,0.905c0.499,0 0.905,-0.405 0.905,-0.905c-0,-1.059 -0.905,-3.532 -0.905,-3.532Zm-0,0.884c0.261,0.794 0.616,1.996 0.616,2.648c0,0.341 -0.276,0.617 -0.616,0.617c-0.34,-0 -0.616,-0.276 -0.616,-0.617c-0,-0.652 0.355,-1.854 0.616,-2.648Z" style="fill:#4270e1;"/><path d="M29.409,41.111c0,-0 -0.603,2.062 -0.603,2.946c0,0.333 0.271,0.604 0.603,0.604c0.333,-0 0.604,-0.271 0.604,-0.604c-0,-0.884 -0.604,-2.946 -0.604,-2.946Z" style="fill:#baccd3;"/><path d="M29.409,41.111c0,-0 -0.603,2.062 -0.603,2.946c0,0.333 0.271,0.604 0.603,0.604c0.333,-0 0.604,-0.271 0.604,-0.604c-0,-0.884 -0.604,-2.946 -0.604,-2.946Zm0,1.114c0.154,0.624 0.315,1.384 0.315,1.832c0,0.174 -0.141,0.315 -0.315,0.315c-0.173,0 -0.314,-0.141 -0.314,-0.315c-0,-0.448 0.161,-1.208 0.314,-1.832Z" style="fill:#4270e1;"/><path d="M15.253,37.254c0,-0 -0.603,2.062 -0.603,2.947c0,0.332 0.27,0.603 0.603,0.603c0.333,-0 0.604,-0.271 0.604,-0.603c-0,-0.885 -0.604,-2.947 -0.604,-2.947Z" style="fill:#baccd3;"/><path d="M15.253,37.254c0,-0 -0.603,2.062 -0.603,2.947c0,0.332 0.27,0.603 0.603,0.603c0.333,-0 0.604,-0.271 0.604,-0.603c-0,-0.885 -0.604,-2.947 -0.604,-2.947Zm0,1.114c0.154,0.624 0.315,1.384 0.315,1.833c0,0.173 -0.141,0.314 -0.315,0.314c-0.173,0 -0.314,-0.141 -0.314,-0.314c-0,-0.449 0.16,-1.209 0.314,-1.833Z" style="fill:#4270e1;"/><path d="M41.192,43.485c0,0 -0.603,2.063 -0.603,2.947c0,0.333 0.27,0.603 0.603,0.603c0.333,0 0.604,-0.27 0.604,-0.603c-0,-0.884 -0.604,-2.947 -0.604,-2.947Z" style="fill:#baccd3;"/><path d="M41.192,43.485c0,0 -0.603,2.063 -0.603,2.947c0,0.333 0.27,0.603 0.603,0.603c0.333,0 0.604,-0.27 0.604,-0.603c-0,-0.884 -0.604,-2.947 -0.604,-2.947Zm0,1.114c0.154,0.625 0.315,1.385 0.315,1.833c0,0.174 -0.141,0.315 -0.315,0.315c-0.173,-0 -0.314,-0.141 -0.314,-0.315c-0,-0.448 0.16,-1.208 0.314,-1.833Z" style="fill:#4270e1;"/><path d="M34.603,33.837c0,0 -0.603,1.442 -0.603,2.06c0,0.333 0.27,0.603 0.603,0.603c0.333,-0 0.604,-0.27 0.604,-0.603c-0,-0.618 -0.604,-2.06 -0.604,-2.06Z" style="fill:#baccd3;"/><path d="M34.603,33.837c0,0 -0.603,1.442 -0.603,2.06c0,0.333 0.27,0.603 0.603,0.603c0.333,-0 0.604,-0.27 0.604,-0.603c-0,-0.618 -0.604,-2.06 -0.604,-2.06Zm0,0.798c0.153,0.427 0.315,0.953 0.315,1.262c0,0.173 -0.141,0.314 -0.315,0.314c-0.173,0 -0.314,-0.141 -0.314,-0.314c-0,-0.309 0.161,-0.835 0.314,-1.262Z" style="fill:#4270e1;"/><path d="M18.551,44.883c-0,-0 -0.604,1.441 -0.604,2.059c0,0.333 0.271,0.603 0.604,0.603c0.333,0 0.603,-0.27 0.603,-0.603c-0,-0.618 -0.603,-2.059 -0.603,-2.059Z" style="fill:#baccd3;"/><path d="M18.551,44.883c-0,-0 -0.604,1.441 -0.604,2.059c0,0.333 0.271,0.603 0.604,0.603c0.333,0 0.603,-0.27 0.603,-0.603c-0,-0.618 -0.603,-2.059 -0.603,-2.059Zm-0,0.797c0.152,0.427 0.314,0.953 0.314,1.262c0,0.174 -0.141,0.315 -0.314,0.315c-0.174,-0 -0.315,-0.141 -0.315,-0.315c-0,-0.309 0.162,-0.835 0.315,-1.262Z" style="fill:#4270e1;"/><path d="M50.049,42.442c0,-0 -0.603,1.441 -0.603,2.059c0,0.333 0.27,0.603 0.603,0.603c0.333,0 0.604,-0.27 0.604,-0.603c-0,-0.618 -0.604,-2.059 -0.604,-2.059Z" style="fill:#baccd3;"/><path d="M50.049,42.442c0,-0 -0.603,1.441 -0.603,2.059c0,0.333 0.27,0.603 0.603,0.603c0.333,0 0.604,-0.27 0.604,-0.603c-0,-0.618 -0.604,-2.059 -0.604,-2.059Zm0,0.797c0.153,0.428 0.315,0.953 0.315,1.262c0,0.174 -0.141,0.315 -0.315,0.315c-0.173,-0 -0.314,-0.141 -0.314,-0.315c-0,-0.309 0.162,-0.834 0.314,-1.262Z" style="fill:#4270e1;"/><path d="M47.684,31.683c0,0 0.597,2.068 0.597,2.954c-0,0.329 -0.268,0.596 -0.597,0.596c-0.329,0 -0.596,-0.267 -0.596,-0.596c-0,-0.886 0.596,-2.954 0.596,-2.954Z" style="fill:#baccd3;"/><path d="M47.684,31.683c0,0 0.597,2.068 0.597,2.954c-0,0.329 -0.268,0.596 -0.597,0.596c-0.329,0 -0.596,-0.267 -0.596,-0.596c-0,-0.886 0.596,-2.954 0.596,-2.954Zm0,1.13c0.151,0.623 0.308,1.377 0.308,1.824c0,0.17 -0.138,0.308 -0.308,0.308c-0.17,-0 -0.308,-0.138 -0.308,-0.308c0,-0.447 0.157,-1.201 0.308,-1.824Z" style="fill:#4270e1;"/><path d="M37.252,36.895c-0,-0 0.596,1.446 0.596,2.066c0,0.329 -0.267,0.596 -0.596,0.596c-0.329,0 -0.597,-0.267 -0.597,-0.596c0,-0.62 0.597,-2.066 0.597,-2.066Z" style="fill:#baccd3;"/><path d="M37.252,36.895c-0,-0 0.596,1.446 0.596,2.066c0,0.329 -0.267,0.596 -0.596,0.596c-0.329,0 -0.597,-0.267 -0.597,-0.596c0,-0.62 0.597,-2.066 0.597,-2.066Zm-0,0.808c0.15,0.428 0.308,0.95 0.308,1.258c-0,0.17 -0.138,0.308 -0.308,0.308c-0.17,-0 -0.308,-0.138 -0.308,-0.308c0,-0.308 0.158,-0.83 0.308,-1.258Z" style="fill:#4270e1;"/><path d="M43.551,37.461c-0,0 0.596,1.447 0.596,2.066c0,0.33 -0.267,0.597 -0.596,0.597c-0.33,-0 -0.597,-0.267 -0.597,-0.597c0,-0.619 0.597,-2.066 0.597,-2.066Z" style="fill:#baccd3;"/><path d="M43.551,37.461c-0,0 0.596,1.447 0.596,2.066c0,0.33 -0.267,0.597 -0.596,0.597c-0.33,-0 -0.597,-0.267 -0.597,-0.597c0,-0.619 0.597,-2.066 0.597,-2.066Zm-0,0.809c0.15,0.427 0.307,0.95 0.307,1.257c0,0.17 -0.138,0.308 -0.307,0.308c-0.17,0 -0.308,-0.138 -0.308,-0.308c-0,-0.307 0.157,-0.83 0.308,-1.257Z" style="fill:#4270e1;"/><path d="M38.596,30.837c0,0 0.597,1.447 0.597,2.067c-0,0.329 -0.267,0.596 -0.597,0.596c-0.329,0 -0.596,-0.267 -0.596,-0.596c-0,-0.62 0.596,-2.067 0.596,-2.067Z" style="fill:#baccd3;"/><path d="M38.596,30.837c0,0 0.597,1.447 0.597,2.067c-0,0.329 -0.267,0.596 -0.597,0.596c-0.329,0 -0.596,-0.267 -0.596,-0.596c-0,-0.62 0.596,-2.067 0.596,-2.067Zm0,0.809c0.151,0.427 0.308,0.95 0.308,1.258c0,0.169 -0.138,0.307 -0.308,0.307c-0.169,0 -0.307,-0.138 -0.307,-0.307c-0,-0.308 0.157,-0.831 0.307,-1.258Z" style="fill:#4270e1;"/><path d="M25.797,37.339c-0,-0 0.596,1.446 0.596,2.066c0,0.329 -0.267,0.596 -0.596,0.596c-0.33,0 -0.597,-0.267 -0.597,-0.596c0,-0.62 0.597,-2.066 0.597,-2.066Z" style="fill:#baccd3;"/><path d="M25.797,37.339c-0,-0 0.596,1.446 0.596,2.066c0,0.329 -0.267,0.596 -0.596,0.596c-0.33,0 -0.597,-0.267 -0.597,-0.596c0,-0.62 0.597,-2.066 0.597,-2.066Zm-0,0.808c0.15,0.428 0.308,0.95 0.308,1.258c-0,0.17 -0.138,0.308 -0.308,0.308c-0.17,-0 -0.308,-0.138 -0.308,-0.308c-0,-0.308 0.157,-0.83 0.308,-1.258Z" style="fill:#4270e1;"/><path d="M41.626,29.228c-0,0 0.745,3.206 0.745,4.58c0,0.411 -0.334,0.745 -0.745,0.745c-0.412,0 -0.746,-0.334 -0.746,-0.745c0,-1.374 0.746,-4.58 0.746,-4.58Z" style="fill:#baccd3;"/><path d="M41.626,29.228c-0,0 0.745,3.206 0.745,4.58c0,0.411 -0.334,0.745 -0.745,0.745c-0.412,0 -0.746,-0.334 -0.746,-0.745c0,-1.374 0.746,-4.58 0.746,-4.58Zm-0,1.369c0.208,1.031 0.457,2.425 0.457,3.211c-0,0.252 -0.205,0.457 -0.457,0.457c-0.252,-0 -0.457,-0.205 -0.457,-0.457c-0,-0.786 0.248,-2.18 0.457,-3.211Z" style="fill:#4270e1;"/><path d="M30.928,56.42c-0,0 0.895,2.48 0.895,3.543c-0,0.494 -0.401,0.895 -0.895,0.895c-0.494,-0 -0.895,-0.401 -0.895,-0.895c0,-1.063 0.895,-3.543 0.895,-3.543Z" style="fill:#baccd3;"/><path d="M30.928,56.42c-0,0 0.895,2.48 0.895,3.543c-0,0.494 -0.401,0.895 -0.895,0.895c-0.494,-0 -0.895,-0.401 -0.895,-0.895c0,-1.063 0.895,-3.543 0.895,-3.543Zm-0,0.896c0.258,0.798 0.606,1.996 0.606,2.647c0,0.335 -0.272,0.606 -0.606,0.606c-0.335,0 -0.606,-0.271 -0.606,-0.606c-0,-0.651 0.348,-1.85 0.606,-2.647Z" style="fill:#4270e1;"/><path d="M8.193,45.312c-0,0 1.193,2.893 1.193,4.132c-0,0.659 -0.535,1.193 -1.193,1.193c-0.658,0 -1.193,-0.534 -1.193,-1.193c0,-1.239 1.193,-4.132 1.193,-4.132Z" style="fill:#baccd3;"/><path d="M8.193,45.312c-0,0 1.193,2.893 1.193,4.132c-0,0.659 -0.535,1.193 -1.193,1.193c-0.658,0 -1.193,-0.534 -1.193,-1.193c0,-1.239 1.193,-4.132 1.193,-4.132Zm-0,1.405c0.32,0.891 0.688,2.06 0.688,2.727c0,0.38 -0.308,0.688 -0.688,0.688c-0.38,0 -0.688,-0.308 -0.688,-0.688c-0,-0.667 0.368,-1.836 0.688,-2.727Z" style="fill:#4270e1;"/><path d="M12.937,40.421c0,0 1.193,2.893 1.193,4.133c0,0.658 -0.535,1.193 -1.193,1.193c-0.658,-0 -1.193,-0.535 -1.193,-1.193c0,-1.24 1.193,-4.133 1.193,-4.133Z" style="fill:#baccd3;"/><path d="M12.937,40.421c0,0 1.193,2.893 1.193,4.133c0,0.658 -0.535,1.193 -1.193,1.193c-0.658,-0 -1.193,-0.535 -1.193,-1.193c0,-1.24 1.193,-4.133 1.193,-4.133Zm0,1.405c0.32,0.891 0.688,2.06 0.688,2.728c0,0.379 -0.308,0.688 -0.688,0.688c-0.38,-0 -0.688,-0.309 -0.688,-0.688c-0,-0.668 0.368,-1.837 0.688,-2.728Z" style="fill:#4270e1;"/><path d="M35.297,46.846c0,0 1.641,3.201 1.641,4.573c-0,0.905 -0.735,1.64 -1.641,1.64c-0.905,0 -1.64,-0.735 -1.64,-1.64c-0,-1.372 1.64,-4.573 1.64,-4.573Z" style="fill:#baccd3;"/><path d="M35.297,46.846c0,0 1.641,3.201 1.641,4.573c-0,0.905 -0.735,1.64 -1.641,1.64c-0.905,0 -1.64,-0.735 -1.64,-1.64c-0,-1.372 1.64,-4.573 1.64,-4.573Zm0,1.164c0.256,0.556 0.572,1.287 0.808,1.979c0.186,0.544 0.328,1.06 0.328,1.43c-0,0.626 -0.509,1.135 -1.136,1.135c-0.626,0 -1.135,-0.509 -1.135,-1.135c-0,-0.37 0.141,-0.886 0.327,-1.43c0.236,-0.692 0.552,-1.423 0.808,-1.979Z" style="fill:#4270e1;"/><path d="M29.863,46.61c0,0 1.641,3.201 1.641,4.573c-0,0.905 -0.735,1.64 -1.641,1.64c-0.905,0 -1.64,-0.735 -1.64,-1.64c-0,-1.372 1.64,-4.573 1.64,-4.573Z" style="fill:#baccd3;"/><path d="M29.863,46.61c0,0 1.641,3.201 1.641,4.573c-0,0.905 -0.735,1.64 -1.641,1.64c-0.905,0 -1.64,-0.735 -1.64,-1.64c-0,-1.372 1.64,-4.573 1.64,-4.573Zm0,1.164c0.256,0.556 0.572,1.287 0.808,1.979c0.186,0.544 0.328,1.06 0.328,1.43c-0,0.626 -0.509,1.135 -1.136,1.135c-0.626,0 -1.135,-0.509 -1.135,-1.135c-0,-0.37 0.141,-0.886 0.327,-1.43c0.237,-0.692 0.552,-1.423 0.808,-1.979Z" style="fill:#4270e1;"/><path d="M17.924,48.848c-0,0 1.491,2.684 1.491,3.834c-0,0.823 -0.668,1.491 -1.491,1.491c-0.823,0 -1.492,-0.668 -1.492,-1.491c0,-1.15 1.492,-3.834 1.492,-3.834Z" style="fill:#baccd3;"/><path d="M17.924,48.848c-0,0 1.491,2.684 1.491,3.834c-0,0.823 -0.668,1.491 -1.491,1.491c-0.823,0 -1.492,-0.668 -1.492,-1.491c0,-1.15 1.492,-3.834 1.492,-3.834Zm-0,1.094c0.224,0.454 0.492,1.032 0.695,1.58c0.164,0.442 0.291,0.86 0.291,1.16c-0,0.544 -0.442,0.986 -0.986,0.986c-0.545,0 -0.987,-0.442 -0.987,-0.986c0,-0.3 0.127,-0.718 0.291,-1.16c0.203,-0.548 0.471,-1.126 0.696,-1.58Z" style="fill:#4270e1;"/><path d="M39.052,36.229c-0,0 0.894,2.48 0.894,3.543c0,0.494 -0.401,0.895 -0.894,0.895c-0.494,-0 -0.895,-0.401 -0.895,-0.895c-0,-1.063 0.895,-3.543 0.895,-3.543Z" style="fill:#baccd3;"/><path d="M39.052,36.229c-0,0 0.894,2.48 0.894,3.543c0,0.494 -0.401,0.895 -0.894,0.895c-0.494,-0 -0.895,-0.401 -0.895,-0.895c-0,-1.063 0.895,-3.543 0.895,-3.543Zm-0,0.896c0.257,0.797 0.606,1.996 0.606,2.647c-0,0.335 -0.272,0.606 -0.606,0.606c-0.335,0 -0.607,-0.271 -0.607,-0.606c0,-0.651 0.349,-1.85 0.607,-2.647Z" style="fill:#4270e1;"/><path d="M13.246,29.837c-0,0 -0.754,3.2 -0.754,4.571c-0,0.417 0.338,0.755 0.754,0.755c0.416,-0 0.754,-0.338 0.754,-0.755c0,-1.371 -0.754,-4.571 -0.754,-4.571Z" style="fill:#baccd3;"/><path d="M13.246,29.837c-0,0 -0.754,3.2 -0.754,4.571c-0,0.417 0.338,0.755 0.754,0.755c0.416,-0 0.754,-0.338 0.754,-0.755c0,-1.371 -0.754,-4.571 -0.754,-4.571Zm-0,1.351c0.212,1.031 0.465,2.432 0.465,3.22c0,0.257 -0.208,0.466 -0.465,0.466c-0.257,0 -0.466,-0.209 -0.466,-0.466c0,-0.788 0.254,-2.189 0.466,-3.22Z" style="fill:#4270e1;"/><path d="M38.157,56.42c-0,0 -0.905,2.473 -0.905,3.533c-0,0.499 0.405,0.905 0.905,0.905c0.499,-0 0.905,-0.406 0.905,-0.905c-0,-1.06 -0.905,-3.533 -0.905,-3.533Z" style="fill:#baccd3;"/><path d="M38.157,56.42c-0,0 -0.905,2.473 -0.905,3.533c-0,0.499 0.405,0.905 0.905,0.905c0.499,-0 0.905,-0.406 0.905,-0.905c-0,-1.06 -0.905,-3.533 -0.905,-3.533Zm-0,0.884c0.261,0.795 0.616,1.997 0.616,2.649c0,0.34 -0.276,0.616 -0.616,0.616c-0.34,0 -0.617,-0.276 -0.617,-0.616c0,-0.652 0.356,-1.854 0.617,-2.649Z" style="fill:#4270e1;"/><path d="M38.56,44.146c0,0 -0.905,2.473 -0.905,3.533c0,0.499 0.406,0.905 0.905,0.905c0.5,-0 0.905,-0.406 0.905,-0.905c0,-1.06 -0.905,-3.533 -0.905,-3.533Z" style="fill:#baccd3;"/><path d="M38.56,44.146c0,0 -0.905,2.473 -0.905,3.533c0,0.499 0.406,0.905 0.905,0.905c0.5,-0 0.905,-0.406 0.905,-0.905c0,-1.06 -0.905,-3.533 -0.905,-3.533Zm0,0.884c0.261,0.795 0.617,1.997 0.617,2.649c-0,0.34 -0.277,0.616 -0.617,0.616c-0.34,0 -0.616,-0.276 -0.616,-0.616c-0,-0.652 0.355,-1.854 0.616,-2.649Z" style="fill:#4270e1;"/><path d="M27.6,52.427c-0,-0 -1.207,2.883 -1.207,4.118c0,0.666 0.541,1.207 1.207,1.207c0.666,-0 1.206,-0.541 1.206,-1.207c0,-1.235 -1.206,-4.118 -1.206,-4.118Z" style="fill:#baccd3;"/><path d="M27.6,52.427c-0,-0 -1.207,2.883 -1.207,4.118c0,0.666 0.541,1.207 1.207,1.207c0.666,-0 1.206,-0.541 1.206,-1.207c0,-1.235 -1.206,-4.118 -1.206,-4.118Zm-0,1.385c0.325,0.89 0.701,2.064 0.701,2.733c0,0.387 -0.314,0.702 -0.701,0.702c-0.388,-0 -0.702,-0.315 -0.702,-0.702c0,-0.669 0.376,-1.843 0.702,-2.733Z" style="fill:#4270e1;"/><path d="M23.534,44.146c0,0 -1.206,2.883 -1.206,4.119c-0,0.666 0.54,1.206 1.206,1.206c0.666,0 1.207,-0.54 1.207,-1.206c-0,-1.236 -1.207,-4.119 -1.207,-4.119Z" style="fill:#baccd3;"/><path d="M23.534,44.146c0,0 -1.206,2.883 -1.206,4.119c-0,0.666 0.54,1.206 1.206,1.206c0.666,0 1.207,-0.54 1.207,-1.206c-0,-1.236 -1.207,-4.119 -1.207,-4.119Zm0,1.386c0.325,0.89 0.702,2.064 0.702,2.733c-0,0.387 -0.315,0.701 -0.702,0.701c-0.387,0 -0.701,-0.314 -0.701,-0.701c-0,-0.669 0.376,-1.843 0.701,-2.733Z" style="fill:#4270e1;"/><path d="M21.629,55.287c-0,0 -1.659,3.188 -1.659,4.554c-0,0.916 0.743,1.659 1.659,1.659c0.915,0 1.659,-0.743 1.659,-1.659c-0,-1.366 -1.659,-4.554 -1.659,-4.554Z" style="fill:#baccd3;"/><path d="M21.629,55.287c-0,0 -1.659,3.188 -1.659,4.554c-0,0.916 0.743,1.659 1.659,1.659c0.915,0 1.659,-0.743 1.659,-1.659c-0,-1.366 -1.659,-4.554 -1.659,-4.554Zm-0,1.149c0.259,0.555 0.582,1.289 0.823,1.984c0.188,0.541 0.331,1.053 0.331,1.421c-0,0.637 -0.518,1.154 -1.154,1.154c-0.637,0 -1.155,-0.517 -1.155,-1.154c0,-0.368 0.143,-0.88 0.331,-1.421c0.241,-0.694 0.564,-1.428 0.824,-1.984Z" style="fill:#4270e1;"/><path d="M55.341,44.618c0,0 -1.659,3.188 -1.659,4.554c0,0.916 0.743,1.659 1.659,1.659c0.916,-0 1.659,-0.743 1.659,-1.659c0,-1.366 -1.659,-4.554 -1.659,-4.554Z" style="fill:#baccd3;"/><path d="M55.341,44.618c0,0 -1.659,3.188 -1.659,4.554c0,0.916 0.743,1.659 1.659,1.659c0.916,-0 1.659,-0.743 1.659,-1.659c0,-1.366 -1.659,-4.554 -1.659,-4.554Zm0,1.149c0.26,0.555 0.582,1.289 0.824,1.984c0.187,0.541 0.33,1.053 0.33,1.421c0,0.637 -0.517,1.154 -1.154,1.154c-0.637,-0 -1.154,-0.517 -1.154,-1.154c-0,-0.368 0.143,-0.88 0.33,-1.421c0.242,-0.695 0.564,-1.429 0.824,-1.984Z" style="fill:#4270e1;"/><path d="M18.489,37.079c0,0 -1.508,2.672 -1.508,3.817c0,0.832 0.676,1.508 1.508,1.508c0.833,0 1.508,-0.676 1.508,-1.508c0,-1.145 -1.508,-3.817 -1.508,-3.817Z" style="fill:#baccd3;"/><path d="M18.489,37.079c0,0 -1.508,2.672 -1.508,3.817c0,0.832 0.676,1.508 1.508,1.508c0.833,0 1.508,-0.676 1.508,-1.508c0,-1.145 -1.508,-3.817 -1.508,-3.817Zm0,1.08c0.229,0.454 0.503,1.034 0.71,1.585c0.165,0.439 0.293,0.854 0.293,1.152c0,0.554 -0.449,1.003 -1.003,1.003c-0.553,0 -1.003,-0.449 -1.003,-1.003c-0,-0.298 0.128,-0.713 0.293,-1.152c0.208,-0.551 0.482,-1.131 0.71,-1.585Z" style="fill:#4270e1;"/><path d="M44.455,35.252c0,0 -0.904,2.473 -0.904,3.533c-0,0.499 0.405,0.905 0.904,0.905c0.5,-0 0.905,-0.406 0.905,-0.905c0,-1.06 -0.905,-3.533 -0.905,-3.533Z" style="fill:#baccd3;"/><path d="M44.455,35.252c0,0 -0.904,2.473 -0.904,3.533c-0,0.499 0.405,0.905 0.904,0.905c0.5,-0 0.905,-0.406 0.905,-0.905c0,-1.06 -0.905,-3.533 -0.905,-3.533Zm0,0.884c0.261,0.794 0.617,1.996 0.617,2.649c-0,0.34 -0.276,0.616 -0.617,0.616c-0.34,0 -0.616,-0.276 -0.616,-0.616c0,-0.653 0.355,-1.855 0.616,-2.649Z" style="fill:#4270e1;"/><path d="M17.036,32.623c0,-0 -0.603,1.441 -0.603,2.059c-0,0.333 0.27,0.603 0.603,0.603c0.333,0 0.603,-0.27 0.603,-0.603c0,-0.618 -0.603,-2.059 -0.603,-2.059Z" style="fill:#baccd3;"/><path d="M17.036,32.623c0,-0 -0.603,1.441 -0.603,2.059c-0,0.333 0.27,0.603 0.603,0.603c0.333,0 0.603,-0.27 0.603,-0.603c0,-0.618 -0.603,-2.059 -0.603,-2.059Zm0,0.797c0.153,0.427 0.315,0.953 0.315,1.262c-0,0.174 -0.141,0.315 -0.315,0.315c-0.174,-0 -0.315,-0.141 -0.315,-0.315c0,-0.309 0.162,-0.835 0.315,-1.262Z" style="fill:#4270e1;"/><path d="M29.145,30.829c0,-0 0.895,2.48 0.895,3.542c0,0.494 -0.401,0.895 -0.895,0.895c-0.493,0 -0.894,-0.401 -0.894,-0.895c-0,-1.062 0.894,-3.542 0.894,-3.542Z" style="fill:#baccd3;"/><path d="M29.145,30.829c0,-0 0.895,2.48 0.895,3.542c0,0.494 -0.401,0.895 -0.895,0.895c-0.493,0 -0.894,-0.401 -0.894,-0.895c-0,-1.062 0.894,-3.542 0.894,-3.542Zm0,0.895c0.258,0.798 0.607,1.996 0.607,2.647c-0,0.335 -0.272,0.607 -0.607,0.607c-0.334,-0 -0.606,-0.272 -0.606,-0.607c0,-0.651 0.349,-1.849 0.606,-2.647Z" style="fill:#4270e1;"/><path d="M51.831,34.702c0,0 -1.206,2.883 -1.206,4.119c-0,0.666 0.54,1.206 1.206,1.206c0.666,0 1.207,-0.54 1.207,-1.206c-0,-1.236 -1.207,-4.119 -1.207,-4.119Z" style="fill:#baccd3;"/><path d="M51.831,34.702c0,0 -1.206,2.883 -1.206,4.119c-0,0.666 0.54,1.206 1.206,1.206c0.666,0 1.207,-0.54 1.207,-1.206c-0,-1.236 -1.207,-4.119 -1.207,-4.119Zm0,1.385c0.326,0.89 0.702,2.065 0.702,2.734c-0,0.387 -0.314,0.701 -0.702,0.701c-0.387,0 -0.701,-0.314 -0.701,-0.701c-0,-0.669 0.376,-1.844 0.701,-2.734Z" style="fill:#4270e1;"/></svg>