<?xml version="1.0" encoding="UTF-8" standalone="no"?><!DOCTYPE svg PUBLIC "-//W3C//DTD SVG 1.1//EN" "http://www.w3.org/Graphics/SVG/1.1/DTD/svg11.dtd"><svg width="100%" height="100%" viewBox="0 0 100 100" version="1.1" xmlns="http://www.w3.org/2000/svg" xmlns:xlink="http://www.w3.org/1999/xlink" xml:space="preserve" xmlns:serif="http://www.serif.com/" style="fill-rule:evenodd;clip-rule:evenodd;stroke-linecap:round;stroke-linejoin:round;stroke-miterlimit:1.5;"><path d="M49,71c-8.264,5.098 -47,1.628 -47,1.628c6.695,-15.338 40.946,-15.055 47,-1.628Z" style="fill:#d3d3d3;"/><path d="M1.566,90.671c26.575,16.594 86.434,-2.961 86.434,-2.961c-17.254,-36.03 -60.02,-18.429 -86.434,2.961Z" style="fill:#d3d3d3;"/><path d="M44.147,79.745c9.369,27.746 53.853,9.42 53.853,9.42c-0.36,-25.254 -35.032,-31.225 -53.853,-9.42Z" style="fill:#d3d3d3;"/><path d="M35.904,85.492c13.01,3.382 32.422,-1.03 32.422,-1.03c-7.772,-8.517 -18.479,-5.089 -32.422,1.03Z" style="fill:#fff;"/><path d="M54.754,75.868c-19.167,-5.301 -53.754,0.953 -53.754,0.953c11.521,12.667 36.359,6.552 53.754,-0.953Z" style="fill:#fff;"/><path d="M97.858,90.849c-9.795,-7.742 -29.261,-3.735 -29.261,-3.735c4.815,15.425 18.978,10.704 29.261,3.735Z" style="fill:#fff;"/><path d="M34.885,14.457c19.071,-12.359 61.615,-4.82 61.615,-4.82c-12.567,23.718 -42.935,16.076 -61.615,4.82Z" style="fill:#d3d3d3;"/><path d="M1.5,15.884c16.79,9.838 54.5,0.102 54.5,0.102c-10.95,-20.539 -37.885,-11.549 -54.5,-0.102Z" style="fill:#d3d3d3;"/><path d="M41.133,61.652c23.118,20.877 57.734,-2.324 57.734,-2.324c-18.531,-10.775 -42.043,5.807 -57.734,2.324Z" style="fill:#fff;"/><path d="M98.25,19.586c-6.595,-4.505 -21.25,-2.586 -21.25,-2.586c4.371,8.278 14.828,6.138 21.25,2.586Z" style="fill:#fff;"/><path d="M70.545,80.413c8.886,6.199 29.455,3.13 29.455,3.13c-5.522,-11.578 -20.253,-8.3 -29.455,-3.13Z" style="fill:#fff;"/><path d="M2,61.974c16.147,11.045 39.757,5.764 39.757,5.764c-9.98,-21.542 -22.95,-16.343 -39.757,-5.764Z" style="fill:#fff;"/><g><path d="M42.067,56.966c-7.956,3.958 -16.234,3.818 -20.567,-1.002c-0.815,-0.907 -1.448,-1.933 -1.904,-3.048c-1.003,0.208 -2.044,0.312 -3.111,0.312c-8.548,-0 -15.485,-6.841 -15.485,-15.272c0,-8.431 6.937,-15.272 15.485,-15.272l0.211,0c1.463,-7.396 10.226,-13.091 20.808,-13.091c9.848,0 18.118,4.932 20.4,11.574c7.096,-7.12 16.344,-3.83 20.685,1.042c0.811,0.907 1.437,1.937 1.881,3.051c1.008,-0.199 2.052,-0.299 3.115,-0.295c8.552,0.044 15.452,6.921 15.415,15.347c-0.041,8.431 -7.015,15.24 -15.563,15.196l-0.211,0c-1.496,7.389 -10.289,13.044 -20.874,12.992c-9.771,-0.048 -17.974,-4.949 -20.285,-11.534Z" style="fill:#d3d3d3;"/><path d="M82.257,58.347c-2.893,5.95 -10.725,10.198 -19.905,10.153c-9.771,-0.048 -17.974,-4.949 -20.285,-11.534c-7.956,3.958 -16.234,3.818 -20.567,-1.002c-0.815,-0.907 -1.448,-1.933 -1.904,-3.048c-1.003,0.208 -2.044,0.312 -3.111,0.312c-8.548,-0 -15.485,-6.841 -15.485,-15.272c-0,-8.431 6.937,-15.272 15.485,-15.272l0.211,0c1.463,-7.396 10.226,-13.091 20.808,-13.091c9.848,0 18.118,4.932 20.4,11.574c7.096,-7.12 16.344,-3.83 20.685,1.042c0.811,0.907 1.437,1.937 1.881,3.051c1.008,-0.199 2.052,-0.299 3.115,-0.295c8.552,0.044 15.452,6.921 15.415,15.347c-0.041,8.431 -7.015,15.24 -15.563,15.196l-0.211,0c-0.131,0.648 -0.319,1.283 -0.56,1.901c-0.808,-1.73 -1.939,-4.901 0.605,-4.901c0.064,0 0.124,0.005 0.181,0.015l0,-0.015c6.881,0.036 12.515,-5.424 12.548,-12.21c0.029,-6.782 -5.545,-12.297 -12.428,-12.333c-0.86,-0.003 -1.704,0.077 -2.518,0.238c-1.418,0.281 -2.835,-0.489 -3.37,-1.831c-0.315,-0.79 -0.756,-1.521 -1.331,-2.163c-0.001,-0.001 -0.003,-0.003 -0.004,-0.004c-3.426,-3.846 -10.72,-6.54 -16.321,-0.921c-0.731,0.734 -1.789,1.039 -2.798,0.806c-1.009,-0.232 -1.827,-0.969 -2.164,-1.949c-1.944,-5.66 -9.169,-9.548 -17.562,-9.548c-8.958,0 -16.626,4.412 -17.865,10.673c-0.278,1.406 -1.51,2.418 -2.943,2.418l-0.211,0c-6.881,0 -12.485,5.486 -12.485,12.272c-0,6.786 5.604,12.272 12.485,12.272c0.858,-0 1.696,-0.082 2.503,-0.249c1.416,-0.293 2.838,0.464 3.385,1.802c0.325,0.796 0.776,1.53 1.358,2.177c3.578,3.98 10.43,3.59 16.999,0.322c0.771,-0.383 1.668,-0.417 2.466,-0.094c0.797,0.324 1.416,0.975 1.701,1.787c1.971,5.615 9.138,9.486 17.469,9.527c8.961,0.044 16.653,-4.333 17.919,-10.587c-0.178,0.882 0.049,1.798 0.618,2.494c0.359,0.439 0.83,0.762 1.354,0.94Z" style="fill:#808080;"/><path d="M54.999,36.003c5.351,-12.493 27.714,-4.924 21.658,10.05" style="fill:#d3d3d3;stroke:#808080;stroke-width:3px;"/><path d="M17.031,36.047c-4.441,-7.138 4.14,-15.335 10.969,-12.241" style="fill:#d3d3d3;stroke:#808080;stroke-width:3px;"/><path d="M43.29,42.047c1.984,-8.169 13.846,-7.785 16.42,-0.744" style="fill:#d3d3d3;stroke:#808080;stroke-width:3px;"/><path d="M25.032,56.918c-7.66,-5.097 -3.474,-16.452 4.5,-16.213" style="fill:#d3d3d3;stroke:#808080;stroke-width:3px;"/></g></svg>