<?xml version="1.0" encoding="UTF-8" standalone="no"?><!DOCTYPE svg PUBLIC "-//W3C//DTD SVG 1.1//EN" "http://www.w3.org/Graphics/SVG/1.1/DTD/svg11.dtd"><svg width="100%" height="100%" viewBox="0 0 800 800" version="1.1" xmlns="http://www.w3.org/2000/svg" xmlns:xlink="http://www.w3.org/1999/xlink" xml:space="preserve" xmlns:serif="http://www.serif.com/" style="fill-rule:evenodd;clip-rule:evenodd;stroke-linejoin:round;stroke-miterlimit:2;"><g id="SVGRepo_bgCarrier"><path d="M800,400c0,-220.766 -179.234,-400 -400,-400c-220.766,0 -400,179.234 -400,400c0,220.766 179.234,400 400,400c220.766,0 400,-179.234 400,-400Z" style="fill:#173f58;"/></g><g id="SVGRepo_iconCarrier"><path d="M400.003,166.668c128.867,0 233.334,104.468 233.334,233.335c0,128.867 -104.467,233.334 -233.334,233.334c-128.867,0 -233.335,-104.467 -233.335,-233.334c0,-128.867 104.468,-233.335 233.335,-233.335Zm0,24.999c-115.059,0 -208.335,93.275 -208.335,208.335c0,115.059 93.276,208.335 208.335,208.335c115.061,-0 208.335,-93.276 208.335,-208.335c-0,-115.06 -93.274,-208.335 -208.335,-208.335Z" style="fill:#eaeff1;fill-rule:nonzero;"/></g></svg>