<?xml version="1.0" encoding="UTF-8" standalone="no"?><!DOCTYPE svg PUBLIC "-//W3C//DTD SVG 1.1//EN" "http://www.w3.org/Graphics/SVG/1.1/DTD/svg11.dtd"><svg width="100%" height="100%" viewBox="0 0 100 100" version="1.1" xmlns="http://www.w3.org/2000/svg" xmlns:xlink="http://www.w3.org/1999/xlink" xml:space="preserve" xmlns:serif="http://www.serif.com/" style="fill-rule:evenodd;clip-rule:evenodd;stroke-linejoin:round;stroke-miterlimit:2;"><g id="SVGRepo_iconCarrier"><path d="M23.374,89.834l-0.358,-0.232c0.233,0.152 0.358,0.232 0.358,0.232Zm53.532,-42.984c-0.729,0.604 4.535,10.89 5.426,11.523c0.888,0.635 3.562,0.092 4.856,-0.542c1.297,-0.633 -2.671,7.061 -4.369,7.966c-1.7,0.904 -3.076,3.711 -2.349,4.977c0.729,1.266 0.81,6.064 -0.727,6.699c-1.54,0.632 -2.106,1.627 -1.621,2.805c0.483,1.175 -1.132,3.164 -1.862,4.432c-0.73,1.267 -3.562,3.891 -3.806,4.616c-0.241,0.725 -3.722,0.543 -5.101,0.543c-1.375,0 -0.324,-1.901 -0.487,-3.528c-0.159,-1.631 -1.373,-3.169 -1.373,-3.983c-0,-0.815 -0.407,-2.716 -0.972,-3.62c-0.566,-0.907 -0.731,-2.627 -0.163,-3.621c0.569,-0.997 0.972,-3.89 -0.159,-5.158c-1.135,-1.267 -2.432,-3.44 -1.539,-5.159c0.891,-1.719 -0.972,-1.537 -2.51,-2.354c-1.539,-0.816 -4.697,0.272 -6.316,0.544c-1.62,0.271 -3.237,-0.452 -3.724,-1.36c-0.485,-0.903 -1.537,-3.165 -2.616,-3.71c-1.075,-0.541 -0.459,-2.895 0.188,-3.799c0.65,-0.904 -0.647,-2.625 -0,-3.351c0.65,-0.724 1.052,-3.347 2.348,-3.92c1.296,-0.572 1.052,-0.965 1.092,-2.324c0.041,-1.358 1.457,-1.358 1.698,-2.081c0.244,-0.725 0.972,-1.086 2.433,-1.086c1.457,-0 3.924,-0.952 5.099,-1.268c1.174,-0.317 3.199,-0.769 3.036,0.499c-0.162,1.266 -0.121,2.713 0.646,2.713c0.771,-0 1.823,0.498 3.038,1.343c1.214,0.842 1.254,0.153 1.417,-0.799c0.163,-0.951 1.861,-0.589 3.619,0.317c1.757,0.905 4.154,0.271 4.92,0.182l-0.122,2.504Zm-60.158,-33.633l-0.299,0.275c0.075,0.461 0.016,1.181 -0.222,2.261c-0.95,4.319 -4.441,4.414 -7.002,7.228c-2.52,2.77 4.987,3.524 5.18,6.026c0.556,7.205 4.397,-0.587 3.368,-3.149c-1.989,-4.961 2.264,-3.599 3.977,-0.446c0.95,1.75 1.673,0.276 2.836,-0.334c0.944,-0.492 1.195,2.172 1.399,2.636c0.669,1.542 2.866,2.002 2.494,3.987c-0.413,2.187 -1.968,1.531 -3.488,1.901c-1.697,0.412 0.275,1.84 0.028,2.361c-0.268,0.57 -2.314,0.807 -2.859,1.13c-1.605,0.945 -0.624,2.789 -1.88,3.779c-0.862,0.682 -1.73,0.239 -1.897,1.514c-0.196,1.503 -2.965,1.986 -2.606,3.423c0.099,0.395 0.897,3.342 0.395,3.499c-0.231,0.074 -2.057,-2.564 -2.555,-2.828c-0.987,-0.523 -5.472,-0.095 -6.049,2.874c-0.374,1.921 2.715,4.953 3.502,2.308c0.974,-3.255 1.438,1.896 1.204,2.098c0.465,0.406 3.189,-0.669 2.381,1.216c-0.342,0.798 0.336,2.878 1.545,2.237c0.505,-0.268 1.808,0.538 2.035,0.106c0.328,-0.499 0.77,-0.911 1.289,-1.203c1.218,-0.712 3.04,-0.043 4.374,0.035c0.815,0.047 7.493,3.691 7.529,4.422c0.146,2.737 5.194,2.381 5.969,3.359c2.083,2.652 1.442,1.306 -0.078,4.703c-0.766,1.71 -0.099,3.807 -1.955,5.046c-0.892,0.595 -1.982,0.297 -2.775,1.138c-0.716,0.76 -0.435,1.667 -0.869,2.545c-0.523,1.044 -7.55,7.361 -8.013,8.888c-0.231,0.767 -2.328,1.434 -0.56,2.169c0.365,0.107 0.184,0.57 -0.13,1.181c-1.282,-0.838 -2.521,-1.734 -3.714,-2.685l0.061,-0.15c0.59,-1.448 -0.203,-3.12 0.189,-4.635c0.766,-2.949 1.69,-6.145 1.406,-9.313c-0.178,-1.944 -0.608,-2.033 -2.047,-3.155c-1.516,-1.191 -1.516,-2.875 -2.531,-4.38c-0.919,-1.367 1.555,-6.563 0.865,-6.879c-0.773,-0.357 -2.531,0.109 -3.087,-0.629c-0.597,-0.796 -1.014,-1.736 -1.836,-2.353c-0.529,-0.398 -2.873,-1.729 -3.498,-1.636c-2.783,0.417 -5.771,-1.934 -7.815,-3.869c0,-0 -0.009,-0.518 -0.009,-0.943c-0,-14.147 6.07,-26.887 15.748,-35.758Zm67.745,69.326c-0.395,0.411 -1.002,1.014 -1.002,1.014c-0.234,-0.048 -0.478,-0.35 -0.799,-0.84c-0.773,-1.174 -0.523,-3.077 0,-3.981c0.522,-0.907 -0.444,-1.991 0.691,-2.264c1.134,-0.27 0.916,-2.677 1.944,-2.805c2.186,-0.27 0.081,6.516 -0.728,8.417c-0.109,0.257 -0.21,0.478 -0.305,0.664l0.199,-0.205Zm13.507,-33.568l-0.002,-0.392c-1.611,-0.979 -3.896,0.219 -5.791,-0.678c-2.202,-1.044 -4.667,-2.459 -5.901,-2.904c-1.229,-0.449 2.202,4.171 2.643,3.575c0.443,-0.595 2.201,0.447 2.73,0.447c0.529,0 1.936,1.043 1.057,2.012c-0.879,0.97 -8.714,4.996 -9.507,3.948c-0.796,-1.048 -5.118,-9.449 -5.913,-8.952l0,-1.776c0.838,-0.077 0.985,-2.198 0.764,-2.906c-0.222,-0.707 -1.541,0.335 -2.377,-0.112c-0.836,-0.445 -1.983,0.112 -2.817,-0.522c-0.838,-0.632 -0.97,-2.123 0,-2.159c0.967,-0.038 1.453,-0.299 2.024,-0.856c0.574,-0.56 2.73,-0.894 3.566,-0.337c0.835,0.559 2.071,0.932 2.815,0.299c0.749,-0.632 -1.492,-1.861 -1.98,-2.197c-0.485,-0.335 -0.088,-1.415 -0.571,-1.415c-0.486,-0 -0.882,0.185 -0.617,0.707c0.264,0.521 -1.408,1.452 -1.675,0.932c-0.262,-0.523 -0.702,-1.527 -1.362,-1.527c-0.659,-0 -1.54,2.533 -1.585,2.942c-0.044,0.411 -1.189,1.08 -2.111,1.08c-0.923,0 -0.923,0.896 -0.44,1.306c0.485,0.409 0.131,2.049 -0.748,2.142c-0.881,0.096 -1.189,-0.168 -1.32,-0.802c-0.132,-0.632 -1.012,-0.558 -1.057,-1.862c-0.045,-1.305 -1.014,-1.937 -1.629,-2.534c-0.616,-0.597 -2.201,-2.347 -2.817,-1.563c-0.615,0.783 2.201,2.459 2.948,2.904c0.751,0.447 0.619,1.415 0.222,1.639c-0.396,0.225 -1.144,2.05 -1.584,2.197c-0.443,0.149 -0.863,-0.554 -0.863,-0.554c-0.66,-0.223 0.923,-0.894 1.188,-1.229c0.262,-0.335 -2.772,-2.682 -3.319,-3.353c-0.548,-0.671 -2.887,0.558 -3.942,0.112c-1.056,-0.446 -2.642,1.676 -2.772,2.905c-0.134,1.23 -1.851,1.563 -3.435,1.563c-1.583,0 -2.641,-1.004 -2.11,-2.01c0.527,-1.006 -0.266,-2.682 0.66,-2.794c0.924,-0.111 3.562,-0 4.091,-1.229c0.527,-1.229 -2.51,-2.347 -1.319,-2.57c1.186,-0.224 3.037,-1.786 4.358,-2.681c1.317,-0.894 1.45,-2.011 2.637,-2.089c1.191,-0.077 -0.262,-1.935 0.795,-2.493c1.058,-0.559 1.32,2.012 2.113,2.012c0.793,0 2.374,-0.224 3.696,0.335c1.322,0.559 1.717,-0.559 2.246,-2.013c0.528,-1.452 1.848,-2.235 4.488,-3.352c2.64,-1.118 -3.034,0.335 -4.093,-0.783c-1.057,-1.118 0.397,-3.577 1.059,-5.313c0.66,-1.737 -2.114,1.736 -3.567,3.525c-1.455,1.788 0.396,2.57 0.262,3.799c-0.131,1.23 -2.505,2.681 -2.505,2.681c-1.057,0.112 -0.925,-1.675 -1.453,-2.457c-0.529,-0.782 -1.455,-0.447 -2.908,0.447c-1.453,0.894 -1.584,-2.123 -1.979,-3.353c-0.393,-1.228 2.377,-2.794 3.679,-3.629c1.301,-0.838 3.449,-4.863 5.828,-7.99c2.379,-3.129 5.811,-1.565 6.735,-0.335c0.927,1.227 3.299,0.445 5.547,2.681c2.246,2.235 -0.529,3.24 -3.034,2.332c-2.513,-0.908 0.526,2.25 1.976,3.144c1.453,0.892 2.246,-2.012 2.775,-2.682c0.189,-0.241 0.565,-0.352 1.037,-0.478l-0.199,-0.187c9.453,8.852 15.363,21.442 15.363,35.402Zm-75.493,3.554c-1.12,1.158 -3.05,-0.806 -4.383,-0.737c-1.332,0.07 -2.001,-1.329 -3.158,-1.188c-1.16,0.137 0.316,-1.472 1.93,-0.629c1.61,0.839 6.525,1.607 5.611,2.554Zm29.69,-22.404c-0.438,-0.382 0.443,-1.888 0.837,-2.335c0.399,-0.447 -1.101,-0.299 -1.01,0.336c0.088,0.632 -0.574,1.601 -1.498,1.862c-0.924,0.26 -1.977,0.185 -1.451,-0.523c0.526,-0.707 0.043,-1.341 -0.354,-2.012c-0.394,-0.671 2.2,-1.08 2.731,-1.489c0.527,-0.409 -0.835,-0.671 -0.793,-1.303c0.045,-0.635 0.353,-1.192 0.877,-1.267c0.53,-0.074 1.024,-0.36 1.498,-0.335c1.455,0.076 1.011,2.869 1.541,3.764c0.528,0.892 2.026,1.974 1.893,2.754c-0.132,0.784 -0.414,1.231 -1.493,1.006c-1.083,-0.224 -2.816,1.155 -3.48,0.894c-0.662,-0.262 1.145,-0.969 0.702,-1.352Zm-28.495,-7.826c0.421,0.84 -2.527,-0.98 -3.229,-1.819c-0.698,-0.838 -1.755,-2.73 -0.909,-3.569c0.841,-0.838 2.728,1.746 3.72,2.311c1.961,1.121 -0.002,2.24 0.418,3.077Zm13.694,-20.299c-0.434,2.591 -1.119,5.738 -0.909,7.431c-0.226,0.376 -0.485,0.639 -0.732,0.917c-0.73,0.821 -2.095,0.759 -2.29,1.326c-0.196,0.568 -0.683,2.335 -2.389,2.342c-1.707,0.007 -1.219,3.341 -1.365,4.293c-0.146,0.952 -0.535,2.077 -1.023,1.256c-0.488,-0.82 -0.683,-0.507 -2.192,-2.905c-1.508,-2.399 -0.929,-3.724 -0.44,-4.418c0.487,-0.693 0.683,-2.336 -0,-2.084c-0.683,0.252 -1.073,-0.317 -0.927,-1.102c0.139,-0.748 0.81,-1.304 0.114,-2.08c3.762,-2.179 7.842,-3.867 12.153,-4.976Zm5.315,12.46c1.322,0.557 2.376,-0.454 3.298,-0.672c1.093,-0.255 1.717,3.018 0.662,2.906c-1.057,-0.112 -2.244,1.788 -3.771,1.676c-1.527,-0.112 -0.851,-1.005 -2.568,-2.345c-0.368,-0.289 -0.519,-0.55 -0.532,-0.778c0.367,-0.298 0.732,-0.598 1.111,-0.886c0.594,-0.133 1.299,-0.113 1.8,0.099Zm-22.329,-4.264c0.482,0.527 0.996,0.942 1.493,1.154c1.407,0.594 -0.07,2.544 0.985,2.829c1.051,0.285 2.876,1.614 2.876,2.243c0,0.631 -0.828,1.42 -1.195,1.33c-2.645,-0.645 -4.876,-3.257 -6.104,-4.687c-0.266,-0.309 -0.496,-0.547 -0.703,-0.728c0.858,-0.744 1.741,-1.459 2.648,-2.141Zm-3.298,2.715l-0.292,0.265l0.105,-0.096l0.187,-0.169Zm0.31,-0.276c-0.102,0.09 -0.205,0.181 -0.307,0.273l0.307,-0.273Zm0.34,-0.298l-0.304,0.266l0.118,-0.104l0.186,-0.162Zm7.509,-5.361c-1.686,0.977 -3.31,2.053 -4.861,3.22c1.551,-1.167 3.175,-2.243 4.861,-3.22Z" style="fill:#161716;"/><path d="M50,0c27.596,0 50,22.404 50,50c0,27.596 -22.404,50 -50,50c-27.596,0 -50,-22.404 -50,-50c-0,-27.596 22.404,-50 50,-50Zm-0,3c25.94,0 47,21.06 47,47c-0,25.94 -21.06,47 -47,47c-25.94,0 -47,-21.06 -47,-47c-0,-25.94 21.06,-47 47,-47Z" style="fill:#161716;"/></g></svg>