<?xml version="1.0" encoding="UTF-8" standalone="no"?><!DOCTYPE svg PUBLIC "-//W3C//DTD SVG 1.1//EN" "http://www.w3.org/Graphics/SVG/1.1/DTD/svg11.dtd"><svg width="100%" height="100%" viewBox="0 0 8 8" version="1.1" xmlns="http://www.w3.org/2000/svg" xmlns:xlink="http://www.w3.org/1999/xlink" xml:space="preserve" xmlns:serif="http://www.serif.com/" style="fill-rule:evenodd;clip-rule:evenodd;stroke-linejoin:round;stroke-miterlimit:2;"><g id="layer1"><circle cx="4" cy="4" r="4" style="fill:#ebebeb;"/></g><g><path d="M2.569,7.736c-1.502,-0.576 -2.569,-2.032 -2.569,-3.736c0,-2.208 1.792,-4 4,-4c2.208,0 4,1.792 4,4c0,2.056 -1.555,3.752 -3.552,3.975c-0.14,-0.252 -0.402,-0.504 -0.732,-0.591l0.108,-0.793l1.69,0.23l-0.076,0.238c-0.009,0.029 -0.002,0.061 0.02,0.083c0.022,0.021 0.054,0.029 0.083,0.019l0.85,-0.283c0.029,-0.009 0.05,-0.035 0.054,-0.066c0.005,-0.03 -0.009,-0.061 -0.035,-0.078l-0.744,-0.499c-0.025,-0.017 -0.058,-0.018 -0.084,-0.003c-0.027,0.015 -0.043,0.043 -0.042,0.074l0.01,0.25l-1.69,-0.23l0.099,-0.73c0.438,0.034 0.87,-0.057 1.175,-0.24c0.392,-0.234 0.715,-0.61 0.859,-1.337c0.106,-0.537 0.093,-0.8 0.329,-1.098c0.074,-0.098 0.18,-0.161 0.343,-0.158c0.119,0.002 0.397,0.066 0.322,-0.093c-0.067,-0.142 -0.205,-0.349 -0.27,-0.441c-0.245,-0.292 -0.47,-0.295 -0.64,-0.318c-0.336,-0.046 -0.68,0.217 -0.82,0.507c-0.034,0.071 -0.063,0.172 -0.096,0.25c-0.158,0.445 -0.396,0.937 -1.067,0.825c-0.47,-0.079 -0.677,-0.668 -1.158,-1.322c-0.45,-0.611 -1.268,-0.644 -1.732,-0.27c-0.328,0.264 -0.287,0.853 0.316,0.832c-0.464,0.227 -0.072,0.9 0.42,0.749c-0.258,0.18 -0.04,0.786 0.322,0.742c0.179,0.78 0.761,1.19 1.387,1.326l-0.099,0.734l-1.317,-0.179l-0.205,-0.35l-0.885,-0.12l0.234,0.489l-0.356,0.408l0.885,0.121l0.291,-0.283l1.317,0.179l-0.109,0.797c-0.314,0.005 -0.623,0.135 -0.836,0.39Zm3.558,-5.179c0.077,0.011 0.148,-0.043 0.158,-0.12c0.011,-0.077 -0.043,-0.148 -0.12,-0.158c-0.077,-0.011 -0.148,0.043 -0.158,0.12c-0.01,0.077 0.043,0.148 0.12,0.158Zm0.073,-0.762l-0.104,-0.013c-0.148,-0.02 -0.293,0.005 -0.426,0.06c-0.101,-0.16 -0.143,-0.3 -0.13,-0.398c0.017,-0.123 0.13,-0.208 0.252,-0.192c0.067,0.009 0.123,0.047 0.157,0.1c-0,-0.008 0.001,-0.015 0.001,-0.022c0.017,-0.122 0.13,-0.208 0.252,-0.191c0.122,0.017 0.208,0.129 0.192,0.252c-0.001,0.003 -0.002,0.006 -0.002,0.009c0.039,-0.024 0.087,-0.036 0.136,-0.029c0.112,0.015 0.19,0.119 0.175,0.231c-0.01,0.075 -0.066,0.169 -0.179,0.287c-0.11,-0.054 -0.218,-0.079 -0.324,-0.094Z" style="fill:#bd3d3d;"/></g></svg>