<?xml version="1.0" encoding="UTF-8" standalone="no"?><!DOCTYPE svg PUBLIC "-//W3C//DTD SVG 1.1//EN" "http://www.w3.org/Graphics/SVG/1.1/DTD/svg11.dtd"><svg width="100%" height="100%" viewBox="0 0 8 8" version="1.1" xmlns="http://www.w3.org/2000/svg" xmlns:xlink="http://www.w3.org/1999/xlink" xml:space="preserve" xmlns:serif="http://www.serif.com/" style="fill-rule:evenodd;clip-rule:evenodd;stroke-linejoin:round;stroke-miterlimit:2;"><g id="layer1"><circle cx="4" cy="4" r="4" style="fill:#ebebeb;"/><path d="M2.515,7.715c-1.473,-0.591 -2.515,-2.032 -2.515,-3.715c0,-2.208 1.792,-4 4,-4c2.208,0 4,1.792 4,4c0,1.994 -1.462,3.649 -3.372,3.951c-0.032,-0.31 -0.356,-0.764 -0.819,-0.887l0.104,-0.771l1.643,0.224l-0.074,0.232c-0.009,0.028 -0.001,0.059 0.02,0.08c0.021,0.02 0.052,0.028 0.08,0.018l0.826,-0.274c0.028,-0.01 0.049,-0.035 0.053,-0.064c0.004,-0.03 -0.009,-0.06 -0.034,-0.076l-0.723,-0.485c-0.025,-0.017 -0.056,-0.018 -0.082,-0.003c-0.026,0.014 -0.042,0.042 -0.04,0.071l0.009,0.244l-1.643,-0.223l0.097,-0.711c0.426,0.033 0.845,-0.054 1.142,-0.232c0.38,-0.228 0.694,-0.593 0.834,-1.3c0.103,-0.521 0.091,-0.777 0.32,-1.067c0.072,-0.095 0.175,-0.156 0.334,-0.153c0.115,0.002 0.386,0.064 0.313,-0.091c-0.065,-0.138 -0.2,-0.338 -0.263,-0.428c-0.238,-0.284 -0.457,-0.287 -0.621,-0.309c-0.328,-0.045 -0.662,0.211 -0.798,0.493c-0.033,0.069 -0.061,0.167 -0.093,0.243c-0.154,0.432 -0.385,0.91 -1.037,0.801c-0.457,-0.077 -0.657,-0.649 -1.126,-1.285c-0.436,-0.593 -1.232,-0.625 -1.682,-0.262c-0.318,0.257 -0.279,0.829 0.307,0.809c-0.451,0.22 -0.07,0.874 0.408,0.727c-0.25,0.176 -0.039,0.765 0.313,0.722c0.174,0.758 0.739,1.156 1.348,1.288l-0.097,0.714l-1.279,-0.174l-0.199,-0.34l-0.86,-0.117l0.227,0.475l-0.346,0.397l0.86,0.116l0.283,-0.274l1.279,0.173l-0.105,0.775c-0.413,0.006 -0.819,0.237 -0.992,0.688Zm3.637,-5.341c0.074,0.01 0.143,-0.042 0.153,-0.117c0.011,-0.075 -0.042,-0.143 -0.116,-0.154c-0.075,-0.01 -0.144,0.043 -0.154,0.117c-0.01,0.075 0.042,0.144 0.117,0.154Z" style="fill:#bd3d3d;"/></g></svg>