<?xml version="1.0" encoding="UTF-8" standalone="no"?><!DOCTYPE svg PUBLIC "-//W3C//DTD SVG 1.1//EN" "http://www.w3.org/Graphics/SVG/1.1/DTD/svg11.dtd"><svg width="100%" height="100%" viewBox="0 0 64 64" version="1.1" xmlns="http://www.w3.org/2000/svg" xmlns:xlink="http://www.w3.org/1999/xlink" xml:space="preserve" xmlns:serif="http://www.serif.com/" style="fill-rule:evenodd;clip-rule:evenodd;stroke-linejoin:round;stroke-miterlimit:2;"><circle cx="32" cy="32" r="32" style="fill:#8caaaf;"/><circle cx="32" cy="32" r="28.25" style="fill:#d0d5d6;"/><path d="M29.503,38.006c-2.402,2.945 -5.907,4.222 -8.87,2.901c-0.557,-0.249 -1.065,-0.577 -1.52,-0.97c-0.373,0.248 -0.785,0.46 -1.232,0.632c-3.588,1.38 -8.122,-0.368 -10.12,-3.903c-1.997,-3.536 -0.707,-7.525 2.881,-8.906c0.03,-0.011 0.059,-0.023 0.089,-0.034c-1.14,-3.337 1.19,-7.14 5.63,-8.849c4.132,-1.59 8.773,-0.858 11.304,1.558c2.419,-2.964 5.955,-4.245 8.929,-2.903c0.555,0.25 1.062,0.581 1.515,0.977c0.376,-0.248 0.788,-0.457 1.237,-0.628c3.598,-1.363 8.125,0.407 10.105,3.946c1.981,3.542 0.668,7.525 -2.93,8.887c-0.029,0.012 -0.059,0.023 -0.089,0.034c1.123,3.339 -1.227,7.131 -5.681,8.818c-4.114,1.559 -8.717,0.828 -11.248,-1.56Z" style="fill:#abb0b1;stroke:#6a737d;stroke-width:0.88px;"/><path d="M36.254,40.54c-0.476,0.124 -0.989,0.191 -1.524,0.191l-0.061,0c-0.423,1.565 -2.962,2.769 -6.027,2.769c-2.852,0 -5.249,-1.043 -5.909,-2.448c-2.322,0.843 -4.737,0.81 -5.993,-0.22c-0.234,-0.192 -0.416,-0.41 -0.546,-0.646c-0.292,0.042 -0.593,0.063 -0.902,0.062c-2.477,-0.009 -4.476,-1.463 -4.465,-3.246c0.001,-0.096 0.007,-0.192 0.02,-0.287c-1.016,-0.289 -1.781,-0.815 -2.063,-1.447c-1.517,0.581 -3.096,0.559 -3.918,-0.152c-0.153,-0.132 -0.272,-0.282 -0.357,-0.445c-0.191,0.029 -0.388,0.044 -0.59,0.043c-1.619,-0.006 -2.927,-1.01 -2.919,-2.239c0.008,-1.23 1.328,-2.223 2.948,-2.217l0.04,0c0.283,-1.077 1.948,-1.902 3.953,-1.895c1.852,0.007 3.405,0.722 3.843,1.683c1.507,-0.578 3.074,-0.557 3.895,0.146c0.155,0.132 0.275,0.282 0.361,0.444c0.19,-0.03 0.387,-0.045 0.589,-0.045c0.874,0 1.66,0.291 2.197,0.752c0.794,-0.197 1.681,-0.306 2.617,-0.303c2.832,0.01 5.207,1.047 5.877,2.44c2.219,-0.806 4.524,-0.809 5.813,0.102c0.112,-0.046 0.226,-0.088 0.344,-0.125c-0.601,-0.657 -0.762,-1.577 -0.484,-2.505c-0.239,-0.065 -0.448,-0.18 -0.605,-0.345c-0.323,-0.339 -0.346,-0.811 -0.117,-1.253c-0.452,-0.234 -0.804,-0.595 -0.961,-1.04c-0.009,-0.026 -0.018,-0.051 -0.025,-0.077c-0.057,-0.001 -0.112,-0.005 -0.166,-0.01c-0.056,0.065 -0.129,0.122 -0.22,0.168c-0.393,0.198 -0.96,0.107 -1.266,-0.204c-0.143,-0.145 -0.204,-0.312 -0.188,-0.469c-1.304,-0.018 -2.513,-0.867 -2.746,-1.958c-0.243,-1.14 0.671,-2.114 2.041,-2.175c0.316,-0.014 0.628,0.021 0.925,0.098c0.849,-0.733 2.274,-1.241 3.974,-1.317c0.55,-0.025 1.09,-0.002 1.609,0.061c0.141,-0.116 0.299,-0.226 0.473,-0.329c0.725,-0.429 1.575,-0.636 2.316,-0.61c0.077,-0.107 0.183,-0.202 0.318,-0.282c0.585,-0.346 1.483,-0.255 2.004,0.203c0.419,0.367 0.469,0.859 0.171,1.218c0.425,-0.008 0.836,0.019 1.223,0.082c0.171,-0.166 0.387,-0.309 0.648,-0.416c1.13,-0.469 2.655,-0.117 3.402,0.787c0.748,0.903 0.437,2.016 -0.694,2.485c-0.015,0.007 -0.031,0.013 -0.047,0.019c0.007,0.017 0.013,0.034 0.019,0.051c0.162,0.467 0.079,0.939 -0.186,1.33c0.958,-0.313 2.134,-0.498 3.405,-0.498c1.827,0 3.459,0.382 4.53,0.98c0.298,-0.077 0.622,-0.12 0.961,-0.12c1.008,0 1.886,0.376 2.34,0.93c1.35,-0.142 2.769,-0.096 3.99,0.174c2.67,0.591 3.393,2.028 1.615,3.208c-0.085,0.056 -0.174,0.111 -0.267,0.164c0.234,0.035 0.448,0.115 0.623,0.241c0.593,0.429 0.504,1.234 -0.197,1.796c-0.597,0.478 -1.447,0.628 -2.053,0.398c-1.182,0.816 -2.754,1.071 -3.961,0.54c-0.212,-0.093 -0.403,-0.206 -0.57,-0.335c-0.24,0.033 -0.484,0.063 -0.735,0.089c-0.058,0.297 -0.25,0.589 -0.547,0.848c0.302,0.465 0.474,1.001 0.474,1.572c0,1.771 -1.662,3.209 -3.709,3.209l-0.051,0c-0.35,1.554 -2.45,2.75 -4.984,2.75c-2.359,0 -4.341,-1.036 -4.887,-2.431c-1.729,0.754 -3.521,0.802 -4.618,0.056Z" style="fill:#f3f4f5;stroke:#6a737d;stroke-width:0.96px;"/><path d="M40.441,52.889c0.01,-0.03 0.02,-0.06 0.03,-0.09c0.528,-1.696 -0.576,-3.435 -2.464,-3.88c-0.015,-0.004 -0.031,-0.007 -0.046,-0.011c0.14,-1.564 -1.438,-3.167 -3.775,-3.718c-2.158,-0.509 -4.278,0.04 -5.208,1.24c-1.502,-1.218 -3.335,-1.629 -4.598,-0.89c-0.237,0.139 -0.442,0.311 -0.614,0.511c-0.208,-0.095 -0.431,-0.171 -0.666,-0.228c-1.885,-0.454 -3.85,0.553 -4.387,2.247c-0.014,0.045 -0.028,0.09 -0.04,0.136c-0.089,0.002 -0.176,0.008 -0.262,0.016c-0.088,-0.114 -0.204,-0.215 -0.347,-0.296c-0.62,-0.35 -1.517,-0.189 -2.001,0.36c-0.227,0.256 -0.323,0.552 -0.299,0.831c-2.061,0.031 -3.974,1.532 -4.345,3.46c-0.388,2.015 1.055,3.739 3.22,3.846c0.499,0.025 0.992,-0.038 1.461,-0.174c1.341,1.297 3.591,2.195 6.278,2.329c0.869,0.044 1.723,0.004 2.543,-0.108c0.222,0.204 0.472,0.4 0.746,0.582c1.146,0.758 2.488,1.124 3.659,1.079c0.122,0.187 0.29,0.357 0.502,0.498c0.923,0.611 2.343,0.451 3.169,-0.359c0.662,-0.648 0.742,-1.518 0.273,-2.153c0.671,0.014 1.322,-0.035 1.933,-0.145c0.269,0.294 0.611,0.545 1.023,0.736c1.785,0.828 4.195,0.205 5.379,-1.392c1.184,-1.596 0.696,-3.565 -1.09,-4.394c-0.024,-0.011 -0.049,-0.022 -0.074,-0.033Z" style="fill:#dedfe0;stroke:#6a737d;stroke-width:0.96px;"/><path d="M43.708,44.004c0.283,-0.775 0.898,-1.477 1.786,-1.929c1.815,-0.925 4.085,-0.459 5.065,1.041c0.139,0.212 0.244,0.433 0.318,0.659c1.718,0.603 2.934,1.664 3.175,2.902c0.164,0.08 0.319,0.183 0.463,0.308c0.798,0.696 1.06,1.923 0.785,3.165c0.192,0.07 0.359,0.194 0.485,0.372c0.417,0.593 0.209,1.562 -0.464,2.162c-0.573,0.51 -1.299,0.59 -1.76,0.237c-0.281,0.215 -0.577,0.384 -0.876,0.503c-0.04,0.045 -0.082,0.09 -0.125,0.134c-1.153,1.186 -2.853,1.374 -3.854,0.447c-0.012,0.004 -0.024,0.007 -0.036,0.011c-0.653,0.18 -1.302,0.049 -1.737,-0.296c-0.839,0.771 -2.269,1.28 -3.892,1.28c-1.463,0 -2.77,-0.414 -3.628,-1.061c-0.239,0.084 -0.498,0.13 -0.77,0.13c-0.807,0 -1.51,-0.407 -1.873,-1.007c-1.082,0.154 -2.218,0.104 -3.196,-0.188c-2.138,-0.639 -2.718,-2.195 -1.294,-3.472c0.068,-0.061 0.14,-0.121 0.214,-0.178c-0.187,-0.038 -0.358,-0.125 -0.498,-0.261c-0.475,-0.465 -0.405,-1.336 0.157,-1.944c0.479,-0.518 1.159,-0.68 1.644,-0.431c0.947,-0.884 2.206,-1.16 3.172,-0.585c0.171,0.101 0.323,0.223 0.457,0.363c0.192,-0.036 0.388,-0.069 0.588,-0.097c0.114,-0.781 0.864,-1.533 1.906,-1.82c0.331,-0.091 0.659,-0.126 0.968,-0.113c0.14,-0.17 0.326,-0.298 0.545,-0.358c0.493,-0.136 1.005,0.109 1.285,0.567c0.298,-0.2 0.63,-0.381 0.99,-0.541Z" style="fill:#dfe2e4;stroke:#6a737d;stroke-width:0.96px;"/><path d="M13.276,24.944c-1.603,0.706 -3.271,0.681 -4.145,-0.179c-0.164,-0.161 -0.291,-0.344 -0.383,-0.542c-0.202,0.036 -0.412,0.055 -0.627,0.055c-1.723,0 -3.121,-1.22 -3.121,-2.722c0,-1.503 1.398,-2.723 3.121,-2.723l0.043,0c0.294,-1.318 2.061,-2.333 4.193,-2.333c1.984,0 3.651,0.879 4.111,2.063c1.615,-0.71 3.295,-0.682 4.168,0.186c0.164,0.161 0.29,0.345 0.38,0.544c0.204,-0.036 0.413,-0.054 0.628,-0.053c1.723,0.008 3.114,1.234 3.106,2.736c-0.008,1.502 -1.413,2.716 -3.136,2.709l-0.043,0c-0.301,1.316 -2.073,2.324 -4.206,2.315c-1.97,-0.009 -3.623,-0.882 -4.089,-2.056Z" style="fill:#bdbdc1;stroke:#6a737d;stroke-width:0.96px;"/><path d="M51.609,38.189c-1.312,0.621 -2.677,0.6 -3.392,-0.158c-0.134,-0.142 -0.238,-0.303 -0.314,-0.478c-0.165,0.032 -0.337,0.049 -0.513,0.049c-1.41,0 -2.554,-1.075 -2.554,-2.398c0,-1.324 1.144,-2.398 2.554,-2.398l0.035,0c0.241,-1.162 1.687,-2.056 3.432,-2.056c1.624,0 2.989,0.774 3.364,1.817c1.322,-0.625 2.697,-0.601 3.412,0.164c0.134,0.142 0.238,0.304 0.311,0.479c0.167,-0.031 0.338,-0.047 0.514,-0.046c1.41,0.007 2.549,1.087 2.542,2.41c-0.007,1.323 -1.157,2.393 -2.567,2.386l-0.035,0c-0.246,1.16 -1.697,2.048 -3.442,2.04c-1.613,-0.008 -2.965,-0.777 -3.347,-1.811Z" style="fill:#bdbdc1;stroke:#6a737d;stroke-width:0.96px;"/><path d="M16.55,34.947c1.637,-0.84 3.34,-0.81 4.232,0.213c0.168,0.193 0.298,0.41 0.392,0.647c0.206,-0.044 0.42,-0.066 0.64,-0.066c1.758,0 3.186,1.452 3.186,3.241c0,1.788 -1.428,3.24 -3.186,3.24l-0.044,0c-0.301,1.57 -2.104,2.778 -4.281,2.778c-2.026,0 -3.728,-1.046 -4.197,-2.456c-1.649,0.846 -3.364,0.812 -4.256,-0.221c-0.167,-0.192 -0.296,-0.411 -0.388,-0.648c-0.208,0.043 -0.422,0.064 -0.641,0.063c-1.759,-0.009 -3.179,-1.469 -3.171,-3.256c0.008,-1.789 1.443,-3.235 3.202,-3.225l0.044,0c0.307,-1.568 2.116,-2.768 4.294,-2.757c2.011,0.01 3.698,1.05 4.174,2.447Z" style="fill:#bdbdc1;stroke:#6a737d;stroke-width:0.96px;"/></svg>