<?xml version="1.0" encoding="UTF-8" standalone="no"?><!DOCTYPE svg PUBLIC "-//W3C//DTD SVG 1.1//EN" "http://www.w3.org/Graphics/SVG/1.1/DTD/svg11.dtd"><svg width="100%" height="100%" viewBox="0 0 100 100" version="1.1" xmlns="http://www.w3.org/2000/svg" xmlns:xlink="http://www.w3.org/1999/xlink" xml:space="preserve" xmlns:serif="http://www.serif.com/" style="fill-rule:evenodd;clip-rule:evenodd;stroke-linejoin:round;stroke-miterlimit:2;"><path d="M100,49.932c0,-27.633 -22.404,-50.068 -50,-50.068c-27.596,0 -50,22.435 -50,50.068c0,27.633 22.404,50.068 50,50.068c27.596,-0 50,-22.435 50,-50.068Z" style="fill:#e0e0d5;"/><path d="M100,49.932c0,-27.633 -22.404,-50.068 -50,-50.068c-27.596,0 -50,22.435 -50,50.068c0,27.633 22.404,50.068 50,50.068c27.596,-0 50,-22.435 50,-50.068Zm-3,0c0,25.976 -21.059,47.068 -47,47.068c-25.941,-0 -47,-21.092 -47,-47.068c0,-25.976 21.059,-47.068 47,-47.068c25.941,0 47,21.092 47,47.068Z" style="fill:#122f41;"/><path d="M50,7c0,0 -29.5,40.25 -29.5,57.5c0,16.281 13.219,29.5 29.5,29.5c16.281,-0 29.5,-13.219 29.5,-29.5c0,-17.25 -29.5,-57.5 -29.5,-57.5Z" style="fill:#122f41;"/><text x="25.83px" y="78.237px" style="font-family:'Arial-BoldMT', 'Arial', sans-serif;font-weight:700;font-size:30px;fill:#e0e0d5;">H%</text></svg>