<?xml version="1.0" encoding="UTF-8" standalone="no"?><!DOCTYPE svg PUBLIC "-//W3C//DTD SVG 1.1//EN" "http://www.w3.org/Graphics/SVG/1.1/DTD/svg11.dtd"><svg width="100%" height="100%" viewBox="0 0 100 100" version="1.1" xmlns="http://www.w3.org/2000/svg" xmlns:xlink="http://www.w3.org/1999/xlink" xml:space="preserve" xmlns:serif="http://www.serif.com/" style="fill-rule:evenodd;clip-rule:evenodd;stroke-linecap:round;stroke-linejoin:round;stroke-miterlimit:1.5;"><path d="M100,50c0,27.596 -22.404,50 -50,50c-27.596,0 -50,-22.404 -50,-50c0,-27.596 22.404,-50 50,-50c27.596,0 50,22.404 50,50Z" style="fill:#e0e0d5;"/><path d="M100,50c0,27.596 -22.404,50 -50,50c-27.596,0 -50,-22.404 -50,-50c0,-27.596 22.404,-50 50,-50c27.596,0 50,22.404 50,50Zm-3,0c0,25.94 -21.06,47 -47,47c-25.94,-0 -47,-21.06 -47,-47c0,-25.94 21.06,-47 47,-47c25.94,0 47,21.06 47,47Z" style="fill:#122f41;"/><path d="M98,50l-96,0" style="fill:none;stroke:#122f41;stroke-width:3px;"/><path d="M93.75,30l-87.5,0" style="fill:none;stroke:#122f41;stroke-width:3px;"/><path d="M77,10l-54,-0" style="fill:none;stroke:#122f41;stroke-width:3px;"/><path d="M5.75,70l87.5,0" style="fill:none;stroke:#122f41;stroke-width:3px;"/><path d="M22.5,90l54,0" style="fill:none;stroke:#122f41;stroke-width:3px;"/><path d="M50,100l-20,-50l20,-50l20,50l-20,50Z" style="fill:#122f41;"/></svg>