<?xml version="1.0" encoding="UTF-8" standalone="no"?><!DOCTYPE svg PUBLIC "-//W3C//DTD SVG 1.1//EN" "http://www.w3.org/Graphics/SVG/1.1/DTD/svg11.dtd"><svg width="100%" height="100%" viewBox="0 0 64 64" version="1.1" xmlns="http://www.w3.org/2000/svg" xmlns:xlink="http://www.w3.org/1999/xlink" xml:space="preserve" xmlns:serif="http://www.serif.com/" style="fill-rule:evenodd;clip-rule:evenodd;stroke-linejoin:round;stroke-miterlimit:2;"><circle cx="32" cy="32" r="32" style="fill:#c0d5d7;"/><circle cx="32" cy="20" r="16" style="fill:#fcd762;stroke:#ebdba0;stroke-width:0.99px;"/><g><g><path d="M29.046,21.702c1.896,-0.803 3.866,-0.775 4.899,0.203c0.194,0.184 0.344,0.393 0.453,0.618c0.239,-0.041 0.487,-0.062 0.741,-0.062c2.036,0 3.689,1.388 3.689,3.098c0,1.711 -1.653,3.099 -3.689,3.099l-0.051,0c-0.347,1.501 -2.435,2.656 -4.955,2.656c-2.345,0 -4.316,-1 -4.858,-2.348c-1.909,0.809 -3.894,0.777 -4.928,-0.212c-0.193,-0.184 -0.342,-0.392 -0.449,-0.619c-0.24,0.04 -0.487,0.061 -0.742,0.06c-2.036,-0.009 -3.68,-1.404 -3.67,-3.114c0.009,-1.71 1.67,-3.092 3.706,-3.084l0.051,0c0.356,-1.498 2.451,-2.646 4.971,-2.635c2.328,0.01 4.281,1.004 4.832,2.34Z" style="fill:#f8f8f8;stroke:#6a737d;stroke-width:1px;"/><path d="M35.683,42.199c-0.003,0.026 -0.007,0.052 -0.012,0.079c-0.248,1.501 -1.93,2.553 -3.754,2.348c-0.015,-0.002 -0.03,-0.003 -0.045,-0.005c-0.529,1.281 -2.567,2.086 -4.825,1.833c-2.085,-0.235 -3.697,-1.296 -4.004,-2.522c-1.811,0.522 -3.573,0.305 -4.362,-0.653c-0.148,-0.181 -0.254,-0.377 -0.319,-0.587c-0.221,0.014 -0.446,0.009 -0.674,-0.016c-1.825,-0.197 -3.111,-1.575 -2.871,-3.077c0.006,-0.04 0.013,-0.08 0.022,-0.119c-0.077,-0.029 -0.151,-0.059 -0.221,-0.091c-0.124,0.064 -0.267,0.11 -0.424,0.132c-0.685,0.094 -1.396,-0.298 -1.588,-0.877c-0.089,-0.269 -0.051,-0.533 0.087,-0.746c-1.775,-0.634 -2.811,-2.389 -2.329,-4.027c0.502,-1.713 2.472,-2.652 4.397,-2.098c0.442,0.128 0.845,0.323 1.195,0.57c1.703,-0.632 4.031,-0.679 6.419,0.008c0.773,0.223 1.497,0.507 2.162,0.837c0.278,-0.096 0.576,-0.177 0.89,-0.24c1.311,-0.263 2.628,-0.156 3.625,0.225c0.185,-0.112 0.401,-0.197 0.644,-0.246c1.055,-0.212 2.221,0.335 2.6,1.22c0.305,0.71 0.013,1.423 -0.659,1.788c0.588,0.187 1.132,0.417 1.617,0.685c0.356,-0.152 0.758,-0.25 1.194,-0.28c1.895,-0.129 3.727,1.077 4.09,2.692c0.363,1.616 -0.882,3.033 -2.776,3.162c-0.027,0.002 -0.052,0.003 -0.079,0.005Z" style="fill:#f1f2f3;stroke:#6a737d;stroke-width:1px;"/><path d="M54.656,34.532c0.016,0.028 0.032,0.058 0.048,0.087c0.869,1.661 0.065,3.639 -1.795,4.415c-0.015,0.007 -0.031,0.012 -0.046,0.019c0.445,1.589 -0.874,3.508 -3.177,4.468c-2.126,0.888 -4.417,0.677 -5.605,-0.405c-1.315,1.509 -3.125,2.24 -4.569,1.69c-0.271,-0.104 -0.515,-0.247 -0.73,-0.424c-0.196,0.133 -0.412,0.248 -0.643,0.346c-1.856,0.785 -4.075,0.077 -4.953,-1.58c-0.023,-0.044 -0.045,-0.089 -0.067,-0.134c-0.092,0.013 -0.183,0.021 -0.274,0.027c-0.068,0.133 -0.168,0.256 -0.3,0.363c-0.572,0.466 -1.528,0.45 -2.132,-0.035c-0.282,-0.226 -0.439,-0.515 -0.468,-0.806c-2.129,0.313 -4.389,-0.914 -5.142,-2.84c-0.786,-2.014 0.37,-4.033 2.581,-4.508c0.509,-0.109 1.03,-0.126 1.54,-0.065c1.132,-1.562 3.278,-2.866 6.022,-3.456c0.888,-0.19 1.776,-0.292 2.642,-0.314c0.191,-0.249 0.41,-0.492 0.658,-0.726c1.035,-0.975 2.348,-1.577 3.564,-1.727c0.089,-0.213 0.23,-0.417 0.422,-0.598c0.834,-0.785 2.328,-0.857 3.335,-0.162c0.807,0.558 1.056,1.442 0.694,2.175c0.689,-0.127 1.369,-0.185 2.02,-0.175c0.221,-0.347 0.526,-0.664 0.913,-0.93c1.681,-1.153 4.285,-0.915 5.812,0.533c1.526,1.448 1.401,3.561 -0.28,4.714c-0.023,0.017 -0.047,0.032 -0.07,0.048Z" style="fill:#e9eaeb;stroke:#6a737d;stroke-width:1px;"/><path d="M31.444,22.142c0.544,-1.496 1.731,-2.851 3.44,-3.724c3.496,-1.786 7.869,-0.886 9.758,2.009c0.267,0.409 0.47,0.835 0.612,1.272c3.311,1.164 5.651,3.213 6.117,5.601c0.315,0.155 0.614,0.353 0.892,0.595c1.537,1.344 2.042,3.711 1.512,6.108c0.369,0.136 0.691,0.376 0.933,0.719c0.805,1.145 0.404,3.015 -0.893,4.172c-1.103,0.985 -2.503,1.139 -3.39,0.459c-0.542,0.415 -1.111,0.74 -1.689,0.969c-0.077,0.088 -0.156,0.175 -0.239,0.26c-2.221,2.289 -5.498,2.651 -7.424,0.863c-0.024,0.007 -0.047,0.013 -0.071,0.02c-1.257,0.347 -2.507,0.095 -3.346,-0.571c-1.615,1.49 -4.371,2.471 -7.496,2.471c-2.819,-0 -5.338,-0.799 -6.99,-2.047c-0.46,0.161 -0.96,0.25 -1.483,0.25c-1.554,-0 -2.909,-0.785 -3.609,-1.943c-2.083,0.298 -4.273,0.201 -6.157,-0.364c-4.118,-1.234 -5.235,-4.236 -2.492,-6.701c0.131,-0.119 0.269,-0.232 0.412,-0.344c-0.36,-0.073 -0.69,-0.24 -0.96,-0.504c-0.915,-0.896 -0.779,-2.577 0.304,-3.752c0.921,-1 2.232,-1.312 3.167,-0.832c1.824,-1.705 4.248,-2.238 6.11,-1.129c0.328,0.195 0.622,0.431 0.881,0.701c0.369,-0.07 0.747,-0.132 1.133,-0.186c0.218,-1.508 1.663,-2.959 3.67,-3.513c0.638,-0.177 1.27,-0.245 1.865,-0.218c0.271,-0.329 0.629,-0.576 1.051,-0.692c0.948,-0.262 1.935,0.21 2.475,1.094c0.574,-0.386 1.213,-0.735 1.907,-1.043Z" style="fill:#eaeced;stroke:#6a737d;stroke-width:1px;"/><path d="M21.599,31.932c0.495,-1.733 3.473,-3.067 7.066,-3.067c3.941,-0 7.138,1.603 7.138,3.578c0,0.259 -0.054,0.511 -0.159,0.755c1.046,1.551 -0.144,3.915 -3.007,5.641c-3.265,1.969 -7.481,2.368 -9.408,0.89c-0.277,-0.212 -0.491,-0.453 -0.646,-0.713c-0.341,0.048 -0.694,0.072 -1.057,0.072c-2.903,-0 -5.26,-1.603 -5.26,-3.578c0,-1.975 2.357,-3.578 5.26,-3.578l0.073,-0Z" style="fill:#d8d8e1;stroke:#6a737d;stroke-width:1px;"/><path d="M29.677,37.468c-2.011,0.947 -4.103,0.914 -5.199,-0.241c-0.205,-0.217 -0.365,-0.462 -0.481,-0.729c-0.253,0.049 -0.517,0.074 -0.786,0.074c-2.161,0 -3.915,-1.638 -3.915,-3.657c0,-2.019 1.754,-3.658 3.915,-3.658l0.054,0c0.369,-1.772 2.584,-3.135 5.259,-3.135c2.488,0 4.58,1.181 5.156,2.771c2.025,-0.954 4.133,-0.916 5.228,0.25c0.206,0.217 0.364,0.464 0.477,0.731c0.255,-0.047 0.518,-0.072 0.788,-0.071c2.16,0.011 3.905,1.658 3.895,3.676c-0.01,2.019 -1.772,3.65 -3.934,3.64l-0.053,0c-0.378,1.769 -2.6,3.123 -5.276,3.111c-2.471,-0.012 -4.543,-1.185 -5.128,-2.762Z" style="fill:#e5e6e8;stroke:#6a737d;stroke-width:1px;"/><path d="M39.911,37.966c-1.779,0.777 -3.629,0.75 -4.598,-0.197c-0.182,-0.178 -0.324,-0.379 -0.426,-0.597c-0.224,0.04 -0.457,0.06 -0.695,0.06c-1.911,0 -3.462,-1.342 -3.462,-2.997c0,-1.654 1.551,-2.997 3.462,-2.997l0.047,0c0.327,-1.451 2.286,-2.569 4.651,-2.569c2.202,0 4.051,0.968 4.561,2.271c1.792,-0.782 3.655,-0.751 4.625,0.205c0.181,0.178 0.321,0.38 0.421,0.599c0.225,-0.039 0.458,-0.059 0.696,-0.058c1.912,0.008 3.455,1.358 3.446,3.012c-0.009,1.654 -1.568,2.991 -3.479,2.982l-0.047,0c-0.335,1.45 -2.3,2.56 -4.667,2.55c-2.185,-0.01 -4.018,-0.971 -4.535,-2.264Z" style="fill:#eaeaec;stroke:#6a737d;stroke-width:1px;"/></g></g></svg>