<?xml version="1.0" encoding="UTF-8" standalone="no"?><!DOCTYPE svg PUBLIC "-//W3C//DTD SVG 1.1//EN" "http://www.w3.org/Graphics/SVG/1.1/DTD/svg11.dtd"><svg width="100%" height="100%" viewBox="0 0 64 64" version="1.1" xmlns="http://www.w3.org/2000/svg" xmlns:xlink="http://www.w3.org/1999/xlink" xml:space="preserve" xmlns:serif="http://www.serif.com/" style="fill-rule:evenodd;clip-rule:evenodd;stroke-linejoin:round;stroke-miterlimit:2;"><circle cx="32" cy="32" r="32" style="fill:#8caaaf;"/><path d="M28.504,9.873c2.243,-0.836 4.576,-0.806 5.799,0.212c0.229,0.191 0.408,0.408 0.536,0.643c0.283,-0.043 0.576,-0.065 0.877,-0.065c2.411,0 4.367,1.445 4.367,3.225c0,1.781 -1.956,3.226 -4.367,3.226l-0.059,0c-0.412,1.562 -2.883,2.764 -5.867,2.764c-2.776,0 -5.109,-1.041 -5.751,-2.444c-2.26,0.842 -4.611,0.809 -5.834,-0.22c-0.228,-0.192 -0.405,-0.409 -0.531,-0.645c-0.285,0.042 -0.578,0.063 -0.879,0.062c-2.41,-0.008 -4.357,-1.461 -4.345,-3.241c0.011,-1.78 1.977,-3.218 4.388,-3.209l0.059,0c0.423,-1.56 2.902,-2.754 5.886,-2.743c2.756,0.01 5.068,1.045 5.721,2.435Z" style="fill:#cacacf;stroke:#6a737d;stroke-width:0.9px;"/><path d="M36.36,31.207c-0.003,0.027 -0.008,0.055 -0.013,0.083c-0.294,1.562 -2.285,2.657 -4.445,2.444c-0.017,-0.002 -0.035,-0.004 -0.054,-0.005c-0.626,1.333 -3.039,2.171 -5.712,1.907c-2.468,-0.244 -4.376,-1.348 -4.739,-2.625c-2.144,0.543 -4.23,0.318 -5.164,-0.68c-0.176,-0.187 -0.301,-0.392 -0.379,-0.61c-0.26,0.014 -0.527,0.009 -0.797,-0.017c-2.16,-0.205 -3.683,-1.64 -3.399,-3.203c0.007,-0.041 0.015,-0.083 0.026,-0.124c-0.091,-0.029 -0.178,-0.061 -0.261,-0.094c-0.148,0.066 -0.316,0.115 -0.502,0.137c-0.811,0.098 -1.653,-0.31 -1.881,-0.912c-0.105,-0.281 -0.059,-0.555 0.103,-0.777c-2.101,-0.66 -3.328,-2.487 -2.757,-4.192c0.595,-1.782 2.927,-2.76 5.205,-2.183c0.525,0.133 1.001,0.336 1.416,0.593c2.016,-0.658 4.772,-0.707 7.599,0.009c0.914,0.231 1.772,0.527 2.559,0.871c0.329,-0.1 0.682,-0.185 1.054,-0.251c1.552,-0.273 3.111,-0.162 4.291,0.235c0.219,-0.117 0.475,-0.205 0.763,-0.256c1.249,-0.221 2.629,0.349 3.078,1.27c0.361,0.739 0.015,1.481 -0.78,1.86c0.696,0.195 1.34,0.435 1.914,0.714c0.422,-0.159 0.897,-0.261 1.414,-0.292c2.243,-0.134 4.412,1.121 4.841,2.802c0.43,1.682 -1.044,3.157 -3.286,3.291c-0.032,0.002 -0.062,0.004 -0.094,0.005Z" style="fill:#a5abaf;stroke:#6a737d;stroke-width:0.9px;"/><path d="M58.821,23.227c0.02,0.03 0.038,0.06 0.057,0.091c1.029,1.728 0.079,3.787 -2.124,4.595c-0.019,0.007 -0.037,0.013 -0.054,0.02c0.526,1.654 -1.036,3.651 -3.761,4.65c-2.519,0.925 -5.23,0.704 -6.637,-0.421c-1.555,1.57 -3.698,2.332 -5.409,1.758c-0.32,-0.107 -0.61,-0.256 -0.863,-0.441c-0.233,0.139 -0.488,0.259 -0.762,0.361c-2.197,0.816 -4.824,0.08 -5.864,-1.644c-0.027,-0.047 -0.053,-0.093 -0.078,-0.14c-0.11,0.013 -0.218,0.022 -0.325,0.028c-0.081,0.138 -0.199,0.267 -0.356,0.378c-0.676,0.485 -1.808,0.468 -2.524,-0.036c-0.333,-0.237 -0.519,-0.537 -0.554,-0.839c-2.52,0.325 -5.196,-0.952 -6.087,-2.957c-0.93,-2.096 0.439,-4.197 3.056,-4.692c0.602,-0.113 1.219,-0.131 1.823,-0.067c1.34,-1.626 3.88,-2.984 7.129,-3.598c1.051,-0.197 2.103,-0.304 3.128,-0.326c0.225,-0.26 0.485,-0.512 0.778,-0.756c1.226,-1.014 2.78,-1.641 4.219,-1.798c0.106,-0.221 0.273,-0.433 0.5,-0.621c0.987,-0.818 2.757,-0.893 3.948,-0.169c0.956,0.58 1.251,1.501 0.822,2.263c0.816,-0.132 1.621,-0.193 2.391,-0.182c0.263,-0.361 0.624,-0.691 1.081,-0.968c1.99,-1.2 5.073,-0.952 6.881,0.554c1.808,1.508 1.659,3.707 -0.331,4.908c-0.028,0.016 -0.056,0.033 -0.084,0.049Z" style="fill:#a5abaf;stroke:#6a737d;stroke-width:0.9px;"/><path d="M31.342,10.331c0.645,-1.556 2.049,-2.967 4.072,-3.876c4.14,-1.859 9.316,-0.922 11.553,2.092c0.316,0.425 0.556,0.869 0.724,1.323c3.919,1.212 6.691,3.344 7.242,5.83c0.373,0.161 0.727,0.368 1.055,0.62c1.821,1.398 2.419,3.862 1.791,6.357c0.437,0.141 0.819,0.391 1.105,0.748c0.952,1.192 0.478,3.138 -1.058,4.343c-1.305,1.024 -2.962,1.185 -4.014,0.477c-0.64,0.432 -1.314,0.77 -1.998,1.009c-0.092,0.092 -0.186,0.182 -0.284,0.27c-2.629,2.383 -6.508,2.76 -8.789,0.898c-0.027,0.008 -0.056,0.014 -0.083,0.022c-1.489,0.361 -2.969,0.098 -3.962,-0.594c-1.912,1.55 -5.174,2.571 -8.875,2.571c-3.337,0 -6.319,-0.831 -8.273,-2.131c-0.545,0.168 -1.137,0.261 -1.757,0.261c-1.84,0 -3.445,-0.817 -4.273,-2.023c-2.465,0.31 -5.058,0.21 -7.288,-0.378c-4.876,-1.284 -6.198,-4.41 -2.95,-6.975c0.155,-0.124 0.318,-0.242 0.487,-0.358c-0.426,-0.076 -0.817,-0.25 -1.137,-0.524c-1.083,-0.934 -0.921,-2.683 0.361,-3.906c1.089,-1.04 2.642,-1.366 3.749,-0.866c2.159,-1.775 5.029,-2.329 7.234,-1.175c0.387,0.203 0.736,0.449 1.042,0.73c0.437,-0.073 0.884,-0.138 1.341,-0.194c0.258,-1.569 1.969,-3.08 4.345,-3.657c0.755,-0.183 1.503,-0.254 2.208,-0.227c0.321,-0.342 0.744,-0.598 1.244,-0.72c1.123,-0.272 2.292,0.219 2.93,1.139c0.68,-0.401 1.437,-0.765 2.258,-1.086Z" style="fill:#dfe2e4;stroke:#6a737d;stroke-width:0.9px;"/><path d="M21.249,25.911l-3.192,5.729l-0.497,6.269l-3.484,2.005l-1.837,4.63l-3.48,4.096l4.29,-3.587l1.789,-3.396l3.153,-1.944l1.33,3.917l-1.172,8.87l2.797,-8.016l-1.763,-8.005l0.543,-3.332l3.515,-5.136l-1.992,-2.1Z" style="fill:#faf47f;"/><path d="M37.613,25.821l5.918,7.789l-0.582,6.243l0.524,2.04l4.437,2.136l1.201,4.91l5.537,4.066l-6.662,-3.843l-0.995,-4.696l-3.991,-1.527l-1.767,7.507l1.434,9.756l-2.679,-9.573l1.947,-7.816l-0.351,-2.384l-5.799,2.103l-4.344,4.824l3.096,-5.056l6.873,-3.054l-0.537,-5.659l-7.028,-6.819l3.768,-0.947Z" style="fill:#faf47f;"/><path d="M19.687,20.521c0.586,-1.804 4.111,-3.192 8.366,-3.192c4.665,0 8.45,1.668 8.45,3.724c0,0.269 -0.065,0.532 -0.189,0.786c1.238,1.615 -0.17,4.075 -3.559,5.871c-3.866,2.049 -8.858,2.465 -11.138,0.927c-0.328,-0.221 -0.581,-0.472 -0.765,-0.743c-0.404,0.05 -0.822,0.075 -1.251,0.075c-3.438,0 -6.227,-1.668 -6.227,-3.724c0,-2.056 2.789,-3.724 6.227,-3.724l0.086,0Z" style="fill:#efeff0;stroke:#6a737d;stroke-width:0.9px;"/><path d="M29.25,26.283c-2.38,0.986 -4.857,0.952 -6.154,-0.25c-0.244,-0.226 -0.433,-0.482 -0.57,-0.759c-0.3,0.051 -0.612,0.077 -0.93,0.077c-2.559,0 -4.635,-1.705 -4.635,-3.807c0,-2.101 2.076,-3.807 4.635,-3.807l0.063,0c0.437,-1.844 3.06,-3.263 6.226,-3.263c2.946,0 5.422,1.229 6.104,2.884c2.398,-0.992 4.893,-0.953 6.19,0.261c0.243,0.226 0.43,0.483 0.564,0.761c0.302,-0.05 0.613,-0.075 0.932,-0.075c2.558,0.012 4.624,1.726 4.612,3.827c-0.012,2.101 -2.098,3.799 -4.657,3.788l-0.063,0c-0.447,1.841 -3.078,3.251 -6.246,3.238c-2.925,-0.012 -5.378,-1.234 -6.071,-2.875Z" style="fill:#fafafa;stroke:#6a737d;stroke-width:0.9px;"/><path d="M41.366,26.802c-2.106,0.808 -4.297,0.78 -5.444,-0.205c-0.215,-0.185 -0.383,-0.395 -0.504,-0.622c-0.265,0.042 -0.541,0.063 -0.823,0.063c-2.262,0 -4.098,-1.397 -4.098,-3.119c0,-1.722 1.836,-3.12 4.098,-3.12l0.056,0c0.387,-1.511 2.706,-2.674 5.507,-2.674c2.607,0 4.795,1.008 5.399,2.364c2.121,-0.814 4.326,-0.782 5.475,0.213c0.215,0.185 0.38,0.396 0.498,0.623c0.267,-0.04 0.543,-0.061 0.824,-0.06c2.264,0.009 4.09,1.414 4.08,3.135c-0.01,1.722 -1.856,3.113 -4.119,3.104l-0.056,0c-0.396,1.509 -2.723,2.665 -5.524,2.654c-2.586,-0.01 -4.758,-1.011 -5.369,-2.356Z" style="fill:#bdbdc1;stroke:#6a737d;stroke-width:0.9px;"/></svg>